<?xml version="1.0" encoding="utf-8"?>
<!-- Generator: Adobe Illustrator 26.3.1, SVG Export Plug-In . SVG Version: 6.00 Build 0)  -->
<svg version="1.1" id="Sparkles" xmlns="http://www.w3.org/2000/svg" xmlns:xlink="http://www.w3.org/1999/xlink" x="0px"
    y="0px" viewBox="0 0 1728 648" style="enable-background:new 0 0 1728 648;" xml:space="preserve">
    <path
        d="M1564.26,205.93c85.79,9.81,153.78,25.53,148.43,64.73c-7.56,35.68-99.39,57.59-82.53,96.42
	c8.19,15.6,40.25,27.67,60.58,41.43c42.29,26.48,13.39,51.75-34.36,66.88c-27.62,9.78-62.58,15.61-92.8,23.99
	c-16.38,5.55-24.51,14.35-27.89,23.17c-2.16,6.81,0.35,14-0.98,20.88c-1.75,15.19-22.05,27.83-52.37,35.1
	c-50.61,13.04-120.18,13.8-184.04,5.59c-54.72-7.12-105.78-23.39-160.38-15.47c-50.32,6.8-85.41,23.99-139.57,27.97
	c-50.39,3.13-95.54-16.47-142.26-24.5c-51.52-8.56-106.64-7.3-155.31-3.24c-52.6,4.64-98.08,15.12-147.23,22.59
	c-59.05,8.6-125.91,12.18-193.37,6.88c-48.48-4.35-98.48-12.34-138.62-26.28c-40-13.58-48.19-33.44-10.86-44.39
	c18.3-5.7,40.45-9.31,63.06-12.18c21.13-3.39,68.5-5.43,73.95-15.49c-1.2-14.22-79.16-17.38-105.05-19.86
	c-34.95-2.65-70.4-4.82-104.52-10.61c0,0-24.31-3.44-84.92-21.9c-31.94-9.73-35.41-15.59-35.53-19.32
	c-0.37-10.56,29.22-12.94,82.13-38.35c55.78-26.8,37.2-31.03,83.78-54.49c5.47-2.76,17.12-8.52,18.36-17.98
	c1.13-8.63-5.91-18.01-19.52-26.34c-11.62-7.42-27.95-13.51-41.67-20.34c-22.13-10.56-37.51-25.17-22.8-36.4
	c33.58-28.72,118.98-36.09,193.63-41.8c20.22-1.76,40.28-4.72,53.79-10.72c5.22-2.57,11-6.9,3-10.36
	c-18.31-5.79-41.92-6.54-62.14-10.55c-42.49-7.16-59.17-18.45-35.05-33.02c45.03-28.19,144.36-27.64,227.1-25.04
	c50.02,0.98,103.86,6.92,148.77-0.77c34.21-5.57,63.44-14.26,92.78-22.67c47.09-14.17,94.95-30.58,165.22-22.1
	c44.27,4.38,83.56,15.81,125.65,23.37c70.85,13.07,147.83,13.62,214.36,6.27c76.4-9.58,146.51-27.98,234.24-24.71
	c87.03,2.66,139.07,30.25,117.27,62.57c-13.61,21.33-54.88,35.4-80.86,53.5C1492.87,194.33,1527.05,201.54,1564.26,205.93z" />
    <path d="M91.34,182.88C50.59,204.27,7.09,227.1,4.16,253.65c-4.57,41.47,96.78,81.84,83.68,110.69
	c-8.02,17.67-39.98,31.06-60.18,46.5c-42.03,29.68-12.83,58.77,35.13,76.52c27.75,11.44,62.81,18.47,93.15,28.34
	c16.45,6.5,24.69,16.61,28.17,26.69c2.24,7.77-0.19,15.93,1.22,23.78c1.92,17.32,22.37,31.93,52.81,40.54
	c50.8,15.41,120.44,17.04,184.27,8.4c54.69-7.5,105.61-25.45,160.36-15.84c50.44,8.3,85.75,28.26,140,33.39
	c50.47,4.12,95.44-17.69,142.11-26.31c51.47-9.18,106.66-7.13,155.41-1.97c52.69,5.87,98.34,18.3,147.62,27.35
	c59.2,10.45,126.16,15.26,193.62,9.98c48.48-4.41,98.43-12.96,138.46-28.38c39.89-15.02,47.87-37.54,10.38-50.42
	c-18.38-6.69-40.59-11.05-63.25-14.57c-21.19-4.09-68.62-6.94-74.19-18.45c1.04-16.18,79.04-18.91,104.92-21.45
	c34.95-2.63,70.41-4.71,104.49-10.92c6.59-1.2,42.29-5.59,84.75-23.99c27.18-11.77,33.38-18.83,33.96-25.95
	c1.23-15.14-23.02-29.66-43.68-41.76c-35.18-20.6-78.77-36.81-122.01-61.43c-6.04-3.44-17.26-10.13-18.58-20.68
	c-1.23-9.84,5.72-20.44,19.24-29.78c11.55-8.32,27.82-15.07,41.48-22.69c22.03-11.77,37.26-28.24,22.42-41.18
	c-33.93-33.07-119.48-42.41-194.27-49.73c-20.26-2.23-40.37-5.82-53.95-12.8c-5.25-2.98-11.09-7.97-3.12-11.83
	c18.26-6.39,41.89-6.98,62.08-11.32c42.45-7.68,59.02-20.35,34.72-37.21C1400,74.58,1300.59,74.1,1217.8,76.14
	c-50.06,0.56-103.88,6.73-148.91-2.52c-34.3-6.72-63.65-16.93-93.11-26.84c-47.29-16.66-95.37-35.87-165.61-26.99
	c-44.26,4.49-83.46,17.07-125.5,25.22C613.9,59.1,536.85,58.88,470.19,49.77c-76.58-11.75-146.95-33.48-234.72-30.73
	c-72.12,1.71-120.02,23.15-121.76,51.51c-0.6,9.86,5.08,18.42,5.08,18.42c5.86,9.86,12.9,9.47,18.26,16.92
	c9.17,12.74,3.16,34.12,2.62,35.96C133.26,163.64,112.45,171.8,91.34,182.88z" />
    <path d="M1734.91,415.67" />
</svg>
