<?xml version="1.0" encoding="utf-8"?>
<!-- Generator: Adobe Illustrator 26.3.1, SVG Export Plug-In . SVG Version: 6.00 Build 0)  -->
<svg version="1.1" id="Sparkles" xmlns="http://www.w3.org/2000/svg" xmlns:xlink="http://www.w3.org/1999/xlink" x="0px"
    y="0px" viewBox="0 0 1080 1080" style="enable-background:new 0 0 1080 1080;" xml:space="preserve">
    <path class="textMain" d="M591.65,741.16c3.24-10.68,13.28-20.43,20.31-23.9c6.19-3.05,19.44-7.4,26.25-8.53
		c1.27-0.21,3.92-0.76,5.12-0.32c1.9,0.7,5.32,3.52,6.01,5.42c1.12,3.07,1.02,10.04-0.22,13.06c-0.86,2.1-3.64,5.9-5.46,7.27
		c-3.18,2.39-10.77,5.14-14.35,6.88c-3.47,1.68-5.86,5.09-7.81,13.31c-0.5,2.09-0.39,5-1.09,6.11c-4.51,7.13-8.52,22.71-11.6,30.56
		c-2.05,5.22-7.44,15.7-9.82,20.78c-1.52,3.23-10.8,13.78-11.92,9.1c-0.19-0.78-0.01-3.66,0.16-4.87c0.32-2.35,0.34-7.1,0.41-9.46
		c0.12-4.19,0.66-12.55,0.78-16.73c0.05-1.91-0.02-5.74,0.03-7.65c0.12-4.46,0.85-13.37,1-17.83c0.06-1.91-0.06-5.73,0.02-7.64
		c0.08-2.02,0.53-6.06,0.73-8.07" />
    <path class="textAccent" d="M589.33,764.28" />
    <path class="textAccent" d="M309.63,710.68" />
    <path class="textMain" d="M449.46,703.23c-0.02-1,0.21-3.38,0.51-5c2.08-22.48,2.2-45.08,3.82-67.59c1.33-18.41,9.42-32.82,27.56-39.38
		c4.72-1.71,8.23-0.99,11.24,3.09c2.48,3.36,4.53,7.14,6.15,11c2.72,6.49,4.87,13.21,7.42,19.78c0.84,2.16,1.95,4.31,3.36,6.14
		c1.96,2.53,4.54,2.55,6.14-0.2c1.45-2.49,2.6-5.46,2.79-8.3c0.32-4.81-0.16-9.68-0.42-14.51c-0.34-6.25-0.86-12.49-1.21-18.74
		c-0.28-5.02,1.86-9.12,6.21-11.29c6.13-3.04,12.45-5.93,18.99-7.86c6.82-2,10.29,0.85,10.33,7.99c0.05,8.92-0.51,17.84-1.08,27.3
		c-0.16,1.08-0.04,1.61,0.07,2.15c-0.25,6.93-0.51,13.87-1.03,21.35c-0.15,1.09-0.04,1.62,0.08,2.15
		c-0.45,11.91-0.9,23.81-1.74,36.27c-4.5,8.63-8.57,16.73-12.71,24.8c-4.1,8-9.21,15.2-16.59,20.59c-0.82,0.6-1.29,1.68-1.92,2.54
		c-4.44,1.35-7.87-0.61-10.11-4.03c-2.36-3.61-4.46-7.58-5.73-11.69c-2.54-8.2-4.39-16.6-6.63-24.89c-0.85-3.16-1.87-6.29-3.05-9.34
		c-0.61-1.57-1.54-3.12-2.68-4.35c-2.5-2.69-5.87-2.17-7.03,1.28c-0.93,2.76-1.59,5.83-1.42,8.71c0.58,10.28,1.47,20.55,2.44,30.8
		c0.41,4.35,1.49,8.63,1.93,12.98c0.51,5.05-1.62,9.59-6.86,12.31c-7.73-2.72-12.94-8.11-18-13.88
		C456.85,709.48,452.99,707.08,449.46,703.23z" />
    <path class="textAccent" d="M933.83,349.23c1.56,5.87,3.39,13.3,5.01,19.15c0.62,2.25,1.35,4.5,2.29,6.63c0.86,1.95,1.68,4.5,4.41,4.15
		c2.71-0.35,2.9-3.09,3.27-5.14c0.47-2.59,0.65-5.29,0.55-7.93c-0.3-8.28-0.71-17.7-0.62-26.41c0.97-0.46,1.37,0.74,1.82,0.63
		c10-2.55,18.49-0.07,25.55,7.5c1.12,1.2,2.79,0.81,4.17,1.77c-0.38,12.52-0.78,26.18-1.25,38.7c-0.54,14.56-1.16,29.12-1.84,43.67
		c-0.41,8.76-0.7,17.54-1.65,26.25c-0.45,4.11-1.72,8.38-3.67,12.02c-5.93,11.05-22.65,11.89-30.14,1.76
		c-3.99-5.41-6.18-11.67-7.49-18.12c-2.42-11.96-4.32-24.03-6.58-36.03c-1.18-6.3-2.51-12.59-4.08-18.8
		c-0.56-2.21-1.82-4.33-3.11-6.25c-0.59-0.88-2.12-1.78-3.04-1.62c-0.84,0.15-1.85,1.64-2.05,2.68c-0.55,2.91-1.12,5.9-0.98,8.83
		c0.67,13.6,1.54,27.2,2.41,40.79c0.23,3.59,0.84,7.16,1.12,10.75c0.53,6.76-2.83,10.4-9.61,10.35c-5.73-0.04-11.18-1.52-16.29-4.02
		c-4.18-2.04-6.89-5.46-7.62-10.11c-0.46-2.92-0.81-5.93-0.64-8.87c1.17-20.96,2.89-44.36,4.69-65.7c9.22-1.63,16.77-2.59,23.8-7.55
		C919.91,362.96,926.56,355.12,933.83,349.23z" />
    <path class="textMain" d="M417.66,520.22c-1.68-8.74-4.11-17.42-4.88-26.24c-1.13-13.08-1.5-26.27-1.38-39.4
		c0.06-6.48,1.54-13.05,3.14-19.38c1.34-5.26,4.15-9.9,10.33-10.97c6.72-1.16,12.35,1.04,15.93,6.63c3,4.68,5.51,9.86,7.25,15.14
		c4.03,12.27,5.22,25.11,6.51,37.9c0.58,5.77,1.15,11.54,1.9,17.28c0.29,2.25,1.05,4.43,1.62,6.72c3.52-0.58,4.28-3.03,4.85-5.15
		c1.8-6.8,3.53-13.64,4.87-20.54c3.25-16.76,5.74-33.71,11.43-49.86c2.63-7.47,6.29-14.64,10.05-21.65
		c2.61-4.86,6.68-8.74,11.69-11.27c2.33-1.18,4.94-2.15,7.51-2.43c5.76-0.64,9.06,2.41,8.83,8.16
		c-1.83,45.73-11.69,89.34-34.5,129.48c-1.85,3.26-4.08,6.31-6.8,9.64c-5.1,0.46-9.31-0.28-13.51-1.84
		c-8.01-2.99-14.12-8.59-19.98-14.41C435.5,521.01,427.75,517.1,417.66,520.22z" />
    <path class="textMain" d="M520.31,528.59c-3.01-6.41-3.46-13.36-3.4-20.2c0.2-21.76,0.55-43.52,1.4-65.26
		c0.39-10.14,1.69-20.28,3.23-30.32c1.8-11.73,6.7-21.84,17.56-28.04c10.69-6.11,21.97-10.7,34.22-12.42
		c4.14-0.58,8.46-0.85,12.59-0.34c6.43,0.78,8.61,3.85,8.15,10.27c-0.29,4.05-0.72,8.11-1.35,12.12
		c-2.04,12.86-9.44,21.17-21.79,25.11c-4.02,1.29-8.12,2.34-12.13,3.68c-4.51,1.51-7.41,5.68-7.46,10.33
		c-0.03,3.3,1.34,4.86,4.55,4.31c3.21-0.55,6.33-1.68,9.43-2.74c3.55-1.21,6.95-2.89,10.55-3.9c4.89-1.37,7.23,0.32,7.59,5.33
		c0.44,6.13-0.07,12.19-1.91,18.11c-1.68,5.39-4.96,9.41-10.18,11.61c-4.32,1.82-8.74,3.41-13.14,5.05
		c-5.28,1.97-8.5,7.41-7.62,12.98c0.61,3.83,2.81,5.19,6.33,3.42c4.33-2.17,8.46-4.74,13.01-6.8c-0.91,6.11-2.27,11.88-3.35,17.69
		c-1.55,8.31-3.16,16.57-7.45,24.03c-0.53,0.92-0.73,2.02-1.09,3.04c-3.07,1.38-6.14,2.75-9.86,3.96c-2.49-0.96-4.39-1.65-6.16-2.56
		c-4.68-2.42-9.31-2.56-14.2-0.46C525.49,527.63,522.83,527.95,520.31,528.59z" />
    <path class="textMain" d="M368.46,365.72c-0.36-5.47-0.92-10.93-1.03-16.4c-0.47-22.24-0.9-44.48-1.16-66.72
		c-0.15-13.42,3.74-18.2,16.77-21.51c11.94-3.03,16.51,0.28,16.83,12.62c0.47,17.85,0.65,35.71,1.08,53.56
		c0.12,4.85,0.58,9.69,1.03,14.53c0.18,2.02,0.45,4.11,1.2,5.96c0.51,1.27,1.82,2.87,2.97,3.04c1.23,0.18,3.19-0.8,3.91-1.88
		c1.18-1.75,2.03-3.96,2.27-6.06c0.81-6.99,1.67-14.01,1.81-21.04c0.32-16.13,0.21-32.27,0.3-48.4c0.01-2.66,0.06-5.32,0.25-7.97
		c0.58-8.08,4.94-13.36,12.44-16.02c3.23-1.15,6.57-2.14,9.95-2.68c5.51-0.88,8.72,1.43,9.92,6.83c0.48,2.13,0.76,4.34,0.78,6.52
		c0.26,29.76,0.88,59.54-1.79,89.23c-0.88,9.79-2.83,19.5-4.68,29.17c-0.7,3.64-2.48,7.07-4.33,10.75c-3.26-2.36-6.15-4.7-8.61-7.43
		c-4.57-5.08-8.7-10.57-13.38-15.54c-3.69-3.92-8.36-6.65-13.89-6.99c-5.59-0.35-11.18-0.34-16.64,1.53
		C379.18,362.6,373.79,364.09,368.46,365.72z" />
    <path class="textMain" d="M596.03,435.31c0.82-16.57,0.87-33.22,2.66-49.68c1.88-17.24,10.74-30.51,26.98-38.03
		c5.96-2.76,9.79-1.99,13.24,3.62c2.68,4.35,4.7,9.18,6.54,13.98c2.25,5.84,3.96,11.88,6,17.79c0.61,1.76,1.44,3.49,2.42,5.07
		c2.49,4.01,5.77,4.05,7.61-0.34c1.53-3.66,2.49-7.81,2.59-11.77c0.16-5.92-0.7-11.86-1.02-17.8c-0.25-4.69-0.34-9.38-0.49-14.08
		c-0.16-4.96,1.92-8.82,5.99-11.54c6.22-4.14,13.13-6.67,20.48-7.75c5.36-0.79,8.33,1.65,9.17,6.98c0.29,1.85,0.47,3.75,0.36,5.61
		c-1.06,18.29-2.18,36.57-3.71,55.28c-1.8,1.87-3.48,3.14-4.49,4.81c-5.98,9.86-11.89,19.77-17.66,29.76
		c-4.11,7.11-9.23,13.11-17.4,15.38c-4.46,1.24-9.16,1.59-13.75,2.35c-1.21-4.95-2.29-9.93-3.69-14.82
		c-0.68-2.37-1.66-4.76-3.04-6.79c-0.84-1.24-2.85-2.67-4.04-2.44c-1.48,0.28-3.5,2.01-3.78,3.41c-0.9,4.39-1.1,8.93-1.55,13.42
		c-0.08,0.77-0.02,1.56-0.41,2.76c-4.21-1.32-8.01-3.08-11.83-4.78c-4.06-1.81-8.19-2.89-12.65-1.31
		C599.12,434.9,597.54,435.02,596.03,435.31z" />
    <path class="textMain" d="M525.08,878.07c-8.76,0.43-15.34-3.54-20.45-10.29c-4.35-5.74-6.86-12.37-7.87-19.4
		c-4.21-29.28-0.51-57.23,15.83-82.46c9.51-14.69,23.21-23.99,40.64-27.07c10.01-1.77,17.77,2.01,23.03,10.76
		c4.46,7.42,6.18,15.68,7.11,24.12c1.54,14.08,0.9,28.3-1.09,42.31c-0.39,2.71-1.47,5.29-2.24,8.41
		c-8.95,2.43-16.77,0.53-24.58-2.64c-0.14-0.06-0.3-0.09-0.45-0.13c-6.56-2.03-10.91-0.37-14.18,5.58
		c-3.94,7.18-6.4,14.88-8.26,22.84C530.38,859.5,529.27,869.2,525.08,878.07z M544.3,820.01c9.56-7.21,10.91-17.45,9.88-28.23
		c-0.6-6.36-5-8.72-11.19-6.82c-6.41,1.97-11.3,5.95-14.87,11.57c-3.56,5.61-4.25,11.72-2.75,18.07c1.68,7.1,7.35,10.22,14.32,7.96
		C541.13,822.1,542.42,821.18,544.3,820.01z" />
    <path class="textAccent" d="M789.14,548.18c0.02,3.28,0.16,6.56,0.05,9.83c-0.57,16.58-1.19,33.17-1.8,49.75
		c-0.23,6.3-1.18,12.45-3.71,18.29c-4.56,10.51-16.41,17.46-27.78,16.17c-5.37-0.61-9.45-3.61-12.11-8.03
		c-2.73-4.53-4.74-9.49-7.08-14.26c-1-2.04-0.79-5.48-3.15-6.29c-3.16-1.08-3.27,3.96-4.16,6c-2.58,5.86-4.6,12.02-7.69,17.59
		c-6.02,10.86-15.73,15.74-28.06,15.37c-6.95-0.21-12.08-3.49-14.4-10.09c-1.33-3.78-2.41-7.93-2.31-11.88
		c0.56-22.22,1.92-48.1,3.27-70.7c5.1-0.71,8.74,4.32,12.35,7.08c3.34,2.56,6.69,5.09,10,7.68c8,6.25,16.05,12.37,25.75,15.89
		c4.8,1.74,9.56,2.49,14.62,1.04c6.01-1.73,11.33-4.74,15.48-9.23c7.72-8.33,14.98-17.09,22.51-25.61
		C783.53,553.82,786.39,551.05,789.14,548.18z" />
    <path class="textMain" d="M789.25,549.01c-2.86,3.26-5.72,4.8-8.35,7.78c-7.53,8.51-14.79,17.27-22.51,25.61
		c-4.16,4.49-9.47,7.51-15.48,9.23c-5.06,1.45-9.82,0.7-14.62-1.04c-9.69-3.51-17.75-9.64-25.75-15.89c-3.31-2.59-6.66-5.12-10-7.68
		c-3.61-2.77-7.66-2.89-12.63-2.56c0.15-12.96,0.45-27.18,1.34-40.13c0.55-8.06,5.17-13.67,12.77-16.47
		c3.35-1.23,6.88-2.35,10.41-2.64c9.83-0.82,15.88,5.32,15.04,15.14c-0.32,3.71-1.16,7.43-2.26,11c-1.83,5.98-4.15,11.81-6.07,17.77
		c-1,3.11-1.84,6.33-2.29,9.56c-0.45,3.24,1,5.27,3.45,5.83c2.86,0.66,4.48-0.9,5.5-3.24c1.31-3.01,2.45-6.1,3.7-9.14
		c1.13-2.75,2.12-5.58,3.52-8.19c3.7-6.91,12.34-8,17.58-2.1c1.82,2.05,2.94,4.76,4.18,7.26c0.83,1.67,1.12,3.62,2.01,5.25
		c0.6,1.09,1.47,2.83,2.77,2.72c1.33-0.11,2.06-2.02,2.33-3.21c0.54-2.42,0.86-4.97,0.71-7.44c-0.59-10.32-1.41-20.62-2.07-30.93
		c-0.15-2.34-0.17-4.7-0.02-7.03c0.43-6.93,4.09-11.73,10.27-14.55c6.1-2.79,12.6-3.71,19.27-3.1c4.71,0.44,7.56,2.72,8.58,7.35
		c0.66,3.02,0.85,6.22,0.72,9.31C790.8,520.81,790.04,535.32,789.25,549.01z" />
    <path class="textMain" d="M330.19,531.2c-0.01-5.47-0.21-10.96,0.01-16.42c0.64-15.65,1.28-31.3,2.28-46.93
		c0.3-4.64,1.54-9.27,2.81-13.77c2.26-8.03,7.57-13.18,15.73-15.24c13.24-3.33,26.59-4.18,40.06-1.57c1.68,0.33,3.36,0.8,4.97,1.39
		c7.22,2.67,9.63,6.19,9.17,13.88c-0.25,4.21-0.61,8.46-1.45,12.58c-2.41,11.8-8.64,17.2-20.68,18.15
		c-3.9,0.31-7.84,0.13-11.74,0.39c-4.58,0.3-7.16,2.88-7.71,7.35c-0.46,3.77,1.13,6.28,4.93,6.54c3.71,0.26,7.48-0.22,11.21-0.5
		c2.96-0.22,5.91-0.88,8.87-0.9c4.38-0.04,6.52,1.63,7.17,5.88c1.06,6.91,0.53,13.76-2.11,20.32c-1.59,3.94-4.68,6.32-8.76,7.09
		c-4.45,0.85-8.97,1.38-13.48,1.92c-6.37,0.76-10.01,8.83-6.41,14.2c1.54,2.29,3.67,2.26,5.84,1.61c4.49-1.36,8.93-2.92,13.7-4.1
		c-3.65,6.22-9.33,10.2-15.81,12.43c-7.9,2.72-15.81,2.08-22.3-4.03c-2.94-2.77-5.64-5.83-8.16-8.99
		C335.45,538.87,332.89,534.98,330.19,531.2z" />
    <path class="textMain" d="M786.37,752.46c-4.71-2.86-8.09-6.96-10.27-11.91c-4.99-11.31-6.05-23.07-2.19-34.84
		c9-27.4,41.42-35.27,62.78-15.47c9.25,8.57,13.1,19.2,12.4,31.64c-0.32,5.76-4.46,11.03-9.79,12.46
		c-6.37,1.72-12.52-0.21-15.77-5.36c-1.82-2.89-3-6.19-4.62-9.22c-1.84-3.44-4.47-4.49-7.76-3.24c-0.71,0.27-1.42,0.69-1.97,1.21
		c-3.22,3.09-3.15,11.15,0.28,14.06c2.01,1.71,4.37,3.02,6.59,4.48c4.45,2.91,9.09,5.57,13.35,8.74
		c10.85,8.07,17.18,18.93,18.83,32.36c1.1,8.95,0.62,17.84-1.92,26.54c-1.51,5.17-4.61,10.36-9.17,14.36
		c-1.97,0.58-2.52,0.51-3.82,1.01c-4.23,1.64-8.15,0.73-11.36-2.09c-8.08-7.09-14.42-16.04-16.11-26.45
		c3.97,0.09,7.55-4.54,8.46-7.8c0.71-2.54,1.21-5.19,1.41-7.82c0.56-7.12-0.85-9.35-7.45-12.35c-2.28-1.03-4.61-1.94-7.21-3.41
		c-0.6-1.22-0.8-1.99-1.22-2.62C796.48,751.84,791.47,752,786.37,752.46z" />
    <path class="textMain" d="M315.72,719.33c-0.7-24.27,2-47.92,13.91-69.59c8.67-15.78,22.18-24.73,40.23-26.54
		c13.75-1.38,23.77,4.65,28.81,17.57c2.66,6.8,4.16,13.78,1.56,21.07c-2.92,8.18-11.83,13.83-20.37,12.76
		c-3.18-0.4-4.42-1.68-5.03-5.2c-1.39-8.05-3.22-9.33-11.3-7.95c-11.01,1.88-15.37,6.11-16.3,17.27
		c-0.73,8.72-0.86,17.52-0.64,26.27c0.1,3.97,1.25,8.06,2.69,11.8c1.98,5.16,5.17,6.68,10.46,5.42c3.16-0.75,6.27-1.97,9.18-3.44
		c1.38-0.7,2.65-2.3,3.21-3.78c1.13-3-0.5-4.78-3.7-4.52c-1.71,0.14-3.43,0.46-5.14,0.4c-5.12-0.16-8.15-2.82-7.97-7.84
		c0.14-4,0.96-8.07,2.12-11.92c1.21-4.03,4.42-6.44,8.58-7.18c9.4-1.68,18.8-3.34,28.23-4.78c4.91-0.75,7.99,1.52,8.31,6.6
		c0.31,4.96-0.35,9.98-1.02,15.37c-3.11,2.27-5.81,4.09-8.43,6.01c-9.54,6.97-18.64,14.63-28.68,20.79
		c-14.65,8.99-30.61,8.16-43.66-4.6C319.22,721.84,317.4,720.65,315.72,719.33z" />
    <path class="textAccent" d="M883.61,376.71c0,17.94-1.72,36.95-8.97,53.62c-4.21,9.7-10.71,17.38-21.43,20.26
		c-14.34,3.86-33.63,1.41-44.03-18.11c-4.88-9.15-6.82-20.22-7.91-30.4c-1.68-15.54-0.33-31.36,2.92-47.06
		c1.91-1.56,2.99-1.04,4.31-2.32c4.02-3.9,7.83-8.02,11.98-11.78c5.29-4.79,12.86-6.25,17.18-3.03c4.54,3.4,8.7,7.84,9.57,13.7
		c-9.9-0.51-16.39,6.33-17.83,13.62c-1.17,5.89-1.2,11.96,1.42,17.5c1.35,2.85,3.47,5.65,5.93,7.59c4.78,3.74,10.93,2.78,14.5-2.14
		c1.78-2.46,3.12-5.49,3.79-8.45c0.96-4.24,1.67-9.76,1.92-14.12c1.01,0.61,1.78,2.29,2.42,2.95
		C866,375.36,873.98,377.58,883.61,376.71z" />
    <path class="textAccent" d="M725.68,708.63c0.07,3.43,0.18,9.3,0.19,12.73c0.05,12.19,0,24.39,0.15,36.58c0.04,3.42,0.55,6.85,1.07,10.24
		c0.33,2.17,0.95,4.6,3.73,4.68c2.83,0.08,4.18-2.11,4.63-4.5c0.87-4.6,1.68-9.24,2-13.89c0.72-10.44,1.53-23.36,2.59-34.09
		c1.82,4.6,4.27,9.9,5.64,14.75c1.59,5.66,2.87,11.46,5.09,16.87c2.57,6.27,5.47,10.12,12,8.56c1.96-0.47,4.3-2.66,6.24-3.17
		c-0.14,4.98,0.09,10.01-0.51,14.94c-1.16,9.62-3.03,20.85-4.71,30.4c-0.59,3.34-1.95,6.61-3.35,9.73
		c-3.4,7.59-9.24,12.54-17.26,14.76c-8.68,2.4-17.52,3.34-26.51,2.49c-7.65-0.72-13.65-4.35-16.38-11.54
		c-2.31-6.08-4.41-12.56-4.86-18.98c-1.13-16.23-1.27-32.52-1.36-49.32c0.91-1.32,1.45-2.09,1.85-2.92
		c3.48-7.16,6.65-14.49,10.49-21.46C710.58,717.93,717.04,710.48,725.68,708.63z" />
    <path class="textAccent" d="M237.06,714.72c2.72,2.94,4.15,7.3,3.94,11.11c-0.46,8.27-0.85,16.58-1.91,24.79
		c-1.44,11.18-7.28,16.31-18.5,16.72c-13.59,0.49-26.82-1.83-39.75-5.84c-8.62-2.67-14.18-8.52-15.93-17.45
		c-1.08-5.51-2.09-11.12-2.22-16.71c-0.63-27.56,0.43-56.14,4.05-83.91c8.56-1.04,14.7,3.11,19.47,9.39
		c3.2,4.21,6.67,8.44,8.79,13.21c4.81,10.83,9.1,21.9,13.13,33.05c3,8.28,7.46,15.06,15.49,19.09
		C228.76,720.72,232.81,719.08,237.06,714.72z M208.58,743.86c7.24-3.48,4.3-20.54-5.36-23.21c-3.18-0.88-6.22,0.17-7.22,3.44
		c-1.01,3.33-1.72,7.07-1.26,10.46c0.55,3.99,2.62,7.4,6.44,8.94C204.32,744.75,206.77,744.73,208.58,743.86z" />
    <path class="textAccent" d="M705.82,262.44c-0.07,11.07-1.96,21.78-6.49,31.92c-4.29,9.59-11.52,16.31-21.05,20.46
		c-13.7,5.97-28.17,9.43-42.8,12.05c-8.02,1.44-13.06-1.86-15.24-9.7c-1.37-4.94-2.25-10.1-2.59-15.22
		c-0.58-8.89-0.56-17.82-0.28-27.09c1.62-1.37,2.88-2.27,3.85-3.41c8.34-9.87,16.04-20.34,25.83-28.89
		c7.43-6.49,15.25-12.3,25.64-13.34c12.95-1.29,20.91,3.71,24.71,13.53c2.02,5.23,3.68,10.6,5.65,15.85
		C703.59,260.07,703.43,262.24,705.82,262.44z M650.12,277.08c2.1,2.44,4.58,1.55,6.86,0.55c7.23-3.17,12.28-8.53,14.81-16.01
		c3.49-10.3-4.48-20.59-15.4-20.1c-3.93,0.17-6.32,1.72-6.95,5.65C647.87,256.9,647.35,266.69,650.12,277.08z" />
    <path class="textMain" d="M282.22,333.22c-2.03-7.97-2.55-20.9-0.15-29.73c3.33-12.22,11.83-20.08,22.57-25.63
		c10.17-5.25,21.1-6.95,32.35-4.07c11.6,2.97,20.23,9.83,24.82,21.03c3.76,9.17,2.5,17.95-4.24,25.34
		c-2.21,2.42-5.44,4.27-8.55,5.46c-6.54,2.51-11.14,0.58-14.65-5.45c-1.02-1.75-1.81-3.64-2.84-5.39
		c-2.85-4.84-9.06-4.95-11.52,0.16c-2.89,6-3.64,13.26,4.79,16.23c5.16,1.82,10.26,3.82,15.3,5.96
		c13.61,5.77,21.99,16.7,23.25,32.25c-3.85,2.25-7.27,3.08-10.83,4.65c-7.4,3.24-15.21,8.42-23.55,4.7c0.34-1.56,0.32-4.41,0.31-5.8
		c-0.05-5.19-1.48-7.32-6.36-8.95c-2.49-0.83-6.42-2.19-9.35-3.32c-4.34-6.79-6.79-12.42-10.97-18.6c0,0-8.78-1.49-17.77-11.15
		C283.96,330.9,283.09,333.55,282.22,333.22z" />
    <path class="textMain" d="M595.82,651.32c0.85-4.12,2.77-10.67,3.3-14.83c0.59-4.62-1.02-6.31-5.76-6.43c-3.12-0.08-6.25,0.29-9.38,0.33
		c-3.59,0.04-7.22,0.22-10.77-0.16c-9.29-1-14.88-5.89-16.97-15c-1.99-8.7-2.04-17.53,1.12-25.94
		c7.69-20.43,21.66-34.98,42.16-42.71c4.41-1.66,9.51-2.24,14.26-2.1c14.27,0.43,23.77,13.13,20.44,26.99
		c-2.31,9.61-8.07,16.5-17.42,20.06c-5.2,1.98-8.13,0.83-11.05-3.94c-0.25-0.4-0.47-0.81-0.71-1.22c-3.05-5.18-5.45-5.61-9.92-1.65
		c-3.75,3.32-4.53,7.78-4.12,12.43c0.09,1.05,1.51,2.34,2.63,2.85c1.52,0.69,3.32,0.82,5.02,1.03c4.66,0.6,9.38,0.83,13.97,1.74
		c12.05,2.39,17.75,10.25,19.18,22.91c-1.03,1.45-1.73,0.82-2.38,1.86c-2.54,4.06-4.68,8.44-7.67,12.13
		c-3.94,4.87-8.91,8.68-15.52,9.22C603.06,649.15,599.02,651.34,595.82,651.32z" />
    <path class="textMain" d="M710.75,275.73c-0.11-0.77-0.33-1.54-0.33-2.32c0.28-21.91,0.44-43.82,1-65.72c0.13-4.94,1.37-9.91,2.64-14.73
		c1.88-7.17,6.8-11.57,14.03-12.95c14.29-2.72,28.37-1.89,42.02,3.38c2.16,0.83,4.21,2.07,6.16,3.36c3.35,2.23,5.29,5.32,4.87,9.51
		c-0.42,4.19-0.54,8.46-1.5,12.53c-1.42,5.99-5.64,9.38-11.81,9.6c-4.67,0.17-9.36-0.31-14.04-0.54c-1.87-0.09-3.75-0.43-5.61-0.38
		c-3.19,0.1-5.24,2.05-5.74,5.14c-0.51,3.16,0.77,5.46,4.22,6.23c3.17,0.71,6.49,0.76,9.76,1.02c3.42,0.27,6.91,0.13,10.27,0.72
		c4.28,0.75,6.44,2.99,6.66,7.3c0.22,4.34,0.12,8.79-0.65,13.05c-1.1,6.12-4.18,8.45-10.45,8.66c-3.59,0.12-7.2-0.15-10.79-0.27
		c-7.03-0.24-10.61,5.45-7.33,11.78c0.53,1.02,1.51,1.8,2.59,3.09c-3.32,2.39-6.82,4.62-10.57,6.31c-7.74,3.5-15.07,2.57-21.83-2.68
		C713.22,276.98,711.93,276.42,710.75,275.73z" />
    <path class="textAccent" d="M321.32,512.64c-1.94,5.75-6.58,9.92-11.75,12.44c-5.73,2.79-6.11,3.57-2.58,9.03
		c3.4,5.26,7.18,10.27,10.67,15.47c1.83,2.73,3.45,5.6,5.05,8.47c4.64,8.33,4.17,17.17,2.4,26.08c-0.77,3.85-3.22,6.64-7.01,7.48
		c-4.86,1.08-9.84,1.81-14.8,2.19c-3.32,0.26-6.19-1.57-7.84-4.42c-2.02-3.5-4.1-7.13-5.16-10.98c-2.54-9.2-4.45-18.56-6.71-27.84
		c-0.66-2.73-1.43-5.48-2.55-8.04c-0.67-1.52-2.13-2.69-3.23-4.02c-0.45,0.11-0.9,0.21-1.35,0.32c-0.52,2.02-1.42,4.03-1.49,6.06
		c-0.22,6.41-0.19,12.84-0.15,19.26c0.04,6.27,0.32,12.53,0.3,18.8c-0.02,5.33-2.49,8.5-7.67,9.8c-5.45,1.37-10.88,0.98-16.18-0.92
		c-3.67-1.31-6.15-3.94-6.98-7.66c-0.71-3.17-1.11-6.5-1.07-9.75c0.16-15.35,0.93-36.01,1.67-51.81c3.12-1.68,5.46,2.55,8.03,1.15
		c11.34-6.19,21.99-13.77,34.42-17.76c4.53-1.46,9.42-2.71,14.11-2.58c6.18,0.17,11.68,2.98,15.97,7.8
		C318.32,512.23,320.08,511.9,321.32,512.64z" />
    <path class="textMain" d="M894.24,581.05c0.24-9.38,0.4-18.77,0.75-28.15c0.42-11.42,0.89-22.84,1.56-34.25
		c0.69-11.92,5.7-15.19,17.08-11.44c11.09,3.66,16.15,10.73,15.61,22.69c-0.34,7.5-1.33,14.97-2,22.45
		c-0.35,3.86,0.24,7.51,2.75,10.63c0.58,0.72,1.27,1.4,2,1.96c4.19,3.21,6.63,2.62,7.63-2.52c1.14-5.81,1.33-11.8,2.2-17.66
		c0.71-4.76,1.27-9.66,2.89-14.14c2.39-6.66,7.37-10.16,12.98-9.62c7.05,0.69,13.29,3.37,15.81,10.6c1.26,3.6,1.7,7.76,1.64,11.61
		c-0.54,34.28-1.28,69.22-2.33,103.81c-0.78-0.71-1.87-3.14-2.3-4.6c-3.05-10.32-5.9-20.7-9.03-30.99
		c-2.85-9.39-5.23-18.98-10.62-27.42c-4.5-7.05-10.81-11.04-19.17-10.25c-6.93,0.66-13.77,2.35-20.63,3.7
		C905.44,578.56,899.85,579.84,894.24,581.05z" />
    <path class="textAccent" d="M894.27,580.09c5.74-1.64,11.17-1.53,16.8-2.64c6.86-1.35,13.7-3.04,20.63-3.7
		c8.35-0.79,14.66,3.19,19.17,10.25c5.39,8.44,7.77,18.03,10.62,27.42c3.13,10.29,6.6,20.51,9.03,30.99
		c0.31,1.32,1.44,1.65,2.36,3.14c0.12,5.23,0.26,11.56-0.44,16.61c-0.79,5.61-4.33,7.81-10.11,7.34c-12.24-1-20.57-9.97-21.32-23.32
		c-0.34-6.09,0.05-12.22-0.35-18.3c-0.37-5.6-1.03-11.22-2.15-16.71c-0.94-4.61-3.17-6.05-7.57-6.29c-3.54-0.19-5.94,1.39-6.15,4.93
		c-0.24,4.02,0.04,8.11,0.47,12.14c0.65,6.06,1.87,12.06,2.35,18.13c0.25,3.2-0.15,6.6-1.02,9.7c-1.15,4.12-4.26,6.43-8.64,6.76
		c-6.28,0.48-12.16-0.91-17.58-4.01c-5.66-3.23-7.48-8.69-7.47-14.75c0.01-11.74,0.28-23.47,0.51-35.2
		C893.52,595.67,893.93,587.4,894.27,580.09z" />
    <path class="textMain" d="M321.15,513.13c-1.31-0.41-2.83-0.9-3.74-1.93c-4.28-4.82-9.79-7.63-15.97-7.8
		c-4.69-0.13-9.57,1.13-14.11,2.58c-12.43,3.99-23.08,11.56-34.42,17.76c-2.57,1.4-5.32,2.48-8.32,3.72
		c-0.33-15.48-0.36-30.97-0.29-46.47c0.02-5.47,0.25-10.95,0.49-16.42c0.08-1.71,0.43-3.42,0.8-5.09
		c3.21-14.45,11.87-21.23,26.56-20.1c12.42,0.95,24.48,3.85,35.45,9.94c4.32,2.4,8.38,5.52,11.94,8.96
		c5.14,4.96,7.65,11.46,7.94,18.58c0.4,9.89-0.3,19.73-3.23,29.27C323.56,508.45,322.26,510.58,321.15,513.13z M282.07,493.84
		c5.67,2.12,10.83,1.22,13.22-2.28c3.11-4.57,1.47-15.67-2.83-19.18c-4.67-3.82-12.74-2.9-13.96,2.02
		C276.88,480.97,276.41,487.74,282.07,493.84z" />
    <path class="textMain" d="M462.98,392.65c-1.2,0.33-2.39,0.79-3.62,0.97c-4.47,0.67-7.1-0.87-7.73-5.39
		c-1.36-9.68-1.39-19.41,1.51-28.84c0.67-2.19,2.51-4.44,4.44-5.71c2.38-1.55,2.97-3.32,2.91-5.84c-0.11-4.7-0.18-9.4-0.11-14.1
		c0.22-15.66,0.51-31.32,0.77-46.98c0.03-1.86,0-3.71,0-5.53c-6.49-0.77-8.68-2.22-9.4-8.56c-0.74-6.47-0.63-13.1-0.21-19.62
		c0.35-5.32,3.69-9.27,8.22-11.94c8.84-5.2,18.39-8.72,28.32-11.09c5.81-1.38,9.5,1.19,10.57,7.04c1.31,7.15,1.13,14.36-0.24,21.5
		c-0.82,4.28-3.3,7.22-7.44,8.98c-5.12,2.18-4.97,2.71-4.77,8.21c0.73,19.87,1.25,39.75,1.85,59.63c0.05,1.72,0.29,4.42,0.42,6.93
		c-1.49,4.84-3.38,7.86-4.76,11.97c-2.83,8.42-5.53,16.88-8.17,25.35c-1.55,4.99-5.13,8.03-9.39,10.56
		C465.03,390.86,464.04,391.82,462.98,392.65z" />
    <path class="textMain" d="M501.88,339.04c-0.16-3.28-0.5-9-0.46-12.28c0.35-24.1,0.57-48.2,1.33-72.29c0.19-6.17,1.81-12.37,3.41-18.39
		c1.91-7.16,6.57-12.65,13.33-15.56c7-3.01,14.4-5.11,21.66-7.5c1.3-0.43,2.79-0.38,4.19-0.41c10.64-0.17,16.4,5.47,16.12,16.17
		c-0.1,3.71-0.73,7.49-1.69,11.09c-1.6,5.98-5.41,9.88-11.52,11.89c-13.76,4.54-16.81,8.58-17.41,23.12
		c-0.37,9.06-0.22,18.15-0.17,27.23c0.01,2.32,0.39,4.69,0.92,6.96c1.1,4.69,3.28,5.84,8.55,6.61c-0.69,7.53-3.84,14.03-7.59,19.97
		c-3.81,6.04-8.04,9.4-16.54,6.8C511.17,340.97,506.59,341.03,501.88,339.04z" />
    <path class="textMain" d="M254.29,874.19c0.29-14.57,1.32-29.64,4.89-43.83c0.76-3.01,1.91-5.97,3.2-8.8
		c3.24-7.13,8.71-11.8,16.31-13.69c9.82-2.44,19.82-2.9,29.84-1.71c8.81,1.05,14.89,6.02,17.18,14.51
		c1.86,6.9,3.39,14.07,3.66,21.18c0.61,16.25,0.35,32.53-0.07,49.23c-9.45,0.7-17.36-2.52-24.67-7.22
		c-5.63-3.61-10.81-7.91-16.36-11.65c-8.19-5.52-16.95-6.73-26.13-2.56C259.47,870.86,256.9,872.86,254.29,874.19z M286.36,849.44
		c4.59,4.65,10.14,4.07,15.76,2.81c0.84-0.19,1.69-0.86,2.27-1.54c3.12-3.61,1.98-12.6-1.9-15.38c-3.87-2.78-11.26-2.87-14.64-0.19
		C284.32,837.94,283.51,843.66,286.36,849.44z" />
    <path class="textAccent" d="M288.19,736.59c5.74-0.45,12.09-3.15,17.22-2.63c10.27,1.05,10.27,12.53,10.23,20.45
		c-0.01,2.41-0.04,4.85-0.74,7.15c-1.06,3.43-3.62,5.41-6.91,6.54c-9,3.09-18.63,4.06-28.1,4.13c-6.77,0.05-15.54,0.87-21.99-1.62
		c-9.87-3.81-12.22-16.17-13.02-25.47c-1.02-11.9,0.15-24.11,0.73-36.01c0.03-0.65,0.08-1.33,0.43-1.87
		c0.35-0.53,0.95-0.84,1.52-1.13c5.62-2.84,10.96-5.9,16.41-8.97c4.89-2.75,11.4-6.34,17.18-6.34c11.57-1.49,17.5,8.12,24.51,15.85
		c0.63,0.69,1.21,1.53,2.03,2.01c0.46,0.27,1.59,0.54,1.8,1.43c0.13,0.56,0.07-0.16,0,0c-0.18,0.42-0.13,0.9-0.15,1.36
		c-0.08,1.49-0.92,3.2-1.56,4.53c-0.63,1.29-1.45,2.5-2.54,3.44c-2.42,2.09-5.75,2.54-8.84,2.63c-0.16,0-0.33,0.01-0.49,0.01
		c-3.74,0.06-7.49-0.01-11.23-0.23c-2.88-0.17-4.83,0.86-6.25,4.12c-1.99,2.99-1.9,5.3,0.13,7.47
		C281.24,736.28,284.59,736.88,288.19,736.59z" />
    <path class="textAccent" d="M206.47,519.09c-2.42,1.09-2.09,3.29-1.99,5.27c0.69,13.9,1.35,27.81,2.2,41.7
		c0.8,13.07-4.52,18.33-17.5,16.98c-1.39-0.15-2.78-0.46-4.14-0.78c-11.12-2.62-15.68-7.98-15.98-19.38
		c-0.19-7.51,0.1-15.02,0.1-22.53c0.01-25.19-0.02-50.38-0.02-75.58c0-2.03,0.62-6.75,0.93-9.37c3.44-2.36,5.85-1.78,9.02-3.32
		c7.26-3.53,14.29-2.32,17.9,5.92c0.75,1.71,1.35,3.51,1.82,5.31c1.93,7.49,1.89,15.14,2,22.8
		C200.96,497.39,201.86,508.57,206.47,519.09z" />
    <path class="textMain" d="M705.92,264.11c-2.5,0.17-2.33-4.04-2.88-5.5c-1.97-5.25-3.62-10.62-5.65-15.85
		c-3.8-9.82-11.76-14.83-24.71-13.53c-10.39,1.04-18.21,6.85-25.64,13.34c-9.79,8.55-17.48,19.02-25.83,28.89
		c-0.97,1.14-2.47,4.16-3.92,5.21c-0.46-20.15-1.01-42.5,1.8-62.57c2.36-16.84,8-22.22,24.6-26.42
		c15.24-3.85,27.98,0.24,38.56,11.12C699.21,216.24,708.12,238.99,705.92,264.11z" />
    <path class="textAccent" d="M329.16,377.37c8.55,3.44,15.96-0.1,23.36-3.35c3.56-1.56,6.98-3.45,10.78-5.3
		c2.13,10.9,0.93,21.66-2.43,32.23c-7.44,23.38-27.74,33.31-46.51,33.61c-10.73,0.17-18.97-4.53-25.09-13.14
		c-3.68-5.19-6.01-10.98-6.83-17.29c-1.11-8.49-0.52-16.89,2.16-25.03c1.92-5.81,5.79-9.58,12.26-9.98c5.64-0.36,9.7,2,11.98,7.2
		c0.81,1.85,1.3,3.84,1.86,5.8c0.64,2.26,1.11,4.56,1.77,6.81c0.73,2.46,1.73,4.85,4.7,5.24c3.07,0.41,5.49-0.95,7.32-3.34
		C327.46,386.94,328.27,382.31,329.16,377.37z" />
    <path class="textMain" d="M284.34,690.7c-10.47,0.49-19.64,5.72-27.83,11.07c-3.47,2.27-6.76,4.81-10.48,7.24
		c-0.35-0.98-0.35-1.98-0.04-3.59c1.78-9.12,0.76-19.54,1.51-28.85c0.79-9.87,0.87-20.14,4.41-29.52c1.67-4.43,4.25-8.68,8.3-11.29
		c5.58-3.59,13.56-3.3,19.95-3.29c11.97,0.01,24.04,2.13,34.99,6.98c8.41,3.73,6.22,14.95,4.58,22.23
		c-1.9,8.42-6.49,15.39-15.71,15.88c-5.71,0.3-11.47-0.47-17.21-0.71c-5.16-0.22-8.91,4.03-7.25,8.66
		C280.22,687.36,283.12,688.75,284.34,690.7z" />
    <path class="textAccent" d="M838.91,517.08c-0.34,2.45-0.61,5.95-1.24,8.33c-1.18,4.45-2.66,5.5-7.25,5.85
		c-4.14,0.32-4.45,0.65-4.47,4.79c-0.09,20.5-0.16,41.01-0.29,61.51c-0.02,3.13-0.13,5.85,4.07,6.64c1.3,0.25,2.92,2.57,3.15,4.13
		c1.3,8.71,1.37,17.46-0.99,26.05c-0.97,3.52-3.6,5.46-7.12,6c-8.76,1.36-17.49,0.56-26.14-0.94c-4.32-0.75-7.19-3.65-7.3-8.04
		c-0.18-7.16-0.2-14.38,0.54-21.49c0.66-6.36,1.77-7.07,7.69-9.47c0.11-0.84,0.31-1.75,0.35-2.67c1.02-20.94,2.02-41.88,3.02-62.82
		c0.03-0.62,0.23-2.86,0.13-3.87c3.04-2.05,5.93-1.97,8.62-3.73C819.93,521.95,828.82,517.06,838.91,517.08z" />
    <path class="textMain" d="M237.45,715.15c-4.15,4.66-8.69,5.57-13.83,2.99c-8.03-4.03-12.5-10.81-15.49-19.09
		c-4.03-11.14-8.32-22.22-13.13-33.05c-2.12-4.77-5.59-8.99-8.79-13.21c-4.76-6.27-11.15-9.37-19.56-8.7
		c0.81-4.86,1.62-9.84,3.33-14.49c1.95-5.32,6.22-8.36,12.02-8.12c19.01,0.79,36.5,5.9,50.64,19.33
		c8.57,8.15,12.53,18.13,10.63,30.17c-1.73,10.94-7.7,18.24-18.04,22.06c-3.16,1.17-6.32,2.36-10.61,3.96
		c2.38,2.07,3.72,3.5,5.3,4.56c3.12,2.08,6.56,3.74,9.54,5.99C232.31,709.71,234.74,712.4,237.45,715.15z M211.47,655.58
		c-2.38-2.55-5.38-3.63-8.8-3.66c-2.41-0.03-4.3,0.9-4.98,3.38c-1.13,4.14-0.68,8.08,2.07,11.49c2.02,2.5,4.79,3.48,7.94,2.84
		c3.15-0.64,4.55-3.03,5.28-5.91C213.67,661.05,213.61,658.47,211.47,655.58z" />
    <path class="textMain" d="M206.04,519.25c-5-10.68-5.08-21.86-5.24-33.13c-0.11-7.67-0.07-15.32-2-22.8c-0.47-1.81-1.07-3.6-1.82-5.31
		c-3.61-8.24-10.63-9.45-17.9-5.92c-3.17,1.54-5.99,3.82-9.26,5.76c-0.85-6.19,0.06-12.18,2.49-17.89
		c2.79-6.55,7.64-10.51,14.89-11.34c21.73-2.47,46.34,14.23,51.71,35.31c2.44,9.56,1.76,19.31,0.73,28.97
		c-0.52,4.94-1.6,9.92-3.21,14.61c-3.09,8.99-8.97,13-18.48,13.01C214.38,520.52,210,519.8,206.04,519.25z M204.3,477.43
		c-0.14,2.79,0.43,5.64,1.23,8.29c1.23,4.04,4.21,6.46,8.42,7.27c3.74,0.72,6.36-0.4,7.41-3.95c2.04-6.92,1.4-13.73-2.8-19.73
		c-3.17-4.53-9.32-4.14-12.09,0.67C205.34,471.94,204.46,474.3,204.3,477.43z" />
    <path class="textAccent" d="M254.34,873.38c2.81-1.66,5.13-2.52,7.8-3.73c9.18-4.17,17.94-2.96,26.13,2.56
		c5.55,3.74,10.73,8.03,16.36,11.65c7.31,4.69,15.3,7.34,24.67,7.06c0.3,7.94,0.47,16.5-0.16,24.42c-0.51,6.48-3.94,9.9-10.32,11.06
		c-3.8,0.69-7.8,0.88-11.65,0.57c-5.41-0.44-8.26-3.26-8.83-8.68c-0.51-4.8-0.21-9.69-0.43-14.53c-0.16-3.43-0.32-6.89-0.97-10.25
		c-0.65-3.36-2.37-4.62-5.06-4.56c-2.86,0.07-4.95,1.52-5.41,4.3c-0.84,5.08-1.4,10.21-1.9,15.34c-0.29,2.95-0.04,5.97-0.4,8.91
		c-0.79,6.44-4.22,9.93-10.7,10.43c-3.7,0.28-7.54,0.09-11.2-0.55c-6.63-1.15-9.35-4.44-9.58-11.32c-0.17-5,0.04-10.02,0.2-15.03
		C253.17,892.11,253.8,882.63,254.34,873.38z" />
    <path class="textAccent" d="M881.03,575.7c0.64,4.28,1.51,9.68,1.88,13.99c1.15,13.11,1.65,26.25-0.54,39.29
		c-0.64,3.8-1.96,7.56-3.53,11.09c-1.86,4.18-5.5,6.51-10.09,6.49c-9.74-0.03-16.75-3.5-19.63-12.8
		c-1.87-6.04-2.75-12.53-3.07-18.87c-0.9-17.63,2.19-34.89,5.9-52.04c1.42-6.57,3.06-13.09,4.54-19.65c0.4-1.79,0.6-3.63,0.93-5.66
		c-8.33-2.82-13.6-8.65-13.93-17.91c4.44,0.52,7.23,3.92,9.74,6.88c5.86,6.89,8.73,15.34,11.91,23.63
		c3.12,8.15,6.29,16.3,11.7,23.29C877.91,574.81,879.62,574.57,881.03,575.7z" />
    <path class="textMain" d="M883.62,377.59c-9.72,1.3-17.62-2.23-24.25-9.04c-0.64-0.66-1.41-1.19-2.46-2.2
		c-0.97-6.99-3.11-12.54-10.11-14.76c-1.26-5.75-4.6-10.27-9.14-13.67c-4.32-3.23-11.89-1.76-17.18,3.03
		c-4.15,3.75-7.96,7.87-11.98,11.78c-1.32,1.28-2.81,2.39-4.54,3.62c2-13.51,5.91-26.46,14.38-37.56
		c8.41-11.02,19.64-15.65,33.38-13.57c10.36,1.57,17.54,7.71,22.51,16.67c6.06,10.92,8.18,22.91,9.07,35.13
		C883.79,363.69,883.6,370.44,883.62,377.59z" />
    <path class="textMain" d="M394.87,850.01c0.2-15.35,0.97-30.66,3.61-45.82c0.08-0.46,0.23-0.91,0.33-1.37
		c3.04-13.24,7.25-18.03,23.69-20.51c6.01-0.91,8.77,1.52,9.59,7.51c0.93,6.82-0.21,13.42-2.25,19.9
		c-3.2,10.17-6.1,20.43-6.75,31.13c-0.35,5.77-0.54,11.59-0.26,17.36c0.46,9.33,3.54,11.45,12.79,9.4c1.99-0.44,3.94-1.04,5.92-1.49
		c5.23-1.21,7.95,0.15,9.13,5.24c1.89,8.14,2.06,16.18-3.83,23.59c-1.47-0.04-2.43-0.15-3.23-0.56c-7.48-3.9-14.31-8.75-20.65-14.32
		c-7.59-6.67-13.09-14.98-18.46-23.37C402.17,853.06,399.12,850.74,394.87,850.01z" />
    <path class="textAccent" d="M603.3,271.76c0.2,7.17,0.39,14.34,0.61,21.51c0.05,1.82,0.2,3.64,0.28,5.16c0.66,0.33,0.79,0.45,0.93,0.46
		c6.49,0.35,7.32,1,7.35,7.75c0.03,5.62-0.31,11.26-0.82,16.86c-0.57,6.19-3.55,11.28-9.27,13.76c-8.3,3.6-16.77,6.94-25.42,9.56
		c-6.54,1.98-9.06-0.11-9.79-6.82c-0.85-7.83-0.26-15.64,1.44-23.33c0.68-3.08,1.88-6.09,5.04-7.55c2.53-1.17,3.16-3.09,3.14-5.69
		c-0.08-10.18-0.14-20.36,0.01-30.53c0.13-8.6,0.55-17.2,1.33-26.16c5.45,0.22,9.07,3.04,11.93,6.85c1.66,2.21,2.83,4.78,4.36,7.1
		C597.03,264.65,598.92,269.21,603.3,271.76z" />
    <path class="textAccent" d="M596.37,649.03c3.47-0.14,6.69,0.12,9.87-0.14c6.61-0.54,11.58-4.35,15.52-9.22
		c2.99-3.69,5.14-8.07,7.67-12.13c0.65-1.04,1.35-2.04,2.33-3.12c2.1,13.42-0.56,26.07-7.27,37.8
		c-7.22,12.62-18.48,20.56-31.58,26.16c-6.65,2.84-13.43,5.11-20.83,4.9c-11.63-0.33-19.64-8.31-19.82-19.98
		c-0.11-6.62,0.74-13.11,3.11-19.33c2.63-6.92,7.43-11.47,14.73-13.17c5.45-1.27,8.8,0.66,10.39,5.98c0.62,2.09,0.94,4.28,1.6,6.36
		c1.41,4.43,3.95,5.55,7.74,2.83C592.27,654.21,594.02,651.48,596.37,649.03z" />
    <path class="textAccent" d="M368.36,364.58c5.43-2.04,10.81-1.97,16.09-3.78c5.46-1.87,11.05-1.88,16.64-1.53
		c5.52,0.34,10.2,3.07,13.89,6.99c4.68,4.97,8.81,10.46,13.38,15.54c2.46,2.73,6.17,3.85,9.22,6.45
		c-2.4,7.42-8.42,13.98-14.87,18.01c-8.44,5.28-17.74,8.45-27.65,9.57c-10.04,1.13-16.62-2.62-20.19-12.13
		c-2.07-5.51-3.47-11.35-4.46-17.16C369.28,379.94,368.95,371.66,368.36,364.58z" />
    <path class="textMain" d="M765.3,403.78c1.27-17.33,2.53-34.66,3.8-51.99c0.1-1.37,0.23-2.74,0.36-4.36c-6.35-0.75-8.12-5.2-8.22-10.35
		c-0.11-5.76,0.16-11.58,0.85-17.3c0.69-5.77,4.21-9.65,9.78-11.5c7.81-2.59,15.89-3.59,24.07-3.37c5.31,0.14,8.44,2.91,9.49,8.13
		c1.61,7.98,0.75,15.91-1.39,23.69c-0.86,3.13-3.07,4.88-6.38,5.47c-5.45,0.98-5.33,1.08-5.35,6.72
		c-0.03,9.08-0.21,18.16-0.73,27.74c-1.4,1.88-2.33,3.33-3.4,4.65c-4.72,5.79-9.32,11.69-14.3,17.24
		C771.66,401.03,769.01,403.43,765.3,403.78z" />
    <path class="textMain" d="M409.63,694.62c0.76-11.55,1.51-23.75,2.28-35.3c0.15-2.31,0.39-4.62,0.57-6.61
		c-2.34-0.99-4.86-1.32-6.03-2.75c-1.47-1.81-2.49-4.51-2.53-6.84c-0.11-5.75,0.17-11.55,0.84-17.27c0.6-5.09,3.58-8.98,8.04-11.53
		c8.78-5.02,18.36-7.97,28.17-10.03c5.04-1.06,8.16,1.31,9.06,6.46c1.37,7.83,0.6,15.6-1.63,23.2c-1,3.38-3.42,5.41-6.69,6.72
		c-5.35,2.14-5.19,2.34-5.21,7.93c-0.04,13.3-0.36,27.41-1.01,41.12c-8.19-1.72-15.16-0.86-21.89,3.11
		C412.44,693.51,410.88,694.06,409.63,694.62z" />
    <path class="textMain" d="M713.05,378.75c1.57-6.84,3.14-13.68,4.84-21.13c-1.96,0-3.45,0.04-4.94-0.01c-5.58-0.2-9.22-3-10.19-8.55
		c-1.32-7.56-0.45-15,2.71-22.05c1.67-3.72,4.65-6.32,8.24-8.08c9.58-4.67,19.79-6.99,30.41-7.03c7.32-0.03,10.68,3.19,11.23,10.47
		c0.29,3.87,0.21,7.86-0.36,11.7c-1.23,8.23-5.83,14.19-13.64,17.13c-3.11,1.17-3.52,2.76-3.16,5.66c1.6,12.74,3.01,25.5,4.1,38.69
		c-2.26-0.83-4.27-1.92-5.96-3.39c-6.2-5.41-12.33-10.85-21.16-11.44C714.43,380.67,713.76,379.44,713.05,378.75z" />
    <path class="textMain" d="M334.93,895.35c-1.3-9.47-0.88-23.02-0.37-32.54c0.79-14.83,2.2-29.62,3.36-44.43
		c0.05-0.62,0.17-1.24,0.31-1.85c3.08-13.26,6.52-18.05,24.09-19.01c5.44-0.3,8.03,2.12,9.03,7.53c1.16,6.31-0.01,12.41-1.59,18.54
		c-2.46,9.52-5.39,19.03-6.63,28.73c-1.05,8.27-1.25,18.52-0.19,26.45c-1.5,1.37-2.73,1.47-3.87,2.49
		C352.03,887.49,343.6,893.75,334.93,895.35z" />
    <path class="textAccent" d="M713.23,378.21c0.94,0.41,2.02,2.05,2.77,2.1c8.84,0.59,14.14,6.44,20.35,11.85c1.69,1.47,3.7,1.34,5.93,2.61
		c0.53,7.49,1.08,16.2,0.77,23.66c-0.38,9.05-1.44,18.07-4.44,26.75c-3.39,9.79-10.02,15.6-20.36,17.04
		c-5.94,0.83-10.34-1.39-12.14-7.09c-1.3-4.12-1.98-8.54-2.21-12.86c-0.82-15.74,1.78-31.17,4.96-46.51
		C709.99,390.25,711.75,383.97,713.23,378.21z" />
    <path class="textAccent" d="M315.61,718.93c1.8,0.91,3.62,2.91,5.14,4.4c13.05,12.76,29.01,13.59,43.66,4.6
		c10.03-6.16,19.06-13.74,28.6-20.71c2.63-1.92,5.57-4.64,8.56-6.54c-0.98,18.53-6.08,36.53-19.55,50.13
		c-9.21,9.3-20.85,13.68-33.78,14.28c-12.38,0.57-21.34-5.19-26.73-16.24C317.11,739.83,315.62,729.3,315.61,718.93z" />
    <path class="textAccent" d="M330.19,529.74c2.86,3.36,5.26,9.12,8.15,12.75c2.51,3.16,5.22,6.22,8.16,8.99c6.49,6.11,14.4,6.75,22.3,4.03
		c6.48-2.23,11.67-6.21,15.67-12.45c2.48-0.73,5.39-1.38,7.84-1.5c4.44-0.22,7.5,2.06,8.99,6.15c2.48,6.79,2.22,13.86,1.22,20.85
		c-0.28,1.97-1.8,4.08-3.34,5.48c-2.28,2.07-4.89,4-7.7,5.21c-13.49,5.79-27.64,8.96-42.3,9.45c-9.08,0.31-13.98-3.08-16.02-11.92
		c-1.78-7.71-2.51-15.72-3.09-23.64C329.56,546.14,330.06,537.2,330.19,529.74z" />
    <path class="textAccent" d="M586.95,820.35c4.71-1.98,7.72-5.53,9.82-9.44c3.54-6.58,6.55-13.46,9.41-20.38
		c4.3-10.39,8.24-20.93,12.42-31.38c0.57-1.42,1.6-2.65,2.76-4.08c2.05,1.6,3.92,1.84,6.31,1.26c3.16-0.76,6.46-1.3,9.69-1.26
		c4.15,0.05,6.66,2.65,6.99,6.79c0.47,5.87-1.32,11.01-6.47,14.17c-3.7,2.27-7.7,4.32-11.84,5.51c-5.05,1.45-7.28,4.24-7.27,9.36
		c0.02,9.69-0.1,19.39-0.2,29.08c-0.07,6.41,0.08,12.83-0.38,19.22c-0.55,7.67-4.35,13.25-12.53,15.77
		c-1.23,0.29-1.84,0.62-2.46,0.95c-1.66,0.53-3.33,1.07-5.67,1.33c-2.82-0.31-4.96-0.36-7.11-0.4c-2.76-0.65-3.35-2.96-3.73-5.86
		c0.1-5.69-0.06-10.75-0.21-15.81C586.59,830.33,586.67,825.51,586.95,820.35z" />
    <path class="textMain" d="M881.17,576.4c-1.55-0.68-3.26-1.58-4.33-2.98c-5.4-6.99-8.57-15.14-11.7-23.29
		c-3.18-8.29-6.04-16.73-11.91-23.63c-2.52-2.96-5.38-5.62-9.74-6.51c-1.24-5.81-0.57-11.51,1.11-17.09
		c1.47-4.88,4.92-7.71,9.9-8.01c10.82-0.66,21.16,1.43,30.75,6.57c4.23,2.27,7.01,6.06,7.47,10.78c0.54,5.55,0.81,11.25,0.17,16.76
		c-0.96,8.32-5.4,11.76-13.89,12.09c-0.46,0.02-0.91,0.13-2.04,0.31C877.66,553.01,880.36,564.39,881.17,576.4z" />
    <path class="textAccent" d="M641.18,442.88c4.55-1.14,9.67,0.96,14.12-0.28c8.18-2.27,13.29-8.27,17.4-15.38
		c5.77-9.99,11.68-19.9,17.66-29.76c1.01-1.67,3.11-5.38,4.79-6.87c0.12,5.43-0.4,13.34-0.71,18.79
		c-0.59,10.48-0.94,20.98-2.02,31.41c-1.86,17.91-10.72,31.1-27.55,38.42c-6.46,2.81-10.72,1.64-14.31-4.49
		c-1.88-3.21-3.4-6.74-4.43-10.31C644.37,458.26,642.7,449.5,641.18,442.88z" />
    <path class="textAccent" d="M710.62,274.93c1.31,0.27,2.6,0.83,3.67,1.66c6.76,5.25,14.1,6.18,21.83,2.68c3.75-1.69,7.25-3.93,10.91-6.24
		c4.84-1.08,9.62-1.97,14.43-2.54c2.61-0.31,5.32-0.34,7.92,0c4.78,0.64,7.96,3.56,9.51,8.06c2.08,6.03,2.36,12.3,1.66,18.57
		c-0.46,4.13-3.12,6.93-6.98,8.06c-4.03,1.19-8.2,2.22-12.37,2.55c-10.45,0.83-20.94,1.56-31.42,1.68
		c-9.75,0.11-14.58-3.65-16.7-13.17C711.58,289.43,711.32,282.33,710.62,274.93z" />
    <path class="textAccent" d="M595.89,434.51c1.65-0.71,3.22,0.39,4.66-0.11c4.46-1.57,8.58-0.49,12.65,1.31c3.82,1.7,8.03,1.83,12.16,3.57
		c1.87,13.65,3.1,28.92,4.53,42.57c0.46,4.44-1.45,8.33-4.44,11.48c-6.42,6.76-14.45,10.87-23.36,13.2
		c-4.48,1.17-7.33-0.79-8.21-5.33c-0.5-2.58-0.69-5.28-0.58-7.92C594.05,474.23,594.92,453.97,595.89,434.51z" />
    <path class="textMain" d="M603.29,272.06c-4.46-2.11-6.26-7.41-8.88-11.37c-1.53-2.32-2.7-4.89-4.36-7.1
		c-2.86-3.81-6.64-5.57-11.96-6.16c0.08-1.67-0.02-3.84-0.1-5.19c-6.2-1.1-8.85-2.99-9.61-9.25c-0.65-5.39-0.6-10.91-0.3-16.35
		c0.31-5.57,3.44-9.68,8.38-12.22c8.58-4.4,17.79-6.94,27.29-8.21c5.85-0.78,9.68,1.92,10.27,7.75c0.62,6.17,0.34,12.48-0.1,18.69
		c-0.3,4.21-2.97,6.99-7.17,8.38c-5.12,1.69-4.97,1.94-4.68,7.5C602.64,249.32,602.92,260.84,603.29,272.06z" />
    <path class="textMain" d="M768.98,759.59c-2.08,0.93-4.02,1.49-5.97,1.95c-6.53,1.56-11.06-1.47-13.63-7.74
		c-2.22-5.41-3.49-11.21-5.09-16.87c-1.37-4.85-2.59-9.75-4.22-14.69c-0.18-8.83-0.43-17.61,0.24-26.33
		c0.92-12.08,12.54-19,23.89-14.73c2.66,1,4.56,2.86,5.33,5.55c0.63,2.24,1.2,4.61,1.15,6.9
		C770.23,715.08,769.66,737.74,768.98,759.59z" />
    <path class="textAccent" d="M807.92,790.31c2.09,10.45,5.98,19.8,14.06,26.89c3.21,2.82,7.13,3.49,11.36,1.85
		c1.3-0.51,2.67-0.84,4.37-1.25c-2.39,3.9-6.48,6.18-10.8,7.51c-11.05,3.4-22.22,3.62-33.18-0.28
		c-13.87-4.94-23.18-18.54-23.17-33.25c0-6.45,0.51-12.85,3.08-18.85c2.95-6.89,8.7-9.48,15.67-7.4c4.96,1.49,7.08,5.39,8.35,9.92
		c0.85,3,1.27,6.13,2.13,9.13C801.13,789.22,802.46,790.1,807.92,790.31z" />
    <path class="textAccent" d="M765.34,403.69c3.83-0.67,6.48-3.07,8.71-5.55c4.99-5.55,9.5-11.54,14.22-17.33c1.08-1.32,2.01-2.76,3.3-4.23
		c-0.05,8.81-0.3,17.79-0.65,26.68c-0.06,1.56-0.17,3.12-0.32,4.68c-0.23,2.38,0.52,4,3.15,4.22c2.94,0.25,4.03,2.23,4.18,4.78
		c0.48,8.15,0.15,16.27-1.87,24.23c-1.13,4.47-4,7.78-8.49,8.49c-8.16,1.29-16.4,2.35-24.64,2.66c-5.66,0.22-7.98-2.51-8.25-8.07
		c-0.38-7.68-0.09-15.34,1.92-22.82c0.88-3.25,2.21-6.07,5.84-7.37c1.09-0.39,2.06-2.21,2.35-3.53
		C765.25,408.44,765.1,406.2,765.34,403.69z" />
    <path class="textAccent" d="M409.67,693.87c1.45-0.76,2.77-0.36,3.92-1.04c6.73-3.97,13.78-5.64,21.89-3.52c0.4,6.02,0.4,12.06,0.4,17.84
		c0.66,0.41,0.93,0.72,1.19,0.71c5.7-0.21,6.84,0.43,6.8,5.96c-0.04,6.07-0.67,12.16-1.47,18.18c-0.61,4.57-3.29,8.12-7.39,10.3
		c-8.93,4.76-18.53,7.52-28.52,8.78c-4.78,0.6-7.17-1.35-7.7-6.14c-0.85-7.67-0.41-15.37,2.25-22.66c0.78-2.13,2.74-4.28,4.74-5.41
		c2.34-1.33,2.88-2.89,2.94-5.25C408.85,706,409.32,699.89,409.67,693.87z" />
    <path class="textMain" d="M934.17,350.41c-7.28,6.27-14.26,12.56-21.89,17.93c-7.04,4.96-15,8.37-24.02,9.59
		c0.42-13.6,0.94-27.19,2.06-40.74c0.35-4.26,1.8-8.62,3.64-12.52c4.32-9.2,14.32-13.21,23.7-9.45c2.67,1.07,5.32,3.56,6.75,6.09
		c2.52,4.44,4.37,9.33,6,14.2C932.01,340.24,932.96,345.18,934.17,350.41z" />
    <path class="textAccent" d="M334.51,891.21c9.74-0.35,17.52-3.72,24.56-9.95c1.14-1.01,2.37-1.93,3.88-2.91c2.51,3.42,5.72,4.53,9.6,4.02
		c3.1-0.41,6.19-0.94,9.29-1.34c4.19-0.54,6.19,0.58,7.87,4.27c3.81,8.35,2.02,19.82-4.54,26.25c-2.64,2.59-5.77,4.93-9.09,6.52
		c-8.68,4.15-18.04,5.17-27.53,4.28c-6.82-0.64-10.77-5.13-12.05-11.46C335.26,904.79,335.13,897.85,334.51,891.21z" />
    <path class="textAccent" d="M501.77,337.02c4.82,1.56,9.4,3.95,14.26,5.44c8.5,2.6,12.73-0.76,16.54-6.8c3.74-5.94,6.08-12.6,7.13-20.09
		c3.53-1.59,6.92-2.76,10.33-3.88c5-1.65,7.93-0.41,9.28,4.74c2.65,10.15,2.56,20.17-2.97,29.56c-3.15,5.35-7.26,9.84-12.38,13.32
		c-7.75,5.27-16.33,8.65-25.48,10.42c-7.21,1.39-11.4-1.16-13.67-8.15C502.27,353.76,501.64,345.64,501.77,337.02z" />
    <path class="textAccent" d="M524.66,878.18c3.79-8.98,5.72-18.68,7.91-28.08c1.85-7.96,4.31-15.66,8.26-22.84
		c3.27-5.95,7.62-7.62,14.18-5.58c0.15,0.05,0.31,0.07,0.45,0.13c7.81,3.17,15.96,4.01,24.78,1.94c-0.59,9.36-4.45,18.66-9.23,26.56
		c-9.17,15.14-22.79,24.02-40.01,27.55C529.33,878.21,526.77,878.16,524.66,878.18z" />
    <path class="textAccent" d="M394.9,849.95c4.38,0.3,7.27,3.03,9.6,6.67c5.38,8.39,10.87,16.79,18.46,23.46
		c6.34,5.57,13.17,10.41,20.65,14.32c0.8,0.42,2.01,0.28,3.24,0.54c-2.96,3.03-6.12,6.94-9.89,9.17
		c-8.49,5.03-18.01,7.05-27.85,7.15c-6.24,0.06-10.16-2.6-11.9-8.62c-1.41-4.91-2.48-10.08-2.62-15.16
		C394.26,875.27,394.72,862.57,394.9,849.95z" />
    <path class="textMain" d="M838.86,517.63c-10.2,0.41-18.93,4.32-27.17,9.72c-2.69,1.76-5.58,3.23-8.72,4.86
		c-4.17-0.43-6.16-2.99-6.98-6.37c-2.18-9.01-1.71-18.02,0.85-26.87c1.35-4.65,5.01-7.48,9.62-7.9c7.12-0.66,14.37-1.17,21.46-0.52
		c7.81,0.72,9.69,4.03,11.12,12.62C839.8,507.73,839.05,512.53,838.86,517.63z" />
    <path class="textAccent" d="M417.65,519.94c10.1-3.49,17.85,1.07,24.89,8.07c5.86,5.82,11.97,11.42,19.98,14.41
		c4.19,1.56,9.23,1.49,14.08,1.22c-3.38,6.43-9.19,12.59-15.3,16.8c-6.75,4.65-13.93,4.85-20.64,0.21c-3.66-2.53-6.99-5.84-9.68-9.4
		C424.18,542.27,420.38,531.17,417.65,519.94z" />
    <path class="textMain" d="M726.03,710.42c-8.75,2.27-15.2,7.27-19.38,14.84c-3.84,6.96-7.01,14.3-10.49,21.46
		c-0.4,0.83-2.35,5.54-2.07,4.95c0.03-15.03,0.31-32.64,1.16-47.76c0.67-11.87,12.66-19.89,24.23-17.14
		c3.63,0.86,5.83,3.33,6.12,6.87C726.05,699.07,725.98,704.54,726.03,710.42z" />
    <path class="textAccent" d="M557.6,526.11c0-1.05,1.03-2.57,1.56-3.48c4.29-7.46,5.9-15.72,7.45-24.03c1.08-5.82,1.63-11.58,2.86-17.76
		c3.29-1.68,7.3-3.47,10.71-4.13c3.97-0.77,6.4,0.84,7.6,4.67c2.34,7.46,2.55,15.15,0.52,22.7c-1.32,4.91-5.08,8.39-9.27,10.87
		C572.46,518.85,564.72,522.58,557.6,526.11z" />
    <path class="textAccent" d="M462.84,392.72c0.71-0.9,2.19-1.85,3.34-2.54c4.26-2.53,7.84-5.57,9.39-10.56
		c2.64-8.48,5.34-16.94,8.17-25.35c1.38-4.11,3.1-8.11,4.7-12.52c0.49-0.29,0.96-0.15,1.42-0.17c5.97-0.23,6.97,0.38,7.03,6.23
		c0.07,6.87-0.23,13.76-0.76,20.61c-0.53,6.94-4.24,12.24-10.4,15.2C478.56,387.06,470.55,389.76,462.84,392.72z" />
    <path class="textAccent" d="M449.59,701.83c3.74,3.53,7.34,7.32,10.79,11.25c5.05,5.77,10.67,10.75,18.2,13.73
		c-6.36,5.96-14.47,8.4-23.1,9.17c-3.58,0.32-5.87-1.79-6.68-5.34c-0.48-2.1-0.63-4.34-0.55-6.5
		C448.53,716.8,448.99,709.48,449.59,701.83z" />
    <path class="textAccent" d="M875.01,813.92c1.79,6.16,0.39,11.98-2.25,17.52c-1.16,2.44-3.06,3.36-5.96,2.57
		c-5.37-1.45-10.14-3.96-14.19-7.76c-3.71-3.48-5.12-7.71-3.06-12.98c1.73-0.27,2.87-0.06,3.91-0.31
		c6.93-1.66,13.63-0.64,20.27,1.51C874.15,814.61,874.47,814.15,875.01,813.92z" />
    <path class="textAccent" d="M282.38,329.3c2.38-2.01,19.4,11.54,20.22,12.74c3.92,5.79,8.56,12.53,12.42,18.82
		c0.14,0.23-0.11,0.49-0.34,0.35c-4.11-2.38-17.41-5.79-20.8-8.76c-6.09-5.34-12.5-14.28-11.77-22.56
		C282.14,329.63,282.23,329.43,282.38,329.3z" />
    <path class="textMain" d="M980.27,350.32c-1.45-0.54-3.05-1.29-4.17-2.49c-7.06-7.57-15.54-10.05-25.55-7.5
		c-0.45,0.11-0.93,0.06-1.8,0.08c-0.43-2.96-0.67-5.94-0.43-8.88c0.29-3.7,2.09-5.56,5.74-5.47c7.49,0.18,14.54,2.12,20.61,6.7
		c3.45,2.61,4.9,6.43,5.42,10.57C980.36,345.5,980.27,347.71,980.27,350.32z" />
    <path class="textAccent" d="M517.2,715.26c0.29-0.93,1.41-2.01,2.24-2.61c7.39-5.38,12.49-12.58,16.59-20.59
		c4.14-8.07,8.29-16.66,12.66-24.88C550.94,693.21,536.24,709.72,517.2,715.26z" />
    <path class="textMain" d="M309.34,711.57c-2.13,0.72-2.46-2.58-3.67-3.91c-3.92-4.33-8.02-8.51-12.23-12.56
		c-1.38-1.32-3.74-2.52-5.52-3.82c4.26-0.33,9.03-0.07,13.37,0.1c6.79,0.27,9.25,2.81,9.32,9.53
		C310.63,703.7,309.67,708.41,309.34,711.57z" />
    <path class="textMain" d="M874.98,813.94c-0.43,0.54-1.07,1.08-1.49,0.95c-6.64-2.16-13.34-3.17-20.27-1.51
		c-1.04,0.25-2.18,0.04-3.74,0.03c0.27-1.87,0.74-3.89,1.78-5.55c2.62-4.21,6.03-5.45,10.75-4.02
		C867.48,805.49,872.25,808.17,874.98,813.94z" />
    <path class="textAccent" d="M519.92,527.7c2.5-0.97,5.57-0.07,7.92-1.09c4.88-2.11,9.52-1.96,14.2,0.46c1.78,0.92,4.9,1.2,7.04,2.22
		c-4.99,1.99-11.42,4.52-16.82,5.79C527.06,536.3,522.29,533.3,519.92,527.7z" />
    <path class="textAccent" d="M786.2,752.34c4.94-0.74,10.77-0.99,14.14,3.92c0.43,0.62,1.2,2.54,1.51,3.58
		C797.15,758,791.06,754.78,786.2,752.34z" />
    <path class="textAccent"
        d="M586.35,835.5c0.31,4.72,0.46,9.78,0.4,15.14C586.42,845.91,586.31,840.88,586.35,835.5z" />
    <path class="textAccent"
        d="M244.98,725.46c0.3,3.48,0.45,7.31,0.37,11.43C245.02,733.39,244.93,729.59,244.98,725.46z" />
    <path class="textAccent" d="M590.69,857.09c1.9-0.21,4.04-0.17,6.49,0.1C595.29,857.4,593.11,857.37,590.69,857.09z" />
    <path class="textAccent"
        d="M603.49,855.96c0.34-0.39,0.96-0.72,1.86-1.01C605.01,855.32,604.38,855.67,603.49,855.96z" />
    <path class="stars" d="M275.64,278.86c0.79,1,1.65,1.88,2.56,2.69c0.81,0.72,1.66,1.38,2.53,1.98c0.85,0.58,1.72,1.12,2.61,1.61
		c0.81,0.45,1.64,0.86,2.47,1.27c0.64,0.31,1.29,0.61,1.94,0.89c0.46,0.2,0.93,0.36,1.4,0.53c0.54,0.19,1.08,0.37,1.63,0.55
		c0.13,0.04,0.26,0.08,0.39,0.11c0.54,0.13,1.09,0.26,1.64,0.4c0.09,0.02,0.19,0.06,0.27,0.12c0.14,0.1,0.15,0.25,0.03,0.38
		c-0.06,0.07-0.15,0.12-0.24,0.14c-0.18,0.04-0.36,0.04-0.54,0.08c-0.72,0.17-1.45,0.34-2.16,0.53c-0.88,0.23-1.74,0.56-2.6,0.9
		c-0.68,0.27-1.35,0.57-2.01,0.88c-0.75,0.36-1.5,0.74-2.25,1.13c-1.12,0.59-2.2,1.26-3.25,2c-1.12,0.79-2.18,1.67-3.19,2.66
		c-0.89,0.88-1.71,1.86-2.46,2.92c-0.74,1.04-1.38,2.16-1.94,3.34c-0.26,0.56-0.5,1.14-0.74,1.72c-0.26,0.65-0.51,1.32-0.74,1.98
		c-0.16,0.46-0.29,0.93-0.43,1.4c-0.16,0.57-0.31,1.15-0.47,1.73c-0.01,0.03-0.02,0.05-0.02,0.08c-0.14,0.67-0.28,1.34-0.41,2.01
		c-0.14,0.74-0.26,1.49-0.38,2.24c-0.13,0.86-0.22,1.72-0.31,2.59c-0.06,0.62-0.15,1.24-0.21,1.86c-0.05,0.5-0.07,1-0.11,1.49
		c-0.01,0.16-0.04,0.32-0.08,0.48c-0.03,0.12-0.08,0.24-0.15,0.33c-0.15,0.21-0.34,0.17-0.43-0.08c-0.05-0.14-0.07-0.3-0.08-0.45
		c-0.08-0.71-0.15-1.42-0.22-2.13c-0.02-0.23-0.03-0.45-0.05-0.68c-0.09-0.71-0.17-1.42-0.27-2.12c-0.14-0.92-0.3-1.83-0.46-2.75
		c-0.12-0.66-0.25-1.31-0.39-1.96c-0.11-0.55-0.23-1.09-0.37-1.63c-0.25-1-0.51-2-0.79-2.98c-0.42-1.45-0.94-2.85-1.56-4.2
		c-0.93-2.02-2.15-3.76-3.58-5.29c-1.19-1.27-2.47-2.4-3.83-3.4c-1.35-1-2.76-1.85-4.21-2.6c-1.28-0.67-2.59-1.23-3.93-1.69
		c-1.19-0.41-2.4-0.75-3.63-0.93c-0.42-0.06-0.83-0.16-1.25-0.24c-0.13-0.02-0.26-0.01-0.38-0.04c-0.09-0.02-0.19-0.06-0.27-0.12
		c-0.12-0.11-0.1-0.26,0.02-0.35c0.04-0.03,0.1-0.05,0.15-0.06c0.1-0.02,0.21-0.03,0.31-0.04c0.83-0.04,1.66-0.13,2.49-0.3
		c0.69-0.15,1.37-0.32,2.05-0.5c0.51-0.13,1.02-0.32,1.52-0.5c0.41-0.14,0.82-0.29,1.23-0.46c0.72-0.3,1.43-0.61,2.14-0.94
		c0.58-0.27,1.16-0.56,1.72-0.87c0.63-0.35,1.25-0.71,1.86-1.11c0.78-0.53,1.55-1.08,2.3-1.66c1.24-0.96,2.38-2.06,3.41-3.34
		c0.9-1.13,1.68-2.37,2.31-3.74c0.56-1.21,1.04-2.47,1.46-3.77c0.33-1.05,0.63-2.12,0.89-3.2c0.26-1.1,0.53-2.19,0.77-3.3
		c0.16-0.76,0.28-1.54,0.41-2.32c0.1-0.57,0.19-1.14,0.27-1.71c0.1-0.73,0.19-1.47,0.27-2.21c0.05-0.46,0.08-0.92,0.12-1.38
		c0.01-0.12,0.02-0.24,0.06-0.34c0.04-0.1,0.09-0.21,0.16-0.29c0.14-0.15,0.33-0.11,0.42,0.1c0.04,0.1,0.07,0.22,0.08,0.34
		c0.05,0.58,0.08,1.16,0.13,1.74c0.07,0.92,0.14,1.84,0.23,2.76c0.05,0.53,0.15,1.06,0.2,1.59c0.05,0.5,0.1,0.99,0.21,1.47
		c0.03,0.12,0.05,0.25,0.06,0.37c0.04,0.44,0.11,0.88,0.23,1.3c0.03,0.12,0.04,0.25,0.07,0.37c0.06,0.3,0.13,0.6,0.19,0.89
		c0.01,0.04,0.02,0.09,0.03,0.13c0.13,0.56,0.25,1.12,0.39,1.68c0.13,0.48,0.28,0.96,0.43,1.43c0.11,0.35,0.23,0.69,0.35,1.03
		c0.24,0.75,0.52,1.49,0.84,2.2c0.3,0.67,0.61,1.33,0.94,1.98c0.39,0.77,0.84,1.48,1.33,2.16
		C275.06,278.09,275.35,278.46,275.64,278.86z" />
    <path class="stars" d="M301.22,304.07c0.37,0.52,0.76,0.98,1.18,1.4c0.37,0.38,0.77,0.72,1.17,1.03c0.39,0.3,0.79,0.58,1.2,0.84
		c0.38,0.23,0.76,0.45,1.14,0.66c0.3,0.16,0.6,0.32,0.9,0.46c0.21,0.1,0.43,0.19,0.65,0.27c0.25,0.1,0.5,0.19,0.75,0.29
		c0.06,0.02,0.12,0.04,0.18,0.06c0.25,0.07,0.5,0.14,0.76,0.21c0.04,0.01,0.09,0.03,0.13,0.06c0.06,0.05,0.07,0.13,0.02,0.2
		c-0.03,0.04-0.07,0.06-0.11,0.07c-0.08,0.02-0.17,0.02-0.25,0.04c-0.33,0.09-0.67,0.18-1,0.27c-0.41,0.12-0.81,0.29-1.2,0.47
		c-0.31,0.14-0.62,0.29-0.93,0.46c-0.35,0.19-0.7,0.39-1.04,0.59c-0.52,0.31-1.02,0.65-1.5,1.04c-0.52,0.41-1.01,0.87-1.47,1.39
		c-0.41,0.46-0.79,0.97-1.14,1.52c-0.34,0.54-0.64,1.12-0.9,1.74c-0.12,0.29-0.23,0.59-0.34,0.89c-0.12,0.34-0.23,0.69-0.34,1.03
		c-0.07,0.24-0.14,0.49-0.2,0.73c-0.08,0.3-0.15,0.6-0.22,0.9c0,0.01-0.01,0.03-0.01,0.04c-0.06,0.35-0.13,0.69-0.19,1.04
		c-0.07,0.39-0.12,0.78-0.17,1.17c-0.06,0.45-0.1,0.9-0.14,1.35c-0.03,0.32-0.07,0.65-0.1,0.97c-0.02,0.26-0.03,0.52-0.05,0.78
		c-0.01,0.08-0.02,0.17-0.04,0.25c-0.01,0.06-0.04,0.12-0.07,0.17c-0.07,0.11-0.16,0.09-0.2-0.04c-0.02-0.07-0.03-0.15-0.04-0.23
		c-0.04-0.37-0.07-0.74-0.1-1.11c-0.01-0.12-0.01-0.24-0.02-0.35c-0.04-0.37-0.08-0.74-0.13-1.11c-0.06-0.48-0.14-0.95-0.21-1.43
		c-0.05-0.34-0.12-0.68-0.18-1.02c-0.05-0.28-0.11-0.57-0.17-0.85c-0.12-0.52-0.23-1.04-0.37-1.55c-0.2-0.75-0.43-1.48-0.72-2.18
		c-0.43-1.05-0.99-1.96-1.65-2.75c-0.55-0.66-1.14-1.25-1.77-1.77c-0.62-0.52-1.28-0.96-1.95-1.35c-0.59-0.35-1.2-0.64-1.82-0.88
		c-0.55-0.21-1.11-0.39-1.68-0.49c-0.19-0.03-0.38-0.09-0.58-0.13c-0.06-0.01-0.12-0.01-0.18-0.02c-0.04-0.01-0.09-0.03-0.12-0.06
		c-0.06-0.06-0.05-0.14,0.01-0.18c0.02-0.02,0.04-0.03,0.07-0.03c0.05-0.01,0.1-0.02,0.14-0.02c0.39-0.02,0.77-0.07,1.15-0.16
		c0.32-0.08,0.63-0.17,0.95-0.26c0.24-0.07,0.47-0.17,0.7-0.26c0.19-0.07,0.38-0.15,0.57-0.24c0.33-0.16,0.66-0.32,0.99-0.49
		c0.27-0.14,0.54-0.29,0.8-0.46c0.29-0.18,0.58-0.37,0.86-0.58c0.36-0.27,0.72-0.56,1.06-0.86c0.57-0.5,1.1-1.07,1.58-1.74
		c0.42-0.59,0.78-1.24,1.07-1.95c0.26-0.63,0.48-1.29,0.67-1.96c0.15-0.55,0.29-1.1,0.41-1.67c0.12-0.57,0.25-1.14,0.36-1.72
		c0.08-0.4,0.13-0.8,0.19-1.2c0.04-0.3,0.09-0.59,0.13-0.89c0.05-0.38,0.09-0.77,0.12-1.15c0.02-0.24,0.04-0.48,0.05-0.72
		c0-0.06,0.01-0.12,0.03-0.18c0.02-0.05,0.04-0.11,0.07-0.15c0.07-0.08,0.15-0.06,0.19,0.05c0.02,0.05,0.03,0.11,0.04,0.17
		c0.02,0.3,0.04,0.6,0.06,0.9c0.03,0.48,0.06,0.96,0.1,1.44c0.02,0.28,0.07,0.55,0.09,0.83c0.02,0.26,0.05,0.52,0.1,0.77
		c0.01,0.06,0.02,0.13,0.03,0.2c0.02,0.23,0.05,0.46,0.11,0.68c0.02,0.06,0.02,0.13,0.03,0.19c0.03,0.16,0.06,0.31,0.09,0.47
		c0,0.02,0.01,0.04,0.02,0.07c0.06,0.29,0.11,0.58,0.18,0.87c0.06,0.25,0.13,0.5,0.2,0.75c0.05,0.18,0.11,0.36,0.16,0.54
		c0.11,0.39,0.24,0.77,0.39,1.14c0.14,0.35,0.28,0.69,0.44,1.03c0.18,0.4,0.39,0.77,0.61,1.13
		C300.95,303.68,301.08,303.87,301.22,304.07z" />
    <path class="stars" d="M259.29,335.3c0.3,0.39,0.64,0.72,0.98,1.04c0.31,0.28,0.64,0.53,0.97,0.76c0.33,0.22,0.66,0.43,1,0.62
		c0.31,0.17,0.63,0.33,0.95,0.49c0.25,0.12,0.49,0.23,0.74,0.34c0.18,0.08,0.36,0.14,0.54,0.2c0.21,0.07,0.42,0.14,0.63,0.21
		c0.05,0.02,0.1,0.03,0.15,0.04c0.21,0.05,0.42,0.1,0.63,0.15c0.04,0.01,0.07,0.02,0.11,0.05c0.05,0.04,0.06,0.1,0.01,0.15
		c-0.02,0.03-0.06,0.05-0.09,0.05c-0.07,0.02-0.14,0.02-0.21,0.03c-0.28,0.07-0.56,0.13-0.83,0.2c-0.34,0.09-0.67,0.22-1,0.35
		c-0.26,0.1-0.52,0.22-0.77,0.34c-0.29,0.14-0.58,0.28-0.86,0.44c-0.43,0.23-0.85,0.48-1.25,0.77c-0.43,0.3-0.84,0.64-1.22,1.03
		c-0.34,0.34-0.66,0.72-0.94,1.12c-0.28,0.4-0.53,0.83-0.75,1.29c-0.1,0.21-0.19,0.44-0.28,0.66c-0.1,0.25-0.19,0.51-0.28,0.76
		c-0.06,0.18-0.11,0.36-0.16,0.54c-0.06,0.22-0.12,0.44-0.18,0.67c0,0.01-0.01,0.02-0.01,0.03c-0.05,0.26-0.11,0.51-0.16,0.77
		c-0.05,0.29-0.1,0.57-0.14,0.86c-0.05,0.33-0.08,0.66-0.12,1c-0.02,0.24-0.06,0.48-0.08,0.72c-0.02,0.19-0.03,0.38-0.04,0.57
		c-0.01,0.06-0.02,0.13-0.03,0.18c-0.01,0.05-0.03,0.09-0.06,0.13c-0.06,0.08-0.13,0.07-0.16-0.03c-0.02-0.05-0.03-0.11-0.03-0.17
		c-0.03-0.27-0.06-0.55-0.08-0.82c-0.01-0.09-0.01-0.17-0.02-0.26c-0.03-0.27-0.06-0.55-0.1-0.82c-0.05-0.35-0.11-0.71-0.18-1.06
		c-0.05-0.25-0.1-0.5-0.15-0.75c-0.04-0.21-0.09-0.42-0.14-0.63c-0.1-0.38-0.2-0.77-0.31-1.15c-0.16-0.56-0.36-1.1-0.6-1.61
		c-0.36-0.78-0.83-1.45-1.38-2.04c-0.46-0.49-0.95-0.92-1.47-1.31c-0.52-0.38-1.06-0.71-1.62-1c-0.49-0.26-0.99-0.48-1.51-0.65
		c-0.46-0.16-0.92-0.29-1.4-0.36c-0.16-0.02-0.32-0.06-0.48-0.09c-0.05-0.01-0.1-0.01-0.15-0.02c-0.04-0.01-0.07-0.02-0.1-0.05
		c-0.05-0.04-0.04-0.1,0.01-0.14c0.02-0.01,0.04-0.02,0.06-0.02c0.04-0.01,0.08-0.01,0.12-0.02c0.32-0.02,0.64-0.05,0.96-0.12
		c0.26-0.06,0.53-0.12,0.79-0.19c0.2-0.05,0.39-0.12,0.59-0.19c0.16-0.06,0.32-0.11,0.47-0.18c0.28-0.12,0.55-0.23,0.82-0.36
		c0.22-0.1,0.45-0.22,0.66-0.34c0.24-0.13,0.48-0.27,0.71-0.43c0.3-0.2,0.6-0.42,0.88-0.64c0.48-0.37,0.92-0.79,1.31-1.29
		c0.35-0.43,0.64-0.91,0.89-1.44c0.22-0.47,0.4-0.95,0.56-1.45c0.13-0.4,0.24-0.81,0.34-1.23c0.1-0.42,0.2-0.84,0.3-1.27
		c0.06-0.29,0.11-0.59,0.16-0.89c0.04-0.22,0.07-0.44,0.11-0.66c0.04-0.28,0.07-0.57,0.1-0.85c0.02-0.18,0.03-0.35,0.05-0.53
		c0-0.04,0.01-0.09,0.02-0.13c0.01-0.04,0.04-0.08,0.06-0.11c0.06-0.06,0.13-0.04,0.16,0.04c0.02,0.04,0.03,0.09,0.03,0.13
		c0.02,0.22,0.03,0.45,0.05,0.67c0.03,0.35,0.05,0.71,0.09,1.06c0.02,0.2,0.06,0.41,0.08,0.61c0.02,0.19,0.04,0.38,0.08,0.57
		c0.01,0.05,0.02,0.1,0.02,0.14c0.02,0.17,0.04,0.34,0.09,0.5c0.01,0.05,0.02,0.1,0.03,0.14c0.02,0.11,0.05,0.23,0.07,0.34
		c0,0.02,0.01,0.03,0.01,0.05c0.05,0.22,0.09,0.43,0.15,0.64c0.05,0.19,0.11,0.37,0.16,0.55c0.04,0.13,0.09,0.26,0.13,0.4
		c0.09,0.29,0.2,0.57,0.32,0.84c0.12,0.26,0.24,0.51,0.36,0.76c0.15,0.29,0.32,0.57,0.51,0.83
		C259.06,335.01,259.17,335.15,259.29,335.3z" />
    <path class="stars" d="M861.95,684.07c0.79,1,1.65,1.88,2.56,2.69c0.81,0.72,1.66,1.38,2.53,1.98c0.85,0.58,1.72,1.12,2.61,1.61
		c0.81,0.45,1.64,0.86,2.47,1.27c0.64,0.31,1.29,0.61,1.94,0.89c0.46,0.2,0.93,0.36,1.4,0.53c0.54,0.19,1.08,0.37,1.63,0.55
		c0.13,0.04,0.26,0.08,0.39,0.11c0.54,0.13,1.09,0.26,1.64,0.4c0.09,0.02,0.19,0.06,0.27,0.12c0.14,0.1,0.15,0.25,0.03,0.38
		c-0.06,0.07-0.15,0.12-0.24,0.14c-0.18,0.04-0.36,0.04-0.54,0.08c-0.72,0.17-1.45,0.34-2.16,0.53c-0.88,0.23-1.74,0.56-2.6,0.9
		c-0.68,0.27-1.35,0.57-2.01,0.88c-0.75,0.36-1.5,0.74-2.25,1.13c-1.12,0.59-2.2,1.26-3.25,2c-1.12,0.79-2.18,1.67-3.19,2.66
		c-0.89,0.88-1.71,1.86-2.46,2.92c-0.74,1.04-1.38,2.16-1.94,3.34c-0.26,0.56-0.5,1.14-0.74,1.72c-0.26,0.65-0.51,1.32-0.74,1.98
		c-0.16,0.46-0.29,0.93-0.43,1.4c-0.16,0.57-0.31,1.15-0.47,1.73c-0.01,0.03-0.02,0.05-0.02,0.08c-0.14,0.67-0.28,1.34-0.41,2.01
		c-0.14,0.74-0.26,1.49-0.38,2.24c-0.13,0.86-0.22,1.72-0.31,2.59c-0.06,0.62-0.15,1.24-0.21,1.86c-0.05,0.5-0.07,1-0.11,1.49
		c-0.01,0.16-0.04,0.32-0.08,0.48c-0.03,0.12-0.08,0.24-0.15,0.33c-0.15,0.21-0.34,0.17-0.43-0.08c-0.05-0.14-0.07-0.3-0.08-0.45
		c-0.08-0.71-0.15-1.42-0.22-2.13c-0.02-0.23-0.03-0.45-0.05-0.68c-0.09-0.71-0.17-1.42-0.27-2.12c-0.14-0.92-0.3-1.83-0.46-2.75
		c-0.12-0.66-0.25-1.31-0.39-1.96c-0.11-0.55-0.23-1.09-0.37-1.63c-0.25-1-0.51-2-0.79-2.98c-0.42-1.45-0.94-2.85-1.56-4.2
		c-0.93-2.02-2.15-3.76-3.58-5.29c-1.19-1.27-2.47-2.4-3.83-3.4c-1.35-1-2.76-1.85-4.21-2.6c-1.28-0.67-2.59-1.23-3.93-1.69
		c-1.19-0.41-2.4-0.75-3.63-0.93c-0.42-0.06-0.83-0.16-1.25-0.24c-0.13-0.02-0.26-0.01-0.38-0.04c-0.09-0.02-0.19-0.06-0.27-0.12
		c-0.12-0.11-0.1-0.26,0.02-0.35c0.04-0.03,0.1-0.05,0.15-0.06c0.1-0.02,0.21-0.03,0.31-0.04c0.83-0.04,1.66-0.13,2.49-0.3
		c0.69-0.15,1.37-0.32,2.05-0.5c0.51-0.13,1.02-0.32,1.52-0.5c0.41-0.14,0.82-0.29,1.23-0.46c0.72-0.3,1.43-0.61,2.14-0.94
		c0.58-0.27,1.16-0.56,1.72-0.87c0.63-0.35,1.25-0.71,1.86-1.11c0.78-0.53,1.55-1.08,2.3-1.66c1.24-0.96,2.38-2.06,3.41-3.34
		c0.9-1.13,1.68-2.37,2.31-3.74c0.56-1.21,1.04-2.47,1.46-3.77c0.33-1.05,0.63-2.12,0.89-3.2c0.26-1.1,0.53-2.19,0.77-3.3
		c0.16-0.76,0.28-1.54,0.41-2.32c0.1-0.57,0.19-1.14,0.27-1.71c0.1-0.73,0.19-1.47,0.27-2.21c0.05-0.46,0.08-0.92,0.12-1.38
		c0.01-0.12,0.02-0.24,0.06-0.34c0.04-0.1,0.09-0.21,0.16-0.29c0.14-0.15,0.33-0.11,0.42,0.1c0.04,0.1,0.07,0.22,0.08,0.34
		c0.05,0.58,0.08,1.16,0.13,1.74c0.07,0.92,0.14,1.84,0.23,2.76c0.05,0.53,0.15,1.06,0.2,1.59c0.05,0.5,0.1,0.99,0.21,1.47
		c0.03,0.12,0.04,0.25,0.06,0.37c0.04,0.44,0.11,0.88,0.23,1.3c0.03,0.12,0.04,0.25,0.07,0.37c0.06,0.3,0.13,0.6,0.19,0.89
		c0.01,0.04,0.02,0.09,0.03,0.13c0.13,0.56,0.25,1.12,0.39,1.68c0.13,0.48,0.28,0.96,0.43,1.43c0.11,0.35,0.23,0.69,0.35,1.03
		c0.24,0.75,0.52,1.49,0.84,2.2c0.3,0.67,0.61,1.33,0.94,1.98c0.39,0.77,0.84,1.48,1.33,2.16
		C861.37,683.31,861.65,683.68,861.95,684.07z" />
    <path class="stars" d="M820.85,671.8c0.37,0.52,0.76,0.98,1.18,1.4c0.37,0.38,0.77,0.72,1.17,1.03c0.39,0.3,0.79,0.58,1.2,0.84
		c0.38,0.23,0.76,0.45,1.14,0.66c0.3,0.16,0.6,0.32,0.9,0.46c0.21,0.1,0.43,0.19,0.65,0.27c0.25,0.1,0.5,0.19,0.75,0.29
		c0.06,0.02,0.12,0.04,0.18,0.06c0.25,0.07,0.5,0.14,0.76,0.21c0.04,0.01,0.09,0.03,0.13,0.06c0.06,0.05,0.07,0.13,0.02,0.2
		c-0.03,0.04-0.07,0.06-0.11,0.07c-0.08,0.02-0.17,0.02-0.25,0.04c-0.33,0.09-0.67,0.18-1,0.27c-0.41,0.12-0.81,0.29-1.2,0.47
		c-0.31,0.14-0.62,0.29-0.93,0.46c-0.35,0.19-0.7,0.39-1.04,0.59c-0.52,0.31-1.02,0.65-1.5,1.04c-0.52,0.41-1.01,0.87-1.47,1.39
		c-0.41,0.46-0.79,0.97-1.14,1.52c-0.34,0.54-0.64,1.12-0.9,1.74c-0.12,0.29-0.23,0.59-0.34,0.89c-0.12,0.34-0.23,0.69-0.34,1.03
		c-0.07,0.24-0.14,0.49-0.2,0.73c-0.08,0.3-0.15,0.6-0.22,0.9c0,0.01-0.01,0.03-0.01,0.04c-0.06,0.35-0.13,0.69-0.19,1.04
		c-0.07,0.39-0.12,0.78-0.17,1.17c-0.06,0.45-0.1,0.9-0.14,1.35c-0.03,0.32-0.07,0.65-0.1,0.97c-0.02,0.26-0.03,0.52-0.05,0.78
		c-0.01,0.08-0.02,0.17-0.04,0.25c-0.01,0.06-0.04,0.12-0.07,0.17c-0.07,0.11-0.16,0.09-0.2-0.04c-0.02-0.07-0.03-0.15-0.04-0.23
		c-0.04-0.37-0.07-0.74-0.1-1.11c-0.01-0.12-0.01-0.24-0.02-0.35c-0.04-0.37-0.08-0.74-0.13-1.11c-0.06-0.48-0.14-0.95-0.21-1.43
		c-0.05-0.34-0.12-0.68-0.18-1.02c-0.05-0.28-0.11-0.57-0.17-0.85c-0.12-0.52-0.23-1.04-0.37-1.55c-0.2-0.75-0.43-1.48-0.72-2.18
		c-0.43-1.05-0.99-1.96-1.65-2.75c-0.55-0.66-1.14-1.25-1.77-1.77c-0.62-0.52-1.28-0.96-1.95-1.35c-0.59-0.35-1.2-0.64-1.82-0.88
		c-0.55-0.21-1.11-0.39-1.68-0.49c-0.19-0.03-0.38-0.09-0.58-0.13c-0.06-0.01-0.12-0.01-0.18-0.02c-0.04-0.01-0.09-0.03-0.12-0.06
		c-0.06-0.06-0.05-0.14,0.01-0.18c0.02-0.02,0.04-0.03,0.07-0.03c0.05-0.01,0.1-0.02,0.14-0.02c0.39-0.02,0.77-0.07,1.15-0.16
		c0.32-0.08,0.63-0.17,0.95-0.26c0.24-0.07,0.47-0.17,0.7-0.26c0.19-0.07,0.38-0.15,0.57-0.24c0.33-0.16,0.66-0.32,0.99-0.49
		c0.27-0.14,0.54-0.29,0.8-0.46c0.29-0.18,0.58-0.37,0.86-0.58c0.36-0.27,0.72-0.56,1.06-0.86c0.57-0.5,1.1-1.07,1.58-1.74
		c0.42-0.59,0.78-1.24,1.07-1.95c0.26-0.63,0.48-1.29,0.67-1.96c0.15-0.55,0.29-1.1,0.41-1.67c0.12-0.57,0.25-1.14,0.36-1.72
		c0.08-0.4,0.13-0.8,0.19-1.2c0.04-0.3,0.09-0.59,0.13-0.89c0.05-0.38,0.09-0.77,0.12-1.15c0.02-0.24,0.04-0.48,0.05-0.72
		c0-0.06,0.01-0.12,0.03-0.18c0.02-0.05,0.04-0.11,0.07-0.15c0.07-0.08,0.15-0.06,0.19,0.05c0.02,0.05,0.03,0.11,0.04,0.17
		c0.02,0.3,0.04,0.6,0.06,0.9c0.03,0.48,0.06,0.96,0.1,1.44c0.02,0.28,0.07,0.55,0.09,0.83c0.02,0.26,0.05,0.52,0.1,0.77
		c0.01,0.06,0.02,0.13,0.03,0.2c0.02,0.23,0.05,0.46,0.11,0.68c0.02,0.06,0.02,0.13,0.03,0.19c0.03,0.16,0.06,0.31,0.09,0.47
		c0,0.02,0.01,0.04,0.02,0.07c0.06,0.29,0.11,0.58,0.18,0.87c0.06,0.25,0.13,0.5,0.2,0.75c0.05,0.18,0.11,0.36,0.16,0.54
		c0.11,0.39,0.24,0.77,0.39,1.14c0.14,0.35,0.28,0.69,0.44,1.03c0.18,0.4,0.39,0.77,0.61,1.13
		C820.58,671.4,820.71,671.59,820.85,671.8z" />
    <path class="stars" d="M836.43,724.69c0.3,0.39,0.64,0.72,0.98,1.04c0.31,0.28,0.64,0.53,0.97,0.76c0.33,0.22,0.66,0.43,1,0.62
		c0.31,0.17,0.63,0.33,0.95,0.49c0.25,0.12,0.49,0.23,0.74,0.34c0.18,0.08,0.36,0.14,0.54,0.2c0.21,0.07,0.42,0.14,0.63,0.21
		c0.05,0.02,0.1,0.03,0.15,0.04c0.21,0.05,0.42,0.1,0.63,0.15c0.04,0.01,0.07,0.02,0.11,0.05c0.05,0.04,0.06,0.1,0.01,0.15
		c-0.02,0.03-0.06,0.05-0.09,0.05c-0.07,0.02-0.14,0.02-0.21,0.03c-0.28,0.07-0.56,0.13-0.83,0.2c-0.34,0.09-0.67,0.22-1,0.35
		c-0.26,0.1-0.52,0.22-0.77,0.34c-0.29,0.14-0.58,0.28-0.86,0.44c-0.43,0.23-0.85,0.48-1.25,0.77c-0.43,0.3-0.84,0.64-1.22,1.03
		c-0.34,0.34-0.66,0.72-0.94,1.12c-0.28,0.4-0.53,0.83-0.75,1.29c-0.1,0.21-0.19,0.44-0.28,0.66c-0.1,0.25-0.19,0.51-0.28,0.76
		c-0.06,0.18-0.11,0.36-0.16,0.54c-0.06,0.22-0.12,0.44-0.18,0.67c0,0.01-0.01,0.02-0.01,0.03c-0.05,0.26-0.11,0.51-0.16,0.77
		c-0.05,0.29-0.1,0.57-0.14,0.86c-0.05,0.33-0.08,0.66-0.12,1c-0.02,0.24-0.06,0.48-0.08,0.72c-0.02,0.19-0.03,0.38-0.04,0.57
		c-0.01,0.06-0.02,0.13-0.03,0.18c-0.01,0.05-0.03,0.09-0.06,0.13c-0.06,0.08-0.13,0.07-0.16-0.03c-0.02-0.05-0.03-0.11-0.03-0.17
		c-0.03-0.27-0.06-0.55-0.08-0.82c-0.01-0.09-0.01-0.17-0.02-0.26c-0.03-0.27-0.06-0.55-0.1-0.82c-0.05-0.35-0.11-0.71-0.18-1.06
		c-0.05-0.25-0.1-0.5-0.15-0.75c-0.04-0.21-0.09-0.42-0.14-0.63c-0.1-0.38-0.2-0.77-0.31-1.15c-0.16-0.56-0.36-1.1-0.6-1.61
		c-0.36-0.78-0.83-1.45-1.38-2.04c-0.46-0.49-0.95-0.92-1.47-1.31c-0.52-0.38-1.06-0.71-1.62-1c-0.49-0.26-0.99-0.48-1.51-0.65
		c-0.46-0.16-0.92-0.29-1.4-0.36c-0.16-0.02-0.32-0.06-0.48-0.09c-0.05-0.01-0.1-0.01-0.15-0.02c-0.04-0.01-0.07-0.02-0.1-0.05
		c-0.05-0.04-0.04-0.1,0.01-0.14c0.02-0.01,0.04-0.02,0.06-0.02c0.04-0.01,0.08-0.01,0.12-0.02c0.32-0.02,0.64-0.05,0.96-0.12
		c0.26-0.06,0.53-0.12,0.79-0.19c0.2-0.05,0.39-0.12,0.59-0.19c0.16-0.06,0.32-0.11,0.47-0.18c0.28-0.12,0.55-0.23,0.82-0.36
		c0.22-0.1,0.45-0.22,0.66-0.34c0.24-0.13,0.48-0.27,0.71-0.43c0.3-0.2,0.6-0.42,0.88-0.64c0.48-0.37,0.92-0.79,1.31-1.29
		c0.35-0.43,0.64-0.91,0.89-1.44c0.22-0.47,0.4-0.95,0.56-1.45c0.13-0.4,0.24-0.81,0.34-1.23c0.1-0.42,0.2-0.84,0.3-1.27
		c0.06-0.29,0.11-0.59,0.16-0.89c0.04-0.22,0.07-0.44,0.11-0.66c0.04-0.28,0.07-0.57,0.1-0.85c0.02-0.18,0.03-0.35,0.05-0.53
		c0-0.04,0.01-0.09,0.02-0.13c0.01-0.04,0.04-0.08,0.06-0.11c0.06-0.06,0.13-0.04,0.16,0.04c0.02,0.04,0.03,0.09,0.03,0.13
		c0.02,0.22,0.03,0.45,0.05,0.67c0.03,0.35,0.05,0.71,0.09,1.06c0.02,0.2,0.06,0.41,0.08,0.61c0.02,0.19,0.04,0.38,0.08,0.57
		c0.01,0.05,0.02,0.1,0.02,0.14c0.02,0.17,0.04,0.34,0.09,0.5c0.01,0.05,0.02,0.1,0.03,0.14c0.02,0.11,0.05,0.23,0.07,0.34
		c0,0.02,0.01,0.03,0.01,0.05c0.05,0.22,0.09,0.43,0.15,0.64c0.05,0.19,0.11,0.37,0.16,0.55c0.04,0.13,0.09,0.26,0.13,0.4
		c0.09,0.29,0.2,0.57,0.32,0.84c0.12,0.26,0.24,0.51,0.36,0.76c0.15,0.29,0.32,0.57,0.51,0.83
		C836.21,724.4,836.32,724.54,836.43,724.69z" />
</svg>
