<?xml version="1.0" encoding="utf-8"?>
<!-- Generator: Adobe Illustrator 26.3.1, SVG Export Plug-In . SVG Version: 6.00 Build 0)  -->
<svg version="1.1" id="Sparkles" xmlns="http://www.w3.org/2000/svg" xmlns:xlink="http://www.w3.org/1999/xlink" x="0px"
	y="0px" viewBox="0 0 648 648" style="enable-background:new 0 0 648 648;" xml:space="preserve">
	<path class="textAccent" d="M340.03,472.73c2.56-8.45,10.51-16.17,16.08-18.92c4.9-2.41,15.39-5.86,20.78-6.75c1.01-0.17,3.1-0.6,4.05-0.25
	c1.5,0.55,4.21,2.79,4.76,4.29c0.89,2.43,0.81,7.95-0.17,10.34c-0.68,1.66-2.88,4.67-4.32,5.76c-2.52,1.89-8.53,4.07-11.36,5.45
	c-2.75,1.33-4.64,4.03-6.18,10.54c-0.4,1.65-0.31,3.96-0.86,4.84c-3.57,5.64-6.74,17.98-9.18,24.19
	c-1.62,4.13-5.89,12.43-7.77,16.45c-1.2,2.56-8.55,10.91-9.44,7.2c-0.15-0.62-0.01-2.9,0.13-3.86c0.25-1.86,0.27-5.62,0.32-7.49
	c0.1-3.32,0.52-9.93,0.62-13.24c0.04-1.51-0.02-4.54,0.02-6.06c0.1-3.53,0.67-10.58,0.79-14.11c0.05-1.51-0.05-4.54,0.02-6.05
	c0.06-1.6,0.42-4.8,0.58-6.39" />
	<path class="textMain" d="M338.19,491.04" />
	<path class="textMain" d="M116.78,448.61" />
	<path class="textAccent" d="M227.47,442.71c-0.02-0.79,0.17-2.68,0.4-3.96c1.65-17.8,1.74-35.69,3.02-53.51
	c1.05-14.57,7.46-25.98,21.82-31.17c3.74-1.35,6.52-0.78,8.9,2.45c1.96,2.66,3.59,5.65,4.87,8.71c2.15,5.14,3.86,10.46,5.87,15.66
	c0.66,1.71,1.54,3.41,2.66,4.86c1.55,2,3.59,2.02,4.86-0.16c1.15-1.97,2.06-4.32,2.21-6.57c0.25-3.81-0.13-7.66-0.33-11.49
	c-0.27-4.95-0.68-9.89-0.96-14.83c-0.22-3.97,1.47-7.22,4.92-8.94c4.85-2.41,9.86-4.69,15.03-6.22c5.4-1.58,8.15,0.67,8.18,6.33
	c0.04,7.06-0.4,14.12-0.85,21.61c-0.13,0.85-0.03,1.27,0.06,1.7c-0.2,5.49-0.4,10.98-0.82,16.9c-0.12,0.86-0.03,1.28,0.06,1.7
	c-0.36,9.43-0.71,18.85-1.38,28.71c-3.56,6.83-6.78,13.24-10.06,19.63c-3.25,6.33-7.29,12.03-13.13,16.3
	c-0.65,0.47-1.02,1.33-1.52,2.01c-3.51,1.07-6.23-0.48-8-3.19c-1.87-2.86-3.53-6-4.54-9.25c-2.01-6.49-3.48-13.14-5.25-19.7
	c-0.67-2.5-1.48-4.98-2.41-7.39c-0.48-1.24-1.22-2.47-2.12-3.44c-1.98-2.13-4.65-1.72-5.57,1.01c-0.74,2.18-1.26,4.62-1.12,6.9
	c0.46,8.14,1.16,16.27,1.93,24.38c0.32,3.44,1.18,6.83,1.53,10.28c0.4,4-1.28,7.59-5.43,9.74c-6.12-2.15-10.24-6.42-14.25-10.99
	C233.32,447.66,230.26,445.76,227.47,442.71z" />
	<path class="textMain" d="M610.91,162.47c1.23,4.65,2.68,10.53,3.97,15.16c0.49,1.78,1.07,3.56,1.81,5.25c0.68,1.54,1.33,3.56,3.49,3.29
	c2.15-0.28,2.3-2.45,2.59-4.07c0.37-2.05,0.51-4.19,0.44-6.28c-0.24-6.55-0.56-14.01-0.49-20.91c0.77-0.36,1.08,0.59,1.44,0.5
	c7.92-2.02,14.64-0.06,20.23,5.94c0.89,0.95,2.21,0.64,3.3,1.4c-0.3,9.91-0.62,20.72-0.99,30.64c-0.43,11.53-0.92,23.05-1.46,34.57
	c-0.32,6.93-0.55,13.89-1.31,20.78c-0.36,3.25-1.36,6.63-2.91,9.52c-4.69,8.75-17.93,9.41-23.86,1.39
	c-3.16-4.28-4.89-9.24-5.93-14.34c-1.92-9.47-3.42-19.02-5.21-28.52c-0.93-4.99-1.99-9.97-3.23-14.88
	c-0.44-1.75-1.44-3.43-2.46-4.95c-0.47-0.7-1.68-1.41-2.41-1.28c-0.66,0.12-1.46,1.3-1.62,2.12c-0.44,2.3-0.89,4.67-0.78,6.99
	c0.53,10.77,1.22,21.53,1.91,32.29c0.18,2.84,0.66,5.67,0.89,8.51c0.42,5.35-2.24,8.23-7.61,8.19c-4.54-0.03-8.85-1.2-12.9-3.18
	c-3.31-1.61-5.45-4.32-6.03-8c-0.36-2.31-0.64-4.69-0.51-7.02c0.93-16.59,2.29-35.12,3.71-52.01c7.3-1.29,13.28-2.05,18.84-5.98
	C599.89,173.34,605.15,167.14,610.91,162.47z" />
	<path class="textAccent" d="M202.3,297.83c-1.33-6.92-3.25-13.79-3.86-20.77c-0.89-10.35-1.19-20.8-1.09-31.19
	c0.05-5.13,1.22-10.33,2.49-15.34c1.06-4.16,3.29-7.84,8.18-8.68c5.32-0.92,9.78,0.82,12.61,5.25c2.37,3.7,4.36,7.81,5.74,11.99
	c3.19,9.71,4.13,19.88,5.15,30c0.46,4.57,0.91,9.14,1.5,13.68c0.23,1.78,0.83,3.51,1.28,5.32c2.79-0.46,3.39-2.4,3.84-4.08
	c1.42-5.38,2.79-10.8,3.86-16.26c2.57-13.27,4.54-26.69,9.05-39.47c2.08-5.91,4.98-11.59,7.96-17.14c2.07-3.85,5.29-6.92,9.25-8.92
	c1.84-0.93,3.91-1.7,5.95-1.92c4.56-0.51,7.17,1.91,6.99,6.46c-1.45,36.2-9.25,70.72-27.31,102.5c-1.46,2.58-3.23,5-5.38,7.63
	c-4.04,0.36-7.37-0.22-10.69-1.46c-6.34-2.37-11.18-6.8-15.82-11.41C216.42,298.46,210.28,295.36,202.3,297.83z" />
	<path class="textAccent" d="M283.55,304.46c-2.38-5.07-2.74-10.58-2.69-15.99c0.16-17.23,0.44-34.45,1.11-51.66
	c0.31-8.03,1.34-16.05,2.56-24c1.42-9.29,5.3-17.29,13.9-22.2c8.46-4.84,17.39-8.47,27.09-9.83c3.28-0.46,6.7-0.67,9.97-0.27
	c5.09,0.62,6.82,3.05,6.45,8.13c-0.23,3.21-0.57,6.42-1.07,9.59c-1.61,10.18-7.47,16.76-17.25,19.88c-3.18,1.02-6.43,1.85-9.6,2.91
	c-3.57,1.2-5.87,4.5-5.91,8.18c-0.02,2.61,1.06,3.85,3.6,3.41c2.54-0.44,5.01-1.33,7.46-2.17c2.81-0.96,5.5-2.29,8.35-3.09
	c3.87-1.08,5.72,0.25,6.01,4.22c0.35,4.85-0.06,9.65-1.51,14.34c-1.33,4.27-3.93,7.45-8.06,9.19c-3.42,1.44-6.92,2.7-10.4,4
	c-4.18,1.56-6.73,5.87-6.03,10.28c0.48,3.03,2.22,4.11,5.01,2.71c3.43-1.72,6.7-3.75,10.3-5.38c-0.72,4.84-1.8,9.4-2.65,14
	c-1.23,6.58-2.5,13.12-5.9,19.02c-0.42,0.73-0.58,1.6-0.86,2.41c-2.43,1.09-4.86,2.18-7.81,3.13c-1.97-0.76-3.48-1.31-4.88-2.03
	c-3.7-1.92-7.37-2.03-11.24-0.36C287.66,303.7,285.55,303.95,283.55,304.46z" />
	<path class="textAccent" d="M163.35,175.53c-0.28-4.33-0.73-8.65-0.82-12.98c-0.37-17.61-0.71-35.21-0.92-52.82
	c-0.12-10.62,2.96-14.41,13.28-17.03c9.45-2.4,13.07,0.22,13.32,9.99c0.37,14.13,0.51,28.27,0.85,42.4c0.1,3.84,0.46,7.67,0.82,11.5
	c0.14,1.6,0.36,3.25,0.95,4.72c0.4,1.01,1.44,2.27,2.35,2.41c0.97,0.14,2.53-0.63,3.1-1.49c0.93-1.39,1.61-3.13,1.8-4.8
	c0.64-5.53,1.32-11.09,1.43-16.66c0.25-12.77,0.17-25.55,0.24-38.31c0.01-2.11,0.05-4.21,0.2-6.31c0.46-6.4,3.91-10.58,9.85-12.68
	c2.56-0.91,5.2-1.69,7.88-2.12c4.36-0.7,6.9,1.13,7.85,5.41c0.38,1.69,0.6,3.44,0.62,5.16c0.21,23.56,0.7,47.13-1.42,70.64
	c-0.7,7.75-2.24,15.44-3.7,23.09c-0.55,2.88-1.96,5.6-3.43,8.51c-2.58-1.87-4.87-3.72-6.82-5.88c-3.62-4.02-6.89-8.37-10.59-12.3
	c-2.92-3.1-6.62-5.26-11-5.53c-4.43-0.28-8.85-0.27-13.17,1.21C171.83,173.06,167.57,174.24,163.35,175.53z" />
	<path class="textAccent" d="M343.5,230.62c0.65-13.12,0.69-26.3,2.11-39.33c1.49-13.65,8.5-24.15,21.36-30.11
	c4.72-2.18,7.75-1.58,10.48,2.87c2.12,3.44,3.72,7.27,5.18,11.07c1.78,4.62,3.13,9.4,4.75,14.08c0.48,1.39,1.14,2.76,1.92,4.01
	c1.97,3.17,4.57,3.21,6.02-0.27c1.21-2.9,1.97-6.18,2.05-9.32c0.13-4.69-0.55-9.39-0.81-14.09c-0.2-3.71-0.27-7.43-0.39-11.15
	c-0.13-3.93,1.52-6.98,4.74-9.14c4.92-3.28,10.39-5.28,16.21-6.14c4.24-0.63,6.59,1.31,7.26,5.53c0.23,1.46,0.37,2.97,0.28,4.44
	c-0.84,14.48-1.73,28.95-2.94,43.76c-1.42,1.48-2.75,2.49-3.55,3.81c-4.73,7.81-9.41,15.65-13.98,23.56
	c-3.25,5.63-7.31,10.38-13.77,12.18c-3.53,0.98-7.25,1.26-10.88,1.86c-0.96-3.92-1.81-7.86-2.92-11.73
	c-0.54-1.88-1.31-3.77-2.41-5.38c-0.66-0.98-2.26-2.11-3.2-1.93c-1.17,0.22-2.77,1.59-2.99,2.7c-0.71,3.48-0.87,7.07-1.23,10.62
	c-0.06,0.61-0.02,1.23-0.32,2.18c-3.33-1.04-6.34-2.44-9.36-3.78c-3.21-1.43-6.48-2.29-10.01-1.04
	C345.94,230.29,344.69,230.39,343.5,230.62z" />
	<path class="textAccent" d="M287.33,581.11c-6.93,0.34-12.14-2.8-16.19-8.15c-3.44-4.54-5.43-9.79-6.23-15.36
	c-3.33-23.18-0.4-45.3,12.53-65.28c7.53-11.63,18.37-18.99,32.17-21.43c7.92-1.4,14.07,1.59,18.23,8.52
	c3.53,5.87,4.89,12.41,5.63,19.09c1.22,11.15,0.71,22.4-0.86,33.49c-0.31,2.15-1.16,4.19-1.77,6.66
	c-7.08,1.92-13.28,0.42-19.46-2.09c-0.11-0.05-0.24-0.07-0.36-0.1c-5.19-1.61-8.64-0.29-11.23,4.42
	c-3.12,5.68-5.07,11.78-6.54,18.08C291.53,566.41,290.65,574.09,287.33,581.11z M302.55,535.15c7.57-5.71,8.64-13.81,7.82-22.35
	c-0.47-5.03-3.96-6.9-8.86-5.4c-5.07,1.56-8.95,4.71-11.77,9.16c-2.82,4.44-3.36,9.28-2.18,14.3c1.33,5.62,5.82,8.09,11.34,6.3
	C300.04,536.81,301.06,536.08,302.55,535.15z" />
	<path class="textMain" d="M496.37,319.97c0.02,2.6,0.13,5.19,0.04,7.78c-0.45,13.13-0.94,26.26-1.42,39.38
	c-0.18,4.99-0.93,9.86-2.94,14.48c-3.61,8.32-12.99,13.82-21.99,12.8c-4.25-0.48-7.48-2.86-9.59-6.36
	c-2.16-3.59-3.75-7.51-5.6-11.29c-0.79-1.61-0.63-4.34-2.49-4.98c-2.5-0.85-2.59,3.13-3.29,4.75c-2.04,4.64-3.64,9.52-6.09,13.92
	c-4.77,8.6-12.45,12.46-22.21,12.17c-5.5-0.17-9.56-2.76-11.4-7.99c-1.05-2.99-1.91-6.28-1.83-9.4c0.44-17.59,1.52-38.08,2.59-55.97
	c4.04-0.56,6.92,3.42,9.78,5.6c2.64,2.03,5.3,4.03,7.92,6.08c6.33,4.95,12.71,9.79,20.38,12.58c3.8,1.38,7.57,1.97,11.57,0.82
	c4.76-1.37,8.97-3.75,12.25-7.31c6.11-6.59,11.86-13.53,17.82-20.27C491.92,324.43,494.19,322.24,496.37,319.97z" />
	<path class="textAccent" d="M496.45,320.62c-2.26,2.58-4.53,3.8-6.61,6.16c-5.96,6.74-11.71,13.67-17.82,20.27
	c-3.29,3.55-7.5,5.95-12.25,7.31c-4.01,1.15-7.77,0.55-11.57-0.82c-7.67-2.78-14.05-7.63-20.38-12.58
	c-2.62-2.05-5.27-4.05-7.92-6.08c-2.86-2.19-6.06-2.29-10-2.03c0.12-10.26,0.36-21.52,1.06-31.77c0.44-6.38,4.09-10.82,10.11-13.04
	c2.65-0.97,5.45-1.86,8.24-2.09c7.78-0.65,12.57,4.21,11.91,11.99c-0.25,2.94-0.92,5.88-1.79,8.71c-1.45,4.73-3.29,9.35-4.81,14.07
	c-0.79,2.46-1.46,5.01-1.81,7.57c-0.36,2.56,0.79,4.17,2.73,4.62c2.26,0.52,3.55-0.71,4.35-2.56c1.04-2.38,1.94-4.83,2.93-7.24
	c0.89-2.18,1.68-4.42,2.79-6.48c2.93-5.47,9.77-6.33,13.92-1.66c1.44,1.62,2.33,3.77,3.31,5.75c0.66,1.32,0.89,2.87,1.59,4.16
	c0.47,0.86,1.16,2.24,2.19,2.15c1.05-0.09,1.63-1.6,1.84-2.54c0.43-1.92,0.68-3.93,0.56-5.89c-0.47-8.17-1.12-16.32-1.64-24.48
	c-0.12-1.85-0.13-3.72-0.02-5.57c0.34-5.49,3.24-9.29,8.13-11.52c4.83-2.21,9.97-2.94,15.25-2.45c3.73,0.35,5.98,2.15,6.79,5.82
	c0.52,2.39,0.67,4.92,0.57,7.37C497.68,298.3,497.08,309.79,496.45,320.62z" />
	<path class="textAccent" d="M133.05,306.53c-0.01-4.33-0.17-8.68,0.01-13c0.51-12.39,1.01-24.78,1.8-37.15c0.24-3.67,1.22-7.34,2.22-10.9
	c1.79-6.36,5.99-10.43,12.45-12.06c10.48-2.64,21.05-3.31,31.71-1.24c1.33,0.26,2.66,0.63,3.93,1.1c5.72,2.11,7.62,4.9,7.26,10.99
	c-0.2,3.33-0.48,6.7-1.15,9.96c-1.91,9.34-6.84,13.62-16.37,14.37c-3.09,0.25-6.21,0.1-9.29,0.31c-3.63,0.24-5.67,2.28-6.1,5.82
	c-0.36,2.98,0.89,4.97,3.9,5.18c2.94,0.21,5.92-0.17,8.87-0.4c2.34-0.17,4.68-0.7,7.02-0.71c3.47-0.03,5.16,1.29,5.68,4.65
	c0.84,5.47,0.42,10.89-1.67,16.09c-1.26,3.12-3.7,5-6.93,5.61c-3.52,0.67-7.1,1.09-10.67,1.52c-5.04,0.6-7.92,6.99-5.07,11.24
	c1.22,1.81,2.91,1.79,4.62,1.27c3.55-1.08,7.07-2.31,10.85-3.25c-2.89,4.92-7.39,8.07-12.52,9.84c-6.25,2.15-12.52,1.65-17.65-3.19
	c-2.33-2.19-4.46-4.62-6.46-7.12C137.22,312.6,135.19,309.52,133.05,306.53z" />
	<path class="textAccent" d="M494.17,481.68c-3.73-2.26-6.4-5.51-8.13-9.43c-3.95-8.95-4.79-18.26-1.73-27.58
	c7.12-21.69,32.79-27.92,49.7-12.25c7.32,6.78,10.37,15.2,9.82,25.05c-0.25,4.56-3.53,8.73-7.75,9.86
	c-5.04,1.36-9.91-0.17-12.48-4.24c-1.44-2.29-2.37-4.9-3.66-7.3c-1.46-2.72-3.54-3.55-6.14-2.56c-0.56,0.21-1.12,0.55-1.56,0.96
	c-2.55,2.45-2.49,8.83,0.22,11.13c1.59,1.35,3.46,2.39,5.22,3.55c3.52,2.3,7.2,4.41,10.57,6.92c8.59,6.39,13.6,14.99,14.91,25.62
	c0.87,7.08,0.49,14.12-1.52,21.01c-1.2,4.09-3.65,8.2-7.26,11.37c-1.56,0.46-1.99,0.4-3.02,0.8c-3.35,1.3-6.45,0.58-8.99-1.65
	c-6.4-5.61-11.42-12.7-12.75-20.94c3.14,0.07,5.98-3.59,6.7-6.17c0.56-2.01,0.96-4.11,1.12-6.19c0.44-5.64-0.67-7.4-5.9-9.78
	c-1.8-0.82-3.65-1.54-5.71-2.7c-0.47-0.97-0.63-1.58-0.97-2.07C502.18,481.19,498.21,481.31,494.17,481.68z" />
	<path class="textAccent" d="M121.6,455.45c-0.55-19.21,1.58-37.93,11.01-55.09c6.86-12.49,17.56-19.58,31.85-21.01
	c10.88-1.09,18.82,3.68,22.81,13.91c2.11,5.38,3.29,10.91,1.23,16.68c-2.31,6.48-9.36,10.95-16.13,10.1
	c-2.52-0.32-3.5-1.33-3.98-4.12c-1.1-6.37-2.55-7.39-8.95-6.29c-8.72,1.49-12.17,4.84-12.9,13.67c-0.58,6.9-0.68,13.87-0.51,20.8
	c0.08,3.14,0.99,6.38,2.13,9.34c1.57,4.08,4.09,5.29,8.28,4.29c2.5-0.59,4.96-1.56,7.27-2.72c1.09-0.55,2.1-1.82,2.54-2.99
	c0.89-2.37-0.4-3.78-2.93-3.58c-1.35,0.11-2.72,0.36-4.07,0.32c-4.05-0.13-6.45-2.23-6.31-6.21c0.11-3.17,0.76-6.39,1.68-9.44
	c0.96-3.19,3.5-5.1,6.79-5.68c7.44-1.33,14.88-2.64,22.35-3.78c3.89-0.59,6.33,1.2,6.58,5.22c0.25,3.93-0.28,7.9-0.81,12.17
	c-2.46,1.8-4.6,3.24-6.67,4.76c-7.55,5.52-14.76,11.58-22.7,16.46c-11.6,7.12-24.23,6.46-34.56-3.64
	C124.37,457.44,122.93,456.5,121.6,455.45z" />
	<path class="textMain" d="M571.15,184.23c0,14.2-1.36,29.25-7.1,42.45c-3.33,7.68-8.48,13.76-16.96,16.04
	c-11.35,3.06-26.62,1.12-34.85-14.34c-3.86-7.24-5.4-16.01-6.26-24.07c-1.33-12.3-0.26-24.83,2.31-37.25
	c1.51-1.23,2.37-0.82,3.41-1.84c3.18-3.09,6.2-6.35,9.48-9.33c4.19-3.79,10.18-4.95,13.6-2.4c3.59,2.69,6.89,6.21,7.58,10.85
	c-7.84-0.4-12.97,5.01-14.11,10.78c-0.93,4.66-0.95,9.47,1.12,13.85c1.07,2.26,2.75,4.47,4.69,6.01c3.78,2.96,8.65,2.2,11.48-1.69
	c1.41-1.95,2.47-4.35,3-6.69c0.76-3.36,1.32-7.73,1.52-11.18c0.8,0.48,1.41,1.81,1.92,2.34
	C557.21,183.16,563.53,184.92,571.15,184.23z" />
	<path class="textMain" d="M446.13,446.98c0.06,2.72,0.14,7.36,0.15,10.08c0.04,9.65,0,19.31,0.12,28.96c0.03,2.71,0.44,5.42,0.85,8.11
	c0.26,1.72,0.75,3.64,2.95,3.7c2.24,0.06,3.31-1.67,3.67-3.56c0.69-3.64,1.33-7.31,1.58-11c0.57-8.26,1.21-18.49,2.05-26.99
	c1.44,3.64,3.38,7.84,4.46,11.68c1.26,4.48,2.27,9.07,4.03,13.35c2.03,4.96,4.33,8.01,9.5,6.78c1.55-0.37,3.4-2.11,4.94-2.51
	c-0.11,3.94,0.07,7.92-0.4,11.83c-0.92,7.62-2.4,16.51-3.73,24.07c-0.47,2.64-1.54,5.23-2.65,7.7c-2.69,6.01-7.31,9.93-13.66,11.68
	c-6.87,1.9-13.87,2.64-20.99,1.97c-6.06-0.57-10.81-3.44-12.97-9.14c-1.83-4.81-3.49-9.94-3.85-15.02
	c-0.89-12.85-1.01-25.74-1.08-39.04c0.72-1.04,1.15-1.65,1.46-2.31c2.75-5.67,5.26-11.47,8.3-16.99
	C434.18,454.34,439.29,448.45,446.13,446.98z" />
	<path class="textMain" d="M59.33,451.8c2.15,2.33,3.29,5.78,3.12,8.79c-0.36,6.55-0.67,13.13-1.51,19.62
	c-1.14,8.85-5.76,12.91-14.64,13.24c-10.76,0.39-21.23-1.45-31.47-4.62C8,486.72,3.6,482.09,2.21,475.02
	c-0.85-4.36-1.65-8.8-1.76-13.23c-0.5-21.82,0.34-44.44,3.21-66.42c6.78-0.82,11.64,2.46,15.41,7.43c2.53,3.33,5.28,6.68,6.96,10.46
	c3.81,8.57,7.2,17.34,10.39,26.16c2.37,6.55,5.91,11.92,12.26,15.11C52.76,456.55,55.96,455.25,59.33,451.8z M36.78,474.87
	c5.73-2.75,3.4-16.26-4.24-18.37c-2.52-0.7-4.92,0.13-5.72,2.72c-0.8,2.64-1.36,5.6-1,8.28c0.44,3.16,2.07,5.86,5.1,7.08
	C33.41,475.58,35.35,475.56,36.78,474.87z" />
	<path class="textMain" d="M430.41,93.77c-0.06,8.76-1.55,17.24-5.14,25.27c-3.4,7.59-9.12,12.91-16.66,16.2
	c-10.85,4.73-22.3,7.46-33.88,9.54c-6.35,1.14-10.34-1.47-12.06-7.68c-1.08-3.91-1.78-8-2.05-12.05
	c-0.46-7.04-0.44-14.11-0.22-21.44c1.28-1.08,2.28-1.8,3.05-2.7c6.6-7.81,12.7-16.1,20.45-22.87c5.88-5.14,12.07-9.74,20.3-10.56
	c10.25-1.02,16.55,2.94,19.56,10.71c1.6,4.14,2.91,8.39,4.47,12.55C428.64,91.89,428.52,93.61,430.41,93.77z M386.31,105.36
	c1.66,1.93,3.63,1.23,5.43,0.44c5.72-2.51,9.72-6.75,11.72-12.67c2.76-8.15-3.55-16.3-12.19-15.91c-3.11,0.13-5,1.36-5.5,4.47
	C384.53,89.38,384.12,97.13,386.31,105.36z" />
	<path class="textAccent" d="M95.08,149.8c-1.61-6.31-2.02-16.54-0.12-23.53c2.64-9.67,9.36-15.9,17.87-20.29c8.05-4.16,16.7-5.5,25.61-3.22
	c9.18,2.35,16.01,7.78,19.65,16.65c2.98,7.26,1.98,14.21-3.36,20.06c-1.75,1.92-4.31,3.38-6.77,4.32c-5.18,1.99-8.82,0.46-11.6-4.31
	c-0.81-1.39-1.43-2.88-2.25-4.27c-2.26-3.83-7.17-3.92-9.12,0.13c-2.29,4.75-2.88,10.5,3.79,12.85c4.08,1.44,8.12,3.02,12.11,4.72
	c10.77,4.57,17.41,13.22,18.41,25.53c-3.05,1.78-5.76,2.44-8.57,3.68c-5.86,2.56-12.04,6.67-18.64,3.72
	c0.27-1.23,0.25-3.49,0.25-4.59c-0.04-4.11-1.17-5.79-5.03-7.09c-1.97-0.66-5.08-1.73-7.4-2.63c-3.44-5.38-5.38-9.83-8.68-14.72
	c0,0-6.95-1.18-14.07-8.83C96.46,147.96,95.77,150.06,95.08,149.8z" />
	<path class="textAccent" d="M343.33,401.61c0.67-3.26,2.19-8.45,2.61-11.74c0.47-3.66-0.81-5-4.56-5.09c-2.47-0.06-4.95,0.23-7.43,0.26
	c-2.84,0.03-5.72,0.17-8.53-0.13c-7.35-0.79-11.78-4.66-13.43-11.87c-1.58-6.89-1.61-13.88,0.89-20.53
	c6.09-16.17,17.15-27.69,33.37-33.81c3.49-1.31,7.53-1.77,11.29-1.66c11.3,0.34,18.82,10.39,16.18,21.37
	c-1.83,7.61-6.39,13.06-13.79,15.88c-4.12,1.57-6.44,0.66-8.75-3.12c-0.2-0.32-0.37-0.64-0.56-0.97c-2.41-4.1-4.31-4.44-7.85-1.31
	c-2.97,2.63-3.59,6.16-3.26,9.84c0.07,0.83,1.2,1.85,2.08,2.26c1.2,0.55,2.63,0.65,3.97,0.82c3.69,0.47,7.43,0.66,11.06,1.38
	c9.54,1.89,14.05,8.11,15.18,18.14c-0.82,1.15-1.37,0.65-1.88,1.47c-2.01,3.21-3.7,6.68-6.07,9.6c-3.12,3.86-7.05,6.87-12.29,7.3
	C349.06,399.9,345.86,401.63,343.33,401.61z" />
	<path class="textAccent" d="M434.31,104.29c-0.09-0.61-0.26-1.22-0.26-1.84c0.22-17.34,0.35-34.69,0.79-52.03
	c0.1-3.91,1.08-7.84,2.09-11.66c1.49-5.68,5.38-9.16,11.11-10.25c11.31-2.15,22.46-1.5,33.26,2.68c1.71,0.66,3.33,1.64,4.88,2.66
	c2.65,1.77,4.19,4.21,3.86,7.53c-0.33,3.32-0.43,6.7-1.19,9.92c-1.12,4.74-4.46,7.43-9.35,7.6c-3.7,0.13-7.41-0.25-11.11-0.43
	c-1.48-0.07-2.97-0.34-4.44-0.3c-2.53,0.08-4.15,1.62-4.54,4.07c-0.4,2.5,0.61,4.32,3.34,4.93c2.51,0.56,5.14,0.6,7.73,0.81
	c2.71,0.21,5.47,0.1,8.13,0.57c3.39,0.59,5.1,2.37,5.27,5.78c0.17,3.44,0.09,6.96-0.51,10.33c-0.87,4.84-3.31,6.69-8.27,6.86
	c-2.84,0.09-5.7-0.12-8.54-0.21c-5.57-0.19-8.4,4.31-5.8,9.33c0.42,0.81,1.2,1.42,2.05,2.45c-2.63,1.89-5.4,3.66-8.37,5
	c-6.13,2.77-11.93,2.03-17.28-2.12C436.27,105.28,435.24,104.84,434.31,104.29z" />
	<path class="textMain" d="M126.03,291.83c-1.54,4.55-5.21,7.85-9.3,9.85c-4.54,2.21-4.84,2.83-2.04,7.15c2.69,4.16,5.68,8.13,8.45,12.25
	c1.45,2.16,2.73,4.43,4,6.7c3.67,6.59,3.3,13.59,1.9,20.65c-0.61,3.05-2.55,5.26-5.55,5.92c-3.85,0.85-7.79,1.43-11.72,1.73
	c-2.63,0.21-4.9-1.24-6.21-3.5c-1.6-2.77-3.25-5.64-4.08-8.69c-2.01-7.28-3.52-14.69-5.31-22.04c-0.52-2.16-1.13-4.34-2.02-6.36
	c-0.53-1.2-1.69-2.13-2.56-3.18c-0.36,0.09-0.71,0.17-1.07,0.25c-0.41,1.6-1.12,3.19-1.18,4.8c-0.17,5.07-0.15,10.16-0.12,15.25
	c0.03,4.96,0.25,9.92,0.24,14.88c-0.02,4.22-1.97,6.73-6.07,7.76c-4.31,1.08-8.61,0.78-12.81-0.73c-2.91-1.04-4.87-3.12-5.53-6.06
	c-0.56-2.51-0.88-5.15-0.85-7.72c0.13-12.15,0.74-28.51,1.32-41.01c2.47-1.33,4.32,2.02,6.36,0.91c8.98-4.9,17.41-10.9,27.25-14.06
	c3.59-1.16,7.46-2.15,11.17-2.04c4.89,0.13,9.25,2.36,12.64,6.17C123.66,291.51,125.05,291.25,126.03,291.83z" />
	<path class="textAccent" d="M579.56,345.99c0.19-7.43,0.32-14.86,0.59-22.28c0.33-9.04,0.7-18.08,1.23-27.11
	c0.55-9.44,4.51-12.02,13.52-9.06c8.78,2.9,12.78,8.49,12.36,17.96c-0.27,5.94-1.05,11.85-1.58,17.77
	c-0.28,3.06,0.19,5.95,2.18,8.41c0.46,0.57,1.01,1.11,1.58,1.55c3.32,2.54,5.25,2.07,6.04-1.99c0.9-4.6,1.05-9.34,1.74-13.98
	c0.56-3.77,1.01-7.65,2.29-11.19c1.89-5.27,5.83-8.04,10.28-7.62c5.58,0.55,10.52,2.67,12.52,8.39c1,2.85,1.35,6.14,1.3,9.19
	c-0.43,27.14-1.01,54.8-1.84,82.18c-0.62-0.56-1.48-2.49-1.82-3.64c-2.41-8.17-4.67-16.39-7.15-24.53
	c-2.26-7.43-4.14-15.02-8.41-21.71c-3.56-5.58-8.56-8.74-15.18-8.11c-5.49,0.52-10.9,1.86-16.33,2.93
	C588.43,344.02,584.01,345.03,579.56,345.99z" />
	<path class="textMain" d="M579.59,345.23c4.54-1.3,8.84-1.21,13.3-2.09c5.43-1.07,10.85-2.41,16.33-2.93c6.61-0.63,11.61,2.53,15.18,8.11
	c4.27,6.68,6.15,14.27,8.41,21.71c2.48,8.15,5.22,16.24,7.15,24.53c0.25,1.04,1.14,1.31,1.87,2.49c0.1,4.14,0.21,9.15-0.35,13.15
	c-0.63,4.44-3.43,6.18-8,5.81c-9.69-0.79-16.28-7.89-16.88-18.46c-0.27-4.82,0.04-9.67-0.28-14.49c-0.29-4.43-0.82-8.88-1.7-13.23
	c-0.74-3.65-2.51-4.79-5.99-4.98c-2.8-0.15-4.7,1.1-4.87,3.9c-0.19,3.18,0.03,6.42,0.37,9.61c0.51,4.8,1.48,9.55,1.86,14.35
	c0.2,2.53-0.12,5.22-0.81,7.68c-0.91,3.26-3.37,5.09-6.84,5.35c-4.97,0.38-9.63-0.72-13.92-3.17c-4.48-2.56-5.92-6.88-5.91-11.68
	c0.01-9.29,0.22-18.58,0.4-27.86C578.99,357.56,579.32,351.01,579.59,345.23z" />
	<path class="textAccent" d="M125.9,292.22c-1.04-0.32-2.24-0.71-2.96-1.53c-3.39-3.82-7.75-6.04-12.64-6.17c-3.71-0.1-7.58,0.89-11.17,2.04
	c-9.84,3.16-18.27,9.15-27.25,14.06c-2.03,1.11-4.21,1.96-6.59,2.94c-0.26-12.25-0.28-24.52-0.23-36.79c0.02-4.33,0.2-8.67,0.39-13
	c0.06-1.35,0.34-2.71,0.63-4.03c2.54-11.44,9.4-16.81,21.03-15.91c9.83,0.75,19.38,3.05,28.06,7.87c3.42,1.9,6.63,4.37,9.45,7.09
	c4.07,3.93,6.06,9.07,6.29,14.71c0.32,7.83-0.24,15.62-2.56,23.17C127.8,288.52,126.77,290.2,125.9,292.22z M94.96,276.95
	c4.49,1.68,8.57,0.97,10.47-1.8c2.46-3.62,1.16-12.4-2.24-15.18c-3.7-3.02-10.09-2.3-11.05,1.6
	C90.85,266.76,90.48,272.12,94.96,276.95z" />
	<path class="textAccent" d="M238.17,196.85c-0.95,0.26-1.89,0.63-2.87,0.77c-3.54,0.53-5.62-0.69-6.12-4.27c-1.08-7.66-1.1-15.37,1.2-22.83
	c0.53-1.73,1.99-3.51,3.51-4.52c1.88-1.23,2.35-2.63,2.3-4.62c-0.09-3.72-0.14-7.44-0.09-11.16c0.17-12.4,0.4-24.79,0.61-37.19
	c0.02-1.47,0-2.94,0-4.38c-5.14-0.61-6.87-1.76-7.44-6.78c-0.59-5.12-0.5-10.37-0.17-15.53c0.28-4.21,2.92-7.34,6.51-9.45
	c7-4.12,14.56-6.9,22.42-8.78c4.6-1.09,7.52,0.94,8.37,5.57c1.04,5.66,0.89,11.37-0.19,17.02c-0.65,3.39-2.61,5.72-5.89,7.11
	c-4.05,1.73-3.93,2.15-3.78,6.5c0.58,15.73,0.99,31.47,1.46,47.2c0.04,1.36,0.23,3.5,0.33,5.49c-1.18,3.83-2.68,6.22-3.77,9.48
	c-2.24,6.67-4.38,13.36-6.47,20.07c-1.23,3.95-4.06,6.36-7.43,8.36C239.79,195.43,239.01,196.19,238.17,196.85z" />
	<path class="textAccent" d="M268.97,154.41c-0.13-2.6-0.4-7.12-0.36-9.72c0.28-19.08,0.45-38.16,1.05-57.23c0.15-4.88,1.43-9.79,2.7-14.56
	c1.51-5.67,5.2-10.01,10.55-12.32c5.54-2.38,11.4-4.05,17.15-5.94c1.03-0.34,2.21-0.3,3.32-0.32c8.42-0.13,12.98,4.33,12.76,12.8
	c-0.08,2.94-0.58,5.93-1.34,8.78c-1.27,4.73-4.28,7.82-9.12,9.41c-10.89,3.59-13.31,6.79-13.78,18.3
	c-0.29,7.17-0.17,14.37-0.13,21.56c0.01,1.84,0.31,3.71,0.73,5.51c0.87,3.71,2.6,4.62,6.77,5.23c-0.55,5.96-3.04,11.11-6.01,15.81
	c-3.02,4.78-6.36,7.44-13.09,5.38C276.32,155.94,272.69,155.98,268.97,154.41z" />
	<path class="textAccent" d="M72.97,578.04c0.23-11.53,1.04-23.46,3.87-34.7c0.6-2.38,1.51-4.73,2.53-6.97c2.56-5.64,6.89-9.34,12.91-10.84
	c7.77-1.93,15.69-2.3,23.62-1.35c6.97,0.83,11.79,4.77,13.6,11.49c1.47,5.46,2.68,11.14,2.9,16.77c0.48,12.86,0.28,25.75-0.06,38.97
	c-7.48,0.55-13.74-1.99-19.53-5.72c-4.46-2.86-8.56-6.26-12.95-9.22c-6.48-4.37-13.42-5.33-20.69-2.03
	C77.07,575.41,75.03,576.99,72.97,578.04z M98.36,558.45c3.63,3.68,8.03,3.22,12.48,2.22c0.66-0.15,1.34-0.68,1.8-1.22
	c2.47-2.86,1.57-9.97-1.5-12.18c-3.06-2.2-8.91-2.27-11.59-0.15C96.74,549.35,96.1,553.87,98.36,558.45z" />
	<path class="textMain" d="M99.8,469.12c4.54-0.36,9.57-2.49,13.63-2.08c8.13,0.83,8.13,9.92,8.1,16.19c-0.01,1.91-0.03,3.84-0.59,5.66
	c-0.84,2.72-2.87,4.28-5.47,5.18c-7.12,2.45-14.75,3.21-22.24,3.27c-5.36,0.04-12.3,0.69-17.41-1.28
	c-7.81-3.02-9.67-12.8-10.31-20.16c-0.81-9.42,0.12-19.09,0.58-28.51c0.02-0.51,0.06-1.05,0.34-1.48c0.28-0.42,0.75-0.66,1.2-0.89
	c4.45-2.25,8.68-4.67,12.99-7.1c3.87-2.18,9.02-5.02,13.6-5.02c9.16-1.18,13.85,6.43,19.4,12.55c0.5,0.55,0.96,1.21,1.61,1.59
	c0.36,0.21,1.26,0.43,1.42,1.13c0.1,0.44,0.06-0.13,0,0c-0.14,0.33-0.1,0.71-0.12,1.08c-0.06,1.18-0.73,2.53-1.23,3.59
	c-0.5,1.02-1.15,1.98-2.01,2.72c-1.92,1.65-4.55,2.01-7,2.08c-0.13,0-0.26,0.01-0.39,0.01c-2.96,0.05-5.93-0.01-8.89-0.18
	c-2.28-0.13-3.82,0.68-4.95,3.26c-1.58,2.37-1.5,4.2,0.1,5.91C94.3,468.87,96.95,469.35,99.8,469.12z" />
	<path class="textMain" d="M35.11,296.94c-1.92,0.86-1.65,2.6-1.58,4.17c0.55,11,1.07,22.01,1.74,33.01c0.63,10.35-3.58,14.51-13.85,13.44
	c-1.1-0.12-2.2-0.36-3.28-0.62c-8.8-2.07-12.41-6.32-12.65-15.34c-0.15-5.95,0.08-11.89,0.08-17.84
	c0.01-19.94-0.02-39.88-0.02-59.83c0-1.61,0.49-5.34,0.74-7.42c2.72-1.87,4.63-1.41,7.14-2.63c5.75-2.79,11.31-1.84,14.17,4.69
	c0.59,1.35,1.07,2.78,1.44,4.2c1.53,5.93,1.5,11.99,1.58,18.05C30.75,279.76,31.46,288.61,35.11,296.94z" />
	<path class="textAccent" d="M430.49,95.09c-1.98,0.13-1.84-3.2-2.28-4.35c-1.56-4.16-2.87-8.41-4.47-12.55
	c-3.01-7.77-9.31-11.74-19.56-10.71c-8.22,0.82-14.42,5.42-20.3,10.56c-7.75,6.77-13.84,15.06-20.45,22.87
	c-0.77,0.9-1.96,3.29-3.1,4.12c-0.36-15.95-0.8-33.64,1.42-49.53c1.87-13.33,6.33-17.59,19.47-20.91
	c12.06-3.05,22.15,0.19,30.52,8.8C425.18,57.2,432.23,75.21,430.49,95.09z" />
	<path class="textMain" d="M132.24,184.75c6.77,2.72,12.63-0.08,18.49-2.65c2.82-1.23,5.53-2.73,8.53-4.2c1.69,8.63,0.74,17.15-1.92,25.51
	c-5.89,18.51-21.96,26.37-36.82,26.61c-8.49,0.13-15.02-3.59-19.86-10.4c-2.91-4.11-4.76-8.69-5.41-13.69
	c-0.88-6.72-0.41-13.37,1.71-19.81c1.52-4.6,4.58-7.58,9.71-7.9c4.46-0.28,7.68,1.58,9.48,5.7c0.64,1.46,1.03,3.04,1.47,4.59
	c0.51,1.79,0.88,3.61,1.4,5.39c0.58,1.95,1.37,3.84,3.72,4.15c2.43,0.32,4.35-0.75,5.79-2.64
	C130.89,192.33,131.53,188.66,132.24,184.75z" />
	<path class="textAccent" d="M96.76,432.79c-8.29,0.39-15.55,4.53-22.03,8.76c-2.75,1.8-5.35,3.81-8.3,5.73c-0.28-0.78-0.28-1.57-0.03-2.84
	c1.41-7.22,0.6-15.47,1.2-22.84c0.63-7.81,0.69-15.94,3.49-23.37c1.32-3.51,3.36-6.87,6.57-8.94c4.42-2.84,10.73-2.61,15.79-2.6
	c9.48,0.01,19.03,1.69,27.7,5.53c6.66,2.95,4.92,11.83,3.63,17.6c-1.5,6.67-5.14,12.18-12.44,12.57c-4.52,0.24-9.08-0.37-13.62-0.56
	c-4.08-0.17-7.05,3.19-5.74,6.86C93.49,430.14,95.79,431.24,96.76,432.79z" />
	<path class="textMain" d="M535.76,295.35c-0.27,1.94-0.48,4.71-0.98,6.59c-0.93,3.52-2.11,4.35-5.74,4.63c-3.28,0.25-3.52,0.51-3.54,3.79
	c-0.07,16.23-0.13,32.46-0.23,48.69c-0.02,2.48-0.1,4.63,3.22,5.26c1.03,0.2,2.31,2.03,2.49,3.27c1.03,6.9,1.08,13.82-0.78,20.62
	c-0.77,2.79-2.85,4.32-5.64,4.75c-6.93,1.08-13.85,0.44-20.69-0.74c-3.42-0.59-5.69-2.89-5.78-6.36
	c-0.14-5.67-0.16-11.38,0.43-17.01c0.52-5.03,1.4-5.6,6.09-7.5c0.09-0.66,0.25-1.39,0.28-2.11c0.81-16.58,1.6-33.15,2.39-49.73
	c0.02-0.49,0.18-2.26,0.1-3.06c2.41-1.62,4.69-1.56,6.82-2.95C520.74,299.2,527.78,295.33,535.76,295.35z" />
	<path class="textAccent"
		d="M59.64,452.14c-3.29,3.69-6.88,4.41-10.95,2.37c-6.36-3.19-9.9-8.56-12.26-15.11
	c-3.19-8.82-6.59-17.59-10.39-26.16c-1.68-3.78-4.43-7.12-6.96-10.46c-3.77-4.96-8.83-7.42-15.48-6.89
	c0.64-3.85,1.28-7.79,2.64-11.47c1.54-4.21,4.92-6.62,9.52-6.43c15.05,0.63,28.89,4.67,40.09,15.3c6.78,6.45,9.92,14.35,8.41,23.88
	c-1.37,8.66-6.1,14.44-14.28,17.46c-2.5,0.93-5,1.87-8.4,3.13c1.88,1.64,2.94,2.77,4.2,3.61c2.47,1.65,5.19,2.96,7.55,4.74
	C55.57,447.84,57.49,449.97,59.64,452.14z M39.07,404.99c-1.88-2.02-4.26-2.87-6.97-2.9c-1.91-0.02-3.4,0.71-3.94,2.68
	c-0.89,3.28-0.54,6.4,1.64,9.1c1.6,1.98,3.79,2.75,6.29,2.25c2.49-0.51,3.6-2.4,4.18-4.68C40.81,409.32,40.77,407.27,39.07,404.99z" />
	<path class="textAccent" d="M34.77,297.07c-3.96-8.45-4.02-17.3-4.15-26.23c-0.09-6.07-0.06-12.13-1.58-18.05
	c-0.37-1.43-0.85-2.85-1.44-4.2c-2.86-6.52-8.41-7.48-14.17-4.69c-2.51,1.22-4.74,3.02-7.33,4.56c-0.67-4.9,0.05-9.64,1.97-14.16
	c2.21-5.19,6.05-8.32,11.79-8.98c17.2-1.96,36.68,11.26,40.93,27.95c1.93,7.57,1.39,15.29,0.58,22.93
	c-0.41,3.91-1.27,7.85-2.54,11.57c-2.45,7.12-7.1,10.29-14.63,10.3C41.37,298.07,37.91,297.5,34.77,297.07z M33.4,263.96
	c-0.11,2.21,0.34,4.46,0.97,6.56c0.97,3.2,3.33,5.11,6.67,5.76c2.96,0.57,5.03-0.32,5.87-3.13c1.61-5.48,1.11-10.87-2.22-15.62
	c-2.51-3.59-7.38-3.28-9.57,0.53C34.22,259.61,33.52,261.48,33.4,263.96z" />
	<path class="textMain" d="M73.01,577.4c2.22-1.31,4.06-1.99,6.17-2.95c7.27-3.3,14.2-2.34,20.69,2.03c4.39,2.96,8.49,6.36,12.95,9.22
	c5.79,3.71,12.11,5.81,19.53,5.59c0.24,6.29,0.37,13.06-0.13,19.33c-0.4,5.13-3.12,7.84-8.17,8.76c-3.01,0.55-6.17,0.7-9.22,0.45
	c-4.28-0.35-6.54-2.58-6.99-6.87c-0.4-3.8-0.17-7.67-0.34-11.5c-0.13-2.72-0.25-5.45-0.77-8.11c-0.51-2.66-1.88-3.66-4.01-3.61
	c-2.26,0.06-3.92,1.2-4.28,3.4c-0.66,4.02-1.11,8.08-1.5,12.14c-0.23,2.34-0.03,4.73-0.32,7.05c-0.63,5.1-3.34,7.86-8.47,8.26
	c-2.93,0.22-5.97,0.07-8.87-0.44c-5.25-0.91-7.4-3.51-7.58-8.96c-0.13-3.96,0.03-7.93,0.16-11.9
	C72.08,592.23,72.58,584.72,73.01,577.4z" />
	<path class="textMain" d="M569.11,341.75c0.51,3.39,1.2,7.66,1.49,11.07c0.91,10.38,1.31,20.78-0.43,31.1c-0.51,3.01-1.55,5.98-2.79,8.78
	c-1.47,3.31-4.35,5.15-7.99,5.14c-7.71-0.02-13.26-2.77-15.54-10.13c-1.48-4.78-2.18-9.92-2.43-14.94
	c-0.71-13.96,1.73-27.62,4.67-41.2c1.12-5.2,2.42-10.36,3.59-15.56c0.32-1.42,0.47-2.87,0.74-4.48
	c-6.59-2.23-10.77-6.85-11.03-14.18c3.51,0.41,5.72,3.1,7.71,5.45c4.64,5.45,6.91,12.14,9.43,18.71c2.47,6.45,4.98,12.9,9.26,18.44
	C566.64,341.05,567.99,340.86,569.11,341.75z" />
	<path class="textAccent" d="M571.16,184.92c-7.69,1.03-13.95-1.77-19.2-7.16c-0.51-0.52-1.12-0.94-1.95-1.74c-0.77-5.53-2.46-9.93-8-11.68
	c-1-4.55-3.64-8.13-7.24-10.82c-3.42-2.56-9.41-1.39-13.6,2.4c-3.29,2.97-6.3,6.23-9.48,9.33c-1.04,1.01-2.22,1.89-3.59,2.87
	c1.58-10.69,4.68-20.95,11.38-29.73c6.66-8.72,15.55-12.39,26.42-10.74c8.2,1.24,13.88,6.1,17.82,13.2
	c4.8,8.64,6.48,18.14,7.18,27.81C571.29,173.92,571.14,179.26,571.16,184.92z" />
	<path class="textAccent" d="M184.25,558.9c0.16-12.15,0.77-24.27,2.86-36.27c0.06-0.36,0.18-0.72,0.26-1.08
	c2.41-10.48,5.74-14.27,18.75-16.24c4.76-0.72,6.94,1.2,7.59,5.95c0.74,5.4-0.17,10.62-1.78,15.75c-2.53,8.05-4.83,16.17-5.34,24.64
	c-0.28,4.57-0.43,9.17-0.21,13.74c0.36,7.39,2.8,9.06,10.12,7.44c1.58-0.35,3.12-0.82,4.69-1.18c4.14-0.96,6.29,0.12,7.23,4.15
	c1.5,6.44,1.63,12.81-3.03,18.67c-1.16-0.03-1.92-0.12-2.56-0.44c-5.92-3.09-11.33-6.93-16.35-11.34
	c-6.01-5.28-10.36-11.86-14.61-18.5C190.03,561.32,187.62,559.48,184.25,558.9z" />
	<path class="textMain" d="M349.25,101.15c0.16,5.68,0.31,11.35,0.48,17.03c0.04,1.44,0.16,2.88,0.22,4.08c0.52,0.26,0.63,0.36,0.74,0.36
	c5.14,0.28,5.79,0.79,5.82,6.14c0.02,4.45-0.25,8.91-0.65,13.35c-0.45,4.9-2.81,8.93-7.34,10.89c-6.57,2.85-13.28,5.49-20.12,7.57
	c-5.18,1.57-7.17-0.09-7.75-5.4c-0.67-6.2-0.21-12.38,1.14-18.47c0.54-2.44,1.49-4.82,3.99-5.98c2-0.93,2.5-2.45,2.49-4.5
	c-0.06-8.06-0.11-16.12,0.01-24.17c0.1-6.81,0.44-13.62,1.05-20.71c4.31,0.17,7.18,2.41,9.44,5.42c1.31,1.75,2.24,3.78,3.45,5.62
	C344.29,95.52,345.78,99.13,349.25,101.15z" />
	<path class="textMain" d="M343.77,399.8c2.75-0.11,5.3,0.09,7.81-0.11c5.23-0.43,9.17-3.44,12.29-7.3c2.37-2.92,4.07-6.39,6.07-9.6
	c0.51-0.82,1.07-1.61,1.84-2.47c1.66,10.62-0.44,20.64-5.76,29.92c-5.72,9.99-14.63,16.28-25,20.71
	c-5.26,2.25-10.63,4.05-16.49,3.88c-9.21-0.26-15.55-6.58-15.69-15.82c-0.09-5.24,0.59-10.38,2.46-15.3
	c2.08-5.48,5.88-9.08,11.66-10.43c4.31-1.01,6.97,0.52,8.22,4.73c0.49,1.65,0.74,3.39,1.27,5.03c1.12,3.51,3.13,4.39,6.13,2.24
	C340.52,403.9,341.91,401.74,343.77,399.8z" />
	<path class="textMain" d="M163.27,174.63c4.3-1.61,8.56-1.56,12.74-2.99c4.32-1.48,8.75-1.49,13.17-1.21c4.37,0.27,8.07,2.43,11,5.53
	c3.7,3.93,6.97,8.28,10.59,12.3c1.95,2.16,4.88,3.05,7.3,5.11c-1.9,5.87-6.67,11.07-11.77,14.26c-6.68,4.18-14.04,6.69-21.89,7.58
	c-7.95,0.89-13.16-2.07-15.98-9.6c-1.64-4.36-2.75-8.98-3.53-13.58C164,186.78,163.74,180.23,163.27,174.63z" />
	<path class="textAccent" d="M477.49,205.66c1.01-13.72,2-27.44,3.01-41.16c0.08-1.08,0.18-2.17,0.28-3.45c-5.03-0.59-6.43-4.12-6.51-8.19
	c-0.09-4.56,0.13-9.17,0.67-13.69c0.55-4.57,3.33-7.64,7.74-9.1c6.18-2.05,12.58-2.84,19.05-2.67c4.2,0.11,6.68,2.3,7.51,6.44
	c1.27,6.32,0.59,12.59-1.1,18.75c-0.68,2.48-2.43,3.86-5.05,4.33c-4.31,0.78-4.22,0.85-4.24,5.32c-0.02,7.19-0.17,14.38-0.58,21.96
	c-1.11,1.49-1.84,2.64-2.69,3.68c-3.74,4.58-7.38,9.25-11.32,13.65C482.53,203.48,480.43,205.38,477.49,205.66z" />
	<path class="textAccent" d="M195.94,435.89c0.6-9.14,1.2-18.8,1.8-27.94c0.12-1.83,0.31-3.66,0.45-5.23c-1.85-0.78-3.85-1.04-4.77-2.18
	c-1.16-1.43-1.97-3.57-2-5.41c-0.09-4.55,0.13-9.14,0.66-13.67c0.47-4.03,2.83-7.11,6.36-9.13c6.95-3.97,14.53-6.31,22.3-7.94
	c3.99-0.84,6.46,1.04,7.17,5.11c1.08,6.2,0.47,12.35-1.29,18.37c-0.79,2.68-2.71,4.28-5.3,5.32c-4.24,1.69-4.11,1.85-4.12,6.28
	c-0.03,10.53-0.28,21.7-0.8,32.55c-6.48-1.36-12-0.68-17.33,2.46C198.16,435.01,196.93,435.45,195.94,435.89z" />
	<path class="textAccent" d="M436.13,185.84c1.24-5.41,2.49-10.83,3.83-16.73c-1.55,0-2.73,0.03-3.91-0.01c-4.42-0.16-7.3-2.37-8.07-6.77
	c-1.04-5.98-0.36-11.87,2.15-17.46c1.32-2.94,3.68-5,6.52-6.4c7.58-3.7,15.67-5.53,24.07-5.57c5.79-0.02,8.45,2.53,8.89,8.29
	c0.23,3.06,0.17,6.22-0.28,9.26c-0.97,6.52-4.62,11.23-10.8,13.56c-2.46,0.93-2.79,2.18-2.5,4.48c1.27,10.09,2.38,20.19,3.25,30.63
	c-1.79-0.66-3.38-1.52-4.72-2.68c-4.91-4.28-9.76-8.59-16.75-9.06C437.22,187.36,436.69,186.39,436.13,185.84z" />
	<path class="textAccent" d="M136.8,594.79c-1.03-7.5-0.7-18.22-0.29-25.76c0.63-11.74,1.74-23.45,2.66-35.17c0.04-0.49,0.13-0.98,0.25-1.46
	c2.44-10.5,5.16-14.29,19.07-15.05c4.31-0.24,6.36,1.68,7.15,5.96c0.92,5-0.01,9.82-1.26,14.68c-1.95,7.54-4.27,15.06-5.25,22.74
	c-0.83,6.55-0.99,14.66-0.15,20.94c-1.19,1.08-2.16,1.16-3.06,1.97C150.34,588.57,143.67,593.53,136.8,594.79z" />
	<path class="textMain" d="M436.27,185.42c0.74,0.32,1.6,1.62,2.19,1.66c7,0.47,11.19,5.1,16.11,9.38c1.34,1.16,2.93,1.06,4.69,2.07
	c0.42,5.93,0.85,12.82,0.61,18.73c-0.3,7.16-1.14,14.3-3.51,21.18c-2.68,7.75-7.93,12.35-16.12,13.49c-4.7,0.66-8.19-1.1-9.61-5.61
	c-1.03-3.26-1.57-6.76-1.75-10.18c-0.65-12.46,1.41-24.67,3.93-36.82C433.71,194.95,435.1,189.98,436.27,185.42z" />
	<path class="textMain" d="M121.51,455.14c1.42,0.72,2.87,2.3,4.07,3.48c10.33,10.1,22.96,10.76,34.56,3.64
	c7.94-4.88,15.09-10.88,22.64-16.39c2.08-1.52,4.41-3.67,6.78-5.18c-0.78,14.67-4.81,28.92-15.48,39.68
	c-7.29,7.36-16.51,10.83-26.74,11.3c-9.8,0.45-16.89-4.11-21.16-12.86C122.7,471.68,121.52,463.34,121.51,455.14z" />
	<path class="textMain" d="M133.05,305.37c2.26,2.66,4.16,7.22,6.45,10.09c1.99,2.5,4.13,4.92,6.46,7.12c5.14,4.84,11.4,5.34,17.65,3.19
	c5.13-1.77,9.24-4.92,12.4-9.86c1.96-0.58,4.27-1.09,6.21-1.19c3.51-0.17,5.94,1.63,7.12,4.87c1.96,5.38,1.76,10.97,0.97,16.51
	c-0.22,1.56-1.42,3.23-2.64,4.34c-1.8,1.64-3.87,3.17-6.1,4.12c-10.68,4.58-21.88,7.09-33.49,7.48c-7.19,0.25-11.07-2.44-12.68-9.44
	c-1.41-6.1-1.99-12.44-2.45-18.71C132.55,318.35,132.95,311.27,133.05,305.37z" />
	<path class="textMain" d="M336.31,535.42c3.73-1.57,6.11-4.38,7.77-7.47c2.8-5.21,5.19-10.66,7.45-16.13c3.4-8.22,6.52-16.57,9.83-24.84
	c0.45-1.12,1.27-2.1,2.18-3.23c1.62,1.27,3.1,1.46,5,1c2.5-0.6,5.11-1.03,7.67-1c3.29,0.04,5.27,2.1,5.53,5.38
	c0.37,4.65-1.04,8.72-5.12,11.22c-2.93,1.8-6.1,3.42-9.37,4.36c-4,1.15-5.76,3.36-5.76,7.41c0.02,7.67-0.08,15.35-0.16,23.02
	c-0.06,5.07,0.06,10.16-0.3,15.21c-0.44,6.07-3.44,10.49-9.92,12.48c-0.97,0.23-1.46,0.49-1.95,0.75c-1.31,0.42-2.64,0.85-4.49,1.05
	c-2.23-0.25-3.93-0.28-5.63-0.32c-2.18-0.51-2.65-2.34-2.95-4.64c0.08-4.5-0.05-8.51-0.17-12.52
	C336.02,543.32,336.09,539.51,336.31,535.42z" />
	<path class="textAccent" d="M569.22,342.31c-1.23-0.54-2.58-1.25-3.43-2.36c-4.27-5.53-6.78-11.99-9.26-18.44
	c-2.52-6.56-4.78-13.24-9.43-18.71c-1.99-2.34-4.26-4.45-7.71-5.15c-0.98-4.6-0.45-9.11,0.88-13.53c1.16-3.86,3.89-6.1,7.84-6.34
	c8.57-0.52,16.75,1.13,24.34,5.2c3.35,1.8,5.55,4.8,5.91,8.53c0.43,4.39,0.64,8.91,0.13,13.27c-0.76,6.59-4.27,9.31-11,9.57
	c-0.36,0.02-0.72,0.1-1.61,0.25C566.44,323.79,568.58,332.8,569.22,342.31z" />
	<path class="textMain" d="M379.24,236.61c3.6-0.9,7.65,0.76,11.18-0.22c6.48-1.8,10.52-6.55,13.77-12.18
	c4.57-7.91,9.25-15.75,13.98-23.56c0.8-1.32,2.46-4.26,3.79-5.44c0.09,4.3-0.32,10.56-0.56,14.87c-0.47,8.3-0.74,16.61-1.6,24.86
	c-1.47,14.18-8.49,24.62-21.81,30.41c-5.11,2.22-8.49,1.3-11.33-3.55c-1.49-2.54-2.69-5.34-3.51-8.16
	C381.76,248.78,380.44,241.85,379.24,236.61z" />
	<path class="textMain" d="M434.21,103.66c1.04,0.21,2.06,0.66,2.91,1.31c5.35,4.16,11.16,4.89,17.28,2.12c2.97-1.34,5.74-3.11,8.64-4.94
	c3.83-0.85,7.62-1.56,11.42-2.01c2.07-0.25,4.21-0.27,6.27,0c3.78,0.51,6.3,2.82,7.53,6.38c1.65,4.77,1.87,9.74,1.31,14.7
	c-0.36,3.27-2.47,5.49-5.53,6.38c-3.19,0.94-6.49,1.76-9.79,2.02c-8.27,0.66-16.58,1.23-24.87,1.33
	c-7.72,0.09-11.54-2.89-13.22-10.43C434.97,115.14,434.76,109.52,434.21,103.66z" />
	<path class="textMain" d="M343.39,229.98c1.31-0.56,2.55,0.31,3.69-0.09c3.53-1.24,6.79-0.39,10.01,1.04c3.02,1.35,6.36,1.45,9.63,2.83
	c1.48,10.81,2.45,22.89,3.59,33.7c0.36,3.51-1.15,6.59-3.51,9.09c-5.08,5.35-11.44,8.6-18.49,10.45c-3.55,0.93-5.8-0.63-6.5-4.22
	c-0.4-2.04-0.55-4.18-0.46-6.27C341.93,261.43,342.62,245.39,343.39,229.98z" />
	<path class="textAccent" d="M349.24,101.39c-3.53-1.67-4.96-5.87-7.03-9c-1.21-1.84-2.14-3.87-3.45-5.62c-2.26-3.02-5.26-4.41-9.47-4.88
	c0.06-1.32-0.02-3.04-0.08-4.11c-4.91-0.87-7.01-2.37-7.61-7.32c-0.51-4.27-0.47-8.64-0.24-12.94c0.25-4.41,2.72-7.66,6.63-9.67
	c6.79-3.48,14.08-5.49,21.6-6.5c4.63-0.62,7.66,1.52,8.13,6.14c0.49,4.88,0.27,9.88-0.08,14.8c-0.24,3.33-2.35,5.53-5.68,6.63
	c-4.05,1.34-3.93,1.54-3.7,5.94C348.73,83.38,348.95,92.5,349.24,101.39z" />
	<path class="textAccent" d="M480.41,487.32c-1.65,0.74-3.18,1.18-4.73,1.54c-5.17,1.23-8.76-1.16-10.79-6.13
	c-1.76-4.28-2.76-8.87-4.03-13.35c-1.08-3.84-2.05-7.72-3.34-11.63c-0.14-6.99-0.34-13.94,0.19-20.84
	c0.73-9.56,9.93-15.04,18.91-11.66c2.11,0.79,3.61,2.26,4.22,4.39c0.5,1.77,0.95,3.65,0.91,5.46
	C481.4,452.09,480.94,470.03,480.41,487.32z" />
	<path class="textMain" d="M511.23,511.64c1.65,8.27,4.73,15.67,11.13,21.29c2.54,2.23,5.64,2.76,8.99,1.46c1.03-0.4,2.11-0.66,3.46-0.99
	c-1.89,3.09-5.13,4.89-8.55,5.95c-8.75,2.69-17.59,2.87-26.27-0.22c-10.98-3.91-18.35-14.68-18.34-26.32
	c0-5.11,0.4-10.17,2.44-14.92c2.34-5.45,6.89-7.5,12.4-5.86c3.93,1.18,5.6,4.27,6.61,7.85c0.67,2.37,1.01,4.85,1.69,7.23
	C505.86,510.78,506.91,511.48,511.23,511.64z" />
	<path class="textMain" d="M477.53,205.59c3.03-0.53,5.13-2.43,6.9-4.39c3.95-4.39,7.52-9.14,11.26-13.72c0.85-1.04,1.59-2.18,2.61-3.35
	c-0.04,6.97-0.24,14.08-0.51,21.12c-0.05,1.23-0.13,2.47-0.25,3.7c-0.18,1.88,0.41,3.17,2.49,3.34c2.33,0.2,3.19,1.77,3.31,3.78
	c0.38,6.45,0.12,12.88-1.48,19.18c-0.89,3.54-3.17,6.16-6.72,6.72c-6.46,1.02-12.98,1.86-19.51,2.11c-4.48,0.17-6.32-1.99-6.53-6.39
	c-0.3-6.08-0.07-12.14,1.52-18.06c0.7-2.57,1.75-4.81,4.62-5.83c0.86-0.31,1.63-1.75,1.86-2.79
	C477.45,209.35,477.34,207.57,477.53,205.59z" />
	<path class="textMain" d="M195.97,435.3c1.15-0.6,2.19-0.28,3.1-0.82c5.33-3.14,10.91-4.46,17.33-2.79c0.32,4.77,0.32,9.55,0.32,14.12
	c0.52,0.32,0.74,0.57,0.94,0.56c4.51-0.17,5.41,0.34,5.38,4.72c-0.03,4.81-0.53,9.63-1.16,14.39c-0.48,3.62-2.6,6.43-5.85,8.15
	c-7.07,3.77-14.67,5.95-22.58,6.95c-3.78,0.47-5.68-1.07-6.1-4.86c-0.67-6.07-0.32-12.17,1.78-17.94c0.62-1.69,2.17-3.39,3.75-4.28
	c1.85-1.05,2.28-2.29,2.33-4.16C195.32,444.9,195.69,440.06,195.97,435.3z" />
	<path class="textAccent" d="M611.17,163.41c-5.76,4.96-11.29,9.94-17.33,14.19c-5.57,3.93-11.87,6.63-19.01,7.59
	c0.33-10.77,0.74-21.52,1.63-32.25c0.28-3.37,1.42-6.82,2.88-9.91c3.42-7.28,11.34-10.46,18.76-7.48c2.11,0.85,4.21,2.82,5.34,4.82
	c1.99,3.51,3.46,7.39,4.75,11.24C609.46,155.36,610.22,159.27,611.17,163.41z" />
	<path class="textMain" d="M136.47,591.52c7.71-0.28,13.87-2.94,19.44-7.88c0.9-0.8,1.88-1.53,3.07-2.3c1.99,2.71,4.53,3.59,7.6,3.18
	c2.45-0.32,4.9-0.74,7.35-1.06c3.32-0.43,4.9,0.46,6.23,3.38c3.02,6.61,1.6,15.69-3.59,20.78c-2.09,2.05-4.57,3.9-7.2,5.16
	c-6.87,3.29-14.28,4.09-21.79,3.39c-5.4-0.51-8.53-4.06-9.54-9.07C137.07,602.27,136.96,596.77,136.47,591.52z" />
	<path class="textMain" d="M268.88,152.81c3.82,1.23,7.44,3.13,11.29,4.31c6.73,2.06,10.08-0.6,13.09-5.38c2.96-4.7,4.81-9.97,5.64-15.9
	c2.79-1.26,5.48-2.18,8.18-3.07c3.96-1.31,6.28-0.32,7.35,3.75c2.1,8.03,2.03,15.97-2.35,23.4c-2.49,4.24-5.75,7.79-9.8,10.54
	c-6.14,4.17-12.93,6.85-20.17,8.25c-5.71,1.1-9.02-0.92-10.82-6.45C269.27,166.06,268.78,159.63,268.88,152.81z" />
	<path class="textMain" d="M287,581.2c3-7.11,4.53-14.79,6.26-22.23c1.46-6.3,3.41-12.4,6.54-18.08c2.59-4.71,6.03-6.03,11.23-4.42
	c0.12,0.04,0.25,0.06,0.36,0.1c6.18,2.51,12.63,3.17,19.62,1.54c-0.47,7.41-3.52,14.77-7.31,21.03
	c-7.26,11.99-18.04,19.01-31.67,21.81C290.7,581.22,288.67,581.19,287,581.2z" />
	<path class="textMain" d="M184.28,558.85c3.47,0.24,5.76,2.4,7.6,5.28c4.26,6.64,8.6,13.29,14.61,18.57c5.02,4.41,10.43,8.24,16.35,11.34
	c0.63,0.33,1.59,0.22,2.56,0.43c-2.34,2.4-4.84,5.49-7.83,7.26c-6.72,3.98-14.26,5.58-22.05,5.66c-4.94,0.05-8.04-2.06-9.42-6.82
	c-1.12-3.89-1.96-7.98-2.07-12C183.77,578.9,184.14,568.84,184.28,558.85z" />
	<path class="textAccent" d="M535.72,295.78c-8.07,0.32-14.99,3.42-21.51,7.69c-2.13,1.39-4.42,2.56-6.9,3.85c-3.3-0.34-4.88-2.37-5.53-5.04
	c-1.73-7.13-1.35-14.26,0.67-21.27c1.07-3.68,3.97-5.92,7.62-6.25c5.64-0.52,11.38-0.93,16.99-0.41c6.18,0.57,7.67,3.19,8.8,9.99
	C536.47,287.95,535.88,291.75,535.72,295.78z" />
	<path class="textMain" d="M202.29,297.61c8-2.76,14.13,0.85,19.7,6.39c4.64,4.61,9.48,9.04,15.82,11.41c3.32,1.23,7.31,1.18,11.15,0.97
	c-2.68,5.09-7.27,9.97-12.11,13.3c-5.34,3.68-11.03,3.84-16.34,0.17c-2.9-2-5.53-4.62-7.66-7.44
	C207.46,315.29,204.45,306.5,202.29,297.61z" />
	<path class="textAccent" d="M446.41,448.4c-6.93,1.8-12.03,5.76-15.34,11.75c-3.04,5.51-5.55,11.32-8.3,16.99
	c-0.32,0.66-1.86,4.39-1.64,3.92c0.02-11.9,0.25-25.84,0.92-37.81c0.53-9.4,10.02-15.75,19.18-13.57c2.87,0.68,4.62,2.64,4.84,5.44
	C446.42,439.41,446.37,443.74,446.41,448.4z" />
	<path class="textMain" d="M313.07,302.5c0-0.83,0.82-2.03,1.23-2.75c3.4-5.91,4.67-12.44,5.9-19.02c0.85-4.61,1.29-9.17,2.26-14.06
	c2.6-1.33,5.78-2.75,8.48-3.27c3.14-0.61,5.07,0.66,6.02,3.7c1.85,5.91,2.02,11.99,0.41,17.97c-1.04,3.89-4.02,6.64-7.34,8.6
	C324.84,296.75,318.71,299.7,313.07,302.5z" />
	<path class="textMain" d="M238.06,196.9c0.56-0.71,1.73-1.46,2.64-2.01c3.37-2,6.21-4.41,7.43-8.36c2.09-6.71,4.23-13.41,6.47-20.07
	c1.09-3.25,2.45-6.42,3.72-9.91c0.39-0.23,0.76-0.12,1.12-0.13c4.73-0.18,5.52,0.3,5.57,4.93c0.06,5.44-0.18,10.89-0.6,16.32
	c-0.42,5.49-3.36,9.69-8.23,12.03C250.5,192.42,244.16,194.56,238.06,196.9z" />
	<path class="textMain" d="M227.57,441.6c2.96,2.79,5.81,5.79,8.54,8.91c4,4.57,8.45,8.51,14.41,10.87c-5.03,4.72-11.45,6.65-18.29,7.26
	c-2.83,0.25-4.65-1.42-5.29-4.23c-0.38-1.66-0.5-3.44-0.44-5.15C226.73,453.45,227.1,447.66,227.57,441.6z" />
	<path class="textMain" d="M564.34,530.33c1.42,4.88,0.31,9.48-1.78,13.87c-0.92,1.93-2.42,2.66-4.72,2.03
	c-4.25-1.15-8.03-3.13-11.23-6.14c-2.94-2.75-4.05-6.1-2.42-10.28c1.37-0.21,2.27-0.05,3.1-0.25c5.49-1.31,10.79-0.51,16.05,1.2
	C563.66,530.88,563.91,530.51,564.34,530.33z" />
	<path class="textMain" d="M95.2,146.7c1.88-1.59,15.36,9.14,16.01,10.09c3.1,4.58,6.78,9.92,9.83,14.9c0.11,0.18-0.09,0.39-0.27,0.28
	c-3.25-1.88-13.78-4.58-16.47-6.93c-4.82-4.23-9.9-11.3-9.32-17.86C95.01,146.96,95.09,146.8,95.2,146.7z" />
	<path class="textAccent" d="M647.67,163.34c-1.15-0.43-2.41-1.02-3.3-1.97c-5.59-5.99-12.3-7.96-20.23-5.94c-0.36,0.09-0.74,0.05-1.42,0.06
	c-0.34-2.34-0.53-4.7-0.34-7.03c0.23-2.93,1.65-4.4,4.54-4.33c5.93,0.14,11.51,1.68,16.32,5.3c2.73,2.07,3.88,5.09,4.29,8.37
	C647.74,159.52,647.67,161.27,647.67,163.34z" />
	<path class="textMain" d="M281.09,452.23c0.23-0.74,1.12-1.59,1.77-2.07c5.85-4.26,9.89-9.96,13.13-16.3c3.28-6.39,6.56-13.19,10.02-19.7
	C307.8,434.78,296.17,447.85,281.09,452.23z" />
	<path class="textAccent" d="M116.55,449.31c-1.69,0.57-1.95-2.04-2.91-3.1c-3.1-3.43-6.35-6.74-9.68-9.94c-1.09-1.04-2.96-1.99-4.37-3.02
	c3.37-0.26,7.15-0.06,10.58,0.08c5.38,0.21,7.32,2.22,7.38,7.54C117.57,443.08,116.81,446.81,116.55,449.31z" />
	<path class="textAccent" d="M564.32,530.35c-0.34,0.43-0.85,0.85-1.18,0.75c-5.26-1.71-10.56-2.51-16.05-1.2c-0.82,0.2-1.73,0.03-2.96,0.02
	c0.21-1.48,0.59-3.08,1.41-4.39c2.07-3.33,4.77-4.31,8.51-3.18C558.38,523.66,562.16,525.78,564.32,530.35z" />
	<path class="textMain" d="M283.25,303.75c1.98-0.77,4.41-0.06,6.27-0.86c3.86-1.67,7.54-1.55,11.24,0.36c1.41,0.73,3.88,0.95,5.57,1.76
	c-3.95,1.58-9.04,3.58-13.32,4.58C288.9,310.56,285.12,308.19,283.25,303.75z" />
	<path class="textMain" d="M494.04,481.58c3.91-0.59,8.53-0.78,11.19,3.1c0.34,0.49,0.95,2.01,1.2,2.83
	C502.71,486.06,497.89,483.52,494.04,481.58z" />
	<path class="textMain"
		d="M335.83,547.41c0.25,3.74,0.36,7.74,0.32,11.99C335.89,555.66,335.8,551.67,335.83,547.41z" />
	<path class="textMain" d="M65.6,460.31c0.24,2.75,0.36,5.79,0.29,9.05C65.63,466.58,65.56,463.57,65.6,460.31z" />
	<path class="textMain" d="M339.27,564.51c1.5-0.17,3.2-0.13,5.14,0.08C342.91,564.75,341.18,564.73,339.27,564.51z" />
	<path class="textMain" d="M349.4,563.61c0.27-0.31,0.76-0.57,1.47-0.8C350.6,563.1,350.11,563.38,349.4,563.61z" />
	<path class="stars" d="M89.87,106.77c0.63,0.79,1.31,1.49,2.03,2.13c0.64,0.57,1.31,1.09,2,1.57c0.67,0.46,1.36,0.89,2.07,1.27
	c0.64,0.36,1.3,0.68,1.96,1.01c0.51,0.25,1.02,0.48,1.54,0.7c0.36,0.16,0.74,0.28,1.11,0.42c0.43,0.15,0.85,0.29,1.29,0.44
	c0.1,0.03,0.21,0.06,0.31,0.09c0.43,0.1,0.86,0.21,1.3,0.32c0.07,0.02,0.15,0.05,0.21,0.09c0.11,0.08,0.12,0.2,0.02,0.3
	c-0.05,0.06-0.12,0.09-0.19,0.11c-0.14,0.03-0.28,0.03-0.43,0.06c-0.57,0.13-1.15,0.27-1.71,0.42c-0.7,0.18-1.38,0.44-2.06,0.71
	c-0.54,0.21-1.07,0.45-1.59,0.7c-0.59,0.28-1.19,0.59-1.78,0.89c-0.89,0.47-1.74,1-2.57,1.58c-0.89,0.63-1.73,1.32-2.53,2.11
	c-0.7,0.7-1.35,1.47-1.95,2.31c-0.59,0.82-1.09,1.71-1.54,2.64c-0.21,0.44-0.4,0.9-0.59,1.36c-0.21,0.51-0.4,1.04-0.59,1.57
	c-0.13,0.36-0.23,0.74-0.34,1.11c-0.13,0.45-0.25,0.91-0.37,1.37c-0.01,0.02-0.02,0.04-0.02,0.06c-0.11,0.53-0.22,1.06-0.32,1.59
	c-0.11,0.59-0.21,1.18-0.3,1.77c-0.1,0.68-0.17,1.36-0.25,2.05c-0.05,0.49-0.12,0.98-0.17,1.47c-0.04,0.4-0.06,0.79-0.09,1.18
	c-0.01,0.13-0.03,0.25-0.06,0.38c-0.02,0.09-0.06,0.19-0.12,0.26c-0.12,0.17-0.27,0.13-0.34-0.06c-0.04-0.11-0.06-0.24-0.06-0.36
	c-0.06-0.56-0.12-1.12-0.17-1.69c-0.02-0.18-0.02-0.36-0.04-0.54c-0.07-0.56-0.13-1.12-0.21-1.68c-0.11-0.73-0.24-1.45-0.36-2.18
	c-0.09-0.52-0.2-1.04-0.31-1.55c-0.09-0.44-0.18-0.86-0.29-1.29c-0.2-0.79-0.4-1.58-0.63-2.36c-0.33-1.15-0.74-2.26-1.23-3.32
	c-0.74-1.6-1.7-2.98-2.83-4.19c-0.94-1.01-1.96-1.9-3.03-2.69c-1.07-0.79-2.18-1.46-3.33-2.06c-1.01-0.53-2.05-0.97-3.11-1.34
	c-0.94-0.32-1.9-0.59-2.87-0.74c-0.33-0.05-0.66-0.13-0.99-0.19c-0.1-0.02-0.21-0.01-0.3-0.03c-0.07-0.02-0.15-0.05-0.21-0.09
	c-0.09-0.09-0.08-0.21,0.02-0.28c0.03-0.02,0.08-0.04,0.12-0.05c0.08-0.02,0.17-0.02,0.25-0.03c0.66-0.03,1.31-0.1,1.97-0.24
	c0.55-0.12,1.08-0.25,1.62-0.4c0.4-0.1,0.81-0.25,1.2-0.4c0.32-0.11,0.65-0.23,0.97-0.36c0.57-0.24,1.13-0.48,1.69-0.74
	c0.46-0.21,0.92-0.44,1.36-0.69c0.5-0.28,0.99-0.56,1.47-0.88c0.62-0.42,1.23-0.85,1.82-1.31c0.98-0.76,1.88-1.63,2.7-2.64
	c0.71-0.89,1.33-1.88,1.83-2.96c0.44-0.96,0.82-1.96,1.16-2.98c0.26-0.83,0.5-1.68,0.7-2.53c0.21-0.87,0.42-1.73,0.61-2.61
	c0.13-0.6,0.22-1.22,0.32-1.84c0.08-0.45,0.15-0.9,0.21-1.35c0.08-0.58,0.15-1.16,0.21-1.75c0.04-0.36,0.06-0.73,0.09-1.09
	c0.01-0.09,0.02-0.19,0.05-0.27c0.03-0.08,0.07-0.17,0.13-0.23c0.11-0.12,0.26-0.09,0.33,0.08c0.03,0.08,0.06,0.17,0.06,0.27
	c0.04,0.46,0.06,0.92,0.1,1.38c0.06,0.73,0.11,1.46,0.18,2.18c0.04,0.42,0.12,0.84,0.16,1.26c0.04,0.4,0.08,0.78,0.17,1.16
	c0.02,0.09,0.04,0.2,0.05,0.29c0.03,0.35,0.09,0.7,0.18,1.03c0.02,0.09,0.03,0.2,0.06,0.29c0.05,0.24,0.1,0.47,0.15,0.7
	c0.01,0.03,0.02,0.07,0.02,0.1c0.1,0.44,0.2,0.89,0.31,1.33c0.1,0.38,0.22,0.76,0.34,1.13c0.09,0.28,0.18,0.55,0.28,0.82
	c0.19,0.59,0.41,1.18,0.66,1.74c0.24,0.53,0.48,1.05,0.74,1.57c0.31,0.61,0.66,1.17,1.05,1.71
	C89.41,106.16,89.64,106.45,89.87,106.77z" />
	<path class="stars" d="M110.12,126.72c0.29,0.41,0.6,0.78,0.93,1.11c0.29,0.3,0.61,0.57,0.93,0.82c0.31,0.24,0.63,0.46,0.95,0.66
	c0.3,0.18,0.6,0.36,0.9,0.52c0.24,0.13,0.47,0.25,0.71,0.36c0.17,0.08,0.34,0.15,0.51,0.21c0.2,0.08,0.4,0.15,0.59,0.23
	c0.05,0.02,0.09,0.03,0.14,0.05c0.2,0.06,0.4,0.11,0.6,0.17c0.03,0.01,0.07,0.02,0.1,0.05c0.05,0.04,0.06,0.1,0.02,0.16
	c-0.02,0.03-0.06,0.05-0.09,0.06c-0.06,0.02-0.13,0.02-0.2,0.03c-0.26,0.07-0.53,0.14-0.79,0.21c-0.32,0.09-0.64,0.23-0.95,0.37
	c-0.25,0.11-0.49,0.23-0.74,0.36c-0.28,0.15-0.55,0.31-0.82,0.47c-0.41,0.25-0.81,0.51-1.19,0.82c-0.41,0.32-0.8,0.69-1.16,1.1
	c-0.32,0.36-0.63,0.77-0.9,1.2c-0.27,0.43-0.51,0.89-0.71,1.38c-0.09,0.23-0.18,0.47-0.27,0.7c-0.09,0.27-0.18,0.55-0.27,0.82
	c-0.06,0.19-0.11,0.39-0.16,0.58c-0.06,0.24-0.12,0.47-0.17,0.71c0,0.01-0.01,0.02-0.01,0.03c-0.05,0.28-0.1,0.55-0.15,0.82
	c-0.06,0.31-0.09,0.62-0.13,0.93c-0.05,0.36-0.08,0.71-0.11,1.07c-0.02,0.25-0.06,0.51-0.08,0.77c-0.02,0.21-0.02,0.41-0.04,0.62
	c-0.01,0.06-0.02,0.13-0.03,0.2c-0.01,0.05-0.03,0.1-0.06,0.13c-0.06,0.09-0.13,0.07-0.16-0.03c-0.02-0.06-0.02-0.12-0.03-0.18
	c-0.03-0.29-0.06-0.59-0.08-0.88c-0.01-0.09-0.01-0.19-0.02-0.28c-0.03-0.29-0.06-0.59-0.1-0.88c-0.05-0.38-0.11-0.75-0.17-1.13
	c-0.04-0.27-0.09-0.54-0.14-0.81c-0.04-0.22-0.09-0.45-0.13-0.67c-0.09-0.41-0.18-0.82-0.29-1.23c-0.16-0.59-0.34-1.17-0.57-1.73
	c-0.34-0.83-0.78-1.55-1.31-2.18c-0.44-0.52-0.9-0.99-1.4-1.4c-0.49-0.41-1.01-0.76-1.54-1.07c-0.47-0.28-0.95-0.51-1.44-0.7
	c-0.44-0.17-0.88-0.31-1.33-0.39c-0.15-0.02-0.3-0.07-0.46-0.1c-0.05-0.01-0.09-0.01-0.14-0.02c-0.03-0.01-0.07-0.02-0.09-0.05
	c-0.05-0.05-0.04-0.11,0.01-0.14c0.02-0.02,0.03-0.02,0.06-0.02c0.04-0.01,0.08-0.02,0.11-0.02c0.31-0.02,0.61-0.06,0.91-0.13
	c0.25-0.06,0.5-0.13,0.75-0.21c0.19-0.06,0.37-0.13,0.55-0.21c0.15-0.06,0.3-0.12,0.45-0.19c0.26-0.13,0.52-0.25,0.78-0.39
	c0.21-0.11,0.43-0.23,0.63-0.36c0.23-0.14,0.46-0.29,0.68-0.46c0.28-0.21,0.57-0.44,0.84-0.68c0.45-0.4,0.87-0.85,1.25-1.38
	c0.33-0.47,0.62-0.98,0.85-1.54c0.21-0.5,0.38-1.02,0.53-1.55c0.12-0.44,0.23-0.87,0.32-1.32c0.09-0.45,0.2-0.9,0.28-1.36
	c0.06-0.32,0.1-0.63,0.15-0.95c0.03-0.24,0.07-0.47,0.1-0.7c0.04-0.3,0.07-0.61,0.09-0.91c0.02-0.19,0.03-0.38,0.04-0.57
	c0-0.05,0.01-0.09,0.02-0.14c0.02-0.04,0.03-0.09,0.06-0.12c0.06-0.06,0.12-0.05,0.15,0.04c0.02,0.04,0.02,0.09,0.03,0.13
	c0.02,0.24,0.03,0.47,0.05,0.71c0.02,0.38,0.05,0.76,0.08,1.14c0.02,0.22,0.06,0.44,0.07,0.66c0.02,0.21,0.04,0.41,0.08,0.61
	c0.01,0.05,0.02,0.1,0.02,0.16c0.02,0.18,0.04,0.36,0.09,0.54c0.02,0.05,0.02,0.1,0.02,0.15c0.02,0.13,0.05,0.25,0.07,0.37
	c0,0.02,0.01,0.03,0.02,0.06c0.05,0.23,0.09,0.46,0.14,0.69c0.05,0.2,0.1,0.4,0.16,0.59c0.04,0.14,0.09,0.28,0.13,0.43
	c0.09,0.31,0.19,0.61,0.31,0.9c0.11,0.28,0.22,0.55,0.35,0.82c0.14,0.32,0.31,0.61,0.48,0.89
	C109.91,126.42,110.01,126.57,110.12,126.72z" />
	<path class="stars" d="M76.93,151.45c0.24,0.31,0.51,0.57,0.78,0.82c0.25,0.22,0.51,0.42,0.77,0.6c0.26,0.17,0.52,0.34,0.79,0.49
	c0.25,0.13,0.5,0.26,0.75,0.39c0.2,0.09,0.39,0.18,0.59,0.27c0.14,0.06,0.28,0.11,0.43,0.16c0.17,0.06,0.33,0.11,0.5,0.17
	c0.04,0.02,0.08,0.02,0.12,0.03c0.17,0.04,0.33,0.08,0.5,0.12c0.03,0.01,0.06,0.02,0.09,0.04c0.04,0.03,0.05,0.08,0.01,0.12
	c-0.02,0.02-0.05,0.04-0.07,0.04c-0.06,0.02-0.11,0.02-0.17,0.02c-0.22,0.06-0.44,0.1-0.66,0.16c-0.27,0.07-0.53,0.17-0.79,0.28
	c-0.21,0.08-0.41,0.17-0.61,0.27c-0.23,0.11-0.46,0.22-0.68,0.35c-0.34,0.18-0.67,0.38-0.99,0.61c-0.34,0.24-0.66,0.51-0.97,0.82
	c-0.27,0.27-0.52,0.57-0.74,0.89c-0.22,0.32-0.42,0.66-0.59,1.02c-0.08,0.17-0.15,0.35-0.22,0.52c-0.08,0.2-0.15,0.4-0.22,0.6
	c-0.05,0.14-0.09,0.28-0.13,0.43c-0.05,0.17-0.09,0.35-0.14,0.53c0,0.01-0.01,0.02-0.01,0.02c-0.04,0.21-0.09,0.4-0.13,0.61
	c-0.04,0.23-0.08,0.45-0.11,0.68c-0.04,0.26-0.06,0.52-0.09,0.79c-0.02,0.19-0.05,0.38-0.06,0.57c-0.02,0.15-0.02,0.3-0.03,0.45
	c-0.01,0.05-0.02,0.1-0.02,0.14c-0.01,0.04-0.02,0.07-0.05,0.1c-0.05,0.06-0.1,0.06-0.13-0.02c-0.02-0.04-0.02-0.09-0.02-0.13
	c-0.02-0.21-0.05-0.44-0.06-0.65c-0.01-0.07-0.01-0.13-0.02-0.21c-0.02-0.21-0.05-0.44-0.08-0.65c-0.04-0.28-0.09-0.56-0.14-0.84
	c-0.04-0.2-0.08-0.4-0.12-0.59c-0.03-0.17-0.07-0.33-0.11-0.5c-0.08-0.3-0.16-0.61-0.25-0.91c-0.13-0.44-0.28-0.87-0.47-1.27
	c-0.28-0.62-0.66-1.15-1.09-1.61c-0.36-0.39-0.75-0.73-1.16-1.04c-0.41-0.3-0.84-0.56-1.28-0.79c-0.39-0.21-0.78-0.38-1.2-0.51
	c-0.36-0.13-0.73-0.23-1.11-0.28c-0.13-0.02-0.25-0.05-0.38-0.07c-0.04-0.01-0.08-0.01-0.12-0.02c-0.03-0.01-0.06-0.02-0.08-0.04
	c-0.04-0.03-0.03-0.08,0.01-0.11c0.02-0.01,0.03-0.02,0.05-0.02c0.03-0.01,0.06-0.01,0.09-0.02c0.25-0.02,0.51-0.04,0.76-0.09
	c0.21-0.05,0.42-0.1,0.63-0.15c0.16-0.04,0.31-0.09,0.47-0.15c0.13-0.05,0.25-0.09,0.37-0.14c0.22-0.09,0.44-0.18,0.65-0.28
	c0.17-0.08,0.36-0.17,0.52-0.27c0.19-0.1,0.38-0.21,0.56-0.34c0.24-0.16,0.47-0.33,0.7-0.51c0.38-0.29,0.73-0.63,1.04-1.02
	c0.28-0.34,0.51-0.72,0.7-1.14c0.17-0.37,0.32-0.75,0.44-1.15c0.1-0.32,0.19-0.64,0.27-0.97c0.08-0.33,0.16-0.66,0.24-1.01
	c0.05-0.23,0.09-0.47,0.13-0.7c0.03-0.17,0.06-0.35,0.09-0.52c0.03-0.22,0.06-0.45,0.08-0.67c0.02-0.14,0.02-0.28,0.04-0.42
	c0-0.03,0.01-0.07,0.02-0.1c0.01-0.03,0.03-0.06,0.05-0.09c0.05-0.05,0.1-0.03,0.13,0.03c0.02,0.03,0.02,0.07,0.02,0.1
	c0.02,0.17,0.02,0.36,0.04,0.53c0.02,0.28,0.04,0.56,0.07,0.84c0.02,0.16,0.05,0.32,0.06,0.48c0.02,0.15,0.03,0.3,0.06,0.45
	c0.01,0.04,0.02,0.08,0.02,0.11c0.02,0.13,0.03,0.27,0.07,0.4c0.01,0.04,0.02,0.08,0.02,0.11c0.02,0.09,0.04,0.18,0.06,0.27
	c0,0.02,0.01,0.02,0.01,0.04c0.04,0.17,0.07,0.34,0.12,0.51c0.04,0.15,0.09,0.29,0.13,0.44c0.03,0.1,0.07,0.21,0.1,0.32
	c0.07,0.23,0.16,0.45,0.25,0.66c0.09,0.21,0.19,0.4,0.28,0.6c0.12,0.23,0.25,0.45,0.4,0.66C76.74,151.22,76.83,151.33,76.93,151.45z
	" />
	<path class="stars" d="M554,427.54c0.63,0.79,1.31,1.49,2.03,2.13c0.64,0.57,1.31,1.09,2,1.57c0.67,0.46,1.36,0.89,2.07,1.27
	c0.64,0.36,1.3,0.68,1.96,1.01c0.51,0.25,1.02,0.48,1.54,0.7c0.36,0.16,0.74,0.28,1.11,0.42c0.43,0.15,0.85,0.29,1.29,0.44
	c0.1,0.03,0.21,0.06,0.31,0.09c0.43,0.1,0.86,0.21,1.3,0.32c0.07,0.02,0.15,0.05,0.21,0.1c0.11,0.08,0.12,0.2,0.02,0.3
	c-0.05,0.06-0.12,0.1-0.19,0.11c-0.14,0.03-0.28,0.03-0.43,0.06c-0.57,0.13-1.15,0.27-1.71,0.42c-0.7,0.18-1.38,0.44-2.06,0.71
	c-0.54,0.21-1.07,0.45-1.59,0.7c-0.59,0.28-1.19,0.59-1.78,0.89c-0.89,0.47-1.74,1-2.57,1.58c-0.89,0.63-1.73,1.32-2.53,2.11
	c-0.7,0.7-1.35,1.47-1.95,2.31c-0.59,0.82-1.09,1.71-1.54,2.64c-0.21,0.44-0.4,0.9-0.59,1.36c-0.21,0.51-0.4,1.04-0.59,1.57
	c-0.13,0.36-0.23,0.74-0.34,1.11c-0.13,0.45-0.25,0.91-0.37,1.37c-0.01,0.02-0.02,0.04-0.02,0.06c-0.11,0.53-0.22,1.06-0.32,1.59
	c-0.11,0.59-0.21,1.18-0.3,1.77c-0.1,0.68-0.17,1.36-0.25,2.05c-0.05,0.49-0.12,0.98-0.17,1.47c-0.04,0.4-0.06,0.79-0.09,1.18
	c-0.01,0.13-0.03,0.25-0.06,0.38c-0.02,0.1-0.06,0.19-0.12,0.26c-0.12,0.17-0.27,0.13-0.34-0.06c-0.04-0.11-0.06-0.24-0.06-0.36
	c-0.06-0.56-0.12-1.12-0.17-1.69c-0.02-0.18-0.02-0.36-0.04-0.54c-0.07-0.56-0.13-1.12-0.21-1.68c-0.11-0.73-0.24-1.45-0.36-2.18
	c-0.09-0.52-0.2-1.04-0.31-1.55c-0.09-0.44-0.18-0.86-0.29-1.29c-0.2-0.79-0.4-1.58-0.63-2.36c-0.33-1.15-0.74-2.26-1.23-3.32
	c-0.74-1.6-1.7-2.98-2.83-4.19c-0.94-1.01-1.96-1.9-3.03-2.69c-1.07-0.79-2.18-1.46-3.33-2.06c-1.01-0.53-2.05-0.97-3.11-1.34
	c-0.94-0.32-1.9-0.59-2.87-0.74c-0.33-0.05-0.66-0.13-0.99-0.19c-0.1-0.02-0.21-0.01-0.3-0.03c-0.07-0.02-0.15-0.05-0.21-0.1
	c-0.1-0.09-0.08-0.21,0.02-0.28c0.03-0.02,0.08-0.04,0.12-0.05c0.08-0.02,0.17-0.02,0.25-0.03c0.66-0.03,1.31-0.1,1.97-0.24
	c0.55-0.12,1.08-0.25,1.62-0.4c0.4-0.1,0.81-0.25,1.2-0.4c0.32-0.11,0.65-0.23,0.97-0.36c0.57-0.24,1.13-0.48,1.69-0.74
	c0.46-0.21,0.92-0.44,1.36-0.69c0.5-0.28,0.99-0.56,1.47-0.88c0.62-0.42,1.23-0.85,1.82-1.31c0.98-0.76,1.88-1.63,2.7-2.64
	c0.71-0.89,1.33-1.88,1.83-2.96c0.44-0.96,0.82-1.96,1.16-2.98c0.26-0.83,0.5-1.68,0.7-2.53c0.21-0.87,0.42-1.73,0.61-2.61
	c0.13-0.6,0.22-1.22,0.32-1.84c0.08-0.45,0.15-0.9,0.21-1.35c0.08-0.58,0.15-1.16,0.21-1.75c0.04-0.36,0.06-0.73,0.09-1.09
	c0.01-0.1,0.02-0.19,0.05-0.27c0.03-0.08,0.07-0.17,0.13-0.23c0.11-0.12,0.26-0.09,0.33,0.08c0.03,0.08,0.06,0.17,0.06,0.27
	c0.04,0.46,0.06,0.92,0.1,1.38c0.06,0.73,0.11,1.46,0.18,2.18c0.04,0.42,0.12,0.84,0.16,1.26c0.04,0.4,0.08,0.78,0.17,1.16
	c0.02,0.09,0.03,0.2,0.05,0.29c0.03,0.35,0.09,0.7,0.18,1.03c0.02,0.09,0.03,0.2,0.06,0.29c0.05,0.24,0.1,0.47,0.15,0.7
	c0.01,0.03,0.02,0.07,0.02,0.1c0.1,0.44,0.2,0.89,0.31,1.33c0.1,0.38,0.22,0.76,0.34,1.13c0.09,0.28,0.18,0.55,0.28,0.82
	c0.19,0.59,0.41,1.18,0.66,1.74c0.24,0.53,0.48,1.05,0.74,1.57c0.31,0.61,0.66,1.17,1.05,1.71
	C553.54,426.94,553.77,427.23,554,427.54z" />
	<path class="stars" d="M521.47,417.83c0.29,0.41,0.6,0.78,0.93,1.11c0.29,0.3,0.61,0.57,0.93,0.82c0.31,0.24,0.63,0.46,0.95,0.66
	c0.3,0.18,0.6,0.36,0.9,0.52c0.24,0.13,0.47,0.25,0.71,0.36c0.17,0.08,0.34,0.15,0.51,0.21c0.2,0.08,0.4,0.15,0.59,0.23
	c0.05,0.02,0.09,0.03,0.14,0.05c0.2,0.06,0.4,0.11,0.6,0.17c0.03,0.01,0.07,0.02,0.1,0.05c0.05,0.04,0.06,0.1,0.02,0.16
	c-0.02,0.03-0.06,0.05-0.09,0.06c-0.06,0.02-0.13,0.02-0.2,0.03c-0.26,0.07-0.53,0.14-0.79,0.21c-0.32,0.1-0.64,0.23-0.95,0.37
	c-0.25,0.11-0.49,0.23-0.74,0.36c-0.28,0.15-0.55,0.31-0.82,0.47c-0.41,0.25-0.81,0.51-1.19,0.82c-0.41,0.32-0.8,0.69-1.16,1.1
	c-0.32,0.36-0.63,0.77-0.9,1.2c-0.27,0.43-0.51,0.89-0.71,1.38c-0.1,0.23-0.18,0.47-0.27,0.7c-0.1,0.27-0.18,0.55-0.27,0.82
	c-0.06,0.19-0.11,0.39-0.16,0.58c-0.06,0.24-0.12,0.47-0.17,0.71c0,0.01-0.01,0.02-0.01,0.03c-0.05,0.28-0.1,0.55-0.15,0.82
	c-0.06,0.31-0.09,0.62-0.13,0.93c-0.05,0.36-0.08,0.71-0.11,1.07c-0.02,0.25-0.06,0.51-0.08,0.77c-0.02,0.21-0.02,0.41-0.04,0.62
	c-0.01,0.06-0.02,0.13-0.03,0.2c-0.01,0.05-0.03,0.1-0.06,0.13c-0.06,0.09-0.13,0.07-0.16-0.03c-0.02-0.06-0.02-0.12-0.03-0.18
	c-0.03-0.29-0.06-0.59-0.08-0.88c-0.01-0.1-0.01-0.19-0.02-0.28c-0.03-0.29-0.06-0.59-0.1-0.88c-0.05-0.38-0.11-0.75-0.17-1.13
	c-0.04-0.27-0.09-0.54-0.14-0.81c-0.04-0.22-0.09-0.45-0.13-0.67c-0.09-0.41-0.18-0.82-0.29-1.23c-0.16-0.59-0.34-1.17-0.57-1.73
	c-0.34-0.83-0.78-1.55-1.31-2.18c-0.44-0.52-0.9-0.99-1.4-1.4c-0.49-0.41-1.01-0.76-1.54-1.07c-0.47-0.28-0.95-0.51-1.44-0.7
	c-0.44-0.17-0.88-0.31-1.33-0.39c-0.15-0.02-0.3-0.07-0.46-0.1c-0.05-0.01-0.1-0.01-0.14-0.02c-0.03-0.01-0.07-0.02-0.1-0.05
	c-0.05-0.05-0.04-0.11,0.01-0.14c0.02-0.02,0.03-0.02,0.06-0.02c0.04-0.01,0.08-0.02,0.11-0.02c0.31-0.02,0.61-0.06,0.91-0.13
	c0.25-0.06,0.5-0.13,0.75-0.21c0.19-0.06,0.37-0.13,0.55-0.21c0.15-0.06,0.3-0.12,0.45-0.19c0.26-0.13,0.52-0.25,0.78-0.39
	c0.21-0.11,0.43-0.23,0.63-0.36c0.23-0.14,0.46-0.29,0.68-0.46c0.28-0.21,0.57-0.44,0.84-0.68c0.45-0.4,0.87-0.85,1.25-1.38
	c0.33-0.47,0.62-0.98,0.85-1.54c0.21-0.5,0.38-1.02,0.53-1.55c0.12-0.44,0.23-0.87,0.32-1.32c0.1-0.45,0.2-0.9,0.28-1.36
	c0.06-0.32,0.1-0.63,0.15-0.95c0.03-0.24,0.07-0.47,0.1-0.7c0.04-0.3,0.07-0.61,0.09-0.91c0.02-0.19,0.03-0.38,0.04-0.57
	c0-0.05,0.01-0.1,0.02-0.14c0.02-0.04,0.03-0.09,0.06-0.12c0.06-0.06,0.12-0.05,0.15,0.04c0.02,0.04,0.02,0.09,0.03,0.13
	c0.02,0.24,0.03,0.47,0.05,0.71c0.02,0.38,0.05,0.76,0.08,1.14c0.02,0.22,0.06,0.44,0.07,0.66c0.02,0.21,0.04,0.41,0.08,0.61
	c0.01,0.05,0.02,0.1,0.02,0.16c0.02,0.18,0.04,0.36,0.09,0.54c0.02,0.05,0.02,0.1,0.02,0.15c0.02,0.13,0.05,0.25,0.07,0.37
	c0,0.02,0.01,0.03,0.02,0.06c0.05,0.23,0.09,0.46,0.14,0.69c0.05,0.2,0.1,0.4,0.16,0.59c0.04,0.14,0.09,0.28,0.13,0.43
	c0.09,0.31,0.19,0.61,0.31,0.9c0.11,0.28,0.22,0.55,0.35,0.82c0.14,0.32,0.31,0.61,0.48,0.89
	C521.25,417.51,521.36,417.66,521.47,417.83z" />
	<path class="stars" d="M533.8,459.7c0.24,0.31,0.51,0.57,0.78,0.82c0.25,0.22,0.51,0.42,0.77,0.6c0.26,0.17,0.52,0.34,0.79,0.49
	c0.25,0.13,0.5,0.26,0.75,0.39c0.2,0.1,0.39,0.18,0.59,0.27c0.14,0.06,0.28,0.11,0.43,0.16c0.17,0.06,0.33,0.11,0.5,0.17
	c0.04,0.02,0.08,0.02,0.12,0.03c0.17,0.04,0.33,0.08,0.5,0.12c0.03,0.01,0.06,0.02,0.09,0.04c0.04,0.03,0.05,0.08,0.01,0.12
	c-0.02,0.02-0.05,0.04-0.07,0.04c-0.06,0.02-0.11,0.02-0.17,0.02c-0.22,0.06-0.44,0.1-0.66,0.16c-0.27,0.07-0.53,0.17-0.79,0.28
	c-0.21,0.08-0.41,0.17-0.61,0.27c-0.23,0.11-0.46,0.22-0.68,0.35c-0.34,0.18-0.67,0.38-0.99,0.61c-0.34,0.24-0.66,0.51-0.97,0.82
	c-0.27,0.27-0.52,0.57-0.74,0.89c-0.22,0.32-0.42,0.66-0.59,1.02c-0.08,0.17-0.15,0.35-0.22,0.52c-0.08,0.2-0.15,0.4-0.22,0.6
	c-0.05,0.14-0.09,0.28-0.13,0.43c-0.05,0.17-0.09,0.35-0.14,0.53c0,0.01-0.01,0.02-0.01,0.02c-0.04,0.21-0.09,0.4-0.13,0.61
	c-0.04,0.23-0.08,0.45-0.11,0.68c-0.04,0.26-0.06,0.52-0.09,0.79c-0.02,0.19-0.05,0.38-0.06,0.57c-0.02,0.15-0.02,0.3-0.03,0.45
	c-0.01,0.05-0.02,0.1-0.02,0.14c-0.01,0.04-0.02,0.07-0.05,0.1c-0.05,0.06-0.1,0.06-0.13-0.02c-0.02-0.04-0.02-0.09-0.02-0.13
	c-0.02-0.21-0.05-0.44-0.06-0.65c-0.01-0.07-0.01-0.13-0.02-0.21c-0.02-0.21-0.05-0.44-0.08-0.65c-0.04-0.28-0.09-0.56-0.14-0.84
	c-0.04-0.2-0.08-0.4-0.12-0.59c-0.03-0.17-0.07-0.33-0.11-0.5c-0.08-0.3-0.16-0.61-0.25-0.91c-0.13-0.44-0.28-0.87-0.47-1.27
	c-0.28-0.62-0.66-1.15-1.09-1.61c-0.36-0.39-0.75-0.73-1.16-1.04c-0.41-0.3-0.84-0.56-1.28-0.79c-0.39-0.21-0.78-0.38-1.2-0.51
	c-0.36-0.13-0.73-0.23-1.11-0.28c-0.13-0.02-0.25-0.05-0.38-0.07c-0.04-0.01-0.08-0.01-0.12-0.02c-0.03-0.01-0.06-0.02-0.08-0.04
	c-0.04-0.03-0.03-0.08,0.01-0.11c0.02-0.01,0.03-0.02,0.05-0.02c0.03-0.01,0.06-0.01,0.1-0.02c0.25-0.02,0.51-0.04,0.76-0.1
	c0.21-0.05,0.42-0.09,0.63-0.15c0.16-0.04,0.31-0.1,0.47-0.15c0.13-0.05,0.25-0.09,0.37-0.14c0.22-0.1,0.44-0.18,0.65-0.28
	c0.17-0.08,0.36-0.17,0.52-0.27c0.19-0.1,0.38-0.21,0.56-0.34c0.24-0.16,0.47-0.33,0.7-0.51c0.38-0.29,0.73-0.63,1.04-1.02
	c0.28-0.34,0.51-0.72,0.7-1.14c0.17-0.37,0.32-0.75,0.44-1.15c0.1-0.32,0.19-0.64,0.27-0.97c0.08-0.33,0.16-0.66,0.24-1.01
	c0.05-0.23,0.09-0.47,0.13-0.7c0.03-0.17,0.06-0.35,0.09-0.52c0.03-0.22,0.06-0.45,0.08-0.67c0.02-0.14,0.02-0.28,0.04-0.42
	c0-0.03,0.01-0.07,0.02-0.1c0.01-0.03,0.03-0.06,0.05-0.09c0.05-0.05,0.1-0.03,0.13,0.03c0.02,0.03,0.02,0.07,0.02,0.1
	c0.02,0.17,0.02,0.36,0.04,0.53c0.02,0.28,0.04,0.56,0.07,0.84c0.02,0.16,0.05,0.32,0.06,0.48c0.02,0.15,0.03,0.3,0.06,0.45
	c0.01,0.04,0.02,0.08,0.02,0.11c0.02,0.13,0.03,0.27,0.07,0.4c0.01,0.04,0.02,0.08,0.02,0.11c0.02,0.09,0.04,0.18,0.06,0.27
	c0,0.02,0.01,0.02,0.01,0.04c0.04,0.17,0.07,0.34,0.12,0.51c0.04,0.15,0.09,0.29,0.13,0.44c0.03,0.1,0.07,0.21,0.1,0.32
	c0.07,0.23,0.16,0.45,0.25,0.66c0.1,0.21,0.19,0.4,0.28,0.6c0.12,0.23,0.25,0.45,0.4,0.66C533.63,459.47,533.71,459.58,533.8,459.7z
	" />
</svg>
