<?xml version="1.0" encoding="utf-8"?>
<!-- Generator: Adobe Illustrator 26.3.1, SVG Export Plug-In . SVG Version: 6.00 Build 0)  -->
<svg class="social-icon" aria-labelledby='#theMighty' version="1.1" id="Layer_1" xmlns="http://www.w3.org/2000/svg"
	xmlns:xlink="http://www.w3.org/1999/xlink" x="0px" y="0px" viewBox="0 0 60.79 30"
	style="enable-background:new 0 0 60.79 30;" xml:space="preserve">
	<title id='#theMighty'>The Mighty</title>
	<g>
		<g>
			<path d="M32.64,0.35C32.48,0.13,32.2,0,31.88,0c-0.59,0-1.16,0.44-1.31,1l-0.15,0.59h-3.92c-0.78,0-1.55,0.63-1.75,1.39
			c-0.09,0.41-0.04,0.79,0.2,1.09c0.22,0.28,0.55,0.44,0.96,0.44c0.52,0,1.05-0.28,1.4-0.7c0.09-0.11,0.07-0.3-0.04-0.39
			c-0.11-0.09-0.3-0.07-0.39,0.04c-0.26,0.31-0.63,0.5-0.98,0.5c-0.22,0-0.41-0.07-0.52-0.22c-0.13-0.15-0.15-0.37-0.09-0.61
			c0.13-0.52,0.7-0.98,1.22-0.98h1.79L27.23,6.5c-0.06,0.2-0.02,0.41,0.11,0.55c0.11,0.15,0.3,0.22,0.5,0.22
			c0.15,0,0.28-0.13,0.28-0.28c0-0.15-0.13-0.28-0.28-0.28c-0.02,0-0.06,0-0.06-0.02s-0.02-0.04,0-0.07l1.13-4.49h1.42l-1.2,4.78
			c-0.04,0.15,0.06,0.3,0.2,0.33c0.02,0,0.04,0,0.07,0c0.13,0,0.24-0.09,0.28-0.2l0.55-2.18V4.86c0.11-0.44,0.57-0.81,1.02-0.81
			c0.18,0,0.33,0.07,0.42,0.18c0.09,0.13,0.13,0.31,0.07,0.5l-0.44,1.74c-0.06,0.2-0.02,0.41,0.11,0.55c0.11,0.15,0.3,0.22,0.5,0.22
			c0.15,0,0.28-0.13,0.28-0.28c0-0.15-0.13-0.28-0.28-0.28c-0.02,0-0.06,0-0.06-0.02c0-0.02-0.02-0.04,0-0.07l0.44-1.74
			c0.09-0.37,0.02-0.72-0.18-0.98s-0.5-0.41-0.87-0.41c-0.26,0-0.5,0.07-0.72,0.2l0.39-1.55h0.63c0.59,0,1.16-0.44,1.31-1
			C32.86,0.85,32.81,0.57,32.64,0.35z M32.25,1.02c-0.07,0.31-0.44,0.59-0.78,0.59h-0.5l0.11-0.44c0.07-0.31,0.44-0.59,0.78-0.59
			c0.15,0,0.26,0.06,0.33,0.13C32.25,0.78,32.27,0.89,32.25,1.02z" />
			<path d="M36.1,4.17c-0.13-0.39-0.57-0.74-1.27-0.67c-0.89,0.09-1.7,0.85-1.94,1.81c-0.15,0.57-0.06,1.13,0.22,1.5
			c0.22,0.3,0.55,0.44,0.94,0.44c0.48,0,0.98-0.26,1.37-0.68c0.11-0.11,0.09-0.3-0.02-0.39c-0.11-0.11-0.3-0.09-0.39,0.02
			c-0.3,0.31-0.65,0.52-0.96,0.52c-0.2,0-0.39-0.07-0.5-0.24c-0.18-0.24-0.22-0.61-0.13-1.02c0.2-0.81,0.91-1.33,1.46-1.39
			c0.39-0.04,0.63,0.11,0.68,0.28c0.06,0.17-0.06,0.37-0.31,0.52c-0.55,0.31-0.91,0.2-0.92,0.18c-0.15-0.06-0.3,0-0.37,0.15
			c-0.06,0.15,0,0.3,0.15,0.37c0.06,0.02,0.61,0.24,1.4-0.22C36,5.06,36.23,4.6,36.1,4.17z" />
		</g>
		<g>
			<g>
				<g>
					<path d="M44.76,12.89v13.67c0,0.48-0.07,1.09-0.33,1.37c1.05,0.07,2.09,0.17,3.08,0.26c-0.24-0.28-0.31-0.87-0.31-1.35V12.89
					h1.35c0.5,0,0.94,0.09,1.22,0.35v-0.35v-2.31h-1.22h-5.01h-1.39l0,0v2.66c0.26-0.26,0.89-0.35,1.4-0.35H44.76z" />
				</g>
				<g>
					<path d="M14.13,28.04h0.04c1.09-0.09,2.2-0.17,3.34-0.24c-0.24-0.24-0.33-0.79-0.35-1.29V11.88c0.02-0.48,0.09-1.03,0.35-1.29
					h-0.35l0,0h-2.68l0,0h-0.35c0.24,0.26,0.33,0.81,0.35,1.31v14.83C14.46,27.23,14.37,27.78,14.13,28.04z" />
				</g>
				<g>
					<path d="M0.35,28.61c0,0.5-0.09,1.13-0.35,1.39c0.81-0.17,1.87-0.33,2.75-0.5v-1.39v-9.96l2.01,10.01
					c0.06,0.37,0.11,0.87-0.02,0.96c0.67-0.11,1.35-0.2,2.05-0.3c-0.09-0.13-0.06-0.54,0-0.85l1.98-10.01v10.58
					c0.85-0.09,1.92-0.2,2.81-0.28h0.02c-0.26-0.26-0.35-0.89-0.35-1.4V11.99c0-0.5,0.09-1.13,0.35-1.4h-0.35H8.98H8.05L5.87,21.89
					L3.66,10.58H2.72H0.35H0.04c0.17,0.18,0.28,0.52,0.31,0.87C0.35,11.45,0.35,28.61,0.35,28.61z" />
				</g>
				<g>
					<path d="M31.35,11.99v14.06l0,0c0,0.5-0.07,1.11-0.33,1.39c1.13,0,2.24,0.02,3.34,0.06c-0.2-0.24-0.3-0.72-0.31-1.16v-5.95h2.84
					v5.76l0,0c0,0.5-0.09,1.11-0.33,1.39c1.13,0.04,2.25,0.07,3.36,0.13c-0.22-0.24-0.31-0.72-0.33-1.16v-14.7
					c0.02-0.46,0.11-0.96,0.35-1.18h-0.35l0,0h-2.68l0,0h-0.35c0.26,0.26,0.35,0.89,0.35,1.4l0,0v5.91h-2.84v-6.13
					c0.02-0.46,0.11-0.96,0.35-1.18h-0.35l0,0h-2.68l0,0h-0.35C31.27,10.86,31.35,11.47,31.35,11.99L31.35,11.99z" />
				</g>
			</g>
			<g>
				<path d="M28.3,25.14v-6.61h-2.73h-1.4v2.16v0.35c0.26-0.26,0.89-0.35,1.4-0.35h0.35v2.96c0,0.79-0.42,1.64-1.63,1.64
				s-1.63-0.85-1.63-1.64v-9.48c0-0.79,0.5-1.59,1.63-1.59c1.15,0,1.55,0.81,1.55,1.57v1.53c-0.02,0.26-0.04,0.5-0.09,0.55h0.09l0,0
				h2.33l0,0h0.35c-0.26-0.26-0.35-0.89-0.35-1.4v-0.41c0-2.62-1.42-4.12-3.88-4.12c-2.44,0-4.08,1.66-4.08,4.12v8.96
				c0,2.51,1.48,4.12,3.75,4.12c0.94,0,1.7-0.26,2.25-0.72c0.35,0.44,0.96,0.63,1.88,0.63h0.17h0.02h0.35
				c-0.26-0.26-0.35-0.89-0.35-1.4v-0.87L28.3,25.14L28.3,25.14z" />
			</g>
			<g>
				<path d="M57.86,10.58l-1.75,6.69l-1.79-6.69h-2.73l0,0h-0.3c0.24,0.15,0.42,0.5,0.55,0.89l2.77,9.18v7.04
				c0,0.48-0.07,1.03-0.31,1.31c1.13,0.17,2.22,0.33,3.25,0.52c-0.18-0.26-0.26-0.72-0.26-1.13v-7.74l2.94-9.18l0,0
				c0.13-0.37,0.33-0.74,0.57-0.89H57.86z" />
			</g>
		</g>
	</g>
</svg>
