<?xml version="1.0" encoding="utf-8"?>
<!-- Generator: Adobe Illustrator 26.3.1, SVG Export Plug-In . SVG Version: 6.00 Build 0)  -->
<svg class="social-icon" aria-labelledby='#twitter' version="1.1" id="Layer_1" xmlns="http://www.w3.org/2000/svg"
	xmlns:xlink="http://www.w3.org/1999/xlink" x="0px" y="0px" viewBox="0 0 36.93 30"
	style="enable-background:new 0 0 36.93 30;" xml:space="preserve">
	<title id='#twitter'>Twitter</title>
	<path d="M11.62,30c13.94,0,21.56-11.55,21.56-21.56c0-0.33-0.01-0.65-0.02-0.98c1.48-1.07,2.76-2.4,3.78-3.91
	c-1.38,0.61-2.85,1.02-4.35,1.19c1.58-0.95,2.76-2.43,3.33-4.19c-1.49,0.88-3.11,1.5-4.81,1.84c-2.87-3.05-7.67-3.2-10.72-0.33
	c-1.97,1.85-2.8,4.61-2.19,7.24C12.09,8.99,6.42,6.11,2.57,1.38C0.56,4.84,1.58,9.27,4.91,11.5c-1.2-0.04-2.38-0.36-3.43-0.95
	c0,0.03,0,0.06,0,0.1c0,3.61,2.54,6.71,6.08,7.43c-1.12,0.3-2.29,0.35-3.42,0.13c0.99,3.09,3.84,5.2,7.08,5.26
	c-2.68,2.11-6,3.25-9.41,3.24c-0.6,0-1.21-0.04-1.81-0.11C3.46,28.82,7.5,30,11.62,30" />
</svg>
