<?xml version="1.0" encoding="utf-8"?>
<!-- Generator: Adobe Illustrator 26.3.1, SVG Export Plug-In . SVG Version: 6.00 Build 0)  -->
<svg class="social-icon" aria-labelledby='#youTube' version="1.1" id="Layer_1" xmlns="http://www.w3.org/2000/svg"
	xmlns:xlink="http://www.w3.org/1999/xlink" x="0px" y="0px" viewBox="0 0 42.85 30"
	style="enable-background:new 0 0 42.85 30;" xml:space="preserve">
	<title id='#youTube'>YouTube</title>
	<g transform="translate(0 0)">
		<path d="M41.96,4.69c-0.5-1.85-1.94-3.29-3.79-3.79C34.83,0,21.43,0,21.43,0S8.03,0,4.68,0.9C2.84,1.39,1.39,2.84,0.9,4.69
		c-1.19,6.82-1.19,13.81,0,20.63c0.5,1.85,1.94,3.29,3.79,3.79C8.03,30,21.43,30,21.43,30s13.4,0,16.74-0.9
		c1.85-0.5,3.29-1.94,3.79-3.79C43.15,18.49,43.15,11.51,41.96,4.69z M17.14,21.43V8.57L28.28,15L17.14,21.43z" />
	</g>
</svg>
