<?xml version="1.0" encoding="utf-8"?>
<!-- Generator: Adobe Illustrator 26.3.1, SVG Export Plug-In . SVG Version: 6.00 Build 0)  -->
<svg version="1.1" id="Sparkles" xmlns="http://www.w3.org/2000/svg" xmlns:xlink="http://www.w3.org/1999/xlink" x="0px"
	y="0px" viewBox="0 0 1728 648" width="100%" height="100%" preserveAspectRatio="none"
	style="enable-background:new 0 0 1728 648;" xml:space="preserve">
	<path class="cloud"
		d="M1712.69,270.66c5.35-39.2-62.64-54.92-148.43-64.73c-4.23-0.5-8.42-1.04-12.49-1.62c-11.7-3.78-24.55-6.96-38.09-9.69
	c-7.05-4.1-7.82-9.36,2.05-16.24c25.98-18.1,67.25-32.17,80.86-53.5c21.8-32.32-30.24-59.91-117.27-62.57
	c-60.57-2.26-112.75,5.82-164.39,14.18c-32.21-1.54-65.85-1.13-97.13-0.36c-50.06,0.56-103.88,6.73-148.91-2.52
	c-34.3-6.72-63.65-16.93-93.11-26.84c-47.29-16.66-95.37-35.87-165.61-26.99c-44.26,4.49-83.46,17.07-125.5,25.22
	C613.9,59.1,536.85,58.88,470.19,49.77c-76.58-11.75-146.95-33.48-234.72-30.73c-72.12,1.71-120.02,23.15-121.76,51.51
	c-0.6,9.86,5.08,18.42,5.08,18.42c5.86,9.86,12.9,9.47,18.26,16.92c9.17,12.74,3.16,34.12,2.62,35.96
	c-6.41,21.79-27.22,29.95-48.33,41.03C50.59,204.27,7.09,227.1,4.16,253.65c-4.57,41.47,96.78,81.84,83.68,110.69
	c-8.02,17.67-39.98,31.06-60.18,46.5c-42.03,29.68-12.83,58.77,35.13,76.52c27.75,11.44,62.81,18.47,93.15,28.34
	c16.45,6.5,24.69,16.61,28.17,26.69c2.24,7.77-0.19,15.93,1.22,23.78c1.92,17.32,22.37,31.93,52.81,40.54
	c50.8,15.41,120.44,17.04,184.27,8.4c54.69-7.5,105.61-25.45,160.36-15.84c50.44,8.3,85.75,28.26,140,33.39
	c50.47,4.12,95.44-17.69,142.11-26.31c51.47-9.18,106.66-7.13,155.41-1.97c52.69,5.87,98.34,18.3,147.62,27.35
	c59.2,10.45,126.16,15.26,193.62,9.98c48.48-4.41,98.43-12.96,138.46-28.38c37.4-14.08-7.45-35.19,16.87-47.9
	c10.49-6.29,16.9-13.77,17.85-22c1.33-6.88-1.18-14.07,0.98-20.88c3.04-7.93,9.94-15.84,23.21-21.39
	c7.87-1.04,15.69-2.23,23.44-3.64c6.59-1.2,42.29-5.59,84.75-23.99c15.23-6.6,23.87-11.71,28.63-16.19
	c19.74-13.96,23.3-31.12-4.98-48.83c-20.33-13.76-52.39-25.83-60.58-41.43C1613.3,328.25,1705.13,306.34,1712.69,270.66z" />
</svg>
