<?xml version="1.0" encoding="utf-8"?>
<!-- Generator: Adobe Illustrator 26.3.1, SVG Export Plug-In . SVG Version: 6.00 Build 0)  -->
<svg version="1.1" xmlns="http://www.w3.org/2000/svg" xmlns:xlink="http://www.w3.org/1999/xlink" x="0px" y="0px"
	viewBox="0 0 1080 1080" style="enable-background:new 0 0 1080 1080;" xml:space="preserve">
	<style type="text/css">
		.st0 {
			fill: #F0F7FA;
		}

		.st1 {
			fill: $ {
				theme.colors.purple.c700
			}

			;
		}

		.st2 {
			fill: #6C6094;
		}

		.st3 {
			fill: #3B2D71;
		}

		.st4 {
			fill: #6A5E94;
		}

		.st5 {
			fill: #3B2E71;
		}

		.st6 {
			fill: #3C2E71;
		}

		.st7 {
			fill: #695E93;
		}

		.st8 {
			fill: #695E94;
		}

		.st9 {
			fill: #695D93;
		}

		.st10 {
			fill: #6A5F94;
		}

		.st11 {
			fill: #3C2F72;
		}

		.st12 {
			fill: #3E3173;
		}

		.st13 {
			fill: #FEFE5E;
		}

		.st14 {
			clip-path: url(#SVGID_00000022552501773517066720000015987187723077108388_);
			fill: #ECF5F8;
		}

		.st15 {
			fill: #504480;
		}

		.st16 {
			fill: #3B2C72;
		}
	</style>
	<g id="Suicide_Prevention_Begins_With_All_Of_Us">
		<path class="st0" d="M975.49,258.31c54.73,4.72,98.51,21.19,97.1,84.73c-2.98,58.16-59.92,105.08-47.3,165.16
		c5.97,23.95,26.84,39.2,40.39,58.65c28.07,37.03,11.08,81.24-18.34,111.61c-16.97,19.23-38.78,33.06-57.46,50.36
		c-10.07,11-14.77,26.15-16.46,40.72c-1.03,11.19,0.93,22.39,0.43,33.59c-0.34,24.59-12.53,47.45-31.34,62.99
		c-31.33,27.4-75.28,37.54-116.07,32.56c-34.95-4.39-68.05-23.92-102.18-4.23c-31.47,17.36-52.78,49.41-86.82,62.74
		c-31.69,11.48-61.23-14.14-91.17-21.02c-33-7.13-67.79,1.97-98.34,14.72c-33.02,14.19-61.25,36.81-91.94,55.1
		c-36.89,21.37-78.99,35.67-121.9,35.83c-30.87-0.75-62.89-7.15-88.96-24.35c-25.98-16.64-32.16-47.43-9.11-69.77
		c11.28-11.49,25.09-20.12,39.25-27.62c13.19-8.15,43.03-17.49,45.97-34.32c-1.48-22.65-50.92-17.71-67.42-18.37
		c-22.24,0.23-44.76,1.3-66.61-3.6c-19.67-4.15-38.74-11.98-54.79-24.21C9.83,823.94-3.18,795.8,0.67,768.44
		c3.49-19.33,15.1-36.38,27.39-51.3c24.6-27.24,60.46-42.9,81.11-74.06c16.18-21.6,13.09-50.23-2.97-70.91
		c-7.72-10.4-18.35-18.07-27.37-27.25c-14.52-14.09-24.98-35.54-16.25-55.43c19.78-50.36,73.39-73.12,120.29-91.84
		c12.7-5.42,25.22-12.74,33.46-24.09c3.16-4.79,6.6-12.46,1.37-16.99c-11.87-6.94-26.84-5.11-39.82-8.94
		c-27.23-6.03-38.34-21.99-23.83-48.45c27.04-50.96,89.86-62.82,142.3-69.27c31.68-4.84,66.01-2.23,94.02-20.31
		c21.34-13.31,39.38-30.99,57.5-48.24c29.05-28.76,58.47-61.2,103.33-56.62c28.21,1.34,53.62,14.62,80.61,21.36
		c45.46,11.86,94.15,2.87,135.83-17.44C815.48,83.5,858.86,45,914.49,38.99c55.15-6.91,89.45,30.66,77.3,85.26
		c-7.53,35.93-32.9,63.79-48.41,96.14C929.77,248.86,951.74,256.04,975.49,258.31z" />
		<g>
			<path class="st1" d="M598.59,744.57c3.35-11.03,13.7-21.09,20.96-24.67c6.39-3.15,20.06-7.64,27.09-8.8
			c1.31-0.22,4.04-0.79,5.28-0.33c1.96,0.72,5.49,3.63,6.21,5.59c1.16,3.17,1.05,10.36-0.23,13.48c-0.89,2.17-3.76,6.09-5.64,7.5
			c-3.28,2.47-11.12,5.31-14.81,7.1c-3.58,1.74-6.05,5.26-8.06,13.74c-0.51,2.16-0.41,5.16-1.13,6.31
			c-4.65,7.36-8.79,23.44-11.97,31.54c-2.12,5.39-7.68,16.21-10.14,21.45c-1.57,3.34-11.15,14.22-12.3,9.39
			c-0.19-0.81-0.01-3.78,0.16-5.03c0.33-2.42,0.35-7.32,0.42-9.77c0.13-4.32,0.68-12.95,0.8-17.27c0.06-1.97-0.02-5.92,0.04-7.89
			c0.12-4.61,0.87-13.8,1.03-18.41c0.07-1.97-0.06-5.92,0.02-7.88c0.09-2.09,0.55-6.25,0.75-8.33" />
			<path class="st2" d="M596.19,768.43" />
			<path class="st2" d="M307.52,713.11" />
			<path class="st3" d="M451.84,705.42c-0.02-1.03,0.21-3.49,0.52-5.16c2.14-23.2,2.27-46.52,3.94-69.75
			c1.37-19,9.72-33.87,28.45-40.65c4.87-1.76,8.49-1.02,11.6,3.19c2.56,3.47,4.68,7.37,6.35,11.35c2.81,6.7,5.03,13.64,7.66,20.41
			c0.87,2.23,2.01,4.45,3.47,6.33c2.02,2.62,4.68,2.63,6.33-0.21c1.49-2.57,2.69-5.64,2.88-8.56c0.33-4.96-0.16-9.99-0.44-14.98
			c-0.35-6.45-0.88-12.89-1.25-19.34c-0.29-5.18,1.92-9.42,6.41-11.65c6.32-3.14,12.85-6.12,19.6-8.11
			c7.04-2.07,10.62,0.87,10.66,8.24c0.05,9.2-0.53,18.41-1.11,28.17c-0.16,1.11-0.04,1.67,0.07,2.22
			c-0.26,7.16-0.52,14.31-1.06,22.04c-0.16,1.12-0.04,1.67,0.08,2.22c-0.46,12.29-0.92,24.58-1.79,37.43
			c-4.64,8.91-8.85,17.27-13.12,25.6c-4.23,8.26-9.5,15.69-17.13,21.25c-0.85,0.62-1.33,1.73-1.99,2.62
			c-4.58,1.39-8.12-0.63-10.43-4.16c-2.44-3.73-4.6-7.83-5.91-12.07c-2.62-8.46-4.53-17.13-6.84-25.69
			c-0.88-3.26-1.93-6.49-3.15-9.64c-0.63-1.62-1.59-3.22-2.77-4.49c-2.58-2.78-6.05-2.24-7.26,1.32c-0.96,2.85-1.64,6.02-1.47,8.99
			c0.6,10.61,1.52,21.21,2.52,31.79c0.42,4.49,1.54,8.91,1.99,13.39c0.53,5.21-1.67,9.9-7.08,12.7
			c-7.98-2.81-13.36-8.37-18.57-14.32C459.46,711.87,455.49,709.39,451.84,705.42z" />
			<path class="st4" d="M951.73,340.07c1.61,6.06,3.5,13.73,5.18,19.77c0.64,2.32,1.39,4.65,2.36,6.85c0.89,2.01,1.73,4.65,4.55,4.28
			c2.8-0.36,2.99-3.19,3.38-5.3c0.49-2.68,0.67-5.46,0.57-8.18c-0.31-8.54-0.73-18.26-0.64-27.26c1-0.47,1.42,0.76,1.88,0.65
			c10.32-2.63,19.08-0.08,26.36,7.74c1.15,1.24,2.88,0.83,4.3,1.82c-0.4,12.92-0.81,27.02-1.29,39.94
			c-0.56,15.03-1.2,30.05-1.9,45.07c-0.42,9.04-0.72,18.11-1.7,27.09c-0.46,4.24-1.77,8.65-3.78,12.4
			c-6.12,11.41-23.38,12.27-31.1,1.82c-4.12-5.58-6.38-12.04-7.73-18.7c-2.5-12.35-4.46-24.8-6.79-37.19
			c-1.22-6.5-2.6-12.99-4.21-19.41c-0.57-2.29-1.88-4.46-3.21-6.45c-0.61-0.91-2.19-1.84-3.14-1.67c-0.87,0.15-1.91,1.69-2.11,2.76
			c-0.57,3-1.16,6.09-1.01,9.11c0.69,14.04,1.59,28.07,2.49,42.1c0.24,3.71,0.87,7.39,1.16,11.09c0.55,6.98-2.92,10.73-9.91,10.68
			c-5.91-0.04-11.54-1.56-16.82-4.15c-4.32-2.11-7.11-5.63-7.87-10.43c-0.47-3.02-0.83-6.12-0.66-9.15
			c1.21-21.63,2.99-45.78,4.84-67.8c9.51-1.68,17.3-2.67,24.57-7.79C937.37,354.24,944.24,346.15,951.73,340.07z" />
			<path class="st5" d="M419.03,516.54c-1.74-9.02-4.24-17.98-5.03-27.09c-1.17-13.5-1.55-27.11-1.42-40.67
			c0.06-6.69,1.59-13.47,3.25-20c1.38-5.43,4.28-10.22,10.66-11.32c6.93-1.19,12.74,1.08,16.44,6.84c3.1,4.83,5.69,10.17,7.48,15.62
			c4.16,12.66,5.38,25.91,6.72,39.11c0.6,5.95,1.19,11.91,1.96,17.84c0.3,2.32,1.09,4.57,1.67,6.94c3.64-0.6,4.42-3.13,5-5.31
			c1.86-7.02,3.64-14.08,5.02-21.2c3.36-17.29,5.93-34.79,11.8-51.46c2.72-7.71,6.5-15.11,10.37-22.34
			c2.69-5.02,6.9-9.02,12.07-11.64c2.4-1.21,5.1-2.22,7.75-2.51c5.94-0.66,9.36,2.48,9.12,8.43c-1.88,47.19-12.07,92.2-35.61,133.63
			c-1.91,3.37-4.21,6.51-7.01,9.95c-5.26,0.48-9.61-0.29-13.94-1.9c-8.27-3.08-14.58-8.86-20.62-14.87
			C437.43,517.36,429.44,513.33,419.03,516.54z" />
			<path class="st5" d="M524.97,525.18c-3.11-6.62-3.57-13.79-3.51-20.84c0.21-22.45,0.57-44.91,1.44-67.35
			c0.41-10.46,1.74-20.93,3.33-31.29c1.85-12.1,6.91-22.54,18.12-28.94c11.04-6.3,22.67-11.05,35.32-12.81
			c4.27-0.6,8.73-0.87,12.99-0.35c6.63,0.81,8.89,3.97,8.42,10.6c-0.3,4.18-0.74,8.37-1.4,12.51c-2.11,13.27-9.74,21.85-22.48,25.92
			c-4.15,1.33-8.38,2.41-12.52,3.79c-4.65,1.55-7.65,5.86-7.7,10.67c-0.03,3.41,1.38,5.02,4.7,4.45c3.31-0.57,6.54-1.74,9.73-2.83
			c3.66-1.25,7.18-2.98,10.89-4.03c5.05-1.42,7.46,0.33,7.84,5.5c0.45,6.33-0.07,12.59-1.97,18.69c-1.74,5.57-5.12,9.71-10.51,11.98
			c-4.46,1.88-9.02,3.52-13.56,5.22c-5.45,2.04-8.77,7.65-7.86,13.4c0.63,3.96,2.9,5.35,6.53,3.53c4.47-2.24,8.73-4.89,13.43-7.02
			c-0.93,6.31-2.34,12.26-3.46,18.26c-1.6,8.58-3.26,17.1-7.69,24.8c-0.54,0.95-0.76,2.09-1.13,3.14
			c-3.17,1.42-6.33,2.84-10.17,4.09c-2.57-0.99-4.53-1.7-6.36-2.65c-4.83-2.49-9.61-2.64-14.65-0.47
			C530.31,524.18,527.57,524.52,524.97,525.18z" />
			<path class="st1" d="M368.24,357.09c-0.37-5.64-0.95-11.28-1.07-16.92c-0.49-22.95-0.93-45.9-1.19-68.86
			c-0.16-13.85,3.86-18.79,17.31-22.2c12.32-3.13,17.03,0.29,17.37,13.02c0.48,18.42,0.67,36.85,1.11,55.28
			c0.12,5,0.6,10,1.06,14.99c0.19,2.08,0.46,4.24,1.24,6.15c0.53,1.31,1.88,2.96,3.06,3.14c1.27,0.19,3.29-0.82,4.04-1.94
			c1.21-1.81,2.1-4.09,2.35-6.25c0.84-7.22,1.73-14.46,1.87-21.71c0.33-16.65,0.22-33.3,0.31-49.95c0.02-2.74,0.06-5.49,0.26-8.23
			c0.6-8.34,5.1-13.78,12.84-16.53c3.33-1.18,6.78-2.21,10.27-2.77c5.69-0.91,8.99,1.47,10.24,7.05c0.49,2.19,0.78,4.48,0.8,6.72
			c0.27,30.71,0.91,61.45-1.85,92.09c-0.91,10.1-2.93,20.12-4.83,30.11c-0.72,3.75-2.56,7.29-4.47,11.1
			c-3.36-2.43-6.35-4.85-8.89-7.67c-4.72-5.24-8.98-10.91-13.81-16.04c-3.81-4.05-8.63-6.86-14.33-7.22
			c-5.77-0.36-11.54-0.36-17.18,1.58C379.3,353.87,373.75,355.41,368.24,357.09z" />
			<path class="st3" d="M603.1,428.91c0.84-17.1,0.9-34.29,2.74-51.28c1.94-17.79,11.08-31.48,27.84-39.25
			c6.15-2.85,10.1-2.05,13.67,3.73c2.77,4.49,4.85,9.47,6.75,14.42c2.32,6.02,4.08,12.26,6.2,18.36c0.63,1.82,1.48,3.6,2.5,5.23
			c2.57,4.14,5.96,4.18,7.85-0.35c1.58-3.78,2.57-8.06,2.68-12.15c0.17-6.11-0.72-12.24-1.05-18.37c-0.26-4.84-0.35-9.68-0.5-14.53
			c-0.16-5.12,1.98-9.11,6.18-11.91c6.42-4.28,13.55-6.88,21.13-8c5.53-0.82,8.6,1.7,9.47,7.21c0.3,1.91,0.49,3.87,0.37,5.79
			c-1.09,18.88-2.25,37.75-3.83,57.05c-1.86,1.93-3.59,3.24-4.64,4.96c-6.17,10.18-12.27,20.41-18.23,30.71
			c-4.24,7.34-9.52,13.53-17.96,15.87c-4.6,1.28-9.46,1.65-14.2,2.42c-1.25-5.1-2.37-10.25-3.81-15.3c-0.7-2.45-1.72-4.92-3.14-7
			c-0.87-1.28-2.94-2.75-4.17-2.52c-1.52,0.29-3.61,2.07-3.9,3.52c-0.93,4.54-1.14,9.22-1.6,13.85c-0.08,0.8-0.02,1.61-0.43,2.85
			c-4.34-1.36-8.26-3.18-12.21-4.93c-4.19-1.87-8.45-2.98-13.05-1.36C606.29,428.49,604.67,428.6,603.1,428.91z" />
			<path class="st6" d="M529.89,885.86c-9.04,0.45-15.83-3.66-21.1-10.62c-4.49-5.93-7.08-12.77-8.12-20.02
			c-4.35-30.22-0.52-59.06,16.34-85.11c9.81-15.16,23.95-24.76,41.94-27.93c10.33-1.82,18.34,2.07,23.77,11.11
			c4.6,7.66,6.38,16.18,7.33,24.89c1.59,14.53,0.93,29.21-1.13,43.66c-0.4,2.8-1.52,5.46-2.31,8.68
			c-9.24,2.51-17.31,0.55-25.37-2.72c-0.15-0.06-0.31-0.09-0.47-0.14c-6.77-2.1-11.26-0.38-14.63,5.76
			c-4.07,7.41-6.61,15.35-8.52,23.57C535.36,866.7,534.21,876.71,529.89,885.86z M549.72,825.95c9.86-7.44,11.26-18.01,10.2-29.13
			c-0.62-6.57-5.16-9-11.55-7.04c-6.61,2.03-11.66,6.14-15.34,11.94c-3.68,5.79-4.39,12.09-2.84,18.64
			c1.73,7.33,7.59,10.55,14.78,8.22C546.45,828.1,547.78,827.15,549.72,825.95z" />
			<path class="st7" d="M802.41,545.4c0.02,3.38,0.16,6.77,0.05,10.14c-0.58,17.12-1.23,34.23-1.86,51.34
			c-0.24,6.5-1.22,12.85-3.83,18.88c-4.71,10.85-16.94,18.02-28.68,16.69c-5.54-0.63-9.75-3.72-12.5-8.29
			c-2.82-4.67-4.89-9.79-7.3-14.71c-1.03-2.1-0.82-5.66-3.26-6.49c-3.26-1.11-3.37,4.09-4.3,6.19c-2.66,6.05-4.75,12.41-7.93,18.16
			c-6.21,11.21-16.23,16.24-28.96,15.86c-7.17-0.22-12.47-3.6-14.86-10.41c-1.37-3.9-2.49-8.18-2.39-12.26
			c0.58-22.93,1.98-49.64,3.37-72.97c5.26-0.73,9.02,4.45,12.75,7.31c3.44,2.64,6.9,5.26,10.32,7.93
			c8.25,6.45,16.57,12.77,26.57,16.4c4.95,1.8,9.87,2.57,15.09,1.07c6.2-1.78,11.69-4.9,15.98-9.53
			c7.97-8.6,15.46-17.64,23.23-26.43C796.62,551.21,799.57,548.35,802.41,545.4z" />
			<path class="st5" d="M802.52,546.26c-2.95,3.36-5.9,4.96-8.62,8.03c-7.77,8.79-15.26,17.83-23.23,26.43
			c-4.29,4.63-9.78,7.75-15.98,9.53c-5.22,1.5-10.14,0.73-15.09-1.07c-10-3.63-18.32-9.95-26.57-16.4
			c-3.42-2.67-6.88-5.29-10.32-7.93c-3.72-2.86-7.91-2.98-13.03-2.65c0.16-13.38,0.47-28.05,1.38-41.41
			c0.57-8.32,5.34-14.11,13.18-17c3.46-1.27,7.1-2.42,10.74-2.73c10.14-0.85,16.39,5.49,15.53,15.62c-0.33,3.83-1.2,7.67-2.33,11.36
			c-1.89,6.17-4.28,12.19-6.26,18.34c-1.03,3.21-1.9,6.53-2.36,9.87c-0.47,3.34,1.03,5.43,3.56,6.02c2.95,0.68,4.62-0.93,5.68-3.35
			c1.36-3.11,2.53-6.29,3.82-9.43c1.17-2.84,2.19-5.76,3.63-8.45c3.82-7.13,12.74-8.26,18.15-2.16c1.88,2.11,3.03,4.91,4.32,7.5
			c0.86,1.73,1.15,3.74,2.07,5.42c0.61,1.12,1.52,2.92,2.86,2.81c1.37-0.11,2.13-2.09,2.4-3.31c0.56-2.49,0.88-5.13,0.74-7.68
			c-0.61-10.65-1.45-21.28-2.14-31.92c-0.16-2.41-0.17-4.85-0.02-7.26c0.45-7.15,4.22-12.11,10.6-15.02
			c6.3-2.88,13.01-3.83,19.89-3.19c4.86,0.45,7.8,2.81,8.85,7.59c0.69,3.11,0.88,6.41,0.74,9.61
			C804.12,517.15,803.34,532.13,802.52,546.26z" />
			<path class="st5" d="M328.74,527.87c-0.01-5.65-0.21-11.31,0.01-16.95c0.66-16.15,1.32-32.31,2.36-48.44
			c0.31-4.79,1.59-9.57,2.9-14.22c2.34-8.29,7.81-13.61,16.23-15.72c13.67-3.44,27.44-4.31,41.35-1.62
			c1.74,0.34,3.47,0.82,5.13,1.44c7.45,2.75,9.93,6.39,9.47,14.33c-0.26,4.35-0.63,8.73-1.5,12.99
			c-2.49,12.18-8.91,17.75-21.34,18.73c-4.03,0.32-8.09,0.13-12.12,0.4c-4.73,0.31-7.39,2.98-7.95,7.59
			c-0.47,3.89,1.16,6.48,5.09,6.75c3.83,0.26,7.72-0.22,11.57-0.51c3.06-0.23,6.1-0.9,9.15-0.93c4.52-0.04,6.73,1.68,7.4,6.07
			c1.09,7.13,0.55,14.2-2.18,20.97c-1.64,4.07-4.83,6.52-9.04,7.32c-4.6,0.88-9.26,1.42-13.91,1.98
			c-6.57,0.78-10.33,9.12-6.61,14.66c1.59,2.37,3.79,2.34,6.02,1.66c4.64-1.4,9.22-3.01,14.14-4.23
			c-3.77,6.41-9.63,10.52-16.32,12.83c-8.15,2.81-16.31,2.15-23.02-4.16c-3.03-2.85-5.82-6.01-8.42-9.28
			C334.17,535.79,331.53,531.77,328.74,527.87z" />
			<path class="st5" d="M799.55,756.23c-4.86-2.95-8.35-7.18-10.6-12.29c-5.15-11.67-6.25-23.81-2.26-35.96
			c9.29-28.28,42.75-36.4,64.79-15.96c9.54,8.85,13.52,19.82,12.8,32.66c-0.33,5.95-4.6,11.38-10.1,12.86
			c-6.58,1.77-12.92-0.22-16.27-5.53c-1.88-2.99-3.09-6.39-4.77-9.52c-1.89-3.55-4.62-4.63-8.01-3.35
			c-0.73,0.28-1.47,0.71-2.03,1.25c-3.32,3.19-3.25,11.5,0.29,14.51c2.08,1.76,4.51,3.12,6.8,4.62c4.6,3,9.38,5.75,13.78,9.02
			c11.2,8.33,17.73,19.53,19.44,33.4c1.14,9.23,0.64,18.41-1.98,27.39c-1.56,5.33-4.76,10.69-9.46,14.82
			c-2.03,0.6-2.6,0.53-3.95,1.05c-4.37,1.69-8.41,0.75-11.72-2.16c-8.34-7.32-14.88-16.55-16.63-27.3c4.1,0.09,7.79-4.68,8.73-8.05
			c0.73-2.63,1.25-5.36,1.46-8.08c0.58-7.35-0.88-9.65-7.69-12.75c-2.35-1.07-4.76-2-7.44-3.52c-0.61-1.26-0.82-2.06-1.26-2.7
			C809.98,755.59,804.81,755.76,799.55,756.23z" />
			<path class="st1" d="M313.81,722.03c-0.73-25.05,2.07-49.45,14.36-71.82c8.95-16.28,22.9-25.53,41.52-27.4
			c14.19-1.42,24.53,4.8,29.74,18.14c2.74,7.02,4.29,14.23,1.61,21.74c-3.01,8.44-12.21,14.27-21.03,13.17
			c-3.28-0.41-4.56-1.73-5.19-5.36c-1.44-8.3-3.32-9.63-11.66-8.21c-11.36,1.94-15.86,6.3-16.82,17.83
			c-0.75,9-0.88,18.08-0.66,27.11c0.1,4.09,1.29,8.32,2.77,12.18c2.05,5.32,5.34,6.9,10.79,5.59c3.26-0.78,6.48-2.03,9.47-3.55
			c1.42-0.72,2.74-2.37,3.31-3.9c1.17-3.1-0.51-4.94-3.81-4.67c-1.77,0.14-3.54,0.47-5.3,0.42c-5.28-0.16-8.41-2.91-8.23-8.09
			c0.14-4.13,0.99-8.33,2.18-12.3c1.25-4.16,4.56-6.64,8.86-7.41c9.7-1.73,19.4-3.44,29.14-4.94c5.06-0.78,8.25,1.56,8.57,6.81
			c0.32,5.12-0.36,10.3-1.05,15.86c-3.21,2.34-5.99,4.22-8.7,6.21c-9.85,7.19-19.24,15.1-29.6,21.46
			c-15.12,9.28-31.59,8.42-45.06-4.75C317.43,724.62,315.55,723.4,313.81,722.03z" />
			<path class="st8" d="M899.91,368.43c0,18.52-1.78,38.13-9.25,55.34c-4.35,10.01-11.06,17.94-22.11,20.91
			c-14.8,3.98-34.71,1.45-45.45-18.69c-5.03-9.44-7.03-20.87-8.17-31.37c-1.73-16.04-0.34-32.37,3.01-48.57
			c1.97-1.61,3.09-1.07,4.45-2.39c4.15-4.03,8.08-8.28,12.36-12.15c5.46-4.94,13.28-6.45,17.73-3.13c4.69,3.51,8.98,8.09,9.88,14.13
			c-10.22-0.52-16.91,6.53-18.41,14.06c-1.21,6.08-1.24,12.35,1.46,18.06c1.39,2.94,3.58,5.83,6.12,7.83
			c4.93,3.86,11.28,2.87,14.97-2.21c1.84-2.54,3.22-5.66,3.91-8.72c0.99-4.38,1.72-10.07,1.98-14.58c1.04,0.63,1.84,2.37,2.5,3.05
			C881.73,367.03,889.97,369.33,899.91,368.43z" />
			<path class="st4" d="M736.92,711c0.07,3.54,0.18,9.6,0.2,13.14c0.05,12.58,0,25.17,0.16,37.75c0.04,3.53,0.57,7.07,1.1,10.57
			c0.34,2.24,0.98,4.75,3.85,4.83c2.92,0.08,4.32-2.18,4.78-4.64c0.89-4.74,1.74-9.53,2.07-14.34c0.74-10.78,1.57-24.1,2.67-35.18
			c1.88,4.75,4.41,10.22,5.82,15.23c1.64,5.84,2.96,11.83,5.25,17.41c2.66,6.48,5.64,10.45,12.38,8.84
			c2.02-0.48,4.44-2.74,6.44-3.27c-0.15,5.14,0.09,10.33-0.52,15.42c-1.2,9.93-3.13,21.52-4.86,31.37
			c-0.61,3.45-2.01,6.82-3.46,10.05c-3.51,7.83-9.54,12.94-17.81,15.23c-8.95,2.48-18.08,3.45-27.36,2.57
			c-7.89-0.74-14.09-4.49-16.91-11.91c-2.39-6.28-4.55-12.96-5.01-19.59c-1.16-16.75-1.31-33.57-1.41-50.91
			c0.94-1.37,1.49-2.16,1.91-3.01c3.6-7.39,6.86-14.96,10.83-22.14C721.34,720.59,728,712.9,736.92,711z" />
			<path class="st8" d="M232.63,717.27c2.81,3.03,4.29,7.54,4.07,11.47c-0.47,8.54-0.88,17.11-1.97,25.58
			c-1.49,11.53-7.51,16.83-19.1,17.25c-14.02,0.51-27.68-1.89-41.02-6.02c-8.9-2.76-14.63-8.79-16.44-18.01
			c-1.11-5.68-2.16-11.48-2.29-17.24c-0.65-28.44,0.44-57.94,4.18-86.6c8.83-1.08,15.18,3.21,20.09,9.69
			c3.3,4.35,6.89,8.71,9.07,13.63c4.96,11.17,9.39,22.6,13.55,34.1c3.09,8.55,7.7,15.55,15.99,19.7
			C224.07,723.47,228.25,721.78,232.63,717.27z M203.23,747.35c7.47-3.59,4.43-21.2-5.53-23.95c-3.29-0.91-6.42,0.18-7.45,3.55
			c-1.05,3.43-1.78,7.3-1.3,10.79c0.57,4.12,2.7,7.63,6.65,9.22C198.84,748.27,201.37,748.25,203.23,747.35z" />
			<path class="st7" d="M716.42,250.5c-0.08,11.42-2.02,22.48-6.7,32.95c-4.42,9.9-11.89,16.83-21.72,21.12
			c-14.14,6.16-29.07,9.73-44.17,12.44c-8.28,1.48-13.48-1.92-15.73-10.01c-1.42-5.09-2.33-10.43-2.67-15.7
			c-0.6-9.18-0.58-18.39-0.29-27.96c1.68-1.42,2.97-2.34,3.97-3.52c8.61-10.19,16.55-20.99,26.66-29.82
			c7.67-6.7,15.74-12.7,26.47-13.77c13.36-1.34,21.58,3.83,25.51,13.97c2.09,5.4,3.8,10.94,5.83,16.36
			C714.12,248.05,713.95,250.29,716.42,250.5z M658.94,265.61c2.17,2.52,4.73,1.6,7.08,0.56c7.47-3.27,12.67-8.81,15.28-16.52
			c3.6-10.63-4.62-21.25-15.89-20.75c-4.05,0.18-6.52,1.77-7.18,5.83C656.62,244.78,656.08,254.88,658.94,265.61z" />
			<path class="st3" d="M279.24,323.54c-2.09-8.23-2.63-21.57-0.15-30.68c3.44-12.61,12.21-20.73,23.29-26.45
			c10.49-5.42,21.77-7.18,33.39-4.2c11.98,3.07,20.88,10.15,25.62,21.7c3.88,9.47,2.58,18.53-4.38,26.16
			c-2.28,2.5-5.61,4.4-8.82,5.63c-6.75,2.59-11.5,0.6-15.12-5.63c-1.06-1.81-1.87-3.76-2.93-5.57c-2.94-5-9.35-5.1-11.89,0.17
			c-2.99,6.2-3.76,13.68,4.94,16.75c5.32,1.88,10.59,3.94,15.79,6.15c14.04,5.96,22.7,17.24,24,33.28
			c-3.98,2.33-7.5,3.18-11.18,4.79c-7.63,3.35-15.7,8.69-24.31,4.85c0.35-1.61,0.33-4.55,0.32-5.99c-0.05-5.36-1.53-7.56-6.56-9.24
			c-2.57-0.86-6.62-2.26-9.65-3.43c-4.48-7.01-7-12.82-11.32-19.2c0,0-9.06-1.54-18.34-11.5
			C281.04,321.16,280.14,323.88,279.24,323.54z" />
			<path class="st6" d="M602.9,651.85c0.88-4.26,2.86-11.01,3.41-15.31c0.61-4.77-1.05-6.51-5.94-6.63c-3.22-0.08-6.46,0.3-9.68,0.34
			c-3.71,0.04-7.45,0.23-11.12-0.17c-9.59-1.03-15.36-6.08-17.51-15.48c-2.05-8.98-2.11-18.1,1.16-26.78
			c7.93-21.08,22.35-36.1,43.52-44.08c4.55-1.71,9.82-2.31,14.72-2.17c14.73,0.44,24.53,13.55,21.1,27.85
			c-2.38,9.92-8.33,17.03-17.98,20.7c-5.37,2.04-8.39,0.85-11.4-4.07c-0.25-0.41-0.49-0.84-0.73-1.26
			c-3.15-5.35-5.62-5.79-10.24-1.7c-3.87,3.43-4.67,8.03-4.25,12.83c0.1,1.08,1.56,2.42,2.71,2.94c1.57,0.71,3.42,0.84,5.18,1.07
			c4.81,0.62,9.68,0.86,14.42,1.79c12.44,2.47,18.32,10.58,19.8,23.64c-1.06,1.5-1.79,0.85-2.45,1.92
			c-2.62,4.19-4.83,8.71-7.92,12.52c-4.07,5.02-9.2,8.96-16.02,9.51C610.36,649.6,606.2,651.87,602.9,651.85z" />
			<path class="st5" d="M721.5,264.21c-0.12-0.8-0.35-1.59-0.34-2.39c0.29-22.61,0.46-45.22,1.04-67.82
			c0.13-5.09,1.42-10.23,2.72-15.2c1.94-7.4,7.02-11.95,14.48-13.37c14.74-2.81,29.27-1.95,43.37,3.48
			c2.23,0.86,4.35,2.14,6.35,3.47c3.46,2.3,5.46,5.49,5.02,9.81c-0.43,4.32-0.56,8.73-1.55,12.93c-1.47,6.18-5.82,9.68-12.19,9.91
			c-4.82,0.17-9.66-0.32-14.49-0.56c-1.93-0.09-3.87-0.45-5.79-0.39c-3.29,0.1-5.41,2.11-5.93,5.3c-0.53,3.26,0.8,5.64,4.35,6.43
			c3.27,0.73,6.7,0.78,10.07,1.05c3.53,0.28,7.13,0.14,10.6,0.74c4.42,0.77,6.65,3.09,6.88,7.54c0.23,4.47,0.12,9.07-0.67,13.47
			c-1.13,6.31-4.31,8.72-10.79,8.94c-3.71,0.13-7.43-0.16-11.14-0.28c-7.26-0.25-10.95,5.62-7.57,12.16
			c0.54,1.05,1.56,1.86,2.67,3.19c-3.42,2.46-7.04,4.77-10.91,6.52c-7.99,3.61-15.56,2.65-22.53-2.76
			C724.06,265.51,722.73,264.92,721.5,264.21z" />
			<path class="st4" d="M319.59,508.72c-2,5.94-6.79,10.24-12.13,12.84c-5.92,2.88-6.3,3.68-2.66,9.32
			c3.51,5.43,7.41,10.6,11.01,15.97c1.89,2.81,3.56,5.78,5.21,8.74c4.79,8.59,4.31,17.72,2.47,26.91c-0.79,3.98-3.33,6.85-7.23,7.72
			c-5.02,1.12-10.15,1.87-15.27,2.26c-3.42,0.26-6.39-1.62-8.09-4.56c-2.09-3.61-4.23-7.36-5.33-11.33
			c-2.62-9.49-4.59-19.16-6.93-28.73c-0.69-2.82-1.47-5.65-2.63-8.3c-0.69-1.57-2.19-2.78-3.33-4.15c-0.46,0.11-0.93,0.22-1.39,0.33
			c-0.54,2.08-1.46,4.16-1.54,6.26c-0.23,6.62-0.2,13.25-0.15,19.87c0.04,6.47,0.33,12.93,0.31,19.4
			c-0.02,5.51-2.57,8.78-7.92,10.12c-5.62,1.41-11.23,1.01-16.7-0.95c-3.78-1.36-6.34-4.06-7.21-7.91
			c-0.73-3.28-1.14-6.71-1.11-10.06c0.17-15.84,0.96-37.16,1.72-53.47c3.22-1.73,5.63,2.64,8.29,1.19
			c11.7-6.39,22.69-14.21,35.52-18.33c4.68-1.5,9.72-2.8,14.56-2.67c6.38,0.17,12.06,3.07,16.48,8.05
			C316.49,508.29,318.31,507.95,319.59,508.72z" />
			<path class="st6" d="M910.88,579.32c0.25-9.68,0.41-19.37,0.77-29.05c0.44-11.79,0.92-23.57,1.61-35.35
			c0.72-12.31,5.89-15.68,17.63-11.81c11.45,3.78,16.67,11.08,16.11,23.42c-0.35,7.74-1.37,15.44-2.07,23.17
			c-0.36,3.98,0.24,7.75,2.84,10.97c0.6,0.75,1.31,1.44,2.07,2.03c4.32,3.32,6.84,2.7,7.88-2.6c1.17-5.99,1.37-12.17,2.28-18.23
			c0.73-4.91,1.31-9.97,2.98-14.6c2.47-6.87,7.61-10.49,13.4-9.93c7.28,0.71,13.72,3.48,16.32,10.94c1.3,3.72,1.75,8.01,1.69,11.98
			c-0.56,35.38-1.32,71.44-2.41,107.14c-0.81-0.73-1.93-3.25-2.38-4.75c-3.14-10.65-6.09-21.36-9.32-31.98
			c-2.95-9.69-5.4-19.59-10.96-28.3c-4.65-7.28-11.16-11.39-19.78-10.57c-7.15,0.68-14.21,2.42-21.29,3.82
			C922.44,576.75,916.67,578.08,910.88,579.32z" />
			<path class="st4" d="M910.91,578.33c5.93-1.69,11.53-1.58,17.34-2.72c7.08-1.39,14.13-3.14,21.29-3.82
			c8.62-0.82,15.13,3.3,19.78,10.57c5.56,8.71,8.02,18.6,10.96,28.3c3.23,10.62,6.81,21.17,9.32,31.98c0.32,1.36,1.49,1.7,2.43,3.24
			c0.13,5.4,0.27,11.93-0.46,17.14c-0.81,5.79-4.47,8.06-10.43,7.57c-12.63-1.03-21.23-10.29-22.01-24.07
			c-0.35-6.28,0.05-12.61-0.36-18.89c-0.38-5.78-1.06-11.58-2.22-17.25c-0.97-4.75-3.27-6.25-7.81-6.49
			c-3.65-0.2-6.13,1.44-6.35,5.09c-0.25,4.15,0.05,8.37,0.49,12.52c0.67,6.25,1.93,12.45,2.42,18.71c0.26,3.3-0.16,6.81-1.05,10.01
			c-1.18,4.25-4.4,6.63-8.92,6.98c-6.48,0.5-12.55-0.94-18.15-4.14c-5.84-3.34-7.72-8.97-7.71-15.23
			c0.01-12.11,0.29-24.22,0.52-36.33C910.13,594.41,910.56,585.88,910.91,578.33z" />
			<path class="st5" d="M319.42,509.22c-1.36-0.42-2.92-0.93-3.86-1.99c-4.42-4.98-10.1-7.87-16.48-8.05
			c-4.84-0.13-9.88,1.16-14.56,2.67c-12.83,4.12-23.82,11.93-35.52,18.33c-2.65,1.45-5.49,2.56-8.59,3.84
			c-0.34-15.97-0.37-31.97-0.3-47.96c0.03-5.65,0.26-11.3,0.51-16.94c0.08-1.76,0.44-3.53,0.82-5.26
			c3.31-14.91,12.25-21.91,27.41-20.75c12.82,0.98,25.26,3.98,36.59,10.26c4.46,2.47,8.65,5.7,12.32,9.24
			c5.31,5.12,7.9,11.83,8.19,19.17c0.41,10.21-0.31,20.37-3.33,30.21C321.9,504.39,320.56,506.59,319.42,509.22z M279.09,489.32
			c5.85,2.18,11.18,1.26,13.64-2.36c3.21-4.71,1.52-16.17-2.92-19.8c-4.82-3.95-13.15-2.99-14.41,2.09
			C273.73,476.03,273.24,483.02,279.09,489.32z" />
			<path class="st1" d="M465.8,384.88c-1.24,0.34-2.47,0.81-3.73,1c-4.61,0.69-7.32-0.9-7.98-5.57c-1.4-9.99-1.43-20.03,1.56-29.77
			c0.69-2.26,2.59-4.59,4.58-5.89c2.45-1.6,3.07-3.42,3-6.02c-0.12-4.85-0.19-9.7-0.12-14.55c0.23-16.16,0.53-32.32,0.79-48.48
			c0.03-1.92,0-3.83,0-5.71c-6.7-0.79-8.96-2.29-9.7-8.84c-0.76-6.68-0.65-13.52-0.22-20.25c0.36-5.49,3.81-9.57,8.49-12.32
			c9.12-5.37,18.98-9,29.23-11.44c5.99-1.43,9.81,1.23,10.91,7.27c1.35,7.38,1.17,14.82-0.25,22.19c-0.85,4.42-3.4,7.45-7.67,9.27
			c-5.29,2.25-5.13,2.8-4.92,8.47c0.76,20.51,1.29,41.02,1.91,61.54c0.05,1.78,0.29,4.56,0.44,7.15c-1.54,4.99-3.49,8.11-4.91,12.35
			c-2.92,8.69-5.7,17.42-8.43,26.16c-1.6,5.15-5.29,8.28-9.69,10.89C467.91,383.04,466.89,384.02,465.8,384.88z" />
			<path class="st5" d="M505.94,329.56c-0.17-3.38-0.52-9.29-0.47-12.67c0.36-24.87,0.59-49.75,1.37-74.61
			c0.2-6.36,1.87-12.77,3.52-18.98c1.97-7.39,6.78-13.06,13.75-16.06c7.23-3.11,14.86-5.28,22.35-7.74c1.34-0.44,2.88-0.4,4.32-0.42
			c10.98-0.17,16.93,5.65,16.64,16.69c-0.1,3.83-0.75,7.73-1.74,11.44c-1.65,6.17-5.58,10.19-11.88,12.27
			c-14.2,4.68-17.35,8.86-17.97,23.86c-0.38,9.35-0.23,18.73-0.17,28.1c0.02,2.4,0.4,4.84,0.95,7.18c1.14,4.84,3.39,6.03,8.82,6.83
			c-0.71,7.77-3.97,14.48-7.83,20.61c-3.93,6.24-8.29,9.7-17.07,7.02C515.53,331.54,510.8,331.6,505.94,329.56z" />
			<path class="st6" d="M250.41,881.86c0.3-15.04,1.36-30.59,5.04-45.24c0.78-3.11,1.97-6.16,3.3-9.08
			c3.34-7.35,8.99-12.18,16.84-14.13c10.13-2.52,20.45-2.99,30.79-1.76c9.09,1.08,15.37,6.21,17.73,14.98
			c1.92,7.12,3.5,14.52,3.77,21.86c0.62,16.77,0.36,33.57-0.07,50.81c-9.76,0.72-17.92-2.6-25.46-7.45
			c-5.81-3.73-11.16-8.16-16.88-12.02c-8.45-5.7-17.49-6.95-26.97-2.65C255.76,878.42,253.11,880.49,250.41,881.86z M283.51,856.31
			c4.73,4.8,10.46,4.21,16.27,2.9c0.86-0.19,1.74-0.89,2.35-1.59c3.22-3.73,2.04-13.01-1.96-15.88c-3.99-2.87-11.62-2.96-15.11-0.19
			C281.4,844.45,280.57,850.35,283.51,856.31z" />
			<path class="st4" d="M285.4,739.85c5.92-0.47,12.48-3.25,17.77-2.71c10.6,1.08,10.6,12.93,10.56,21.11
			c-0.01,2.48-0.04,5.01-0.77,7.38c-1.09,3.55-3.73,5.58-7.13,6.75c-9.29,3.19-19.22,4.19-29,4.27c-6.98,0.05-16.04,0.9-22.69-1.67
			c-10.18-3.93-12.62-16.69-13.44-26.28c-1.05-12.29,0.16-24.88,0.76-37.17c0.03-0.67,0.08-1.37,0.45-1.93
			c0.36-0.55,0.98-0.87,1.57-1.17c5.8-2.93,11.31-6.09,16.94-9.25c5.05-2.83,11.76-6.54,17.73-6.54
			c11.94-1.54,18.07,8.38,25.29,16.35c0.65,0.72,1.25,1.58,2.1,2.07c0.47,0.28,1.65,0.56,1.85,1.47c0.13,0.58,0.07-0.17,0,0
			c-0.18,0.44-0.13,0.93-0.16,1.4c-0.09,1.54-0.95,3.31-1.61,4.68c-0.65,1.33-1.49,2.58-2.62,3.55c-2.49,2.16-5.94,2.62-9.12,2.72
			c-0.17,0-0.34,0.01-0.5,0.01c-3.86,0.06-7.73-0.01-11.59-0.23c-2.98-0.18-4.98,0.88-6.45,4.25c-2.05,3.09-1.96,5.47,0.14,7.71
			C278.23,739.52,281.69,740.14,285.4,739.85z" />
			<path class="st9" d="M201.06,515.38c-2.5,1.12-2.16,3.4-2.05,5.44c0.71,14.35,1.4,28.7,2.27,43.04
			c0.82,13.49-4.66,18.92-18.07,17.52c-1.44-0.15-2.87-0.47-4.28-0.81c-11.48-2.71-16.18-8.24-16.49-20
			c-0.2-7.75,0.1-15.5,0.1-23.26c0.01-26-0.02-52-0.02-78c0-2.1,0.64-6.97,0.95-9.68c3.55-2.43,6.04-1.83,9.31-3.42
			c7.5-3.64,14.75-2.39,18.47,6.11c0.77,1.77,1.4,3.62,1.88,5.48c1.99,7.73,1.95,15.62,2.06,23.54
			C195.37,492.98,196.3,504.52,201.06,515.38z" />
			<path class="st5" d="M716.53,252.22c-2.58,0.18-2.41-4.17-2.97-5.68c-2.03-5.42-3.74-10.96-5.83-16.36
			c-3.92-10.14-12.14-15.3-25.51-13.97c-10.73,1.07-18.8,7.07-26.47,13.77c-10.1,8.83-18.04,19.63-26.66,29.82
			c-1,1.18-2.54,4.3-4.04,5.38c-0.47-20.8-1.05-43.86,1.86-64.57c2.44-17.38,8.26-22.94,25.39-27.26
			c15.72-3.97,28.88,0.24,39.8,11.47C709.6,202.82,718.79,226.29,716.53,252.22z" />
			<path class="st4" d="M327.68,369.11c8.83,3.55,16.48-0.11,24.11-3.46c3.67-1.61,7.2-3.56,11.13-5.47
			c2.19,11.25,0.96,22.36-2.51,33.26c-7.68,24.13-28.63,34.38-48,34.69c-11.07,0.18-19.58-4.67-25.89-13.56
			c-3.8-5.35-6.2-11.33-7.05-17.85c-1.14-8.76-0.54-17.43,2.23-25.84c1.98-6,5.97-9.88,12.65-10.3c5.83-0.37,10.01,2.06,12.36,7.43
			c0.84,1.91,1.35,3.97,1.92,5.98c0.66,2.33,1.14,4.71,1.83,7.02c0.75,2.54,1.78,5.01,4.85,5.41c3.17,0.42,5.67-0.98,7.56-3.44
			C325.93,378.99,326.76,374.21,327.68,369.11z" />
			<path class="st5" d="M281.43,692.49c-10.81,0.5-20.27,5.9-28.72,11.42c-3.58,2.34-6.98,4.97-10.81,7.48
			c-0.36-1.02-0.36-2.04-0.04-3.7c1.84-9.41,0.78-20.17,1.55-29.77c0.82-10.19,0.89-20.78,4.55-30.47
			c1.73-4.57,4.38-8.96,8.57-11.65c5.76-3.71,14-3.4,20.59-3.4c12.36,0.01,24.81,2.19,36.11,7.21c8.68,3.85,6.42,15.43,4.72,22.94
			c-1.96,8.69-6.7,15.89-16.21,16.39c-5.89,0.31-11.84-0.48-17.76-0.73c-5.33-0.23-9.19,4.16-7.49,8.94
			C277.18,689.03,280.17,690.47,281.43,692.49z" />
			<path class="st10" d="M853.77,513.29c-0.35,2.53-0.63,6.14-1.28,8.6c-1.22,4.59-2.75,5.68-7.48,6.04
			c-4.28,0.33-4.59,0.67-4.61,4.94c-0.09,21.16-0.16,42.32-0.3,63.49c-0.02,3.23-0.14,6.04,4.2,6.85c1.34,0.25,3.01,2.65,3.25,4.26
			c1.34,8.99,1.41,18.02-1.02,26.89c-1,3.64-3.71,5.63-7.35,6.2c-9.04,1.41-18.05,0.58-26.97-0.97c-4.46-0.77-7.42-3.76-7.53-8.29
			c-0.19-7.39-0.2-14.84,0.56-22.18c0.68-6.57,1.83-7.3,7.94-9.77c0.12-0.86,0.32-1.81,0.37-2.76c1.05-21.61,2.09-43.22,3.12-64.84
			c0.03-0.64,0.23-2.95,0.14-3.99c3.14-2.12,6.12-2.03,8.9-3.85C834.19,518.33,843.36,513.28,853.77,513.29z" />
			<path class="st1" d="M233.04,717.72c-4.28,4.81-8.97,5.75-14.27,3.09c-8.29-4.16-12.9-11.15-15.99-19.7
			c-4.16-11.5-8.59-22.93-13.55-34.1c-2.19-4.92-5.77-9.28-9.07-13.63c-4.92-6.47-11.51-9.67-20.19-8.98
			c0.83-5.01,1.67-10.15,3.43-14.96c2.01-5.49,6.42-8.63,12.41-8.38c19.62,0.82,37.67,6.09,52.26,19.95
			c8.85,8.41,12.93,18.72,10.97,31.13c-1.78,11.29-7.95,18.82-18.62,22.76c-3.26,1.21-6.52,2.43-10.95,4.09
			c2.46,2.14,3.83,3.62,5.47,4.71c3.22,2.15,6.77,3.86,9.85,6.18C227.72,712.11,230.24,714.88,233.04,717.72z M206.22,656.24
			c-2.46-2.63-5.56-3.74-9.08-3.78c-2.49-0.03-4.44,0.93-5.14,3.49c-1.16,4.27-0.7,8.34,2.14,11.86c2.08,2.58,4.94,3.59,8.19,2.94
			c3.25-0.66,4.7-3.12,5.45-6.1C208.49,661.89,208.43,659.22,206.22,656.24z" />
			<path class="st11" d="M200.62,515.54c-5.16-11.02-5.25-22.56-5.41-34.19c-0.11-7.91-0.07-15.81-2.06-23.54
			c-0.48-1.87-1.1-3.72-1.88-5.48c-3.72-8.5-10.98-9.75-18.47-6.11c-3.28,1.59-6.18,3.94-9.56,5.95
			c-0.87-6.39,0.07-12.58,2.57-18.46c2.88-6.76,7.89-10.85,15.37-11.7c22.42-2.55,47.83,14.69,53.37,36.44
			c2.51,9.87,1.81,19.93,0.75,29.89c-0.54,5.09-1.65,10.24-3.31,15.08c-3.19,9.28-9.26,13.42-19.08,13.43
			C209.23,516.85,204.7,516.11,200.62,515.54z M198.82,472.38c-0.14,2.88,0.45,5.82,1.27,8.55c1.27,4.17,4.35,6.67,8.7,7.51
			c3.86,0.74,6.56-0.41,7.64-4.08c2.11-7.14,1.44-14.17-2.89-20.36c-3.27-4.68-9.62-4.27-12.48,0.69
			C199.9,466.72,198.98,469.15,198.82,472.38z" />
			<path class="st4" d="M250.46,881.02c2.9-1.71,5.29-2.6,8.05-3.85c9.48-4.3,18.51-3.05,26.97,2.65
			c5.73,3.86,11.08,8.29,16.88,12.02c7.54,4.84,15.79,7.58,25.46,7.29c0.31,8.2,0.48,17.03-0.16,25.2
			c-0.53,6.68-4.07,10.22-10.65,11.41c-3.92,0.71-8.05,0.91-12.02,0.59c-5.58-0.46-8.52-3.36-9.12-8.96
			c-0.53-4.96-0.22-10-0.45-14.99c-0.16-3.54-0.33-7.12-1-10.58c-0.67-3.46-2.44-4.77-5.22-4.7c-2.95,0.07-5.1,1.57-5.58,4.43
			c-0.87,5.24-1.44,10.54-1.96,15.84c-0.3,3.05-0.04,6.16-0.41,9.19c-0.82,6.65-4.36,10.25-11.04,10.76
			c-3.82,0.29-7.78,0.09-11.56-0.57c-6.84-1.19-9.65-4.58-9.89-11.68c-0.18-5.16,0.04-10.34,0.21-15.51
			C249.26,900.36,249.9,890.57,250.46,881.02z" />
			<path class="st4" d="M897.25,573.8c0.66,4.42,1.56,9.99,1.94,14.44c1.18,13.53,1.71,27.09-0.56,40.55
			c-0.66,3.92-2.03,7.8-3.64,11.45c-1.92,4.32-5.67,6.72-10.42,6.7c-10.06-0.03-17.29-3.61-20.26-13.21
			c-1.93-6.23-2.84-12.93-3.17-19.48c-0.93-18.2,2.26-36.01,6.09-53.71c1.46-6.78,3.16-13.51,4.68-20.28
			c0.42-1.85,0.62-3.75,0.96-5.85c-8.6-2.91-14.03-8.93-14.38-18.49c4.59,0.54,7.46,4.04,10.06,7.1
			c6.05,7.12,9.01,15.83,12.29,24.38c3.22,8.41,6.5,16.82,12.07,24.03C894.03,572.88,895.79,572.64,897.25,573.8z" />
			<path class="st5" d="M899.92,369.34c-10.03,1.34-18.19-2.3-25.03-9.33c-0.66-0.68-1.45-1.23-2.54-2.27
			c-1-7.21-3.21-12.94-10.44-15.24c-1.3-5.93-4.74-10.6-9.43-14.11c-4.45-3.33-12.27-1.81-17.73,3.13
			c-4.28,3.87-8.22,8.13-12.36,12.15c-1.36,1.32-2.9,2.47-4.69,3.73c2.06-13.94,6.1-27.31,14.84-38.76
			c8.68-11.37,20.27-16.15,34.45-14.01c10.69,1.62,18.1,7.96,23.23,17.21c6.25,11.27,8.44,23.64,9.36,36.26
			C900.09,355,899.9,361.95,899.92,369.34z" />
			<path class="st1" d="M395.5,856.9c0.21-15.84,1-31.64,3.73-47.28c0.08-0.48,0.24-0.94,0.35-1.41
			c3.14-13.66,7.48-18.61,24.45-21.16c6.2-0.93,9.05,1.57,9.9,7.75c0.96,7.04-0.22,13.85-2.32,20.54c-3.3,10.5-6.3,21.08-6.97,32.13
			c-0.36,5.96-0.56,11.96-0.27,17.92c0.47,9.63,3.65,11.81,13.2,9.7c2.05-0.45,4.06-1.07,6.11-1.54c5.4-1.24,8.2,0.15,9.42,5.41
			c1.95,8.4,2.12,16.7-3.95,24.34c-1.52-0.04-2.51-0.15-3.33-0.58c-7.72-4.03-14.77-9.03-21.31-14.78
			c-7.83-6.88-13.51-15.46-19.06-24.12C403.04,860.05,399.89,857.65,395.5,856.9z" />
			<path class="st10" d="M610.61,260.12c0.21,7.4,0.4,14.8,0.63,22.2c0.06,1.88,0.2,3.75,0.29,5.33c0.68,0.34,0.82,0.46,0.96,0.47
			c6.69,0.37,7.55,1.03,7.59,8c0.03,5.8-0.32,11.62-0.85,17.4c-0.58,6.39-3.67,11.64-9.57,14.2c-8.56,3.72-17.31,7.16-26.23,9.87
			c-6.75,2.04-9.35-0.11-10.1-7.04c-0.87-8.08-0.27-16.15,1.48-24.08c0.7-3.18,1.94-6.28,5.2-7.79c2.61-1.21,3.26-3.19,3.24-5.87
			c-0.09-10.5-0.14-21.01,0.01-31.51c0.13-8.88,0.57-17.76,1.37-27c5.63,0.22,9.36,3.14,12.31,7.07c1.71,2.28,2.92,4.94,4.5,7.33
			C604.14,252.78,606.09,257.49,610.61,260.12z" />
			<path class="st4" d="M603.46,649.48c3.59-0.14,6.91,0.12,10.19-0.15c6.82-0.56,11.95-4.49,16.02-9.51
			c3.09-3.81,5.3-8.33,7.92-12.52c0.67-1.07,1.39-2.1,2.4-3.22c2.17,13.85-0.58,26.91-7.5,39.01c-7.45,13.02-19.08,21.22-32.6,27
			c-6.86,2.93-13.86,5.27-21.5,5.06c-12-0.34-20.27-8.58-20.46-20.62c-0.11-6.84,0.77-13.53,3.21-19.95
			c2.72-7.14,7.67-11.83,15.2-13.59c5.62-1.31,9.09,0.68,10.73,6.17c0.64,2.16,0.97,4.42,1.65,6.57c1.45,4.58,4.08,5.73,7.98,2.92
			C599.23,654.83,601.04,652.01,603.46,649.48z" />
			<path class="st9" d="M368.14,355.91c5.6-2.1,11.16-2.04,16.6-3.91c5.63-1.93,11.41-1.94,17.18-1.58
			c5.7,0.35,10.52,3.17,14.33,7.22c4.83,5.13,9.09,10.8,13.81,16.04c2.54,2.82,6.37,3.98,9.51,6.66
			c-2.48,7.66-8.69,14.42-15.35,18.59c-8.72,5.45-18.31,8.72-28.54,9.88c-10.36,1.17-17.15-2.7-20.84-12.52
			c-2.14-5.69-3.58-11.72-4.6-17.71C369.09,371.77,368.75,363.22,368.14,355.91z" />
			<path class="st1" d="M777.81,396.37c1.31-17.89,2.62-35.77,3.93-53.66c0.1-1.42,0.24-2.83,0.37-4.49
			c-6.55-0.78-8.38-5.37-8.48-10.69c-0.11-5.95,0.17-11.95,0.87-17.86c0.71-5.95,4.35-9.96,10.1-11.87
			c8.06-2.67,16.4-3.71,24.84-3.48c5.48,0.15,8.71,3,9.79,8.39c1.66,8.24,0.77,16.42-1.43,24.45c-0.89,3.23-3.17,5.03-6.58,5.64
			c-5.63,1.01-5.5,1.11-5.52,6.93c-0.03,9.37-0.22,18.74-0.76,28.63c-1.44,1.94-2.4,3.43-3.51,4.8c-4.87,5.97-9.61,12.07-14.76,17.8
			C784.37,393.53,781.63,396.01,777.81,396.37z" />
			<path class="st1" d="M410.73,696.53c0.78-11.92,1.56-24.51,2.35-36.43c0.16-2.39,0.41-4.77,0.59-6.83
			c-2.41-1.02-5.02-1.36-6.22-2.84c-1.52-1.86-2.57-4.65-2.62-7.06c-0.11-5.94,0.17-11.92,0.87-17.82c0.62-5.25,3.69-9.27,8.3-11.9
			c9.06-5.18,18.95-8.23,29.08-10.35c5.2-1.09,8.42,1.35,9.35,6.67c1.41,8.08,0.62,16.1-1.69,23.94c-1.03,3.49-3.53,5.58-6.91,6.93
			c-5.52,2.21-5.36,2.42-5.37,8.19c-0.04,13.72-0.37,28.29-1.04,42.44c-8.45-1.77-15.65-0.88-22.59,3.21
			C413.64,695.38,412.02,695.96,410.73,696.53z" />
			<path class="st1" d="M723.88,370.54c1.62-7.06,3.24-14.12,5-21.81c-2.02,0-3.56,0.05-5.09-0.01c-5.76-0.2-9.52-3.09-10.52-8.82
			c-1.36-7.81-0.46-15.48,2.8-22.76c1.72-3.84,4.8-6.53,8.51-8.34c9.89-4.82,20.42-7.21,31.39-7.25
			c7.55-0.03,11.02,3.29,11.59,10.81c0.3,4,0.22,8.11-0.37,12.07c-1.26,8.49-6.01,14.64-14.08,17.68c-3.21,1.21-3.64,2.85-3.26,5.84
			c1.65,13.15,3.11,26.32,4.23,39.93c-2.33-0.86-4.41-1.99-6.15-3.5c-6.4-5.59-12.72-11.2-21.84-11.81
			C725.31,372.52,724.61,371.24,723.88,370.54z" />
			<path class="st6" d="M333.64,903.7c-1.34-9.77-0.91-23.76-0.38-33.58c0.82-15.3,2.27-30.57,3.47-45.86
			c0.05-0.64,0.17-1.28,0.32-1.91c3.18-13.68,6.73-18.63,24.86-19.62c5.61-0.31,8.29,2.19,9.32,7.77c1.2,6.51-0.01,12.81-1.64,19.13
			c-2.54,9.83-5.57,19.64-6.84,29.66c-1.09,8.53-1.29,19.11-0.2,27.3c-1.55,1.41-2.82,1.52-4,2.57
			C351.28,895.59,342.58,902.05,333.64,903.7z" />
			<path class="st4" d="M724.07,369.98c0.97,0.42,2.08,2.12,2.86,2.17c9.12,0.61,14.6,6.64,21,12.23c1.74,1.52,3.82,1.38,6.12,2.7
			c0.55,7.73,1.12,16.72,0.79,24.41c-0.39,9.34-1.48,18.65-4.58,27.6c-3.5,10.1-10.35,16.1-21.02,17.59
			c-6.13,0.86-10.68-1.44-12.53-7.32c-1.34-4.25-2.04-8.81-2.28-13.28c-0.85-16.25,1.84-32.17,5.12-48
			C720.73,382.4,722.54,375.92,724.07,369.98z" />
			<path class="st8" d="M313.69,721.62c1.85,0.94,3.73,3,5.3,4.54c13.47,13.17,29.94,14.02,45.06,4.75
			c10.36-6.35,19.67-14.18,29.51-21.37c2.71-1.98,5.75-4.79,8.83-6.75c-1.01,19.12-6.28,37.7-20.18,51.74
			c-9.51,9.6-21.52,14.12-34.86,14.74c-12.77,0.59-22.02-5.35-27.58-16.76C315.25,743.19,313.71,732.33,313.69,721.62z" />
			<path class="st10" d="M328.74,526.37c2.96,3.46,5.43,9.42,8.41,13.16c2.6,3.26,5.39,6.42,8.42,9.28c6.7,6.3,14.87,6.97,23.02,4.16
			c6.69-2.31,12.04-6.41,16.17-12.85c2.56-0.75,5.56-1.42,8.09-1.54c4.58-0.23,7.74,2.13,9.28,6.35c2.56,7.01,2.29,14.31,1.26,21.51
			c-0.29,2.03-1.86,4.21-3.45,5.65c-2.35,2.13-5.05,4.13-7.94,5.37c-13.92,5.97-28.53,9.24-43.66,9.75
			c-9.37,0.32-14.43-3.18-16.53-12.3c-1.84-7.96-2.59-16.22-3.19-24.39C328.09,543.29,328.61,534.07,328.74,526.37z" />
			<path class="st4" d="M593.74,826.29c4.86-2.04,7.97-5.7,10.14-9.74c3.65-6.79,6.76-13.9,9.71-21.03
			c4.44-10.73,8.51-21.6,12.81-32.39c0.59-1.46,1.65-2.74,2.85-4.22c2.12,1.65,4.04,1.9,6.52,1.3c3.26-0.79,6.67-1.34,10-1.3
			c4.29,0.05,6.87,2.73,7.21,7c0.48,6.06-1.36,11.36-6.68,14.62c-3.81,2.34-7.94,4.46-12.22,5.68c-5.21,1.49-7.52,4.37-7.51,9.66
			c0.02,10-0.1,20.01-0.2,30.01c-0.07,6.61,0.08,13.25-0.39,19.83c-0.57,7.92-4.49,13.67-12.93,16.27c-1.27,0.3-1.9,0.64-2.53,0.98
			c-1.72,0.55-3.44,1.1-5.85,1.37c-2.91-0.32-5.12-0.37-7.33-0.41c-2.85-0.67-3.46-3.05-3.85-6.05c0.11-5.88-0.06-11.1-0.22-16.32
			C593.36,836.59,593.45,831.62,593.74,826.29z" />
			<path class="st1" d="M897.39,574.52c-1.6-0.7-3.36-1.63-4.47-3.07c-5.58-7.21-8.85-15.63-12.07-24.03
			c-3.28-8.55-6.24-17.27-12.29-24.38c-2.6-3.05-5.55-5.8-10.05-6.72c-1.28-6-0.59-11.88,1.14-17.64c1.51-5.04,5.07-7.95,10.21-8.27
			c11.16-0.68,21.84,1.47,31.74,6.78c4.37,2.34,7.23,6.26,7.71,11.13c0.56,5.73,0.84,11.61,0.18,17.3
			c-0.99,8.58-5.57,12.14-14.34,12.48c-0.47,0.02-0.94,0.14-2.11,0.32C893.77,550.38,896.55,562.12,897.39,574.52z" />
			<path class="st4" d="M649.71,436.72c4.7-1.17,9.98,0.99,14.58-0.29c8.44-2.34,13.72-8.54,17.96-15.87
			c5.96-10.31,12.05-20.54,18.23-30.71c1.05-1.72,3.2-5.56,4.94-7.09c0.12,5.6-0.41,13.77-0.73,19.39
			c-0.61,10.81-0.97,21.65-2.09,32.42c-1.92,18.49-11.06,32.1-28.43,39.66c-6.66,2.9-11.06,1.69-14.77-4.63
			c-1.94-3.31-3.51-6.95-4.57-10.64C653,452.59,651.27,443.56,649.71,436.72z" />
			<path class="st4" d="M721.37,263.38c1.36,0.28,2.68,0.86,3.79,1.72c6.98,5.42,14.55,6.37,22.53,2.76
			c3.87-1.75,7.48-4.05,11.26-6.44c5-1.12,9.92-2.04,14.89-2.62c2.69-0.32,5.49-0.35,8.18,0c4.94,0.66,8.21,3.67,9.81,8.32
			c2.14,6.23,2.43,12.7,1.71,19.17c-0.47,4.26-3.22,7.15-7.21,8.32c-4.16,1.22-8.46,2.3-12.76,2.64
			c-10.79,0.85-21.61,1.61-32.42,1.73c-10.07,0.11-15.05-3.77-17.23-13.59C722.36,278.36,722.09,271.02,721.37,263.38z" />
			<path class="st10" d="M602.97,428.08c1.7-0.74,3.33,0.41,4.81-0.12c4.6-1.62,8.86-0.51,13.05,1.36c3.95,1.76,8.29,1.89,12.55,3.68
			c1.93,14.09,3.2,29.84,4.67,43.94c0.48,4.59-1.5,8.59-4.59,11.84c-6.62,6.97-14.91,11.22-24.11,13.62
			c-4.63,1.21-7.56-0.81-8.47-5.5c-0.52-2.66-0.71-5.45-0.6-8.17C601.07,469.08,601.97,448.16,602.97,428.08z" />
			<path class="st1" d="M610.6,260.43c-4.6-2.18-6.46-7.65-9.16-11.73c-1.58-2.39-2.79-5.05-4.5-7.33
			c-2.95-3.93-6.85-5.75-12.34-6.36c0.09-1.72-0.03-3.96-0.11-5.35c-6.4-1.14-9.14-3.08-9.92-9.55c-0.67-5.56-0.62-11.26-0.31-16.87
			c0.32-5.74,3.55-9.99,8.65-12.61c8.86-4.54,18.36-7.16,28.17-8.47c6.03-0.81,9.99,1.99,10.6,8c0.64,6.37,0.35,12.88-0.1,19.29
			c-0.31,4.34-3.07,7.21-7.4,8.65c-5.28,1.75-5.13,2-4.83,7.74C609.93,236.95,610.22,248.85,610.6,260.43z" />
			<path class="st5" d="M781.6,763.59c-2.15,0.96-4.15,1.53-6.17,2.02c-6.74,1.61-11.41-1.52-14.07-7.99
			c-2.29-5.58-3.61-11.57-5.25-17.41c-1.41-5.01-2.68-10.06-4.36-15.16c-0.18-9.11-0.44-18.18,0.25-27.18
			c0.95-12.46,12.94-19.61,24.66-15.2c2.75,1.04,4.71,2.95,5.5,5.73c0.65,2.31,1.24,4.75,1.19,7.12
			C782.9,717.65,782.3,741.03,781.6,763.59z" />
			<path class="st10" d="M821.79,795.29c2.16,10.78,6.17,20.43,14.51,27.75c3.31,2.91,7.35,3.6,11.72,1.91
			c1.34-0.52,2.76-0.87,4.51-1.29c-2.47,4.02-6.69,6.38-11.14,7.75c-11.4,3.5-22.93,3.74-34.24-0.29
			c-14.32-5.1-23.92-19.14-23.92-34.32c0-6.66,0.53-13.27,3.18-19.45c3.05-7.11,8.98-9.79,16.17-7.63c5.12,1.53,7.3,5.57,8.62,10.24
			c0.87,3.1,1.31,6.33,2.2,9.42C814.79,794.16,816.15,795.07,821.79,795.29z" />
			<path class="st10" d="M777.84,396.28c3.96-0.69,6.69-3.17,8.99-5.73c5.15-5.73,9.81-11.91,14.68-17.88
			c1.11-1.36,2.07-2.85,3.4-4.36c-0.05,9.1-0.31,18.36-0.67,27.54c-0.06,1.61-0.18,3.22-0.33,4.83c-0.23,2.46,0.54,4.13,3.25,4.36
			c3.03,0.26,4.16,2.31,4.32,4.94c0.5,8.42,0.16,16.79-1.93,25.01c-1.17,4.61-4.12,8.03-8.76,8.77c-8.42,1.33-16.93,2.43-25.43,2.75
			c-5.85,0.22-8.23-2.6-8.52-8.33c-0.39-7.92-0.1-15.83,1.98-23.55c0.9-3.36,2.28-6.27,6.03-7.6c1.13-0.4,2.13-2.28,2.43-3.64
			C777.76,401.18,777.6,398.86,777.84,396.28z" />
			<path class="st10" d="M410.78,695.76c1.49-0.78,2.86-0.38,4.04-1.07c6.95-4.09,14.22-5.82,22.59-3.63
			c0.42,6.22,0.42,12.44,0.42,18.41c0.69,0.42,0.96,0.74,1.22,0.73c5.88-0.22,7.06,0.44,7.02,6.15c-0.04,6.26-0.69,12.55-1.52,18.76
			c-0.63,4.72-3.4,8.38-7.63,10.63c-9.21,4.91-19.13,7.76-29.43,9.06c-4.94,0.62-7.4-1.39-7.94-6.33
			c-0.87-7.92-0.43-15.86,2.33-23.39c0.81-2.2,2.83-4.42,4.89-5.59c2.42-1.37,2.97-2.98,3.03-5.42
			C409.93,708.28,410.41,701.97,410.78,695.76z" />
			<path class="st6" d="M952.09,341.28c-7.51,6.47-14.72,12.96-22.59,18.51c-7.26,5.12-15.48,8.63-24.79,9.9
			c0.43-14.03,0.97-28.07,2.13-42.05c0.36-4.39,1.86-8.9,3.75-12.92c4.46-9.49,14.78-13.63,24.46-9.75
			c2.76,1.11,5.49,3.67,6.97,6.28c2.6,4.58,4.51,9.63,6.2,14.65C949.86,330.79,950.84,335.89,952.09,341.28z" />
			<path class="st10" d="M333.2,899.42c10.05-0.36,18.08-3.84,25.34-10.27c1.18-1.05,2.45-2,4-3c2.59,3.53,5.91,4.68,9.91,4.15
			c3.2-0.42,6.39-0.97,9.59-1.38c4.32-0.55,6.39,0.6,8.12,4.4c3.93,8.62,2.08,20.46-4.69,27.09c-2.72,2.67-5.95,5.09-9.38,6.73
			c-8.96,4.29-18.62,5.33-28.41,4.42c-7.04-0.66-11.12-5.29-12.44-11.83C333.98,913.44,333.84,906.27,333.2,899.42z" />
			<path class="st4" d="M505.83,327.47c4.97,1.61,9.7,4.07,14.72,5.61c8.78,2.69,13.14-0.78,17.07-7.02c3.86-6.13,6.27-13,7.36-20.74
			c3.64-1.64,7.14-2.84,10.66-4c5.16-1.7,8.19-0.43,9.58,4.9c2.74,10.47,2.64,20.82-3.06,30.51c-3.25,5.52-7.49,10.15-12.78,13.75
			c-7.99,5.44-16.85,8.93-26.3,10.75c-7.44,1.44-11.76-1.19-14.11-8.41C506.34,344.74,505.7,336.36,505.83,327.47z" />
			<path class="st9" d="M529.46,885.98c3.91-9.27,5.9-19.28,8.16-28.98c1.91-8.22,4.45-16.17,8.52-23.57
			c3.37-6.14,7.86-7.86,14.63-5.76c0.15,0.05,0.32,0.08,0.47,0.14c8.06,3.28,16.47,4.14,25.58,2.01
			c-0.61,9.66-4.59,19.26-9.53,27.41c-9.46,15.63-23.52,24.79-41.29,28.44C534.27,886.01,531.63,885.96,529.46,885.98z" />
			<path class="st4" d="M395.53,856.84c4.53,0.31,7.51,3.13,9.91,6.88c5.55,8.66,11.22,17.33,19.06,24.21
			c6.54,5.75,13.59,10.75,21.31,14.78c0.82,0.43,2.07,0.28,3.34,0.56c-3.06,3.13-6.32,7.16-10.21,9.46
			c-8.76,5.19-18.59,7.28-28.74,7.38c-6.44,0.06-10.49-2.69-12.28-8.9c-1.46-5.07-2.56-10.4-2.7-15.65
			C394.87,882.97,395.35,869.87,395.53,856.84z" />
			<path class="st6" d="M853.72,513.87c-10.53,0.42-19.53,4.46-28.04,10.03c-2.78,1.82-5.76,3.33-9,5.01
			c-4.3-0.45-6.36-3.09-7.2-6.58c-2.25-9.3-1.77-18.6,0.88-27.73c1.39-4.8,5.18-7.72,9.92-8.15c7.35-0.68,14.83-1.21,22.14-0.53
			c8.06,0.75,10,4.16,11.47,13.02C854.69,503.65,853.92,508.6,853.72,513.87z" />
			<path class="st4" d="M419.01,516.25c10.42-3.6,18.42,1.11,25.69,8.33c6.05,6.01,12.35,11.79,20.62,14.87
			c4.33,1.61,9.52,1.54,14.53,1.26c-3.49,6.63-9.49,12.99-15.79,17.34c-6.97,4.8-14.38,5-21.3,0.22c-3.78-2.61-7.21-6.03-9.99-9.7
			C425.75,539.3,421.83,527.84,419.01,516.25z" />
			<path class="st11" d="M737.28,712.83c-9.03,2.34-15.69,7.5-20,15.32c-3.97,7.18-7.23,14.75-10.83,22.14
			c-0.42,0.85-2.43,5.71-2.14,5.11c0.04-15.51,0.32-33.69,1.19-49.29c0.69-12.25,13.06-20.53,25.01-17.69
			c3.74,0.89,6.01,3.44,6.32,7.09C737.3,701.13,737.23,706.77,737.28,712.83z" />
			<path class="st4" d="M563.44,522.62c0-1.09,1.06-2.65,1.6-3.6c4.42-7.7,6.09-16.22,7.69-24.8c1.12-6,1.68-11.95,2.96-18.33
			c3.39-1.74,7.53-3.58,11.05-4.26c4.1-0.79,6.61,0.86,7.85,4.82c2.42,7.7,2.63,15.64,0.54,23.42c-1.36,5.07-5.25,8.65-9.56,11.22
			C578.78,515.13,570.8,518.98,563.44,522.62z" />
			<path class="st10" d="M465.65,384.95c0.74-0.93,2.26-1.91,3.45-2.62c4.4-2.61,8.09-5.75,9.69-10.89
			c2.72-8.75,5.51-17.48,8.43-26.16c1.43-4.25,3.2-8.37,4.85-12.92c0.51-0.3,0.99-0.16,1.47-0.18c6.16-0.24,7.19,0.39,7.25,6.43
			c0.07,7.09-0.24,14.2-0.78,21.27c-0.55,7.16-4.38,12.64-10.73,15.68C481.87,379.11,473.61,381.9,465.65,384.95z" />
			<path class="st2" d="M451.97,703.98c3.86,3.65,7.58,7.56,11.13,11.61c5.22,5.95,11.01,11.09,18.78,14.17
			c-6.57,6.16-14.94,8.67-23.84,9.46c-3.7,0.33-6.06-1.85-6.89-5.51c-0.49-2.17-0.65-4.48-0.57-6.71
			C450.88,719.43,451.36,711.87,451.97,703.98z" />
			<path class="st2" d="M891.03,819.66c1.85,6.36,0.4,12.36-2.32,18.08c-1.2,2.52-3.16,3.47-6.15,2.66
			c-5.55-1.5-10.46-4.09-14.64-8.01c-3.83-3.6-5.29-7.95-3.16-13.4c1.78-0.28,2.97-0.06,4.04-0.32c7.16-1.71,14.07-0.66,20.92,1.56
			C890.15,820.37,890.47,819.89,891.03,819.66z" />
			<path class="st10" d="M279.41,319.5c2.46-2.08,20.02,11.91,20.86,13.15c4.05,5.97,8.83,12.93,12.82,19.42
			c0.14,0.23-0.12,0.5-0.36,0.37c-4.24-2.46-17.97-5.97-21.46-9.04c-6.29-5.51-12.9-14.74-12.14-23.29
			C279.15,319.84,279.25,319.64,279.41,319.5z" />
			<path class="st12" d="M999.67,341.19c-1.5-0.56-3.15-1.33-4.3-2.57c-7.29-7.82-16.04-10.37-26.36-7.74
			c-0.46,0.12-0.96,0.06-1.86,0.09c-0.44-3.05-0.69-6.13-0.45-9.16c0.3-3.82,2.16-5.74,5.93-5.65c7.73,0.19,15,2.19,21.27,6.92
			c3.56,2.69,5.05,6.63,5.59,10.91C999.77,336.22,999.67,338.5,999.67,341.19z" />
			<path class="st2" d="M521.75,717.84c0.3-0.96,1.46-2.08,2.31-2.7c7.62-5.55,12.89-12.99,17.13-21.25
			c4.27-8.33,8.56-17.19,13.06-25.68C556.57,695.08,541.41,712.11,521.75,717.84z" />
			<path class="st12" d="M307.22,714.03c-2.2,0.74-2.54-2.66-3.78-4.03c-4.05-4.47-8.28-8.78-12.63-12.96
			c-1.42-1.37-3.86-2.6-5.7-3.94c4.4-0.34,9.31-0.07,13.79,0.11c7.01,0.28,9.55,2.9,9.62,9.84
			C308.56,705.9,307.57,710.77,307.22,714.03z" />
			<path class="st12" d="M891,819.67c-0.45,0.55-1.11,1.12-1.54,0.98c-6.85-2.23-13.76-3.27-20.92-1.56
			c-1.07,0.26-2.25,0.04-3.86,0.03c0.28-1.93,0.76-4.01,1.83-5.73c2.71-4.34,6.23-5.62,11.09-4.15
			C883.26,810.96,888.19,813.73,891,819.67z" />
			<path class="st2" d="M524.56,524.26c2.59-1,5.75-0.08,8.18-1.12c5.04-2.17,9.82-2.02,14.65,0.47c1.83,0.95,5.05,1.23,7.27,2.3
			c-5.15,2.05-11.78,4.67-17.36,5.98C531.93,533.14,527,530.04,524.56,524.26z" />
			<path class="st2" d="M799.38,756.1c5.1-0.77,11.11-1.02,14.6,4.04c0.44,0.64,1.24,2.62,1.55,3.69
			C810.68,761.94,804.39,758.62,799.38,756.1z" />
			<path class="st2"
				d="M593.12,841.93c0.32,4.87,0.48,10.09,0.41,15.63C593.19,852.68,593.08,847.48,593.12,841.93z" />
			<path class="st2"
				d="M240.8,728.36c0.31,3.6,0.47,7.54,0.39,11.79C240.85,736.54,240.75,732.63,240.8,728.36z" />
			<path class="st2" d="M597.6,864.21c1.96-0.22,4.17-0.18,6.69,0.11C602.35,864.53,600.1,864.5,597.6,864.21z" />
			<path class="st2"
				d="M610.8,863.04c0.36-0.4,0.99-0.74,1.92-1.05C612.38,862.39,611.73,862.74,610.8,863.04z" />
		</g>
		<g>
			<path class="st13" d="M272.45,267.44c0.82,1.03,1.71,1.94,2.64,2.78c0.84,0.75,1.71,1.42,2.62,2.04c0.88,0.6,1.77,1.16,2.69,1.67
			c0.84,0.46,1.69,0.89,2.55,1.31c0.66,0.32,1.33,0.63,2,0.92c0.47,0.2,0.96,0.37,1.44,0.54c0.56,0.2,1.12,0.38,1.68,0.57
			c0.13,0.04,0.27,0.08,0.41,0.12c0.56,0.14,1.13,0.27,1.69,0.41c0.1,0.02,0.2,0.06,0.28,0.12c0.14,0.1,0.16,0.26,0.03,0.39
			c-0.07,0.07-0.16,0.12-0.24,0.14c-0.18,0.04-0.37,0.04-0.55,0.08c-0.75,0.18-1.49,0.35-2.23,0.54c-0.91,0.24-1.8,0.58-2.68,0.93
			c-0.7,0.28-1.39,0.58-2.08,0.91c-0.78,0.37-1.55,0.76-2.32,1.17c-1.15,0.61-2.27,1.3-3.36,2.06c-1.15,0.82-2.25,1.73-3.29,2.75
			c-0.92,0.91-1.76,1.92-2.54,3.01c-0.76,1.07-1.42,2.22-2,3.45c-0.27,0.58-0.52,1.17-0.76,1.77c-0.27,0.67-0.52,1.36-0.76,2.05
			c-0.17,0.47-0.3,0.96-0.44,1.45c-0.17,0.59-0.32,1.19-0.49,1.79c-0.01,0.03-0.02,0.05-0.02,0.08c-0.14,0.69-0.29,1.38-0.43,2.07
			c-0.15,0.77-0.27,1.54-0.39,2.31c-0.14,0.89-0.23,1.78-0.32,2.67c-0.06,0.64-0.15,1.28-0.22,1.92c-0.05,0.51-0.07,1.03-0.11,1.54
			c-0.01,0.17-0.04,0.34-0.08,0.49c-0.03,0.12-0.08,0.24-0.15,0.34c-0.15,0.21-0.35,0.18-0.44-0.08c-0.05-0.14-0.07-0.31-0.09-0.46
			c-0.08-0.73-0.15-1.47-0.23-2.2c-0.02-0.23-0.03-0.47-0.05-0.7c-0.09-0.73-0.17-1.47-0.28-2.19c-0.14-0.95-0.31-1.89-0.48-2.83
			c-0.12-0.68-0.26-1.35-0.4-2.02c-0.12-0.56-0.24-1.13-0.38-1.68c-0.26-1.03-0.52-2.06-0.82-3.08c-0.44-1.5-0.97-2.94-1.61-4.33
			c-0.96-2.09-2.22-3.88-3.69-5.46c-1.23-1.32-2.55-2.47-3.95-3.51c-1.39-1.03-2.85-1.91-4.35-2.69c-1.32-0.69-2.67-1.27-4.05-1.75
			c-1.23-0.42-2.48-0.78-3.75-0.96c-0.43-0.06-0.86-0.17-1.29-0.25c-0.13-0.02-0.26-0.01-0.39-0.04c-0.1-0.02-0.2-0.06-0.27-0.13
			c-0.12-0.11-0.11-0.27,0.02-0.37c0.04-0.03,0.1-0.05,0.15-0.06c0.11-0.02,0.22-0.04,0.32-0.04c0.86-0.04,1.71-0.13,2.57-0.31
			c0.71-0.15,1.42-0.33,2.12-0.51c0.53-0.14,1.05-0.33,1.57-0.51c0.42-0.15,0.85-0.3,1.26-0.48c0.74-0.31,1.48-0.63,2.21-0.97
			c0.6-0.28,1.2-0.58,1.78-0.9c0.65-0.36,1.29-0.73,1.92-1.15c0.81-0.54,1.6-1.11,2.38-1.71c1.28-0.99,2.46-2.12,3.52-3.45
			c0.93-1.17,1.73-2.45,2.39-3.86c0.58-1.25,1.08-2.55,1.5-3.89c0.34-1.09,0.65-2.18,0.92-3.3c0.27-1.13,0.55-2.26,0.79-3.41
			c0.17-0.79,0.29-1.59,0.42-2.39c0.1-0.59,0.2-1.17,0.28-1.77c0.1-0.76,0.19-1.52,0.28-2.28c0.05-0.47,0.08-0.95,0.12-1.43
			c0.01-0.12,0.02-0.25,0.06-0.36c0.04-0.11,0.09-0.22,0.17-0.29c0.15-0.16,0.34-0.11,0.43,0.1c0.05,0.1,0.07,0.23,0.08,0.35
			c0.05,0.6,0.09,1.19,0.13,1.79c0.07,0.95,0.14,1.9,0.23,2.85c0.05,0.55,0.15,1.09,0.21,1.64c0.05,0.51,0.11,1.02,0.22,1.52
			c0.03,0.13,0.05,0.26,0.06,0.39c0.04,0.46,0.11,0.91,0.24,1.34c0.04,0.12,0.04,0.26,0.07,0.38c0.06,0.31,0.13,0.62,0.2,0.92
			c0.01,0.05,0.02,0.09,0.04,0.13c0.13,0.58,0.25,1.16,0.4,1.73c0.13,0.5,0.29,0.99,0.44,1.48c0.11,0.36,0.24,0.71,0.36,1.07
			c0.25,0.78,0.54,1.54,0.87,2.27c0.31,0.69,0.63,1.38,0.97,2.05c0.4,0.79,0.87,1.53,1.37,2.23
			C271.85,266.65,272.15,267.03,272.45,267.44z" />
		</g>
		<g>
			<path class="st13" d="M298.85,293.47c0.38,0.54,0.79,1.01,1.22,1.45c0.39,0.39,0.79,0.74,1.21,1.06c0.41,0.31,0.82,0.6,1.24,0.87
			c0.39,0.24,0.78,0.46,1.18,0.68c0.31,0.17,0.61,0.33,0.93,0.48c0.22,0.11,0.44,0.19,0.67,0.28c0.26,0.1,0.52,0.2,0.78,0.3
			c0.06,0.02,0.13,0.04,0.19,0.06c0.26,0.07,0.52,0.14,0.78,0.21c0.05,0.01,0.09,0.03,0.13,0.06c0.07,0.05,0.07,0.14,0.02,0.2
			c-0.03,0.04-0.07,0.06-0.11,0.07c-0.08,0.02-0.17,0.02-0.26,0.04c-0.34,0.09-0.69,0.18-1.03,0.28c-0.42,0.12-0.83,0.3-1.24,0.48
			c-0.32,0.15-0.64,0.3-0.96,0.47c-0.36,0.19-0.72,0.4-1.07,0.61c-0.53,0.32-1.05,0.67-1.55,1.07c-0.53,0.42-1.04,0.9-1.52,1.43
			c-0.43,0.47-0.82,1-1.17,1.57c-0.35,0.56-0.66,1.16-0.93,1.79c-0.13,0.3-0.24,0.61-0.35,0.92c-0.12,0.35-0.24,0.71-0.35,1.07
			c-0.08,0.25-0.14,0.5-0.2,0.75c-0.08,0.31-0.15,0.62-0.22,0.93c0,0.01-0.01,0.03-0.01,0.04c-0.07,0.36-0.14,0.72-0.2,1.08
			c-0.07,0.4-0.13,0.8-0.18,1.2c-0.06,0.46-0.11,0.92-0.15,1.39c-0.03,0.33-0.07,0.67-0.1,1c-0.02,0.27-0.03,0.53-0.05,0.8
			c-0.01,0.09-0.02,0.17-0.04,0.26c-0.01,0.06-0.04,0.13-0.07,0.18c-0.07,0.11-0.16,0.09-0.2-0.04c-0.02-0.07-0.03-0.16-0.04-0.24
			c-0.04-0.38-0.07-0.76-0.11-1.15c-0.01-0.12-0.01-0.24-0.03-0.36c-0.04-0.38-0.08-0.76-0.13-1.14c-0.07-0.49-0.14-0.98-0.22-1.48
			c-0.06-0.35-0.12-0.7-0.19-1.05c-0.05-0.29-0.11-0.59-0.18-0.87c-0.12-0.54-0.24-1.07-0.38-1.6c-0.2-0.78-0.45-1.53-0.74-2.25
			c-0.44-1.09-1.03-2.02-1.71-2.84c-0.57-0.68-1.18-1.29-1.83-1.83c-0.64-0.54-1.32-0.99-2.01-1.4c-0.61-0.36-1.23-0.66-1.87-0.91
			c-0.57-0.22-1.15-0.4-1.73-0.5c-0.2-0.03-0.4-0.09-0.59-0.13c-0.06-0.01-0.12-0.01-0.18-0.02c-0.04-0.01-0.09-0.03-0.13-0.07
			c-0.06-0.06-0.05-0.14,0.01-0.19c0.02-0.02,0.05-0.03,0.07-0.03c0.05-0.01,0.1-0.02,0.15-0.02c0.4-0.02,0.79-0.07,1.19-0.16
			c0.33-0.08,0.65-0.17,0.98-0.27c0.24-0.07,0.49-0.17,0.73-0.27c0.2-0.08,0.39-0.16,0.58-0.25c0.34-0.16,0.68-0.33,1.02-0.5
			c0.28-0.15,0.55-0.3,0.82-0.47c0.3-0.19,0.6-0.38,0.89-0.6c0.37-0.28,0.74-0.58,1.1-0.89c0.59-0.51,1.14-1.11,1.63-1.79
			c0.43-0.61,0.8-1.28,1.1-2.01c0.27-0.65,0.5-1.33,0.69-2.03c0.16-0.57,0.3-1.14,0.42-1.72c0.12-0.59,0.25-1.18,0.37-1.77
			c0.08-0.41,0.13-0.83,0.2-1.24c0.05-0.31,0.09-0.61,0.13-0.92c0.05-0.39,0.09-0.79,0.13-1.19c0.02-0.25,0.04-0.49,0.06-0.74
			c0.01-0.06,0.01-0.13,0.03-0.19c0.02-0.06,0.04-0.11,0.08-0.15c0.07-0.08,0.16-0.06,0.2,0.05c0.02,0.05,0.03,0.12,0.04,0.18
			c0.02,0.31,0.04,0.62,0.06,0.93c0.03,0.5,0.07,0.99,0.11,1.48c0.02,0.29,0.07,0.57,0.09,0.85c0.02,0.27,0.05,0.53,0.1,0.79
			c0.01,0.07,0.02,0.13,0.03,0.2c0.02,0.24,0.05,0.47,0.11,0.7c0.02,0.06,0.02,0.13,0.03,0.2c0.03,0.16,0.06,0.32,0.09,0.48
			c0,0.02,0.01,0.05,0.02,0.07c0.06,0.3,0.12,0.6,0.19,0.9c0.06,0.26,0.13,0.51,0.2,0.77c0.05,0.19,0.11,0.37,0.16,0.56
			c0.12,0.4,0.25,0.8,0.4,1.18c0.15,0.36,0.29,0.72,0.45,1.06c0.19,0.41,0.4,0.8,0.63,1.16
			C298.57,293.06,298.71,293.26,298.85,293.47z" />
		</g>
		<g>
			<path class="st13" d="M255.57,325.69c0.31,0.4,0.66,0.75,1.02,1.07c0.32,0.29,0.66,0.55,1.01,0.79c0.34,0.23,0.68,0.45,1.03,0.64
			c0.32,0.18,0.65,0.34,0.98,0.5c0.25,0.12,0.51,0.24,0.77,0.35c0.18,0.08,0.37,0.14,0.55,0.21c0.21,0.08,0.43,0.15,0.65,0.22
			c0.05,0.02,0.1,0.03,0.16,0.04c0.22,0.05,0.43,0.1,0.65,0.16c0.04,0.01,0.08,0.02,0.11,0.05c0.06,0.04,0.06,0.1,0.01,0.15
			c-0.03,0.03-0.06,0.05-0.09,0.06c-0.07,0.02-0.14,0.02-0.21,0.03c-0.29,0.07-0.57,0.13-0.86,0.21c-0.35,0.09-0.69,0.22-1.03,0.36
			c-0.27,0.11-0.54,0.23-0.8,0.35c-0.3,0.14-0.6,0.29-0.89,0.45c-0.44,0.23-0.87,0.5-1.29,0.79c-0.44,0.31-0.87,0.66-1.26,1.06
			c-0.35,0.35-0.68,0.74-0.97,1.16c-0.29,0.41-0.55,0.86-0.77,1.33c-0.1,0.22-0.2,0.45-0.29,0.68c-0.1,0.26-0.2,0.52-0.29,0.79
			c-0.06,0.18-0.12,0.37-0.17,0.56c-0.06,0.23-0.12,0.46-0.19,0.69c0,0.01-0.01,0.02-0.01,0.03c-0.06,0.27-0.11,0.53-0.16,0.8
			c-0.06,0.29-0.1,0.59-0.15,0.89c-0.05,0.34-0.09,0.68-0.12,1.03c-0.02,0.25-0.06,0.49-0.08,0.74c-0.02,0.2-0.03,0.4-0.04,0.59
			c-0.01,0.06-0.02,0.13-0.03,0.19c-0.01,0.05-0.03,0.09-0.06,0.13c-0.06,0.08-0.13,0.07-0.17-0.03c-0.02-0.06-0.03-0.12-0.03-0.18
			c-0.03-0.28-0.06-0.57-0.09-0.85c-0.01-0.09-0.01-0.18-0.02-0.27c-0.03-0.28-0.07-0.56-0.11-0.84c-0.06-0.36-0.12-0.73-0.18-1.09
			c-0.05-0.26-0.1-0.52-0.15-0.78c-0.05-0.22-0.09-0.43-0.15-0.65c-0.1-0.4-0.2-0.79-0.32-1.18c-0.17-0.58-0.37-1.13-0.62-1.67
			c-0.37-0.8-0.85-1.49-1.42-2.1c-0.47-0.51-0.98-0.95-1.52-1.35c-0.54-0.4-1.09-0.73-1.67-1.03c-0.51-0.26-1.03-0.49-1.56-0.67
			c-0.47-0.16-0.95-0.3-1.44-0.37c-0.17-0.02-0.33-0.07-0.49-0.1c-0.05-0.01-0.1-0.01-0.15-0.02c-0.04-0.01-0.08-0.02-0.11-0.05
			c-0.05-0.04-0.04-0.1,0.01-0.14c0.02-0.01,0.04-0.02,0.06-0.02c0.04-0.01,0.08-0.01,0.12-0.02c0.33-0.02,0.66-0.05,0.99-0.12
			c0.27-0.06,0.54-0.13,0.81-0.2c0.2-0.05,0.4-0.13,0.6-0.2c0.16-0.06,0.33-0.12,0.49-0.18c0.28-0.12,0.57-0.24,0.85-0.37
			c0.23-0.11,0.46-0.22,0.68-0.35c0.25-0.14,0.5-0.28,0.74-0.44c0.31-0.21,0.61-0.43,0.91-0.66c0.49-0.38,0.95-0.82,1.35-1.33
			c0.36-0.45,0.67-0.94,0.92-1.49c0.22-0.48,0.41-0.98,0.58-1.5c0.13-0.42,0.25-0.84,0.35-1.27c0.1-0.44,0.21-0.87,0.31-1.31
			c0.06-0.3,0.11-0.61,0.16-0.92c0.04-0.23,0.08-0.45,0.11-0.68c0.04-0.29,0.07-0.58,0.11-0.88c0.02-0.18,0.03-0.37,0.05-0.55
			c0-0.05,0.01-0.09,0.02-0.14c0.01-0.04,0.04-0.08,0.06-0.11c0.06-0.06,0.13-0.04,0.17,0.04c0.02,0.04,0.03,0.09,0.03,0.13
			c0.02,0.23,0.03,0.46,0.05,0.69c0.03,0.37,0.06,0.73,0.09,1.1c0.02,0.21,0.06,0.42,0.08,0.63c0.02,0.2,0.04,0.39,0.08,0.59
			c0.01,0.05,0.02,0.1,0.02,0.15c0.02,0.18,0.04,0.35,0.09,0.52c0.01,0.05,0.02,0.1,0.03,0.15c0.02,0.12,0.05,0.24,0.08,0.36
			c0,0.02,0.01,0.03,0.01,0.05c0.05,0.22,0.1,0.45,0.15,0.67c0.05,0.19,0.11,0.38,0.17,0.57c0.04,0.14,0.09,0.27,0.14,0.41
			c0.1,0.3,0.21,0.59,0.33,0.87c0.12,0.26,0.24,0.53,0.37,0.79c0.15,0.3,0.33,0.59,0.53,0.86
			C255.34,325.39,255.45,325.54,255.57,325.69z" />
		</g>
		<g>
			<path class="st13" d="M877.55,685.65c0.82,1.03,1.71,1.94,2.64,2.78c0.84,0.75,1.71,1.42,2.62,2.04c0.88,0.6,1.77,1.16,2.69,1.67
			c0.84,0.47,1.69,0.89,2.55,1.31c0.66,0.32,1.33,0.63,2,0.92c0.47,0.2,0.96,0.37,1.44,0.54c0.56,0.2,1.12,0.38,1.68,0.57
			c0.13,0.04,0.27,0.08,0.41,0.12c0.56,0.14,1.13,0.27,1.69,0.41c0.1,0.02,0.2,0.06,0.28,0.12c0.14,0.1,0.16,0.26,0.03,0.39
			c-0.07,0.07-0.16,0.12-0.24,0.14c-0.18,0.04-0.37,0.04-0.55,0.08c-0.75,0.18-1.49,0.35-2.23,0.54c-0.91,0.24-1.8,0.58-2.68,0.93
			c-0.7,0.28-1.39,0.58-2.08,0.91c-0.78,0.37-1.55,0.76-2.32,1.17c-1.15,0.61-2.27,1.3-3.36,2.06c-1.15,0.82-2.25,1.73-3.29,2.75
			c-0.92,0.91-1.76,1.92-2.54,3.01c-0.76,1.07-1.42,2.22-2,3.45c-0.27,0.58-0.52,1.17-0.76,1.77c-0.27,0.67-0.52,1.36-0.76,2.05
			c-0.17,0.47-0.3,0.96-0.44,1.45c-0.17,0.59-0.32,1.19-0.49,1.79c-0.01,0.03-0.02,0.05-0.02,0.08c-0.14,0.69-0.29,1.38-0.43,2.07
			c-0.15,0.77-0.27,1.54-0.39,2.31c-0.14,0.89-0.23,1.78-0.32,2.67c-0.06,0.64-0.15,1.28-0.22,1.92c-0.05,0.51-0.07,1.03-0.11,1.54
			c-0.01,0.17-0.04,0.34-0.08,0.49c-0.03,0.12-0.08,0.24-0.15,0.34c-0.15,0.21-0.35,0.18-0.44-0.08c-0.05-0.14-0.07-0.31-0.09-0.46
			c-0.08-0.73-0.15-1.47-0.23-2.2c-0.02-0.23-0.03-0.47-0.05-0.7c-0.09-0.73-0.17-1.47-0.28-2.19c-0.14-0.95-0.31-1.89-0.48-2.83
			c-0.12-0.68-0.26-1.35-0.4-2.02c-0.12-0.56-0.24-1.13-0.38-1.68c-0.26-1.03-0.52-2.06-0.82-3.08c-0.44-1.5-0.97-2.94-1.61-4.33
			c-0.96-2.09-2.22-3.88-3.69-5.46c-1.23-1.32-2.55-2.47-3.95-3.51c-1.39-1.03-2.85-1.91-4.35-2.69c-1.32-0.69-2.67-1.27-4.05-1.75
			c-1.23-0.42-2.48-0.78-3.75-0.96c-0.43-0.06-0.86-0.17-1.29-0.25c-0.13-0.02-0.26-0.01-0.39-0.04c-0.1-0.02-0.2-0.06-0.27-0.13
			c-0.12-0.11-0.11-0.27,0.02-0.37c0.04-0.03,0.1-0.05,0.15-0.06c0.11-0.02,0.22-0.04,0.32-0.04c0.86-0.04,1.71-0.13,2.57-0.31
			c0.71-0.15,1.42-0.33,2.12-0.51c0.53-0.14,1.05-0.33,1.57-0.51c0.42-0.15,0.85-0.3,1.26-0.48c0.74-0.31,1.48-0.63,2.21-0.97
			c0.6-0.28,1.2-0.58,1.78-0.9c0.65-0.36,1.29-0.73,1.92-1.15c0.81-0.54,1.6-1.11,2.38-1.71c1.28-0.99,2.46-2.12,3.52-3.45
			c0.93-1.17,1.73-2.45,2.39-3.86c0.58-1.25,1.08-2.55,1.5-3.89c0.34-1.09,0.65-2.18,0.92-3.3c0.27-1.13,0.55-2.26,0.79-3.41
			c0.17-0.79,0.29-1.59,0.42-2.39c0.1-0.59,0.2-1.17,0.28-1.77c0.1-0.76,0.19-1.52,0.28-2.28c0.05-0.47,0.08-0.95,0.12-1.43
			c0.01-0.12,0.02-0.25,0.06-0.36c0.04-0.11,0.09-0.22,0.17-0.29c0.15-0.16,0.34-0.11,0.43,0.1c0.05,0.1,0.07,0.23,0.08,0.35
			c0.05,0.6,0.09,1.19,0.13,1.79c0.07,0.95,0.14,1.9,0.23,2.85c0.05,0.55,0.15,1.09,0.21,1.64c0.05,0.51,0.11,1.02,0.22,1.52
			c0.03,0.13,0.05,0.26,0.06,0.39c0.04,0.46,0.11,0.91,0.24,1.34c0.04,0.12,0.04,0.26,0.07,0.38c0.06,0.31,0.13,0.62,0.2,0.92
			c0.01,0.05,0.02,0.09,0.04,0.13c0.13,0.58,0.25,1.16,0.4,1.73c0.13,0.5,0.29,0.99,0.44,1.48c0.11,0.36,0.24,0.71,0.36,1.07
			c0.25,0.78,0.54,1.54,0.87,2.27c0.31,0.69,0.63,1.38,0.97,2.05c0.4,0.79,0.87,1.53,1.37,2.23
			C876.95,684.86,877.25,685.24,877.55,685.65z" />
		</g>
		<g>
			<path class="st13" d="M835.13,672.98c0.38,0.54,0.79,1.01,1.22,1.45c0.39,0.39,0.79,0.74,1.21,1.06c0.41,0.31,0.82,0.6,1.24,0.87
			c0.39,0.24,0.78,0.46,1.18,0.68c0.31,0.17,0.61,0.33,0.93,0.48c0.22,0.11,0.44,0.19,0.67,0.28c0.26,0.1,0.52,0.2,0.78,0.3
			c0.06,0.02,0.13,0.04,0.19,0.06c0.26,0.07,0.52,0.14,0.78,0.21c0.05,0.01,0.09,0.03,0.13,0.06c0.07,0.05,0.07,0.14,0.02,0.2
			c-0.03,0.04-0.07,0.06-0.11,0.07c-0.08,0.02-0.17,0.02-0.26,0.04c-0.34,0.09-0.69,0.18-1.03,0.28c-0.42,0.12-0.83,0.3-1.24,0.48
			c-0.32,0.15-0.64,0.3-0.96,0.47c-0.36,0.19-0.72,0.4-1.07,0.61c-0.53,0.32-1.05,0.67-1.55,1.07c-0.53,0.42-1.04,0.9-1.52,1.43
			c-0.43,0.47-0.82,1-1.17,1.57c-0.35,0.56-0.66,1.16-0.93,1.79c-0.13,0.3-0.24,0.61-0.35,0.92c-0.12,0.35-0.24,0.71-0.35,1.07
			c-0.08,0.25-0.14,0.5-0.2,0.75c-0.08,0.31-0.15,0.62-0.22,0.93c0,0.01-0.01,0.03-0.01,0.04c-0.07,0.36-0.14,0.72-0.2,1.08
			c-0.07,0.4-0.13,0.8-0.18,1.2c-0.06,0.46-0.11,0.92-0.15,1.39c-0.03,0.33-0.07,0.67-0.1,1c-0.02,0.27-0.03,0.53-0.05,0.8
			c-0.01,0.09-0.02,0.17-0.04,0.26c-0.01,0.06-0.04,0.13-0.07,0.18c-0.07,0.11-0.16,0.09-0.2-0.04c-0.02-0.07-0.03-0.16-0.04-0.24
			c-0.04-0.38-0.07-0.76-0.11-1.15c-0.01-0.12-0.01-0.24-0.03-0.36c-0.04-0.38-0.08-0.76-0.13-1.14c-0.07-0.49-0.14-0.98-0.22-1.48
			c-0.06-0.35-0.12-0.7-0.19-1.05c-0.05-0.29-0.11-0.59-0.18-0.87c-0.12-0.54-0.24-1.07-0.38-1.6c-0.2-0.78-0.45-1.53-0.74-2.25
			c-0.44-1.09-1.03-2.02-1.71-2.84c-0.57-0.68-1.18-1.29-1.83-1.83c-0.64-0.54-1.32-0.99-2.01-1.4c-0.61-0.36-1.23-0.66-1.87-0.91
			c-0.57-0.22-1.15-0.4-1.73-0.5c-0.2-0.03-0.4-0.09-0.59-0.13c-0.06-0.01-0.12-0.01-0.18-0.02c-0.04-0.01-0.09-0.03-0.13-0.07
			c-0.06-0.06-0.05-0.14,0.01-0.19c0.02-0.02,0.05-0.03,0.07-0.03c0.05-0.01,0.1-0.02,0.15-0.02c0.4-0.02,0.79-0.07,1.19-0.16
			c0.33-0.08,0.65-0.17,0.98-0.27c0.24-0.07,0.49-0.17,0.73-0.27c0.2-0.08,0.39-0.16,0.58-0.25c0.34-0.16,0.68-0.33,1.02-0.5
			c0.28-0.15,0.55-0.3,0.82-0.47c0.3-0.19,0.6-0.38,0.89-0.6c0.37-0.28,0.74-0.58,1.1-0.89c0.59-0.51,1.14-1.11,1.63-1.79
			c0.43-0.61,0.8-1.28,1.1-2.01c0.27-0.65,0.5-1.33,0.69-2.03c0.16-0.57,0.3-1.14,0.42-1.72c0.12-0.59,0.25-1.18,0.37-1.77
			c0.08-0.41,0.13-0.83,0.2-1.24c0.05-0.31,0.09-0.61,0.13-0.92c0.05-0.39,0.09-0.79,0.13-1.19c0.02-0.25,0.04-0.49,0.06-0.74
			c0.01-0.06,0.01-0.13,0.03-0.19c0.02-0.06,0.04-0.11,0.08-0.15c0.07-0.08,0.16-0.06,0.2,0.05c0.02,0.05,0.03,0.12,0.04,0.18
			c0.02,0.31,0.04,0.62,0.06,0.93c0.03,0.5,0.07,0.99,0.11,1.48c0.02,0.29,0.07,0.57,0.09,0.85c0.02,0.27,0.05,0.53,0.1,0.79
			c0.01,0.07,0.02,0.13,0.03,0.2c0.02,0.24,0.05,0.47,0.11,0.7c0.02,0.06,0.02,0.13,0.03,0.2c0.03,0.16,0.06,0.32,0.09,0.48
			c0,0.02,0.01,0.05,0.02,0.07c0.06,0.3,0.12,0.6,0.19,0.9c0.06,0.26,0.13,0.51,0.2,0.77c0.05,0.19,0.11,0.37,0.16,0.56
			c0.12,0.4,0.25,0.8,0.4,1.18c0.15,0.36,0.29,0.72,0.45,1.06c0.19,0.41,0.4,0.8,0.63,1.16
			C834.86,672.57,834.99,672.77,835.13,672.98z" />
		</g>
		<g>
			<path class="st13" d="M851.22,727.57c0.31,0.4,0.66,0.75,1.02,1.07c0.32,0.29,0.66,0.55,1.01,0.79c0.34,0.23,0.68,0.45,1.03,0.64
			c0.32,0.18,0.65,0.34,0.98,0.5c0.25,0.12,0.51,0.24,0.77,0.35c0.18,0.08,0.37,0.14,0.55,0.21c0.21,0.08,0.43,0.15,0.65,0.22
			c0.05,0.02,0.1,0.03,0.16,0.04c0.22,0.05,0.43,0.1,0.65,0.16c0.04,0.01,0.08,0.02,0.11,0.05c0.06,0.04,0.06,0.1,0.01,0.15
			c-0.03,0.03-0.06,0.05-0.09,0.06c-0.07,0.02-0.14,0.02-0.21,0.03c-0.29,0.07-0.57,0.13-0.86,0.21c-0.35,0.09-0.69,0.22-1.03,0.36
			c-0.27,0.11-0.54,0.23-0.8,0.35c-0.3,0.14-0.6,0.29-0.89,0.45c-0.44,0.23-0.87,0.5-1.29,0.79c-0.44,0.31-0.87,0.66-1.26,1.06
			c-0.35,0.35-0.68,0.74-0.97,1.16c-0.29,0.41-0.55,0.86-0.77,1.33c-0.1,0.22-0.2,0.45-0.29,0.68c-0.1,0.26-0.2,0.52-0.29,0.79
			c-0.06,0.18-0.12,0.37-0.17,0.56c-0.06,0.23-0.12,0.46-0.19,0.69c0,0.01-0.01,0.02-0.01,0.03c-0.05,0.27-0.11,0.53-0.16,0.8
			c-0.06,0.29-0.1,0.59-0.15,0.89c-0.05,0.34-0.09,0.68-0.12,1.03c-0.02,0.25-0.06,0.49-0.08,0.74c-0.02,0.2-0.03,0.4-0.04,0.59
			c-0.01,0.06-0.02,0.13-0.03,0.19c-0.01,0.05-0.03,0.09-0.06,0.13c-0.06,0.08-0.13,0.07-0.17-0.03c-0.02-0.06-0.03-0.12-0.03-0.18
			c-0.03-0.28-0.06-0.57-0.09-0.85c-0.01-0.09-0.01-0.18-0.02-0.27c-0.03-0.28-0.07-0.56-0.11-0.84c-0.06-0.36-0.12-0.73-0.18-1.09
			c-0.05-0.26-0.1-0.52-0.15-0.78c-0.05-0.22-0.09-0.43-0.15-0.65c-0.1-0.4-0.2-0.79-0.32-1.18c-0.17-0.58-0.37-1.13-0.62-1.67
			c-0.37-0.8-0.85-1.49-1.42-2.1c-0.47-0.51-0.98-0.95-1.52-1.35c-0.54-0.4-1.09-0.73-1.67-1.03c-0.51-0.26-1.03-0.49-1.56-0.67
			c-0.47-0.16-0.95-0.3-1.44-0.37c-0.17-0.02-0.33-0.07-0.49-0.1c-0.05-0.01-0.1-0.01-0.15-0.02c-0.04-0.01-0.08-0.02-0.11-0.05
			c-0.05-0.04-0.04-0.1,0.01-0.14c0.02-0.01,0.04-0.02,0.06-0.02c0.04-0.01,0.08-0.01,0.12-0.02c0.33-0.02,0.66-0.05,0.99-0.12
			c0.27-0.06,0.54-0.13,0.81-0.2c0.2-0.05,0.4-0.13,0.6-0.2c0.16-0.06,0.33-0.12,0.49-0.18c0.28-0.12,0.57-0.24,0.85-0.37
			c0.23-0.11,0.46-0.22,0.68-0.35c0.25-0.14,0.5-0.28,0.74-0.44c0.31-0.21,0.61-0.43,0.91-0.66c0.49-0.38,0.95-0.82,1.35-1.33
			c0.36-0.45,0.67-0.94,0.92-1.49c0.22-0.48,0.41-0.98,0.58-1.5c0.13-0.42,0.25-0.84,0.35-1.27c0.1-0.44,0.21-0.87,0.31-1.31
			c0.06-0.3,0.11-0.61,0.16-0.92c0.04-0.23,0.08-0.45,0.11-0.68c0.04-0.29,0.07-0.58,0.11-0.88c0.02-0.18,0.03-0.37,0.05-0.55
			c0-0.05,0.01-0.09,0.02-0.14c0.01-0.04,0.04-0.08,0.06-0.11c0.06-0.06,0.13-0.04,0.17,0.04c0.02,0.04,0.03,0.09,0.03,0.13
			c0.02,0.23,0.03,0.46,0.05,0.69c0.03,0.37,0.06,0.73,0.09,1.1c0.02,0.21,0.06,0.42,0.08,0.63c0.02,0.2,0.04,0.39,0.08,0.59
			c0.01,0.05,0.02,0.1,0.02,0.15c0.02,0.18,0.04,0.35,0.09,0.52c0.01,0.05,0.02,0.1,0.03,0.15c0.02,0.12,0.05,0.24,0.08,0.36
			c0,0.02,0.01,0.03,0.01,0.05c0.05,0.22,0.1,0.45,0.15,0.67c0.05,0.19,0.11,0.38,0.17,0.57c0.04,0.14,0.09,0.27,0.14,0.41
			c0.1,0.3,0.21,0.59,0.33,0.87c0.12,0.26,0.24,0.53,0.37,0.79c0.15,0.3,0.33,0.59,0.53,0.86
			C850.99,727.27,851.11,727.41,851.22,727.57z" />
		</g>
	</g>
	<g id="Together_Let_x27_s_Walk">
		<g id="Cloud_Bubble">
			<defs>
				<rect id="SVGID_1_" y="260.44" width="1080" height="559.12" />
			</defs>
			<clipPath id="SVGID_00000087373422956818495730000001613041535754434955_">
				<use xlink:href="#SVGID_1_" style="overflow:visible;" />
			</clipPath>
			<path style="clip-path:url(#SVGID_00000087373422956818495730000001613041535754434955_);fill:#ECF5F8;" d="M1079.18,587.49
			c0.75,9.54-0.44,19.11-2.16,28.49c-1.94,10.4-4.8,20.64-8.79,30.44c-4.52,11.12-10.23,21.85-17.82,31.18
			c-10.89,13.33-24.26,24.66-39.33,33c-9.93,5.59-20.52,10.01-31.56,12.84c-7.52,1.99-15.19,3.47-22.96,4.05
			c-14.81,1-29.72-0.49-44.24-3.48c-9.58-1.97-19-4.65-28.5-6.97c-5.95-1.46-11.96-2.79-18.07-3.4c-9.54-1.04-19.19,0.1-28.56,1.96
			c-11.04,2.21-21.89,5.2-32.67,8.42c-12.55,3.72-25.08,7.58-37.77,10.82c-11.14,2.78-23.04,4.84-34.31,1.61
			c-5.78-1.65-11.16-4.37-16.45-7.17c-8.89-4.74-17.44-10.11-26.5-14.52c-7.95-3.91-16.36-6.85-24.97-8.94
			c-4.81-1.16-9.59-2.03-14.5-2.46c-4.93-0.4-9.89-0.26-14.8,0.19c-5.3,0.45-10.57,1.32-15.71,2.7c-5.71,1.51-11.22,3.66-16.68,5.9
			c-10.55,4.37-20.77,9.52-30.47,15.53c-25.03,15.6-47.59,34.77-72.35,50.76c-5.99,3.79-12.21,7.27-18.77,9.97
			c-9.12,3.78-18.83,6.18-28.68,6.94c-9.45,0.74-18.99-0.08-28.22-2.2c-9.43-2.15-18.55-5.49-28-7.53
			c-14.77-3.37-30.08-3.77-45.09-1.98c-19.33,2.28-38.39,6.53-57.21,11.42c-22.49,5.89-44.65,13.09-67.43,17.79
			c-21.51,4.45-43.49,6.38-65.43,6.52c-17.81,0.13-35.61-1.6-53.13-4.82c-24.11-4.41-47.94-12.02-68.78-25.15
			c-5.82-3.73-11.35-8-15.96-13.17c-5.31-6.05-9.38-13.38-10.87-21.34c-1.02-5.47-0.6-11.1,0.15-16.58
			c2.32-14.39,9.18-27.54,16.42-40.02c4.79-8.3,10.23-16.28,14.29-24.98c2.42-5.24,4.3-10.77,5.06-16.51
			c0.37-3.35,0.36-6.76-0.1-10.1c-0.39-2.73-1.24-5.38-2.25-7.94c-2.03-5.09-4.98-9.78-8.31-14.11c-2.48-3.14-5.26-6-7.97-8.93
			c-4.98-5.36-10.06-10.63-14.63-16.34c-5.7-7.09-10.7-14.9-13.7-23.53c-1.05-3.99-1.32-8.21-0.72-12.3c0.42-3,1.47-5.86,2.54-8.68
			c3.59-8.98,10.2-16.3,17.3-22.69c13.11-12.03,28.09-22.13,44.38-29.34c10.5-4.46,21.48-7.58,32.37-10.94
			c20.58-6.4,41.15-12.82,61.76-19.08c9.24-2.82,18.22-6.39,26.82-10.75c2.88-1.48,5.72-3.04,8.41-4.84
			c1.96-1.37,3.95-2.84,5.35-4.78c1-1.37,1.37-3.39,0.23-4.78c-1.13-1.21-2.8-1.62-4.35-2.06c-5.08-1.23-10.29-1.82-15.46-2.53
			c-10.76-1.47-21.66-2.23-32.24-4.75c-11.85-2.98-24.54-9.88-32.75-19.01c-1.86-2.11-3.44-4.45-4.76-6.93
			c-1.83-3.88-2.41-8.27-2.35-12.53c0.05-3.6,0.98-7.11,2.14-10.5c1.44-4.63,3.94-8.89,7.24-12.43c3.19-3.71,7.15-6.66,11.34-9.16
			c8.67-5.29,17.98-9.44,27.3-13.44c14.32-5.85,28.93-11.08,43.81-15.32c15.5-4.45,31.35-7.5,47.18-10.55
			c7.61-1.46,15.23-2.92,22.9-4.04c11.37-1.87,22.91-1.67,34.39-1.8c10.08-0.2,20.17-0.77,30.15-2.22
			c6.46-0.95,12.92-2.18,19.07-4.34c0,0,0,0,0,0c2.17-1.13,4.13-2.59,6.2-3.88c5.97-3.68,11.88-7.5,18.21-10.52
			c4.83-2.31,9.91-4.06,15.07-5.45c3.87-1.03,7.82-1.7,11.76-2.38c1.26-0.19,2.52-0.4,3.78-0.6c0.32-0.09,0.64-0.15,0.96-0.21
			c0.53-0.1,1.06-0.17,1.59-0.23c3.5-0.63,7.03-1.13,10.57-1.52c10.25-1.34,20.59-1.82,30.92-1.68c18.9,0.11,37.82,0.99,56.54,3.67
			c9.78,1.38,19.52,3.05,29.13,5.36c10.19,2.52,20.31,5.59,30.67,7.28c16.75,2.91,33.83,0.01,50.38-2.94
			c36.29-6.71,71.65-17.49,106.71-28.88c8.88-2.77,17.83-5.37,26.95-7.25c11.69-2.45,23.54-4.08,35.47-4.71
			c24.39-1.62,49.31,1.35,72.05,10.56c7.57,3.01,14.8,6.77,21.85,10.82c17.81,10.08,35.4,20.94,54.87,27.56
			c11.56,4.12,23.63,6.55,35.73,8.41c23.46,3.72,47.35,7.26,69.07,17.39c10.34,4.75,20.27,11.12,27.35,20.18
			c2.08,2.82,3.65,5.97,4.98,9.2c1.32,3.37,1.99,6.97,2.09,10.59c0.28,11.32-5.36,20.94-12.47,29.31
			c-6.99,8.35-15.07,15.69-22.97,23.16c-10.38,9.87-20.83,20.22-27.31,33.16c-1.54,3.17-3.16,6.35-3.89,9.82
			c-1.95,8.47,0.03,15.67,6.34,21.6c6.03,5.68,12.78,10.52,19.03,15.95c6.28,5.33,12.05,11.24,17.45,17.46
			c7.12,8.24,13.7,17.12,18.03,27.16c1.98,4.53,3.43,9.26,4.88,13.97C1077.32,574.64,1078.74,581.01,1079.18,587.49z" />
		</g>
		<g>
			<path class="st15" d="M666.8,542.2c0.08,1.63,0.22,3.26,0.23,4.89c0.16,25.32,0.3,50.63,0.46,75.95
			c0.03,4.02,0.22,8.03-0.15,12.05c-0.28,2.98-0.76,5.91-1.51,8.79c-3.19,12.28-10.5,21.16-22.01,26.57
			c-4.74,2.23-9.7,3.84-14.83,4.8c-8.2,1.53-15.32-0.58-21.14-6.74c-2.89-3.06-5.19-6.52-7.26-10.14c-1.55-2.71-3.04-5.46-4.59-8.18
			c-0.66-1.17-1.4-2.29-2.48-3.13c-1.02-0.8-2.33-0.65-3.18,0.36c-0.97,1.16-1.55,2.54-2.01,3.96c-1.12,3.39-2.25,6.78-3.34,10.18
			c-1.58,4.97-3.35,9.87-5.56,14.59c-4.69,10.03-11.09,18.69-20.39,24.92c-6.34,4.25-13.15,7.55-20.57,9.51
			c-2.63,0.69-5.29,0.88-7.97,0.7c-4.48-0.3-7.89-2.43-10.26-6.23c-1.76-2.83-2.73-5.97-3.16-9.23c-0.39-2.95-0.7-5.93-0.71-8.9
			c-0.08-19.81-0.78-39.6-1.29-59.4c-0.1-3.87-0.37-7.73-0.52-11.6c-0.06-1.63,0-3.26,0.01-4.9c2.02-0.49,2.58-2.36,3.4-3.84
			c2.67-4.82,4.61-9.97,6.07-15.26c1.41-5.12,2.41-10.36,3.81-15.49c2.03-7.43,4.05-14.88,7.54-21.81c2-3.98,4.45-7.64,7.25-11.14
			c5.1-6.38,11.26-10.37,19.67-10.23c1.74,2.05,2.05,4.54,2.17,7.09c0.2,4.49-0.48,8.88-1.48,13.24
			c-1.47,6.37-3.52,12.58-5.39,18.84c-1.41,4.69-2.79,9.4-3.51,14.26c-0.28,1.93-0.41,3.83,0.2,5.73c0.57,1.77,1.76,2.75,3.57,2.86
			c3.17,0.19,5.87-0.7,7.62-3.59c1.09-1.79,1.91-3.69,2.56-5.67c1.48-4.51,2.92-9.04,4.43-13.55c0.99-2.96,2.22-5.83,3.77-8.55
			c1.84-3.23,4.38-5.61,8.06-6.57c1.58-0.41,3.15-0.87,4.75-1.16c5.97-1.07,10.81,0.89,14.58,5.58c1.78,2.21,3.08,4.73,4.42,7.21
			c0.77,1.44,1.48,2.93,2.7,4.06c1.33,1.24,3.08,1.19,4.36-0.13c1.18-1.22,1.8-2.76,1.95-4.4c0.19-2.07,0.2-4.15,0.25-6.23
			c0.03-1.33-0.02-2.67-0.03-4c0.74,0.04,1.54-0.09,2.22,0.14c1.89,0.65,3.71,1.01,5.61,0.06c0.37-0.19,0.88-0.13,1.32-0.16
			c3.3-0.19,6.47-1.05,9.46-2.33c6.28-2.68,12.47-5.59,18.71-8.39C658.66,545.8,662.74,544,666.8,542.2z" />
			<path class="st15" d="M397.18,526.17c1.73-0.81,3.49-1.58,5.2-2.43c2.38-1.18,3.39-3.11,3.21-5.79c-0.14-2.09-0.72-4.06-1.25-6.06
			c0.62-1.32,1.56-2.42,2.08-3.87c2.18-6.12,4.56-12.17,6.95-18.22c1.68-4.26,3.25-8.59,5.33-12.65c2.57-5,5.81-9.55,10.01-13.44
			c5.63-5.22,11.95-6.69,19.21-4.56c1.42,0.42,2.8,0.97,4.31,0.92c0.11,0.88,0.3,1.76,0.3,2.64c0.02,8.04,0.22,16.1-0.04,24.13
			c-0.33,10.14-1.62,20.18-4.33,30c-4.57,16.56-13.46,30.4-26.3,41.73c-15.02,13.25-32.46,22.01-51.62,27.5
			c-16.34,4.68-33.01,6.29-49.95,5.29c-7.01-0.41-13.9-1.61-20.63-3.65c-2.13-0.65-4.21-1.49-6.26-2.36
			c-9.68-4.1-14.95-11.44-15.98-21.87c-0.51-5.19-1.12-10.36-0.11-15.58c1.36-7.02,5.07-10.81,12.11-11.79
			c2.5-0.35,5.06-0.45,7.58-0.39c6.55,0.18,13.1,0.48,19.65,0.8c6.7,0.33,13.4,0.36,20.09-0.11c5.49-0.39,10.98-0.89,16.47-1.32
			c1.03-0.08,2.08-0.02,3.11-0.02c1.78-0.07,2.7,1.31,3.44,2.46c2.03,3.17,4.78,5.64,7.47,8.15c4.69,4.37,8.23,4.88,13.42,1.28
			c0.73-0.5,1.53-0.92,2.16-1.53c3.6-3.5,7.44-6.83,10.09-11.13C394.48,531.71,396.73,529.4,397.18,526.17z" />
			<path class="st16" d="M525.02,447.16c-3.56,2.18-7.43,3.81-11.32,5.14c-6.64,2.26-9.01,7.21-9.77,13.53
			c-0.16,1.37,0.04,2.67,0.52,3.93c1.07,2.8,2.88,3.76,5.93,3.17c0.43-0.08,0.86-0.21,1.29-0.32c0.45,0.93,0.94,1.75,0.15,2.86
			c-2.68,3.73-4.98,7.76-7.92,11.26c-3.91,4.67-8.33,8.8-14,11.5c-4.4,2.1-8.26,0.9-10.95-2.74c-2.9-3.94-5.6-8.01-7.99-12.28
			c-2.39-4.27-5.01-8.4-8.02-12.26c-1.24-1.6-2.43-3.43-4.71-3.83c-0.28-4.3-0.75-8.61-0.81-12.91c-0.16-11.47-0.29-22.94-0.16-34.4
			c0.11-9.83,0.79-19.64,2.53-29.34c0.79-4.41,1.93-8.71,3.6-12.88c2.79-7,7.36-12.53,13.71-16.59c3.52-2.26,7.29-4.04,11.15-5.63
			c15.78-6.5,32.08-11,49.05-12.99c4.3-0.5,8.62-0.57,12.94-0.28c2.39,0.16,4.72,0.67,6.89,1.74c2.48,1.23,3.88,3.15,3.86,6.01
			c-0.05,7.21-0.97,14.26-3.74,20.97c-2.58,6.26-6.85,11.12-12.53,14.74c-5.68,3.63-11.81,6.29-18.21,8.35
			c-4.96,1.59-9.94,3.1-14.91,4.69c-3.72,1.19-6.53,3.5-8.37,6.95c-1.08,2.01-1.63,4.16-1.42,6.45c0.19,2.06,1.34,3.23,3.44,3.43
			c1.95,0.18,3.84-0.12,5.73-0.65c5.47-1.52,10.58-3.96,15.82-6.09c3.03-1.24,6.08-2.43,9.17-3.49c1.53-0.53,3.17-0.83,4.78-1.05
			c1.79-0.25,3.56-0.1,4.88,1.43c-0.07,0.87,0.12,1.86-0.56,2.54c-1.48,1.5-2.24,3.46-3.42,5.13c-5.5,7.74-9.47,16.32-13.57,24.81
			C526.68,440.9,524.92,443.76,525.02,447.16z" />
			<path class="st15" d="M781.56,600.33c0.11,1.18,0.32,2.35,0.32,3.53c0.01,15.18,0,30.37-0.02,45.55c0,3.28-0.19,6.54-1.17,9.71
			c-1.6,5.24-5.13,8.31-10.48,9.11c-6.55,0.98-13.08,0.52-19.46-1.25c-6.17-1.71-9.83-5.84-11.19-12.09
			c-0.64-2.93-0.88-5.88-0.88-8.87c-0.01-8.19-0.06-16.37-0.83-24.54c-0.32-3.42-0.75-6.82-2.04-10.02
			c-1.45-3.62-4.26-5.19-8.15-4.79c-2.24,0.23-3.93,1.29-5.01,3.27c-0.94,1.72-1.51,3.58-1.77,5.5c-0.41,3.09-0.86,6.2-0.97,9.32
			c-0.25,6.84-0.29,13.69-0.43,20.53c-0.07,3.42-0.25,6.83-1.13,10.18c-1.45,5.58-4.92,9-10.52,10.36
			c-4.69,1.14-9.45,1.03-14.21,0.91c-2.53-0.06-5.04-0.27-7.5-1c-4.86-1.43-7.86-4.57-9.17-9.44c-0.71-2.61-0.98-5.27-1.03-7.95
			c-0.51-28.43-0.74-56.86,0.38-85.28c0.31-7.87,0.55-15.77,1.87-23.56c3.22,0.22,6.42-0.29,9.68-0.12
			c5.17,0.28,9.98,1.61,14.61,3.58c8.28,3.53,15.61,8.56,21.97,14.96c2.62,2.63,5.09,5.38,7.5,8.22c3.36,3.97,6.5,8.08,9.65,12.2
			c3.87,5.07,7.78,10.11,12.41,14.56c5.03,4.84,11,7.45,17.82,8.24c1.3,0.15,2.74,0.11,3.97-0.29
			C777.73,600.25,779.64,600.38,781.56,600.33z" />
			<path class="st15" d="M859.42,379.55c-3.07,4.24-7.49,6.16-12.43,7.12c-2.04,0.4-4.13,0.58-6.18,0.96
			c-1.88,0.35-2.49,1.39-2.01,3.22c0.5,1.89,1.48,3.58,2.5,5.22c2.61,4.17,5.26,8.31,7.91,12.44c3.87,6.02,7.6,12.11,10.75,18.55
			c2.49,5.09,4.69,10.3,5.94,15.86c0.2,0.87,0.48,1.74,0.55,2.62c0.59,7.3,0.43,14.58-0.92,21.8c-0.19,1.01-0.58,2-1,2.95
			c-0.96,2.18-2.61,3.56-4.95,4.14c-1.76,0.43-3.52,0.56-5.32,0.35c-6.09-0.71-11.99-2.28-17.84-4c-3.89-1.14-6.69-3.81-9-7.01
			c-2.47-3.4-4.21-7.18-5.68-11.1c-2.68-7.13-4.44-14.51-6.12-21.92c-1.51-6.68-2.95-13.38-4.51-20.04c-0.88-3.77-1.97-7.49-3.65-11
			c-0.77-1.62-1.69-3.15-3.19-4.24c-1.73-1.25-3.5-0.85-4.43,1.09c-0.78,1.62-1.15,3.37-1.33,5.17c-0.53,5.5-0.66,10.99-0.46,16.51
			c0.3,8.34,0.46,16.68,0.65,25.02c0.04,1.64-0.11,3.28-0.05,4.92c0.17,4.64-2.6,8.51-7.99,9.91c-2.31,0.6-4.68,0.93-7.08,0.81
			c-5.52-0.26-10.97-0.99-16.29-2.56c-1.14-0.34-2.24-0.8-3.32-1.3c-4.33-1.98-7.09-5.29-8.32-9.91c-0.66-2.47-0.95-4.97-0.91-7.52
			c0.05-3.28,0.12-6.55,0.23-9.83c0.29-9.23,0.6-18.46,0.93-27.69c0.03-0.88,0.24-1.75,0.36-2.63c1.36,0.01,2.55-0.32,3.74-1.13
			c4.64-3.17,9.29-6.3,13.61-9.94c5.07-4.29,10.53-8.12,15.64-12.36c4.45-3.69,9.05-7.14,13.98-10.15
			c5.13-3.14,10.8-4.76,16.71-5.62c2.97-0.43,5.85,0.03,8.8,0.58c8.42,1.58,15.6,5.35,21.73,11.28c2.36,2.28,4.57,4.66,6.19,7.53
			C857.28,378.79,858.1,379.5,859.42,379.55z" />
			<path class="st16" d="M452.23,460.07c-1.52,0.06-2.89-0.5-4.31-0.92c-7.26-2.13-13.58-0.66-19.21,4.56
			c-4.2,3.9-7.45,8.44-10.01,13.44c-2.08,4.06-3.65,8.4-5.33,12.65c-2.39,6.04-4.77,12.09-6.95,18.22
			c-0.52,1.45-1.45,2.55-2.08,3.87c-2.21-2.59-5.13-3.4-8.38-3.35c-1.49,0.02-2.97,0.14-4.46,0.23c-2.53,0.15-5.04,0.14-7.57-0.16
			c-5.99-0.72-10.6-3.65-14.14-8.43c-2.5-3.38-4.25-7.15-5.62-11.11c-2.26-6.49-3.52-13.21-4.45-20
			c-0.95-6.94-1.33-13.94-1.47-20.92c-0.27-13.77,1.08-27.35,5.88-40.4c1.55-4.21,3.5-8.21,5.99-11.94
			c6.34-9.51,14.98-15.56,26.34-17.51c5.45-0.93,10.9-1.35,16.44-0.67c9.17,1.13,16.65,5.22,22.45,12.4
			c3.69,4.56,6.29,9.73,8.36,15.19c3.03,7.97,4.78,16.26,6.07,24.66c1.48,9.57,2.09,19.23,2.59,28.89
			C452.39,459.18,452.28,459.63,452.23,460.07z M383.04,449.59c0,2.37-0.15,4.76,0.04,7.12c0.29,3.55,0.88,7.08,2.52,10.32
			c1.8,3.56,4.71,5.27,8.68,4.94c6.27-0.52,11.64-3.25,13.44-10.91c1.71-7.31,1.71-14.73,0.13-22.08c-0.6-2.78-1.81-5.33-3.8-7.44
			c-1.36-1.44-2.93-2.49-4.92-2.83c-6.96-1.17-13.75,3.37-15.5,10.27C382.72,442.48,382.84,446.03,383.04,449.59z" />
			<path class="st15" d="M729.37,390.28c0.43,0.04,0.87,0.09,1.3,0.13c0.55,2.87,2.27,5.15,4.19,7.1c6.25,6.35,3.81,5.24,12.08,5.2
			c1.14,1.31,1.21,3,1.52,4.57c0.56,2.93,0.94,5.88,0.93,8.87c-0.03,6.4-0.04,12.8-0.17,19.19c-0.06,3.28-0.54,6.52-1.56,9.66
			c-1.48,4.6-4.48,7.7-9.21,8.85c-7.02,1.71-14.13,2.05-21.24,0.65c-3.82-0.75-6.3-3.1-7.33-6.96c-0.54-2.04-0.75-4.1-0.76-6.18
			c-0.01-3.42,0.02-6.85,0.06-10.27c0.02-2.26-0.34-4.46-1.13-6.56c-1.28-3.39-3.77-5.39-7.38-5.57
			c-7.14-0.35-15.52,2.02-18.21,12.38c-0.56,2.15-0.88,4.37-1.12,6.58c-0.33,2.96-0.49,5.93-0.71,8.9
			c-0.39,5.26-2.87,9.03-7.95,10.76c-7.35,2.51-14.86,4.35-22.67,4.4c-7.38,0.05-10.99-3.08-12.12-10.34
			c-0.3-1.9-0.36-3.86-0.3-5.79c0.5-18.74,1.04-37.49,1.57-56.23c0.2-6.99,0.35-13.98,0.59-20.97c0.05-1.46-0.27-2.99,0.52-4.37
			c1.82,0.08,2.92-1.33,4.27-2.15c6.81-4.14,13.45-8.57,21.02-11.32c3.76-1.36,7.49-2.74,11.57-2.59c1.24,0.05,2.32-0.35,3.39-0.88
			c2.08,1.97,2.5,4.61,2.8,7.25c0.4,3.53,0.44,7.07,0.28,10.63c-0.24,5.47-0.43,10.94,0.36,16.39c0.96,6.57,3.28,8.59,10.02,8.62
			c1.92,0.01,3.84,0.02,5.75,0.03c2.8-0.02,5.59-0.07,8.39-0.07C715.22,390.21,722.29,390.25,729.37,390.28z" />
			<path class="st16" d="M411.73,726.05c0.08-0.88,0.07-1.77,0.25-2.63c0.52-2.5,0.56-5.02,0.58-7.55c0.03-2.43-1.27-3.88-3.47-4.61
			c-1.85-0.61-3.76-0.9-5.71-0.92c-3.42-0.04-6.85-0.07-10.27-0.14c-4.92-0.1-9.81-0.6-14.59-1.78
			c-12.09-2.99-20.37-10.3-23.98-22.28c-5.25-17.43-3.33-33.96,7.76-48.75c13.52-18.03,31.52-28.65,54.01-31.29
			c6.59-0.78,13.07,0.05,19.35,2.27c3.54,1.25,6.82,2.98,9.69,5.41c7.93,6.7,11.39,15.07,9.23,25.42
			c-2.4,11.48-8.88,19.95-19.2,25.48c-1.84,0.99-3.8,1.67-5.85,2.13c-4.03,0.9-7.35-0.25-10-3.35c-0.96-1.13-1.76-2.39-2.63-3.6
			c-0.69-0.97-1.3-2.01-2.05-2.92c-2.1-2.54-4.01-3.06-7.12-1.86c-5,1.91-8.11,5.42-8.73,10.85c-0.2,1.77-0.18,3.56-0.25,5.35
			c-0.09,2.21,1.02,3.73,2.95,4.55c1.49,0.63,3.08,1.14,4.68,1.39c2.79,0.45,5.61,0.71,8.42,0.96c4.15,0.37,8.31,0.62,12.46,1.01
			c1.32,0.12,2.61,0.51,3.92,0.78c0.24,0.69,0.66,1.35,0.23,2.11c-0.65,1.17-1.23,2.37-1.92,3.51c-2.16,3.56-4,7.26-5.55,11.13
			c-2.26,5.64-4.21,11.37-6.08,17.15c-0.96,2.96-2.07,5.86-3.18,8.77c-0.37,0.96-0.94,1.85-1.44,2.76
			C412.93,725.97,412.34,726.04,411.73,726.05z" />
			<path class="st16" d="M781.56,600.33c-1.92,0.05-3.83-0.07-5.75,0.54c-1.23,0.4-2.66,0.44-3.97,0.29
			c-6.83-0.79-12.79-3.4-17.82-8.24c-4.63-4.45-8.54-9.49-12.41-14.56c-3.15-4.12-6.29-8.23-9.65-12.2
			c-2.41-2.84-4.88-5.59-7.5-8.22c-6.36-6.4-13.69-11.43-21.97-14.96c-4.63-1.97-9.44-3.3-14.61-3.58
			c-3.26-0.18-6.46,0.34-9.68,0.12c0.89-12.22,3.04-24.18,7.78-35.55c0.91-2.19,2.06-4.29,3.27-6.33
			c4.78-8.01,11.7-13.37,20.59-16.12c6.15-1.91,12.48-2.67,18.91-2.8c7.16-0.14,14.27,0.09,21.27,1.84
			c10.14,2.54,17.55,8.43,22.16,17.85c2.84,5.8,4.53,11.95,5.71,18.25c1.56,8.34,2.35,16.78,2.89,25.25
			c1.16,18.13,0.92,36.29,1.08,54.43C781.88,597.67,781.67,599,781.56,600.33z M737.58,552.73c0.91-0.07,2.24-0.16,3.57-0.29
			c3.55-0.35,5.67-2.34,6.49-5.75c1.09-4.55,1.21-9.11,0-13.66c-1.41-5.27-4.71-8.8-9.89-10.55c-3.01-1.02-6.09-1.25-9.23-0.98
			c-4.41,0.37-7.41,2.72-9.22,6.7c-1.06,2.34-1.37,4.85-1.61,7.36c-0.69,7.31,2.94,13.04,9.85,15.64
			C730.63,552.37,733.88,552.66,737.58,552.73z" />
			<path class="st16" d="M278.61,498.38c-2.08-5.47-3.04-11.2-3.76-16.95c-2.02-16.14-2.48-32.35-1.88-48.59
			c0.28-7.46,1.4-14.81,3.57-21.98c1.34-4.44,3.19-8.65,5.79-12.51c5.23-7.75,12.55-12.22,21.75-13.33
			c6.96-0.84,13.97-0.69,20.89,0.77c9.36,1.98,16.16,7.24,20.32,15.88c2.41,5.01,3.77,10.35,4.47,15.83
			c0.49,3.83,0.82,7.7,0.97,11.56c0.28,7.29,0.43,14.58,0.54,21.88c0.17,11.02-0.18,22.03-1.46,32.99
			c-0.9,7.7-2.37,15.29-5.14,22.57c-0.58,1.52-1.05,3.1-2.09,4.42c-1.34,0.02-2.14-0.87-2.99-1.72c-2.83-2.85-5.68-5.68-8.5-8.53
			c-2.45-2.47-5.36-4.23-8.54-5.54c-6.52-2.68-13.41-2.61-20.17-1.77c-5.09,0.64-10.13,2.04-15.07,3.65
			C284.51,497.94,281.64,498.78,278.61,498.38z M324.35,457.37c-0.12-1.82-0.18-4.21-0.47-6.56c-0.44-3.56-1.36-7-3.42-10.02
			c-2.55-3.75-6.43-5.28-10.84-4.4c-3.4,0.68-5.97,2.55-7.92,5.33c-1.46,2.1-2.32,4.45-2.91,6.93c-1.25,5.22-0.36,10.34,0.67,15.44
			c0.56,2.78,1.55,5.42,2.95,7.9c1.49,2.63,3.4,4.87,6.05,6.39c4.27,2.45,8.88,1.48,11.84-2.49c1.35-1.81,2.15-3.88,2.75-6.05
			C324.12,465.94,324.18,461.93,324.35,457.37z" />
			<path class="st16" d="M859.42,379.55c-1.32-0.05-2.14-0.76-2.78-1.9c-1.62-2.87-3.83-5.25-6.19-7.53
			c-6.13-5.92-13.31-9.7-21.73-11.28c-2.95-0.55-5.83-1.02-8.8-0.58c-5.9,0.86-11.57,2.47-16.71,5.62
			c-4.92,3.01-9.52,6.46-13.98,10.15c-5.12,4.24-10.57,8.07-15.64,12.36c-4.32,3.65-8.97,6.77-13.61,9.94
			c-1.19,0.81-2.37,1.14-3.74,1.13c-0.05-0.74-0.15-1.48-0.14-2.22c0.38-23.37,0.78-46.73,1.14-70.1c0.06-3.9,0.48-7.71,1.66-11.44
			c2.84-8.99,8.66-15.09,17.52-18.31c6.56-2.38,13.36-2.87,20.25-2.31c12.69,1.03,24.98,3.78,36.78,8.64
			c6.5,2.67,12.63,5.99,18.24,10.25c3.33,2.53,6.35,5.39,9,8.64c5.46,6.71,8.34,14.34,8.2,23.04c-0.12,7.16-0.62,14.27-2.35,21.25
			c-1.15,4.65-2.8,9.1-5.62,13.03C860.5,378.54,859.92,379.02,859.42,379.55z M817.82,349.2c1.63-0.01,3.27,0.03,4.86-0.43
			c3.44-1.01,5.27-3.11,5.57-6.67c0.27-3.28,0.03-6.53-1.2-9.64c-1.19-3.01-3.19-5.35-6.07-6.85c-3.65-1.91-7.56-2.67-11.64-2.24
			c-3.78,0.39-5.92,2.35-6.65,6.11c-0.81,4.18-0.36,8.29,1.17,12.25c1.32,3.42,3.88,5.52,7.36,6.58
			C813.38,348.95,815.58,349.21,817.82,349.2z" />
			<path class="st15" d="M955.05,620.9c11.29,9.34,19.75,20.53,22.79,35.2c0.94,4.53,1.41,9.11,1.24,13.75
			c-0.3,8.64-4.84,14.23-13.18,16.29c-4.39,1.08-8.85,1.15-13.31,0.81c-3.06-0.23-5.71-1.56-7.99-3.61
			c-2.02-1.81-3.56-3.98-4.87-6.34c-2.32-4.19-3.95-8.66-5.21-13.26c-1.84-6.74-3.51-13.53-5.36-20.27
			c-0.78-2.86-1.78-5.67-2.79-8.47c-0.71-1.96-1.71-3.8-2.95-5.49c-0.89-1.21-1.92-2.27-3.24-3.02c-3.25-1.83-5.07-0.86-5.29,2.92
			c-0.31,5.53,0.52,10.99,1.2,16.45c0.87,6.94,1.9,13.85,2.86,20.78c0.04,0.29,0.05,0.6,0.11,0.89c1.01,5.11-1.27,8.6-5.47,11.16
			c-3.9,2.37-8.16,3.57-12.68,3.85c-5.25,0.33-10.39-0.37-15.46-1.72c-7.97-2.11-12.33-7.37-13.4-15.43
			c-0.25-1.91-0.31-3.86-0.31-5.79c0.07-26.79,0.17-53.58,0.28-80.36c0.01-1.33,0.2-2.66,0.3-3.98c1.04,0.02,2.04,0.1,3.06,0.45
			c7.36,2.54,13.7,6.9,20.09,11.18c1.71,1.15,3.32,2.48,4.83,3.89c2.59,2.42,5.38,4.64,8.07,6.94c4.82,4.11,9.98,7.85,15.47,11.07
			c3.19,1.87,6.4,3.73,9.73,5.33c3.46,1.66,7.03,3.12,10.64,4.44c3.18,1.16,6.48,2.03,9.74,2.95
			C954.24,621.58,954.68,621.11,955.05,620.9z" />
			<path class="st16" d="M955.05,620.9c-0.36,0.21-0.8,0.68-1.08,0.6c-3.27-0.92-6.56-1.79-9.74-2.95
			c-3.61-1.32-7.18-2.78-10.64-4.44c-3.33-1.6-6.54-3.46-9.73-5.33c-5.49-3.22-10.65-6.95-15.47-11.07
			c-2.69-2.3-5.47-4.51-8.07-6.94c-1.51-1.41-3.12-2.74-4.83-3.89c-6.38-4.28-12.73-8.64-20.09-11.18
			c-1.01-0.35-2.02-0.42-3.06-0.45c-0.07-1.18-0.23-2.37-0.2-3.55c0.42-16.22,0.86-32.44,1.31-48.66c0.08-2.98,0.32-5.94,1.17-8.83
			c1.76-5.95,5.22-8.71,11.42-8.59c6.78,0.13,13.25,1.87,19.36,4.77c4.01,1.9,6.33,5.32,7.57,9.49c1.15,3.87,1.58,7.87,1.8,11.89
			c0.54,10.01-0.39,19.92-2.12,29.77c-0.49,2.78-0.81,5.6-1.15,8.4c-0.29,2.4-0.1,4.77,0.85,7.01c1.01,2.38,3.2,2.78,4.92,0.8
			c0.86-0.99,1.6-2.17,2.09-3.39c0.98-2.48,1.87-5.02,2.59-7.59c1.84-6.59,3.53-13.22,5.35-19.82c1.15-4.16,2.67-8.21,4.52-12.11
			c1.67-3.51,3.68-6.8,6.41-9.61c4.54-4.65,10.07-6.34,16.32-5c11.16,2.39,18.72,9.29,23.4,19.52c0.94,2.05,1.19,4.26,1.12,6.54
			c-0.47,14.59-5.68,26.96-17.04,36.42c-2.97,2.47-6.15,4.69-9.22,7.05c-2.24,1.72-4.53,3.39-6.66,5.25
			c-1.22,1.06-2.33,2.33-3.21,3.68c-1.84,2.85-1.95,5.88-0.32,8.89c1.14,2.11,2.69,3.92,4.41,5.58
			C949.7,615.75,952.37,618.32,955.05,620.9z" />
			<path class="st15" d="M266.9,698.71c0.33,2.74-0.29,5.34-1.28,7.84c-1.35,3.4-3.62,4.83-7.24,4.84c-2.27,0.01-4.42-0.58-6.53-1.33
			c-5.9-2.1-11.56-4.73-17.21-7.41c-1.34-0.64-2.7-1.25-4.08-1.81c-1.43-0.58-2.64-0.08-3.59,1.02c-1.57,1.81-2.04,4.03-1.72,6.28
			c0.71,5.05,3.14,9.04,8.12,10.84c3.35,1.21,6.83,2.08,10.29,2.93c4.62,1.13,9.3,2.07,13.79,3.67c2.24,0.79,4.47,1.66,6.59,2.72
			c6.79,3.41,11.11,8.8,12.75,16.28c0.93,4.24,1.38,8.53,1.22,12.86c-0.17,4.46-1.88,6.45-6.18,7.52c-2.94,0.73-5.89,0.67-8.88,0.38
			c-7.29-0.72-14.39-2.38-21.39-4.42c-10-2.92-19.87-6.23-29.43-10.41c-3.82-1.67-7.51-3.6-11.03-5.85
			c-7.69-4.92-12.96-11.68-15.97-20.3c-2.12-6.09-3.35-12.36-4.1-18.71c-1.95-16.58-2.41-33.25-2.83-49.92
			c-0.01-0.59,0.13-1.18,0.19-1.77c1.03,0.11,2.06,0.19,3.09,0.35c3.06,0.47,6.11,1.3,9.18,1.38c5.06,0.13,9.99,0.97,14.96,1.79
			c11.34,1.86,21.55,6.39,31.12,12.58c4.99,3.23,9.76,6.77,14.17,10.72c5.21,4.67,9.81,9.92,13.13,16.16
			C264.68,698.09,265.58,698.7,266.9,698.71z" />
			<path class="st15" d="M137.02,599.43c-0.02,0.44,0.06,0.91-0.06,1.32c-2.95,10.1-3.97,20.44-3.8,30.9
			c0.11,7.14,0.28,14.29,1.21,21.39c0.39,2.96,0.94,5.88,1.82,8.73c1.51,4.88,4.34,8.81,8.66,11.53c2.64,1.66,5.41,3.14,8.2,4.51
			c2.8,1.38,5.68,2.6,8.58,3.76c5.28,2.11,8.8,5.94,11.09,11.04c2.22,4.96,3.08,10.24,3.52,15.6c0.17,2.07,0.22,4.17,0.11,6.25
			c-0.3,5.88-3.63,10.05-9.27,11.77c-3.62,1.1-7.33,1.21-11.06,0.73c-3.84-0.49-7.65-1.27-11.3-2.58c-6.3-2.25-12.57-4.6-18.8-7.06
			c-2.62-1.04-5.14-2.36-7.61-3.73c-7.74-4.29-13.08-10.64-16.12-18.96c-2.26-6.19-3.54-12.6-4.42-19.1
			c-2.25-16.69-2.9-33.51-3.65-50.31c-0.53-11.75-0.84-23.5-1.2-35.26c-0.16-5.2-0.12-10.41,0.44-15.6
			c3.44-0.29,6.79,0.38,10.13,0.99c5.31,0.97,10.44,2.77,14.75,5.94c4.75,3.49,9.41,7.23,12.67,12.35c1.03,1.62,2.33,3.07,3.38,4.68
			C135,599.43,135.97,599.44,137.02,599.43z" />
			<path class="st16" d="M266.9,698.71c-1.32-0.01-2.22-0.61-2.85-1.79c-3.32-6.24-7.93-11.5-13.13-16.16
			c-4.41-3.95-9.18-7.49-14.17-10.72c-9.58-6.19-19.79-10.72-31.12-12.58c-4.97-0.82-9.9-1.66-14.96-1.79
			c-3.07-0.08-6.12-0.91-9.18-1.38c-1.02-0.16-2.06-0.24-3.09-0.35c-0.25-5.2-0.6-10.39-0.72-15.6
			c-0.31-12.65-0.62-25.31,0.51-37.95c0.4-4.46,1.08-8.85,2.45-13.14c2.01-6.3,6.21-11.58,16.09-9.52c3.08,0.64,6.06,1.52,8.98,2.64
			c19.32,7.4,37.06,17.62,53.52,30.11c3.2,2.43,6.21,5.11,8.98,8.03c2.26,2.38,4.31,4.93,5.87,7.84c1.28,2.39,2.16,4.91,2.28,7.64
			c0.24,5.36,0.22,10.72-0.72,16.03c-0.44,2.5-1.07,4.95-2.33,7.18c-1.83,3.24-4.55,5.04-8.34,5.04c-2.09,0-4.15-0.2-6.18-0.76
			c-4.62-1.27-9.01-3.07-13.18-5.4c-4.03-2.25-8.03-4.55-12.05-6.8c-1.3-0.72-2.6-1.49-3.98-2.01c-3.83-1.45-6.54,0.36-6.78,4.38
			c-0.15,2.5,0.62,4.69,2.11,6.66c1.45,1.92,3.26,3.47,5.2,4.86c4.02,2.87,8.4,5.07,12.91,7.03c3.82,1.66,7.63,3.35,11.42,5.07
			c2.18,0.98,4.22,2.21,6.13,3.65c3.49,2.64,5.61,6.12,6.2,10.47C267.18,692.49,267.7,695.6,266.9,698.71z" />
			<path class="st16" d="M291.68,733.52c-0.26-0.9-0.18-1.79,0.08-2.68c0.85-0.54,0.94-1.12,0.09-1.75
			c0.04-5.83,1.16-11.53,2.14-17.24c2.12-12.32,5.33-24.41,8-36.61c0.32-1.45,0.61-2.92,0.8-4.39c0.29-2.13-0.05-2.68-1.93-3.42
			c-0.83-0.33-1.7-0.56-2.52-0.9c-9.35-3.91-15.11-10.89-17.21-20.74c-1.38-6.46-1.28-13.01-0.21-19.53
			c0.27-1.63,0.76-3.18,1.48-4.66c1.24-2.55,3.25-4.23,5.94-5.06c2-0.61,4.06-0.86,6.16-0.91c4.04-0.09,8.03,0.44,12,0.98
			c7.51,1.02,15,2.24,22.48,3.47c3.08,0.51,6.09,1.36,9,2.55c5.14,2.1,8.66,5.73,10.21,11.07c2.1,7.22,2.87,14.61,1.72,22.07
			c-1.39,9.04-7.17,14.53-16.27,15.81c-4.51,0.63-4.6,0.66-3.57,5.05c1.88,7.96,3.95,15.87,5.81,23.84
			c1.41,6.08,2.63,12.21,3.89,18.33c0.21,1,0.15,2.06,0.22,3.1c-2.23-0.01-4.4,0.41-6.6,0.69c-5.55,0.72-10.64,2.61-15.57,5.05
			c-3.2,1.58-6.54,2.81-9.82,4.19c-2.19,0.92-4.39,1.83-6.73,2.21C298.06,734.58,294.81,735,291.68,733.52z" />
			<path class="st15" d="M261.1,497.5c1.39,5.65,1.92,11.45,2.66,17.2c1.09,8.42,1.57,16.91,1.79,25.39
			c0.19,7.46-0.13,14.89-1.5,22.25c-0.55,2.94-1.36,5.8-2.7,8.48c-2.87,5.71-7.13,8.19-13.42,7.42
			c-9.27-1.13-17.02-5.15-22.78-12.66c-3.03-3.94-5.1-8.38-6.71-13.05c-2.28-6.66-3.5-13.55-4.33-20.5
			c-1.41-11.72-1.54-23.49-0.83-35.25c0.65-10.71,2-21.35,3.79-31.92c1.02-6.02,2.12-12.02,3.22-18.03c0.3-1.6,0.75-3.18,1.14-4.76
			c2.99-0.32,5.69,0.68,7.82,2.55c3.66,3.22,7.37,6.49,9.69,10.9c1.99,3.8,3.97,7.6,5.35,11.7c1.74,5.18,3.62,10.32,5.66,15.39
			c1.38,3.43,2.98,6.81,5.25,9.76C256.82,494.45,258.29,496.77,261.1,497.5z" />
			<path class="st15" d="M630.3,372.35c0.29,2.65,0.69,5.3,0.87,7.96c1.02,15.14,1.57,30.3,1.05,45.48
			c-0.28,8.19-1.18,16.31-3.46,24.22c-0.49,1.71-1.07,3.4-1.7,5.07c-3.7,9.85-10.42,16.83-20.12,20.91
			c-4.53,1.91-9.14,3.54-14.09,4.03c-6.58,0.65-11.22-1.83-14.24-7.69c-1.8-3.48-2.71-7.25-3.28-11.07
			c-1.35-9.01-1.41-18.08-0.64-27.14c1.58-18.6,5.88-36.66,10.9-54.57c0.6-2.13,0.89-4.36,2-6.33c0.7,0.99,1.75,0.95,2.79,0.97
			c1.77,0.03,3.58-0.13,5.3,0.19c5.19,0.97,10.47,1.66,15.25,4.16c0.64,0.34,1.38,0.53,2.1,0.67c0.71,0.14,1.53,0.38,2.16,0.16
			c2.92-0.99,5.98-1.56,8.62-3.34C625.87,374.64,628.13,373.56,630.3,372.35z" />
			<path class="st16" d="M630.3,372.35c-2.17,1.21-4.43,2.29-6.49,3.67c-2.65,1.77-5.71,2.35-8.62,3.34
			c-0.63,0.21-1.45-0.02-2.16-0.16c-0.72-0.15-1.46-0.34-2.1-0.67c-4.79-2.49-10.06-3.19-15.25-4.16c-1.72-0.32-3.53-0.16-5.3-0.19
			c-1.04-0.02-2.09,0.02-2.79-0.97c0.47-2.02,0.95-4.04,1.4-6.07c0.19-0.87,0.36-1.74,0.44-2.63c0.06-0.68-0.35-1.15-1.05-1.09
			c-0.73,0.06-1.45,0.26-2.17,0.42c-1.75,0.37-3.48,0.82-5.24,1.09c-2.21,0.34-4.45,0.39-6.66-0.06c-4.98-1.01-8.12-3.89-8.74-8.87
			c-0.83-6.73-0.21-13.39,2.75-19.62c1.77-3.72,4.63-6.53,7.96-8.88c3.54-2.51,7.4-4.41,11.38-6.11c6.3-2.69,12.84-4.69,19.42-6.57
			c11.87-3.38,23.72-6.8,35.88-9.04c5.28-0.97,10.6-1.58,15.94-1.89c4.63-0.27,9.22,0.09,13.71,1.34
			c8.56,2.39,11.49,8.74,10.63,16.67c-0.32,2.93-1.95,5.26-3.99,7.31c-2.45,2.45-5.36,4.23-8.42,5.8
			c-5.05,2.59-10.36,4.51-15.79,6.08c-5.57,1.61-11.2,2.99-16.79,4.52c-2.29,0.63-4.57,1.32-6.8,2.13
			c-1.87,0.68-2.79,2.09-2.61,4.17c0.45,5.04,0.84,10.08,1.26,15.12C630.24,368.8,630.63,370.56,630.3,372.35z" />
			<path class="st15" d="M825.58,576.18c-0.03,5.2-0.05,10.4-0.11,15.61c-0.05,4.33,0.32,8.63,0.79,12.93
			c0.07,0.59,0.13,1.18,0.22,1.77c1.21,8.23,5.62,13.61,13.9,15.49c3.63,0.82,7.23,1.87,10.91,2.32
			c6.42,0.77,10.15,4.51,12.33,10.22c1.83,4.79,2.31,9.84,2.67,14.89c0.12,1.63,0.13,3.28,0.06,4.91
			c-0.3,7.77-3.81,13.64-10.58,17.49c-3.95,2.24-8.25,3.35-12.77,3.69c-6.15,0.47-12.2-0.35-18.23-1.29
			c-3.82-0.6-7.6-1.45-11.37-2.32c-1.73-0.4-3.42-1.04-5.08-1.69c-6.55-2.58-11.24-7.13-14.15-13.54c-2.36-5.2-3.64-10.7-4.48-16.31
			c-2.12-14.19-2.27-28.49-2.44-42.79c-0.01-0.58,0.21-1.16,0.32-1.74c2.5-0.69,4.39-2.41,6.42-3.86
			c6.39-4.58,12.9-8.91,20.36-11.61C818.11,578.98,821.84,577.57,825.58,576.18z" />
			<path class="st16" d="M261.1,497.5c-2.81-0.73-4.28-3.05-5.88-5.12c-2.28-2.94-3.87-6.33-5.25-9.76
			c-2.04-5.07-3.92-10.21-5.66-15.39c-1.38-4.1-3.36-7.91-5.35-11.7c-2.32-4.41-6.03-7.69-9.69-10.9c-2.13-1.87-4.83-2.87-7.82-2.55
			c0.34-2.5,0.71-5,0.99-7.51c0.26-2.3-0.14-2.98-2.34-3.56c-4.33-1.13-8.59-2.43-12.75-4.07c-5.42-2.14-10.62-4.7-15.41-8.03
			c-2.83-1.97-5.41-4.2-7.62-6.84c-5.77-6.92-6.17-14.6-3-22.65c1.54-3.91,4.58-6.53,8.35-8.33c4.52-2.16,9.36-3,14.29-3.21
			c4.46-0.19,8.95-0.24,13.4,0.04c9.96,0.63,19.88,1.68,29.71,3.48c3.38,0.62,6.68,1.53,9.84,2.88c5.55,2.36,9.28,6.36,10.86,12.23
			c0.5,1.87,0.99,3.75,1.23,5.66c0.71,5.63,0.96,11.27,0.46,16.94c-0.2,2.24-0.79,4.39-1.65,6.47c-2.65,6.41-7.51,9.78-14.37,10.36
			c-0.3,0.03-0.6,0.05-0.89,0.03c-3.56-0.26-3.99,0.72-3.17,4.27c2.09,9.14,4.14,18.29,6.06,27.47c1.98,9.47,3.78,18.98,5.65,28.47
			C261.14,496.6,261.09,497.06,261.1,497.5z" />
			<path class="st15" d="M411.73,726.05c0.61-0.01,1.2-0.08,1.53-0.68c0.5-0.91,1.07-1.8,1.44-2.76c1.11-2.9,2.23-5.81,3.18-8.77
			c1.87-5.77,3.82-11.51,6.08-17.15c1.55-3.87,3.39-7.58,5.55-11.13c0.69-1.14,1.28-2.34,1.92-3.51c0.42-0.77,0.01-1.43-0.23-2.11
			c5.59,0.45,10.76,2.19,15.34,5.42c5.84,4.12,8.84,10.08,9.58,16.97c2.5,23.17-5.12,42.13-24.23,55.95
			c-10.04,7.27-21.43,11.48-33.55,13.78c-7.38,1.4-14.78,1.61-22.14-0.09c-6.53-1.51-12.26-4.53-16.81-9.53
			c-4.68-5.14-7.37-11.05-6.96-18.22c0.23-4.03,0.61-8.02,1.93-11.84c0.77-2.21,1.4-4.56,3.48-6.05c3.77-0.47,6.9,1.45,10.1,2.86
			c6.08,2.7,12.04,5.69,18.05,8.54c3.21,1.52,6.54,2.72,9.99,3.56c3.93,0.95,7.55-0.07,10.12-3.03c2.4-2.76,4.42-5.92,5.89-9.35
			c0.44-1.03,0.47-2-0.25-2.92L411.73,726.05z" />
			<path class="st15" d="M458.23,467.11c2.27,0.41,3.46,2.24,4.71,3.83c3.01,3.86,5.63,7.99,8.02,12.26
			c2.39,4.27,5.09,8.35,7.99,12.28c2.69,3.65,6.56,4.84,10.95,2.74c5.67-2.71,10.09-6.84,14-11.5c2.94-3.5,5.24-7.53,7.92-11.26
			c0.79-1.11,0.3-1.93-0.15-2.86c6.27-4,12.48-8.08,18.82-11.96c2.91-1.78,6.02-3.25,9.1-4.72c2.29-1.09,4.74-1.78,7.27-2.06
			c4.96-0.53,8.33,1.4,10.4,5.91c0.87,1.9,1.39,3.92,1.76,5.98c0.75,4.12,0.87,8.28,0.95,12.45c0.08,3.89-1.17,7.31-3.38,10.43
			c-1.55,2.2-3.42,4.12-5.45,5.88c-3.72,3.24-7.73,6.08-11.92,8.63c-8.14,4.95-16.31,9.85-24.51,14.68
			c-6.67,3.93-13.36,7.81-20.13,11.56c-2.98,1.65-6.16,2.97-9.3,4.33c-2.34,1.01-4.82,1.53-7.37,1.66c-4.03,0.2-7.24-1.31-9.64-4.56
			c-1.88-2.55-3.06-5.43-4.03-8.42c-1.66-5.12-2.59-10.4-3.3-15.71c-1.65-12.25-2.41-24.59-2.92-36.93
			C457.99,468.88,458.16,467.99,458.23,467.11z" />
			<path class="st16" d="M825.58,576.18c-3.74,1.39-7.47,2.8-11.22,4.16c-7.45,2.71-13.97,7.04-20.36,11.61
			c-2.03,1.46-3.92,3.18-6.42,3.86c-0.54-1.9-0.36-3.84-0.32-5.77c0.37-16.81,0.5-33.63,1.65-50.41c0.8-11.72,1.68-23.45,4.25-34.96
			c0.65-2.91,1.41-5.79,2.61-8.52c0.72-1.63,1.49-3.25,2.46-4.74c2.37-3.63,5.8-5.54,10.14-5.46c6.79,0.12,13.28,1.61,19.28,4.84
			c4.39,2.36,7.38,5.97,8.8,10.77c0.59,1.99,1.13,4.04,1.31,6.09c0.73,8.35,0.51,16.65-2.08,24.74c-1.49,4.67-2.93,9.37-4.35,14.06
			c-2.63,8.71-4.47,17.58-5.21,26.66C826.05,574.15,825.77,575.16,825.58,576.18z" />
			<path class="st16" d="M690.12,349.06c-0.08-0.28-0.24-0.57-0.24-0.85c-0.11-9.08,0-18.16,1.43-27.16c0.45-2.8,1.16-5.53,2.13-8.19
			c3.36-9.21,9.72-15.19,19.29-17.49c8.2-1.97,16.49-2.24,24.8-0.74c1.31,0.24,2.61,0.61,3.86,1.08c4.45,1.68,7.57,4.74,8.89,9.34
			c1.85,6.4,2.18,12.92,0.57,19.41c-1.41,5.7-5.01,9.69-10.27,12.23c-3.65,1.76-7.57,2.66-11.51,3.43c-2.04,0.4-4.11,0.66-6.16,1.04
			c-1.61,0.3-3.23,0.59-4.79,1.06c-4.53,1.36-5.93,4.61-4,8.99c0.8,1.82,2.28,2.89,4.13,3c4.98,0.29,9.89,0.11,13.48-4.19
			c3.06-3.67,7.16-4.01,11.41-3.3c2.82,0.47,4.85,2.4,5.91,4.99c2.63,6.44,3,13.02,0.3,19.55c-1.35,3.28-3.82,5.66-6.89,7.37
			c-3.67,2.05-7.59,3.39-11.83,3.61c-3.84,0.56-6.54-0.89-8.04-4.51c-0.11-0.27-0.28-0.52-0.45-0.76
			c-4.39-6.65-9.02-13.09-14.85-18.62c-3.15-2.98-6.71-5.29-10.47-7.33C694.78,349.91,692.55,349.08,690.12,349.06z M722.04,324.26
			c3.77,0.13,6.68-2.98,6.77-7.24c0.07-3.25-3.17-6.31-6.76-6.38c-4.12-0.08-6.97,2.86-7.2,7.45
			C714.68,321.73,717.45,324.11,722.04,324.26z" />
			<path class="st16" d="M666.8,542.2c-4.07,1.81-8.14,3.61-12.2,5.43c-6.23,2.8-12.42,5.71-18.71,8.39
			c-2.99,1.28-6.16,2.14-9.46,2.33c-0.45,0.03-0.95-0.03-1.32,0.16c-1.9,0.95-3.73,0.59-5.61-0.06c-0.67-0.23-1.48-0.11-2.22-0.14
			c-2.26-12.43-4.59-24.85-6.76-37.3c-1.49-8.54,1.54-15.48,8.02-21.04c3.19-2.74,6.81-4.78,10.64-6.46
			c6.02-2.64,12.31-4.42,18.77-5.57c2.79-0.5,5.63-0.59,8.45-0.25c4.37,0.53,7.43,2.84,9.03,6.97c1.09,2.8,1.62,5.75,1.62,8.73
			c0.02,12.65-0.04,25.3-0.08,37.94C666.99,541.62,666.87,541.91,666.8,542.2z" />
			<path class="st15" d="M291.68,733.52c3.13,1.48,6.38,1.06,9.6,0.53c2.34-0.39,4.54-1.29,6.73-2.21c3.28-1.37,6.62-2.6,9.82-4.19
			c4.93-2.44,10.02-4.33,15.57-5.05c2.2-0.29,4.37-0.71,6.6-0.69c1.17,2.5,1.06,5.24,1.36,7.87c1.04,9.33,1.27,18.68-0.39,27.98
			c-0.5,2.79-1.3,5.49-2.47,8.07c-2.81,6.25-7.71,9.71-14.42,10.48c-5.06,0.58-10.08,0.11-15-1.31
			c-6.91-1.99-11.61-6.37-14.33-12.97c-1.49-3.6-2.32-7.38-2.78-11.22c-0.62-5.17-0.84-10.37-0.66-15.58
			C291.33,734.66,291.55,734.09,291.68,733.52z" />
			<path class="st15" d="M278.61,498.38c3.04,0.39,5.9-0.45,8.71-1.37c4.93-1.62,9.97-3.02,15.07-3.65
			c6.76-0.84,13.65-0.91,20.17,1.77c3.17,1.31,6.09,3.07,8.54,5.54c2.83,2.85,5.67,5.68,8.5,8.53c0.84,0.85,1.65,1.74,2.99,1.72
			c-2.16,5.55-5.77,10-10.51,13.51c-4.71,3.49-10.15,4.97-15.93,4.87c-14-0.24-24.89-6.15-32.17-18.27
			C281.61,507.08,279.66,502.91,278.61,498.38z" />
			<path class="st16" d="M137.02,599.43c-1.05,0.01-2.02,0-2.72-1.08c-1.05-1.61-2.35-3.06-3.38-4.68
			c-3.26-5.11-7.93-8.85-12.67-12.35c-4.31-3.17-9.43-4.97-14.75-5.94c-3.34-0.61-6.7-1.28-10.13-0.99
			c-0.29-6.88,0.48-13.64,2.45-20.22c2.54-8.49,6.98-11.09,15.77-9.56c4.25,0.74,8.38,1.91,12.42,3.44
			c9.84,3.74,15.11,10.94,16.62,21.26c1.15,7.92,0.9,15.68-1.52,23.33C138.38,594.89,137.71,597.17,137.02,599.43z" />
			<path class="st16" d="M562.31,533.26c-8.41-0.14-14.56,3.85-19.67,10.23c-2.8,3.5-5.24,7.16-7.25,11.14
			c-3.49,6.93-5.51,14.38-7.54,21.81c-1.4,5.13-2.4,10.37-3.81,15.49c-1.46,5.29-3.4,10.44-6.07,15.26
			c-0.82,1.49-1.39,3.35-3.4,3.84c-0.21-3.71-0.43-7.42-0.62-11.14c-0.51-10.26-1.04-20.52-1.5-30.78
			c-0.11-2.38-0.09-4.77,0.02-7.14c0.33-7.12,2.86-13.37,7.85-18.48c6.34-6.48,13.8-11.28,22.37-14.3c3.7-1.3,7.54-1.83,11.44-1.28
			C557.65,528.42,560.72,529.75,562.31,533.26z" />
			<path class="st15" d="M690.12,349.06c2.43,0.02,4.66,0.85,6.73,1.97c3.76,2.04,7.32,4.35,10.47,7.33
			c5.83,5.52,10.46,11.97,14.85,18.62c0.16,0.25,0.33,0.49,0.45,0.76c1.5,3.62,4.2,5.07,8.04,4.51c-0.41,0.17-0.81,0.47-1.23,0.5
			c-7.85,0.73-15.7,1.6-23.58,0.37c-0.73-0.11-1.47-0.25-2.19-0.42c-5.88-1.36-9.74-4.92-11.45-10.7c-0.67-2.27-1.3-4.61-1.52-6.96
			c-0.45-4.59-0.62-9.2-0.86-13.8C689.79,350.53,690.01,349.79,690.12,349.06z" />
			<path class="st16" d="M339.91,604.76c-0.07-2.67,0.2-5.02,1.29-7.2c1.58-3.16,4.08-5,7.65-5.38c7.4-0.78,14.53,4.33,16.1,11.82
			c1.56,7.42-0.24,14.15-4.87,20.1c-0.8,1.03-1.87,1.94-2.99,2.63c-2.57,1.6-4.99,0.93-6.34-1.73c-0.59-1.17-0.93-2.5-1.24-3.79
			c-0.27-1.15-0.43-2.34-0.48-3.52c-0.08-1.69-0.92-2.76-2.38-3.45c-0.4-0.19-0.8-0.4-1.21-0.56
			C341.24,612.03,339.68,608.8,339.91,604.76z" />
			<path class="st15" d="M893.49,460.01c0.6,0.81,0.45,1.7,0.21,2.56c-1.54,5.59-3.23,11.14-5.75,16.39
			c-0.7,1.46-1.61,2.85-2.58,4.16c-0.6,0.81-1.44,1.51-2.29,2.07c-1.57,1.02-3.14,0.78-4.45-0.55c-1.28-1.32-1.94-2.97-2.43-4.7
			c-1.76-6.26-1.93-12.61-1.11-19.02c0.42-3.26,1.08-6.46,2.53-9.44c0.32-0.66,0.85-1.21,1.28-1.81c0,0,0.04,0.07,0.04,0.07
			c0.04-0.33,0.22-0.53,0.55-0.59c0.04-0.2,0.16-0.31,0.36-0.35c0.06-0.33,0.26-0.46,0.58-0.39c1.61-0.35,2.47,0.56,3.16,1.84
			c1.79,3.32,4.5,5.87,7.15,8.47C891.52,459.49,892.37,460.04,893.49,460.01z" />
			<path class="st16" d="M397.18,526.17c-0.45,3.23-2.7,5.54-4.3,8.14c-2.64,4.3-6.49,7.63-10.09,11.13
			c-0.62,0.61-1.43,1.03-2.16,1.53c-5.19,3.6-8.74,3.09-13.42-1.28c-2.69-2.51-5.44-4.98-7.47-8.15c-0.74-1.15-1.66-2.54-3.44-2.46
			c2.46-1.27,5.23-1.06,7.84-1.51c10.42-1.77,20.72-4.03,30.86-7.03C395.7,526.34,396.45,526.29,397.18,526.17z" />
			<path class="st16" d="M411.74,726.02c0.73,0.92,0.69,1.89,0.25,2.92c-1.47,3.43-3.49,6.59-5.89,9.35
			c-2.56,2.95-6.18,3.98-10.12,3.03c-3.45-0.83-6.78-2.03-9.99-3.56c-6.02-2.85-11.97-5.84-18.05-8.54
			c-3.2-1.42-6.33-3.33-10.1-2.86c1.55-3.18,4.45-4.66,7.54-5.79c4.26-1.55,8.73-1.73,13.17-1.16c4.09,0.53,7.19,2.66,8.92,6.5
			c0.67,1.48,1.17,3.03,1.73,4.56c0.56,1.53,0.97,3.12,1.64,4.6c1.53,3.36,3.39,4.41,7.09,3.94c5.1-0.65,8.65-3.62,11.18-7.91
			C410.1,729.46,410.88,727.72,411.74,726.02z" />
			<path class="st15" d="M525.02,447.16c-0.09-3.4,1.66-6.26,3.04-9.12c4.1-8.49,8.07-17.07,13.57-24.81
			c1.19-1.67,1.94-3.63,3.42-5.13c0.67-0.68,0.49-1.66,0.56-2.54c0.81,0.24,1.1,0.95,1.4,1.62c0.66,1.51,0.98,3.11,1.07,4.75
			c0.32,5.53-0.19,10.98-1.72,16.3c-1.61,5.63-4.84,10.14-9.8,13.33C532.94,443.89,529.16,445.9,525.02,447.16z" />
			<path class="st16" d="M680.53,347.36c-1.07,0.54-2.15,0.93-3.39,0.88c-4.08-0.15-7.81,1.23-11.57,2.59
			c-7.57,2.74-14.2,7.18-21.02,11.32c-1.35,0.82-2.45,2.24-4.27,2.15c0.14-7.28,3.34-12.81,9.75-16.25
			c6.64-3.56,13.84-5.23,21.37-5.06C674.97,343.09,678.49,343.81,680.53,347.36z" />
			<path class="st16" d="M746.96,402.71c-0.07,0.16-0.62,0-1.16,0.01c-0.83,0.01-1.65,0.04-2.48,0.07c-0.94,0.02-1.96,0.12-2.87-0.17
			c-2.22-0.71-4.03-3.53-5.58-5.1c-1.93-1.96-3.65-4.24-4.19-7.1c0.02,0.09,4.1,0.75,4.52,0.87c1.46,0.41,2.88,0.97,4.21,1.73
			c1.33,0.76,2.55,1.7,3.59,2.82c0.83,0.89,1.79,1.84,2.33,2.95c0.41,0.85,0.63,1.77,0.99,2.64
			C746.54,401.94,747.04,402.51,746.96,402.71z" />
			<path class="st16" d="M893.49,460.01c-1.12,0.02-1.97-0.52-2.74-1.28c-2.65-2.6-5.36-5.16-7.15-8.47
			c-0.69-1.28-1.54-2.19-3.16-1.84c1.92-1.69,3.91-1.1,5.64,0.14C890.02,451.38,892.93,454.96,893.49,460.01z" />
			<path class="st15"
				d="M291.86,729.09c0.84,0.63,0.75,1.21-0.09,1.75C291.38,730.24,291.45,729.66,291.86,729.09z" />
			<path class="st15" d="M747.73,403.48" />
			<path class="st16" d="M878.95,449.75c0,0-0.04-0.07-0.04-0.07C878.91,449.68,878.95,449.75,878.95,449.75z" />
			<path class="st16"
				d="M879.86,448.81c-0.2,0.04-0.32,0.16-0.36,0.35c0,0,0.07-0.29,0.07-0.29L879.86,448.81z" />
			<path class="st15" d="M744.95,398.39" />
		</g>
	</g>
</svg>
