<?xml version="1.0" encoding="utf-8"?>
<!-- Generator: Adobe Illustrator 26.4.1, SVG Export Plug-In . SVG Version: 6.00 Build 0)  -->
<svg version="1.1" xmlns="http://www.w3.org/2000/svg" xmlns:xlink="http://www.w3.org/1999/xlink" x="0px" y="0px"
	 w="1080px" h="1080px" viewBox="0 0 1080 1080" style="enable-background:new 0 0 1080 1080;" xml:space="preserve">
<style type="text/css">
	#background_yellow{fill:#f4b905;}
	#background_starburst_3{opacity:0.12;}
</style>
<rect id="background_yellow" width="1080" height="1080"/>
<g id="background_starburst_3">
    <path id="starburst_clip_path" d="M543.15-272.53c-6.24,167-12.47,334-18.71,501c-0.06,1.63-0.29,3.26-0.47,4.88c-0.01,0.13-0.27,0.31-0.43,0.35c-0.21,0.04-0.44-0.05-1.01-0.13c-0.29-1.21-0.69-2.54-0.93-3.89c-8.41-49.4-16.81-98.79-25.18-148.2c-7.71-45.48-15.38-90.96-23.07-136.45c-10.74-63.5-21.47-126.99-32.25-190.49c-1.16-6.84-2.59-13.62-3.9-20.44c-0.32,0.05-0.63,0.11-0.95,0.16c15.87,168.62,31.74,337.24,47.6,505.86c-0.53,0.1-1.06,0.2-1.58,0.29C432.57,79.09,382.86-82.23,333.16-243.55l-1.41,0.37c12.55,54.96,25.1,109.91,37.66,164.86c12.53,54.8,25.1,109.59,37.59,164.39c12.48,54.77,25.16,109.48,36.72,164.51c-10.7-21.46-20.65-43.15-30.6-64.84c-10.06-21.94-20.13-43.89-30.18-65.84c-9.96-21.73-19.91-43.47-29.87-65.2c-10.05-21.95-20.09-43.9-30.15-65.84c-9.96-21.73-19.95-43.45-29.91-65.18c-10.06-21.94-20.06-43.92-30.17-65.84c-9.86-21.36-19.32-42.91-29.64-64.06c-0.45,0.2-0.89,0.39-1.34,0.59c58.29,156.94,116.58,313.87,174.87,470.81c-0.53,0.26-1.07,0.52-1.6,0.79L139.01-157.84c-0.53,0.31-1.07,0.62-1.61,0.92C215.61-9.07,293.81,138.79,372.02,286.64c-0.43,0.27-0.86,0.53-1.3,0.8C263.2,157.58,155.68,27.72,48.16-102.14c-0.41,0.32-0.82,0.63-1.23,0.95c97.54,137.38,195.09,274.76,293.12,412.82c-1.53-0.12-1.84-0.05-1.97-0.17C216.05,198.26,94.03,85.06-27.99-28.14c-0.69-0.64-1.42-1.22-2.15-1.81c-0.18-0.14-0.4-0.26-0.62-0.31c-0.19-0.05-0.45-0.07-0.6,0.03c-0.14,0.09-0.18,0.34-0.43,0.87C82.36,93.58,196.62,216.64,311.38,340.24c-1.42,0.15-1.61,0.21-1.78,0.17c-0.22-0.06-0.44-0.18-0.63-0.31C173.62,244.06,38.27,148.01-97.08,51.97c-0.76-0.54-1.58-0.98-2.39-1.44c-0.17-0.1-0.45-0.09-0.65-0.03c-0.21,0.07-0.38,0.27-0.57,0.41c0.11,0.2,0.19,0.42,0.33,0.6c0.29,0.36,0.61,0.71,0.93,1.05c0.16,0.17,0.35,0.31,0.54,0.45C27.5,157.68,153.89,262.34,280.28,367c0.72,0.6,1.43,1.21,2.15,1.82c0.36,0.3,0.74,0.58,1.07,0.91c0.33,0.33,0.63,0.69,0.91,1.06c0.14,0.18,0.33,0.43,0.3,0.62c-0.02,0.15-0.34,0.26-1.17,0.83C135.02,293.69-13.8,214.97-162.63,136.25c-0.24,0.41-0.49,0.81-0.73,1.22c11.77,7.42,23.54,14.86,35.31,22.27c11.91,7.49,23.83,14.95,35.74,22.42c11.91,7.48,23.82,14.96,35.73,22.44c12.11,7.6,24.22,15.21,36.33,22.81c11.91,7.48,23.83,14.95,35.74,22.43c11.91,7.48,23.82,14.97,35.73,22.44c11.91,7.48,23.83,14.95,35.74,22.43c11.91,7.48,23.83,14.95,35.74,22.43c11.91,7.48,23.82,14.96,35.73,22.44c12.11,7.6,24.22,15.21,36.33,22.81c11.91,7.48,23.85,14.91,35.72,22.45c11.64,7.39,23.55,14.39,34.92,22.18c-0.23,0.4-0.46,0.8-0.7,1.2C107.17,349.71-50.38,291.2-207.92,232.68c-0.21,0.51-0.41,1.02-0.62,1.53c76.24,34.93,152.5,69.83,228.72,104.81C96.48,374.03,172.85,408.89,249.1,444c-0.2,0.54-0.4,1.08-0.59,1.62l-493.98-112.91c22.69,8.41,45.72,15.54,68.75,22.64c23.06,7.11,46.13,14.2,69.2,21.3c23.06,7.1,46.13,14.19,69.19,21.3c23.28,7.18,46.55,14.39,69.84,21.58c23.06,7.11,46.13,14.21,69.19,21.31c23.07,7.1,46.15,14.12,69.19,21.31c22.77,7.11,45.72,13.69,68.16,22.08c-33.72-2.41-67.27-5.6-100.82-8.76c-33.35-3.14-66.71-6.24-100.06-9.38c-33.58-3.16-67.15-6.33-100.73-9.51c-33.34-3.16-66.67-6.51-100.03-9.43c-33.25-2.92-66.45-6.63-99.82-8.39c164.03,28.51,328.13,56.31,492.23,84.12c0.69,0.12,1.36,0.35,2.04,0.54c0.67,0.2,1.35,0.41,2,0.65c0.19,0.07,0.38,0.25,0.48,0.42c0.08,0.14,0.01,0.35,0.01,0.9c-169.13,6.27-338.26,12.53-507.38,18.8c7.43,1.56,14.87,1.85,22.31,2.14c37.01,1.44,74.01,2.91,111.02,4.3c28.81,1.09,57.63,2.05,86.44,3.11c34.43,1.28,68.86,2.64,103.29,3.91c29.75,1.11,59.49,2.17,89.24,3.21c27.41,0.96,54.82,1.83,82.23,2.81c4.51,0.16,9,0.69,13.5,1.05l-0.02,1.23c-167.04,28.33-334.09,56.65-501.13,84.98c0.05,0.45,0.11,0.89,0.17,1.33c168.44-15.85,336.87-31.69,505.31-47.54c0.12,0.56,0.23,1.13,0.34,1.69c-26.74,8.23-53.48,16.46-80.21,24.7c-26.87,8.28-53.73,16.57-80.6,24.84c-26.65,8.2-53.3,16.37-79.95,24.58c-26.86,8.28-53.72,16.6-80.58,24.89c-26.86,8.29-53.75,16.5-80.6,24.84c-26.48,8.23-53.1,16.06-79.45,24.7c0.13,0.46,0.26,0.91,0.4,1.37l492.18-112.52c0.17,0.47,0.34,0.94,0.52,1.41l-459.89,210.79c0.2,0.48,0.41,0.95,0.61,1.43c158-58.69,316-117.37,474-176.06c0.22,0.47,0.44,0.94,0.66,1.41C123.12,772.35-19.5,861.89-162.11,951.43c0.26,0.46,0.53,0.92,0.79,1.38c148.74-78.67,297.47-157.34,446.21-236.02c0.3,0.45,0.6,0.91,0.9,1.36C155.81,825.78,25.83,933.41-104.61,1041.41c1.13,0.23,1.35,0.35,1.51,0.29c0.43-0.17,0.87-0.37,1.25-0.64C33.87,944.75,169.6,848.42,305.33,752.09c0.76-0.54,1.54-1.07,2.33-1.58c0.39-0.25,0.81-0.45,1.25-0.62c0.18-0.07,0.44-0.03,0.61,0.06c0.16,0.09,0.25,0.32,0.65,0.87C195.55,874.27,80.88,997.78-33.79,1121.29c0.35,0.34,0.71,0.69,1.06,1.03L337.4,778.66c0.46,0.42,0.93,0.83,1.39,1.25c-48.24,67.94-96.51,135.86-144.73,203.82c-48.33,68.1-96.75,136.14-144.3,204.82c12.45-13.64,24.21-27.81,35.95-41.99c11.96-14.44,23.91-28.89,35.88-43.34c11.81-14.26,23.64-28.51,35.45-42.78c11.81-14.26,23.62-28.53,35.43-42.8c11.96-14.45,23.9-28.91,35.86-43.36c11.81-14.27,23.62-28.53,35.43-42.79c11.82-14.26,23.64-28.51,35.45-42.78c11.96-14.44,23.87-28.93,35.88-43.34c11.66-13.98,23.02-28.24,35.01-41.94c0.42,0.31,0.85,0.62,1.27,0.93c-78.65,148.69-157.29,297.37-235.94,446.06c0.45,0.25,0.9,0.51,1.35,0.76c89.69-142.85,179.38-285.7,269.07-428.56c0.44,0.21,0.89,0.42,1.34,0.63c-9.73,26.23-19.45,52.47-29.18,78.71c-9.78,26.36-19.59,52.72-29.38,79.08c-9.71,26.14-19.42,52.28-29.13,78.42c-9.79,26.36-19.6,52.71-29.39,79.07c-9.8,26.36-19.63,52.7-29.36,79.08c-9.61,26.04-19.55,51.96-28.83,78.12c0.48,0.18,0.95,0.37,1.43,0.55c69.87-152.44,139.74-304.88,209.61-457.32l1.56,0.54c-37.13,162.97-74.57,325.87-110.83,489.07c6.28-17.39,11.72-35,17.16-52.62c5.52-17.9,11.05-35.81,16.57-53.72c5.45-17.69,10.89-35.38,16.34-53.07c5.52-17.91,11.06-35.82,16.57-53.74c5.44-17.69,10.83-35.39,16.28-53.08c5.51-17.91,11.07-35.81,16.59-53.72c5.46-17.69,10.91-35.38,16.36-53.07c5.51-17.91,10.89-35.87,16.56-53.73c5.51-17.37,10.27-34.99,17.73-51.82c-15.89,168.8-31.77,337.6-47.66,506.4c1.26-2.82,2.02-5.71,2.55-8.64c2.77-15.43,5.57-30.87,8.19-46.33c7.76-45.71,15.42-91.43,23.17-137.15c9.16-54.02,18.39-108.03,27.55-162.05c7.98-47.1,15.89-94.21,23.86-141.31c0.32-1.91,1.03-3.77,1.55-5.65c0.38,0.08,0.76,0.15,1.13,0.23c6.27,169,12.55,338.01,18.82,507.02c1.13-2.01,1.46-4.02,1.54-6.05c0.85-21.08,1.68-42.16,2.46-63.24c1.04-28.11,2-56.22,3.04-84.32c1.31-35.13,2.71-70.27,4-105.4c0.99-26.93,1.88-53.87,2.83-80.81c1.46-41.23,2.93-82.45,4.43-123.68c0.46-12.65,0.99-25.29,1.57-37.94c0.09-1.89,0.56-3.77,0.85-5.66c0.4,0.04,0.8,0.07,1.2,0.11c28.33,167.07,56.67,334.14,85,501.21c0.42-0.05,0.84-0.11,1.26-0.17c-15.89-168.83-31.78-337.66-47.67-506.5c0.56-0.11,1.11-0.22,1.67-0.33l148.71,482.65c0.5-0.14,0.99-0.28,1.49-0.42L642.69,839.09c0.5-0.18,0.99-0.37,1.48-0.55c70.32,153.43,140.65,306.86,210.98,460.29c0.44-0.18,0.89-0.36,1.34-0.54c-6.49-17.49-12.97-34.97-19.46-52.46c-6.52-17.58-13.04-35.15-19.57-52.73c-6.53-17.58-13.06-35.14-19.58-52.72c-6.53-17.57-13.05-35.15-19.58-52.71c-6.61-17.79-13.25-35.57-19.85-53.37c-6.53-17.58-13.02-35.16-19.54-52.74c-6.52-17.57-13.05-35.15-19.58-52.72c-6.53-17.57-13.14-35.12-19.58-52.72c-6.34-17.31-13.13-34.45-18.35-52.21c10.66,15.54,20.62,31.4,30.58,47.25c9.85,15.68,19.69,31.37,29.53,47.06c9.97,15.88,19.94,31.77,29.91,47.64c9.85,15.68,19.69,31.37,29.54,47.05c9.97,15.88,19.95,31.76,29.92,47.64c9.85,15.68,19.69,31.36,29.54,47.05c9.98,15.88,19.95,31.76,29.92,47.64c9.85,15.68,19.67,31.38,29.54,47.05c9.82,15.58,19.43,31.3,29.49,46.72c0.44-0.27,0.88-0.54,1.32-0.81c-8.95-16.96-17.89-33.91-27.09-51.33c-67.49-127.55-134.73-254.64-201.96-381.73c-1.86-3.51-3.56-7.11-5.32-10.68c-0.07-0.15,0.05-0.44,0.15-0.62c0.09-0.14,0.3-0.21,0.45-0.32c0.21,0.1,0.49,0.15,0.62,0.31c106.07,127.96,212.13,255.93,318.19,383.89c0.59,0.71,1.3,1.34,1.98,1.98c0.14,0.14,0.43,0.28,0.58,0.22c0.19-0.07,0.3-0.34,0.74-0.89c-97.02-136.64-194.12-273.39-291.21-410.13c0.4-0.36,0.81-0.72,1.22-1.08C810.6,835,872.14,892.2,933.72,949.33c61.7,57.24,123.29,114.6,186.23,172.84c-0.5-2.08-0.48-2.37-0.62-2.52C1006.3,997.79,893.25,875.94,780.21,754.08c-0.79-0.86-1.55-1.75-2.32-2.64c-0.15-0.18-0.26-0.4-0.34-0.61c-0.08-0.2-0.19-0.46-0.13-0.64c0.07-0.2,0.32-0.33,0.79-0.77C915.2,846.62,1052.15,944,1190.46,1042.1c-0.71-1.96-0.76-2.19-0.88-2.39c-0.11-0.2-0.27-0.39-0.45-0.53c-127.29-105.42-254.58-210.83-381.87-316.24c-0.72-0.6-1.44-1.2-2.13-1.84c-0.51-0.47-0.98-0.99-1.44-1.52c-0.14-0.17-0.24-0.44-0.23-0.65c0.01-0.16,0.24-0.3,0.93-1.08c147.89,78.22,295.96,156.54,444.03,234.86c0.27-0.47,0.53-0.93,0.79-1.4c-142.47-89.45-284.93-178.9-427.39-268.35c0.22-0.49,0.45-0.97,0.68-1.45c157.94,58.66,315.89,117.32,473.83,175.98c0.2-0.47,0.39-0.95,0.58-1.42c-38.27-17.55-76.54-35.1-114.81-52.65c-38.35-17.58-76.7-35.15-115.05-52.73c-38.56-17.67-77.14-35.3-115.68-53.02c-38.1-17.52-76.31-34.8-114.32-52.51c0.18-0.44,0.35-0.88,0.53-1.32c164.06,37.5,328.12,75.01,492.18,112.52c0.14-0.5,0.28-1.01,0.43-1.51c-19.99-6.18-39.98-12.37-59.97-18.54c-20.15-6.22-40.31-12.4-60.46-18.6c-20.15-6.21-40.3-12.43-60.45-18.65c-19.92-6.15-39.84-12.32-59.76-18.47c-20.15-6.21-40.31-12.4-60.47-18.59c-20.15-6.19-40.3-12.39-60.46-18.58c-20.16-6.2-40.35-12.26-60.46-18.61c-19.81-6.25-39.83-11.92-59.5-18.62c0.12-0.48,0.24-0.97,0.36-1.45l504.77,47.5c0.05-0.46,0.1-0.92,0.15-1.37c-166.92-28.31-333.83-56.61-500.75-84.92c5.19-1.65,10.3-2.09,15.41-2.27c17.8-0.65,35.61-1.16,53.41-1.83c34.43-1.3,68.86-2.73,103.29-4c27.87-1.03,55.75-1.82,83.62-2.87c46.14-1.75,92.28-3.69,138.42-5.41c35.13-1.31,70.28-2.39,105.42-3.61c2.85-0.1,5.69-0.55,8.53-0.84c-0.03-0.31-0.07-0.62-0.11-0.93c-168.85-6.26-337.71-12.52-506.56-18.78c-0.03-0.61-0.07-1.21-0.1-1.81c165.41-28.05,330.81-56.1,496.22-84.15c-0.08-0.54-0.16-1.09-0.23-1.63c-27.94,2.66-55.87,5.36-83.8,7.99c-27.75,2.61-55.51,5.16-83.27,7.74c-27.99,2.6-55.97,5.17-83.96,7.81c-27.98,2.64-55.96,5.36-83.94,8.02c-27.75,2.63-55.54,4.8-83.23,7.96c-31.14,3.56-78.22,7.6-84.02,6.11c162.05-49.92,323.36-99.63,484.67-149.33c-0.12-0.45-0.25-0.9-0.37-1.35L838.58,445.68c-0.19-0.55-0.37-1.09-0.56-1.64c152.55-69.92,305.1-139.84,457.65-209.76c-0.21-0.5-0.42-1-0.62-1.5c-157.12,58.24-314.14,116.74-471.26,174.98c-0.27-0.56-0.53-1.12-0.8-1.68c141.32-88.73,282.63-177.46,423.95-266.19c-0.3-0.53-0.6-1.05-0.9-1.57c-147.93,78.24-295.85,156.49-443.78,234.73c-0.29-0.44-0.59-0.89-0.88-1.34c128.93-106.74,257.85-213.49,386.77-320.24c-0.36-0.48-0.73-0.95-1.09-1.43c-136.04,96.59-272.08,193.18-408.11,289.77c-0.42-0.47-0.83-0.93-1.24-1.4C834.88,276.62,892.28,215,949.54,153.26c57.19-61.65,114.52-123.18,171.1-185.4c-41.73,37.78-82.96,76.04-124.18,114.31c-41.23,38.29-82.42,76.62-123.69,114.86c-41.1,38.08-82,76.38-123.26,114.28c-0.41-0.38-0.82-0.75-1.23-1.13c97.34-137.09,194.69-274.18,292.03-411.28l-1.23-0.96C931.77,27.56,824.46,157.16,717.15,286.76c-0.47-0.31-0.95-0.62-1.43-0.93c78.68-148.75,157.36-297.51,236.05-446.27c-0.45-0.26-0.9-0.52-1.35-0.78C860.97-18.74,771.51,123.73,682.05,266.2c-0.51-0.26-1.03-0.52-1.55-0.78C739.08,107.7,797.66-50.03,856.24-207.75c-0.48-0.19-0.96-0.38-1.44-0.57C784.57-55.1,714.34,98.12,644.11,251.35c-0.49-0.18-0.97-0.36-1.46-0.54c37.55-164.28,75.11-328.57,112.66-492.85l-1.47-0.4C704.13-81.52,654.72,79.49,605.01,240.42c-0.52-0.12-1.03-0.24-1.55-0.36c15.88-168.74,31.76-337.48,47.64-506.22l-1.31-0.16C621.52-99.6,593.24,67.12,564.97,233.84c-0.62-0.04-1.23-0.08-1.85-0.11c-6.27-168.98-12.54-337.96-18.8-506.93C543.31-272.96,543.16-272.75,543.15-272.53"/>
    <clipPath id="polygon_clip_path">
        <use xlink:href="#starburst_clip_path"  style="overflow:visible;"/>
    </clipPath>
    <radialGradient id="radial_gradient" cx="2.0227" cy="-1.5274" r="2.4422" gradientTransform="matrix(268.5524 284.6491 283.5254 -267.4922 433.4903 -439.6841)" gradientUnits="userSpaceOnUse">
        <stop  offset="0" style="stop-color:#FFFFFF"/>
        <stop  offset="1" style="stop-color:#FFFFFF"/>
    </radialGradient>
    <polygon style="clip-path:url(#polygon_clip_path);fill:url(#radial_gradient);" points="591.18,-1089.5 2177.8,592.21 496.09,2178.82 -1090.52,497.1"/>
</g>


</svg>
