<?xml version="1.0" encoding="utf-8"?>
<!-- Generator: Adobe Illustrator 26.4.1, SVG Export Plug-In . SVG Version: 6.00 Build 0)  -->
<svg version="1.1" xmlns="http://www.w3.org/2000/svg" xmlns:xlink="http://www.w3.org/1999/xlink" x="0px" y="0px"
	 w="1080px" h="1080px" viewBox="0 0 1080 1080" style="enable-background:new 0 0 1080 1080;" xml:space="preserve">
<style type="text/css">
	#background_red{fill:#eb3e34;}
	#background_starburst_2{opacity:0.12;}
    .svg_white{fill:#ffffff;}
</style>
<rect id="background_red" width="1080" height="1080"/>
<g id="background_starburst_2">
    <path id="starburst_clip_path" d="M543.15-272.53c-6.24,167-12.47,334-18.71,501c-0.06,1.63-0.29,3.26-0.47,4.88c-0.01,0.13-0.27,0.31-0.43,0.35c-0.21,0.04-0.44-0.05-1.01-0.13c-0.29-1.21-0.69-2.54-0.93-3.89c-8.41-49.4-16.81-98.79-25.18-148.2c-7.71-45.48-15.38-90.96-23.07-136.45c-10.74-63.5-21.47-126.99-32.25-190.49c-1.16-6.84-2.59-13.62-3.9-20.44c-0.32,0.05-0.63,0.11-0.95,0.16c15.87,168.62,31.74,337.24,47.6,505.86c-0.53,0.1-1.06,0.2-1.58,0.29C432.57,79.09,382.86-82.23,333.16-243.55l-1.41,0.37c12.55,54.96,25.1,109.91,37.66,164.86c12.53,54.8,25.1,109.59,37.59,164.39c12.48,54.77,25.16,109.48,36.72,164.51c-10.7-21.46-20.65-43.15-30.6-64.84c-10.06-21.94-20.13-43.89-30.18-65.84c-9.96-21.73-19.91-43.47-29.87-65.2c-10.05-21.95-20.09-43.9-30.15-65.84c-9.96-21.73-19.95-43.45-29.91-65.18c-10.06-21.94-20.06-43.92-30.17-65.84c-9.86-21.36-19.32-42.91-29.64-64.06c-0.45,0.2-0.89,0.39-1.34,0.59c58.29,156.94,116.58,313.87,174.87,470.81c-0.53,0.26-1.07,0.52-1.6,0.79L139.01-157.84c-0.53,0.31-1.07,0.62-1.61,0.92C215.61-9.07,293.81,138.79,372.02,286.64c-0.43,0.27-0.86,0.53-1.3,0.8C263.2,157.58,155.68,27.72,48.16-102.14c-0.41,0.32-0.82,0.63-1.23,0.95c97.54,137.38,195.09,274.76,293.12,412.82c-1.53-0.12-1.84-0.05-1.97-0.17C216.05,198.26,94.03,85.06-27.99-28.14c-0.69-0.64-1.42-1.22-2.15-1.81c-0.18-0.14-0.4-0.26-0.62-0.31c-0.19-0.05-0.45-0.07-0.6,0.03c-0.14,0.09-0.18,0.34-0.43,0.87C82.36,93.58,196.62,216.64,311.38,340.24c-1.42,0.15-1.61,0.21-1.78,0.17c-0.22-0.06-0.44-0.18-0.63-0.31C173.62,244.06,38.27,148.01-97.08,51.97c-0.76-0.54-1.58-0.98-2.39-1.44c-0.17-0.1-0.45-0.09-0.65-0.03c-0.21,0.07-0.38,0.27-0.57,0.41c0.11,0.2,0.19,0.42,0.33,0.6c0.29,0.36,0.61,0.71,0.93,1.05c0.16,0.17,0.35,0.31,0.54,0.45C27.5,157.68,153.89,262.34,280.28,367c0.72,0.6,1.43,1.21,2.15,1.82c0.36,0.3,0.74,0.58,1.07,0.91c0.33,0.33,0.63,0.69,0.91,1.06c0.14,0.18,0.33,0.43,0.3,0.62c-0.02,0.15-0.34,0.26-1.17,0.83C135.02,293.69-13.8,214.97-162.63,136.25c-0.24,0.41-0.49,0.81-0.73,1.22c11.77,7.42,23.54,14.86,35.31,22.27c11.91,7.49,23.83,14.95,35.74,22.42c11.91,7.48,23.82,14.96,35.73,22.44c12.11,7.6,24.22,15.21,36.33,22.81c11.91,7.48,23.83,14.95,35.74,22.43c11.91,7.48,23.82,14.97,35.73,22.44c11.91,7.48,23.83,14.95,35.74,22.43c11.91,7.48,23.83,14.95,35.74,22.43c11.91,7.48,23.82,14.96,35.73,22.44c12.11,7.6,24.22,15.21,36.33,22.81c11.91,7.48,23.85,14.91,35.72,22.45c11.64,7.39,23.55,14.39,34.92,22.18c-0.23,0.4-0.46,0.8-0.7,1.2C107.17,349.71-50.38,291.2-207.92,232.68c-0.21,0.51-0.41,1.02-0.62,1.53c76.24,34.93,152.5,69.83,228.72,104.81C96.48,374.03,172.85,408.89,249.1,444c-0.2,0.54-0.4,1.08-0.59,1.62l-493.98-112.91c22.69,8.41,45.72,15.54,68.75,22.64c23.06,7.11,46.13,14.2,69.2,21.3c23.06,7.1,46.13,14.19,69.19,21.3c23.28,7.18,46.55,14.39,69.84,21.58c23.06,7.11,46.13,14.21,69.19,21.31c23.07,7.1,46.15,14.12,69.19,21.31c22.77,7.11,45.72,13.69,68.16,22.08c-33.72-2.41-67.27-5.6-100.82-8.76c-33.35-3.14-66.71-6.24-100.06-9.38c-33.58-3.16-67.15-6.33-100.73-9.51c-33.34-3.16-66.67-6.51-100.03-9.43c-33.25-2.92-66.45-6.63-99.82-8.39c164.03,28.51,328.13,56.31,492.23,84.12c0.69,0.12,1.36,0.35,2.04,0.54c0.67,0.2,1.35,0.41,2,0.65c0.19,0.07,0.38,0.25,0.48,0.42c0.08,0.14,0.01,0.35,0.01,0.9c-169.13,6.27-338.26,12.53-507.38,18.8c7.43,1.56,14.87,1.85,22.31,2.14c37.01,1.44,74.01,2.91,111.02,4.3c28.81,1.09,57.63,2.05,86.44,3.11c34.43,1.28,68.86,2.64,103.29,3.91c29.75,1.11,59.49,2.17,89.24,3.21c27.41,0.96,54.82,1.83,82.23,2.81c4.51,0.16,9,0.69,13.5,1.05l-0.02,1.23c-167.04,28.33-334.09,56.65-501.13,84.98c0.05,0.45,0.11,0.89,0.17,1.33c168.44-15.85,336.87-31.69,505.31-47.54c0.12,0.56,0.23,1.13,0.34,1.69c-26.74,8.23-53.48,16.46-80.21,24.7c-26.87,8.28-53.73,16.57-80.6,24.84c-26.65,8.2-53.3,16.37-79.95,24.58c-26.86,8.28-53.72,16.6-80.58,24.89c-26.86,8.29-53.75,16.5-80.6,24.84c-26.48,8.23-53.1,16.06-79.45,24.7c0.13,0.46,0.26,0.91,0.4,1.37l492.18-112.52c0.17,0.47,0.34,0.94,0.52,1.41l-459.89,210.79c0.2,0.48,0.41,0.95,0.61,1.43c158-58.69,316-117.37,474-176.06c0.22,0.47,0.44,0.94,0.66,1.41C123.12,772.35-19.5,861.89-162.11,951.43c0.26,0.46,0.53,0.92,0.79,1.38c148.74-78.67,297.47-157.34,446.21-236.02c0.3,0.45,0.6,0.91,0.9,1.36C155.81,825.78,25.83,933.41-104.61,1041.41c1.13,0.23,1.35,0.35,1.51,0.29c0.43-0.17,0.87-0.37,1.25-0.64C33.87,944.75,169.6,848.42,305.33,752.09c0.76-0.54,1.54-1.07,2.33-1.58c0.39-0.25,0.81-0.45,1.25-0.62c0.18-0.07,0.44-0.03,0.61,0.06c0.16,0.09,0.25,0.32,0.65,0.87C195.55,874.27,80.88,997.78-33.79,1121.29c0.35,0.34,0.71,0.69,1.06,1.03L337.4,778.66c0.46,0.42,0.93,0.83,1.39,1.25c-48.24,67.94-96.51,135.86-144.73,203.82c-48.33,68.1-96.75,136.14-144.3,204.82c12.45-13.64,24.21-27.81,35.95-41.99c11.96-14.44,23.91-28.89,35.88-43.34c11.81-14.26,23.64-28.51,35.45-42.78c11.81-14.26,23.62-28.53,35.43-42.8c11.96-14.45,23.9-28.91,35.86-43.36c11.81-14.27,23.62-28.53,35.43-42.79c11.82-14.26,23.64-28.51,35.45-42.78c11.96-14.44,23.87-28.93,35.88-43.34c11.66-13.98,23.02-28.24,35.01-41.94c0.42,0.31,0.85,0.62,1.27,0.93c-78.65,148.69-157.29,297.37-235.94,446.06c0.45,0.25,0.9,0.51,1.35,0.76c89.69-142.85,179.38-285.7,269.07-428.56c0.44,0.21,0.89,0.42,1.34,0.63c-9.73,26.23-19.45,52.47-29.18,78.71c-9.78,26.36-19.59,52.72-29.38,79.08c-9.71,26.14-19.42,52.28-29.13,78.42c-9.79,26.36-19.6,52.71-29.39,79.07c-9.8,26.36-19.63,52.7-29.36,79.08c-9.61,26.04-19.55,51.96-28.83,78.12c0.48,0.18,0.95,0.37,1.43,0.55c69.87-152.44,139.74-304.88,209.61-457.32l1.56,0.54c-37.13,162.97-74.57,325.87-110.83,489.07c6.28-17.39,11.72-35,17.16-52.62c5.52-17.9,11.05-35.81,16.57-53.72c5.45-17.69,10.89-35.38,16.34-53.07c5.52-17.91,11.06-35.82,16.57-53.74c5.44-17.69,10.83-35.39,16.28-53.08c5.51-17.91,11.07-35.81,16.59-53.72c5.46-17.69,10.91-35.38,16.36-53.07c5.51-17.91,10.89-35.87,16.56-53.73c5.51-17.37,10.27-34.99,17.73-51.82c-15.89,168.8-31.77,337.6-47.66,506.4c1.26-2.82,2.02-5.71,2.55-8.64c2.77-15.43,5.57-30.87,8.19-46.33c7.76-45.71,15.42-91.43,23.17-137.15c9.16-54.02,18.39-108.03,27.55-162.05c7.98-47.1,15.89-94.21,23.86-141.31c0.32-1.91,1.03-3.77,1.55-5.65c0.38,0.08,0.76,0.15,1.13,0.23c6.27,169,12.55,338.01,18.82,507.02c1.13-2.01,1.46-4.02,1.54-6.05c0.85-21.08,1.68-42.16,2.46-63.24c1.04-28.11,2-56.22,3.04-84.32c1.31-35.13,2.71-70.27,4-105.4c0.99-26.93,1.88-53.87,2.83-80.81c1.46-41.23,2.93-82.45,4.43-123.68c0.46-12.65,0.99-25.29,1.57-37.94c0.09-1.89,0.56-3.77,0.85-5.66c0.4,0.04,0.8,0.07,1.2,0.11c28.33,167.07,56.67,334.14,85,501.21c0.42-0.05,0.84-0.11,1.26-0.17c-15.89-168.83-31.78-337.66-47.67-506.5c0.56-0.11,1.11-0.22,1.67-0.33l148.71,482.65c0.5-0.14,0.99-0.28,1.49-0.42L642.69,839.09c0.5-0.18,0.99-0.37,1.48-0.55c70.32,153.43,140.65,306.86,210.98,460.29c0.44-0.18,0.89-0.36,1.34-0.54c-6.49-17.49-12.97-34.97-19.46-52.46c-6.52-17.58-13.04-35.15-19.57-52.73c-6.53-17.58-13.06-35.14-19.58-52.72c-6.53-17.57-13.05-35.15-19.58-52.71c-6.61-17.79-13.25-35.57-19.85-53.37c-6.53-17.58-13.02-35.16-19.54-52.74c-6.52-17.57-13.05-35.15-19.58-52.72c-6.53-17.57-13.14-35.12-19.58-52.72c-6.34-17.31-13.13-34.45-18.35-52.21c10.66,15.54,20.62,31.4,30.58,47.25c9.85,15.68,19.69,31.37,29.53,47.06c9.97,15.88,19.94,31.77,29.91,47.64c9.85,15.68,19.69,31.37,29.54,47.05c9.97,15.88,19.95,31.76,29.92,47.64c9.85,15.68,19.69,31.36,29.54,47.05c9.98,15.88,19.95,31.76,29.92,47.64c9.85,15.68,19.67,31.38,29.54,47.05c9.82,15.58,19.43,31.3,29.49,46.72c0.44-0.27,0.88-0.54,1.32-0.81c-8.95-16.96-17.89-33.91-27.09-51.33c-67.49-127.55-134.73-254.64-201.96-381.73c-1.86-3.51-3.56-7.11-5.32-10.68c-0.07-0.15,0.05-0.44,0.15-0.62c0.09-0.14,0.3-0.21,0.45-0.32c0.21,0.1,0.49,0.15,0.62,0.31c106.07,127.96,212.13,255.93,318.19,383.89c0.59,0.71,1.3,1.34,1.98,1.98c0.14,0.14,0.43,0.28,0.58,0.22c0.19-0.07,0.3-0.34,0.74-0.89c-97.02-136.64-194.12-273.39-291.21-410.13c0.4-0.36,0.81-0.72,1.22-1.08C810.6,835,872.14,892.2,933.72,949.33c61.7,57.24,123.29,114.6,186.23,172.84c-0.5-2.08-0.48-2.37-0.62-2.52C1006.3,997.79,893.25,875.94,780.21,754.08c-0.79-0.86-1.55-1.75-2.32-2.64c-0.15-0.18-0.26-0.4-0.34-0.61c-0.08-0.2-0.19-0.46-0.13-0.64c0.07-0.2,0.32-0.33,0.79-0.77C915.2,846.62,1052.15,944,1190.46,1042.1c-0.71-1.96-0.76-2.19-0.88-2.39c-0.11-0.2-0.27-0.39-0.45-0.53c-127.29-105.42-254.58-210.83-381.87-316.24c-0.72-0.6-1.44-1.2-2.13-1.84c-0.51-0.47-0.98-0.99-1.44-1.52c-0.14-0.17-0.24-0.44-0.23-0.65c0.01-0.16,0.24-0.3,0.93-1.08c147.89,78.22,295.96,156.54,444.03,234.86c0.27-0.47,0.53-0.93,0.79-1.4c-142.47-89.45-284.93-178.9-427.39-268.35c0.22-0.49,0.45-0.97,0.68-1.45c157.94,58.66,315.89,117.32,473.83,175.98c0.2-0.47,0.39-0.95,0.58-1.42c-38.27-17.55-76.54-35.1-114.81-52.65c-38.35-17.58-76.7-35.15-115.05-52.73c-38.56-17.67-77.14-35.3-115.68-53.02c-38.1-17.52-76.31-34.8-114.32-52.51c0.18-0.44,0.35-0.88,0.53-1.32c164.06,37.5,328.12,75.01,492.18,112.52c0.14-0.5,0.28-1.01,0.43-1.51c-19.99-6.18-39.98-12.37-59.97-18.54c-20.15-6.22-40.31-12.4-60.46-18.6c-20.15-6.21-40.3-12.43-60.45-18.65c-19.92-6.15-39.84-12.32-59.76-18.47c-20.15-6.21-40.31-12.4-60.47-18.59c-20.15-6.19-40.3-12.39-60.46-18.58c-20.16-6.2-40.35-12.26-60.46-18.61c-19.81-6.25-39.83-11.92-59.5-18.62c0.12-0.48,0.24-0.97,0.36-1.45l504.77,47.5c0.05-0.46,0.1-0.92,0.15-1.37c-166.92-28.31-333.83-56.61-500.75-84.92c5.19-1.65,10.3-2.09,15.41-2.27c17.8-0.65,35.61-1.16,53.41-1.83c34.43-1.3,68.86-2.73,103.29-4c27.87-1.03,55.75-1.82,83.62-2.87c46.14-1.75,92.28-3.69,138.42-5.41c35.13-1.31,70.28-2.39,105.42-3.61c2.85-0.1,5.69-0.55,8.53-0.84c-0.03-0.31-0.07-0.62-0.11-0.93c-168.85-6.26-337.71-12.52-506.56-18.78c-0.03-0.61-0.07-1.21-0.1-1.81c165.41-28.05,330.81-56.1,496.22-84.15c-0.08-0.54-0.16-1.09-0.23-1.63c-27.94,2.66-55.87,5.36-83.8,7.99c-27.75,2.61-55.51,5.16-83.27,7.74c-27.99,2.6-55.97,5.17-83.96,7.81c-27.98,2.64-55.96,5.36-83.94,8.02c-27.75,2.63-55.54,4.8-83.23,7.96c-31.14,3.56-78.22,7.6-84.02,6.11c162.05-49.92,323.36-99.63,484.67-149.33c-0.12-0.45-0.25-0.9-0.37-1.35L838.58,445.68c-0.19-0.55-0.37-1.09-0.56-1.64c152.55-69.92,305.1-139.84,457.65-209.76c-0.21-0.5-0.42-1-0.62-1.5c-157.12,58.24-314.14,116.74-471.26,174.98c-0.27-0.56-0.53-1.12-0.8-1.68c141.32-88.73,282.63-177.46,423.95-266.19c-0.3-0.53-0.6-1.05-0.9-1.57c-147.93,78.24-295.85,156.49-443.78,234.73c-0.29-0.44-0.59-0.89-0.88-1.34c128.93-106.74,257.85-213.49,386.77-320.24c-0.36-0.48-0.73-0.95-1.09-1.43c-136.04,96.59-272.08,193.18-408.11,289.77c-0.42-0.47-0.83-0.93-1.24-1.4C834.88,276.62,892.28,215,949.54,153.26c57.19-61.65,114.52-123.18,171.1-185.4c-41.73,37.78-82.96,76.04-124.18,114.31c-41.23,38.29-82.42,76.62-123.69,114.86c-41.1,38.08-82,76.38-123.26,114.28c-0.41-0.38-0.82-0.75-1.23-1.13c97.34-137.09,194.69-274.18,292.03-411.28l-1.23-0.96C931.77,27.56,824.46,157.16,717.15,286.76c-0.47-0.31-0.95-0.62-1.43-0.93c78.68-148.75,157.36-297.51,236.05-446.27c-0.45-0.26-0.9-0.52-1.35-0.78C860.97-18.74,771.51,123.73,682.05,266.2c-0.51-0.26-1.03-0.52-1.55-0.78C739.08,107.7,797.66-50.03,856.24-207.75c-0.48-0.19-0.96-0.38-1.44-0.57C784.57-55.1,714.34,98.12,644.11,251.35c-0.49-0.18-0.97-0.36-1.46-0.54c37.55-164.28,75.11-328.57,112.66-492.85l-1.47-0.4C704.13-81.52,654.72,79.49,605.01,240.42c-0.52-0.12-1.03-0.24-1.55-0.36c15.88-168.74,31.76-337.48,47.64-506.22l-1.31-0.16C621.52-99.6,593.24,67.12,564.97,233.84c-0.62-0.04-1.23-0.08-1.85-0.11c-6.27-168.98-12.54-337.96-18.8-506.93C543.31-272.96,543.16-272.75,543.15-272.53"/>
    <clipPath id="polygon_clip_path">
        <use xlink:href="#starburst_clip_path"  style="overflow:visible;"/>
    </clipPath>
    <radialGradient id="radial_gradient" cx="2.0227" cy="-1.5274" r="2.4422" gradientTransform="matrix(268.5524 284.6491 283.5254 -267.4922 433.4903 -439.6841)" gradientUnits="userSpaceOnUse">
        <stop  offset="0" style="stop-color:#FFFFFF"/>
        <stop  offset="1" style="stop-color:#FFFFFF"/>
    </radialGradient>
    <polygon style="clip-path:url(#polygon_clip_path);fill:url(#radial_gradient);" points="591.18,-1089.5 2177.8,592.21 496.09,2178.82 -1090.52,497.1"/>
</g>
	<g id="logo_white_1" class="svg_white">
        <path d="M892.21,922.62h-2.61c-0.45,0-0.75-0.2-0.88-0.65l-0.85-2.88h-6.27l-0.85,2.88
            c-0.13,0.45-0.45,0.65-0.88,0.65h-2.58c-0.55,0-0.83-0.33-0.63-0.9l5.47-16c0.15-0.43,0.43-0.65,0.88-0.65h3.43
            c0.45,0,0.75,0.23,0.9,0.65l5.52,16C893.04,922.29,892.76,922.62,892.21,922.62 M886.92,915.9l-2.21-7.47l-2.18,7.47H886.92z"/>
        <path d="M913.79,914.72v7.12c0,0.5-0.3,0.78-0.78,0.78h-2.26c-0.5,0-0.8-0.28-0.8-0.78V915
            c0-1.33-0.75-2.16-1.88-2.16c-1.23,0-2.01,0.95-2.01,2.46v6.54c0,0.5-0.3,0.78-0.78,0.78h-2.26c-0.5,0-0.8-0.28-0.8-0.78V915
            c0-1.33-0.75-2.16-1.88-2.16c-1.2,0-1.98,0.93-2.01,2.38l0.03,6.62c0,0.5-0.28,0.78-0.78,0.78h-2.26c-0.5,0-0.78-0.28-0.78-0.78
            v-10.98c0-0.5,0.28-0.78,0.78-0.78h1.81c0.48,0,0.78,0.28,0.78,0.78v1.18c0.68-1.48,2.01-2.31,3.74-2.31
            c1.78,0,3.13,0.85,3.84,2.31c0.7-1.48,2.08-2.31,3.86-2.31C912.09,909.73,913.79,911.69,913.79,914.72"/>
        <path d="M915.8,916.25c0-3.94,2.28-6.52,6.34-6.52c3.74,0,5.99,2.18,6.22,6.67c0.02,0.53-0.25,0.8-0.75,0.8h-7.75
            c0.23,1.85,1.18,2.98,2.81,2.98c0.88,0,1.58-0.35,1.98-1.03c0.27-0.38,0.53-0.55,0.98-0.48l1.76,0.3
            c0.53,0.08,0.78,0.43,0.55,0.93c-0.85,1.93-2.86,3.03-5.54,3.03C918.36,922.95,915.8,920.44,915.8,916.25 M924.32,915.07
            c-0.2-1.68-0.9-2.61-2.18-2.61c-1.3,0-2.08,0.9-2.28,2.61H924.32z"/>
        <path d="M938.41,910.38v2.26c0,0.4-0.23,0.63-0.58,0.63h-0.15c-2.13,0-3.41,1.3-3.48,3.48l0.02,5.09
            c0,0.5-0.28,0.78-0.78,0.78h-2.26c-0.5,0-0.78-0.27-0.78-0.78v-10.98c0-0.5,0.28-0.78,0.78-0.78h1.66c0.48,0,0.78,0.28,0.78,0.78
            l-0.03,2.08c0.65-1.93,2.08-3.18,3.96-3.18h0.2C938.19,909.76,938.41,909.98,938.41,910.38"/>
        <path d="M939.84,906.3c0-1.2,0.95-2.16,2.16-2.16c1.18,0,2.13,0.95,2.13,2.16c0,1.18-0.95,2.16-2.13,2.16
            C940.79,908.45,939.84,907.48,939.84,906.3 M943.13,922.62h-2.26c-0.5,0-0.78-0.28-0.78-0.78v-10.98c0-0.5,0.28-0.78,0.78-0.78
            h2.26c0.5,0,0.78,0.28,0.78,0.78v10.98C943.9,922.34,943.63,922.62,943.13,922.62"/>
        <path d="M952.33,909.73c2.91,0,4.99,1.45,5.74,3.84c0.18,0.5-0.1,0.83-0.6,0.93l-2.03,0.33
            c-0.48,0.08-0.75-0.12-0.95-0.58c-0.35-0.83-0.98-1.43-1.98-1.43c-1.43,0-2.33,1.33-2.33,3.51c0,2.16,0.88,3.51,2.38,3.51
            c0.98,0,1.68-0.53,2.03-1.63c0.15-0.48,0.45-0.68,0.9-0.63l2.06,0.3c0.5,0.1,0.75,0.43,0.63,0.95c-0.73,2.63-2.83,4.09-5.79,4.09
            c-3.84,0-6.22-2.53-6.22-6.59S948.54,909.73,952.33,909.73"/>
        <path d="M971.18,914.32v7.52c0,0.5-0.28,0.78-0.78,0.78h-1.78c-0.5,0-0.78-0.28-0.78-0.78v-0.88
            c-0.78,1.28-2.21,1.98-4.04,1.98c-2.63,0-4.29-1.43-4.29-3.71c0-2.46,1.93-3.99,5.11-3.99c1,0,2.03,0.15,2.78,0.43v-1.3
            c0-1.2-0.65-1.93-1.73-1.93c-0.78,0-1.35,0.38-1.68,0.95c-0.28,0.4-0.5,0.58-0.95,0.53l-2.18-0.35c-0.53-0.1-0.78-0.45-0.55-0.95
            c0.8-1.78,2.73-2.88,5.39-2.88C969.07,909.73,971.18,911.49,971.18,914.32 M967.42,918.18v-0.48c-0.63-0.27-1.35-0.42-2.03-0.42
            c-1.28,0-2.06,0.58-2.06,1.55c0,0.93,0.68,1.5,1.83,1.5C966.57,920.34,967.42,919.51,967.42,918.18"/>
        <path d="M985.5,914.72v7.12c0,0.5-0.28,0.78-0.78,0.78h-2.26c-0.5,0-0.78-0.28-0.78-0.78v-6.82
            c0-1.33-0.8-2.18-2.01-2.18c-1.25,0-2.08,0.95-2.11,2.41l0.02,6.59c0,0.5-0.28,0.78-0.78,0.78h-2.26c-0.5,0-0.78-0.28-0.78-0.78
            v-10.98c0-0.5,0.27-0.78,0.78-0.78h1.81c0.47,0,0.78,0.28,0.78,0.78v1.15c0.7-1.45,2.06-2.28,3.86-2.28
            C983.74,909.73,985.5,911.69,985.5,914.72"/>
        <path d="M889.73,933.57v1.98c0,0.48-0.3,0.78-0.8,0.78h-6.64v4.64h5.49c0.5,0,0.78,0.28,0.78,0.78v1.96
            c0,0.5-0.28,0.8-0.78,0.8h-5.52v5.06c0,0.5-0.3,0.78-0.78,0.78h-2.43c-0.5,0-0.78-0.27-0.78-0.78v-16c0-0.5,0.28-0.78,0.78-0.78
            h9.88C889.42,932.79,889.73,933.07,889.73,933.57"/>
        <path d="M890.48,944.05c0-4.04,2.51-6.59,6.54-6.59c4.01,0,6.54,2.56,6.54,6.59c0,4.06-2.53,6.62-6.54,6.62
            C892.98,950.67,890.48,948.11,890.48,944.05 M899.55,944.05c0-2.16-0.98-3.53-2.53-3.53c-1.55,0-2.53,1.38-2.53,3.53
            c0,2.18,0.98,3.53,2.53,3.53C898.57,947.58,899.55,946.23,899.55,944.05"/>
        <path d="M917.08,938.58v10.98c0,0.5-0.3,0.78-0.8,0.78h-1.73c-0.48,0-0.78-0.28-0.78-0.78v-1.05
            c-0.73,1.38-2.13,2.16-3.99,2.16c-2.63,0-4.29-1.6-4.29-4.91v-7.17c0-0.5,0.28-0.78,0.78-0.78h2.26c0.5,0,0.78,0.27,0.78,0.78
            v6.9c0,1.28,0.75,2.06,1.96,2.06c1.2,0,1.98-0.88,2.01-2.28l-0.03-6.67c0-0.5,0.3-0.78,0.78-0.78h2.26
            C916.78,937.81,917.08,938.08,917.08,938.58"/>
        <path d="M931.72,942.44v7.12c0,0.5-0.28,0.78-0.78,0.78h-2.26c-0.5,0-0.78-0.28-0.78-0.78v-6.82
            c0-1.33-0.8-2.18-2.01-2.18c-1.25,0-2.08,0.95-2.11,2.41l0.02,6.59c0,0.5-0.28,0.78-0.78,0.78h-2.26c-0.5,0-0.78-0.28-0.78-0.78
            v-10.98c0-0.5,0.28-0.78,0.78-0.78h1.81c0.48,0,0.78,0.28,0.78,0.78v1.15c0.7-1.45,2.05-2.28,3.86-2.28
            C929.96,937.45,931.72,939.41,931.72,942.44"/>
        <path d="M946.23,932.82v16.75c0,0.5-0.28,0.78-0.78,0.78h-1.81c-0.5,0-0.78-0.28-0.78-0.78v-1.33
            c-0.88,1.53-2.28,2.41-4.09,2.41c-3.11,0-5.07-2.53-5.07-6.57c0-4.06,1.96-6.62,5.09-6.62c1.51,0,2.73,0.6,3.61,1.71v-6.34
            c0-0.5,0.28-0.78,0.78-0.78h2.26C945.96,932.04,946.23,932.31,946.23,932.82 M942.42,944.05c0-2.16-0.9-3.53-2.33-3.53
            c-1.45,0-2.36,1.38-2.36,3.53c0,2.16,0.9,3.53,2.36,3.53C941.52,947.58,942.42,946.2,942.42,944.05"/>
        <path d="M960.2,942.04v7.52c0,0.5-0.28,0.78-0.78,0.78h-1.78c-0.5,0-0.78-0.28-0.78-0.78v-0.88
            c-0.78,1.28-2.21,1.98-4.04,1.98c-2.63,0-4.29-1.43-4.29-3.71c0-2.46,1.93-3.99,5.11-3.99c1,0,2.03,0.15,2.78,0.43v-1.3
            c0-1.2-0.65-1.93-1.73-1.93c-0.78,0-1.35,0.38-1.68,0.95c-0.27,0.4-0.5,0.58-0.95,0.53l-2.18-0.35c-0.53-0.1-0.78-0.45-0.55-0.95
            c0.8-1.78,2.73-2.88,5.39-2.88C958.09,937.45,960.2,939.21,960.2,942.04 M956.44,945.9v-0.48c-0.63-0.27-1.35-0.42-2.03-0.42
            c-1.28,0-2.06,0.58-2.06,1.55c0,0.93,0.68,1.5,1.83,1.5C955.59,948.06,956.44,947.23,956.44,945.9"/>
        <path d="M970.05,948.09v1.56c0,0.5-0.3,0.8-0.8,0.8h-1.76c-2.63,0-4.26-1.48-4.26-3.84l-0.03-5.72h-0.73
            c-0.5,0-0.78-0.27-0.78-0.78l-0.03-1.53c0-0.5,0.3-0.78,0.78-0.78h0.88l1.03-2.51c0.17-0.4,0.48-0.58,0.93-0.58h0.93
            c0.5,0,0.8,0.28,0.8,0.78v2.31H969c0.5,0,0.78,0.28,0.78,0.78v1.53c0,0.5-0.28,0.78-0.78,0.78h-1.96v4.74
            c0,1.03,0.63,1.65,1.6,1.65h0.6C969.75,947.28,970.05,947.58,970.05,948.09"/>
        <path d="M971.66,934.02c0-1.2,0.95-2.16,2.16-2.16c1.18,0,2.13,0.95,2.13,2.16c0,1.18-0.95,2.16-2.13,2.16
            C972.61,936.18,971.66,935.2,971.66,934.02 M974.94,950.34h-2.26c-0.5,0-0.78-0.28-0.78-0.78v-10.98c0-0.5,0.28-0.78,0.78-0.78
            h2.26c0.5,0,0.78,0.27,0.78,0.78v10.98C975.72,950.07,975.44,950.34,974.94,950.34"/>
        <path d="M977.97,944.05c0-4.04,2.51-6.59,6.54-6.59c4.01,0,6.54,2.56,6.54,6.59c0,4.06-2.53,6.62-6.54,6.62
            C980.48,950.67,977.97,948.11,977.97,944.05 M987.05,944.05c0-2.16-0.98-3.53-2.53-3.53c-1.55,0-2.53,1.38-2.53,3.53
            c0,2.18,0.98,3.53,2.53,3.53C986.07,947.58,987.05,946.23,987.05,944.05"/>
        <path d="M1005,942.44v7.12c0,0.5-0.28,0.78-0.78,0.78h-2.26c-0.5,0-0.78-0.28-0.78-0.78v-6.82
            c0-1.33-0.8-2.18-2.01-2.18c-1.25,0-2.08,0.95-2.1,2.41l0.02,6.59c0,0.5-0.27,0.78-0.78,0.78h-2.26c-0.5,0-0.78-0.28-0.78-0.78
            v-10.98c0-0.5,0.28-0.78,0.78-0.78h1.81c0.48,0,0.78,0.28,0.78,0.78v1.15c0.7-1.45,2.05-2.28,3.86-2.28
            C1003.24,937.45,1005,939.41,1005,942.44"/>
        <path d="M909.08,973l2.48-0.43c0.48-0.08,0.75,0.12,0.98,0.55c0.58,1.33,1.73,2.03,3.39,2.03
            c1.55,0,2.48-0.63,2.48-1.76c0-3.48-9.48-1.9-9.48-8.05c0-3.51,2.88-5.21,6.47-5.21c3.53,0,5.72,1.73,6.52,4.14
            c0.15,0.5-0.1,0.83-0.63,0.93l-2.46,0.4c-0.45,0.08-0.75-0.12-0.95-0.55c-0.48-1.05-1.38-1.7-2.61-1.7
            c-1.45,0-2.31,0.8-2.31,1.76c0,3.13,9.5,1.73,9.5,7.9c0,3.31-2.53,5.39-6.49,5.39c-4.01,0-6.57-1.88-7.47-4.46
            C908.33,973.42,908.58,973.1,909.08,973"/>
        <path d="M936.05,966.3v10.98c0,0.5-0.3,0.78-0.8,0.78h-1.73c-0.48,0-0.78-0.28-0.78-0.78v-1.05
            c-0.73,1.38-2.13,2.16-3.99,2.16c-2.63,0-4.29-1.6-4.29-4.91v-7.17c0-0.5,0.28-0.78,0.78-0.78h2.26c0.5,0,0.78,0.28,0.78,0.78
            v6.9c0,1.28,0.75,2.06,1.96,2.06c1.2,0,1.98-0.88,2.01-2.28l-0.03-6.67c0-0.5,0.3-0.78,0.78-0.78h2.26
            C935.75,965.53,936.05,965.8,936.05,966.3"/>
        <path d="M938.74,961.74c0-1.2,0.95-2.16,2.16-2.16c1.18,0,2.13,0.95,2.13,2.16c0,1.18-0.95,2.16-2.13,2.16
            C939.69,963.9,938.74,962.92,938.74,961.74 M942.02,978.06h-2.26c-0.5,0-0.78-0.28-0.78-0.78V966.3c0-0.5,0.28-0.78,0.78-0.78
            h2.26c0.5,0,0.78,0.28,0.78,0.78v10.98C942.8,977.79,942.52,978.06,942.02,978.06"/>
        <path d="M951.22,965.18c2.91,0,4.99,1.45,5.74,3.84c0.18,0.5-0.1,0.83-0.6,0.93l-2.03,0.33
            c-0.48,0.08-0.75-0.12-0.95-0.58c-0.35-0.83-0.98-1.43-1.98-1.43c-1.43,0-2.33,1.33-2.33,3.51c0,2.16,0.88,3.51,2.38,3.51
            c0.98,0,1.68-0.53,2.03-1.63c0.15-0.48,0.45-0.68,0.9-0.63l2.06,0.3c0.5,0.1,0.75,0.43,0.63,0.95c-0.73,2.63-2.83,4.09-5.79,4.09
            c-3.84,0-6.22-2.53-6.22-6.59C945.05,967.71,947.43,965.18,951.22,965.18"/>
        <path d="M958.82,961.74c0-1.2,0.95-2.16,2.16-2.16c1.18,0,2.13,0.95,2.13,2.16c0,1.18-0.95,2.16-2.13,2.16
            C959.77,963.9,958.82,962.92,958.82,961.74 M962.1,978.06h-2.26c-0.5,0-0.78-0.28-0.78-0.78V966.3c0-0.5,0.28-0.78,0.78-0.78
            h2.26c0.5,0,0.78,0.28,0.78,0.78v10.98C962.88,977.79,962.6,978.06,962.1,978.06"/>
        <path d="M977.65,960.54v16.75c0,0.5-0.28,0.78-0.78,0.78h-1.81c-0.5,0-0.78-0.28-0.78-0.78v-1.33
            c-0.88,1.53-2.28,2.41-4.09,2.41c-3.11,0-5.06-2.53-5.06-6.57c0-4.06,1.96-6.62,5.09-6.62c1.5,0,2.73,0.6,3.61,1.7v-6.34
            c0-0.5,0.28-0.78,0.78-0.78h2.26C977.37,959.76,977.65,960.04,977.65,960.54 M973.83,971.77c0-2.16-0.9-3.54-2.33-3.54
            c-1.45,0-2.36,1.38-2.36,3.54c0,2.16,0.9,3.53,2.36,3.53C972.93,975.3,973.83,973.93,973.83,971.77"/>
        <path d="M979.9,971.69c0-3.93,2.28-6.52,6.34-6.52c3.74,0,5.99,2.18,6.22,6.67c0.02,0.53-0.25,0.8-0.75,0.8h-7.75
            c0.23,1.86,1.18,2.98,2.81,2.98c0.88,0,1.58-0.35,1.98-1.03c0.28-0.38,0.53-0.55,0.98-0.48l1.76,0.3
            c0.53,0.08,0.78,0.43,0.55,0.93c-0.85,1.93-2.86,3.03-5.54,3.03C982.46,978.39,979.9,975.88,979.9,971.69 M988.43,970.52
            c-0.2-1.68-0.9-2.61-2.18-2.61c-1.3,0-2.08,0.9-2.28,2.61H988.43z"/>
        <path d="M891.63,992.77c0,3.54-2.51,5.79-6.49,5.79h-2.86v5.24c0,0.5-0.3,0.78-0.78,0.78h-2.46
            c-0.5,0-0.78-0.28-0.78-0.78v-16c0-0.5,0.28-0.78,0.78-0.78h6.09C889.12,987.03,891.63,989.24,891.63,992.77 M887.44,992.77
            c0-1.53-1.08-2.48-2.73-2.48h-2.43v5.02h2.43C886.37,995.3,887.44,994.33,887.44,992.77"/>
        <path d="M901.58,992.34v2.26c0,0.4-0.23,0.63-0.58,0.63h-0.15c-2.13,0-3.41,1.3-3.48,3.48l0.03,5.09
            c0,0.5-0.28,0.78-0.78,0.78h-2.26c-0.5,0-0.78-0.28-0.78-0.78v-10.98c0-0.5,0.28-0.78,0.78-0.78h1.65c0.48,0,0.78,0.28,0.78,0.78
            l-0.03,2.08c0.65-1.93,2.08-3.18,3.96-3.18h0.2C901.36,991.72,901.58,991.94,901.58,992.34"/>
        <path d="M902.11,998.21c0-3.94,2.28-6.52,6.34-6.52c3.74,0,5.99,2.18,6.22,6.67c0.03,0.53-0.25,0.8-0.75,0.8h-7.75
            c0.23,1.86,1.18,2.98,2.81,2.98c0.88,0,1.58-0.35,1.98-1.03c0.28-0.38,0.53-0.55,0.98-0.48l1.76,0.3
            c0.53,0.08,0.78,0.43,0.55,0.93c-0.85,1.93-2.86,3.03-5.54,3.03C904.67,1004.91,902.11,1002.4,902.11,998.21 M910.63,997.03
            c-0.2-1.68-0.9-2.61-2.18-2.61c-1.3,0-2.08,0.9-2.28,2.61H910.63z"/>
        <path d="M928.13,992.95l-3.53,10.98c-0.15,0.43-0.45,0.65-0.9,0.65h-3.84c-0.45,0-0.75-0.22-0.88-0.65l-3.54-11.01
            c-0.15-0.55,0.08-0.88,0.65-0.88h2.51c0.48,0,0.75,0.2,0.88,0.65l2.36,8.52l2.36-8.52c0.12-0.45,0.4-0.65,0.88-0.65h2.41
            C928.03,992.04,928.28,992.37,928.13,992.95"/>
        <path d="M929.11,998.21c0-3.94,2.28-6.52,6.34-6.52c3.73,0,5.99,2.18,6.22,6.67c0.03,0.53-0.25,0.8-0.75,0.8h-7.75
            c0.23,1.86,1.18,2.98,2.81,2.98c0.88,0,1.58-0.35,1.98-1.03c0.27-0.38,0.53-0.55,0.98-0.48l1.76,0.3
            c0.53,0.08,0.78,0.43,0.55,0.93c-0.85,1.93-2.86,3.03-5.54,3.03C931.67,1004.91,929.11,1002.4,929.11,998.21 M937.64,997.03
            c-0.2-1.68-0.9-2.61-2.18-2.61c-1.3,0-2.08,0.9-2.28,2.61H937.64z"/>
        <path d="M955.44,996.68v7.12c0,0.5-0.28,0.78-0.78,0.78h-2.26c-0.5,0-0.78-0.27-0.78-0.78v-6.82
            c0-1.33-0.8-2.18-2.01-2.18c-1.25,0-2.08,0.95-2.1,2.41l0.02,6.59c0,0.5-0.27,0.78-0.78,0.78h-2.26c-0.5,0-0.78-0.27-0.78-0.78
            v-10.98c0-0.5,0.28-0.78,0.78-0.78h1.81c0.48,0,0.78,0.28,0.78,0.78v1.15c0.7-1.46,2.05-2.28,3.86-2.28
            C953.68,991.69,955.44,993.65,955.44,996.68"/>
        <path d="M965.34,1002.32v1.55c0,0.5-0.3,0.8-0.8,0.8h-1.76c-2.63,0-4.26-1.48-4.26-3.84l-0.02-5.72h-0.73
            c-0.5,0-0.78-0.28-0.78-0.78l-0.03-1.53c0-0.5,0.3-0.78,0.78-0.78h0.88l1.03-2.51c0.18-0.4,0.48-0.58,0.93-0.58h0.93
            c0.5,0,0.8,0.28,0.8,0.78v2.31h1.98c0.5,0,0.78,0.28,0.78,0.78v1.53c0,0.5-0.28,0.78-0.78,0.78h-1.96v4.74
            c0,1.03,0.63,1.66,1.6,1.66h0.6C965.04,1001.52,965.34,1001.82,965.34,1002.32"/>
        <path d="M966.94,988.26c0-1.2,0.95-2.16,2.16-2.16c1.18,0,2.13,0.95,2.13,2.16c0,1.18-0.95,2.16-2.13,2.16
            C967.9,990.41,966.94,989.44,966.94,988.26 M970.23,1004.58h-2.26c-0.5,0-0.78-0.28-0.78-0.78v-10.98c0-0.5,0.28-0.78,0.78-0.78
            h2.26c0.5,0,0.78,0.28,0.78,0.78v10.98C971.01,1004.3,970.73,1004.58,970.23,1004.58"/>
        <path d="M973.26,998.29c0-4.04,2.51-6.59,6.54-6.59c4.01,0,6.54,2.56,6.54,6.59c0,4.06-2.53,6.62-6.54,6.62
            C975.77,1004.91,973.26,1002.35,973.26,998.29 M982.34,998.29c0-2.16-0.98-3.54-2.53-3.54c-1.55,0-2.53,1.38-2.53,3.54
            c0,2.18,0.98,3.53,2.53,3.53C981.36,1001.82,982.34,1000.47,982.34,998.29"/>
        <path d="M1000.29,996.68v7.12c0,0.5-0.28,0.78-0.78,0.78h-2.26c-0.5,0-0.78-0.27-0.78-0.78v-6.82
            c0-1.33-0.8-2.18-2.01-2.18c-1.25,0-2.08,0.95-2.11,2.41l0.02,6.59c0,0.5-0.28,0.78-0.78,0.78h-2.26c-0.5,0-0.78-0.27-0.78-0.78
            v-10.98c0-0.5,0.27-0.78,0.78-0.78h1.81c0.48,0,0.78,0.28,0.78,0.78v1.15c0.7-1.46,2.06-2.28,3.86-2.28
            C998.53,991.69,1000.29,993.65,1000.29,996.68"/>
        <path d="M885.58,962.08h-0.25c-2.41,0-4.21,1.36-4.67,4.01l-0.05,0.3h-0.96c-0.33,0-0.61,0.24-0.67,0.56l-0.13,0.7
            c-0.08,0.42,0.25,0.8,0.67,0.8h0.72l-0.74,4.61c-0.18,0.93-0.68,1.07-1.33,1.07h-0.49c-0.33,0-0.51,0.14-0.57,0.46l-0.34,1.39
            c-0.07,0.42,0.56,0.85,1.44,0.85c1.81,0,3.5-0.85,4.02-3.36l0.82-5.03h1.16c0.33,0,0.61-0.23,0.67-0.56l0.13-0.7
            c0.08-0.42-0.25-0.8-0.67-0.8h-0.91l0.05-0.3c0.18-0.93,0.74-1.36,1.39-1.36h0.49c0.33,0,0.61-0.24,0.67-0.56l0.23-1.3
            C886.33,962.47,886.01,962.08,885.58,962.08"/>
        <path d="M890.91,966.19c-2.31,0-4.63,1.69-5.11,4.3c-0.46,2.59,1.3,4.28,3.61,4.28c2.34,0,4.68-1.69,5.14-4.28
            C895.03,967.88,893.25,966.19,890.91,966.19 M891.86,970.48c-0.18,0.93-1.07,1.71-2.01,1.71s-1.58-0.77-1.41-1.71
            c0.18-0.93,1.09-1.71,2.03-1.71C891.4,968.78,892.03,969.55,891.86,970.48"/>
        <path d="M902.21,966.19c-0.8,0-2.29,0.05-2.99,1.62l0.22-0.6c0.08-0.42-0.24-0.8-0.67-0.8h-1.27
            c-0.33,0-0.61,0.24-0.67,0.56l-1.2,6.85c-0.07,0.42,0.25,0.8,0.67,0.8h1.42c0.33,0,0.61-0.24,0.67-0.57l0.36-2.13
            c0.44-2.46,1.2-3.06,2.25-3.06c0.16,0,0.42,0,0.72,0.06c0.31,0.06,0.62-0.12,0.75-0.41l0.59-1.36
            C903.24,966.71,903.01,966.19,902.21,966.19"/>
        <path d="M853.08,936.07c-10.52-25.39-39.72-37.49-65.11-26.97c-25.39,10.52-37.48,39.72-26.97,65.11
            c5.09,12.3,14.67,21.88,26.97,26.97c6.15,2.55,12.61,3.82,19.07,3.82c6.46,0,12.92-1.27,19.07-3.82
            c12.3-5.09,21.88-14.67,26.97-26.97C858.18,961.91,858.18,948.37,853.08,936.07 M784.59,964.44c-2.48-6-2.48-12.6,0-18.6
            c2.48-6,7.16-10.67,13.15-13.15c6-2.48,12.6-2.48,18.6,0c6,2.48,10.67,7.16,13.15,13.15c5.13,12.38-0.77,26.63-13.15,31.75
            C803.96,982.72,789.72,976.82,784.59,964.44 M824.48,913.04L824.48,913.04l-6.5,15.7c-7.05-2.92-14.82-2.92-21.87,0l-6.51-15.7
            C800.85,908.39,813.23,908.39,824.48,913.04 M764.97,937.71l15.68,6.5v0c-2.92,7.05-2.92,14.81,0,21.87l-15.7,6.5
            C760.14,960.97,760.5,948.49,764.97,937.71 M789.61,997.24L789.61,997.24l6.52-15.73c3.45,1.43,7.17,2.2,10.96,2.2
            c3.64,0,7.33-0.7,10.89-2.18l6.5,15.7C813.23,1001.89,800.85,1001.89,789.61,997.24 M849.14,972.58L849.14,972.58l-15.7-6.5
            c2.92-7.05,2.92-14.82,0-21.87l15.7-6.51C853.8,948.95,853.8,961.33,849.14,972.58"/>
		
	</g>
    <g id="nspw_white" class="svg_white">
        <path d="M76.54,998.06c0-4.31,2.99-7,8.41-7c4.31,0,6.07,2.07,6.87,3.61h0.13v-3.52c0-2.6-2.16-3.74-4.84-3.74
            c-2.29,0-3.21,0.66-3.87,1.45c-0.66,0.75-1.32,1.67-2.99,1.67c-1.94,0-2.95-1.28-2.95-2.99c0-4.44,5.63-6.47,10.39-6.47
            c6.25,0,10.43,2.38,10.43,9.51v8.23l0.4,3.21c0.22,1.8-1.19,3.39-2.99,3.39c-1.54,0-2.77-1.14-2.99-2.68l-0.35-2.6h-0.22
            c-0.97,3.17-3.39,5.19-7.88,5.19C79.75,1005.32,76.54,1002.99,76.54,998.06z M92.16,997.79c0-1.45-2.55-1.94-4.88-1.94
            c-2.73,0-4.8,0.48-4.8,1.94s2.07,1.94,4.8,1.94C89.61,999.73,92.16,999.2,92.16,997.79z"/>
        <path d="M103.38,1001.89v-13.91l-1.28,0.09c-1.5,0.13-2.9-1.19-2.9-3.08c0-1.72,1.28-3.12,2.86-2.95l1.32,0.13
            v-0.79c0-5.68,3.26-8.58,8.1-8.58c3.17,0,5.5,1.41,5.5,3.96c0,1.58-0.97,2.99-2.29,2.99c-0.92,0-1.41-0.57-2.77-0.57
            c-1.45,0-2.51,0.75-2.51,2.25v0.66l2.99-0.18c1.58,0,2.99,1.36,2.99,3.12c0,1.85-1.32,3.21-2.95,3.12l-2.95-0.13v13.6
            c0,1.98-0.97,3.79-3.08,3.79C104.57,1005.41,103.38,1003.87,103.38,1001.89z"/>
        <path d="M117.86,999.95c0-1.85,1.5-3.34,3.04-3.34c1.23,0,1.85,0.75,2.64,1.36c0.75,0.57,1.8,1.28,4.8,1.28
            c3.04,0,5.06-0.18,5.06-2.07c0-1.58-3.26-1.67-6.03-1.89c-4.88-0.4-8.93-1.28-8.93-6.86c0-4.84,3.87-7.53,10.34-7.53
            c5.68,0,9.86,1.85,9.86,5.1c0,1.89-1.45,3.34-2.99,3.34c-0.7,0-1.36-0.31-1.89-0.84c-1.06-1.14-2.64-1.5-5.15-1.5
            c-2.82,0-4.58,0.57-4.58,1.85c0,1.45,1.67,1.67,5.19,1.94c4.44,0.35,9.73,0.79,9.73,6.29c0,5.68-4.58,8.32-10.61,8.32
            C122.13,1005.41,117.86,1003.65,117.86,999.95z"/>
        <path d="M142.63,1010.87v-21.65l-0.35-5.19c-0.13-1.63,1.19-2.99,2.82-2.99c1.5,0,2.77,1.14,2.86,2.64l0.26,4.49
            h0.35c1.1-5.46,4.71-7.22,8.8-7.22c4.97,0.13,8.41,3.52,8.41,11.97c0,8.89-4.71,12.32-9.46,12.32c-3.78,0-6.6-2.16-7.13-6.91
            h-0.48v6.56v5.99c0,1.67-1.36,3.04-3.04,3.04S142.63,1012.54,142.63,1010.87z M159.84,993c0-4.09-2.16-5.32-5.46-5.32
            c-4.14,0-5.77,1.63-5.77,5.37c0,3.34,1.76,5.28,5.81,5.28C157.72,998.32,159.84,996.92,159.84,993z"/>
        <path d="M169.07,1001.1c0-2.38,1.45-4.09,3.83-4.09s3.83,1.72,3.83,4.09c0,2.38-1.45,4.05-3.83,4.05
            S169.07,1003.47,169.07,1001.1z"/>
        <path d="M180.03,993.09c0-7.17,3.92-12.19,11.71-12.19c7.83,0,11.75,5.02,11.75,12.19s-3.92,12.32-11.75,12.32
            C183.95,1005.41,180.03,1000.26,180.03,993.09z M197.72,993.04c0-4-2.11-5.76-5.94-5.76c-3.87,0-5.98,1.76-5.98,5.76
            c0,4.14,2.11,5.99,5.94,5.99C195.61,999.03,197.72,997.18,197.72,993.04z"/>
        <path d="M207.93,1002.37v-13.16l-0.35-5.19c-0.13-1.63,1.19-2.99,2.82-2.99c1.5,0,2.77,1.14,2.86,2.64l0.26,4.36
            h0.4c0.84-5.41,3.7-7,5.77-7c2.02,0,2.99,1.67,2.99,3.48c0,2.07-1.32,4.27-3.96,4.27c-2.16,0-4.71,0.97-4.71,3.65v9.95
            c0,1.67-1.36,3.04-3.04,3.04S207.93,1004.04,207.93,1002.37z"/>
        <path d="M242.43,985.12l-0.13,0.53c2.42,0.44,3.34,2.24,3.34,3.96c0,5.33-4.88,7.44-9.99,7.44
            c-2.46,0-4.18-0.22-5.72-0.88c-0.57,0.35-1.06,1.06-1.06,1.67s0.53,1.19,2.02,1.19h9.59c4.58,0,7.26,2.2,7.26,6.47
            c0,4.44-3.21,8.41-12.67,8.41c-7.39,0-11.53-1.14-11.53-5.37c0-2.46,2.07-3.87,4.88-3.87v-0.53c-3.43-0.31-4.44-2.38-4.44-4.22
            c0-2.95,1.98-4.05,4.49-4.4c-2.33-1.14-3.56-3.79-3.56-6.51c0-5.02,4.05-8.1,10.3-8.1c1.63,0,4.14,0.26,5.76,0.97l3.7-1.36
            c2.07-0.79,3.92,0.22,3.92,2.46c0,1.8-1.19,2.95-2.86,2.68L242.43,985.12z M230.15,1004.7c-0.48,0.04-1.14,0.35-1.14,1.01
            c0,1.98,2.51,2.42,6.07,2.42c4,0,6.78-0.7,6.78-2.16c0-1.28-1.45-1.28-2.9-1.28H230.15z M240.36,989.13
            c0-2.02-2.42-2.68-5.15-2.68c-2.9,0-5.1,0.62-5.1,2.68c0,1.98,1.98,2.68,5.1,2.68C237.54,991.81,240.36,991.37,240.36,989.13z"/>
        <path d="M251,1009.28l12.89-33.58c0.66-1.8,2.29-2.46,3.78-1.89s2.2,2.16,1.5,3.92l-12.89,33.58
            c-0.66,1.8-2.29,2.46-3.78,1.89S250.3,1011.04,251,1009.28z"/>
        <path d="M273,1002.37v-13.16l-0.31-5.19c-0.09-1.63,1.19-2.99,2.82-2.99c1.5,0,2.77,1.14,2.86,2.64l0.18,3.52h0.35
            c0.79-4.49,4.18-6.29,7.61-6.29c4.58,0,7.52,2.73,7.52,8.32v13.16c0,1.67-1.36,3.04-3.04,3.04c-1.67,0-3.04-1.36-3.04-3.04v-11.35
            c0-2.24-1.1-3.65-3.7-3.65c-2.77,0-5.19,1.76-5.19,3.74v11.27c0,1.67-1.36,3.04-3.04,3.04C274.37,1005.41,273,1004.04,273,1002.37
            z"/>
        <path class="st140" d="M297.69,999.95c0-1.85,1.5-3.34,3.04-3.34c1.23,0,1.85,0.75,2.64,1.36c0.75,0.57,1.8,1.28,4.8,1.28
            c3.04,0,5.06-0.18,5.06-2.07c0-1.58-3.26-1.67-6.03-1.89c-4.88-0.4-8.93-1.28-8.93-6.86c0-4.84,3.87-7.53,10.34-7.53
            c5.68,0,9.86,1.85,9.86,5.1c0,1.89-1.45,3.34-2.99,3.34c-0.7,0-1.36-0.31-1.89-0.84c-1.06-1.14-2.64-1.5-5.15-1.5
            c-2.82,0-4.58,0.57-4.58,1.85c0,1.45,1.67,1.67,5.19,1.94c4.44,0.35,9.73,0.79,9.73,6.29c0,5.68-4.58,8.32-10.61,8.32
            C301.96,1005.41,297.69,1003.65,297.69,999.95z"/>
        <path class="st140" d="M322.46,1010.87v-21.65l-0.35-5.19c-0.13-1.63,1.19-2.99,2.82-2.99c1.5,0,2.77,1.14,2.86,2.64l0.26,4.49
            h0.35c1.1-5.46,4.71-7.22,8.8-7.22c4.97,0.13,8.41,3.52,8.41,11.97c0,8.89-4.71,12.32-9.46,12.32c-3.78,0-6.6-2.16-7.13-6.91
            h-0.48v6.56v5.99c0,1.67-1.36,3.04-3.04,3.04S322.46,1012.54,322.46,1010.87z M339.67,993c0-4.09-2.16-5.32-5.46-5.32
            c-4.14,0-5.77,1.63-5.77,5.37c0,3.34,1.76,5.28,5.81,5.28C337.56,998.32,339.67,996.92,339.67,993z"/>
        <path class="st140" d="M351.99,1001.23l-4.31-15.45c-0.57-2.11,0.35-4.75,3.12-4.75c1.5,0,2.82,1.06,3.17,2.68l3.17,14.43h0.18
            l2.42-13.03c0.44-2.33,1.89-4.09,4.31-4.09s3.74,1.8,4.18,4.09l2.55,13.03H371l2.95-14.26c0.35-1.63,1.45-2.86,3.34-2.86
            c2.33,0,3.52,2.29,2.95,4.88l-4.31,15.31c-0.66,2.42-1.89,4.18-4.71,4.18c-2.77,0-4.27-2.02-4.8-4.58l-2.24-10.43h-0.48
            l-2.16,10.43c-0.57,2.77-2.16,4.58-4.75,4.58C353.97,1005.41,352.69,1003.74,351.99,1001.23z"/>
    </g>

</svg>
