<?xml version="1.0" encoding="utf-8"?>
<!-- Generator: Adobe Illustrator 26.4.1, SVG Export Plug-In . SVG Version: 6.00 Build 0)  -->
<svg version="1.1" id="Layer_1" xmlns="http://www.w3.org/2000/svg" xmlns:xlink="http://www.w3.org/1999/xlink" x="0px" y="0px"
	 viewBox="0 0 973.14 293.47" style="enable-background:new 0 0 973.14 293.47;" xml:space="preserve">
<style type="text/css">
	.st0{clip-path:url(#SVGID_00000031207578781219044330000007346465793268314292_);fill:#F0F7FA;}
	.st1{fill:#524584;}
	.st2{fill:#3A2D72;}
	.st3{fill:#504383;}
	.st4{fill:#3B2D72;}
	.st5{fill:#514483;}
	.st6{fill:#3C2E73;}
	.st7{fill:#FEFE5E;}
</style>
<g>
	<g>
		<defs>
			<rect id="SVGID_1_" y="1.12" width="965.72" height="291.23"/>
		</defs>
		<clipPath id="SVGID_00000125568968316711603960000017186191181144647096_">
			<use xlink:href="#SVGID_1_"  style="overflow:visible;"/>
		</clipPath>
		<path style="clip-path:url(#SVGID_00000125568968316711603960000017186191181144647096_);fill:#F0F7FA;" d="M309.35,292.04
			c-22.27-1.25-43.53-8.87-65.55-11.86c-21.13-2.72-42.55-2.42-63.78-1.72c-29.45,1.06-58.84,4.94-88.34,3.64
			c-13.29-0.37-26.62-2.11-39.27-6.3c-28.08-8.84-52.3-30.95-44.74-62.83c2.48-11.36,8.42-21.52,15.19-30.83
			c6.2-8.7,13.13-16.85,20.47-24.6c9.49-10.17,19.33-20.09,27.63-31.29c8.07-10.7,15.35-23.48,14.1-37.34
			c-0.89-12.54-7.56-24.15-7.06-36.82c0.33-6.36,2.87-13.01,8.4-16.58c7.71-5.31,20.78-8.19,30.14-8.63
			c8.56-0.29,17.09,0.94,25.46,2.61c9.07,1.76,18.05,3.98,26.97,6.37c17.83,4.58,34.98,11.27,52.11,17.91
			c9.57,3.65,19.18,7.32,29.13,9.82c1.44,0.34,2.89,0.68,4.34,0.97c1.64-0.22,3.27-0.46,4.89-0.74c4.11-0.71,8.21-1.48,12.27-2.41
			c18.71-4.23,36.36-12.42,55.48-14.83c11.58-1.78,23.41-1.58,34.93,0.52c8.11,1.38,16.16,3.19,24.32,4.26
			c6.2,0.78,12.43,1.34,18.68,1.6c29.71,0.71,59.67-3.67,87.83-13.17c22.27-7.53,42.81-19.27,64.74-27.65
			c15.39-5.79,31.61-9.67,48.06-10.43c14.09-0.48,28.38,0.71,41.89,4.91c9.25,2.83,17.96,7.16,26.26,12.07
			c16.02,9.45,32.13,19.82,50.74,23.14c10.25,2,20.8,2.74,31.17,1.25c12.98-2,25.48-6.29,38.38-8.69
			c14.96-2.84,30.56-2.29,45.27,1.59c13.35,3.51,25.96,9.46,37.34,17.24c7.66,5.03,15.06,10.58,23.23,14.74
			c8.46,4.41,17.53,7.6,26.83,9.72c7.48,1.84,15.31,2.23,22.57,4.9c9.76,3.75,14.3,10.22,15.15,21.91
			c1.06,11.52-3.37,22.44-7.7,32.87c-3.91,9.6-7.24,19.54-8.51,29.87c-1.13,8.29-1.2,16.75-3.26,24.89
			c-2.37,8.76-7.62,16.63-14.71,22.28c-6.14,4.95-13.29,8.45-20.47,11.63c-8.21,3.59-16.68,6.69-25.4,8.81
			c-9.36,2.24-18.96,3.3-28.57,3.71c-13.99,0.55-28.08-0.03-41.87-2.52c-13.87-2.38-27.3-6.73-40.32-12.03
			c-7.04-2.83-14.29-5.11-21.68-6.82c-5.35-1.34-10.85-1.96-16.37-1.91c-14.17,0.21-28.17,4.24-42.38,2.9
			c-16.12-1.13-31.78-5.57-47.81-7.34c-24.36-1.64-52.7,18.26-72.52,31.27c-9.46,6.46-19.51,12.23-31.17,13.16
			c-10.81,1.23-21.68-0.68-31.99-3.93c-15.65-5.17-31.3-12.62-48.16-11.81c-5.88,0.23-11.66,1.42-17.38,2.71
			c-9.51,2.17-18.68,5.62-27.54,9.68c-25.04,10.96-46.72,28.91-73.02,37.02c-8.55,2.49-17.45,3.36-26.34,3.36
			C314.71,292.25,312.02,292.17,309.35,292.04z"/>
	</g>
	<g>
		<path class="st1" d="M930.3,146.68c3.43-1.2,5.53,0.47,9.44,0.39c-0.11,3.04-2.24,4.83-4.67,6.22c-4.8,2.73-9.93,3.22-15.23,1.72
			c-2.66-0.75-5.18-3.61-6.67-6.21c2.54-0.62,5.77,0.42,8.3-0.22"/>
		<path class="st2" d="M86.5,158.79c-0.73-12.41-0.85-25.95,1.5-38.22c0.58-3.03,1.49-6.01,2.48-8.94c0.61-1.8,1.51-3.54,2.52-5.15
			c3.67-5.89,8.66-8.08,15.45-6.93c3.97,0.67,7.74,1.9,11.19,4.01c7.52,4.6,11.39,11.35,11.7,20.13c0.18,5.07-0.8,10-2.21,14.83
			c-1.61,5.52-3.49,10.97-5.06,16.5c-0.76,2.68-1.16,5.47-1.57,8.24c-0.17,1.15-0.08,2.38,0.12,3.53c0.65,3.64,2.81,6.1,6.26,7.4
			c1.29,0.49,2.4,0.25,3.11-0.9c0.85-1.37,1.59-2.83,2.14-4.34c1.02-2.77,1.76-5.64,2.8-8.4c0.94-2.48,1.92-4.97,3.24-7.25
			c1.81-3.12,3.44-3.63,7.07-2.96c5.54,1.01,9.88,3.96,12.88,8.61c1.91,2.96,3.34,6.22,4.85,9.42c1,2.13,1.69,4.41,2.66,6.56
			c0.47,1.05,1.16,2.05,1.93,2.91c0.83,0.92,2.44,0.62,3.02-0.48c0.34-0.64,0.67-1.36,0.72-2.06c0.16-2.49,0.52-5.03,0.23-7.48
			c-1.02-8.65-2.26-17.27-3.47-25.89c-0.63-4.53-1.5-9.04-1.98-13.58c-0.35-3.22-0.5-6.5-0.27-9.72c0.4-5.63,3.38-9.64,8.57-11.93
			c2.73-1.21,5.61-1.89,8.56-2.12c2.94-0.23,5.9-0.27,8.85-0.28c3.75-0.01,6.85,1.57,9.48,4.15c2.47,2.42,4.12,5.37,5.47,8.51
			c2.11,4.91,3.36,10.07,4.28,15.31c2.07,11.82,2.86,23.75,2.77,35.73c-0.12,15.5-0.51,31-0.79,46.51
			c-0.05,2.66-0.57,6.88-0.89,9.81c-2,0.76-3.36-0.38-4.9,0.06c-3.15,0.91-5.05,0.1-6.36-2.87c-0.71-1.61-1.43-3.23-1.98-4.91
			c-2.29-7.03-7.16-12.26-12.75-16.55c-5.05-3.87-11.2-5.72-17.7-6.04c-6.57-0.32-12.88,0.93-19.05,2.97
			c-4.05,1.34-8.18,2.37-12.26,3.58c-3.71,1.1-6.85,0.07-9.52-1.98c-2.77-2.12-5.29-4.65-7.28-7.65
			c-4.32-6.49-8.56-13.04-13.24-19.25c-2.45-3.25-5.63-6.01-8.75-8.67C96.38,159.66,91.45,159.69,86.5,158.79z"/>
		<path class="st3" d="M86.43,158.03c5.02,0.51,9.95,1.63,13.87,4.98c3.12,2.66,6.3,5.42,8.75,8.67
			c4.69,6.21,8.93,12.77,13.24,19.25c1.99,3,4.51,5.53,7.28,7.65c2.67,2.05,5.81,3.08,9.52,1.98c4.08-1.2,8.21-2.24,12.26-3.58
			c6.17-2.04,12.47-3.3,19.05-2.97c6.51,0.32,12.65,2.17,17.7,6.04c5.59,4.29,10.46,9.52,12.75,16.55c0.55,1.67,1.27,3.29,1.98,4.91
			c1.31,2.97,3.21,3.78,6.36,2.87c1.55-0.44,3.13-0.75,5.04-1.11c0.72,8.41,1.24,16.81-0.27,25.17c-0.05,0.29-0.08,0.59-0.13,0.88
			c-3.22,16.28-15.49,23.55-29.62,22.75c-4.94-0.28-9.04-2.52-12.59-5.86c-3.05-2.87-5.42-6.26-7.31-9.95
			c-2.15-4.2-4.06-8.53-6.08-12.8c-0.7-1.47-1.34-2.97-2.17-4.35c-0.5-0.83-1.34-1.46-2.21-2.38c-0.78,0.76-1.58,1.23-1.93,1.94
			c-0.78,1.58-1.33,3.27-1.99,4.92c-1.38,3.42-2.56,6.94-4.21,10.22c-1.18,2.34-2.79,4.53-4.56,6.48
			c-3.85,4.23-8.89,5.88-14.45,5.18c-13.99-1.75-24.2-8.81-29.83-21.98c-2.46-5.75-3.94-11.79-4.36-18
			c-0.99-14.59-2.73-29.11-4.27-43.64C87.41,174.05,86.98,166.22,86.43,158.03z"/>
		<path class="st3" d="M864.35,109.83c-0.16,4.26-0.41,12-0.79,16.24c-1.01,11.31-2.07,22.62-3.37,33.91
			c-1.01,8.79-2.58,17.52-5.29,25.97c-1.26,3.91-2.76,7.8-4.64,11.46c-5.02,9.78-13.25,14.74-24.18,15.26
			c-9.05,0.43-17.96-0.51-26.78-2.6c-13.07-3.11-21.06-11.18-24.21-24.2c-1.46-6.05-2.29-12.19-2.5-18.38
			c-0.44-13.13-0.2-26.26,0.42-39.39c0.29-6.19,0.55-12.38,1.3-18.77c2.14,0.3,3.81,0.79,5.47,1.31c4.42,1.38,8.93,1.47,13.36,0.34
			c5.68-1.46,11.37-2.52,17.26-2.07c0.44,0.03,1.16-1.74,1.6-1.75c-0.01,1.75-0.28,5.24-0.33,6.99c-0.25,8.4-0.63,16.8-0.75,25.2
			c-0.06,4.27,0.25,8.54,0.55,12.8c0.11,1.59,0.54,3.2,1.09,4.71c0.8,2.2,2.66,3.07,4.89,3.11c1.98,0.03,3.44-1.01,4.13-2.78
			c0.91-2.32,1.85-4.69,2.26-7.13c1.03-6.1,1.98-12.23,2.57-18.38c0.82-8.51,1.57-18.78,2.62-27.69c1.4-0.7,2.07,0.67,3.05,0.41
			c2.26-0.58,4.52-1.5,6.79-1.54c2.43-0.04,4.94,0.57,7.3,1.28c5.22,1.56,10.1,3.89,14.44,7.28
			C861.63,112.21,863.19,109.21,864.35,109.83z"/>
		<path class="st3" d="M575.72,147.11c-0.09,10.3-1.96,21.07-6.57,30.35c-3.37,6.79-8.59,11.51-16.13,13.43
			c-6.22,1.58-11.36-0.01-15.51-4.86c-2.62-3.06-4.53-6.55-6.11-10.22c-1.46-3.39-2.78-6.83-4.21-10.23
			c-0.46-1.08-1.03-2.12-1.63-3.12c-0.21-0.35-0.66-0.55-1.23-0.99c-0.59,0.59-1.41,1.06-1.72,1.77c-1.02,2.28-1.97,4.61-2.74,6.99
			c-1.54,4.77-2.83,9.63-4.43,14.38c-3.53,10.46-11.2,16.43-21.65,18.83c-7.92,1.82-14.93-2.22-18.21-9.9
			c-1.76-4.11-2.55-8.47-2.78-12.92c-0.29-5.6-0.35-11.21-0.71-16.81c-0.71-10.9-1.6-21.78-2.33-32.68
			c-1.02-15.32-1.87-30.65-0.41-46c0.13-1.32,0.42-3.39,1.32-5.19c6.08,0.73,9.65,4.98,12.53,9.75c1.92,3.18,3.18,6.61,4.48,10.04
			c2.19,5.8,3.05,11.95,4.58,17.92c0.78,3.03,1.92,5.88,3.43,8.59c1.52,2.72,3.61,3.59,6.66,2.44c2.74-1.03,5.46-2.24,7.97-3.74
			c5.19-3.11,10.34-6.27,16.1-8.21c9.85-3.32,18.82-2.09,26.54,5.38c3.12,3.02,5.31,6.67,7.43,10.38c1.83,3.19,3.47,6.5,5.33,9.67
			C567.91,145.88,570.82,147.94,575.72,147.11z"/>
		<path class="st4" d="M575.73,147.57c-5.03,1.18-7.82-1.69-10.01-5.42c-1.86-3.17-3.5-6.48-5.33-9.67
			c-2.12-3.7-4.31-7.36-7.43-10.38c-7.72-7.47-16.69-8.69-26.54-5.38c-5.76,1.94-10.91,5.1-16.1,8.21c-2.51,1.5-5.23,2.71-7.97,3.74
			c-3.06,1.15-5.14,0.28-6.66-2.44c-1.52-2.71-2.66-5.55-3.43-8.59c-1.53-5.97-2.39-12.12-4.58-17.92
			c-1.29-3.44-2.56-6.87-4.48-10.04c-2.88-4.77-6.91-7.99-12.84-9.04c0.86-6.44,1.81-12.97,5.06-18.69
			c4.95-8.71,16.6-11.39,24.99-5.9c3.85,2.52,5.81,6.18,6.15,10.73c0.32,4.32-0.27,8.55-1.42,12.71c-1.14,4.12-2.48,8.2-3.56,12.33
			c-0.94,3.56-1.74,7.16-2.4,10.78c-0.26,1.41-0.06,2.95,0.16,4.39c0.27,1.73,1.37,2.91,3.03,3.5c1.92,0.68,3.59,0.16,4.51-1.64
			c0.86-1.7,1.52-3.52,2.13-5.33c0.94-2.79,1.71-5.65,2.67-8.44c0.57-1.67,1.31-3.29,2.05-4.89c1.43-3.09,4.06-4.12,7.26-3.96
			c4.1,0.2,7.49,1.91,9.67,5.39c1.56,2.48,2.7,5.23,3.99,7.87c0.71,1.45,1.25,3.01,2.07,4.39c0.93,1.56,2.81,1.42,3.36-0.28
			c0.49-1.52,0.91-3.17,0.84-4.74c-0.19-4.27-0.48-8.55-1.04-12.79c-0.81-6.15-1.95-12.25-2.8-18.39c-0.38-2.77-0.58-5.59-0.52-8.38
			c0.09-4.65,2.34-8.18,6.38-10.44c1.53-0.86,3.2-1.63,4.9-1.98c3.32-0.67,6.69-1.21,10.06-1.43c4.08-0.26,7.46,1.47,10.12,4.57
			c1.85,2.16,3.11,4.65,4.13,7.29c1.82,4.72,2.83,9.65,3.33,14.64c0.54,5.43,0.97,10.9,1,16.35c0.1,16.25,0.02,32.49-0.07,48.74
			C576.4,140.45,576.05,143.84,575.73,147.57z"/>
		<path class="st2" d="M653.83,163.82c-0.1-1.47-0.27-4.67-0.27-6.14c-0.01-21.25,0-42.49,0.04-63.74c0-1.76,0.09-3.56,0.48-5.26
			c0.68-2.95,2.51-4.96,5.55-5.69c0.86-0.2,1.72-0.48,2.59-0.52c5.96-0.27,11.81,0.45,17.32,2.79c5.43,2.31,8.37,6.44,7.99,12.49
			c-0.25,3.97-0.74,7.92-1.14,11.88c-0.09,0.88-0.2,1.76-0.37,2.63c-1.36,6.81,4.07,10.39,8.74,10.98c1.66,0.21,2.89-0.41,3.72-1.82
			c1.31-2.2,1.85-4.66,2.13-7.16c0.37-3.22,0.54-6.47,0.86-9.7c0.67-6.7,4.98-12.05,11.33-13.83c1.82-0.51,3.78-0.69,5.68-0.7
			c3.87-0.02,7.63,0.8,11.23,2.2c5.63,2.19,8.11,5.83,8.12,11.87c0,2.21-0.23,4.42-0.79,7.04c-5.32,2.27-9.42,5.31-13.28,8.77
			c-7.29,6.52-12.91,14.43-18.84,22.1c-2.78,3.6-4.43,8.04-8.44,10.49c-1.45-0.95-4.61-1.04-6.47-0.98c-4.03,0.12-5.83,1.91-6,5.86
			c-0.06,1.28,0.2,3.74-0.03,5.5c-4.05,2.24-7.67,3.11-11.51,4.55c-4.78,1.79-9.52,1.58-13.69-1.88c-0.9-0.75-1.72-1.61-2.67-2.29
			C655.43,162.76,654.59,164.2,653.83,163.82z"/>
		<path class="st5" d="M898.44,149.99c0.32,1.67,2.18,3.72,3.96,4.58c2.26,1.08,4.56,2.09,6.85,3.12c3.9,1.76,7.86,3.41,11.7,5.3
			c3.73,1.83,7.11,4.22,9.98,7.27c4.76,5.04,6.69,11.05,5.99,17.89c-0.22,2.19-0.66,4.39-1.22,6.52
			c-2.22,8.33-7.28,14.36-14.94,18.29c-5.35,2.75-11.08,4.11-16.99,4.69c-6.78,0.66-13.57,0.73-20.31-0.58
			c-4.39-0.85-8.58-2.26-12.38-4.63c-5.18-3.23-9.15-7.52-10.86-13.5c-1.97-6.86-0.27-13.18,3.5-18.97
			c1.87-2.87,4.87-4.23,8.28-4.51c2.83-0.23,5.61,0.09,8.32,0.94c3.67,1.16,6.06,3.57,7.05,7.3c0.45,1.71,0.72,3.48,1.21,5.17
			c1.06,3.62,3.14,5.01,6.93,4.74c2.81-0.2,5.1-1.4,6.84-3.61c2.08-2.65,2.95-5.74,3.19-9.05c0.11-1.47-0.51-2.65-1.71-3.38
			c-1.38-0.84-2.83-1.61-4.35-2.14c-2.78-0.99-5.64-1.75-8.45-2.66c-2.67-0.87-5.37-1.66-7.94-2.77c-2.57-1.1-5.12-2.35-7.44-3.89
			c-9.49-6.29-13.77-17.73-10.86-28.7c0.89-3.35,2.59-6.3,5.04-8.73c1.45-1.45,4.01-3.24,5.97-4.31c1.44,1.96,1.7,4.22,2.7,5.98
			c2.75,4.82,5.38,9.71,8.19,14.49c2.21,3.75,5.33,6.15,9.99,5.76C897.27,150.54,898.33,149.41,898.44,149.99z"/>
		<path class="st4" d="M220.45,218.81c0.04-8.69-0.04-17.39,0.16-26.08c0.17-7.37,0.68-14.73,2.11-21.99
			c0.77-3.92,1.81-7.74,3.4-11.41c2.92-6.73,7.85-11.3,14.72-13.8c1.24-0.45,2.51-0.86,3.8-1.17c7.48-1.82,15.06-2.8,22.77-2.66
			c1.03,0.02,2.07,0.07,3.09,0.2c7.64,0.92,13.14,4.77,16.36,11.85c2.09,4.61,3.32,9.45,4.14,14.4c1.71,10.35,2.46,20.78,2.3,31.65
			c-2.4-0.16-4.35-1.02-6.36-1.22c-7.08-0.71-13.8,0.34-19.7,4.73c-4.04,3-7.6,6.51-11.07,10.14c-2.13,2.23-4.35,4.39-6.65,6.44
			c-0.83,0.74-1.9,1.65-3.07,1.59c-1.38-0.06-2.16-1.37-3.16-1.98c-4.86-2.94-9.95-4.29-15.6-2.51
			C225.32,217.74,222.86,218.21,220.45,218.81z M255.04,170.45c-4.63,1.34-6.51,4.7-6.75,9.24c-0.03,0.59-0.05,1.18-0.04,1.76
			c0.1,4.6,2.41,7.47,6.88,8.38c3.73,0.75,7.32-0.05,10.78-1.4c1.58-0.62,2.54-1.94,3-3.6c0.76-2.76,0.76-5.52,0.03-8.28
			c-1.01-3.82-3.5-6.06-7.47-6.42C259.58,169.95,257.66,170.2,255.04,170.45z"/>
		<path class="st3" d="M405.03,168.4c-1.13,3.18,0.94,6.21,3.53,7.78c1.64,0.99,3.33,1.91,4.98,2.88c1.27,0.75,2.54,1.5,3.78,2.29
			c8.08,5.09,12.28,12.51,12.99,21.95c0.18,2.34,0.23,4.72,0.07,7.06c-0.31,4.69-2.59,8.39-6.26,11.25
			c-3.55,2.77-7.64,4.41-12.01,5.38c-3.21,0.71-5.94-0.22-7.84-2.81c-1.38-1.88-2.58-3.98-3.38-6.16
			c-1.36-3.73-2.32-7.61-3.49-11.41c-0.86-2.82-1.68-5.65-2.72-8.4c-0.51-1.35-1.41-2.58-2.29-3.74c-0.73-0.98-1.83-1.44-3.1-1.41
			c-1.32,0.03-2.35,0.71-2.53,1.99c-0.19,1.31-0.32,2.66-0.2,3.96c0.45,4.69,0.99,9.38,1.54,14.06c0.31,2.64,0.68,5.27,1.11,7.88
			c0.53,3.16-0.44,5.79-2.55,8.12c-2.01,2.21-4.33,4.01-6.93,5.44c-4.33,2.38-8.98,3.71-13.9,4.08c-0.88,0.07-1.77,0.07-2.65-0.02
			c-3.47-0.34-5.41-1.89-6.22-5.28c-0.41-1.7-0.49-3.5-0.51-5.26c-0.05-5.46,0-10.92,0-16.38c-0.01-9.74-0.75-22.51,0.07-32.54
			c1.13-0.91,2.22,1.6,2.86,1.03c4.42-3.94,9.3-7.16,14.75-9.44c3.65-1.52,7.42-2.98,11.38-3.19
			C391.98,167.18,398.81,166.08,405.03,168.4z"/>
		<path class="st5" d="M220.47,218.53c2.5-1.01,4.84-0.78,7.21-1.53c5.65-1.77,10.74-0.43,15.6,2.51c1,0.61,1.84,1.28,3.22,1.34
			c1.16,0.05,2.18-0.22,3.01-0.96c2.3-2.05,4.52-4.21,6.65-6.44c3.47-3.63,7.03-7.13,11.07-10.14c5.91-4.39,12.62-5.44,19.7-4.73
			c2.01,0.2,4.08,0.66,6.4,1.22c0.59,4.87,0.84,10.14,0.93,15c0.18,9.31,0.25,18.62,0.25,27.92c0,2.2-0.27,4.42-0.67,6.58
			c-0.68,3.71-2.86,6.48-6.14,8.25c-4.62,2.49-9.61,3.81-14.87,3.83c-4.5,0.02-6.8-1.86-7.73-6.32c-0.42-2-0.46-4.1-0.58-6.15
			c-0.31-5.01-0.53-10.02-0.87-15.03c-0.09-1.31-0.39-2.64-0.81-3.88c-1.35-3.99-5.96-4.84-8.7-1.62c-0.56,0.65-1.02,1.49-1.24,2.31
			c-0.45,1.71-0.89,3.45-0.99,5.2c-0.26,4.57-0.32,9.15-0.48,13.73c-0.08,2.51-0.06,5.03-0.33,7.52c-0.55,5.03-3.29,8.46-8.08,10.12
			c-4.08,1.41-8.33,1.95-12.65,1.82c-1.02-0.03-2.05-0.28-3.05-0.51c-2.84-0.65-4.77-2.39-5.53-5.17c-0.5-1.83-0.83-3.76-0.87-5.66
			C220.65,245.04,220.59,231.64,220.47,218.53z"/>
		<path class="st6" d="M404.82,168.98c-6.41-2.09-12.85-1.8-19.28-1.47c-3.95,0.2-7.73,1.66-11.38,3.19
			c-5.45,2.28-10.34,5.51-14.75,9.44c-0.64,0.57-2.02,1.81-3.06,2.31c0.01-1.23,0.03-2.88,0.02-3.9c-0.14-12.7-0.29-25.4-0.34-38.1
			c-0.01-2.64,0.2-5.31,0.6-7.93c0.59-3.85,2.69-6.83,6.04-8.85c4.65-2.8,9.81-4.06,15.12-4.63c3.1-0.33,5.1,1.08,6.15,4
			c0.59,1.65,0.88,3.42,1.14,5.17c1.04,6.94,0.48,13.84-0.49,20.74c-0.33,2.34-0.64,4.69-0.71,7.05c-0.06,1.92-0.97,4.8,1.65,5.24
			c2.42,0.41,2.98-2.47,3.64-4.33c0.88-2.5,1.46-5.1,2.07-7.68c1.22-5.17,2.3-10.37,3.58-15.53c1.06-4.3,2.52-8.49,4.55-12.45
			c1.7-3.31,3.72-6.41,6.68-8.73c4.64-3.64,9.79-5.38,15.72-3.71c2.34,0.66,4.28,1.95,5.88,3.77c1.72,1.96,2.61,4.19,2.56,6.86
			c-0.17,7.98-2.11,15.46-5.89,22.48c-2.6,4.84-5.9,9.18-9.44,13.36c-2,2.37-4.03,4.71-6.01,7.1
			C407.29,164.32,405.81,166.33,404.82,168.98z"/>
		<path class="st4" d="M608.57,135.49c0.1-2.95,0.12-5.9,0.33-8.84c0.36-5.01,0.86-10.01,1.25-15.01c0.1-1.31,0.02-2.63,0.02-4.07
			c-1.67-1.13-3.63-1.05-5.5-1.23c-4.87-0.46-9.67-1.27-14.32-2.77c-2.23-0.72-4.47-1.62-6.48-2.81
			c-6.25-3.69-7.36-11.23-2.41-16.62c1.36-1.48,3.19-2.62,4.98-3.58c2.89-1.56,6.12-2.17,9.34-2.6c5.43-0.73,10.89-0.99,16.36-0.65
			c6.48,0.4,12.97,0.82,19.43,1.5c3.36,0.35,6.68,1.16,9.96,2c2.15,0.55,4.18,1.58,5.69,3.28c0.87,0.97,1.72,2.09,2.17,3.29
			c1.65,4.39,2,8.94,0.67,13.47c-1.14,3.9-4.1,6.06-7.87,7.07c-1.7,0.46-3.5,0.52-5.25,0.77c-0.56,0.08-1.12,0.21-1.95,0.37
			c0.2,1.28,0.29,2.42,0.56,3.52c1.69,7.03,3.47,14.04,5.09,21.09c0.76,3.3,1.54,8.98,1.82,12.68c-1.3-0.26-2.59-3.13-3.5-3.82
			c-1.05-0.79-1.91-1.86-3.02-2.51c-5.9-3.47-12.19-5.49-19.15-5.44C614,134.58,611.31,135.15,608.57,135.49z"/>
		<path class="st3" d="M695.85,152.15c3.79-2.67,6.31-6.54,9.08-10.13c5.93-7.67,11.55-15.59,18.84-22.1
			c3.86-3.45,8.19-7.48,13.36-9.37c0.14,4.96-0.12,10.94-0.41,15.93c-1.17,20.16-2.2,40.33-2.58,60.53
			c-0.04,2.05-0.21,4.14-0.67,6.13c-0.93,4.05-3.29,6.01-7.45,6.32c-4.16,0.31-8.24-0.16-12.19-1.57
			c-7.57-2.7-11.96-8.55-12.38-16.61c-0.26-5-0.39-10.02-0.73-15.02c-0.17-2.49-0.57-4.98-1.13-7.42
			C699.04,156.39,698.26,153.97,695.85,152.15z"/>
		<path class="st4" d="M297.99,203.71c-0.13-1.02-0.18-2.03-0.36-3.05c-2.33-13.22-0.43-26.85,0.53-40.26
			c0.32-4.4,0.98-8.79,1.74-13.14c1.4-8.01,6-12.94,14.26-14.07c1.46-0.2,2.92-0.43,4.39-0.48c4.99-0.16,8.43,2.24,10.48,6.68
			c1.25,2.71,1.81,5.6,1.94,8.58c0.24,5.19-0.17,10.32-1.42,15.37c-1.44,5.87-2.92,11.73-4.35,17.6c-0.95,3.88-1.57,7.81-1.67,11.8
			c-0.09,3.41,0.2,6.78,1.33,10.03c1.29,3.72,3.24,6.95,6.95,9.45c-2.22,5.55-6.59,7.6-11.72,8.38c-5.04,0.77-8.83-1.06-11.33-5.65
			c-1.11-2.04-2.56-3.93-4.05-5.72C302.85,206.98,300.86,204.78,297.99,203.71z"/>
		<path class="st1" d="M297.91,203.04c3.01,0.7,4.93,3.93,6.8,6.19c1.49,1.8,2.94,3.68,4.05,5.72c2.5,4.6,6.29,6.42,11.33,5.65
			c5.13-0.78,9.1-3.12,11.55-8.5c2.34,1.24,5.73,0.71,8.34-0.15c0.7-0.23,1.44-0.33,2.16-0.47c4.49-0.87,7.83,0.73,9.83,4.83
			c1.84,3.78,1.78,7.72,0.61,11.66c-1.56,5.25-4.6,9.6-8.79,13.04c-5.53,4.53-11.71,7.97-18.58,10.05c-1.82,0.55-3.74,0.96-5.63,1.1
			c-5.19,0.37-9.57-1.38-12.91-5.47c-1.89-2.31-3.2-4.94-4.24-7.73c-1.71-4.6-2.83-9.35-3.29-14.2
			C298.51,218.01,298.24,210.19,297.91,203.04z"/>
		<path class="st5" d="M608.58,134.87c2.85-0.7,5.42-0.28,8.23-0.31c6.96-0.05,13.25,1.97,19.15,5.44c1.11,0.66,1.98,1.72,3.02,2.51
			c0.91,0.69,1.92,1.25,3.22,1.91c2.09,7.57,2.05,15.22,1.77,22.87c-0.1,2.64-0.59,5.26-0.92,7.88c-0.07,0.58-0.21,1.16-0.37,1.73
			c-2.19,8.05-6.78,11.43-15.15,11.17c-9.87-0.31-14.78-4.13-17.57-13.63c-1.51-5.13-2.04-10.42-2.07-15.72
			C607.85,151.22,608.3,142.73,608.58,134.87z"/>
		<path class="st4" d="M898.56,150.26c-0.71,0.31-1.29,0.28-1.88,0.32c-4.67,0.39-7.78-2.01-9.99-5.76
			c-2.81-4.78-5.44-9.67-8.19-14.49c-1-1.76-2.13-3.44-3.27-5.5c2.55-2.59,5.74-3.79,8.95-4.78c13.31-4.12,26.39-3.39,39.15,2.23
			c4.2,1.85,8.04,4.35,11.17,7.73c1.68,1.82,3.24,3.82,4.52,5.94c1.97,3.24,1.4,7.75,0.67,11.7c-4.15,0.36-4.75-0.64-7.94-0.11
			c-0.55,0.09-3.47,0.66-4.06,0.66c-1.9,0.02-4.33-0.11-6.22,0.36c-2.52,0.64-5.18,0.75-7.78,1.08c-0.79-1.23-1.61-2.44-2.38-3.69
			c-1.75-2.85-4.44-3.05-7.36-2.64c-2.64,0.37-4.2,1.91-4.78,4.48C899.01,148.53,898.85,149.24,898.56,150.26z"/>
		<path class="st4" d="M811.85,108.48c-0.58,0.4-1.02,0.45-1.45,0.41c-5.89-0.44-11.57,0.62-17.26,2.07
			c-4.43,1.13-8.94,1.04-13.36-0.34c-1.66-0.52-3.62,0.44-5.61-0.19c0.2-5.85,0.16-12.2,0.32-17.51c0.11-3.54,0.28-7.09,0.57-10.62
			c0.16-1.9,0.46-3.82,0.98-5.65c0.98-3.44,3.35-5.48,6.91-6.05c1.16-0.19,2.35-0.41,3.52-0.36c5.63,0.25,11.16,1.1,16.46,3.12
			c5.98,2.28,9.31,6.55,9.64,13.01c0.07,1.33,0.18,2.66,0.13,3.98C812.5,96.28,812.23,102.18,811.85,108.48z"/>
		<path class="st1" d="M600.44,136.52c0.19,0.85,0.55,2.43,0.61,3.29c0.85,11.31,1.67,22.62,2.49,33.93
			c0.12,1.61,0.28,3.24,0.21,4.85c-0.2,4.5-2.3,7.12-6.56,8.33c-3.16,0.9-6.4,1.08-9.64,0.65c-4.22-0.55-6.24-2.51-6.98-6.76
			c-0.3-1.73-0.36-3.52-0.34-5.28c0.14-10.16,0.45-21.02,1.08-31.52c1.95-0.91,3.4-0.64,4.81-1.38
			C590.69,140.23,595.49,137.88,600.44,136.52z"/>
		<path class="st4" d="M864.21,112.91c-1.31-0.24-2.58-0.7-3.6-1.5c-4.34-3.39-9.21-5.71-14.44-7.28c-2.36-0.71-4.87-1.32-7.3-1.28
			c-2.27,0.03-4.54,0.96-6.79,1.54c-0.98,0.25-1.94,0.62-3.24,0.94c-0.09-5.13,0.12-10.26,0.42-15.4c0.06-1.01,0.39-2.01,0.66-3
			c1.09-3.96,3.77-6.18,7.72-6.96c0.86-0.17,1.75-0.26,2.63-0.29c5.04-0.18,9.99,0.5,14.82,1.87c6.02,1.71,9.47,5.66,9.88,12.03
			c0.09,1.32,0.23,2.65,0.17,3.96C864.93,102.55,864.63,107.54,864.21,112.91z"/>
		<path class="st1" d="M653.73,162.49c0.87-0.02,1.7,0.27,2.39,0.77c0.95,0.69,1.77,1.54,2.67,2.29c4.17,3.46,8.92,3.67,13.69,1.88
			c3.84-1.44,7.46-3.47,11.51-5.33c1.52,5.06,2.78,10.19,3.88,15.36c0.52,2.46,0.5,4.96-0.16,7.44c-0.82,3.07-2.68,5.25-5.61,6.36
			c-1.63,0.61-3.4,0.96-5.13,1.14c-3.99,0.41-7.93-0.06-11.82-0.96c-7.85-1.82-11.16-5.82-11.38-13.97
			C653.62,172.61,653.66,167.75,653.73,162.49z"/>
		<path class="st6" d="M597.64,125.69c-3.46,1.68-6.8,1.95-10.19,1.36c-4.54-0.79-7.06-3.9-7.2-8.65c-0.14-4.42,2.55-8.26,6.7-9.2
			c3.04-0.69,6.13-0.55,9.12,0.51c1.59,0.56,2.82,1.54,3.57,3.08c1.22,2.49,1.03,5.15,0.84,7.78
			C600.34,122.56,599.55,124.26,597.64,125.69z"/>
		<path class="st6" d="M600.54,136.94c-4.99,1.69-9.85,3.29-14.42,5.7c-1.4,0.74-2.97,1.16-4.8,1.73c-0.38-2.06-0.58-4.13-0.45-6.18
			c0.28-4.55,2.96-7.42,7.44-7.92c1.89-0.21,3.86-0.18,5.73,0.14C597.51,131,600.05,132.81,600.54,136.94z"/>
	</g>
	<g>
		<path class="st7" d="M78.94,93.41c0.76,0.96,1.58,1.8,2.45,2.57c0.77,0.69,1.58,1.32,2.42,1.89c0.81,0.56,1.64,1.07,2.49,1.54
			c0.78,0.43,1.57,0.82,2.36,1.21c0.61,0.3,1.23,0.58,1.85,0.85c0.44,0.19,0.89,0.34,1.34,0.5c0.52,0.18,1.04,0.35,1.55,0.53
			c0.12,0.04,0.25,0.08,0.38,0.11c0.52,0.13,1.04,0.25,1.56,0.38c0.09,0.02,0.18,0.06,0.26,0.11c0.13,0.09,0.15,0.24,0.03,0.36
			c-0.06,0.06-0.15,0.11-0.23,0.13c-0.17,0.04-0.34,0.04-0.51,0.08c-0.69,0.16-1.38,0.32-2.07,0.5c-0.84,0.22-1.67,0.54-2.48,0.86
			c-0.65,0.26-1.29,0.54-1.92,0.84c-0.72,0.34-1.44,0.71-2.15,1.08c-1.07,0.56-2.1,1.2-3.11,1.91c-1.07,0.75-2.09,1.6-3.04,2.55
			c-0.85,0.84-1.63,1.78-2.35,2.79c-0.7,0.99-1.32,2.06-1.85,3.19c-0.25,0.53-0.48,1.08-0.7,1.64c-0.25,0.63-0.48,1.26-0.71,1.9
			c-0.15,0.44-0.28,0.89-0.41,1.34c-0.16,0.55-0.3,1.1-0.45,1.66c-0.01,0.02-0.02,0.05-0.02,0.07c-0.13,0.64-0.27,1.28-0.39,1.92
			c-0.14,0.71-0.25,1.42-0.36,2.14c-0.13,0.82-0.21,1.64-0.29,2.47c-0.06,0.59-0.14,1.18-0.2,1.78c-0.05,0.47-0.07,0.95-0.11,1.43
			c-0.01,0.15-0.04,0.31-0.08,0.46c-0.03,0.11-0.08,0.23-0.14,0.32c-0.14,0.2-0.32,0.17-0.41-0.08c-0.05-0.13-0.06-0.28-0.08-0.43
			c-0.07-0.68-0.14-1.36-0.21-2.04c-0.02-0.22-0.02-0.43-0.05-0.65c-0.08-0.68-0.16-1.36-0.26-2.03c-0.13-0.88-0.28-1.75-0.44-2.62
			c-0.11-0.63-0.24-1.25-0.37-1.87c-0.11-0.52-0.22-1.04-0.35-1.56c-0.24-0.95-0.49-1.91-0.76-2.85c-0.4-1.39-0.9-2.72-1.49-4.01
			c-0.89-1.93-2.05-3.59-3.42-5.06c-1.14-1.22-2.36-2.29-3.66-3.25c-1.29-0.95-2.64-1.77-4.02-2.49c-1.22-0.64-2.47-1.18-3.75-1.62
			c-1.14-0.39-2.29-0.72-3.47-0.89c-0.4-0.06-0.79-0.16-1.19-0.23c-0.12-0.02-0.24-0.01-0.36-0.04c-0.09-0.02-0.18-0.06-0.25-0.12
			c-0.11-0.1-0.1-0.25,0.02-0.34c0.04-0.03,0.09-0.05,0.14-0.06c0.1-0.02,0.2-0.03,0.3-0.04c0.8-0.04,1.59-0.12,2.38-0.29
			c0.66-0.14,1.31-0.31,1.96-0.48c0.49-0.13,0.97-0.31,1.46-0.47c0.39-0.14,0.78-0.28,1.17-0.44c0.68-0.29,1.37-0.58,2.04-0.9
			c0.56-0.26,1.11-0.54,1.65-0.84c0.6-0.33,1.2-0.68,1.78-1.06c0.75-0.5,1.48-1.03,2.2-1.59c1.18-0.92,2.28-1.97,3.26-3.19
			c0.86-1.08,1.6-2.27,2.21-3.58c0.54-1.16,1-2.36,1.39-3.61c0.32-1.01,0.61-2.02,0.85-3.06c0.25-1.05,0.51-2.1,0.74-3.15
			c0.16-0.73,0.27-1.47,0.39-2.21c0.09-0.54,0.19-1.09,0.26-1.63c0.1-0.7,0.18-1.41,0.26-2.11c0.05-0.44,0.07-0.88,0.11-1.32
			c0.01-0.11,0.02-0.23,0.06-0.33c0.03-0.1,0.09-0.2,0.15-0.27c0.14-0.14,0.31-0.1,0.4,0.09c0.04,0.1,0.07,0.21,0.08,0.32
			c0.05,0.55,0.08,1.11,0.12,1.66c0.07,0.88,0.13,1.76,0.22,2.64c0.05,0.51,0.14,1.01,0.19,1.52c0.04,0.48,0.1,0.95,0.2,1.41
			c0.03,0.12,0.04,0.24,0.05,0.36c0.04,0.42,0.11,0.84,0.22,1.24c0.03,0.11,0.04,0.24,0.07,0.36c0.06,0.29,0.12,0.57,0.18,0.86
			c0.01,0.04,0.02,0.08,0.03,0.12c0.12,0.53,0.24,1.07,0.37,1.6c0.12,0.46,0.27,0.92,0.41,1.37c0.1,0.33,0.22,0.66,0.33,0.99
			c0.23,0.72,0.5,1.42,0.81,2.1c0.29,0.64,0.59,1.27,0.9,1.89c0.37,0.73,0.8,1.42,1.27,2.07C78.39,92.68,78.66,93.04,78.94,93.41z"
			/>
	</g>
	<g>
		<path class="st7" d="M103.38,117.51c0.35,0.5,0.73,0.94,1.13,1.34c0.36,0.36,0.73,0.69,1.12,0.98c0.38,0.29,0.76,0.56,1.15,0.8
			c0.36,0.22,0.72,0.43,1.09,0.63c0.28,0.16,0.57,0.3,0.86,0.44c0.2,0.1,0.41,0.18,0.62,0.26c0.24,0.09,0.48,0.18,0.72,0.27
			c0.06,0.02,0.12,0.04,0.17,0.06c0.24,0.07,0.48,0.13,0.72,0.2c0.04,0.01,0.08,0.03,0.12,0.06c0.06,0.05,0.07,0.13,0.01,0.19
			c-0.03,0.03-0.07,0.06-0.1,0.07c-0.08,0.02-0.16,0.02-0.24,0.04c-0.32,0.08-0.64,0.17-0.96,0.26c-0.39,0.12-0.77,0.28-1.15,0.45
			c-0.3,0.13-0.6,0.28-0.89,0.44c-0.33,0.18-0.66,0.37-0.99,0.56c-0.49,0.29-0.97,0.62-1.44,0.99c-0.49,0.39-0.96,0.83-1.41,1.33
			c-0.39,0.44-0.75,0.92-1.09,1.45c-0.33,0.52-0.61,1.07-0.86,1.66c-0.12,0.28-0.22,0.56-0.32,0.85c-0.11,0.33-0.22,0.65-0.33,0.99
			c-0.07,0.23-0.13,0.46-0.19,0.7c-0.07,0.29-0.14,0.57-0.21,0.86c0,0.01-0.01,0.03-0.01,0.04c-0.06,0.33-0.13,0.66-0.18,1
			c-0.06,0.37-0.12,0.74-0.17,1.11c-0.06,0.43-0.1,0.86-0.14,1.29c-0.03,0.31-0.07,0.62-0.09,0.93c-0.02,0.25-0.03,0.49-0.05,0.74
			c-0.01,0.08-0.02,0.16-0.04,0.24c-0.01,0.06-0.04,0.12-0.07,0.16c-0.06,0.1-0.15,0.09-0.19-0.04c-0.02-0.07-0.03-0.15-0.04-0.22
			c-0.03-0.35-0.07-0.71-0.1-1.06c-0.01-0.11-0.01-0.23-0.02-0.34c-0.04-0.35-0.07-0.71-0.12-1.06c-0.06-0.46-0.13-0.91-0.2-1.37
			c-0.05-0.33-0.11-0.65-0.17-0.97c-0.05-0.27-0.1-0.54-0.16-0.81c-0.11-0.5-0.22-0.99-0.35-1.48c-0.19-0.72-0.41-1.42-0.69-2.09
			c-0.41-1.01-0.95-1.87-1.58-2.63c-0.53-0.63-1.09-1.19-1.69-1.69c-0.6-0.5-1.22-0.92-1.86-1.29c-0.57-0.33-1.14-0.61-1.74-0.84
			c-0.53-0.2-1.06-0.37-1.61-0.46c-0.18-0.03-0.37-0.08-0.55-0.12c-0.06-0.01-0.11-0.01-0.17-0.02c-0.04-0.01-0.08-0.03-0.12-0.06
			c-0.05-0.05-0.05-0.13,0.01-0.18c0.02-0.02,0.04-0.03,0.07-0.03c0.05-0.01,0.09-0.02,0.14-0.02c0.37-0.02,0.73-0.06,1.1-0.15
			c0.3-0.07,0.61-0.16,0.91-0.25c0.23-0.07,0.45-0.16,0.67-0.25c0.18-0.07,0.36-0.15,0.54-0.23c0.32-0.15,0.63-0.3,0.95-0.47
			c0.26-0.13,0.51-0.28,0.76-0.44c0.28-0.17,0.55-0.35,0.82-0.55c0.35-0.26,0.69-0.54,1.02-0.83c0.55-0.48,1.05-1.02,1.51-1.66
			c0.4-0.56,0.74-1.18,1.02-1.86c0.25-0.6,0.46-1.23,0.64-1.88c0.15-0.52,0.28-1.05,0.39-1.59c0.11-0.55,0.24-1.09,0.34-1.64
			c0.07-0.38,0.12-0.77,0.18-1.15c0.04-0.28,0.09-0.57,0.12-0.85c0.04-0.37,0.08-0.73,0.12-1.1c0.02-0.23,0.03-0.46,0.05-0.69
			c0-0.06,0.01-0.12,0.03-0.17c0.02-0.05,0.04-0.11,0.07-0.14c0.06-0.07,0.15-0.05,0.19,0.05c0.02,0.05,0.03,0.11,0.04,0.17
			c0.02,0.29,0.04,0.58,0.06,0.86c0.03,0.46,0.06,0.92,0.1,1.37c0.02,0.26,0.07,0.53,0.09,0.79c0.02,0.25,0.05,0.49,0.09,0.73
			c0.01,0.06,0.02,0.12,0.03,0.19c0.02,0.22,0.05,0.44,0.1,0.65c0.02,0.06,0.02,0.12,0.03,0.18c0.03,0.15,0.06,0.3,0.08,0.45
			c0,0.02,0.01,0.04,0.02,0.06c0.06,0.28,0.11,0.56,0.17,0.83c0.06,0.24,0.12,0.48,0.19,0.71c0.05,0.17,0.1,0.34,0.15,0.51
			c0.11,0.37,0.23,0.74,0.37,1.09c0.13,0.33,0.27,0.66,0.42,0.99c0.17,0.38,0.37,0.74,0.59,1.08
			C103.12,117.14,103.25,117.32,103.38,117.51z"/>
	</g>
	<g>
		<path class="st7" d="M63.31,147.36c0.29,0.37,0.61,0.69,0.94,0.99c0.3,0.27,0.61,0.51,0.93,0.73c0.31,0.21,0.63,0.41,0.96,0.59
			c0.3,0.17,0.6,0.32,0.91,0.47c0.24,0.12,0.47,0.22,0.71,0.33c0.17,0.07,0.34,0.13,0.51,0.19c0.2,0.07,0.4,0.14,0.6,0.2
			c0.05,0.02,0.1,0.03,0.14,0.04c0.2,0.05,0.4,0.1,0.6,0.15c0.03,0.01,0.07,0.02,0.1,0.04c0.05,0.04,0.06,0.09,0.01,0.14
			c-0.02,0.02-0.06,0.04-0.09,0.05c-0.06,0.01-0.13,0.01-0.2,0.03c-0.27,0.06-0.53,0.12-0.8,0.19c-0.32,0.09-0.64,0.21-0.95,0.33
			c-0.25,0.1-0.5,0.21-0.74,0.32c-0.28,0.13-0.55,0.27-0.83,0.42c-0.41,0.22-0.81,0.46-1.2,0.73c-0.41,0.29-0.8,0.62-1.17,0.98
			c-0.33,0.32-0.63,0.68-0.9,1.07c-0.27,0.38-0.51,0.79-0.71,1.23c-0.1,0.21-0.19,0.42-0.27,0.63c-0.1,0.24-0.19,0.48-0.27,0.73
			c-0.06,0.17-0.11,0.34-0.16,0.52c-0.06,0.21-0.12,0.42-0.17,0.64c0,0.01-0.01,0.02-0.01,0.03c-0.05,0.25-0.1,0.49-0.15,0.74
			c-0.05,0.27-0.1,0.55-0.14,0.82c-0.05,0.32-0.08,0.63-0.11,0.95c-0.02,0.23-0.05,0.46-0.08,0.68c-0.02,0.18-0.03,0.37-0.04,0.55
			c0,0.06-0.01,0.12-0.03,0.18c-0.01,0.04-0.03,0.09-0.05,0.12c-0.05,0.08-0.12,0.06-0.16-0.03c-0.02-0.05-0.02-0.11-0.03-0.16
			c-0.03-0.26-0.05-0.52-0.08-0.79c-0.01-0.08-0.01-0.17-0.02-0.25c-0.03-0.26-0.06-0.52-0.1-0.78c-0.05-0.34-0.11-0.67-0.17-1.01
			c-0.04-0.24-0.09-0.48-0.14-0.72c-0.04-0.2-0.08-0.4-0.13-0.6c-0.09-0.37-0.19-0.73-0.29-1.1c-0.16-0.53-0.34-1.05-0.57-1.54
			c-0.34-0.74-0.79-1.38-1.31-1.95c-0.44-0.47-0.91-0.88-1.41-1.25c-0.5-0.37-1.01-0.68-1.55-0.96c-0.47-0.24-0.95-0.45-1.44-0.62
			c-0.44-0.15-0.88-0.28-1.34-0.34c-0.15-0.02-0.31-0.06-0.46-0.09c-0.05-0.01-0.09,0-0.14-0.02c-0.03-0.01-0.07-0.02-0.1-0.05
			c-0.04-0.04-0.04-0.1,0.01-0.13c0.02-0.01,0.04-0.02,0.05-0.02c0.04-0.01,0.08-0.01,0.12-0.01c0.31-0.01,0.61-0.05,0.91-0.11
			c0.25-0.05,0.5-0.12,0.75-0.18c0.19-0.05,0.37-0.12,0.56-0.18c0.15-0.05,0.3-0.11,0.45-0.17c0.26-0.11,0.53-0.22,0.79-0.35
			c0.21-0.1,0.43-0.21,0.63-0.32c0.23-0.13,0.46-0.26,0.68-0.41c0.29-0.19,0.57-0.4,0.85-0.61c0.45-0.35,0.88-0.76,1.25-1.23
			c0.33-0.42,0.62-0.87,0.85-1.38c0.21-0.45,0.38-0.91,0.53-1.39c0.12-0.39,0.23-0.78,0.33-1.18c0.1-0.4,0.2-0.81,0.28-1.21
			c0.06-0.28,0.1-0.57,0.15-0.85c0.04-0.21,0.07-0.42,0.1-0.63c0.04-0.27,0.07-0.54,0.1-0.81c0.02-0.17,0.03-0.34,0.04-0.51
			c0-0.04,0.01-0.09,0.02-0.13c0.01-0.04,0.03-0.08,0.06-0.1c0.05-0.06,0.12-0.04,0.15,0.04c0.02,0.04,0.03,0.08,0.03,0.12
			c0.02,0.21,0.03,0.43,0.05,0.64c0.03,0.34,0.05,0.68,0.08,1.02c0.02,0.2,0.05,0.39,0.07,0.58c0.02,0.18,0.04,0.36,0.08,0.54
			c0.01,0.04,0.02,0.09,0.02,0.14c0.02,0.16,0.04,0.32,0.09,0.48c0.01,0.04,0.02,0.09,0.03,0.14c0.02,0.11,0.05,0.22,0.07,0.33
			c0,0.02,0.01,0.03,0.01,0.05c0.05,0.21,0.09,0.41,0.14,0.62c0.05,0.18,0.1,0.35,0.16,0.53c0.04,0.13,0.09,0.25,0.13,0.38
			c0.09,0.28,0.19,0.55,0.31,0.81c0.11,0.25,0.22,0.49,0.35,0.73c0.14,0.28,0.31,0.54,0.49,0.8
			C63.1,147.07,63.2,147.21,63.31,147.36z"/>
	</g>
	<g>
		<path class="st7" d="M950.7,113.86c0.51,0.65,1.07,1.22,1.66,1.74c0.52,0.47,1.07,0.89,1.64,1.28c0.55,0.38,1.11,0.73,1.69,1.05
			c0.53,0.29,1.06,0.56,1.6,0.82c0.41,0.2,0.83,0.39,1.26,0.57c0.3,0.13,0.6,0.23,0.91,0.34c0.35,0.12,0.7,0.24,1.05,0.36
			c0.08,0.03,0.17,0.05,0.26,0.07c0.35,0.09,0.71,0.17,1.06,0.26c0.06,0.02,0.12,0.04,0.18,0.08c0.09,0.06,0.1,0.16,0.02,0.25
			c-0.04,0.04-0.1,0.08-0.15,0.09c-0.11,0.03-0.23,0.03-0.35,0.05c-0.47,0.11-0.94,0.22-1.4,0.34c-0.57,0.15-1.13,0.36-1.68,0.58
			c-0.44,0.18-0.87,0.37-1.3,0.57c-0.49,0.23-0.97,0.48-1.46,0.73c-0.72,0.38-1.43,0.81-2.11,1.29c-0.72,0.51-1.41,1.08-2.06,1.73
			c-0.58,0.57-1.11,1.2-1.59,1.89c-0.48,0.67-0.89,1.4-1.26,2.16c-0.17,0.36-0.33,0.74-0.48,1.11c-0.17,0.42-0.33,0.85-0.48,1.29
			c-0.1,0.3-0.19,0.6-0.28,0.91c-0.11,0.37-0.2,0.75-0.3,1.12c0,0.02-0.01,0.03-0.01,0.05c-0.09,0.43-0.18,0.86-0.27,1.3
			c-0.09,0.48-0.17,0.96-0.24,1.45c-0.08,0.56-0.14,1.11-0.2,1.68c-0.04,0.4-0.1,0.8-0.14,1.21c-0.03,0.32-0.05,0.64-0.07,0.97
			c-0.01,0.1-0.03,0.21-0.05,0.31c-0.02,0.08-0.05,0.15-0.1,0.21c-0.09,0.13-0.22,0.11-0.28-0.05c-0.03-0.09-0.04-0.19-0.05-0.29
			c-0.05-0.46-0.1-0.92-0.14-1.38c-0.01-0.15-0.02-0.29-0.03-0.44c-0.06-0.46-0.11-0.92-0.18-1.38c-0.09-0.6-0.19-1.19-0.3-1.78
			c-0.08-0.43-0.16-0.85-0.25-1.27c-0.07-0.35-0.15-0.71-0.24-1.06c-0.17-0.65-0.33-1.29-0.51-1.93c-0.27-0.94-0.61-1.85-1.01-2.72
			c-0.6-1.31-1.39-2.44-2.32-3.43c-0.77-0.83-1.6-1.55-2.48-2.2c-0.87-0.65-1.79-1.2-2.73-1.69c-0.83-0.43-1.68-0.8-2.54-1.1
			c-0.77-0.26-1.55-0.49-2.35-0.6c-0.27-0.04-0.54-0.11-0.81-0.16c-0.08-0.02-0.17-0.01-0.25-0.03c-0.06-0.01-0.12-0.04-0.17-0.08
			c-0.08-0.07-0.07-0.17,0.02-0.23c0.03-0.02,0.06-0.03,0.1-0.04c0.07-0.01,0.14-0.02,0.2-0.03c0.54-0.03,1.08-0.08,1.61-0.2
			c0.45-0.1,0.89-0.21,1.33-0.32c0.33-0.09,0.66-0.21,0.99-0.32c0.27-0.09,0.53-0.19,0.79-0.3c0.46-0.2,0.93-0.39,1.39-0.61
			c0.38-0.18,0.75-0.36,1.12-0.57c0.41-0.23,0.81-0.46,1.2-0.72c0.51-0.34,1-0.7,1.49-1.08c0.8-0.62,1.54-1.33,2.21-2.16
			c0.58-0.73,1.09-1.54,1.5-2.43c0.37-0.79,0.68-1.6,0.94-2.44c0.22-0.68,0.41-1.37,0.58-2.07c0.17-0.71,0.35-1.42,0.5-2.14
			c0.11-0.49,0.18-1,0.27-1.5c0.06-0.37,0.13-0.74,0.18-1.11c0.07-0.48,0.12-0.95,0.17-1.43c0.03-0.3,0.05-0.6,0.08-0.89
			c0.01-0.08,0.02-0.15,0.04-0.22c0.02-0.07,0.06-0.14,0.1-0.18c0.09-0.1,0.21-0.07,0.27,0.06c0.03,0.07,0.05,0.14,0.05,0.22
			c0.03,0.37,0.05,0.75,0.08,1.12c0.05,0.6,0.09,1.19,0.15,1.79c0.03,0.34,0.1,0.68,0.13,1.03c0.03,0.32,0.07,0.64,0.14,0.95
			c0.02,0.08,0.03,0.16,0.04,0.24c0.03,0.29,0.07,0.57,0.15,0.84c0.02,0.08,0.03,0.16,0.04,0.24c0.04,0.19,0.08,0.39,0.12,0.58
			c0.01,0.03,0.02,0.06,0.02,0.08c0.08,0.36,0.16,0.73,0.25,1.09c0.08,0.31,0.18,0.62,0.28,0.93c0.07,0.23,0.15,0.45,0.22,0.67
			c0.16,0.49,0.34,0.96,0.55,1.42c0.2,0.43,0.4,0.86,0.61,1.28c0.25,0.5,0.55,0.96,0.86,1.4
			C950.33,113.37,950.51,113.61,950.7,113.86z"/>
	</g>
	<g>
		<path class="st7" d="M967.27,130.2c0.24,0.34,0.5,0.63,0.77,0.91c0.24,0.24,0.5,0.46,0.76,0.67c0.25,0.2,0.51,0.38,0.78,0.54
			c0.24,0.15,0.49,0.29,0.74,0.43c0.19,0.11,0.39,0.21,0.58,0.3c0.14,0.07,0.28,0.12,0.42,0.18c0.16,0.06,0.32,0.12,0.49,0.19
			c0.04,0.01,0.08,0.03,0.12,0.04c0.16,0.04,0.33,0.09,0.49,0.13c0.03,0.01,0.06,0.02,0.08,0.04c0.04,0.03,0.05,0.09,0.01,0.13
			c-0.02,0.02-0.05,0.04-0.07,0.05c-0.05,0.01-0.11,0.01-0.16,0.03c-0.22,0.06-0.43,0.11-0.65,0.18c-0.26,0.08-0.52,0.19-0.78,0.3
			c-0.2,0.09-0.4,0.19-0.6,0.3c-0.23,0.12-0.45,0.25-0.67,0.38c-0.33,0.2-0.66,0.42-0.97,0.67c-0.34,0.27-0.65,0.56-0.95,0.9
			c-0.27,0.3-0.51,0.63-0.74,0.98c-0.22,0.35-0.41,0.73-0.58,1.13c-0.08,0.19-0.15,0.38-0.22,0.58c-0.08,0.22-0.15,0.44-0.22,0.67
			c-0.05,0.15-0.09,0.31-0.13,0.47c-0.05,0.19-0.09,0.39-0.14,0.58c0,0.01-0.01,0.02-0.01,0.03c-0.04,0.23-0.09,0.45-0.12,0.68
			c-0.04,0.25-0.08,0.5-0.11,0.76c-0.04,0.29-0.07,0.58-0.09,0.87c-0.02,0.21-0.04,0.42-0.06,0.63c-0.01,0.17-0.02,0.34-0.03,0.5
			c0,0.05-0.01,0.11-0.02,0.16c-0.01,0.04-0.02,0.08-0.04,0.11c-0.04,0.07-0.1,0.06-0.13-0.03c-0.01-0.05-0.02-0.1-0.03-0.15
			c-0.02-0.24-0.04-0.48-0.07-0.72c-0.01-0.08-0.01-0.15-0.02-0.23c-0.03-0.24-0.05-0.48-0.08-0.72c-0.04-0.31-0.09-0.62-0.14-0.93
			c-0.04-0.22-0.08-0.44-0.12-0.66c-0.03-0.18-0.07-0.37-0.11-0.55c-0.08-0.34-0.15-0.67-0.24-1c-0.13-0.49-0.28-0.96-0.47-1.41
			c-0.28-0.68-0.64-1.27-1.07-1.78c-0.36-0.43-0.74-0.81-1.15-1.15c-0.4-0.34-0.83-0.62-1.26-0.88c-0.38-0.22-0.78-0.42-1.18-0.57
			c-0.36-0.14-0.72-0.25-1.09-0.31c-0.12-0.02-0.25-0.06-0.37-0.08c-0.04-0.01-0.08,0-0.11-0.01c-0.03-0.01-0.06-0.02-0.08-0.04
			c-0.04-0.04-0.03-0.09,0.01-0.12c0.01-0.01,0.03-0.02,0.04-0.02c0.03-0.01,0.06-0.01,0.09-0.01c0.25-0.01,0.5-0.04,0.74-0.1
			c0.21-0.05,0.41-0.11,0.62-0.17c0.15-0.05,0.3-0.11,0.46-0.17c0.12-0.05,0.25-0.1,0.37-0.16c0.21-0.1,0.43-0.21,0.64-0.32
			c0.17-0.09,0.35-0.19,0.52-0.29c0.19-0.12,0.38-0.24,0.56-0.38c0.23-0.18,0.46-0.36,0.69-0.56c0.37-0.32,0.71-0.69,1.02-1.13
			c0.27-0.38,0.5-0.8,0.69-1.26c0.17-0.41,0.31-0.83,0.44-1.27c0.1-0.35,0.19-0.71,0.27-1.08c0.08-0.37,0.16-0.74,0.23-1.11
			c0.05-0.26,0.08-0.52,0.12-0.78c0.03-0.19,0.06-0.38,0.08-0.58c0.03-0.25,0.06-0.5,0.08-0.74c0.02-0.15,0.02-0.31,0.04-0.47
			c0-0.04,0.01-0.08,0.02-0.12c0.01-0.04,0.03-0.07,0.05-0.1c0.04-0.05,0.1-0.04,0.13,0.03c0.01,0.03,0.02,0.07,0.02,0.11
			c0.01,0.19,0.03,0.39,0.04,0.59c0.02,0.31,0.04,0.62,0.07,0.93c0.02,0.18,0.04,0.36,0.06,0.54c0.01,0.17,0.03,0.33,0.06,0.5
			c0.01,0.04,0.01,0.08,0.02,0.13c0.01,0.15,0.03,0.3,0.07,0.44c0.01,0.04,0.01,0.08,0.02,0.13c0.02,0.1,0.04,0.2,0.06,0.3
			c0,0.01,0.01,0.03,0.01,0.04c0.04,0.19,0.07,0.38,0.12,0.56c0.04,0.16,0.08,0.32,0.13,0.48c0.03,0.12,0.07,0.23,0.1,0.35
			c0.07,0.25,0.16,0.5,0.25,0.74c0.09,0.22,0.18,0.45,0.28,0.67c0.12,0.26,0.25,0.5,0.4,0.73
			C967.09,129.94,967.18,130.07,967.27,130.2z"/>
	</g>
	<g>
		<path class="st7" d="M940.11,150.42c0.2,0.25,0.41,0.47,0.64,0.67c0.2,0.18,0.41,0.34,0.63,0.49c0.21,0.15,0.43,0.28,0.65,0.4
			c0.2,0.11,0.41,0.21,0.61,0.32c0.16,0.08,0.32,0.15,0.48,0.22c0.11,0.05,0.23,0.09,0.35,0.13c0.13,0.05,0.27,0.09,0.41,0.14
			c0.03,0.01,0.07,0.02,0.1,0.03c0.14,0.03,0.27,0.07,0.41,0.1c0.02,0.01,0.05,0.01,0.07,0.03c0.03,0.02,0.04,0.06,0.01,0.09
			c-0.02,0.02-0.04,0.03-0.06,0.03c-0.04,0.01-0.09,0.01-0.13,0.02c-0.18,0.04-0.36,0.08-0.54,0.13c-0.22,0.06-0.43,0.14-0.65,0.22
			c-0.17,0.07-0.34,0.14-0.5,0.22c-0.19,0.09-0.37,0.18-0.56,0.28c-0.28,0.15-0.55,0.31-0.81,0.5c-0.28,0.2-0.54,0.42-0.79,0.66
			c-0.22,0.22-0.43,0.46-0.61,0.73c-0.18,0.26-0.34,0.54-0.48,0.83c-0.07,0.14-0.13,0.28-0.18,0.43c-0.06,0.16-0.13,0.33-0.18,0.49
			c-0.04,0.11-0.07,0.23-0.11,0.35c-0.04,0.14-0.08,0.29-0.12,0.43c0,0.01,0,0.01-0.01,0.02c-0.03,0.17-0.07,0.33-0.1,0.5
			c-0.04,0.18-0.07,0.37-0.09,0.56c-0.03,0.21-0.06,0.43-0.08,0.64c-0.02,0.15-0.04,0.31-0.05,0.46c-0.01,0.12-0.02,0.25-0.03,0.37
			c0,0.04-0.01,0.08-0.02,0.12c-0.01,0.03-0.02,0.06-0.04,0.08c-0.04,0.05-0.08,0.04-0.11-0.02c-0.01-0.03-0.02-0.07-0.02-0.11
			c-0.02-0.18-0.04-0.35-0.05-0.53c-0.01-0.06-0.01-0.11-0.01-0.17c-0.02-0.18-0.04-0.35-0.07-0.53c-0.03-0.23-0.07-0.46-0.11-0.68
			c-0.03-0.16-0.06-0.33-0.1-0.49c-0.03-0.14-0.06-0.27-0.09-0.41c-0.06-0.25-0.13-0.5-0.2-0.74c-0.11-0.36-0.23-0.71-0.39-1.05
			c-0.23-0.5-0.53-0.94-0.89-1.32c-0.3-0.32-0.62-0.6-0.95-0.85c-0.34-0.25-0.69-0.46-1.05-0.65c-0.32-0.17-0.64-0.31-0.98-0.42
			c-0.3-0.1-0.6-0.19-0.9-0.23c-0.1-0.02-0.21-0.04-0.31-0.06c-0.03-0.01-0.06,0-0.09-0.01c-0.02-0.01-0.05-0.01-0.07-0.03
			c-0.03-0.03-0.03-0.06,0.01-0.09c0.01-0.01,0.02-0.01,0.04-0.02c0.03,0,0.05-0.01,0.08-0.01c0.21-0.01,0.41-0.03,0.62-0.08
			c0.17-0.04,0.34-0.08,0.51-0.12c0.13-0.03,0.25-0.08,0.38-0.12c0.1-0.04,0.2-0.07,0.3-0.12c0.18-0.08,0.36-0.15,0.53-0.23
			c0.14-0.07,0.29-0.14,0.43-0.22c0.16-0.09,0.31-0.18,0.46-0.28c0.19-0.13,0.39-0.27,0.57-0.41c0.31-0.24,0.59-0.51,0.85-0.83
			c0.22-0.28,0.42-0.59,0.58-0.93c0.14-0.3,0.26-0.62,0.36-0.94c0.08-0.26,0.16-0.53,0.22-0.8c0.06-0.27,0.13-0.55,0.19-0.82
			c0.04-0.19,0.07-0.38,0.1-0.58c0.02-0.14,0.05-0.28,0.07-0.43c0.03-0.18,0.05-0.37,0.07-0.55c0.01-0.11,0.02-0.23,0.03-0.34
			c0-0.03,0.01-0.06,0.02-0.09c0.01-0.03,0.02-0.05,0.04-0.07c0.04-0.04,0.08-0.03,0.1,0.02c0.01,0.03,0.02,0.06,0.02,0.08
			c0.01,0.14,0.02,0.29,0.03,0.43c0.02,0.23,0.03,0.46,0.06,0.69c0.01,0.13,0.04,0.26,0.05,0.4c0.01,0.12,0.03,0.25,0.05,0.37
			c0.01,0.03,0.01,0.06,0.01,0.09c0.01,0.11,0.03,0.22,0.06,0.32c0.01,0.03,0.01,0.06,0.02,0.09c0.02,0.07,0.03,0.15,0.05,0.22
			c0,0.01,0.01,0.02,0.01,0.03c0.03,0.14,0.06,0.28,0.1,0.42c0.03,0.12,0.07,0.24,0.11,0.36c0.03,0.09,0.06,0.17,0.09,0.26
			c0.06,0.19,0.13,0.37,0.21,0.55c0.08,0.17,0.15,0.33,0.23,0.49c0.1,0.19,0.21,0.37,0.33,0.54
			C939.96,150.23,940.03,150.33,940.11,150.42z"/>
	</g>
</g>
</svg>
