<?xml version="1.0" encoding="utf-8"?>
<!-- Generator: Adobe Illustrator 26.4.1, SVG Export Plug-In . SVG Version: 6.00 Build 0)  -->
<svg version="1.1" id="Hands" xmlns="http://www.w3.org/2000/svg" xmlns:xlink="http://www.w3.org/1999/xlink" x="0px" y="0px"
	 viewBox="0 0 1080 1080" style="enable-background:new 0 0 1080 1080;" xml:space="preserve">
<style type="text/css">
	.st0{clip-path:url(#SVGID_00000175324849189593122230000001154447879817768337_);fill:#0081DD;}
	.st1{clip-path:url(#SVGID_00000175324849189593122230000001154447879817768337_);fill:#008EF1;}
	.st2{clip-path:url(#SVGID_00000175324849189593122230000001154447879817768337_);fill:#30AC5E;}
	.st3{clip-path:url(#SVGID_00000175324849189593122230000001154447879817768337_);fill:#40D97A;}
	.st4{clip-path:url(#SVGID_00000175324849189593122230000001154447879817768337_);}
	.st5{clip-path:url(#SVGID_00000175324849189593122230000001154447879817768337_);fill:#6FC0F4;}
	.st6{clip-path:url(#SVGID_00000175324849189593122230000001154447879817768337_);fill:#9DFBBA;}

</style>
<g>
	<defs>
		<rect id="SVGID_1_" x="-123.51" y="-183.23" width="1291.91" height="732.01"/>
	</defs>
	<clipPath id="SVGID_00000067951853464617555760000008603684890030724537_">
		<use xlink:href="#SVGID_1_"  style="overflow:visible;"/>
	</clipPath>
	<path style="clip-path:url(#SVGID_00000067951853464617555760000008603684890030724537_);fill:#0081DD;" d="M573.98,506.77
		c-0.41-0.19-0.45-0.45-0.22-0.78c-0.48-0.22-0.83-0.69-1.19-1.07c-0.83-1-1.45-2.15-2.06-3.3c-1.33-2.6-2.6-5.26-3.51-8.04
		c-2.83-8.32-3.21-17.26-2.09-25.93c0.77-6.98,2.19-13.88,4.12-20.63c3.75-13.79,9.76-26.88,16.97-39.19
		c6.83-11.69,14.69-22.79,23.34-33.21c14.74-17.83,32-33.38,49.95-47.91c24.43-19.53,49.92-37.8,76.61-54.13
		c11.54-7.1,23.86-12.81,35.59-19.58c7-4.1,13.66-8.75,20.15-13.61c12.36-9.32,24.26-19.25,36.15-29.17c-1.18,0.37-2.36,0.73-3.56,1
		c-0.18-0.02-0.33-0.15-0.38-0.32c-0.06-0.22,0.06-0.45,0.26-0.53c2.15-0.57,4.27-1.3,6.42-1.89c8.14-2.23,16.21-4.74,24.08-7.81
		c22.82-8.61,42.51-21.33,59.39-38.35c2.05-3.56,3.7-7.29,5.58-10.93c4.1-7.87,8.25-15.73,12.09-23.71
		c6.97-14.57,15.78-28.2,22.54-42.88c3.82-8.39,6.25-17.24,9.19-25.93c2.1-5.89,4.3-11.77,7.12-17.36
		c6.61-12.82,15.28-24.51,24.58-35.5c4.34-5.11,8.8-10.12,13.57-14.83c6.77-6.71,14.45-12.39,22.37-17.64
		c15.03-9.99,29.64-20.85,42.1-33.97c4.63-4.88,8.93-10.1,12.54-15.79c4.61-7.29,8.12-15.18,12.01-22.85
		c3.52-7.04,7.53-13.84,12.27-20.14c4.55-6.23,9.29-12.32,14.75-17.75c2.22-2.18,4.48-4.32,6.84-6.35c0.67-0.57,1.37-1.1,2.07-1.64
		c0.3-0.21,0.58-0.5,0.94-0.61c0.21-0.03,0.4,0.09,0.47,0.27c0.06-0.04,0.11-0.08,0.17-0.12c0.83-0.56,1.82-0.83,2.82-0.8
		c3.64,0.08,6.98,2.62,8.78,5.67c2.4,3.83,2.84,8.54,2.82,12.95c0.01,8.07-1.17,16.12-1.25,24.17c-0.04,3.84,0.14,7.69,0.42,11.52
		c0.22,2.97,0.55,6,1.36,8.85c0.67,2.32,1.41,4.63,2.16,6.93c1.66,3.58,3.17,7.23,4.82,10.81c5.76,12.74,10.39,26.18,10.99,40.26
		c0.11,1.07,0.18,2.15,0.22,3.22c-0.04,0.34-0.07,0.68-0.11,1.02c0-0.04,0.01-0.08,0.01-0.12c-0.01,0.12-0.03,0.23-0.04,0.35
		c-0.01,0.11-0.02,0.21-0.03,0.32c0-0.01,0-0.02,0-0.03c0,0.03-0.01,0.06-0.01,0.09c0,0.01,0,0.03,0,0.04c0,0,0-0.01,0-0.01
		c0,0,0,0.01,0,0.01c0,0.01,0,0.02,0,0.03c0,0,0,0,0,0.01c0,0,0,0,0,0c0,0.04-0.01,0.09-0.01,0.13c0-0.04,0.01-0.08,0.01-0.12
		c0,0.03-0.01,0.07-0.01,0.1c0,0,0,0,0,0c0,0,0,0,0,0.01c0,0,0,0,0,0c-0.03,0.3-0.06,0.6-0.08,0.9c0,0,0-0.01,0-0.01
		c0,0.04-0.01,0.08-0.01,0.12c0-0.04,0.01-0.07,0.01-0.11c-0.01,0.09-0.02,0.19-0.02,0.28c0,0,0-0.01,0-0.02c0,0.02,0,0.03,0,0.04
		c0,0.03,0,0.05-0.01,0.08c0-0.01,0-0.02,0-0.03c0,0.04-0.01,0.09-0.01,0.13c0,0,0,0,0,0c0,0.01,0,0.01,0,0.02c0,0.01,0,0.01,0,0.02
		c0,0,0,0,0-0.01c0,0.02,0,0.05-0.01,0.07c0,0,0,0,0,0c0-0.02,0-0.04,0-0.06c0,0.02,0,0.04,0,0.06c0,0.01,0,0.01,0,0.02
		c0,0,0,0.01,0,0.01c0,0,0,0,0,0c0,0.01,0,0.03,0,0.04c0,0,0-0.01,0-0.01c-0.01,0.08-0.01,0.16-0.02,0.24
		c0-0.04,0.01-0.08,0.01-0.12c0,0.03,0,0.06-0.01,0.1c0,0,0,0,0,0c0,0,0,0,0,0c0,0.01,0,0.01,0,0.02c0,0,0,0,0,0c0,0,0,0,0,0
		c0,0,0,0,0,0c0,0,0,0,0,0.01c0,0,0,0,0,0.01c0,0.01,0,0.03,0,0.04c0,0.02,0,0.03,0,0.05c0-0.02,0-0.03,0-0.05c0,0,0-0.01,0-0.01
		c0,0.06-0.01,0.13-0.01,0.19c0,0.02,0,0.04,0,0.06c0-0.01,0-0.01,0-0.02c-0.02,0.24-0.03,0.48-0.05,0.72
		c-0.08,1.2-0.18,2.4-0.29,3.6c-0.05,0.62-0.11,1.23-0.18,1.84c-0.07,0.6-0.16,1.2-0.25,1.79c-0.05,0.29-0.1,0.59-0.15,0.88
		c-0.02,0.14-0.05,0.28-0.07,0.42c0,0.01,0,0.01,0,0.02c0,0,0-0.01,0-0.01c0,0,0,0.01,0,0.01c-0.03,0.16-0.06,0.33-0.09,0.5
		c-0.03,0.16-0.05,0.32-0.08,0.47c-0.03,0.17-0.06,0.34-0.09,0.51c0,0,0,0,0,0c0,0,0,0,0,0c0,0,0,0,0,0
		c-0.26,0.64-0.52,1.28-0.79,1.92c-2.28,6.26-5.05,12.37-9.52,17.4c-0.65,0.76-1.32,1.51-2,2.25c-6.58,9.56-15.56,17.22-24.29,24.8
		c-18.58,15.76-37.68,30.94-57.46,45.16c-13.93,10.42-27.74,20.99-42.2,30.67c-10.92,7.47-22.02,14.68-32.77,22.39
		c-15.26,11.03-29.86,22.87-44.7,34.45c-16.53,12.98-33.41,25.51-50.04,38.37c-9.98,7.67-19.95,15.37-30.28,22.58
		c-18.43,13.05-38.58,23.92-55.09,39.49c-3.97,3.86-7.68,8.03-10.87,12.56c-0.82,1.92-1.59,3.86-2.34,5.81
		c-2.8,7.25-5.09,14.7-8.37,21.76c-2.47,5.26-5.35,10.37-8.92,14.97c-5.89,7.36-12.41,14.22-19.25,20.7
		c-7.3,6.96-12.16,10.95-16.62,18.07c-1.13,3.17-2.32,6.31-3.58,9.44c-5.01,11.78-10.52,23.38-16.95,34.45
		c-8.02,13.4-16.85,26.4-26.96,38.32c-11.42,13.52-24.32,26.53-40.68,33.88c-5.89,2.58-11.97,4.76-18.18,6.43
		c-8.2,2.18-16.61,3.41-25,4.65c-12.87,1.76-25.61,4.36-37.61,9.38c-1.09,0.44-2.17,0.89-3.25,1.35c-1.56,0.71-3.24,1.3-4.54,2.45
		c-0.06,0.18-0.24,0.3-0.43,0.3C574.04,506.78,574.01,506.77,573.98,506.77z"/>
	<path style="clip-path:url(#SVGID_00000067951853464617555760000008603684890030724537_);fill:#0081DD;" d="M1167.96-17.91
		C1167.96-17.92,1167.96-17.92,1167.96-17.91c0-0.01,0-0.01,0-0.02c0,0,0,0,0,0c0,0.02,0,0.04,0,0.06
		C1167.96-17.88,1167.96-17.9,1167.96-17.91z"/>
	<path style="clip-path:url(#SVGID_00000067951853464617555760000008603684890030724537_);fill:#0081DD;" d="M1167.99-18.43
		c0,0.02,0,0.04,0,0.06C1167.99-18.39,1167.99-18.42,1167.99-18.43z"/>
	<path style="clip-path:url(#SVGID_00000067951853464617555760000008603684890030724537_);fill:#008EF1;" d="M531.08,546.7
		c-2.9-0.07-5.82-0.98-8.29-2.45c-2.98-1.74-5.77-3.76-8.62-5.7c-2.32-1.69-4.91-3.29-6.47-5.78c-1.16-2.3-0.57-5.08-0.31-7.49
		c1.21-8.45,4.33-16.46,6.49-24.68c-0.1-0.21,0.02-0.49,0.22-0.59c0.13-1.21,0.2-2.43,0.19-3.63c-0.12-7.11-1.32-14.17-1.58-21.27
		c-1.09,7.6-2.22,15.19-3.71,22.73c-1.34,6.84-3.18,13.79-6.57,19.91c-3.53,6.08-8.38,11.5-14.51,15.01
		c-5.29,2.96-11.45,4.07-17.46,3.74c-9.63-0.31-17.8-4.81-24.39-11.65c-2.41-2.67-4.29-5.76-6.24-8.76
		c-0.63-1.02-1.23-2.08-1.76-3.15c-1.32,0.17-2.65,0.16-3.97-0.11c-6.15-1.03-9.26-3.42-13.6-7.67
		c-7.14-7.19-13.4-16.25-14.35-26.58c0-0.02,0-0.03,0-0.05c-1.43,1.88-3.08,3.58-4.95,5.04c-3.77,3.04-8.67,5.14-13.57,4.29
		c-4.1-0.62-8.01-2.64-10.92-5.59c-3.67-3.89-6.41-8.69-7.65-13.9c-1.52-6.56,0.84-13.23,2.69-19.48c2.22-7.14,4.8-14.15,7.37-21.16
		c3.66-9.92,6.76-20.16,11.43-29.66c4.72-9.77,10.45-19.02,16.5-28.03c3.49-5.21,7.1-10.35,11.06-15.22
		c3.91-4.9,8.14-9.53,12.54-13.99c3.01-3.08,6.07-6.12,9.37-8.9c8.37-7.13,17.26-13.68,26.7-19.31
		c17.37-10.13,36.22-17.36,54.83-24.84c10.64-4.04,21.45-7.93,31.15-13.98c2.23-1.27,4.37-2.74,6.67-3.87
		c0.03-0.01,0.06-0.02,0.09-0.02c0,0,0,0,0,0c7.15-3.95,14.42-7.68,21.63-11.51c9.26-4.89,18.54-9.78,28.26-13.73
		c11.98-5.01,24.11-9.65,35.83-15.23c14.2-6.46,27.51-14.72,40.23-23.73c9.96-6.95,19.32-14.7,28.65-22.46
		c16.89-13.87,33.25-28.6,46.84-45.79c9.28-11.48,17.73-23.57,25.86-35.88c14.71-22.08,30.3-43.55,45.45-65.32
		c23.09-33.32,46.1-66.71,67.65-101.05c5.02-8.25,9.87-16.59,14.5-25.06c3.88-7.1,7.69-14.24,12.03-21.07
		c6.11-9.29,12.25-18.57,18.49-27.78c0.07-0.12,0.14-0.25,0.21-0.37c1.79-3.11,3.29-6.38,5.15-9.45c0.4-0.62,0.76-1.28,1.25-1.83
		c0.01-0.01,0.02-0.02,0.03-0.03c0.01-0.03,0.02-0.06,0.03-0.09c0.11-0.23,0.33-0.39,0.53-0.54c1.88-1.28,4.16-1.83,6.33-2.42
		c2.77-0.75,5.61-1.22,8.46-1.54c22.96-2.95,45.49,3.83,67.99,7.33c9.46,1.55,18.88,2.64,28.43,3.2c9.71,0.6,19.47,0.78,29.18,0.11
		c10.26-0.61,20.33-2.48,30.52-3.68c5.49-0.66,11-1.17,16.53-1.31c9.13-0.38,0.88,8.6-1.65,11.73
		c-7.26,8.26-15.41,15.69-22.71,23.93c-4.64,5.2-8.95,10.66-12.78,16.46c-5.5,8.39-10.26,17.22-15.56,25.73
		c-6.97,11.25-14.55,22.13-22.49,32.72c-8.75,11.71-18.3,22.79-27.82,33.88c-9.21,10.81-18.06,21.92-26.44,33.38
		c-12.81,17.67-24.2,36.33-35.08,55.23c-7.9,13.79-14.99,28.09-24.23,41.07c-7.61,10.84-16.01,21.15-25.33,30.57
		c-8.86,8.9-18.48,17-28.35,24.74c-19.35,14.9-39.78,28.42-61.15,40.25c-16.56,9.09-34.03,16.64-49.86,27.02
		c-19.22,12.59-35.72,29.01-49.55,47.28c-7.29,9.6-13.66,19.86-19.43,30.44c-5.81,10.46-11.24,21.15-16.16,32.05
		c-7.35,16.03-13.59,32.56-21.27,48.44c-5.59,11.17-12.01,21.93-19.34,32.05c-9.98,13.69-22.41,25.39-35.25,36.36
		c-2.98,2.55-6.02,5.05-9.1,7.49c-1.44,0.7-2.89,1.37-4.35,2.02c-2.48,1.1-4.99,2.12-7.43,3.31c-1.61,0.78-3.19,1.66-4.67,2.67
		c-1.49,1.03-2.91,2.15-4.28,3.34c-2.25,1.95-4.52,3.88-6.77,5.83c-1.45,1.25-2.89,2.54-4.2,3.95c-0.78,0.84-1.51,1.72-2.19,2.64
		c-1.13,0.66-2.23,1.36-3.3,2.12c-1.52,1.46-2.94,3.03-4.37,4.56c-0.78,0.87-1.55,1.74-2.33,2.61c0,0.14-0.07,0.28-0.2,0.37
		c-0.06,0.04-0.12,0.06-0.19,0.07c-1.37,1.54-2.74,3.09-4.09,4.65c-1.08,1.7-2.18,3.39-3.42,4.98c-3.04,4.18-6.71,7.83-10.49,11.33
		c-6.07,5.55-13.48,10.8-22,10.8C531.46,546.71,531.27,546.71,531.08,546.7z"/>
	<path style="clip-path:url(#SVGID_00000067951853464617555760000008603684890030724537_);fill:#008EF1;" d="M563.12,523.09
		c-0.22-0.11-0.3-0.38-0.19-0.6c0.45-0.58,0.88-1.18,1.36-1.74c3.29-3.84,7.15-7.19,10.74-10.68c2.81-2.69,5.54-5.47,8.26-8.25
		c3.47-3.51,6.9-7.04,11.09-9.66c9.42-5.86,20.38-9.01,29.2-15.88c5.76-4.1,10.52-9.38,14.89-14.89
		c5.02-6.34,9.86-12.83,14.37-19.55c1.71-2.58,3.24-5.21,4.75-7.9c0.82-1.46,1.63-2.93,2.4-4.42c0.11-0.22,0.39-0.3,0.6-0.19
		c0.22,0.11,0.3,0.39,0.19,0.6c-1.57,3.03-3.27,6-5.01,8.93c-4.25,6.95-9.2,13.45-14.12,19.93c-5.1,6.59-10.51,13.18-17.32,18.05
		c-8.13,6.37-18.05,9.66-27.01,14.6c-7.17,3.83-12.37,10.15-18.08,15.75c-4.04,4.1-8.39,7.86-12.35,12.02
		c-0.81,0.86-1.61,1.72-2.34,2.62c-0.3,0.37-0.57,0.77-0.87,1.14C563.54,523.13,563.31,523.19,563.12,523.09z"/>
	<path style="clip-path:url(#SVGID_00000067951853464617555760000008603684890030724537_);fill:#008EF1;" d="M563.02,524.04
		c-0.01-0.15,0.05-0.27,0.11-0.39c0,0,0,0,0,0c-0.01,0.01-0.01,0.02-0.02,0.03c0,0,0,0,0,0c0.22-0.52,1.02-0.21,0.83,0.32
		C563.83,524.57,563.12,524.64,563.02,524.04z"/>
	<path style="clip-path:url(#SVGID_00000067951853464617555760000008603684890030724537_);fill:#008EF1;" d="M562.49,525.21
		c-0.13-0.19-0.06-0.44,0.07-0.61c0.95-1.52,1.98-3,3.09-4.41c0.59-0.76,1.18-1.51,1.77-2.27c0.15-0.19,0.42-0.25,0.62-0.11
		c0.19,0.13,0.26,0.43,0.11,0.62c-0.83,1.09-1.69,2.15-2.52,3.24c-0.79,1.1-1.57,2.2-2.28,3.35
		C563.23,525.41,562.74,525.58,562.49,525.21z"/>
	<path style="clip-path:url(#SVGID_00000067951853464617555760000008603684890030724537_);fill:#008EF1;" d="M563.34,523.72
		c2.66-3.45,5.33-6.97,8.43-10.07c2.23-2.3,4.74-4.3,7.15-6.42c4.38-3.68,8.07-8.08,12.12-12.09c2.02-1.94,4.18-3.72,6.59-5.15
		c2.35-1.47,4.86-2.66,7.28-3.99c3-1.74,5.99-3.53,8.88-5.44c1.07-0.73,2.13-1.5,3.17-2.26c0.83-0.62,1.64-1.27,2.46-1.92
		c0.19-0.15,0.47-0.14,0.63,0.05c0.15,0.18,0.14,0.48-0.05,0.63c-1.73,1.39-3.5,2.71-5.32,3.97c-2.87,1.95-5.87,3.7-8.85,5.47
		c-3.51,1.96-7.19,3.64-10.39,6.02c-1.32,1-2.56,2.11-3.76,3.23c-3.25,3.12-6.1,6.63-9.43,9.65c-3.61,3.42-7.64,6.4-11.01,10.07
		c-1.9,2.02-3.64,4.19-5.33,6.38c-0.65,0.77-1.18,1.69-1.93,2.37c-0.32,0.18-0.74-0.16-0.64-0.52L563.34,523.72z"/>
	<path style="clip-path:url(#SVGID_00000067951853464617555760000008603684890030724537_);fill:#008EF1;" d="M604.57,486.72
		c-0.15-0.23-0.05-0.51,0.16-0.63c0.74-0.41,1.53-0.73,2.29-1.09c2.67-1.26,5.33-2.59,7.93-3.99c1.54-0.93,3.06-1.89,4.59-2.83
		c2.94-1.81,5.21-4.45,7.57-6.92c2.54-2.71,5.13-5.37,7.69-8.06c0.23-0.27,0.56-0.64,0.91-0.33c0.18,0.16,0.19,0.45,0.03,0.63
		c-2.56,2.71-5.17,5.38-7.73,8.1c-2.05,2.14-4.02,4.39-6.37,6.21c-4.43,3.13-9.24,5.65-14.14,7.95c-0.76,0.36-1.54,0.67-2.26,1.07
		C605.04,486.98,604.71,486.95,604.57,486.72z"/>
	<path style="clip-path:url(#SVGID_00000067951853464617555760000008603684890030724537_);fill:#008EF1;" d="M597.9,490.03
		c-0.21-0.45,0.32-0.66,0.63-0.83c0.3-0.17,0.58-0.32,0.87-0.49c6.7-3.81,13.38-7.56,19.87-11.69c3.91-2.44,7.69-5.14,10.98-8.38
		c1.34-1.3,2.63-2.64,3.88-4.03c0.43-0.37,0.9-1.54,1.49-1.1c0.91-1.14,1.91-2.23,2.62-3.52c-0.01-0.25,0.23-0.49,0.48-0.45
		c1.34,0.25-1.02,2.7-1.35,3.22c-1.19,1.5-2.44,2.96-3.73,4.36c-2.61,2.9-5.39,5.48-8.33,8.01c-1.9,1.6-3.75,3.3-5.88,4.58
		c-0.42,0.31-1.09,0.21-0.95-0.44c0.15-0.38,0.52-0.62,0.8-0.89c0.68-0.58,1.38-1.13,2.09-1.68c-6.92,4.51-14.15,8.56-21.32,12.64
		c-0.4,0.23-0.77,0.43-1.17,0.65C598.56,490.22,598.15,490.49,597.9,490.03z"/>
	<path style="clip-path:url(#SVGID_00000067951853464617555760000008603684890030724537_);fill:#30AC5E;" d="M383.42,421.56
		c0.21,0.41-0.02,0.79-0.35,0.93c-0.05,0.06-0.11,0.12-0.18,0.16c-0.16,0.1-0.36,0.12-0.54,0.07
		c-15.39-5.09-29.67-13.37-41.95-23.92c-7.04-6.14-13.48-12.95-19.54-20.05c-6.17-7.15-12.02-14.61-17.15-22.55
		c-10.82-16.73-17.94-35.46-26.03-53.58c-4.57-10.11-9.11-20.23-12.93-30.65c-4.66-12.57-9.32-25.19-12.48-38.24
		c-0.57-2.3-1.07-4.61-1.52-6.93c-14.62-8.64-29.98-15.99-44.89-24.12c-32.96-18.02-68.15-31.49-101.27-49.15
		c-19.65-10.81-37.89-23.92-56.24-36.74C26.57,101.64,4.69,86.63-16.02,70.04c-17.47-13.39-34.64-27.17-52.22-40.41
		c-9.51-7.01-19.48-13.52-30.29-18.34c-7.55-3.3-15.44-5.79-23.49-7.49c0.02,0,0.03,0,0.04,0.01c0.01,0,0.02,0,0.03,0.01
		c0.01,0,0.02,0,0.03,0c-0.02,0-0.04,0-0.06-0.01c-0.32-0.05-0.58-0.29-0.59-0.63c-0.01-0.2,0.08-0.4,0.23-0.54
		c-0.78-1.83-0.87-3.87-0.95-5.83c-0.13-22.77,6.92-44.66,12.21-66.58c3.02-12.73,6.23-26.14,3.22-39.16
		c-0.45-1.82-0.96-3.65-1.82-5.33c-0.27-0.53-0.59-1.04-0.97-1.5c-0.13-0.23-0.09-0.49,0.05-0.69c-0.01-0.16,0.03-0.33,0.15-0.47
		c0.14-0.17,0.33-0.23,0.54-0.26c4.19-0.29,8.36,0.82,12.38,1.89c9.31,2.65,18.03,7.08,26.04,12.47
		c14.08,9.62,26.15,21.86,37.66,34.37C-17.82-50.67-2.9-31.82,9.71-11.43c7.75,12.26,15.24,24.91,24.44,36.14
		c11.24,13.58,24.39,25.67,38.93,35.64c8.49,5.73,17.53,10.46,26.79,14.78c13.86,6.46,27.89,12.58,42.17,18.06
		c20.89,8.19,42.88,12.94,64.14,20.01c16.74,5.66,32.69,13.85,46.4,25.06c16.32,13.1,30.01,29.19,41.92,46.33
		c11.71,16.97,22.29,34.78,30.8,53.58c5.24,11.61,9.53,23.64,12.7,35.98c5.76,21.86,7.36,44.53,12.31,66.56
		c2.79,11.41,5.83,22.76,9.1,34.04c0.22,0.24,0.33,0.61,0.43,0.91c1.8,5,4.04,9.81,6.58,14.47c3.83,7.29,7.91,14.44,11.72,21.74
		C379.86,415.12,381.61,418.36,383.42,421.56z"/>
	<path style="clip-path:url(#SVGID_00000067951853464617555760000008603684890030724537_);fill:#40D97A;" d="M680.9,320.37
		c-0.03,0.25-0.08,0.49-0.12,0.74c0-0.02,0.01-0.03,0.01-0.05c-0.01,0.03-0.01,0.07-0.02,0.1c0,0,0-0.01,0-0.01
		c0,0.01,0,0.03-0.01,0.04c0,0,0,0,0,0c0,0.01,0,0.02,0,0.02c0,0.01,0,0.01,0,0.02c0,0,0,0,0,0c0,0,0,0,0,0.01c0,0,0,0,0,0
		c0,0,0,0,0,0c0,0.01,0,0.02,0,0.03c0,0,0,0,0,0h0c0,0.01,0,0.01,0,0.02v0c0,0.01,0,0.02-0.01,0.03c0,0,0,0.01,0,0.01
		c-0.02,0.12-0.04,0.23-0.06,0.35c-0.02,0.12-0.04,0.23-0.06,0.35c0,0.01,0,0.02-0.01,0.03c0,0,0,0,0,0c0,0,0,0,0,0c0,0,0,0,0,0
		c-0.01,0.07-0.02,0.13-0.03,0.2v0c0,0,0,0,0,0c0,0,0,0,0,0c0,0,0,0,0,0.01c0,0.01,0,0.02-0.01,0.03c0,0.01,0,0.02,0,0.03v0v0
		c0,0,0,0,0,0c0,0,0,0.01,0,0.01c0,0,0,0,0,0c0,0,0,0.01,0,0.01c0,0,0,0.01,0,0.02c0,0.01,0,0.02,0,0.03c0,0,0,0,0,0c0,0,0,0,0,0v0
		c0,0.01,0,0.01,0,0.02c0,0,0,0,0,0c-0.01,0.03-0.01,0.07-0.02,0.1c-0.03,0.15-0.05,0.29-0.08,0.44c-5.43,2.98-11.39,4.89-17.5,5.9
		c-4.13,0.77-8.32,1.26-12.52,1.26c-1.13,0-2.26-0.03-3.38-0.11c-5.43-0.38-10.82-1.22-16.15-2.3c-6.61-1.42-13.25-3.12-19.21-6.4
		c-3.48-1.9-6.6-4.36-9.63-6.91c-3.74-3.19-7.28-6.62-10.66-10.19c-5.89-6.35-11.84-12.67-19.28-17.21
		c-4.26-2.59-9.03-4.23-13.86-5.24c-3.56-0.72-7.14-1.13-10.68-1.82c-1.13,0.24-2.19,0.43-2.79,0.53c-2.62,0.76-5.18,1.68-7.59,2.85
		c-4.74,2.18-8.8,5.64-13.66,7.56c-0.46,0.17-0.92,0.31-1.39,0.44c-2.33,0.75-4.69,1.42-7.05,2.08c-5.17,1.45-10.42,2.62-15.54,4.26
		c-12.09,3.67-23.73,8.86-34.61,15.25c-4.91,2.87-9.74,5.91-14.2,9.44c-10.61,8.39-18.72,19.28-27.26,29.63
		c-8.14,10.25-16.55,20.37-23.79,31.29c-4.16,6.34-7.61,13.1-11.08,19.83c-1.84,3.56-3.75,7.18-5.03,10.94
		c-0.31,0.96-0.58,1.94-0.77,2.91c-0.08,0.44-0.15,0.88-0.2,1.33c0,0.56-0.23,1.31-0.91,1.25c-0.26,0.1-0.58,0.05-0.79-0.28
		c-0.32-0.48-0.64-0.95-0.97-1.43c-0.07-0.09-0.14-0.19-0.2-0.29l0,0c-5.45-7.89-11.81-15.12-17.18-23.08
		c-3.19-4.56-6.26-9.2-9.27-13.88c-6.59-8.55-12.31-17.76-17.11-27.43c0,0-0.01-0.01-0.01-0.01c-0.74-1.2-1.49-2.4-2.28-3.55
		c-0.15-0.28-0.39-0.48-0.55-0.75c-0.14-0.32,0.01-0.75,0.31-0.86c0.02-0.01,0.04-0.02,0.06-0.03c-1.74-3.82-3.35-7.71-4.81-11.64
		c-5.93-15.84-10.04-32.27-15.17-48.36c-3.29-10.76-6.29-21.64-10.58-32.05c-1-2.49-2.04-4.96-2.98-7.46
		c-0.3-0.79-0.59-1.58-0.88-2.36c-0.19-0.34-0.05-0.79,0.27-0.96c-3.56-7.87-7.27-15.67-10.95-23.47
		c-7.11-15.21-15.28-29.92-26.43-42.51c-9.5-10.78-19.12-21.52-29.94-31c-23.4-20.44-48.85-30.04-78.08-38.88
		c-6.87-2.15-13.6-4.87-20.63-6.4c-2.53-0.5-5.07-1.08-7.61-1.22c-0.06-0.02-0.11-0.05-0.16-0.09c-0.04,0-0.08-0.01-0.12-0.02
		c-21.82-5.62-42.17-16.37-59.93-30.15C54.8,63,44.14,54.29,34.12,44.87c-9.5-9.23-17.43-19.9-25.31-30.5
		C3,6.69-2.89-0.92-8.34-8.86c-6.16-8.94-11.95-18.12-18.01-27.12C-37.18-52.83-50.33-68.01-64.7-81.94
		c-11.21-10.96-22.08-22.65-35.47-31c-2.85-1.67-5.82-3.27-9.08-3.75c-0.13,0.05-0.26,0.06-0.39,0.04
		c-0.22,0.16-0.51,0.21-0.77,0.04c-0.3-0.19-0.42-0.61-0.22-0.92c0.12-0.14,0.2-0.29,0.26-0.47c0.26-0.73,0.49-1.48,0.75-2.22
		c1.63-4.5,3.81-8.83,6.57-12.74c10.66-14.35,26.45-19.64,43.84-19.06c20.04,0.56,39.31,7.53,59.36,8.11
		c6.33,0.26,12.62-0.24,18.84-1.35c8.15-1.47,16.22-3.67,23.73-7.21c6.26-2.89,11.84-6.98,17.18-11.29
		c5.93-4.6,11.98-9.07,18.45-12.9c3.11-1.85,6.27-3.59,9.4-5.4c-0.08-0.59,0.71-1.09,1.18-0.51c0.2,0.03,0.38,0.15,0.49,0.33
		c0.08,0.15,0.1,0.31,0.07,0.46c2.57,3.68,5.22,7.31,7.82,10.98c4.57,6.48,10.08,12.19,15.17,18.24c0.64,0.75,1.26,1.51,1.88,2.27
		c0.24-0.01,0.47,0.13,0.61,0.34c0.33,0.52,0.66,1.04,0.95,1.48c5.11,7.94,11.3,15.04,17.57,22.02
		c7.83,8.49,16.02,16.63,23.88,25.09c15.87,16.99,30.78,34.84,46.1,52.32c21.45,24.28,42.52,48.88,63.2,73.82
		c11.07,13.18,22.28,26.27,32.72,39.96c14.88,20.04,28.41,41.19,45.26,59.69c15,16.41,31.99,31.09,50.87,42.86
		c11.59,7.17,23.8,13.58,37.12,16.66c12.57,2.72,25.42,3.86,38.09,6.08c1.65,0.26,3.3,0.55,4.94,0.86c0.05,0,0.11,0,0.16,0.01
		c0.19,0.04,0.38,0.09,0.56,0.13c3.78,0.72,7.55,1.53,11.32,2.33c1.51,0.27,3.03,0.51,4.55,0.73c0.09,0.01,0.17,0.03,0.26,0.04
		c0.65,0.05,1.3,0.11,1.95,0.16c2.59,0.24,5.21,0.26,7.77,0.75c1.74,0.37,3.46,0.82,5.17,1.29c2.09,0.37,4.17,0.74,6.26,1.13
		c5.14,0.91,10.21,2.17,15.33,3.13c2.09,0.39,4.19,0.79,6.28,1.19c1.14,0.11,2.28,0.21,3.42,0.33c0.29,0.05,0.46,0.23,0.52,0.45
		c9.87,1.97,19.69,4.19,29.35,7.02c7.07,2.08,14.14,4.16,21.11,6.57c10.18,3.46,20.26,8.67,26.83,17.44
		c4.83,6.47,6.61,14.49,9.71,21.8c1.5,3.41,3.58,6.67,5.75,9.65c4.94,6.98,11.91,11.98,18.79,16.85c8.48,6,16.46,12.87,22.45,21.39
		c2.34,3.3,4.54,6.76,6.02,10.53C679.66,314.89,680.71,318.1,680.9,320.37z"/>
	<path style="clip-path:url(#SVGID_00000067951853464617555760000008603684890030724537_);fill:#40D97A;" d="M628.97,407.36
		c4.23,3.54,0.73,13.86-0.66,18.38c-2.8,8.46-6.44,17.03-12.99,23.28c-3.7,3.5-8.08,6.23-12.67,8.38c-5.41,2.58-10.8,3.58-16.75,3.1
		c-0.08,0-0.16-0.01-0.24-0.02c-2,3.63-4.6,6.88-8.13,8.23c-1.68,0.64-3.51,1-5.24,1.36c-2.86,0.59-5.76,1.12-8.67,1.33
		c-3,0.26-6.03-0.01-9.01,0.32c-1.33,2.86-2.82,5.63-4.74,8.15c-3.55,4.92-8.66,8.64-14.01,11.3c-3.06,1.59-6.53,2.33-9.98,2.11
		c-0.09,0-0.18-0.01-0.26-0.01c-4.7,5.97-8.73,12.44-13.62,18.28c-3.27,3.87-9.18,12.34-14.46,12.53
		c-3.85-0.32-7.77-1.11-11.56-1.77c-3.04-0.56-6.08-1.13-8.99-2.18c-2.59-0.97-4.98-2.54-6.92-4.51c-0.97-1.03-1.74-2.22-2.52-3.4
		c-3.35-5.16-5.69-10.99-7.74-16.75c-0.26-0.76-0.5-1.52-0.74-2.29c-0.14-0.6-0.52-1.24-0.29-1.84c0.04-0.08,0.1-0.16,0.17-0.21
		c-0.2-4.61,4.11-14.79,5.52-16.95c3.27-5.87,10-6.94,16.04-8.28c-0.31-0.48-0.61-0.96-0.91-1.44c-2.05-3.27-3.98-6.66-5.71-10.09
		c-1.19-2.48-2.28-5.05-2.89-7.74c-0.65-2.72,0.03-5.57,1.24-8.04c1.2-2.49,2.76-4.78,4.41-6.99c3.3-4.43,7.25-8.42,11.78-11.59
		c2.26-1.53,4.65-2.85,7.31-3.48c4.16-0.99,8.51-0.96,12.7-0.22c3,0.58,5.97,1.23,8.96,1.8c0.58-2.27,1.44-4.46,2.26-6.65
		c0.8-1.92,1.38-3.82,2.62-5.45c0.95-1.07,2.24-1.77,3.5-2.41c6.06-3.01,12.64-4.91,19.33-5.87c4.27-0.52,8.72-1.28,12.96-0.17
		c2.39,0.66,4.65,2.04,6.69,3.33c6.85,4.38,12.48,10.42,17.12,17.04c0.12,0.17,0.24,0.34,0.36,0.51c1.17-1.87,2.64-3.54,4.14-5.15
		c8.16-8.94,21.29-11.24,32.79-8.98c2.69,0.5,5.32,1.25,7.92,2.11C627.72,406.64,628.38,406.92,628.97,407.36z"/>
	<path style="clip-path:url(#SVGID_00000067951853464617555760000008603684890030724537_);" d="M498,480.95
		c-3.04-2.73-5.18-6.3-8.16-9.08c-3.64-2.9-8.25-5.62-12.92-5.01c5.69-1.89,13.02,1.58,16.98,5.67c3.95,4.39,8.04,8.69,13.13,11.76
		c5.98,3.74,12.32,7.58,19.4,8.54c0.54,0.03,1.07,0,1.61-0.04c-0.96,0.28-1.97,0.43-2.99,0.43
		C514.97,492.64,505.42,487.63,498,480.95z"/>
	<path style="clip-path:url(#SVGID_00000067951853464617555760000008603684890030724537_);" d="M537.73,463.79
		c-10.55-6.3-14.28-10.79-17.67-22.71c-1.85-6.88-3.18-16.06-2.24-22.23c0.12,3.59,1.11,6.99,1.82,10.46
		c1.99,7.53,4.49,18.64,9.58,24.49c4.19,4.5,9.81,7.33,14.87,10.63c3.54,2.12,7.25,4.2,11.33,5.02c5.09,0.47,10.27,0.22,15.29-0.59
		c0.36-0.06,0.72-0.17,1.06-0.21c-1.32,0.58-2.69,1.07-4.09,1.42c-3.81,1.03-7.75,1.67-11.7,1.79
		C549.11,471.5,543.36,467.29,537.73,463.79z"/>
	<path style="clip-path:url(#SVGID_00000067951853464617555760000008603684890030724537_);" d="M599.59,315.59
		c-7.62-6.82-13.64-15.28-21.7-21.65c-6.81-5.74-14.94-9.83-23.49-12.23c-12.98-3.7-26.42-5.66-39.2-10.09
		c-23.42-7.94-40.67-26.75-57.07-44.39c-1.88-2.09-3.79-4.18-5.68-6.21c10.23,7.42,19.15,16.43,28.23,25.18
		c21.1,20.73,39.83,24.98,67.52,30.95c13,2.78,25.43,8.39,35.07,17.69c9.73,8.73,16.96,20.74,29.62,25.66
		c14.17,6.3,29.81,8.62,45.24,7.8c7.14-0.32,14.77-0.78,21.1-4.26c-7.74,6.25-18.5,7.2-28.14,7.22
		C633.14,330.91,613.87,327.04,599.59,315.59z"/>
	<path style="clip-path:url(#SVGID_00000067951853464617555760000008603684890030724537_);" d="M442.81,449.47
		c8-22.34,26.88-37.98,44.73-52.49c9.62-8.11,19.39-15.79,28.6-24.31c5.93-5.23,11.98-11.92,17.21-17.03
		c-3.87,5.67-7.74,11.39-12.56,16.33c-9.31,9.49-20.26,17.67-30.3,26.26c-24.23,19.44-45.67,37.97-49.4,70.72
		c-0.87,5.93-1.28,11.76-1.48,17.71c-0.29,8.73-0.82,17.55-0.12,26.25C434.42,493.28,436.54,468.66,442.81,449.47z"/>
	<path style="clip-path:url(#SVGID_00000067951853464617555760000008603684890030724537_);" d="M375.45,435.57
		c1.67-6.27,4.55-12.27,6.67-18.36c2.63-6.65,5.05-13.4,7.75-20.02c4.65-10.29,11.54-19.32,17.87-28.61
		c9.04-12.84,18.74-25.29,30.26-36.02c8.52-7.86,17.12-15.84,26.84-22.19c14.65-8.98,31.84-12.25,48.08-17.21
		c7.06-2.07,13.45-5.73,20.11-8.75c4.93-2.09,10.48-3.97,15.31-5.49c-3.2,1.69-6.33,3.54-9.62,5.1c-5.8,2.86-11.18,6.55-17.19,8.98
		c-15.59,6.24-32.53,8.62-47.81,15.78c-9.39,4.21-17.08,11.05-24.76,17.65c-20.74,17.32-36.65,39.4-51.19,61.98
		c-5.21,7.85-7.89,16.91-11.39,25.57c-2.35,6.62-5.3,13.03-7.4,19.72c-0.1,0.19-0.21,0.39-0.31,0.58c0.05-0.09,0.1-0.19,0.15-0.28
		c-1.11,2.09-2.21,4.19-3.34,6.28c0.12-0.21,0.24-0.43,0.35-0.64c-0.71,1.28-1.4,2.58-2.1,3.87
		C374.25,440.85,374.78,438.19,375.45,435.57z"/>
	<path style="clip-path:url(#SVGID_00000067951853464617555760000008603684890030724537_);" d="M396.21,486.33
		c0.48-0.27,0.96-0.53,1.44-0.8c-0.01,0.01-0.02,0.01-0.03,0.02c0.03-0.02,0.06-0.03,0.09-0.05c0,0,0,0,0,0
		c0.39-0.23,0.75-0.49,1.06-0.81c0.04-0.04,0.07-0.08,0.11-0.11c4.2-3.36,6.31-10.07,8.48-14.53c2.87-6.64,5.27-13.46,7.78-20.23
		c4.08-11.66,7.85-23.57,14.39-34.15c17.48-28.65,44.87-49.15,73.14-66.34c4.13-2.36,8.4-4.51,12.76-6.41
		c2.7-1.02,5.54-2.54,8.39-2.64c-6.15,2.18-11.49,6.58-17.16,9.82c-25.97,15.98-51.56,33.85-69.4,59.04
		c-10.35,13.52-15.3,29.88-20.95,45.69c-3.8,9.08-9.58,31.59-21.19,32.15C395.48,486.76,395.84,486.54,396.21,486.33z"/>
	<path style="clip-path:url(#SVGID_00000067951853464617555760000008603684890030724537_);" d="M591.72,462.02
		c-4.27-0.02-7.91-2.94-10.24-6.31c-6.87-9.93-3.25-26.68,1.79-36.81c-1.59,5.35-2.25,11.05-2.68,16.64
		c-0.18,4.01-0.24,8.06,0.48,12.02c1.1,5.15,4.64,11.02,10.33,11.61c4.95,0.34,9.32-2.56,13.48-4.87
		c5.03-2.93,10.64-5.04,15.01-8.97c-3.19,4.23-7.83,7.1-12.17,9.97c-4.57,3.2-9.62,6.73-15.39,6.73
		C592.13,462.03,591.92,462.03,591.72,462.02z"/>
	<path style="clip-path:url(#SVGID_00000067951853464617555760000008603684890030724537_);fill:#6FC0F4;" d="M566.74,511.33
		c0.6,2.3,0.11,4.73-0.55,6.96c-1.26,4.25-3.54,8.12-6.28,11.57c-4.09,5.41-10.43,8.2-16.34,11.14c-4.48,2.12-16.01,7.7-20.53,7.02
		c-0.83-0.15-1.38-0.89-2-1.4c-1.76-1.67-3.4-3.48-4.94-5.35c-5.35-6.24-6.72-14.99-5.06-22.87c-0.35-0.03-0.53-0.53-0.25-0.77
		c0.21-0.22,0.49-0.41,0.67-0.65c1.08-0.9,2.15-1.84,3.3-2.66c6.96-5.05,14.87-8.8,23.36-10.25c4.62-0.89,9.29-1.08,13.97-0.86
		C557.79,503.36,565.14,504.96,566.74,511.33z"/>
	<path style="clip-path:url(#SVGID_00000067951853464617555760000008603684890030724537_);fill:#6FC0F4;" d="M399.13,443.76
		c2.45,5.17,1.61,11.1,0.42,16.49c-0.83,3.79-1.81,7.56-2.91,11.28c-0.95,3.12-1.96,6.34-3.03,9.4c-0.74,2.01-0.87,2.44-3.19,2.16
		c-6.3-0.8-12.46-3.15-17.67-6.75c-1.48-1.07-4.76-3.71-4.97-5.52c-0.23-0.1-0.3-0.36-0.24-0.53c0.22-0.81,0.45-1.61,0.71-2.41
		c0.86-2.71,2.04-5.3,3.23-7.87c1.9-4.01,3.68-8.1,6.05-11.86c1.34-2.13,2.92-4.1,4.53-6.03c1.02-1.16,2.3-2.25,3.71-2.84
		c2.73-1.18,6.02-1.34,8.81-0.31C396.71,439.8,398.19,441.75,399.13,443.76z"/>
	<path style="clip-path:url(#SVGID_00000067951853464617555760000008603684890030724537_);fill:#6FC0F4;" d="M510.88,521.66
		c-0.24-0.02-0.43-0.23-0.41-0.48c0.05-0.69,0.1-1.38,0.15-2.07c0.11-0.49-0.07-1.68,0.58-1.74c0.32-0.01,0.58,0.32,0.43,0.62
		c-0.09,0.55-0.12,1.11-0.17,1.66c-0.04,0.53-0.08,1.07-0.12,1.6C511.34,521.49,511.12,521.68,510.88,521.66z"/>
	<path style="clip-path:url(#SVGID_00000067951853464617555760000008603684890030724537_);fill:#6FC0F4;" d="M517.62,540.84
		c-0.12-0.01-0.22-0.07-0.3-0.15c-0.65-0.64-1.28-1.29-1.91-1.95c-0.98-0.99-1.94-2.12-2.62-3.32c-2.96-5.35-3.28-11.84-2.23-17.73
		c0,0,0,0.01,0,0.01c0,0,0,0,0,0c0.13-0.56,0.94-0.4,0.87,0.14c0,0.03-0.01,0.07-0.02,0.1c0,0,0,0,0.01-0.01
		c0-0.01,0.01-0.02,0.01-0.02c0-0.01,0.01-0.02,0.01-0.03c-1.08,6.1-0.67,13.55,3.18,18.63c1.04,1.28,2.24,2.42,3.4,3.6
		C518.25,540.39,517.99,540.88,517.62,540.84z"/>
	<path style="clip-path:url(#SVGID_00000067951853464617555760000008603684890030724537_);fill:#6FC0F4;" d="M510.77,518.14
		c-0.06-0.56,0.69-0.72,1.05-0.99c0.67-0.37,1.36-0.72,2.04-1.07c0.52-0.25,0.91,0.54,0.39,0.8c-0.95,0.51-1.88,0.93-2.74,1.49
		C511.26,518.62,510.84,518.47,510.77,518.14z"/>
	<path style="clip-path:url(#SVGID_00000067951853464617555760000008603684890030724537_);fill:#6FC0F4;" d="M511.08,517.94
		c-1.02-0.28,2.37-2.2,2.69-2.44c0.11-0.06,0.25,0,0.3,0.1c0.06,0.11,0,0.24-0.1,0.3c-0.36,0.21-0.7,0.45-1.04,0.68
		c-0.55,0.38-1.14,0.74-1.61,1.23C511.27,517.9,511.17,517.96,511.08,517.94z"/>
	<path style="clip-path:url(#SVGID_00000067951853464617555760000008603684890030724537_);fill:#6FC0F4;" d="M510.75,517.81
		c-0.92-0.49,3.97-3.21,4.46-3.51c2.73-1.64,5.62-3,8.62-4.03c0.12-0.04,0.24,0.02,0.28,0.14c0.09,0.38-0.64,0.39-0.89,0.54
		c-2.4,0.92-4.76,1.95-6.96,3.26c-1.77,1.04-3.65,2.02-5.17,3.42c-0.01,0.1-0.08,0.18-0.18,0.2c0,0,0,0-0.01,0c0,0,0,0,0,0
		c0,0,0,0,0,0c0,0,0,0,0,0C510.86,517.84,510.8,517.83,510.75,517.81z"/>
	<path style="clip-path:url(#SVGID_00000067951853464617555760000008603684890030724537_);fill:#6FC0F4;" d="M510.9,517.69
		c-0.88-0.45,4.42-3.87,4.96-4.19c4.98-3.19,10.66-4.86,16.26-6.61c0.26-0.09,0.43,0.32,0.14,0.42c-4.92,1.56-9.96,2.97-14.46,5.56
		c-1.95,1.1-3.86,2.31-5.58,3.75c-0.37,0.33-0.74,0.61-1.03,0.99c-0.06,0.1-0.21,0.14-0.31,0.06L510.9,517.69z"/>
	<path style="clip-path:url(#SVGID_00000067951853464617555760000008603684890030724537_);fill:#9DFBBA;" d="M494.72,479.32
		c5.97,5.2,14.11,10.83,13.5,19.72c-0.41,4.66-3.24,9.45-7.03,12.18c-2.94,2.08-6.78,2.77-10.31,2.27l-0.01,0
		c-4.2-0.83-8.02-2.95-11.59-5.25c-1.79-1.16-3.62-2.3-5.14-3.79c-0.17-0.02-0.34-0.11-0.47-0.32c-0.79-1.27,0.58-2.01,1.63-2.33
		c0.99-0.33,1.98-0.64,2.94-1.05c2.76-1.14,5.28-2.78,7.22-5.04c2.99-3.52,4.73-7.8,5.77-12.25c0.37-1.55,0.68-3.09,0.81-4.68
		c0-0.06,0.02-0.11,0.04-0.17c-0.19-0.47,0.37-1.08,0.91-0.7C493.59,478.36,494.16,478.85,494.72,479.32z"/>
	<path style="clip-path:url(#SVGID_00000067951853464617555760000008603684890030724537_);fill:#9DFBBA;" d="M506.14,472.33
		C506.14,472.33,506.14,472.33,506.14,472.33c-8.16-0.11-16.79-7.62-22.21-13.28c-1.55-1.64-2.98-3.39-4.25-5.26
		c-0.2-0.31-0.46-0.62-0.54-0.99c0-0.03-0.01-0.06-0.01-0.08c-0.46-1.18,0.4-3.91,0.77-4.8c2.14-5.07,6.19-9.92,10.71-13.01
		c2.86-2.04,6.04-3.52,9.31-4.77c2.21-0.93,4.48-1.86,6.9-2.01c0.57-0.02,1.15-0.05,1.71,0.01c0.28,0.31,0.56,0.63,0.83,0.95
		c0,0-0.01-0.01-0.01-0.02c0,0.01,0.01,0.01,0.02,0.02c0,0,0,0,0,0c0,0,0,0,0,0c0,0.01,0.01,0.01,0.01,0.02
		c0.01,0.02,0.03,0.03,0.04,0.05c-0.01-0.01-0.02-0.03-0.03-0.04c0.35,0.42,0.68,0.85,1.01,1.27c0,0,0-0.01-0.01-0.01
		c0,0,0.01,0.01,0.01,0.01c0.01,0.01,0.02,0.02,0.03,0.03c-0.01-0.01-0.02-0.02-0.02-0.03c0,0.01,0.01,0.01,0.01,0.02
		c0,0,0.01,0.01,0.01,0.01c0,0,0,0,0,0c0,0,0,0,0,0c0,0,0,0,0,0c0,0,0,0,0,0c0,0,0,0,0,0c0,0,0,0,0,0c0,0,0.01,0.01,0.01,0.01
		c0,0,0-0.01-0.01-0.01c0.02,0.03,0.05,0.06,0.07,0.09c-0.01-0.01-0.02-0.03-0.03-0.04c0.01,0.01,0.02,0.03,0.03,0.04c0,0,0,0,0,0
		c0,0,0,0,0,0.01c0,0,0,0,0-0.01c0,0,0,0,0,0c0,0,0,0,0,0c0.01,0.01,0.02,0.02,0.02,0.03c0,0,0,0,0,0c0,0,0,0,0,0
		c0-0.01-0.01-0.01-0.02-0.02c0.01,0.01,0.01,0.02,0.02,0.03c0,0,0,0,0,0.01c0,0,0,0,0,0c0,0,0,0,0,0c0,0,0,0,0,0
		c0.12,0.16,0.25,0.31,0.38,0.45c0.09,0.1,0.19,0.2,0.28,0.3c2.72,4.04,4.8,8.48,6.52,13.02c2.16,5.79,3.54,12.03,2.14,18.13
		c-0.94,4.02-3.46,8.08-7.54,9.36c-1.56,0.4-3.18,0.55-4.79,0.55C507.06,472.36,506.6,472.35,506.14,472.33z"/>
	<path style="clip-path:url(#SVGID_00000067951853464617555760000008603684890030724537_);fill:#9DFBBA;" d="M566.9,442.52
		c0.25,3.82-0.01,7.81-1.61,11.34c-1.04,2.33-2.9,4.35-4.99,5.71c-3.56,2.57-8.16,4.45-12.53,2.97c-3.11-0.94-5.64-3.07-8.09-5.12
		c-3.97-3.31-7.51-7.1-10.81-11.07c-1.17-1.39-2.32-2.8-3.43-4.24c-1-0.66-2.33-2.71-1.47-3.64c0.21-0.24,0.6-0.36,0.91-0.29
		c0.44-0.15,0.97-0.24,1.42-0.42c3.03-0.85,6.01-1.85,8.83-3.28c2.6-1.3,4.89-2.85,7.13-4.63c3.36-2.53,6.44-5.49,8.62-9.1
		c2.94-4.39,3.09-6.76,6.93-1.12C562.38,426.47,566.46,434.16,566.9,442.52z"/>
	<path style="clip-path:url(#SVGID_00000067951853464617555760000008603684890030724537_);fill:#9DFBBA;" d="M626.5,419.51
		c0.94,2.01,0.72,4.36,0.71,6.48c-0.07,2.54-0.75,5-1.96,7.22c-1.72,3.32-3.97,6.36-6.37,9.21c-2.43,2.83-5.53,4.99-8.77,6.8
		c-2.71,1.51-5.44,3.22-8.62,3.19c-0.48-0.02-1.17,0.13-1.28-0.51c-0.01-0.12,0-0.22,0.03-0.3c-0.17-0.36-0.12-0.76,0.08-1.12
		c0.01-0.03,0.03-0.06,0.04-0.09c0.03-0.05,0.06-0.09,0.09-0.13c0,0,0,0,0,0c0.12-0.17,0.28-0.32,0.45-0.46
		c1.27-1.1,2.64-2.1,4.05-3.02c2.51-1.59,4.9-3.19,7.11-5.16c4.05-3.65,6.7-8.61,8.28-13.76c0.72-2.27,1.53-4.5,2.37-6.73
		c0.24-0.64,0.48-1.26,0.68-1.87c0.19-0.73,0.55-1.92,1.53-1.39c0.49,0.35,0.87,0.81,1.16,1.32
		C626.24,419.24,626.39,419.33,626.5,419.51z"/>
	<path style="clip-path:url(#SVGID_00000067951853464617555760000008603684890030724537_);fill:#9DFBBA;" d="M673.43,306.3
		c0.56,1.44-0.88,2.37-2.18,2.15c-0.77-0.1-1.53-0.28-2.27-0.5c-0.89-0.16-1.78-0.36-2.67-0.53c-7.71-1.54-15.94-3.54-23.63-0.95
		c-1.4,0.49-2.74,1.12-4.08,1.76c-0.55,0.24-1.2,0.81-1.75,0.32c-0.53-0.78-0.9-1.67-1.27-2.56c-2.02-2.72-3.32-5.94-4.62-9.03
		c-1.93-4.62-2.23-9.69-1.8-14.62c0.29-3.32,0.83-8.02,3.76-10.05c2.65-1.63,5.94-0.86,8.67,0.37c1.48,0.48,2.91,1.13,4.22,1.92
		c1.2,0.72,2.31,1.55,3.39,2.43c2.6,1.86,5.08,3.88,7.31,6.16c1.24,1.2,2.33,2.53,3.31,3.94c1.58,1.62,3.13,3.27,4.67,4.93
		c2.62,2.85,5.13,5.96,6.84,9.44c0.26,0.55,1.3,2.61,1.8,4.19C673.27,305.86,673.37,306.12,673.43,306.3z"/>
</g>

</svg>
