<?xml version="1.0" encoding="utf-8"?>
<!-- Generator: Adobe Illustrator 26.4.1, SVG Export Plug-In . SVG Version: 6.00 Build 0)  -->
<svg version="1.1" xmlns="http://www.w3.org/2000/svg" xmlns:xlink="http://www.w3.org/1999/xlink" x="0px" y="0px"
	 viewBox="0 0 1080 1080" style="enable-background:new 0 0 1080 1080;" xml:space="preserve">
<style type="text/css">
	.svg_white{fill:#ffffff;}
</style>
	<g id="logo_white_1" class="svg_white">
        <path d="M892.21,922.62h-2.61c-0.45,0-0.75-0.2-0.88-0.65l-0.85-2.88h-6.27l-0.85,2.88
            c-0.13,0.45-0.45,0.65-0.88,0.65h-2.58c-0.55,0-0.83-0.33-0.63-0.9l5.47-16c0.15-0.43,0.43-0.65,0.88-0.65h3.43
            c0.45,0,0.75,0.23,0.9,0.65l5.52,16C893.04,922.29,892.76,922.62,892.21,922.62 M886.92,915.9l-2.21-7.47l-2.18,7.47H886.92z"/>
        <path d="M913.79,914.72v7.12c0,0.5-0.3,0.78-0.78,0.78h-2.26c-0.5,0-0.8-0.28-0.8-0.78V915
            c0-1.33-0.75-2.16-1.88-2.16c-1.23,0-2.01,0.95-2.01,2.46v6.54c0,0.5-0.3,0.78-0.78,0.78h-2.26c-0.5,0-0.8-0.28-0.8-0.78V915
            c0-1.33-0.75-2.16-1.88-2.16c-1.2,0-1.98,0.93-2.01,2.38l0.03,6.62c0,0.5-0.28,0.78-0.78,0.78h-2.26c-0.5,0-0.78-0.28-0.78-0.78
            v-10.98c0-0.5,0.28-0.78,0.78-0.78h1.81c0.48,0,0.78,0.28,0.78,0.78v1.18c0.68-1.48,2.01-2.31,3.74-2.31
            c1.78,0,3.13,0.85,3.84,2.31c0.7-1.48,2.08-2.31,3.86-2.31C912.09,909.73,913.79,911.69,913.79,914.72"/>
        <path d="M915.8,916.25c0-3.94,2.28-6.52,6.34-6.52c3.74,0,5.99,2.18,6.22,6.67c0.02,0.53-0.25,0.8-0.75,0.8h-7.75
            c0.23,1.85,1.18,2.98,2.81,2.98c0.88,0,1.58-0.35,1.98-1.03c0.27-0.38,0.53-0.55,0.98-0.48l1.76,0.3
            c0.53,0.08,0.78,0.43,0.55,0.93c-0.85,1.93-2.86,3.03-5.54,3.03C918.36,922.95,915.8,920.44,915.8,916.25 M924.32,915.07
            c-0.2-1.68-0.9-2.61-2.18-2.61c-1.3,0-2.08,0.9-2.28,2.61H924.32z"/>
        <path d="M938.41,910.38v2.26c0,0.4-0.23,0.63-0.58,0.63h-0.15c-2.13,0-3.41,1.3-3.48,3.48l0.02,5.09
            c0,0.5-0.28,0.78-0.78,0.78h-2.26c-0.5,0-0.78-0.27-0.78-0.78v-10.98c0-0.5,0.28-0.78,0.78-0.78h1.66c0.48,0,0.78,0.28,0.78,0.78
            l-0.03,2.08c0.65-1.93,2.08-3.18,3.96-3.18h0.2C938.19,909.76,938.41,909.98,938.41,910.38"/>
        <path d="M939.84,906.3c0-1.2,0.95-2.16,2.16-2.16c1.18,0,2.13,0.95,2.13,2.16c0,1.18-0.95,2.16-2.13,2.16
            C940.79,908.45,939.84,907.48,939.84,906.3 M943.13,922.62h-2.26c-0.5,0-0.78-0.28-0.78-0.78v-10.98c0-0.5,0.28-0.78,0.78-0.78
            h2.26c0.5,0,0.78,0.28,0.78,0.78v10.98C943.9,922.34,943.63,922.62,943.13,922.62"/>
        <path d="M952.33,909.73c2.91,0,4.99,1.45,5.74,3.84c0.18,0.5-0.1,0.83-0.6,0.93l-2.03,0.33
            c-0.48,0.08-0.75-0.12-0.95-0.58c-0.35-0.83-0.98-1.43-1.98-1.43c-1.43,0-2.33,1.33-2.33,3.51c0,2.16,0.88,3.51,2.38,3.51
            c0.98,0,1.68-0.53,2.03-1.63c0.15-0.48,0.45-0.68,0.9-0.63l2.06,0.3c0.5,0.1,0.75,0.43,0.63,0.95c-0.73,2.63-2.83,4.09-5.79,4.09
            c-3.84,0-6.22-2.53-6.22-6.59S948.54,909.73,952.33,909.73"/>
        <path d="M971.18,914.32v7.52c0,0.5-0.28,0.78-0.78,0.78h-1.78c-0.5,0-0.78-0.28-0.78-0.78v-0.88
            c-0.78,1.28-2.21,1.98-4.04,1.98c-2.63,0-4.29-1.43-4.29-3.71c0-2.46,1.93-3.99,5.11-3.99c1,0,2.03,0.15,2.78,0.43v-1.3
            c0-1.2-0.65-1.93-1.73-1.93c-0.78,0-1.35,0.38-1.68,0.95c-0.28,0.4-0.5,0.58-0.95,0.53l-2.18-0.35c-0.53-0.1-0.78-0.45-0.55-0.95
            c0.8-1.78,2.73-2.88,5.39-2.88C969.07,909.73,971.18,911.49,971.18,914.32 M967.42,918.18v-0.48c-0.63-0.27-1.35-0.42-2.03-0.42
            c-1.28,0-2.06,0.58-2.06,1.55c0,0.93,0.68,1.5,1.83,1.5C966.57,920.34,967.42,919.51,967.42,918.18"/>
        <path d="M985.5,914.72v7.12c0,0.5-0.28,0.78-0.78,0.78h-2.26c-0.5,0-0.78-0.28-0.78-0.78v-6.82
            c0-1.33-0.8-2.18-2.01-2.18c-1.25,0-2.08,0.95-2.11,2.41l0.02,6.59c0,0.5-0.28,0.78-0.78,0.78h-2.26c-0.5,0-0.78-0.28-0.78-0.78
            v-10.98c0-0.5,0.27-0.78,0.78-0.78h1.81c0.47,0,0.78,0.28,0.78,0.78v1.15c0.7-1.45,2.06-2.28,3.86-2.28
            C983.74,909.73,985.5,911.69,985.5,914.72"/>
        <path d="M889.73,933.57v1.98c0,0.48-0.3,0.78-0.8,0.78h-6.64v4.64h5.49c0.5,0,0.78,0.28,0.78,0.78v1.96
            c0,0.5-0.28,0.8-0.78,0.8h-5.52v5.06c0,0.5-0.3,0.78-0.78,0.78h-2.43c-0.5,0-0.78-0.27-0.78-0.78v-16c0-0.5,0.28-0.78,0.78-0.78
            h9.88C889.42,932.79,889.73,933.07,889.73,933.57"/>
        <path d="M890.48,944.05c0-4.04,2.51-6.59,6.54-6.59c4.01,0,6.54,2.56,6.54,6.59c0,4.06-2.53,6.62-6.54,6.62
            C892.98,950.67,890.48,948.11,890.48,944.05 M899.55,944.05c0-2.16-0.98-3.53-2.53-3.53c-1.55,0-2.53,1.38-2.53,3.53
            c0,2.18,0.98,3.53,2.53,3.53C898.57,947.58,899.55,946.23,899.55,944.05"/>
        <path d="M917.08,938.58v10.98c0,0.5-0.3,0.78-0.8,0.78h-1.73c-0.48,0-0.78-0.28-0.78-0.78v-1.05
            c-0.73,1.38-2.13,2.16-3.99,2.16c-2.63,0-4.29-1.6-4.29-4.91v-7.17c0-0.5,0.28-0.78,0.78-0.78h2.26c0.5,0,0.78,0.27,0.78,0.78
            v6.9c0,1.28,0.75,2.06,1.96,2.06c1.2,0,1.98-0.88,2.01-2.28l-0.03-6.67c0-0.5,0.3-0.78,0.78-0.78h2.26
            C916.78,937.81,917.08,938.08,917.08,938.58"/>
        <path d="M931.72,942.44v7.12c0,0.5-0.28,0.78-0.78,0.78h-2.26c-0.5,0-0.78-0.28-0.78-0.78v-6.82
            c0-1.33-0.8-2.18-2.01-2.18c-1.25,0-2.08,0.95-2.11,2.41l0.02,6.59c0,0.5-0.28,0.78-0.78,0.78h-2.26c-0.5,0-0.78-0.28-0.78-0.78
            v-10.98c0-0.5,0.28-0.78,0.78-0.78h1.81c0.48,0,0.78,0.28,0.78,0.78v1.15c0.7-1.45,2.05-2.28,3.86-2.28
            C929.96,937.45,931.72,939.41,931.72,942.44"/>
        <path d="M946.23,932.82v16.75c0,0.5-0.28,0.78-0.78,0.78h-1.81c-0.5,0-0.78-0.28-0.78-0.78v-1.33
            c-0.88,1.53-2.28,2.41-4.09,2.41c-3.11,0-5.07-2.53-5.07-6.57c0-4.06,1.96-6.62,5.09-6.62c1.51,0,2.73,0.6,3.61,1.71v-6.34
            c0-0.5,0.28-0.78,0.78-0.78h2.26C945.96,932.04,946.23,932.31,946.23,932.82 M942.42,944.05c0-2.16-0.9-3.53-2.33-3.53
            c-1.45,0-2.36,1.38-2.36,3.53c0,2.16,0.9,3.53,2.36,3.53C941.52,947.58,942.42,946.2,942.42,944.05"/>
        <path d="M960.2,942.04v7.52c0,0.5-0.28,0.78-0.78,0.78h-1.78c-0.5,0-0.78-0.28-0.78-0.78v-0.88
            c-0.78,1.28-2.21,1.98-4.04,1.98c-2.63,0-4.29-1.43-4.29-3.71c0-2.46,1.93-3.99,5.11-3.99c1,0,2.03,0.15,2.78,0.43v-1.3
            c0-1.2-0.65-1.93-1.73-1.93c-0.78,0-1.35,0.38-1.68,0.95c-0.27,0.4-0.5,0.58-0.95,0.53l-2.18-0.35c-0.53-0.1-0.78-0.45-0.55-0.95
            c0.8-1.78,2.73-2.88,5.39-2.88C958.09,937.45,960.2,939.21,960.2,942.04 M956.44,945.9v-0.48c-0.63-0.27-1.35-0.42-2.03-0.42
            c-1.28,0-2.06,0.58-2.06,1.55c0,0.93,0.68,1.5,1.83,1.5C955.59,948.06,956.44,947.23,956.44,945.9"/>
        <path d="M970.05,948.09v1.56c0,0.5-0.3,0.8-0.8,0.8h-1.76c-2.63,0-4.26-1.48-4.26-3.84l-0.03-5.72h-0.73
            c-0.5,0-0.78-0.27-0.78-0.78l-0.03-1.53c0-0.5,0.3-0.78,0.78-0.78h0.88l1.03-2.51c0.17-0.4,0.48-0.58,0.93-0.58h0.93
            c0.5,0,0.8,0.28,0.8,0.78v2.31H969c0.5,0,0.78,0.28,0.78,0.78v1.53c0,0.5-0.28,0.78-0.78,0.78h-1.96v4.74
            c0,1.03,0.63,1.65,1.6,1.65h0.6C969.75,947.28,970.05,947.58,970.05,948.09"/>
        <path d="M971.66,934.02c0-1.2,0.95-2.16,2.16-2.16c1.18,0,2.13,0.95,2.13,2.16c0,1.18-0.95,2.16-2.13,2.16
            C972.61,936.18,971.66,935.2,971.66,934.02 M974.94,950.34h-2.26c-0.5,0-0.78-0.28-0.78-0.78v-10.98c0-0.5,0.28-0.78,0.78-0.78
            h2.26c0.5,0,0.78,0.27,0.78,0.78v10.98C975.72,950.07,975.44,950.34,974.94,950.34"/>
        <path d="M977.97,944.05c0-4.04,2.51-6.59,6.54-6.59c4.01,0,6.54,2.56,6.54,6.59c0,4.06-2.53,6.62-6.54,6.62
            C980.48,950.67,977.97,948.11,977.97,944.05 M987.05,944.05c0-2.16-0.98-3.53-2.53-3.53c-1.55,0-2.53,1.38-2.53,3.53
            c0,2.18,0.98,3.53,2.53,3.53C986.07,947.58,987.05,946.23,987.05,944.05"/>
        <path d="M1005,942.44v7.12c0,0.5-0.28,0.78-0.78,0.78h-2.26c-0.5,0-0.78-0.28-0.78-0.78v-6.82
            c0-1.33-0.8-2.18-2.01-2.18c-1.25,0-2.08,0.95-2.1,2.41l0.02,6.59c0,0.5-0.27,0.78-0.78,0.78h-2.26c-0.5,0-0.78-0.28-0.78-0.78
            v-10.98c0-0.5,0.28-0.78,0.78-0.78h1.81c0.48,0,0.78,0.28,0.78,0.78v1.15c0.7-1.45,2.05-2.28,3.86-2.28
            C1003.24,937.45,1005,939.41,1005,942.44"/>
        <path d="M909.08,973l2.48-0.43c0.48-0.08,0.75,0.12,0.98,0.55c0.58,1.33,1.73,2.03,3.39,2.03
            c1.55,0,2.48-0.63,2.48-1.76c0-3.48-9.48-1.9-9.48-8.05c0-3.51,2.88-5.21,6.47-5.21c3.53,0,5.72,1.73,6.52,4.14
            c0.15,0.5-0.1,0.83-0.63,0.93l-2.46,0.4c-0.45,0.08-0.75-0.12-0.95-0.55c-0.48-1.05-1.38-1.7-2.61-1.7
            c-1.45,0-2.31,0.8-2.31,1.76c0,3.13,9.5,1.73,9.5,7.9c0,3.31-2.53,5.39-6.49,5.39c-4.01,0-6.57-1.88-7.47-4.46
            C908.33,973.42,908.58,973.1,909.08,973"/>
        <path d="M936.05,966.3v10.98c0,0.5-0.3,0.78-0.8,0.78h-1.73c-0.48,0-0.78-0.28-0.78-0.78v-1.05
            c-0.73,1.38-2.13,2.16-3.99,2.16c-2.63,0-4.29-1.6-4.29-4.91v-7.17c0-0.5,0.28-0.78,0.78-0.78h2.26c0.5,0,0.78,0.28,0.78,0.78
            v6.9c0,1.28,0.75,2.06,1.96,2.06c1.2,0,1.98-0.88,2.01-2.28l-0.03-6.67c0-0.5,0.3-0.78,0.78-0.78h2.26
            C935.75,965.53,936.05,965.8,936.05,966.3"/>
        <path d="M938.74,961.74c0-1.2,0.95-2.16,2.16-2.16c1.18,0,2.13,0.95,2.13,2.16c0,1.18-0.95,2.16-2.13,2.16
            C939.69,963.9,938.74,962.92,938.74,961.74 M942.02,978.06h-2.26c-0.5,0-0.78-0.28-0.78-0.78V966.3c0-0.5,0.28-0.78,0.78-0.78
            h2.26c0.5,0,0.78,0.28,0.78,0.78v10.98C942.8,977.79,942.52,978.06,942.02,978.06"/>
        <path d="M951.22,965.18c2.91,0,4.99,1.45,5.74,3.84c0.18,0.5-0.1,0.83-0.6,0.93l-2.03,0.33
            c-0.48,0.08-0.75-0.12-0.95-0.58c-0.35-0.83-0.98-1.43-1.98-1.43c-1.43,0-2.33,1.33-2.33,3.51c0,2.16,0.88,3.51,2.38,3.51
            c0.98,0,1.68-0.53,2.03-1.63c0.15-0.48,0.45-0.68,0.9-0.63l2.06,0.3c0.5,0.1,0.75,0.43,0.63,0.95c-0.73,2.63-2.83,4.09-5.79,4.09
            c-3.84,0-6.22-2.53-6.22-6.59C945.05,967.71,947.43,965.18,951.22,965.18"/>
        <path d="M958.82,961.74c0-1.2,0.95-2.16,2.16-2.16c1.18,0,2.13,0.95,2.13,2.16c0,1.18-0.95,2.16-2.13,2.16
            C959.77,963.9,958.82,962.92,958.82,961.74 M962.1,978.06h-2.26c-0.5,0-0.78-0.28-0.78-0.78V966.3c0-0.5,0.28-0.78,0.78-0.78
            h2.26c0.5,0,0.78,0.28,0.78,0.78v10.98C962.88,977.79,962.6,978.06,962.1,978.06"/>
        <path d="M977.65,960.54v16.75c0,0.5-0.28,0.78-0.78,0.78h-1.81c-0.5,0-0.78-0.28-0.78-0.78v-1.33
            c-0.88,1.53-2.28,2.41-4.09,2.41c-3.11,0-5.06-2.53-5.06-6.57c0-4.06,1.96-6.62,5.09-6.62c1.5,0,2.73,0.6,3.61,1.7v-6.34
            c0-0.5,0.28-0.78,0.78-0.78h2.26C977.37,959.76,977.65,960.04,977.65,960.54 M973.83,971.77c0-2.16-0.9-3.54-2.33-3.54
            c-1.45,0-2.36,1.38-2.36,3.54c0,2.16,0.9,3.53,2.36,3.53C972.93,975.3,973.83,973.93,973.83,971.77"/>
        <path d="M979.9,971.69c0-3.93,2.28-6.52,6.34-6.52c3.74,0,5.99,2.18,6.22,6.67c0.02,0.53-0.25,0.8-0.75,0.8h-7.75
            c0.23,1.86,1.18,2.98,2.81,2.98c0.88,0,1.58-0.35,1.98-1.03c0.28-0.38,0.53-0.55,0.98-0.48l1.76,0.3
            c0.53,0.08,0.78,0.43,0.55,0.93c-0.85,1.93-2.86,3.03-5.54,3.03C982.46,978.39,979.9,975.88,979.9,971.69 M988.43,970.52
            c-0.2-1.68-0.9-2.61-2.18-2.61c-1.3,0-2.08,0.9-2.28,2.61H988.43z"/>
        <path d="M891.63,992.77c0,3.54-2.51,5.79-6.49,5.79h-2.86v5.24c0,0.5-0.3,0.78-0.78,0.78h-2.46
            c-0.5,0-0.78-0.28-0.78-0.78v-16c0-0.5,0.28-0.78,0.78-0.78h6.09C889.12,987.03,891.63,989.24,891.63,992.77 M887.44,992.77
            c0-1.53-1.08-2.48-2.73-2.48h-2.43v5.02h2.43C886.37,995.3,887.44,994.33,887.44,992.77"/>
        <path d="M901.58,992.34v2.26c0,0.4-0.23,0.63-0.58,0.63h-0.15c-2.13,0-3.41,1.3-3.48,3.48l0.03,5.09
            c0,0.5-0.28,0.78-0.78,0.78h-2.26c-0.5,0-0.78-0.28-0.78-0.78v-10.98c0-0.5,0.28-0.78,0.78-0.78h1.65c0.48,0,0.78,0.28,0.78,0.78
            l-0.03,2.08c0.65-1.93,2.08-3.18,3.96-3.18h0.2C901.36,991.72,901.58,991.94,901.58,992.34"/>
        <path d="M902.11,998.21c0-3.94,2.28-6.52,6.34-6.52c3.74,0,5.99,2.18,6.22,6.67c0.03,0.53-0.25,0.8-0.75,0.8h-7.75
            c0.23,1.86,1.18,2.98,2.81,2.98c0.88,0,1.58-0.35,1.98-1.03c0.28-0.38,0.53-0.55,0.98-0.48l1.76,0.3
            c0.53,0.08,0.78,0.43,0.55,0.93c-0.85,1.93-2.86,3.03-5.54,3.03C904.67,1004.91,902.11,1002.4,902.11,998.21 M910.63,997.03
            c-0.2-1.68-0.9-2.61-2.18-2.61c-1.3,0-2.08,0.9-2.28,2.61H910.63z"/>
        <path d="M928.13,992.95l-3.53,10.98c-0.15,0.43-0.45,0.65-0.9,0.65h-3.84c-0.45,0-0.75-0.22-0.88-0.65l-3.54-11.01
            c-0.15-0.55,0.08-0.88,0.65-0.88h2.51c0.48,0,0.75,0.2,0.88,0.65l2.36,8.52l2.36-8.52c0.12-0.45,0.4-0.65,0.88-0.65h2.41
            C928.03,992.04,928.28,992.37,928.13,992.95"/>
        <path d="M929.11,998.21c0-3.94,2.28-6.52,6.34-6.52c3.73,0,5.99,2.18,6.22,6.67c0.03,0.53-0.25,0.8-0.75,0.8h-7.75
            c0.23,1.86,1.18,2.98,2.81,2.98c0.88,0,1.58-0.35,1.98-1.03c0.27-0.38,0.53-0.55,0.98-0.48l1.76,0.3
            c0.53,0.08,0.78,0.43,0.55,0.93c-0.85,1.93-2.86,3.03-5.54,3.03C931.67,1004.91,929.11,1002.4,929.11,998.21 M937.64,997.03
            c-0.2-1.68-0.9-2.61-2.18-2.61c-1.3,0-2.08,0.9-2.28,2.61H937.64z"/>
        <path d="M955.44,996.68v7.12c0,0.5-0.28,0.78-0.78,0.78h-2.26c-0.5,0-0.78-0.27-0.78-0.78v-6.82
            c0-1.33-0.8-2.18-2.01-2.18c-1.25,0-2.08,0.95-2.1,2.41l0.02,6.59c0,0.5-0.27,0.78-0.78,0.78h-2.26c-0.5,0-0.78-0.27-0.78-0.78
            v-10.98c0-0.5,0.28-0.78,0.78-0.78h1.81c0.48,0,0.78,0.28,0.78,0.78v1.15c0.7-1.46,2.05-2.28,3.86-2.28
            C953.68,991.69,955.44,993.65,955.44,996.68"/>
        <path d="M965.34,1002.32v1.55c0,0.5-0.3,0.8-0.8,0.8h-1.76c-2.63,0-4.26-1.48-4.26-3.84l-0.02-5.72h-0.73
            c-0.5,0-0.78-0.28-0.78-0.78l-0.03-1.53c0-0.5,0.3-0.78,0.78-0.78h0.88l1.03-2.51c0.18-0.4,0.48-0.58,0.93-0.58h0.93
            c0.5,0,0.8,0.28,0.8,0.78v2.31h1.98c0.5,0,0.78,0.28,0.78,0.78v1.53c0,0.5-0.28,0.78-0.78,0.78h-1.96v4.74
            c0,1.03,0.63,1.66,1.6,1.66h0.6C965.04,1001.52,965.34,1001.82,965.34,1002.32"/>
        <path d="M966.94,988.26c0-1.2,0.95-2.16,2.16-2.16c1.18,0,2.13,0.95,2.13,2.16c0,1.18-0.95,2.16-2.13,2.16
            C967.9,990.41,966.94,989.44,966.94,988.26 M970.23,1004.58h-2.26c-0.5,0-0.78-0.28-0.78-0.78v-10.98c0-0.5,0.28-0.78,0.78-0.78
            h2.26c0.5,0,0.78,0.28,0.78,0.78v10.98C971.01,1004.3,970.73,1004.58,970.23,1004.58"/>
        <path d="M973.26,998.29c0-4.04,2.51-6.59,6.54-6.59c4.01,0,6.54,2.56,6.54,6.59c0,4.06-2.53,6.62-6.54,6.62
            C975.77,1004.91,973.26,1002.35,973.26,998.29 M982.34,998.29c0-2.16-0.98-3.54-2.53-3.54c-1.55,0-2.53,1.38-2.53,3.54
            c0,2.18,0.98,3.53,2.53,3.53C981.36,1001.82,982.34,1000.47,982.34,998.29"/>
        <path d="M1000.29,996.68v7.12c0,0.5-0.28,0.78-0.78,0.78h-2.26c-0.5,0-0.78-0.27-0.78-0.78v-6.82
            c0-1.33-0.8-2.18-2.01-2.18c-1.25,0-2.08,0.95-2.11,2.41l0.02,6.59c0,0.5-0.28,0.78-0.78,0.78h-2.26c-0.5,0-0.78-0.27-0.78-0.78
            v-10.98c0-0.5,0.27-0.78,0.78-0.78h1.81c0.48,0,0.78,0.28,0.78,0.78v1.15c0.7-1.46,2.06-2.28,3.86-2.28
            C998.53,991.69,1000.29,993.65,1000.29,996.68"/>
        <path d="M885.58,962.08h-0.25c-2.41,0-4.21,1.36-4.67,4.01l-0.05,0.3h-0.96c-0.33,0-0.61,0.24-0.67,0.56l-0.13,0.7
            c-0.08,0.42,0.25,0.8,0.67,0.8h0.72l-0.74,4.61c-0.18,0.93-0.68,1.07-1.33,1.07h-0.49c-0.33,0-0.51,0.14-0.57,0.46l-0.34,1.39
            c-0.07,0.42,0.56,0.85,1.44,0.85c1.81,0,3.5-0.85,4.02-3.36l0.82-5.03h1.16c0.33,0,0.61-0.23,0.67-0.56l0.13-0.7
            c0.08-0.42-0.25-0.8-0.67-0.8h-0.91l0.05-0.3c0.18-0.93,0.74-1.36,1.39-1.36h0.49c0.33,0,0.61-0.24,0.67-0.56l0.23-1.3
            C886.33,962.47,886.01,962.08,885.58,962.08"/>
        <path d="M890.91,966.19c-2.31,0-4.63,1.69-5.11,4.3c-0.46,2.59,1.3,4.28,3.61,4.28c2.34,0,4.68-1.69,5.14-4.28
            C895.03,967.88,893.25,966.19,890.91,966.19 M891.86,970.48c-0.18,0.93-1.07,1.71-2.01,1.71s-1.58-0.77-1.41-1.71
            c0.18-0.93,1.09-1.71,2.03-1.71C891.4,968.78,892.03,969.55,891.86,970.48"/>
        <path d="M902.21,966.19c-0.8,0-2.29,0.05-2.99,1.62l0.22-0.6c0.08-0.42-0.24-0.8-0.67-0.8h-1.27
            c-0.33,0-0.61,0.24-0.67,0.56l-1.2,6.85c-0.07,0.42,0.25,0.8,0.67,0.8h1.42c0.33,0,0.61-0.24,0.67-0.57l0.36-2.13
            c0.44-2.46,1.2-3.06,2.25-3.06c0.16,0,0.42,0,0.72,0.06c0.31,0.06,0.62-0.12,0.75-0.41l0.59-1.36
            C903.24,966.71,903.01,966.19,902.21,966.19"/>
        <path d="M853.08,936.07c-10.52-25.39-39.72-37.49-65.11-26.97c-25.39,10.52-37.48,39.72-26.97,65.11
            c5.09,12.3,14.67,21.88,26.97,26.97c6.15,2.55,12.61,3.82,19.07,3.82c6.46,0,12.92-1.27,19.07-3.82
            c12.3-5.09,21.88-14.67,26.97-26.97C858.18,961.91,858.18,948.37,853.08,936.07 M784.59,964.44c-2.48-6-2.48-12.6,0-18.6
            c2.48-6,7.16-10.67,13.15-13.15c6-2.48,12.6-2.48,18.6,0c6,2.48,10.67,7.16,13.15,13.15c5.13,12.38-0.77,26.63-13.15,31.75
            C803.96,982.72,789.72,976.82,784.59,964.44 M824.48,913.04L824.48,913.04l-6.5,15.7c-7.05-2.92-14.82-2.92-21.87,0l-6.51-15.7
            C800.85,908.39,813.23,908.39,824.48,913.04 M764.97,937.71l15.68,6.5v0c-2.92,7.05-2.92,14.81,0,21.87l-15.7,6.5
            C760.14,960.97,760.5,948.49,764.97,937.71 M789.61,997.24L789.61,997.24l6.52-15.73c3.45,1.43,7.17,2.2,10.96,2.2
            c3.64,0,7.33-0.7,10.89-2.18l6.5,15.7C813.23,1001.89,800.85,1001.89,789.61,997.24 M849.14,972.58L849.14,972.58l-15.7-6.5
            c2.92-7.05,2.92-14.82,0-21.87l15.7-6.51C853.8,948.95,853.8,961.33,849.14,972.58"/>
		
	</g>
    <g id="nspw_white" class="svg_white">
        <path d="M76.54,998.06c0-4.31,2.99-7,8.41-7c4.31,0,6.07,2.07,6.87,3.61h0.13v-3.52c0-2.6-2.16-3.74-4.84-3.74
            c-2.29,0-3.21,0.66-3.87,1.45c-0.66,0.75-1.32,1.67-2.99,1.67c-1.94,0-2.95-1.28-2.95-2.99c0-4.44,5.63-6.47,10.39-6.47
            c6.25,0,10.43,2.38,10.43,9.51v8.23l0.4,3.21c0.22,1.8-1.19,3.39-2.99,3.39c-1.54,0-2.77-1.14-2.99-2.68l-0.35-2.6h-0.22
            c-0.97,3.17-3.39,5.19-7.88,5.19C79.75,1005.32,76.54,1002.99,76.54,998.06z M92.16,997.79c0-1.45-2.55-1.94-4.88-1.94
            c-2.73,0-4.8,0.48-4.8,1.94s2.07,1.94,4.8,1.94C89.61,999.73,92.16,999.2,92.16,997.79z"/>
        <path d="M103.38,1001.89v-13.91l-1.28,0.09c-1.5,0.13-2.9-1.19-2.9-3.08c0-1.72,1.28-3.12,2.86-2.95l1.32,0.13
            v-0.79c0-5.68,3.26-8.58,8.1-8.58c3.17,0,5.5,1.41,5.5,3.96c0,1.58-0.97,2.99-2.29,2.99c-0.92,0-1.41-0.57-2.77-0.57
            c-1.45,0-2.51,0.75-2.51,2.25v0.66l2.99-0.18c1.58,0,2.99,1.36,2.99,3.12c0,1.85-1.32,3.21-2.95,3.12l-2.95-0.13v13.6
            c0,1.98-0.97,3.79-3.08,3.79C104.57,1005.41,103.38,1003.87,103.38,1001.89z"/>
        <path d="M117.86,999.95c0-1.85,1.5-3.34,3.04-3.34c1.23,0,1.85,0.75,2.64,1.36c0.75,0.57,1.8,1.28,4.8,1.28
            c3.04,0,5.06-0.18,5.06-2.07c0-1.58-3.26-1.67-6.03-1.89c-4.88-0.4-8.93-1.28-8.93-6.86c0-4.84,3.87-7.53,10.34-7.53
            c5.68,0,9.86,1.85,9.86,5.1c0,1.89-1.45,3.34-2.99,3.34c-0.7,0-1.36-0.31-1.89-0.84c-1.06-1.14-2.64-1.5-5.15-1.5
            c-2.82,0-4.58,0.57-4.58,1.85c0,1.45,1.67,1.67,5.19,1.94c4.44,0.35,9.73,0.79,9.73,6.29c0,5.68-4.58,8.32-10.61,8.32
            C122.13,1005.41,117.86,1003.65,117.86,999.95z"/>
        <path d="M142.63,1010.87v-21.65l-0.35-5.19c-0.13-1.63,1.19-2.99,2.82-2.99c1.5,0,2.77,1.14,2.86,2.64l0.26,4.49
            h0.35c1.1-5.46,4.71-7.22,8.8-7.22c4.97,0.13,8.41,3.52,8.41,11.97c0,8.89-4.71,12.32-9.46,12.32c-3.78,0-6.6-2.16-7.13-6.91
            h-0.48v6.56v5.99c0,1.67-1.36,3.04-3.04,3.04S142.63,1012.54,142.63,1010.87z M159.84,993c0-4.09-2.16-5.32-5.46-5.32
            c-4.14,0-5.77,1.63-5.77,5.37c0,3.34,1.76,5.28,5.81,5.28C157.72,998.32,159.84,996.92,159.84,993z"/>
        <path d="M169.07,1001.1c0-2.38,1.45-4.09,3.83-4.09s3.83,1.72,3.83,4.09c0,2.38-1.45,4.05-3.83,4.05
            S169.07,1003.47,169.07,1001.1z"/>
        <path d="M180.03,993.09c0-7.17,3.92-12.19,11.71-12.19c7.83,0,11.75,5.02,11.75,12.19s-3.92,12.32-11.75,12.32
            C183.95,1005.41,180.03,1000.26,180.03,993.09z M197.72,993.04c0-4-2.11-5.76-5.94-5.76c-3.87,0-5.98,1.76-5.98,5.76
            c0,4.14,2.11,5.99,5.94,5.99C195.61,999.03,197.72,997.18,197.72,993.04z"/>
        <path d="M207.93,1002.37v-13.16l-0.35-5.19c-0.13-1.63,1.19-2.99,2.82-2.99c1.5,0,2.77,1.14,2.86,2.64l0.26,4.36
            h0.4c0.84-5.41,3.7-7,5.77-7c2.02,0,2.99,1.67,2.99,3.48c0,2.07-1.32,4.27-3.96,4.27c-2.16,0-4.71,0.97-4.71,3.65v9.95
            c0,1.67-1.36,3.04-3.04,3.04S207.93,1004.04,207.93,1002.37z"/>
        <path d="M242.43,985.12l-0.13,0.53c2.42,0.44,3.34,2.24,3.34,3.96c0,5.33-4.88,7.44-9.99,7.44
            c-2.46,0-4.18-0.22-5.72-0.88c-0.57,0.35-1.06,1.06-1.06,1.67s0.53,1.19,2.02,1.19h9.59c4.58,0,7.26,2.2,7.26,6.47
            c0,4.44-3.21,8.41-12.67,8.41c-7.39,0-11.53-1.14-11.53-5.37c0-2.46,2.07-3.87,4.88-3.87v-0.53c-3.43-0.31-4.44-2.38-4.44-4.22
            c0-2.95,1.98-4.05,4.49-4.4c-2.33-1.14-3.56-3.79-3.56-6.51c0-5.02,4.05-8.1,10.3-8.1c1.63,0,4.14,0.26,5.76,0.97l3.7-1.36
            c2.07-0.79,3.92,0.22,3.92,2.46c0,1.8-1.19,2.95-2.86,2.68L242.43,985.12z M230.15,1004.7c-0.48,0.04-1.14,0.35-1.14,1.01
            c0,1.98,2.51,2.42,6.07,2.42c4,0,6.78-0.7,6.78-2.16c0-1.28-1.45-1.28-2.9-1.28H230.15z M240.36,989.13
            c0-2.02-2.42-2.68-5.15-2.68c-2.9,0-5.1,0.62-5.1,2.68c0,1.98,1.98,2.68,5.1,2.68C237.54,991.81,240.36,991.37,240.36,989.13z"/>
        <path d="M251,1009.28l12.89-33.58c0.66-1.8,2.29-2.46,3.78-1.89s2.2,2.16,1.5,3.92l-12.89,33.58
            c-0.66,1.8-2.29,2.46-3.78,1.89S250.3,1011.04,251,1009.28z"/>
        <path d="M273,1002.37v-13.16l-0.31-5.19c-0.09-1.63,1.19-2.99,2.82-2.99c1.5,0,2.77,1.14,2.86,2.64l0.18,3.52h0.35
            c0.79-4.49,4.18-6.29,7.61-6.29c4.58,0,7.52,2.73,7.52,8.32v13.16c0,1.67-1.36,3.04-3.04,3.04c-1.67,0-3.04-1.36-3.04-3.04v-11.35
            c0-2.24-1.1-3.65-3.7-3.65c-2.77,0-5.19,1.76-5.19,3.74v11.27c0,1.67-1.36,3.04-3.04,3.04C274.37,1005.41,273,1004.04,273,1002.37
            z"/>
        <path class="st140" d="M297.69,999.95c0-1.85,1.5-3.34,3.04-3.34c1.23,0,1.85,0.75,2.64,1.36c0.75,0.57,1.8,1.28,4.8,1.28
            c3.04,0,5.06-0.18,5.06-2.07c0-1.58-3.26-1.67-6.03-1.89c-4.88-0.4-8.93-1.28-8.93-6.86c0-4.84,3.87-7.53,10.34-7.53
            c5.68,0,9.86,1.85,9.86,5.1c0,1.89-1.45,3.34-2.99,3.34c-0.7,0-1.36-0.31-1.89-0.84c-1.06-1.14-2.64-1.5-5.15-1.5
            c-2.82,0-4.58,0.57-4.58,1.85c0,1.45,1.67,1.67,5.19,1.94c4.44,0.35,9.73,0.79,9.73,6.29c0,5.68-4.58,8.32-10.61,8.32
            C301.96,1005.41,297.69,1003.65,297.69,999.95z"/>
        <path class="st140" d="M322.46,1010.87v-21.65l-0.35-5.19c-0.13-1.63,1.19-2.99,2.82-2.99c1.5,0,2.77,1.14,2.86,2.64l0.26,4.49
            h0.35c1.1-5.46,4.71-7.22,8.8-7.22c4.97,0.13,8.41,3.52,8.41,11.97c0,8.89-4.71,12.32-9.46,12.32c-3.78,0-6.6-2.16-7.13-6.91
            h-0.48v6.56v5.99c0,1.67-1.36,3.04-3.04,3.04S322.46,1012.54,322.46,1010.87z M339.67,993c0-4.09-2.16-5.32-5.46-5.32
            c-4.14,0-5.77,1.63-5.77,5.37c0,3.34,1.76,5.28,5.81,5.28C337.56,998.32,339.67,996.92,339.67,993z"/>
        <path class="st140" d="M351.99,1001.23l-4.31-15.45c-0.57-2.11,0.35-4.75,3.12-4.75c1.5,0,2.82,1.06,3.17,2.68l3.17,14.43h0.18
            l2.42-13.03c0.44-2.33,1.89-4.09,4.31-4.09s3.74,1.8,4.18,4.09l2.55,13.03H371l2.95-14.26c0.35-1.63,1.45-2.86,3.34-2.86
            c2.33,0,3.52,2.29,2.95,4.88l-4.31,15.31c-0.66,2.42-1.89,4.18-4.71,4.18c-2.77,0-4.27-2.02-4.8-4.58l-2.24-10.43h-0.48
            l-2.16,10.43c-0.57,2.77-2.16,4.58-4.75,4.58C353.97,1005.41,352.69,1003.74,351.99,1001.23z"/>
    </g>
</svg>
