<?xml version="1.0" encoding="utf-8"?>
<!-- Generator: Adobe Illustrator 26.4.1, SVG Export Plug-In . SVG Version: 6.00 Build 0)  -->
<svg version="1.1" id="Walk_With_Us" xmlns="http://www.w3.org/2000/svg" xmlns:xlink="http://www.w3.org/1999/xlink" x="0px"
	 y="0px" viewBox="0 0 1080 320" style="enable-background:new 0 0 1080 320;" xml:space="preserve">
<style type="text/css">
	.swwu_st1{fill:#524584;}
	.swwu_st2{fill:#3A2D72;}
	.swwu_st3{fill:#504383;}
	.swwu_st4{fill:#3B2D72;}
	.swwu_st5{fill:#514483;}
	.swwu_st6{fill:#3C2E73;}
	.swwu_st7{fill:#FEFE5E;}
</style>
<g>
	<g>
		<path style="clip-path:url(#SVGID_00000084515419474739015320000012675640516459965358_);fill:#F0F7FA;" d="M370.82,298.2
			c-21.3-1.19-41.62-8.48-62.68-11.34c-20.2-2.6-40.69-2.32-60.99-1.65c-28.16,1.01-56.27,4.72-84.48,3.48
			c-12.71-0.36-25.45-2.02-37.56-6.03c-26.85-8.45-50.01-29.59-42.79-60.09c2.37-10.86,8.06-20.57,14.53-29.48
			c5.93-8.32,12.55-16.11,19.57-23.53c9.08-9.73,18.48-19.21,26.42-29.92c7.71-10.24,14.68-22.45,13.49-35.71
			c-0.85-11.99-7.23-23.09-6.76-35.21c0.32-6.08,2.74-12.44,8.03-15.86c7.37-5.08,19.87-7.83,28.82-8.26
			c8.18-0.27,16.34,0.9,24.35,2.5c8.68,1.68,17.26,3.8,25.79,6.09c17.05,4.38,33.45,10.77,49.83,17.13c9.16,3.49,18.34,7,27.85,9.4
			c1.38,0.33,2.76,0.65,4.15,0.92c1.56-0.21,3.12-0.44,4.68-0.71c3.93-0.68,7.85-1.42,11.74-2.3c17.9-4.05,34.77-11.88,53.06-14.18
			c11.07-1.7,22.38-1.51,33.4,0.5c7.76,1.32,15.45,3.06,23.26,4.08c5.93,0.75,11.89,1.28,17.86,1.53
			c28.41,0.68,57.06-3.51,83.99-12.6c21.3-7.2,40.94-18.43,61.91-26.44c14.71-5.53,30.23-9.25,45.96-9.97
			c13.47-0.46,27.14,0.68,40.06,4.69c8.84,2.71,17.17,6.85,25.11,11.54c15.32,9.04,30.73,18.96,48.52,22.13
			c9.8,1.91,19.89,2.62,29.81,1.2c12.42-1.91,24.36-6.02,36.7-8.31c14.3-2.71,29.22-2.19,43.3,1.52
			c12.76,3.36,24.83,9.05,35.71,16.49c7.32,4.81,14.4,10.12,22.21,14.09c8.09,4.22,16.76,7.27,25.65,9.3
			c7.15,1.76,14.64,2.13,21.58,4.68c9.33,3.59,13.67,9.78,14.49,20.95c1.02,11.01-3.22,21.46-7.36,31.43
			c-3.74,9.18-6.92,18.69-8.14,28.56c-1.08,7.92-1.14,16.02-3.12,23.8c-2.26,8.37-7.29,15.91-14.06,21.31
			c-5.87,4.73-12.71,8.08-19.57,11.12c-7.86,3.43-15.95,6.4-24.29,8.42c-8.95,2.15-18.13,3.15-27.32,3.54
			c-13.38,0.52-26.85-0.03-40.04-2.41c-13.27-2.28-26.11-6.44-38.55-11.51c-6.73-2.71-13.66-4.89-20.73-6.52
			c-5.12-1.28-10.38-1.88-15.66-1.83c-13.55,0.2-26.93,4.06-40.53,2.78c-15.42-1.08-30.39-5.32-45.71-7.02
			c-23.29-1.57-50.4,17.46-69.34,29.9c-9.04,6.18-18.66,11.7-29.81,12.58c-10.34,1.17-20.73-0.65-30.59-3.76
			c-14.97-4.94-29.93-12.07-46.05-11.29c-5.62,0.22-11.15,1.36-16.62,2.59c-9.1,2.08-17.86,5.37-26.33,9.26
			c-23.95,10.48-44.67,27.65-69.83,35.4c-8.18,2.38-16.69,3.22-25.19,3.22C375.95,298.4,373.38,298.33,370.82,298.2z"/>
	</g>
	<g>
		<path class="swwu_st1" d="M964.62,159.2c3.28-1.15,5.29,0.45,9.03,0.37c-0.11,2.9-2.14,4.62-4.47,5.95c-4.59,2.61-9.5,3.08-14.57,1.65
			c-2.54-0.72-4.95-3.45-6.38-5.94c2.43-0.6,5.52,0.4,7.93-0.21"/>
		<path class="swwu_st2" d="M157.72,170.78c-0.69-11.86-0.82-24.82,1.43-36.55c0.56-2.9,1.43-5.75,2.37-8.55
			c0.58-1.72,1.44-3.38,2.41-4.93c3.51-5.64,8.28-7.72,14.77-6.63c3.79,0.64,7.4,1.81,10.7,3.83c7.19,4.4,10.89,10.86,11.19,19.25
			c0.17,4.85-0.77,9.57-2.11,14.19c-1.54,5.28-3.33,10.49-4.83,15.78c-0.73,2.56-1.11,5.23-1.5,7.88c-0.16,1.1-0.08,2.27,0.12,3.37
			c0.62,3.49,2.68,5.83,5.98,7.08c1.24,0.47,2.29,0.24,2.98-0.86c0.81-1.31,1.52-2.71,2.05-4.15c0.97-2.65,1.68-5.39,2.68-8.03
			c0.89-2.37,1.83-4.76,3.1-6.93c1.73-2.98,3.29-3.47,6.76-2.83c5.3,0.97,9.45,3.78,12.32,8.24c1.82,2.83,3.2,5.95,4.64,9.01
			c0.96,2.04,1.62,4.22,2.54,6.27c0.45,1.01,1.11,1.96,1.85,2.78c0.8,0.88,2.33,0.6,2.89-0.46c0.32-0.61,0.64-1.3,0.69-1.97
			c0.16-2.38,0.5-4.81,0.22-7.16c-0.98-8.27-2.17-16.51-3.31-24.76c-0.6-4.33-1.43-8.64-1.9-12.99c-0.33-3.08-0.48-6.22-0.26-9.29
			c0.39-5.38,3.23-9.21,8.19-11.41c2.61-1.16,5.36-1.81,8.18-2.03c2.81-0.22,5.64-0.26,8.46-0.27c3.59-0.01,6.55,1.5,9.07,3.97
			c2.36,2.31,3.94,5.13,5.23,8.14c2.02,4.7,3.21,9.63,4.09,14.64c1.98,11.3,2.74,22.71,2.65,34.16
			c-0.11,14.82-0.49,29.65-0.76,44.47c-0.05,2.54-0.54,6.57-0.85,9.38c-1.92,0.73-3.21-0.36-4.69,0.06
			c-3.01,0.87-4.83,0.09-6.08-2.75c-0.68-1.54-1.37-3.09-1.89-4.69c-2.19-6.72-6.84-11.72-12.19-15.82
			c-4.83-3.7-10.71-5.47-16.93-5.78c-6.28-0.31-12.31,0.89-18.21,2.84c-3.87,1.28-7.82,2.27-11.72,3.42
			c-3.55,1.05-6.55,0.06-9.11-1.89c-2.65-2.03-5.05-4.45-6.96-7.31c-4.13-6.2-8.18-12.47-12.66-18.41
			c-2.34-3.11-5.38-5.75-8.37-8.29C167.17,171.61,162.45,171.64,157.72,170.78z"/>
		<path class="swwu_st3" d="M157.65,170.05c4.8,0.49,9.51,1.56,13.27,4.76c2.98,2.55,6.02,5.19,8.37,8.29
			c4.48,5.94,8.54,12.21,12.66,18.41c1.91,2.86,4.31,5.29,6.96,7.31c2.55,1.96,5.56,2.94,9.11,1.89c3.9-1.15,7.85-2.14,11.72-3.42
			c5.9-1.95,11.93-3.15,18.21-2.84c6.22,0.31,12.1,2.08,16.93,5.78c5.35,4.1,10,9.1,12.19,15.82c0.52,1.6,1.21,3.15,1.89,4.69
			c1.25,2.84,3.07,3.61,6.08,2.75c1.48-0.42,2.99-0.72,4.82-1.07c0.69,8.04,1.18,16.08-0.26,24.07c-0.05,0.28-0.07,0.56-0.13,0.84
			c-3.08,15.57-14.82,22.52-28.33,21.76c-4.72-0.27-8.64-2.41-12.04-5.61c-2.91-2.74-5.19-5.99-6.99-9.52
			c-2.06-4.02-3.88-8.16-5.81-12.24c-0.66-1.4-1.28-2.84-2.08-4.16c-0.48-0.8-1.28-1.4-2.11-2.28c-0.74,0.72-1.51,1.18-1.85,1.85
			c-0.75,1.51-1.27,3.13-1.91,4.7c-1.32,3.27-2.45,6.63-4.03,9.77c-1.13,2.24-2.67,4.34-4.36,6.19c-3.68,4.05-8.5,5.62-13.82,4.96
			c-13.37-1.67-23.14-8.43-28.53-21.02c-2.35-5.5-3.77-11.28-4.17-17.21c-0.95-13.95-2.61-27.83-4.08-41.73
			C158.59,185.36,158.17,177.89,157.65,170.05z"/>
		<path class="swwu_st3" d="M901.55,123.96c-0.15,4.07-0.39,11.48-0.76,15.53c-0.97,10.82-1.98,21.63-3.22,32.42
			c-0.97,8.41-2.46,16.76-5.06,24.84c-1.2,3.74-2.64,7.46-4.44,10.95c-4.8,9.35-12.67,14.1-23.13,14.6
			c-8.65,0.41-17.17-0.48-25.61-2.49c-12.5-2.97-20.14-10.69-23.15-23.15c-1.4-5.79-2.19-11.65-2.39-17.58
			c-0.42-12.56-0.19-25.11,0.4-37.67c0.28-5.92,0.53-11.84,1.24-17.95c2.05,0.29,3.65,0.75,5.23,1.25
			c4.23,1.32,8.54,1.41,12.78,0.32c5.43-1.39,10.87-2.41,16.5-1.98c0.42,0.03,1.11-1.67,1.53-1.68c-0.01,1.68-0.27,5.01-0.32,6.69
			c-0.24,8.03-0.6,16.06-0.72,24.09c-0.06,4.08,0.24,8.17,0.53,12.24c0.11,1.52,0.52,3.06,1.04,4.5c0.76,2.11,2.54,2.93,4.68,2.97
			c1.9,0.03,3.29-0.96,3.95-2.66c0.87-2.22,1.77-4.49,2.16-6.82c0.98-5.83,1.89-11.69,2.46-17.57c0.78-8.13,1.5-17.96,2.51-26.48
			c1.34-0.67,1.98,0.64,2.92,0.4c2.16-0.55,4.32-1.44,6.5-1.47c2.33-0.03,4.72,0.55,6.98,1.22c4.99,1.5,9.66,3.72,13.81,6.96
			C898.96,126.23,900.45,123.37,901.55,123.96z"/>
		<path class="swwu_st3" d="M625.54,159.6c-0.09,9.85-1.87,20.15-6.28,29.03c-3.22,6.49-8.21,11.01-15.43,12.84
			c-5.95,1.51-10.86-0.01-14.83-4.64c-2.5-2.92-4.34-6.26-5.85-9.77c-1.39-3.24-2.66-6.53-4.03-9.78c-0.44-1.03-0.98-2.02-1.56-2.99
			c-0.2-0.33-0.63-0.52-1.17-0.94c-0.57,0.56-1.35,1.02-1.65,1.69c-0.97,2.18-1.88,4.41-2.62,6.69c-1.47,4.56-2.7,9.21-4.24,13.75
			c-3.38,10-10.71,15.71-20.7,18c-7.57,1.74-14.27-2.13-17.41-9.47c-1.68-3.93-2.44-8.1-2.66-12.35
			c-0.27-5.36-0.33-10.72-0.68-16.07c-0.68-10.42-1.53-20.83-2.23-31.25c-0.98-14.65-1.78-29.31-0.39-43.99
			c0.12-1.26,0.4-3.24,1.26-4.96c5.82,0.7,9.23,4.76,11.98,9.33c1.84,3.04,3.04,6.32,4.28,9.6c2.09,5.55,2.92,11.42,4.38,17.14
			c0.74,2.9,1.83,5.62,3.28,8.21c1.45,2.6,3.45,3.44,6.37,2.33c2.62-0.99,5.22-2.14,7.62-3.58c4.96-2.98,9.89-6,15.4-7.85
			c9.42-3.17,18-2,25.38,5.14c2.98,2.89,5.08,6.38,7.11,9.92c1.75,3.05,3.32,6.22,5.1,9.25C618.07,158.44,620.86,160.4,625.54,159.6
			z"/>
		<path class="swwu_st4" d="M625.55,160.05c-4.81,1.13-7.48-1.61-9.58-5.18c-1.78-3.04-3.35-6.2-5.1-9.25c-2.03-3.54-4.13-7.04-7.11-9.92
			c-7.38-7.15-15.96-8.31-25.38-5.14c-5.51,1.85-10.44,4.88-15.4,7.85c-2.4,1.44-5,2.59-7.62,3.58c-2.92,1.1-4.92,0.27-6.37-2.33
			c-1.45-2.59-2.54-5.31-3.28-8.21c-1.46-5.71-2.29-11.59-4.38-17.14c-1.24-3.29-2.45-6.57-4.28-9.6
			c-2.76-4.56-6.61-7.64-12.28-8.65c0.83-6.16,1.73-12.4,4.84-17.87c4.74-8.33,15.88-10.89,23.9-5.64
			c3.68,2.41,5.56,5.91,5.88,10.27c0.31,4.13-0.25,8.18-1.35,12.15c-1.09,3.94-2.37,7.84-3.41,11.79c-0.89,3.4-1.67,6.85-2.29,10.31
			c-0.24,1.35-0.06,2.82,0.15,4.2c0.25,1.65,1.31,2.79,2.9,3.35c1.83,0.65,3.44,0.16,4.31-1.57c0.82-1.63,1.46-3.37,2.04-5.1
			c0.9-2.67,1.64-5.4,2.55-8.07c0.55-1.6,1.25-3.14,1.96-4.68c1.37-2.96,3.88-3.94,6.94-3.78c3.92,0.19,7.16,1.83,9.25,5.15
			c1.49,2.37,2.58,5,3.82,7.53c0.68,1.39,1.19,2.87,1.98,4.2c0.89,1.5,2.69,1.36,3.21-0.27c0.47-1.45,0.87-3.03,0.81-4.54
			c-0.18-4.08-0.46-8.18-0.99-12.23c-0.77-5.88-1.87-11.71-2.68-17.58c-0.36-2.65-0.55-5.35-0.5-8.02c0.09-4.45,2.24-7.82,6.1-9.99
			c1.46-0.82,3.06-1.56,4.69-1.89c3.17-0.64,6.39-1.16,9.62-1.37c3.9-0.25,7.13,1.41,9.67,4.37c1.77,2.06,2.97,4.45,3.95,6.97
			c1.74,4.51,2.7,9.23,3.18,14c0.52,5.19,0.93,10.42,0.96,15.64c0.1,15.54,0.01,31.07-0.07,46.61
			C626.19,153.24,625.86,156.48,625.55,160.05z"/>
		<path class="swwu_st2" d="M700.24,175.58c-0.09-1.4-0.26-4.46-0.26-5.87c-0.01-20.32,0-40.63,0.04-60.95c0-1.68,0.09-3.4,0.46-5.03
			c0.65-2.82,2.4-4.75,5.31-5.44c0.82-0.2,1.65-0.46,2.48-0.5c5.7-0.26,11.29,0.43,16.57,2.67c5.19,2.21,8,6.16,7.64,11.95
			c-0.23,3.8-0.71,7.58-1.09,11.36c-0.09,0.84-0.19,1.69-0.35,2.51c-1.3,6.52,3.89,9.93,8.36,10.5c1.58,0.2,2.76-0.4,3.56-1.74
			c1.25-2.11,1.77-4.46,2.04-6.84c0.35-3.08,0.52-6.18,0.82-9.27c0.64-6.41,4.76-11.52,10.83-13.23c1.74-0.49,3.61-0.66,5.43-0.67
			c3.7-0.02,7.3,0.76,10.74,2.1c5.38,2.09,7.76,5.57,7.76,11.35c0,2.11-0.22,4.22-0.75,6.73c-5.09,2.17-9.01,5.08-12.7,8.38
			c-6.97,6.23-12.35,13.8-18.01,21.14c-2.66,3.44-4.24,7.68-8.07,10.03c-1.39-0.91-4.41-0.99-6.19-0.94
			c-3.85,0.11-5.57,1.82-5.74,5.6c-0.06,1.23,0.19,3.57-0.03,5.26c-3.88,2.14-7.34,2.97-11.01,4.35c-4.57,1.72-9.11,1.51-13.09-1.8
			c-0.86-0.72-1.65-1.54-2.56-2.19C701.77,174.57,700.97,175.95,700.24,175.58z"/>
		<path class="swwu_st5" d="M934.16,162.36c0.31,1.6,2.08,3.56,3.78,4.38c2.16,1.04,4.36,2,6.55,2.98c3.73,1.68,7.51,3.26,11.19,5.06
			c3.57,1.75,6.8,4.04,9.55,6.95c4.55,4.82,6.39,10.57,5.73,17.1c-0.21,2.1-0.63,4.2-1.17,6.23c-2.12,7.96-6.97,13.73-14.28,17.49
			c-5.11,2.63-10.6,3.93-16.24,4.48c-6.48,0.63-12.98,0.7-19.42-0.55c-4.19-0.82-8.2-2.16-11.84-4.43
			c-4.95-3.09-8.75-7.19-10.39-12.91c-1.88-6.56-0.25-12.61,3.35-18.14c1.79-2.74,4.65-4.05,7.92-4.32c2.7-0.22,5.36,0.09,7.95,0.9
			c3.51,1.11,5.8,3.41,6.74,6.98c0.43,1.64,0.68,3.32,1.16,4.95c1.01,3.47,3.01,4.79,6.63,4.53c2.69-0.19,4.88-1.33,6.54-3.45
			c1.99-2.54,2.82-5.49,3.05-8.65c0.1-1.4-0.49-2.54-1.64-3.23c-1.32-0.8-2.71-1.54-4.16-2.05c-2.66-0.94-5.39-1.67-8.08-2.55
			c-2.55-0.83-5.14-1.59-7.59-2.65c-2.45-1.06-4.89-2.25-7.12-3.72c-9.08-6.01-13.17-16.95-10.38-27.44
			c0.85-3.2,2.48-6.02,4.82-8.35c1.39-1.39,3.84-3.1,5.71-4.13c1.37,1.88,1.63,4.04,2.58,5.72c2.63,4.61,5.14,9.29,7.83,13.86
			c2.11,3.59,5.09,5.88,9.55,5.51C933.03,162.89,934.05,161.81,934.16,162.36z"/>
		<path class="swwu_st4" d="M285.81,228.17c0.04-8.31-0.04-16.63,0.15-24.94c0.17-7.05,0.65-14.08,2.02-21.03
			c0.74-3.74,1.73-7.4,3.25-10.91c2.79-6.44,7.51-10.81,14.08-13.19c1.19-0.43,2.4-0.82,3.63-1.12c7.15-1.74,14.4-2.68,21.78-2.54
			c0.99,0.02,1.98,0.07,2.95,0.19c7.31,0.88,12.57,4.56,15.64,11.33c2,4.4,3.17,9.04,3.96,13.77c1.64,9.89,2.35,19.87,2.2,30.27
			c-2.29-0.15-4.16-0.97-6.08-1.17c-6.77-0.68-13.19,0.33-18.84,4.53c-3.87,2.87-7.27,6.23-10.59,9.7
			c-2.04,2.13-4.16,4.19-6.36,6.15c-0.79,0.71-1.82,1.58-2.93,1.52c-1.32-0.06-2.06-1.31-3.02-1.89c-4.65-2.81-9.51-4.1-14.91-2.4
			C290.47,227.15,288.12,227.6,285.81,228.17z M318.89,181.92c-4.43,1.29-6.22,4.49-6.45,8.84c-0.03,0.56-0.05,1.12-0.04,1.69
			c0.1,4.4,2.31,7.15,6.58,8.01c3.57,0.72,7-0.05,10.3-1.34c1.51-0.59,2.43-1.86,2.87-3.44c0.73-2.64,0.73-5.28,0.03-7.92
			c-0.97-3.66-3.34-5.8-7.14-6.14C323.23,181.45,321.39,181.69,318.89,181.92z"/>
		<path class="swwu_st3" d="M462.32,179.97c-1.08,3.04,0.9,5.94,3.37,7.44c1.57,0.95,3.18,1.83,4.76,2.75c1.22,0.71,2.43,1.44,3.62,2.19
			c7.73,4.87,11.74,11.97,12.43,20.99c0.17,2.24,0.22,4.51,0.07,6.75c-0.3,4.49-2.48,8.03-5.98,10.76
			c-3.4,2.65-7.31,4.21-11.49,5.14c-3.07,0.68-5.68-0.21-7.5-2.69c-1.32-1.8-2.47-3.81-3.23-5.89c-1.3-3.57-2.22-7.27-3.33-10.91
			c-0.83-2.69-1.61-5.41-2.6-8.04c-0.49-1.29-1.35-2.46-2.19-3.58c-0.7-0.94-1.75-1.38-2.97-1.35c-1.26,0.03-2.24,0.68-2.42,1.91
			c-0.18,1.25-0.31,2.54-0.19,3.79c0.43,4.49,0.94,8.97,1.47,13.45c0.3,2.52,0.65,5.04,1.07,7.54c0.51,3.02-0.42,5.54-2.44,7.76
			c-1.92,2.11-4.14,3.84-6.63,5.2c-4.14,2.27-8.58,3.55-13.29,3.9c-0.84,0.06-1.69,0.06-2.53-0.02c-3.32-0.32-5.18-1.8-5.95-5.05
			c-0.39-1.63-0.47-3.35-0.48-5.03c-0.05-5.22,0-10.44,0-15.66c-0.01-9.31-0.72-21.53,0.07-31.11c1.08-0.87,2.13,1.53,2.74,0.99
			c4.22-3.76,8.89-6.85,14.11-9.03c3.49-1.46,7.1-2.85,10.88-3.05C449.84,178.8,456.37,177.75,462.32,179.97z"/>
		<path class="swwu_st5" d="M285.83,227.9c2.39-0.96,4.63-0.75,6.9-1.46c5.4-1.7,10.27-0.41,14.91,2.4c0.96,0.58,1.76,1.22,3.08,1.28
			c1.11,0.05,2.08-0.21,2.88-0.92c2.2-1.96,4.32-4.02,6.36-6.15c3.32-3.47,6.72-6.82,10.59-9.7c5.65-4.2,12.07-5.2,18.84-4.53
			c1.93,0.19,3.9,0.63,6.12,1.17c0.56,4.66,0.8,9.69,0.89,14.35c0.17,8.9,0.23,17.8,0.24,26.7c0,2.1-0.26,4.22-0.64,6.29
			c-0.65,3.55-2.73,6.19-5.88,7.89c-4.42,2.38-9.19,3.64-14.22,3.66c-4.31,0.02-6.5-1.78-7.39-6.05c-0.4-1.92-0.44-3.92-0.56-5.88
			c-0.3-4.79-0.5-9.59-0.84-14.37c-0.09-1.25-0.37-2.52-0.78-3.71c-1.29-3.81-5.7-4.63-8.32-1.55c-0.53,0.63-0.98,1.42-1.19,2.21
			c-0.43,1.63-0.85,3.3-0.95,4.97c-0.25,4.37-0.31,8.75-0.45,13.13c-0.08,2.4-0.05,4.81-0.31,7.19c-0.52,4.81-3.15,8.09-7.73,9.68
			c-3.91,1.35-7.97,1.86-12.1,1.74c-0.98-0.03-1.96-0.27-2.92-0.49c-2.71-0.62-4.56-2.29-5.29-4.95c-0.48-1.75-0.8-3.6-0.84-5.41
			C286,253.25,285.95,240.44,285.83,227.9z"/>
		<path class="swwu_st6" d="M462.12,180.52c-6.13-2-12.28-1.72-18.44-1.41c-3.78,0.19-7.39,1.59-10.88,3.05
			c-5.22,2.18-9.88,5.27-14.11,9.03c-0.61,0.54-1.93,1.73-2.92,2.21c0.01-1.17,0.03-2.75,0.02-3.73
			c-0.13-12.14-0.28-24.29-0.33-36.43c-0.01-2.53,0.19-5.08,0.58-7.58c0.57-3.68,2.57-6.53,5.78-8.46
			c4.44-2.68,9.38-3.88,14.46-4.43c2.96-0.32,4.88,1.03,5.88,3.83c0.56,1.58,0.84,3.28,1.09,4.94c0.99,6.63,0.46,13.24-0.46,19.83
			c-0.31,2.24-0.61,4.49-0.68,6.74c-0.05,1.84-0.92,4.59,1.58,5.01c2.31,0.39,2.85-2.36,3.48-4.14c0.84-2.39,1.4-4.88,1.98-7.35
			c1.17-4.94,2.2-9.92,3.42-14.85c1.02-4.12,2.41-8.12,4.36-11.9c1.62-3.16,3.56-6.13,6.39-8.35c4.44-3.48,9.37-5.14,15.03-3.54
			c2.24,0.63,4.1,1.87,5.62,3.6c1.65,1.87,2.5,4,2.45,6.56c-0.16,7.63-2.02,14.78-5.63,21.5c-2.49,4.63-5.64,8.78-9.03,12.77
			c-1.92,2.26-3.86,4.5-5.75,6.79C464.48,176.06,463.07,177.99,462.12,180.52z"/>
		<path class="swwu_st4" d="M656.96,148.5c0.1-2.82,0.12-5.64,0.32-8.45c0.34-4.79,0.82-9.57,1.19-14.36c0.1-1.25,0.01-2.51,0.01-3.9
			c-1.6-1.08-3.47-1-5.26-1.17c-4.66-0.44-9.25-1.22-13.7-2.65c-2.13-0.69-4.27-1.55-6.2-2.68c-5.98-3.53-7.04-10.74-2.3-15.9
			c1.3-1.42,3.05-2.5,4.76-3.43c2.76-1.49,5.85-2.07,8.93-2.48c5.19-0.69,10.42-0.94,15.65-0.62c6.2,0.39,12.41,0.78,18.58,1.43
			c3.21,0.34,6.39,1.11,9.53,1.91c2.05,0.52,4,1.51,5.44,3.13c0.83,0.93,1.65,1.99,2.08,3.14c1.58,4.2,1.91,8.55,0.64,12.88
			c-1.09,3.73-3.92,5.79-7.52,6.76c-1.62,0.44-3.34,0.49-5.02,0.74c-0.54,0.08-1.07,0.2-1.87,0.35c0.19,1.22,0.28,2.31,0.53,3.36
			c1.61,6.73,3.32,13.43,4.87,20.17c0.73,3.16,1.47,8.59,1.74,12.12c-1.24-0.25-2.48-3-3.35-3.66c-1-0.76-1.83-1.78-2.89-2.4
			c-5.64-3.32-11.66-5.25-18.31-5.2C662.15,147.63,659.58,148.17,656.96,148.5z"/>
		<path class="swwu_st3" d="M740.42,164.42c3.62-2.56,6.03-6.25,8.69-9.69c5.67-7.34,11.04-14.9,18.01-21.14
			c3.69-3.3,7.83-7.15,12.77-8.96c0.13,4.74-0.12,10.46-0.39,15.23c-1.12,19.28-2.11,38.57-2.47,57.89
			c-0.04,1.96-0.2,3.96-0.64,5.86c-0.89,3.87-3.15,5.74-7.12,6.04c-3.98,0.3-7.88-0.15-11.66-1.5c-7.24-2.59-11.44-8.18-11.83-15.89
			c-0.25-4.79-0.37-9.58-0.7-14.36c-0.17-2.38-0.55-4.77-1.08-7.09C743.47,168.48,742.73,166.16,740.42,164.42z"/>
		<path class="swwu_st4" d="M359.96,213.73c-0.12-0.97-0.17-1.94-0.35-2.92c-2.23-12.65-0.41-25.68,0.51-38.5
			c0.3-4.21,0.94-8.4,1.67-12.56c1.34-7.66,5.74-12.38,13.64-13.46c1.39-0.19,2.79-0.41,4.2-0.46c4.77-0.15,8.06,2.14,10.02,6.39
			c1.2,2.59,1.73,5.35,1.86,8.2c0.23,4.96-0.17,9.87-1.35,14.7c-1.38,5.61-2.79,11.22-4.16,16.83c-0.91,3.71-1.5,7.46-1.59,11.29
			c-0.08,3.26,0.19,6.49,1.27,9.6c1.23,3.55,3.1,6.64,6.64,9.03c-2.12,5.31-6.3,7.27-11.21,8.01c-4.82,0.73-8.44-1.01-10.83-5.41
			c-1.06-1.95-2.45-3.76-3.87-5.47C364.6,216.86,362.7,214.76,359.96,213.73z"/>
		<path class="swwu_st1" d="M359.89,213.1c2.87,0.67,4.72,3.76,6.51,5.92c1.43,1.72,2.81,3.52,3.87,5.47c2.39,4.4,6.01,6.14,10.83,5.41
			c4.91-0.75,8.71-2.98,11.04-8.13c2.24,1.19,5.48,0.67,7.98-0.14c0.67-0.22,1.38-0.32,2.07-0.45c4.29-0.83,7.49,0.7,9.4,4.62
			c1.76,3.62,1.7,7.38,0.58,11.15c-1.49,5.03-4.4,9.18-8.4,12.47c-5.28,4.33-11.2,7.62-17.77,9.61c-1.74,0.53-3.57,0.92-5.39,1.05
			c-4.96,0.35-9.16-1.32-12.35-5.23c-1.8-2.21-3.06-4.72-4.05-7.39c-1.64-4.39-2.7-8.94-3.14-13.58
			C360.45,227.41,360.2,219.93,359.89,213.1z"/>
		<path class="swwu_st5" d="M656.97,147.9c2.73-0.67,5.18-0.27,7.87-0.29c6.65-0.05,12.67,1.88,18.31,5.2c1.07,0.63,1.89,1.65,2.89,2.4
			c0.87,0.66,1.83,1.2,3.08,1.83c2,7.24,1.96,14.55,1.69,21.87c-0.09,2.52-0.56,5.03-0.88,7.54c-0.07,0.56-0.2,1.11-0.35,1.65
			c-2.09,7.7-6.49,10.93-14.49,10.68c-9.44-0.29-14.13-3.95-16.8-13.04c-1.44-4.91-1.95-9.97-1.98-15.03
			C656.27,163.54,656.7,155.42,656.97,147.9z"/>
		<path class="swwu_st4" d="M934.27,162.62c-0.67,0.29-1.24,0.26-1.79,0.31c-4.46,0.37-7.44-1.92-9.55-5.51
			c-2.69-4.57-5.2-9.25-7.83-13.86c-0.96-1.68-2.04-3.29-3.13-5.26c2.44-2.48,5.48-3.62,8.56-4.57c12.72-3.94,25.24-3.24,37.43,2.13
			c4.02,1.77,7.68,4.16,10.68,7.4c1.61,1.74,3.09,3.65,4.32,5.68c1.88,3.1,1.34,7.41,0.64,11.19c-3.97,0.35-4.55-0.61-7.59-0.1
			c-0.53,0.09-3.32,0.63-3.88,0.64c-1.82,0.02-4.14-0.11-5.95,0.35c-2.41,0.61-4.95,0.72-7.44,1.04c-0.76-1.18-1.54-2.34-2.27-3.53
			c-1.68-2.73-4.25-2.91-7.03-2.52c-2.53,0.36-4.01,1.82-4.57,4.28C934.7,160.96,934.54,161.65,934.27,162.62z"/>
		<path class="swwu_st4" d="M851.35,122.67c-0.55,0.38-0.97,0.43-1.39,0.4c-5.63-0.43-11.07,0.59-16.5,1.98c-4.23,1.09-8.55,1-12.78-0.32
			c-1.59-0.5-3.46,0.42-5.36-0.18c0.19-5.59,0.15-11.66,0.31-16.74c0.11-3.39,0.26-6.78,0.54-10.16c0.15-1.82,0.44-3.65,0.94-5.4
			c0.94-3.29,3.21-5.24,6.61-5.78c1.11-0.18,2.25-0.39,3.36-0.34c5.38,0.24,10.68,1.05,15.74,2.98c5.72,2.18,8.9,6.26,9.22,12.45
			c0.07,1.27,0.17,2.54,0.13,3.81C851.97,111,851.72,116.65,851.35,122.67z"/>
		<path class="swwu_st1" d="M649.19,149.48c0.18,0.81,0.53,2.33,0.59,3.14c0.81,10.81,1.6,21.63,2.38,32.45c0.11,1.54,0.27,3.1,0.2,4.64
			c-0.2,4.31-2.2,6.8-6.27,7.96c-3.02,0.86-6.12,1.03-9.22,0.62c-4.03-0.53-5.97-2.4-6.68-6.46c-0.29-1.65-0.34-3.36-0.32-5.05
			c0.13-9.72,0.43-20.1,1.03-30.14c1.86-0.87,3.25-0.61,4.6-1.32C639.86,153.03,644.45,150.78,649.19,149.48z"/>
		<path class="swwu_st4" d="M901.42,126.9c-1.25-0.23-2.47-0.67-3.44-1.43c-4.15-3.24-8.81-5.46-13.81-6.96
			c-2.26-0.68-4.66-1.26-6.98-1.22c-2.17,0.03-4.34,0.92-6.5,1.47c-0.94,0.24-1.85,0.59-3.1,0.9c-0.09-4.9,0.12-9.81,0.4-14.72
			c0.06-0.97,0.37-1.93,0.63-2.87c1.04-3.79,3.61-5.91,7.39-6.66c0.82-0.16,1.67-0.24,2.51-0.28c4.82-0.18,9.55,0.48,14.17,1.79
			c5.76,1.64,9.05,5.41,9.45,11.51c0.08,1.26,0.22,2.53,0.16,3.79C902.11,116.99,901.83,121.76,901.42,126.9z"/>
		<path class="swwu_st1" d="M700.14,174.32c0.83-0.02,1.63,0.26,2.28,0.73c0.91,0.66,1.69,1.47,2.56,2.19c3.99,3.31,8.53,3.51,13.09,1.8
			c3.67-1.38,7.13-3.32,11.01-5.09c1.46,4.84,2.66,9.75,3.71,14.69c0.5,2.35,0.48,4.74-0.15,7.11c-0.78,2.94-2.57,5.02-5.37,6.08
			c-1.56,0.59-3.25,0.92-4.91,1.09c-3.81,0.39-7.58-0.06-11.31-0.92c-7.51-1.74-10.67-5.56-10.88-13.36
			C700.04,183.99,700.08,179.35,700.14,174.32z"/>
		<path class="swwu_st6" d="M646.51,139.12c-3.31,1.61-6.5,1.87-9.74,1.3c-4.35-0.75-6.75-3.73-6.89-8.27c-0.13-4.22,2.43-7.9,6.41-8.8
			c2.91-0.66,5.86-0.52,8.72,0.48c1.52,0.54,2.69,1.48,3.41,2.95c1.16,2.38,0.99,4.92,0.8,7.44
			C649.08,136.13,648.33,137.76,646.51,139.12z"/>
		<path class="swwu_st6" d="M649.28,149.88c-4.78,1.62-9.42,3.14-13.79,5.45c-1.34,0.71-2.84,1.11-4.59,1.66
			c-0.37-1.97-0.56-3.95-0.43-5.91c0.27-4.35,2.83-7.1,7.12-7.57c1.8-0.2,3.69-0.18,5.48,0.13
			C646.38,144.21,648.81,145.93,649.28,149.88z"/>
	</g>
	<g>
		<path class="swwu_st7" d="M150.49,108.26c0.72,0.92,1.51,1.72,2.34,2.46c0.74,0.66,1.51,1.26,2.32,1.81c0.78,0.53,1.57,1.03,2.38,1.48
			c0.74,0.41,1.5,0.79,2.25,1.16c0.58,0.29,1.18,0.56,1.77,0.81c0.42,0.18,0.85,0.33,1.28,0.48c0.49,0.17,0.99,0.34,1.49,0.5
			c0.12,0.04,0.24,0.07,0.36,0.1c0.5,0.12,1,0.24,1.49,0.36c0.09,0.02,0.17,0.05,0.25,0.11c0.13,0.09,0.14,0.23,0.03,0.35
			c-0.06,0.06-0.14,0.11-0.22,0.13c-0.16,0.04-0.33,0.04-0.49,0.07c-0.66,0.16-1.32,0.31-1.98,0.48c-0.81,0.21-1.59,0.51-2.37,0.82
			c-0.62,0.25-1.23,0.52-1.84,0.81c-0.69,0.33-1.37,0.68-2.05,1.04c-1.02,0.54-2.01,1.15-2.97,1.83c-1.02,0.72-1.99,1.53-2.91,2.43
			c-0.82,0.81-1.56,1.7-2.25,2.67c-0.67,0.95-1.26,1.97-1.77,3.05c-0.24,0.51-0.46,1.04-0.67,1.57c-0.24,0.6-0.46,1.2-0.68,1.81
			c-0.15,0.42-0.27,0.85-0.39,1.28c-0.15,0.53-0.29,1.06-0.43,1.58c-0.01,0.02-0.02,0.05-0.02,0.07c-0.13,0.61-0.26,1.22-0.38,1.83
			c-0.13,0.68-0.24,1.36-0.34,2.05c-0.12,0.79-0.2,1.57-0.28,2.36c-0.06,0.57-0.14,1.13-0.19,1.7c-0.04,0.45-0.06,0.91-0.1,1.36
			c-0.01,0.15-0.04,0.3-0.07,0.44c-0.03,0.11-0.07,0.22-0.14,0.3c-0.13,0.19-0.31,0.16-0.39-0.07c-0.04-0.13-0.06-0.27-0.08-0.41
			c-0.07-0.65-0.14-1.3-0.2-1.95c-0.02-0.21-0.02-0.41-0.05-0.62c-0.08-0.65-0.15-1.3-0.25-1.94c-0.13-0.84-0.27-1.68-0.42-2.51
			c-0.11-0.6-0.23-1.2-0.35-1.79c-0.1-0.5-0.21-1-0.34-1.49c-0.23-0.91-0.46-1.82-0.73-2.72c-0.39-1.32-0.86-2.6-1.42-3.83
			c-0.85-1.85-1.96-3.44-3.27-4.83c-1.09-1.16-2.26-2.19-3.5-3.11c-1.23-0.91-2.52-1.69-3.85-2.38c-1.17-0.61-2.36-1.13-3.59-1.55
			c-1.09-0.37-2.19-0.69-3.32-0.85c-0.38-0.06-0.76-0.15-1.14-0.22c-0.11-0.02-0.23-0.01-0.35-0.04c-0.08-0.02-0.18-0.05-0.24-0.11
			c-0.11-0.1-0.09-0.24,0.02-0.32c0.04-0.03,0.09-0.05,0.13-0.06c0.09-0.02,0.19-0.03,0.29-0.04c0.76-0.04,1.52-0.12,2.27-0.28
			c0.63-0.14,1.25-0.29,1.88-0.46c0.47-0.12,0.93-0.29,1.39-0.45c0.38-0.13,0.75-0.27,1.12-0.42c0.65-0.28,1.31-0.56,1.95-0.86
			c0.53-0.25,1.06-0.51,1.58-0.8c0.57-0.32,1.15-0.65,1.7-1.02c0.71-0.48,1.42-0.99,2.1-1.52c1.13-0.88,2.18-1.88,3.11-3.05
			c0.82-1.03,1.53-2.17,2.11-3.42c0.51-1.11,0.95-2.26,1.33-3.45c0.3-0.96,0.58-1.93,0.81-2.92c0.24-1,0.49-2.01,0.7-3.02
			c0.15-0.7,0.25-1.41,0.37-2.12c0.09-0.52,0.18-1.04,0.25-1.56c0.09-0.67,0.17-1.34,0.25-2.02c0.05-0.42,0.07-0.84,0.11-1.26
			c0.01-0.11,0.02-0.22,0.05-0.32c0.03-0.1,0.08-0.19,0.15-0.26c0.13-0.14,0.3-0.1,0.38,0.09c0.04,0.09,0.07,0.2,0.07,0.31
			c0.04,0.53,0.08,1.06,0.12,1.59c0.07,0.84,0.13,1.69,0.21,2.53c0.05,0.49,0.14,0.97,0.18,1.45c0.04,0.45,0.09,0.91,0.2,1.35
			c0.03,0.11,0.04,0.23,0.05,0.34c0.04,0.41,0.1,0.8,0.21,1.19c0.03,0.11,0.04,0.23,0.06,0.34c0.06,0.27,0.11,0.55,0.17,0.82
			c0.01,0.04,0.02,0.08,0.03,0.12c0.12,0.51,0.22,1.03,0.36,1.53c0.12,0.44,0.26,0.88,0.39,1.31c0.1,0.32,0.21,0.63,0.32,0.94
			c0.22,0.69,0.48,1.36,0.77,2.01c0.28,0.61,0.56,1.22,0.86,1.81c0.36,0.7,0.77,1.35,1.21,1.98
			C149.96,107.56,150.22,107.9,150.49,108.26z"/>
	</g>
	<g>
		<path class="swwu_st7" d="M173.86,131.31c0.33,0.48,0.7,0.89,1.08,1.28c0.34,0.34,0.7,0.66,1.07,0.94c0.36,0.28,0.73,0.53,1.1,0.77
			c0.34,0.21,0.69,0.41,1.04,0.6c0.27,0.15,0.54,0.29,0.82,0.42c0.19,0.09,0.39,0.17,0.59,0.25c0.23,0.09,0.46,0.18,0.69,0.26
			c0.06,0.02,0.11,0.04,0.17,0.05c0.23,0.06,0.46,0.12,0.69,0.19c0.04,0.01,0.08,0.03,0.12,0.06c0.06,0.05,0.06,0.12,0.01,0.18
			c-0.03,0.03-0.06,0.06-0.1,0.07c-0.07,0.02-0.15,0.02-0.23,0.04c-0.31,0.08-0.61,0.16-0.91,0.25c-0.37,0.11-0.74,0.27-1.1,0.43
			c-0.29,0.13-0.57,0.27-0.85,0.42c-0.32,0.17-0.64,0.35-0.95,0.54c-0.47,0.28-0.93,0.6-1.38,0.95c-0.47,0.38-0.92,0.8-1.35,1.27
			c-0.38,0.42-0.72,0.88-1.04,1.39c-0.31,0.49-0.58,1.03-0.82,1.59c-0.11,0.27-0.21,0.54-0.31,0.82c-0.11,0.31-0.21,0.63-0.31,0.94
			c-0.07,0.22-0.12,0.44-0.18,0.67c-0.07,0.27-0.13,0.55-0.2,0.82c0,0.01-0.01,0.02-0.01,0.04c-0.06,0.32-0.12,0.64-0.17,0.95
			c-0.06,0.35-0.11,0.71-0.16,1.07c-0.06,0.41-0.09,0.82-0.13,1.23c-0.03,0.3-0.06,0.59-0.09,0.89c-0.02,0.24-0.03,0.47-0.05,0.71
			c-0.01,0.08-0.02,0.15-0.03,0.23c-0.01,0.06-0.03,0.11-0.06,0.16c-0.06,0.1-0.14,0.08-0.18-0.04c-0.02-0.07-0.03-0.14-0.04-0.21
			c-0.03-0.34-0.06-0.68-0.09-1.02c-0.01-0.11-0.01-0.22-0.02-0.32c-0.04-0.34-0.07-0.68-0.12-1.01c-0.06-0.44-0.13-0.87-0.19-1.31
			c-0.05-0.31-0.11-0.62-0.16-0.93c-0.05-0.26-0.1-0.52-0.16-0.77c-0.11-0.47-0.21-0.95-0.34-1.42c-0.18-0.69-0.4-1.36-0.66-2
			c-0.39-0.96-0.91-1.79-1.51-2.52c-0.5-0.61-1.05-1.14-1.62-1.62c-0.57-0.47-1.17-0.88-1.78-1.24c-0.54-0.32-1.09-0.59-1.66-0.8
			c-0.5-0.19-1.01-0.36-1.54-0.44c-0.18-0.03-0.35-0.08-0.53-0.12c-0.05-0.01-0.11-0.01-0.16-0.02c-0.04-0.01-0.08-0.03-0.11-0.06
			c-0.05-0.05-0.04-0.12,0.01-0.17c0.02-0.02,0.04-0.02,0.06-0.03c0.04-0.01,0.09-0.02,0.13-0.02c0.35-0.02,0.7-0.06,1.05-0.14
			c0.29-0.07,0.58-0.15,0.87-0.24c0.22-0.06,0.43-0.15,0.64-0.24c0.17-0.07,0.35-0.14,0.52-0.22c0.3-0.14,0.6-0.29,0.9-0.45
			c0.25-0.13,0.49-0.27,0.73-0.42c0.27-0.17,0.53-0.34,0.79-0.53c0.33-0.25,0.66-0.51,0.97-0.79c0.52-0.46,1.01-0.98,1.44-1.59
			c0.38-0.54,0.71-1.13,0.98-1.78c0.24-0.58,0.44-1.18,0.62-1.79c0.14-0.5,0.27-1.01,0.38-1.52c0.11-0.52,0.23-1.04,0.33-1.57
			c0.07-0.36,0.12-0.73,0.17-1.1c0.04-0.27,0.08-0.54,0.12-0.81c0.04-0.35,0.08-0.7,0.11-1.05c0.02-0.22,0.03-0.44,0.05-0.66
			c0-0.06,0.01-0.11,0.03-0.16c0.02-0.05,0.04-0.1,0.07-0.14c0.06-0.07,0.14-0.05,0.18,0.05c0.02,0.05,0.03,0.11,0.03,0.16
			c0.02,0.27,0.04,0.55,0.05,0.83c0.03,0.44,0.06,0.88,0.1,1.31c0.02,0.25,0.06,0.5,0.08,0.76c0.02,0.24,0.04,0.47,0.09,0.7
			c0.01,0.06,0.02,0.12,0.02,0.18c0.02,0.21,0.05,0.42,0.1,0.62c0.01,0.06,0.02,0.12,0.03,0.18c0.03,0.14,0.05,0.28,0.08,0.43
			c0,0.02,0.01,0.04,0.01,0.06c0.05,0.27,0.1,0.53,0.16,0.8c0.05,0.23,0.12,0.46,0.18,0.68c0.05,0.17,0.1,0.33,0.15,0.49
			c0.1,0.36,0.22,0.71,0.36,1.04c0.13,0.32,0.26,0.63,0.4,0.94c0.16,0.36,0.36,0.7,0.56,1.03
			C173.61,130.94,173.74,131.12,173.86,131.31z"/>
	</g>
	<g>
		<path class="swwu_st7" d="M135.54,159.84c0.28,0.35,0.58,0.66,0.9,0.95c0.28,0.25,0.58,0.48,0.89,0.7c0.3,0.2,0.6,0.39,0.92,0.57
			c0.29,0.16,0.58,0.3,0.87,0.45c0.22,0.11,0.45,0.21,0.68,0.31c0.16,0.07,0.33,0.13,0.49,0.18c0.19,0.07,0.38,0.13,0.57,0.19
			c0.05,0.02,0.09,0.03,0.14,0.04c0.19,0.05,0.38,0.09,0.57,0.14c0.03,0.01,0.07,0.02,0.1,0.04c0.05,0.03,0.05,0.09,0.01,0.13
			c-0.02,0.02-0.05,0.04-0.08,0.05c-0.06,0.01-0.13,0.01-0.19,0.03c-0.25,0.06-0.51,0.12-0.76,0.19c-0.31,0.08-0.61,0.2-0.91,0.32
			c-0.24,0.1-0.47,0.2-0.71,0.31c-0.27,0.13-0.53,0.26-0.79,0.4c-0.39,0.21-0.77,0.44-1.14,0.7c-0.39,0.28-0.77,0.59-1.12,0.94
			c-0.31,0.31-0.6,0.65-0.86,1.03c-0.26,0.37-0.48,0.76-0.68,1.17c-0.09,0.2-0.18,0.4-0.26,0.6c-0.09,0.23-0.18,0.46-0.26,0.7
			c-0.06,0.16-0.1,0.33-0.15,0.49c-0.06,0.2-0.11,0.41-0.17,0.61c0,0.01-0.01,0.02-0.01,0.03c-0.05,0.24-0.1,0.47-0.15,0.71
			c-0.05,0.26-0.09,0.52-0.13,0.79c-0.05,0.3-0.08,0.61-0.11,0.91c-0.02,0.22-0.05,0.44-0.07,0.65c-0.02,0.17-0.02,0.35-0.04,0.52
			c0,0.06-0.01,0.11-0.03,0.17c-0.01,0.04-0.03,0.08-0.05,0.12c-0.05,0.07-0.12,0.06-0.15-0.03c-0.02-0.05-0.02-0.1-0.03-0.16
			c-0.03-0.25-0.05-0.5-0.08-0.75c-0.01-0.08-0.01-0.16-0.02-0.24c-0.03-0.25-0.06-0.5-0.1-0.75c-0.05-0.32-0.1-0.64-0.16-0.97
			c-0.04-0.23-0.09-0.46-0.14-0.69c-0.04-0.19-0.08-0.38-0.13-0.57c-0.09-0.35-0.18-0.7-0.28-1.05c-0.15-0.51-0.33-1-0.55-1.48
			c-0.33-0.71-0.75-1.32-1.26-1.86c-0.42-0.45-0.87-0.84-1.34-1.2c-0.47-0.35-0.97-0.65-1.48-0.91c-0.45-0.23-0.91-0.43-1.38-0.59
			c-0.42-0.14-0.84-0.26-1.28-0.33c-0.15-0.02-0.29-0.06-0.44-0.09c-0.04-0.01-0.09,0-0.13-0.01c-0.03-0.01-0.07-0.02-0.09-0.04
			c-0.04-0.04-0.04-0.09,0.01-0.12c0.02-0.01,0.03-0.02,0.05-0.02c0.04-0.01,0.07-0.01,0.11-0.01c0.29-0.01,0.58-0.04,0.87-0.11
			c0.24-0.05,0.48-0.11,0.72-0.18c0.18-0.05,0.36-0.11,0.53-0.17c0.14-0.05,0.29-0.1,0.43-0.16c0.25-0.11,0.5-0.21,0.75-0.33
			c0.2-0.1,0.41-0.2,0.61-0.31c0.22-0.12,0.44-0.25,0.65-0.39c0.27-0.18,0.54-0.38,0.81-0.58c0.43-0.34,0.84-0.72,1.2-1.17
			c0.32-0.4,0.59-0.83,0.81-1.32c0.2-0.43,0.37-0.87,0.51-1.33c0.12-0.37,0.22-0.74,0.31-1.12c0.09-0.39,0.19-0.77,0.27-1.16
			c0.06-0.27,0.1-0.54,0.14-0.81c0.03-0.2,0.07-0.4,0.1-0.6c0.04-0.26,0.07-0.52,0.09-0.78c0.02-0.16,0.03-0.32,0.04-0.49
			c0-0.04,0.01-0.08,0.02-0.12c0.01-0.04,0.03-0.07,0.06-0.1c0.05-0.05,0.12-0.04,0.15,0.03c0.02,0.04,0.03,0.08,0.03,0.12
			c0.02,0.2,0.03,0.41,0.05,0.61c0.03,0.32,0.05,0.65,0.08,0.97c0.02,0.19,0.05,0.37,0.07,0.56c0.02,0.18,0.04,0.35,0.07,0.52
			c0.01,0.04,0.02,0.09,0.02,0.13c0.01,0.16,0.04,0.31,0.08,0.46c0.01,0.04,0.02,0.09,0.02,0.13c0.02,0.11,0.04,0.21,0.07,0.31
			c0,0.02,0.01,0.03,0.01,0.05c0.05,0.2,0.09,0.39,0.14,0.59c0.04,0.17,0.1,0.34,0.15,0.5c0.04,0.12,0.08,0.24,0.12,0.36
			c0.09,0.26,0.18,0.52,0.3,0.77c0.11,0.23,0.22,0.47,0.33,0.7c0.14,0.27,0.3,0.52,0.47,0.76
			C135.34,159.57,135.44,159.7,135.54,159.84z"/>
	</g>
	<g>
		<path class="swwu_st7" d="M984.13,127.81c0.49,0.62,1.02,1.17,1.59,1.67c0.5,0.45,1.03,0.85,1.57,1.23c0.53,0.36,1.06,0.69,1.61,1
			c0.5,0.28,1.02,0.53,1.53,0.78c0.4,0.19,0.8,0.38,1.2,0.55c0.28,0.12,0.58,0.22,0.87,0.33c0.33,0.12,0.67,0.23,1.01,0.34
			c0.08,0.03,0.16,0.05,0.24,0.07c0.34,0.08,0.68,0.16,1.01,0.25c0.06,0.01,0.12,0.04,0.17,0.07c0.09,0.06,0.09,0.16,0.02,0.24
			c-0.04,0.04-0.09,0.07-0.15,0.09c-0.11,0.02-0.22,0.02-0.33,0.05c-0.45,0.11-0.9,0.21-1.34,0.33c-0.55,0.14-1.08,0.35-1.61,0.56
			c-0.42,0.17-0.84,0.35-1.25,0.55c-0.47,0.22-0.93,0.46-1.39,0.7c-0.69,0.37-1.36,0.78-2.02,1.24c-0.69,0.49-1.35,1.04-1.97,1.65
			c-0.55,0.55-1.06,1.15-1.52,1.81c-0.46,0.64-0.85,1.33-1.2,2.07c-0.16,0.35-0.31,0.7-0.46,1.06c-0.16,0.41-0.31,0.82-0.46,1.23
			c-0.1,0.28-0.18,0.58-0.27,0.87c-0.1,0.36-0.19,0.72-0.29,1.07c0,0.02-0.01,0.03-0.01,0.05c-0.09,0.41-0.18,0.83-0.26,1.24
			c-0.09,0.46-0.16,0.92-0.23,1.39c-0.08,0.53-0.14,1.07-0.19,1.6c-0.04,0.39-0.09,0.77-0.13,1.15c-0.03,0.31-0.04,0.62-0.07,0.92
			c-0.01,0.1-0.02,0.2-0.05,0.3c-0.02,0.07-0.05,0.15-0.09,0.2c-0.09,0.13-0.21,0.11-0.26-0.05c-0.03-0.09-0.04-0.18-0.05-0.28
			c-0.05-0.44-0.09-0.88-0.14-1.32c-0.01-0.14-0.02-0.28-0.03-0.42c-0.05-0.44-0.1-0.88-0.17-1.32c-0.09-0.57-0.18-1.14-0.29-1.7
			c-0.07-0.41-0.16-0.81-0.24-1.21c-0.07-0.34-0.14-0.68-0.23-1.01c-0.16-0.62-0.31-1.24-0.49-1.85c-0.26-0.9-0.58-1.77-0.96-2.6
			c-0.58-1.25-1.33-2.33-2.22-3.28c-0.74-0.79-1.53-1.48-2.37-2.11c-0.84-0.62-1.71-1.14-2.61-1.61c-0.79-0.41-1.6-0.76-2.43-1.05
			c-0.74-0.25-1.49-0.47-2.25-0.58c-0.26-0.04-0.51-0.1-0.77-0.15c-0.08-0.01-0.16-0.01-0.24-0.03c-0.06-0.01-0.12-0.04-0.16-0.08
			c-0.07-0.07-0.06-0.16,0.01-0.22c0.03-0.02,0.06-0.03,0.09-0.04c0.06-0.01,0.13-0.02,0.19-0.02c0.52-0.02,1.03-0.08,1.54-0.19
			c0.43-0.09,0.85-0.2,1.27-0.31c0.32-0.08,0.63-0.2,0.94-0.31c0.25-0.09,0.51-0.18,0.76-0.29c0.44-0.19,0.89-0.38,1.32-0.58
			c0.36-0.17,0.72-0.35,1.07-0.54c0.39-0.22,0.78-0.44,1.15-0.69c0.48-0.33,0.96-0.67,1.43-1.03c0.77-0.59,1.48-1.28,2.11-2.07
			c0.56-0.7,1.04-1.47,1.43-2.32c0.35-0.75,0.65-1.53,0.9-2.34c0.21-0.65,0.39-1.31,0.55-1.98c0.16-0.68,0.33-1.36,0.48-2.04
			c0.1-0.47,0.17-0.96,0.25-1.43c0.06-0.35,0.12-0.7,0.17-1.06c0.06-0.45,0.12-0.91,0.17-1.37c0.03-0.28,0.05-0.57,0.07-0.86
			c0.01-0.07,0.01-0.15,0.04-0.21c0.02-0.06,0.06-0.13,0.1-0.18c0.09-0.09,0.2-0.07,0.26,0.06c0.03,0.06,0.04,0.14,0.05,0.21
			c0.03,0.36,0.05,0.72,0.08,1.08c0.04,0.57,0.09,1.14,0.14,1.71c0.03,0.33,0.09,0.65,0.12,0.98c0.03,0.31,0.06,0.61,0.13,0.91
			c0.02,0.08,0.03,0.15,0.04,0.23c0.03,0.27,0.07,0.54,0.14,0.81c0.02,0.07,0.03,0.15,0.04,0.23c0.04,0.19,0.08,0.37,0.12,0.55
			c0.01,0.03,0.01,0.05,0.02,0.08c0.08,0.35,0.15,0.7,0.24,1.04c0.08,0.3,0.17,0.59,0.27,0.89c0.07,0.22,0.14,0.43,0.21,0.64
			c0.15,0.47,0.32,0.92,0.52,1.36c0.19,0.41,0.38,0.83,0.58,1.23c0.24,0.47,0.52,0.92,0.82,1.34
			C983.77,127.34,983.95,127.57,984.13,127.81z"/>
	</g>
	<g>
		<path class="swwu_st7" d="M999.97,143.43c0.23,0.32,0.47,0.61,0.73,0.87c0.23,0.23,0.47,0.44,0.73,0.64c0.24,0.19,0.49,0.36,0.75,0.52
			c0.23,0.15,0.47,0.28,0.71,0.41c0.18,0.1,0.37,0.2,0.56,0.29c0.13,0.06,0.27,0.12,0.4,0.17c0.15,0.06,0.31,0.12,0.47,0.18
			c0.04,0.01,0.08,0.03,0.11,0.04c0.16,0.04,0.31,0.08,0.47,0.13c0.03,0.01,0.05,0.02,0.08,0.04c0.04,0.03,0.04,0.08,0.01,0.12
			c-0.02,0.02-0.04,0.04-0.07,0.04c-0.05,0.01-0.1,0.01-0.15,0.03c-0.21,0.05-0.41,0.11-0.62,0.17c-0.25,0.07-0.5,0.18-0.74,0.29
			c-0.19,0.09-0.39,0.18-0.58,0.28c-0.22,0.12-0.43,0.24-0.64,0.37c-0.32,0.19-0.63,0.4-0.93,0.64c-0.32,0.25-0.63,0.54-0.91,0.86
			c-0.26,0.28-0.49,0.6-0.7,0.94c-0.21,0.33-0.4,0.69-0.56,1.08c-0.08,0.18-0.14,0.37-0.21,0.55c-0.07,0.21-0.15,0.42-0.21,0.64
			c-0.05,0.15-0.08,0.3-0.12,0.45c-0.05,0.19-0.09,0.37-0.13,0.56c0,0.01,0,0.02-0.01,0.02c-0.04,0.22-0.08,0.43-0.12,0.65
			c-0.04,0.24-0.08,0.48-0.11,0.72c-0.04,0.28-0.06,0.55-0.09,0.83c-0.02,0.2-0.04,0.4-0.06,0.6c-0.01,0.16-0.02,0.32-0.03,0.48
			c0,0.05-0.01,0.1-0.02,0.15c-0.01,0.04-0.02,0.08-0.04,0.11c-0.04,0.07-0.1,0.06-0.12-0.03c-0.01-0.04-0.02-0.1-0.02-0.14
			c-0.02-0.23-0.04-0.46-0.06-0.69c-0.01-0.07-0.01-0.15-0.02-0.22c-0.02-0.23-0.05-0.46-0.08-0.69c-0.04-0.3-0.09-0.59-0.13-0.89
			c-0.03-0.21-0.07-0.42-0.11-0.63c-0.03-0.18-0.07-0.35-0.11-0.53c-0.07-0.32-0.15-0.64-0.23-0.96c-0.12-0.47-0.27-0.92-0.45-1.35
			c-0.27-0.65-0.62-1.21-1.03-1.71c-0.34-0.41-0.71-0.77-1.1-1.1c-0.39-0.32-0.79-0.6-1.21-0.84c-0.37-0.21-0.74-0.4-1.12-0.55
			c-0.34-0.13-0.69-0.24-1.04-0.3c-0.12-0.02-0.24-0.05-0.36-0.08c-0.04-0.01-0.07,0-0.11-0.01c-0.03-0.01-0.05-0.02-0.08-0.04
			c-0.03-0.03-0.03-0.08,0.01-0.11c0.01-0.01,0.03-0.02,0.04-0.02c0.03-0.01,0.06-0.01,0.09-0.01c0.24-0.01,0.48-0.04,0.71-0.1
			c0.2-0.05,0.39-0.1,0.59-0.16c0.15-0.04,0.29-0.1,0.44-0.16c0.12-0.05,0.24-0.09,0.35-0.15c0.21-0.1,0.41-0.2,0.61-0.3
			c0.17-0.09,0.33-0.18,0.49-0.28c0.18-0.11,0.36-0.23,0.53-0.36c0.22-0.17,0.44-0.35,0.66-0.54c0.35-0.31,0.68-0.66,0.98-1.08
			c0.26-0.36,0.48-0.77,0.66-1.21c0.16-0.39,0.3-0.8,0.42-1.22c0.1-0.34,0.18-0.68,0.26-1.03c0.07-0.35,0.15-0.71,0.22-1.06
			c0.05-0.25,0.08-0.5,0.12-0.75c0.03-0.18,0.06-0.37,0.08-0.55c0.03-0.24,0.05-0.47,0.08-0.71c0.01-0.15,0.02-0.3,0.03-0.45
			c0-0.04,0.01-0.08,0.02-0.11c0.01-0.03,0.03-0.07,0.05-0.09c0.04-0.05,0.09-0.03,0.12,0.03c0.01,0.03,0.02,0.07,0.02,0.11
			c0.01,0.19,0.02,0.37,0.04,0.56c0.02,0.3,0.04,0.59,0.06,0.89c0.01,0.17,0.04,0.34,0.06,0.51c0.01,0.16,0.03,0.32,0.06,0.48
			c0.01,0.04,0.01,0.08,0.02,0.12c0.01,0.14,0.03,0.28,0.07,0.42c0.01,0.04,0.01,0.08,0.02,0.12c0.02,0.1,0.04,0.19,0.05,0.29
			c0,0.01,0.01,0.03,0.01,0.04c0.04,0.18,0.07,0.36,0.11,0.54c0.04,0.16,0.08,0.31,0.12,0.46c0.03,0.11,0.07,0.22,0.1,0.33
			c0.07,0.24,0.15,0.48,0.24,0.71c0.09,0.22,0.18,0.43,0.27,0.64c0.11,0.25,0.24,0.48,0.38,0.7
			C999.81,143.19,999.89,143.31,999.97,143.43z"/>
	</g>
	<g>
		<path class="swwu_st7" d="M974,162.78c0.19,0.24,0.39,0.45,0.61,0.64c0.19,0.17,0.39,0.33,0.6,0.47c0.2,0.14,0.41,0.27,0.62,0.38
			c0.19,0.11,0.39,0.2,0.59,0.3c0.15,0.07,0.31,0.14,0.46,0.21c0.11,0.05,0.22,0.09,0.33,0.13c0.13,0.05,0.26,0.09,0.39,0.13
			c0.03,0.01,0.06,0.02,0.09,0.03c0.13,0.03,0.26,0.06,0.39,0.09c0.02,0.01,0.05,0.01,0.07,0.03c0.03,0.02,0.04,0.06,0.01,0.09
			c-0.02,0.02-0.04,0.03-0.06,0.03c-0.04,0.01-0.09,0.01-0.13,0.02c-0.17,0.04-0.34,0.08-0.52,0.13c-0.21,0.06-0.41,0.13-0.62,0.21
			c-0.16,0.06-0.32,0.14-0.48,0.21c-0.18,0.09-0.36,0.18-0.53,0.27c-0.27,0.14-0.52,0.3-0.77,0.48c-0.27,0.19-0.52,0.4-0.76,0.63
			c-0.21,0.21-0.41,0.44-0.59,0.7c-0.18,0.25-0.33,0.51-0.46,0.8c-0.06,0.13-0.12,0.27-0.18,0.41c-0.06,0.16-0.12,0.31-0.18,0.47
			c-0.04,0.11-0.07,0.22-0.1,0.33c-0.04,0.14-0.07,0.28-0.11,0.41c0,0.01,0,0.01-0.01,0.02c-0.03,0.16-0.07,0.32-0.1,0.48
			c-0.03,0.18-0.06,0.36-0.09,0.53c-0.03,0.2-0.05,0.41-0.07,0.62c-0.01,0.15-0.04,0.3-0.05,0.44c-0.01,0.12-0.02,0.24-0.03,0.36
			c0,0.04-0.01,0.08-0.02,0.11c-0.01,0.03-0.02,0.06-0.04,0.08c-0.03,0.05-0.08,0.04-0.1-0.02c-0.01-0.03-0.02-0.07-0.02-0.11
			c-0.02-0.17-0.04-0.34-0.05-0.51c-0.01-0.05-0.01-0.11-0.01-0.16c-0.02-0.17-0.04-0.34-0.06-0.51c-0.03-0.22-0.07-0.44-0.11-0.65
			c-0.03-0.16-0.06-0.31-0.09-0.47c-0.03-0.13-0.05-0.26-0.09-0.39c-0.06-0.24-0.12-0.48-0.19-0.71c-0.1-0.35-0.22-0.68-0.37-1
			c-0.22-0.48-0.51-0.9-0.85-1.26c-0.28-0.3-0.59-0.57-0.91-0.81c-0.32-0.24-0.66-0.44-1-0.62c-0.3-0.16-0.62-0.29-0.93-0.4
			c-0.28-0.1-0.57-0.18-0.87-0.22c-0.1-0.01-0.2-0.04-0.3-0.06c-0.03-0.01-0.06,0-0.09-0.01c-0.02,0-0.05-0.01-0.06-0.03
			c-0.03-0.03-0.02-0.06,0.01-0.08c0.01-0.01,0.02-0.01,0.04-0.01c0.02,0,0.05-0.01,0.07-0.01c0.2-0.01,0.4-0.03,0.59-0.07
			c0.16-0.04,0.33-0.08,0.49-0.12c0.12-0.03,0.24-0.08,0.36-0.12c0.1-0.03,0.2-0.07,0.29-0.11c0.17-0.07,0.34-0.15,0.51-0.22
			c0.14-0.06,0.28-0.13,0.41-0.21c0.15-0.08,0.3-0.17,0.44-0.27c0.19-0.13,0.37-0.26,0.55-0.4c0.29-0.23,0.57-0.49,0.81-0.8
			c0.21-0.27,0.4-0.57,0.55-0.89c0.13-0.29,0.25-0.59,0.35-0.9c0.08-0.25,0.15-0.5,0.21-0.76c0.06-0.26,0.13-0.52,0.18-0.79
			c0.04-0.18,0.07-0.37,0.1-0.55c0.02-0.14,0.05-0.27,0.07-0.41c0.02-0.18,0.04-0.35,0.06-0.53c0.01-0.11,0.02-0.22,0.03-0.33
			c0-0.03,0.01-0.06,0.01-0.08c0.01-0.02,0.02-0.05,0.04-0.07c0.03-0.04,0.08-0.03,0.1,0.02c0.01,0.02,0.02,0.05,0.02,0.08
			c0.01,0.14,0.02,0.28,0.03,0.41c0.02,0.22,0.03,0.44,0.05,0.66c0.01,0.13,0.04,0.25,0.05,0.38c0.01,0.12,0.02,0.24,0.05,0.35
			c0.01,0.03,0.01,0.06,0.01,0.09c0.01,0.11,0.03,0.21,0.06,0.31c0.01,0.03,0.01,0.06,0.02,0.09c0.01,0.07,0.03,0.14,0.05,0.21
			c0,0.01,0.01,0.02,0.01,0.03c0.03,0.13,0.06,0.27,0.09,0.4c0.03,0.12,0.07,0.23,0.1,0.34c0.03,0.08,0.06,0.16,0.08,0.25
			c0.06,0.18,0.12,0.35,0.2,0.52c0.07,0.16,0.15,0.32,0.22,0.47c0.09,0.18,0.2,0.35,0.32,0.52
			C973.86,162.59,973.93,162.68,974,162.78z"/>
	</g>
</g>
</svg>
