<?xml version="1.0" encoding="utf-8"?>
<!-- Generator: Adobe Illustrator 26.4.1, SVG Export Plug-In . SVG Version: 6.00 Build 0)  -->
<svg version="1.1" id="Suicide_Prevention_Begins_With_All_Of_Us"
	 xmlns="http://www.w3.org/2000/svg" xmlns:xlink="http://www.w3.org/1999/xlink" x="0px" y="0px" viewBox="0 0 1080 895"
	 style="enable-background:new 0 0 1080 895;" xml:space="preserve">
<style type="text/css">
	.st0{clip-path:url(#SVGID_00000065764638699173831240000009128631958258304401_);fill:#F0F7FA;}
	.st1{fill:#3C2E72;}
	.st2{fill:#6C6094;}
	.st3{fill:#3B2D71;}
	.st4{fill:#6A5E94;}
	.st5{fill:#3B2E71;}
	.st6{fill:#3C2E71;}
	.st7{fill:#695E93;}
	.st8{fill:#695E94;}
	.st9{fill:#695D93;}
	.st10{fill:#6A5F94;}
	.st11{fill:#3C2F72;}
	.st12{fill:#3E3173;}
	.st13{fill:#FEFE5E;}
</style>
<g>
	<g>
		<defs>
			<rect id="SVGID_1_" x="75" y="20" width="930" height="856.1"/>
		</defs>
		<clipPath id="SVGID_00000068646700181998156610000007366846473169349541_">
			<use xlink:href="#SVGID_1_"  style="overflow:visible;"/>
		</clipPath>
		<path style="clip-path:url(#SVGID_00000068646700181998156610000007366846473169349541_);fill:#F0F7FA;" d="M904.65,211.86
			c46.39,4,83.5,17.97,82.31,71.82c-2.52,49.3-50.79,89.06-40.09,140c5.06,20.3,22.75,33.23,34.24,49.72
			c23.79,31.39,9.39,68.86-15.54,94.61c-14.38,16.3-32.87,28.02-48.7,42.69c-8.54,9.32-12.52,22.16-13.95,34.52
			c-0.87,9.49,0.79,18.98,0.37,28.47c-0.29,20.84-10.62,40.22-26.56,53.39c-26.56,23.23-63.81,31.82-98.38,27.6
			c-29.63-3.72-57.68-20.28-86.61-3.59c-26.67,14.71-44.74,41.88-73.59,53.18c-26.87,9.73-51.9-11.99-77.28-17.82
			c-27.97-6.04-57.46,1.67-83.36,12.48c-27.99,12.03-51.91,31.2-77.93,46.7c-31.27,18.11-66.95,30.23-103.33,30.37
			c-26.16-0.64-53.31-6.06-75.41-20.64c-22.02-14.11-27.26-40.2-7.72-59.14c9.56-9.74,21.27-17.05,33.27-23.41
			c11.18-6.9,36.47-14.83,38.96-29.09c-1.26-19.2-43.16-15.01-57.14-15.58c-18.85,0.2-37.94,1.1-56.46-3.05
			c-16.68-3.52-32.84-10.16-46.44-20.52c-19.15-13.27-30.18-37.12-26.91-60.32c2.96-16.39,12.8-30.84,23.22-43.49
			c20.85-23.09,51.25-36.36,68.75-62.77c13.72-18.31,11.09-42.57-2.52-60.11c-6.54-8.82-15.55-15.32-23.2-23.1
			c-12.31-11.94-21.18-30.13-13.78-46.98c16.76-42.68,62.2-61.98,101.96-77.85c10.76-4.6,21.38-10.8,28.36-20.42
			c2.68-4.06,5.59-10.56,1.16-14.41c-10.06-5.88-22.75-4.33-33.75-7.58c-23.08-5.11-32.5-18.64-20.2-41.06
			c22.92-43.2,76.17-53.25,120.62-58.72c26.85-4.1,55.95-1.89,79.69-17.21c18.09-11.29,33.38-26.27,48.74-40.89
			c24.62-24.38,49.56-51.87,87.58-47.99c23.91,1.13,45.45,12.39,68.33,18.1c38.53,10.05,79.8,2.43,115.14-14.78
			c40.53-21.32,77.31-53.95,124.46-59.05c46.75-5.86,75.82,25.99,65.52,72.27c-6.38,30.46-27.88,54.07-41.03,81.49
			C865.9,203.85,884.53,209.94,904.65,211.86z"/>
	</g>
	<g>
		<path class="st1" d="M585.18,624.03c2.84-9.35,11.61-17.87,17.76-20.91c5.41-2.67,17.01-6.48,22.96-7.46
			c1.11-0.18,3.43-0.67,4.48-0.28c1.66,0.61,4.65,3.08,5.26,4.74c0.98,2.68,0.89,8.78-0.2,11.43c-0.75,1.84-3.19,5.16-4.78,6.36
			c-2.78,2.09-9.42,4.5-12.56,6.02c-3.04,1.47-5.13,4.46-6.83,11.65c-0.43,1.83-0.34,4.38-0.96,5.35
			c-3.94,6.24-7.45,19.87-10.15,26.74c-1.79,4.57-6.51,13.74-8.59,18.18c-1.33,2.83-9.45,12.06-10.43,7.96
			c-0.16-0.68-0.01-3.21,0.14-4.26c0.28-2.05,0.29-6.21,0.35-8.28c0.11-3.66,0.58-10.97,0.68-14.64c0.05-1.67-0.01-5.02,0.03-6.69
			c0.1-3.9,0.74-11.7,0.87-15.6c0.06-1.67-0.05-5.01,0.02-6.68c0.07-1.77,0.46-5.3,0.64-7.06"/>
		<path class="st2" d="M583.15,644.26"/>
		<path class="st2" d="M338.47,597.37"/>
		<path class="st3" d="M460.8,590.85c-0.02-0.87,0.18-2.96,0.44-4.37c1.82-19.66,1.92-39.43,3.34-59.12
			c1.16-16.11,8.24-28.71,24.11-34.45c4.13-1.49,7.2-0.86,9.83,2.71c2.17,2.94,3.96,6.25,5.38,9.62c2.38,5.68,4.26,11.56,6.49,17.3
			c0.74,1.89,1.71,3.77,2.94,5.37c1.71,2.22,3.97,2.23,5.37-0.18c1.27-2.18,2.28-4.78,2.44-7.26c0.28-4.21-0.14-8.47-0.37-12.7
			c-0.3-5.47-0.75-10.92-1.06-16.39c-0.25-4.39,1.63-7.98,5.43-9.87c5.36-2.66,10.89-5.19,16.61-6.87c5.97-1.75,9,0.74,9.04,6.99
			c0.05,7.8-0.45,15.6-0.94,23.88c-0.14,0.94-0.04,1.41,0.06,1.88c-0.22,6.07-0.44,12.13-0.9,18.68c-0.13,0.95-0.03,1.42,0.07,1.88
			c-0.39,10.42-0.78,20.83-1.52,31.73c-3.93,7.55-7.5,14.64-11.12,21.7c-3.59,7-8.06,13.3-14.52,18.01
			c-0.72,0.52-1.13,1.47-1.68,2.22c-3.88,1.18-6.88-0.53-8.84-3.52c-2.07-3.16-3.9-6.64-5.01-10.23c-2.22-7.17-3.84-14.52-5.8-21.78
			c-0.75-2.76-1.64-5.5-2.67-8.17c-0.53-1.37-1.35-2.73-2.34-3.81c-2.19-2.35-5.13-1.9-6.15,1.12c-0.82,2.42-1.39,5.1-1.24,7.62
			c0.51,8.99,1.29,17.98,2.14,26.95c0.36,3.8,1.3,7.55,1.69,11.35c0.45,4.42-1.42,8.39-6,10.77c-6.77-2.38-11.32-7.1-15.74-12.14
			C467.26,596.31,463.89,594.22,460.8,590.85z"/>
		<path class="st4" d="M884.52,281.17c1.36,5.13,2.97,11.64,4.39,16.75c0.55,1.97,1.18,3.94,2,5.8c0.75,1.7,1.47,3.94,3.86,3.63
			c2.37-0.31,2.54-2.7,2.86-4.49c0.41-2.27,0.57-4.63,0.48-6.93c-0.26-7.24-0.62-15.48-0.55-23.1c0.84-0.4,1.2,0.65,1.59,0.55
			c8.75-2.23,16.17-0.07,22.35,6.56c0.98,1.05,2.44,0.71,3.65,1.55c-0.33,10.95-0.68,22.91-1.09,33.86
			c-0.47,12.74-1.02,25.47-1.61,38.2c-0.36,7.66-0.61,15.35-1.44,22.96c-0.39,3.59-1.5,7.33-3.21,10.51
			c-5.19,9.67-19.82,10.4-26.36,1.54c-3.49-4.73-5.41-10.21-6.55-15.85c-2.12-10.47-3.78-21.02-5.75-31.52
			c-1.04-5.51-2.2-11.01-3.57-16.45c-0.49-1.94-1.59-3.78-2.72-5.47c-0.52-0.77-1.86-1.56-2.66-1.41c-0.74,0.13-1.62,1.43-1.79,2.34
			c-0.48,2.54-0.98,5.17-0.86,7.73c0.58,11.9,1.34,23.79,2.11,35.69c0.2,3.14,0.73,6.26,0.98,9.4c0.47,5.91-2.47,9.1-8.4,9.05
			c-5.01-0.04-9.78-1.33-14.25-3.51c-3.66-1.79-6.03-4.77-6.67-8.84c-0.4-2.56-0.71-5.19-0.56-7.76c1.02-18.33,2.53-38.8,4.1-57.47
			c8.06-1.43,14.67-2.26,20.82-6.6C872.35,293.18,878.17,286.32,884.52,281.17z"/>
		<path class="st5" d="M432.98,430.75c-1.47-7.65-3.6-15.24-4.27-22.96c-0.99-11.44-1.31-22.98-1.2-34.47
			c0.05-5.67,1.35-11.41,2.75-16.95c1.17-4.6,3.63-8.66,9.04-9.59c5.88-1.01,10.8,0.91,13.94,5.8c2.63,4.1,4.82,8.62,6.34,13.24
			c3.52,10.73,4.56,21.96,5.69,33.15c0.51,5.04,1.01,10.09,1.66,15.12c0.26,1.97,0.92,3.88,1.42,5.88c3.08-0.51,3.75-2.65,4.24-4.51
			c1.58-5.95,3.09-11.93,4.26-17.97c2.85-14.66,5.02-29.49,10-43.62c2.3-6.54,5.51-12.81,8.79-18.94c2.28-4.26,5.85-7.65,10.23-9.86
			c2.04-1.03,4.32-1.88,6.57-2.13c5.04-0.56,7.93,2.11,7.73,7.14c-1.6,40-10.23,78.16-30.18,113.27c-1.62,2.85-3.57,5.52-5.95,8.43
			c-4.46,0.41-8.15-0.24-11.82-1.61c-7.01-2.61-12.36-7.51-17.48-12.6C448.58,431.44,441.81,428.02,432.98,430.75z"/>
		<path class="st5" d="M522.78,438.07c-2.64-5.61-3.03-11.69-2.97-17.67c0.18-19.03,0.49-38.07,1.22-57.09
			c0.34-8.87,1.48-17.74,2.82-26.52c1.57-10.26,5.86-19.11,15.36-24.53c9.35-5.34,19.22-9.36,29.94-10.86
			c3.62-0.51,7.4-0.74,11.01-0.3c5.62,0.69,7.53,3.37,7.13,8.99c-0.25,3.55-0.63,7.1-1.18,10.61c-1.79,11.25-8.26,18.52-19.06,21.97
			c-3.52,1.12-7.11,2.04-10.61,3.22c-3.94,1.32-6.48,4.97-6.52,9.04c-0.03,2.89,1.17,4.26,3.98,3.77c2.81-0.48,5.54-1.47,8.25-2.4
			c3.1-1.06,6.08-2.53,9.23-3.41c4.28-1.2,6.33,0.28,6.64,4.66c0.39,5.36-0.06,10.67-1.67,15.84c-1.47,4.72-4.34,8.23-8.91,10.16
			c-3.78,1.6-7.65,2.98-11.5,4.42c-4.62,1.73-7.43,6.49-6.66,11.36c0.53,3.35,2.46,4.54,5.54,2.99c3.79-1.9,7.4-4.14,11.38-5.95
			c-0.79,5.35-1.98,10.39-2.93,15.48c-1.35,7.27-2.77,14.5-6.52,21.02c-0.46,0.8-0.64,1.77-0.95,2.66c-2.68,1.2-5.37,2.41-8.62,3.47
			c-2.18-0.84-3.84-1.44-5.39-2.24c-4.1-2.11-8.15-2.24-12.42-0.4C527.3,437.23,524.98,437.51,522.78,438.07z"/>
		<path class="st1" d="M389.93,295.59c-0.31-4.78-0.8-9.56-0.9-14.35c-0.41-19.45-0.79-38.91-1.01-58.37
			c-0.13-11.74,3.28-15.93,14.67-18.82c10.44-2.65,14.44,0.24,14.72,11.04c0.41,15.62,0.57,31.24,0.94,46.85
			c0.1,4.24,0.51,8.48,0.9,12.71c0.16,1.76,0.39,3.6,1.05,5.21c0.45,1.11,1.6,2.51,2.6,2.66c1.07,0.16,2.79-0.7,3.42-1.65
			c1.03-1.53,1.78-3.46,1.99-5.3c0.71-6.12,1.46-12.26,1.58-18.4c0.28-14.11,0.19-28.23,0.26-42.34c0.01-2.33,0.05-4.66,0.22-6.98
			c0.51-7.07,4.32-11.68,10.88-14.01c2.83-1,5.75-1.87,8.7-2.35c4.82-0.77,7.62,1.25,8.68,5.98c0.42,1.86,0.66,3.8,0.68,5.7
			c0.23,26.03,0.77,52.09-1.57,78.06c-0.77,8.56-2.48,17.06-4.1,25.52c-0.61,3.18-2.17,6.18-3.79,9.41
			c-2.85-2.06-5.38-4.11-7.54-6.5c-4-4.44-7.61-9.24-11.71-13.59c-3.23-3.43-7.32-5.82-12.15-6.12c-4.89-0.3-9.78-0.3-14.56,1.34
			C399.31,292.87,394.6,294.17,389.93,295.59z"/>
		<path class="st3" d="M589.01,356.47c0.71-14.49,0.76-29.06,2.33-43.46c1.64-15.08,9.4-26.69,23.6-33.27
			c5.22-2.42,8.56-1.74,11.58,3.17c2.35,3.81,4.11,8.03,5.72,12.23c1.97,5.11,3.46,10.39,5.25,15.56c0.53,1.54,1.26,3.05,2.12,4.44
			c2.18,3.51,5.05,3.54,6.66-0.3c1.34-3.2,2.17-6.83,2.27-10.3c0.14-5.18-0.61-10.38-0.89-15.57c-0.22-4.1-0.29-8.21-0.42-12.31
			c-0.14-4.34,1.68-7.72,5.24-10.09c5.44-3.62,11.49-5.83,17.91-6.78c4.68-0.69,7.29,1.44,8.02,6.11c0.26,1.62,0.41,3.28,0.32,4.91
			c-0.92,16-1.91,31.99-3.25,48.36c-1.57,1.64-3.05,2.74-3.93,4.2c-5.23,8.63-10.4,17.3-15.45,26.03
			c-3.6,6.22-8.07,11.47-15.22,13.46c-3.9,1.08-8.01,1.39-12.03,2.05c-1.06-4.33-2.01-8.69-3.23-12.97
			c-0.59-2.07-1.46-4.17-2.66-5.94c-0.74-1.08-2.5-2.33-3.53-2.13c-1.29,0.25-3.06,1.76-3.31,2.99c-0.79,3.84-0.97,7.81-1.36,11.74
			c-0.07,0.68-0.01,1.36-0.36,2.41c-3.68-1.15-7-2.69-10.35-4.18c-3.55-1.58-7.16-2.53-11.06-1.15
			C591.71,356.11,590.34,356.21,589.01,356.47z"/>
		<path class="st6" d="M526.95,743.8c-7.66,0.38-13.42-3.1-17.89-9c-3.8-5.02-6-10.82-6.88-16.97
			c-3.68-25.61-0.44-50.06,13.85-72.14c8.32-12.85,20.3-20.99,35.55-23.68c8.76-1.55,15.55,1.76,20.15,9.42
			c3.9,6.49,5.41,13.72,6.22,21.1c1.35,12.32,0.79,24.76-0.96,37.01c-0.34,2.37-1.29,4.63-1.96,7.36
			c-7.83,2.13-14.67,0.47-21.51-2.31c-0.13-0.05-0.26-0.07-0.39-0.12c-5.74-1.78-9.55-0.32-12.4,4.88
			c-3.45,6.28-5.6,13.01-7.22,19.98C531.59,727.55,530.61,736.04,526.95,743.8z M543.76,693.01c8.36-6.31,9.54-15.26,8.65-24.7
			c-0.53-5.56-4.37-7.63-9.79-5.97c-5.6,1.72-9.88,5.2-13,10.12c-3.12,4.91-3.72,10.25-2.41,15.8c1.47,6.21,6.43,8.94,12.53,6.97
			C540.98,694.84,542.11,694.03,543.76,693.01z"/>
		<path class="st7" d="M757.95,455.21c0.02,2.87,0.14,5.73,0.04,8.6c-0.49,14.51-1.04,29.01-1.58,43.52
			c-0.2,5.51-1.03,10.89-3.25,16c-3.99,9.2-14.36,15.28-24.31,14.15c-4.69-0.53-8.26-3.16-10.6-7.03c-2.39-3.96-4.15-8.3-6.19-12.47
			c-0.87-1.78-0.69-4.79-2.76-5.5c-2.77-0.94-2.86,3.47-3.64,5.25c-2.25,5.13-4.02,10.52-6.72,15.39
			c-5.26,9.5-13.76,13.77-24.55,13.44c-6.08-0.18-10.57-3.05-12.59-8.82c-1.16-3.31-2.11-6.93-2.02-10.39
			c0.49-19.44,1.68-42.08,2.86-61.85c4.46-0.62,7.65,3.78,10.8,6.2c2.92,2.24,5.85,4.46,8.75,6.72c6.99,5.47,14.04,10.82,22.52,13.9
			c4.2,1.52,8.37,2.18,12.79,0.91c5.26-1.51,9.91-4.15,13.54-8.08c6.75-7.29,13.1-14.95,19.69-22.4
			C753.04,460.14,755.54,457.72,757.95,455.21z"/>
		<path class="st5" d="M758.04,455.94c-2.5,2.85-5,4.2-7.3,6.8c-6.59,7.45-12.94,15.11-19.69,22.4c-3.64,3.93-8.29,6.57-13.54,8.08
			c-4.43,1.27-8.59,0.61-12.79-0.91c-8.48-3.07-15.53-8.43-22.52-13.9c-2.9-2.26-5.83-4.48-8.75-6.72
			c-3.16-2.42-6.7-2.53-11.04-2.24c0.13-11.34,0.4-23.77,1.17-35.1c0.48-7.05,4.52-11.96,11.17-14.41c2.93-1.08,6.02-2.05,9.1-2.31
			c8.6-0.72,13.9,4.65,13.16,13.24c-0.28,3.25-1.02,6.5-1.97,9.63c-1.6,5.23-3.63,10.33-5.31,15.55c-0.88,2.72-1.61,5.54-2,8.36
			c-0.4,2.84,0.87,4.61,3.02,5.1c2.5,0.57,3.92-0.79,4.81-2.84c1.15-2.63,2.14-5.33,3.24-7.99c0.99-2.4,1.86-4.88,3.08-7.16
			c3.23-6.04,10.8-7,15.38-1.83c1.59,1.79,2.57,4.16,3.66,6.35c0.72,1.46,0.98,3.17,1.76,4.59c0.52,0.95,1.29,2.48,2.42,2.38
			c1.16-0.09,1.8-1.77,2.04-2.8c0.47-2.11,0.75-4.35,0.63-6.51c-0.51-9.02-1.23-18.04-1.81-27.06c-0.13-2.04-0.15-4.11-0.02-6.15
			c0.38-6.06,3.58-10.26,8.98-12.73c5.34-2.44,11.02-3.25,16.86-2.71c4.12,0.38,6.61,2.38,7.5,6.43c0.58,2.64,0.74,5.44,0.63,8.15
			C759.4,431.26,758.74,443.96,758.04,455.94z"/>
		<path class="st5" d="M356.45,440.35c-0.01-4.79-0.18-9.59,0.01-14.37c0.56-13.69,1.12-27.38,2-41.06
			c0.26-4.06,1.35-8.11,2.46-12.05c1.98-7.02,6.62-11.53,13.76-13.33c11.58-2.91,23.26-3.65,35.05-1.37
			c1.47,0.29,2.94,0.7,4.35,1.22c6.32,2.33,8.42,5.41,8.02,12.14c-0.22,3.68-0.54,7.4-1.27,11.01
			c-2.11,10.32-7.55,15.04-18.09,15.88c-3.41,0.27-6.86,0.11-10.27,0.34c-4.01,0.27-6.27,2.52-6.74,6.43
			c-0.4,3.3,0.98,5.49,4.31,5.72c3.25,0.22,6.54-0.19,9.81-0.43c2.59-0.19,5.17-0.77,7.76-0.79c3.83-0.03,5.7,1.42,6.27,5.14
			c0.93,6.05,0.46,12.04-1.85,17.78c-1.39,3.45-4.1,5.52-7.66,6.21c-3.89,0.74-7.85,1.21-11.79,1.68c-5.57,0.66-8.76,7.73-5.6,12.42
			c1.35,2.01,3.21,1.98,5.11,1.41c3.93-1.19,7.81-2.55,11.98-3.59c-3.2,5.44-8.16,8.92-13.83,10.87
			c-6.91,2.38-13.83,1.82-19.51-3.52c-2.57-2.42-4.94-5.1-7.14-7.86C361.06,447.06,358.82,443.66,356.45,440.35z"/>
		<path class="st5" d="M755.53,633.92c-4.12-2.5-7.08-6.09-8.99-10.42c-4.36-9.89-5.3-20.18-1.91-30.48
			c7.88-23.97,36.23-30.85,54.92-13.53c8.09,7.5,11.46,16.8,10.85,27.68c-0.28,5.04-3.9,9.65-8.56,10.9
			c-5.58,1.5-10.95-0.19-13.79-4.69c-1.6-2.53-2.62-5.42-4.04-8.07c-1.61-3.01-3.91-3.93-6.79-2.84c-0.62,0.24-1.24,0.6-1.72,1.06
			c-2.82,2.7-2.76,9.75,0.25,12.3c1.76,1.5,3.82,2.64,5.77,3.92c3.9,2.55,7.95,4.87,11.68,7.64c9.49,7.06,15.03,16.56,16.47,28.31
			c0.96,7.83,0.54,15.61-1.68,23.22c-1.32,4.52-4.03,9.06-8.02,12.56c-1.72,0.51-2.21,0.45-3.34,0.89c-3.7,1.44-7.13,0.64-9.94-1.83
			c-7.07-6.21-12.62-14.03-14.09-23.14c3.48,0.07,6.6-3.97,7.4-6.82c0.62-2.23,1.06-4.54,1.24-6.85c0.49-6.23-0.74-8.18-6.52-10.8
			c-1.99-0.9-4.03-1.7-6.31-2.99c-0.52-1.06-0.7-1.74-1.07-2.29C764.37,633.37,759.98,633.51,755.53,633.92z"/>
		<path class="st1" d="M343.8,604.93c-0.62-21.23,1.75-41.92,12.17-60.88c7.58-13.8,19.41-21.64,35.19-23.22
			c12.03-1.21,20.79,4.07,25.21,15.37c2.32,5.95,3.64,12.06,1.36,18.43c-2.56,7.16-10.35,12.1-17.82,11.16
			c-2.78-0.35-3.87-1.47-4.4-4.55c-1.22-7.04-2.81-8.16-9.88-6.96c-9.63,1.64-13.44,5.34-14.26,15.11
			c-0.64,7.63-0.75,15.33-0.56,22.98c0.09,3.47,1.09,7.05,2.35,10.33c1.73,4.51,4.52,5.85,9.15,4.74c2.77-0.66,5.49-1.72,8.03-3.01
			c1.21-0.61,2.32-2.01,2.81-3.31c0.99-2.62-0.43-4.18-3.23-3.96c-1.5,0.12-3,0.4-4.49,0.35c-4.48-0.14-7.13-2.46-6.98-6.86
			c0.12-3.5,0.84-7.06,1.85-10.43c1.06-3.53,3.86-5.63,7.51-6.28c8.22-1.47,16.44-2.92,24.7-4.19c4.29-0.66,6.99,1.33,7.27,5.78
			c0.27,4.34-0.3,8.73-0.89,13.45c-2.72,1.98-5.08,3.58-7.38,5.26c-8.35,6.09-16.31,12.8-25.09,18.19
			c-12.82,7.86-26.78,7.14-38.2-4.02C346.86,607.12,345.27,606.09,343.8,604.93z"/>
		<path class="st8" d="M840.59,305.21c0,15.7-1.5,32.32-7.84,46.91c-3.69,8.48-9.37,15.2-18.74,17.73
			c-12.55,3.38-29.42,1.23-38.52-15.84c-4.27-8-5.96-17.69-6.92-26.59c-1.47-13.6-0.29-27.43,2.55-41.17
			c1.67-1.37,2.62-0.91,3.77-2.03c3.51-3.41,6.85-7.02,10.48-10.3c4.63-4.19,11.25-5.47,15.03-2.65c3.97,2.97,7.61,6.86,8.37,11.98
			c-8.66-0.44-14.34,5.54-15.6,11.92c-1.02,5.16-1.05,10.47,1.24,15.31c1.18,2.49,3.03,4.95,5.19,6.64
			c4.18,3.27,9.56,2.43,12.68-1.87c1.56-2.15,2.73-4.8,3.31-7.39c0.84-3.71,1.46-8.54,1.68-12.36c0.89,0.54,1.56,2,2.12,2.58
			C825.18,304.02,832.17,305.97,840.59,305.21z"/>
		<path class="st4" d="M702.43,595.57c0.06,3,0.16,8.14,0.17,11.14c0.05,10.67,0,21.33,0.13,32c0.04,2.99,0.48,5.99,0.93,8.96
			c0.29,1.9,0.83,4.02,3.26,4.09c2.47,0.07,3.66-1.85,4.05-3.94c0.76-4.02,1.47-8.08,1.75-12.15c0.63-9.14,1.33-20.43,2.26-29.82
			c1.59,4.02,3.74,8.66,4.93,12.91c1.39,4.95,2.51,10.02,4.45,14.75c2.25,5.49,4.78,8.86,10.5,7.49c1.71-0.41,3.76-2.32,5.46-2.78
			c-0.12,4.36,0.08,8.76-0.44,13.07c-1.01,8.42-2.65,18.24-4.12,26.59c-0.51,2.92-1.71,5.78-2.93,8.52
			c-2.98,6.64-8.08,10.97-15.1,12.91c-7.59,2.1-15.33,2.92-23.19,2.18c-6.69-0.63-11.94-3.8-14.33-10.09
			c-2.02-5.32-3.86-10.99-4.25-16.6c-0.99-14.2-1.11-28.45-1.19-43.15c0.8-1.16,1.27-1.83,1.62-2.55
			c3.05-6.26,5.82-12.68,9.18-18.77C689.23,603.71,694.88,597.19,702.43,595.57z"/>
		<path class="st8" d="M274.99,600.89c2.38,2.57,3.63,6.39,3.45,9.72c-0.4,7.24-0.74,14.5-1.67,21.68
			c-1.26,9.78-6.37,14.27-16.19,14.62c-11.88,0.43-23.46-1.6-34.77-5.1c-7.54-2.34-12.4-7.45-13.93-15.27
			c-0.94-4.82-1.83-9.73-1.94-14.62c-0.55-24.11,0.37-49.11,3.54-73.41c7.49-0.91,12.86,2.72,17.03,8.21
			c2.8,3.69,5.84,7.38,7.69,11.55c4.21,9.47,7.96,19.16,11.49,28.91c2.62,7.25,6.53,13.18,13.55,16.7
			C267.73,606.15,271.27,604.71,274.99,600.89z M250.07,626.39c6.33-3.05,3.76-17.97-4.69-20.3c-2.78-0.77-5.44,0.15-6.31,3.01
			c-0.89,2.91-1.51,6.19-1.1,9.15c0.48,3.49,2.29,6.47,5.63,7.82C246.35,627.17,248.49,627.15,250.07,626.39z"/>
		<path class="st7" d="M685.06,205.24c-0.07,9.68-1.71,19.05-5.68,27.93c-3.75,8.39-10.08,14.27-18.41,17.9
			c-11.98,5.23-24.64,8.25-37.44,10.54c-7.02,1.26-11.43-1.63-13.33-8.48c-1.2-4.32-1.97-8.84-2.26-13.31
			c-0.5-7.78-0.49-15.59-0.25-23.7c1.42-1.2,2.52-1.99,3.36-2.99c7.3-8.64,14.03-17.79,22.59-25.28
			c6.5-5.68,13.34-10.76,22.43-11.67c11.33-1.13,18.29,3.24,21.62,11.84c1.77,4.57,3.22,9.27,4.94,13.87
			C683.11,203.17,682.97,205.07,685.06,205.24z M636.33,218.05c1.84,2.13,4.01,1.35,6,0.48c6.33-2.77,10.74-7.46,12.95-14.01
			c3.05-9.01-3.91-18.01-13.47-17.59c-3.44,0.15-5.53,1.5-6.08,4.94C634.37,200.39,633.91,208.96,636.33,218.05z"/>
		<path class="st3" d="M314.5,267.16c-1.77-6.97-2.23-18.29-0.13-26.01c2.91-10.69,10.35-17.57,19.74-22.42
			c8.89-4.6,18.45-6.08,28.3-3.56c10.15,2.6,17.7,8.6,21.71,18.4c3.29,8.02,2.19,15.7-3.71,22.17c-1.94,2.12-4.76,3.73-7.48,4.78
			c-5.72,2.19-9.74,0.5-12.82-4.77c-0.9-1.53-1.59-3.19-2.49-4.72c-2.49-4.23-7.92-4.33-10.08,0.14c-2.53,5.25-3.19,11.6,4.19,14.2
			c4.51,1.59,8.98,3.34,13.38,5.21c11.9,5.05,19.24,14.61,20.34,28.21c-3.37,1.97-6.36,2.7-9.47,4.06
			c-6.47,2.84-13.31,7.36-20.6,4.11c0.3-1.37,0.28-3.86,0.27-5.07c-0.04-4.54-1.3-6.41-5.56-7.83c-2.18-0.73-5.61-1.92-8.18-2.91
			c-3.8-5.94-5.94-10.87-9.6-16.27c0,0-7.68-1.31-15.54-9.75C316.02,265.13,315.26,267.45,314.5,267.16z"/>
		<path class="st6" d="M588.84,545.44c0.75-3.61,2.42-9.33,2.89-12.98c0.52-4.04-0.89-5.52-5.04-5.62
			c-2.73-0.07-5.47,0.26-8.21,0.29c-3.14,0.04-6.31,0.19-9.43-0.14c-8.12-0.87-13.02-5.15-14.84-13.12
			c-1.74-7.61-1.79-15.34,0.98-22.7c6.72-17.87,18.95-30.6,36.89-37.36c3.86-1.45,8.32-1.96,12.47-1.84
			c12.48,0.37,20.79,11.48,17.88,23.61c-2.02,8.4-7.06,14.43-15.24,17.55c-4.55,1.73-7.11,0.72-9.67-3.45
			c-0.21-0.35-0.41-0.71-0.62-1.06c-2.67-4.53-4.77-4.91-8.68-1.44c-3.28,2.9-3.96,6.81-3.6,10.88c0.08,0.92,1.32,2.05,2.3,2.49
			c1.33,0.6,2.9,0.71,4.39,0.91c4.07,0.53,8.21,0.73,12.22,1.52c10.54,2.09,15.53,8.97,16.78,20.04c-0.9,1.27-1.51,0.72-2.08,1.63
			c-2.22,3.55-4.09,7.38-6.71,10.61c-3.45,4.26-7.8,7.59-13.58,8.06C595.16,543.54,591.63,545.46,588.84,545.44z"/>
		<path class="st5" d="M689.37,216.87c-0.1-0.68-0.29-1.35-0.28-2.03c0.25-19.16,0.39-38.33,0.88-57.49
			c0.11-4.32,1.2-8.67,2.31-12.89c1.64-6.27,5.95-10.13,12.28-11.33c12.5-2.38,24.81-1.66,36.76,2.95c1.89,0.73,3.69,1.81,5.39,2.94
			c2.93,1.95,4.62,4.66,4.26,8.32c-0.37,3.66-0.47,7.4-1.32,10.96c-1.24,5.24-4.93,8.21-10.33,8.4c-4.08,0.15-8.19-0.28-12.28-0.47
			c-1.64-0.08-3.28-0.38-4.91-0.33c-2.79,0.09-4.59,1.79-5.02,4.49c-0.45,2.76,0.68,4.78,3.69,5.45c2.77,0.62,5.68,0.66,8.54,0.89
			c2.99,0.23,6.04,0.12,8.98,0.63c3.75,0.65,5.63,2.62,5.83,6.39c0.19,3.79,0.1,7.69-0.57,11.42c-0.96,5.35-3.66,7.39-9.15,7.58
			c-3.14,0.11-6.29-0.13-9.44-0.24c-6.15-0.21-9.28,4.77-6.41,10.31c0.46,0.89,1.32,1.58,2.26,2.7c-2.9,2.09-5.97,4.04-9.25,5.52
			c-6.77,3.06-13.19,2.25-19.1-2.34C691.53,217.96,690.41,217.47,689.37,216.87z"/>
		<path class="st4" d="M348.7,424.12c-1.69,5.03-5.75,8.68-10.28,10.88c-5.01,2.44-5.34,3.12-2.26,7.9
			c2.97,4.6,6.28,8.98,9.33,13.53c1.6,2.38,3.02,4.9,4.42,7.41c4.06,7.28,3.65,15.02,2.1,22.81c-0.67,3.37-2.82,5.81-6.13,6.54
			c-4.25,0.95-8.6,1.58-12.95,1.92c-2.9,0.22-5.42-1.38-6.85-3.87c-1.77-3.06-3.59-6.24-4.51-9.6c-2.22-8.05-3.89-16.24-5.87-24.35
			c-0.58-2.39-1.25-4.79-2.23-7.03c-0.58-1.33-1.86-2.35-2.83-3.52c-0.39,0.09-0.79,0.19-1.18,0.28c-0.45,1.77-1.24,3.52-1.3,5.3
			c-0.19,5.61-0.17,11.23-0.13,16.85c0.04,5.48,0.28,10.96,0.26,16.44c-0.02,4.67-2.18,7.44-6.71,8.58
			c-4.77,1.2-9.52,0.85-14.15-0.81c-3.21-1.15-5.38-3.44-6.11-6.7c-0.62-2.78-0.97-5.68-0.94-8.53c0.14-13.43,0.82-31.5,1.46-45.32
			c2.73-1.47,4.77,2.23,7.02,1.01c9.92-5.42,19.24-12.04,30.11-15.53c3.97-1.27,8.24-2.37,12.34-2.26c5.4,0.15,10.22,2.6,13.97,6.82
			C346.07,423.75,347.61,423.47,348.7,424.12z"/>
		<path class="st6" d="M849.89,483.96c0.21-8.21,0.35-16.42,0.65-24.63c0.37-9.99,0.78-19.98,1.36-29.96
			c0.61-10.43,4.99-13.29,14.94-10.01c9.71,3.2,14.13,9.39,13.65,19.85c-0.3,6.56-1.16,13.09-1.75,19.64
			c-0.3,3.38,0.21,6.57,2.41,9.3c0.51,0.63,1.11,1.22,1.75,1.72c3.67,2.81,5.8,2.29,6.68-2.21c1-5.08,1.16-10.32,1.93-15.45
			c0.62-4.17,1.11-8.45,2.52-12.37c2.09-5.82,6.45-8.89,11.35-8.41c6.17,0.6,11.63,2.95,13.83,9.28c1.1,3.15,1.49,6.79,1.43,10.15
			c-0.47,29.99-1.12,60.55-2.04,90.81c-0.68-0.62-1.64-2.75-2.01-4.02c-2.66-9.03-5.16-18.11-7.9-27.11
			c-2.5-8.22-4.58-16.6-9.29-23.99c-3.94-6.17-9.46-9.66-16.77-8.96c-6.06,0.57-12.05,2.05-18.04,3.24
			C859.69,481.78,854.8,482.91,849.89,483.96z"/>
		<path class="st4" d="M849.92,483.12c5.03-1.43,9.77-1.34,14.7-2.31c6-1.18,11.98-2.66,18.04-3.24c7.31-0.69,12.83,2.79,16.77,8.96
			c4.72,7.38,6.79,15.77,9.29,23.99c2.74,9,5.77,17.94,7.9,27.11c0.27,1.16,1.26,1.44,2.06,2.74c0.11,4.57,0.23,10.11-0.39,14.53
			c-0.69,4.91-3.79,6.83-8.84,6.42c-10.71-0.87-18-8.73-18.65-20.4c-0.3-5.33,0.04-10.69-0.3-16.01c-0.32-4.9-0.9-9.81-1.88-14.62
			c-0.82-4.03-2.77-5.29-6.62-5.5c-3.09-0.17-5.2,1.22-5.38,4.31c-0.21,3.52,0.04,7.1,0.41,10.62c0.57,5.3,1.64,10.55,2.05,15.86
			c0.22,2.8-0.13,5.77-0.89,8.48c-1,3.6-3.73,5.62-7.56,5.92c-5.49,0.42-10.64-0.8-15.38-3.51c-4.95-2.83-6.54-7.61-6.54-12.91
			c0.01-10.27,0.25-20.53,0.44-30.8C849.26,496.75,849.62,489.52,849.92,483.12z"/>
		<path class="st5" d="M348.55,424.54c-1.15-0.36-2.48-0.79-3.28-1.69c-3.75-4.22-8.56-6.67-13.97-6.82
			c-4.1-0.11-8.37,0.99-12.34,2.26c-10.87,3.49-20.19,10.12-30.11,15.53c-2.25,1.23-4.65,2.17-7.28,3.26
			c-0.28-13.54-0.31-27.09-0.25-40.65c0.02-4.79,0.22-9.58,0.43-14.36c0.07-1.49,0.37-2.99,0.7-4.46
			c2.8-12.64,10.38-18.57,23.24-17.59c10.87,0.83,21.41,3.37,31.02,8.7c3.78,2.1,7.33,4.83,10.45,7.84
			c4.5,4.34,6.69,10.03,6.95,16.25c0.35,8.66-0.26,17.26-2.82,25.6C350.65,420.45,349.52,422.32,348.55,424.54z M314.36,407.67
			c4.96,1.85,9.48,1.07,11.56-2c2.72-4,1.29-13.7-2.47-16.78c-4.09-3.35-11.15-2.53-12.21,1.77
			C309.82,396.41,309.41,402.33,314.36,407.67z"/>
		<path class="st1" d="M472.62,319.15c-1.05,0.29-2.09,0.69-3.16,0.85c-3.91,0.59-6.21-0.76-6.76-4.72
			c-1.19-8.47-1.22-16.98,1.32-25.23c0.59-1.91,2.2-3.89,3.89-4.99c2.08-1.36,2.6-2.9,2.55-5.11c-0.1-4.11-0.16-8.22-0.1-12.33
			c0.19-13.7,0.45-27.4,0.67-41.1c0.03-1.62,0-3.25,0-4.84c-5.68-0.67-7.59-1.94-8.22-7.49c-0.64-5.66-0.55-11.46-0.18-17.16
			c0.3-4.66,3.23-8.11,7.19-10.45c7.73-4.55,16.09-7.63,24.78-9.7c5.08-1.21,8.31,1.04,9.25,6.16c1.15,6.26,0.99,12.56-0.21,18.81
			c-0.72,3.75-2.88,6.32-6.5,7.86c-4.48,1.91-4.35,2.37-4.17,7.18c0.64,17.38,1.09,34.77,1.62,52.16c0.05,1.5,0.25,3.87,0.37,6.06
			c-1.31,4.23-2.96,6.87-4.16,10.47c-2.47,7.36-4.84,14.76-7.14,22.18c-1.36,4.36-4.49,7.02-8.22,9.23
			C474.41,317.59,473.55,318.42,472.62,319.15z"/>
		<path class="st5" d="M506.65,272.25c-0.14-2.87-0.44-7.88-0.4-10.74c0.31-21.08,0.5-42.17,1.16-63.24
			c0.17-5.39,1.58-10.82,2.99-16.09c1.67-6.27,5.75-11.07,11.66-13.61c6.13-2.63,12.6-4.47,18.95-6.56
			c1.14-0.37,2.44-0.34,3.67-0.36c9.31-0.14,14.35,4.79,14.1,14.14c-0.08,3.25-0.64,6.55-1.48,9.7c-1.4,5.23-4.73,8.64-10.07,10.4
			c-12.04,3.97-14.71,7.51-15.23,20.23c-0.33,7.93-0.2,15.88-0.15,23.82c0.01,2.03,0.34,4.1,0.81,6.09c0.96,4.1,2.87,5.11,7.48,5.79
			c-0.6,6.59-3.36,12.27-6.64,17.47c-3.33,5.29-7.03,8.22-14.47,5.95C514.78,273.94,510.77,273.99,506.65,272.25z"/>
		<path class="st6" d="M290.06,740.41c0.25-12.75,1.15-25.93,4.28-38.34c0.66-2.64,1.67-5.22,2.8-7.7
			c2.83-6.23,7.62-10.32,14.27-11.97c8.59-2.14,17.34-2.54,26.1-1.49c7.7,0.92,13.03,5.26,15.03,12.69
			c1.63,6.04,2.97,12.31,3.2,18.53c0.53,14.22,0.3,28.46-0.06,43.07c-8.27,0.61-15.19-2.21-21.58-6.31
			c-4.92-3.16-9.46-6.92-14.31-10.19c-7.16-4.83-14.82-5.89-22.86-2.24C294.59,737.49,292.34,739.24,290.06,740.41z M318.11,718.75
			c4.01,4.07,8.87,3.56,13.79,2.46c0.73-0.17,1.48-0.76,1.99-1.35c2.73-3.16,1.73-11.02-1.66-13.46c-3.39-2.43-9.85-2.51-12.81-0.16
			C316.33,708.69,315.62,713.69,318.11,718.75z"/>
		<path class="st4" d="M319.72,620.03c5.02-0.4,10.58-2.76,15.06-2.3c8.98,0.92,8.99,10.96,8.95,17.89
			c-0.01,2.1-0.03,4.24-0.65,6.26c-0.92,3-3.17,4.73-6.04,5.72c-7.87,2.71-16.29,3.55-24.58,3.62c-5.92,0.05-13.6,0.76-19.23-1.42
			c-8.63-3.34-10.69-14.14-11.39-22.28c-0.89-10.41,0.13-21.09,0.64-31.51c0.03-0.57,0.07-1.16,0.38-1.63
			c0.31-0.47,0.83-0.74,1.33-0.99c4.92-2.48,9.59-5.16,14.36-7.84c4.28-2.4,9.97-5.55,15.03-5.55c10.12-1.3,15.31,7.1,21.44,13.86
			c0.55,0.61,1.06,1.34,1.78,1.76c0.4,0.23,1.39,0.48,1.57,1.25c0.11,0.49,0.06-0.14,0,0c-0.16,0.37-0.11,0.79-0.13,1.19
			c-0.07,1.3-0.8,2.8-1.37,3.97c-0.55,1.13-1.27,2.18-2.22,3.01c-2.11,1.83-5.03,2.22-7.73,2.3c-0.14,0-0.28,0.01-0.43,0.01
			c-3.27,0.05-6.56-0.01-9.82-0.2c-2.52-0.15-4.22,0.75-5.46,3.6c-1.74,2.62-1.67,4.64,0.11,6.53
			C313.63,619.76,316.57,620.28,319.72,620.03z"/>
		<path class="st9" d="M248.23,429.76c-2.12,0.95-1.83,2.88-1.74,4.61c0.6,12.16,1.18,24.33,1.93,36.48
			c0.7,11.43-3.95,16.04-15.31,14.85c-1.22-0.13-2.43-0.4-3.62-0.68c-9.73-2.3-13.72-6.98-13.98-16.95
			c-0.17-6.57,0.09-13.14,0.09-19.71c0.01-22.04-0.01-44.08-0.02-66.11c0-1.78,0.54-5.91,0.81-8.2c3.01-2.06,5.12-1.55,7.89-2.9
			c6.35-3.09,12.5-2.03,15.66,5.18c0.66,1.5,1.18,3.07,1.59,4.65c1.69,6.55,1.65,13.24,1.75,19.95
			C243.4,410.77,244.19,420.56,248.23,429.76z"/>
		<path class="st5" d="M685.15,206.7c-2.19,0.15-2.04-3.54-2.52-4.81c-1.72-4.59-3.17-9.29-4.94-13.87
			c-3.32-8.59-10.29-12.97-21.62-11.84c-9.09,0.91-15.93,5.99-22.43,11.67c-8.56,7.48-15.29,16.64-22.59,25.28
			c-0.85,1-2.16,3.64-3.43,4.56c-0.4-17.63-0.89-37.18,1.57-54.73c2.06-14.74,7-19.44,21.52-23.11c13.33-3.37,24.48,0.21,33.73,9.73
			C679.28,164.83,687.07,184.72,685.15,206.7z"/>
		<path class="st4" d="M355.55,305.78c7.48,3.01,13.97-0.09,20.43-2.93c3.11-1.37,6.1-3.02,9.43-4.64
			c1.86,9.54,0.82,18.95-2.12,28.19c-6.51,20.46-24.26,29.14-40.69,29.4c-9.39,0.15-16.59-3.96-21.95-11.49
			c-3.22-4.54-5.26-9.6-5.98-15.13c-0.97-7.42-0.46-14.78,1.89-21.9c1.68-5.09,5.06-8.38,10.72-8.73c4.94-0.31,8.48,1.75,10.48,6.3
			c0.71,1.62,1.14,3.36,1.62,5.07c0.56,1.97,0.97,3.99,1.55,5.95c0.64,2.15,1.51,4.24,4.11,4.59c2.69,0.36,4.8-0.83,6.41-2.92
			C354.07,314.16,354.78,310.1,355.55,305.78z"/>
		<path class="st5" d="M316.35,579.89c-9.16,0.42-17.18,5-24.35,9.68c-3.04,1.98-5.92,4.21-9.17,6.34c-0.3-0.86-0.31-1.73-0.03-3.14
			c1.56-7.97,0.66-17.09,1.32-25.24c0.7-8.63,0.76-17.62,3.86-25.83c1.46-3.87,3.71-7.6,7.27-9.88c4.89-3.14,11.87-2.89,17.46-2.88
			c10.47,0.01,21.03,1.86,30.61,6.11c7.36,3.26,5.44,13.08,4,19.45c-1.66,7.37-5.68,13.47-13.74,13.89
			c-4.99,0.27-10.04-0.41-15.06-0.62c-4.52-0.19-7.79,3.53-6.35,7.58C312.74,576.96,315.28,578.18,316.35,579.89z"/>
		<path class="st10" d="M801.48,428c-0.3,2.15-0.53,5.21-1.08,7.29c-1.03,3.89-2.33,4.81-6.34,5.12c-3.62,0.28-3.89,0.57-3.91,4.19
			c-0.08,17.94-0.14,35.88-0.25,53.81c-0.02,2.74-0.12,5.12,3.56,5.81c1.14,0.21,2.55,2.25,2.75,3.61
			c1.13,7.62,1.2,15.28-0.86,22.79c-0.85,3.08-3.15,4.77-6.23,5.25c-7.66,1.19-15.3,0.49-22.86-0.82c-3.78-0.65-6.29-3.19-6.38-7.03
			c-0.16-6.26-0.17-12.58,0.47-18.8c0.58-5.57,1.55-6.18,6.73-8.28c0.1-0.73,0.27-1.53,0.31-2.34c0.89-18.32,1.77-36.64,2.64-54.96
			c0.03-0.54,0.2-2.5,0.11-3.38c2.66-1.8,5.19-1.72,7.54-3.27C784.89,432.26,792.66,427.99,801.48,428z"/>
		<path class="st1" d="M275.33,601.28c-3.63,4.08-7.6,4.87-12.09,2.62c-7.03-3.52-10.93-9.45-13.55-16.7
			c-3.53-9.75-7.28-19.44-11.49-28.91c-1.85-4.17-4.89-7.87-7.69-11.55c-4.17-5.49-9.76-8.19-17.11-7.61
			c0.71-4.25,1.42-8.61,2.91-12.68c1.71-4.66,5.44-7.31,10.52-7.1c16.63,0.69,31.93,5.16,44.3,16.91c7.5,7.13,10.96,15.86,9.3,26.39
			c-1.51,9.57-6.74,15.96-15.78,19.3c-2.77,1.02-5.53,2.06-9.28,3.46c2.08,1.81,3.25,3.07,4.64,3.99c2.73,1.82,5.74,3.27,8.35,5.24
			C270.83,596.52,272.96,598.87,275.33,601.28z M252.6,549.16c-2.08-2.23-4.71-3.17-7.7-3.21c-2.11-0.02-3.76,0.79-4.35,2.96
			c-0.99,3.62-0.59,7.07,1.81,10.05c1.77,2.19,4.19,3.05,6.94,2.49c2.75-0.56,3.98-2.65,4.62-5.17
			C254.52,553.95,254.48,551.69,252.6,549.16z"/>
		<path class="st11" d="M247.85,429.9c-4.37-9.34-4.45-19.12-4.58-28.98c-0.09-6.71-0.06-13.4-1.75-19.95
			c-0.41-1.58-0.94-3.15-1.59-4.65c-3.16-7.21-9.3-8.26-15.66-5.18c-2.78,1.35-5.24,3.34-8.1,5.04c-0.74-5.42,0.06-10.66,2.18-15.65
			c2.44-5.73,6.69-9.2,13.03-9.92c19.01-2.16,40.54,12.45,45.24,30.89c2.13,8.36,1.54,16.89,0.64,25.34
			c-0.46,4.32-1.4,8.68-2.81,12.78c-2.7,7.86-7.85,11.37-16.17,11.38C255.15,431.01,251.31,430.38,247.85,429.9z M246.33,393.31
			c-0.12,2.44,0.38,4.94,1.08,7.25c1.07,3.54,3.69,5.65,7.37,6.36c3.27,0.63,5.56-0.35,6.48-3.46c1.79-6.06,1.22-12.01-2.45-17.26
			c-2.77-3.97-8.16-3.62-10.58,0.59C247.24,388.52,246.46,390.58,246.33,393.31z"/>
		<path class="st4" d="M290.1,739.7c2.46-1.45,4.49-2.2,6.82-3.26c8.03-3.65,15.69-2.59,22.86,2.24c4.85,3.27,9.39,7.03,14.31,10.19
			c6.39,4.11,13.38,6.42,21.58,6.18c0.26,6.95,0.41,14.43-0.14,21.36c-0.45,5.66-3.45,8.66-9.03,9.67c-3.32,0.6-6.82,0.77-10.19,0.5
			c-4.73-0.39-7.22-2.85-7.73-7.59c-0.45-4.2-0.18-8.47-0.38-12.71c-0.14-3-0.28-6.03-0.85-8.97c-0.57-2.94-2.07-4.04-4.42-3.99
			c-2.5,0.06-4.33,1.33-4.73,3.76c-0.74,4.44-1.22,8.94-1.66,13.42c-0.25,2.58-0.03,5.22-0.35,7.79c-0.69,5.63-3.7,8.69-9.36,9.12
			c-3.24,0.25-6.59,0.08-9.79-0.48c-5.8-1-8.18-3.89-8.38-9.9c-0.15-4.38,0.04-8.77,0.18-13.15
			C289.08,756.08,289.63,747.78,290.1,739.7z"/>
		<path class="st4" d="M838.34,479.28c0.56,3.74,1.32,8.47,1.65,12.24c1,11.47,1.45,22.96-0.47,34.37
			c-0.56,3.32-1.72,6.62-3.09,9.71c-1.62,3.66-4.81,5.69-8.83,5.68c-8.52-0.03-14.65-3.06-17.17-11.2
			c-1.63-5.28-2.4-10.96-2.69-16.51c-0.79-15.42,1.92-30.53,5.16-45.53c1.24-5.75,2.67-11.45,3.97-17.19
			c0.35-1.57,0.53-3.18,0.82-4.96c-7.29-2.47-11.9-7.57-12.19-15.67c3.89,0.46,6.32,3.43,8.52,6.02
			c5.13,6.03,7.64,13.42,10.42,20.67c2.73,7.13,5.51,14.26,10.23,20.37C835.61,478.51,837.1,478.3,838.34,479.28z"/>
		<path class="st5" d="M840.6,305.97c-8.5,1.14-15.42-1.95-21.21-7.91c-0.56-0.58-1.23-1.05-2.15-1.93
			c-0.85-6.11-2.72-10.97-8.85-12.92c-1.1-5.03-4.02-8.99-7.99-11.96c-3.78-2.82-10.4-1.54-15.03,2.65
			c-3.63,3.28-6.96,6.89-10.48,10.3c-1.16,1.12-2.46,2.09-3.97,3.16c1.75-11.81,5.17-23.15,12.58-32.86
			c7.36-9.64,17.18-13.69,29.2-11.87c9.06,1.37,15.34,6.75,19.69,14.59c5.3,9.55,7.15,20.04,7.93,30.73
			C840.75,293.82,840.58,299.72,840.6,305.97z"/>
		<path class="st1" d="M413.04,719.25c0.18-13.43,0.85-26.82,3.16-40.08c0.07-0.4,0.2-0.8,0.29-1.2
			c2.66-11.58,6.34-15.77,20.72-17.94c5.25-0.79,7.68,1.33,8.39,6.57c0.82,5.96-0.18,11.74-1.97,17.41
			c-2.8,8.9-5.34,17.87-5.91,27.23c-0.31,5.05-0.48,10.14-0.23,15.19c0.4,8.17,3.09,10.01,11.19,8.22c1.74-0.38,3.44-0.91,5.18-1.31
			c4.57-1.05,6.95,0.13,7.99,4.59c1.65,7.12,1.8,14.15-3.35,20.63c-1.29-0.04-2.13-0.13-2.83-0.49
			c-6.55-3.41-12.52-7.65-18.06-12.53c-6.64-5.83-11.45-13.1-16.15-20.45C419.43,721.92,416.76,719.89,413.04,719.25z"/>
		<path class="st10" d="M595.37,213.4c0.17,6.27,0.34,12.55,0.53,18.82c0.05,1.59,0.17,3.18,0.25,4.51c0.58,0.29,0.69,0.39,0.82,0.4
			c5.67,0.31,6.4,0.88,6.43,6.78c0.03,4.92-0.27,9.85-0.72,14.75c-0.5,5.41-3.11,9.87-8.11,12.04c-7.26,3.15-14.67,6.07-22.23,8.36
			c-5.72,1.73-7.93-0.09-8.56-5.97c-0.74-6.85-0.23-13.69,1.26-20.41c0.6-2.69,1.64-5.33,4.41-6.6c2.22-1.02,2.76-2.7,2.75-4.98
			c-0.07-8.9-0.12-17.81,0.01-26.71c0.11-7.53,0.48-15.05,1.16-22.89c4.77,0.19,7.93,2.66,10.44,5.99c1.45,1.93,2.48,4.19,3.82,6.21
			C589.89,207.17,591.54,211.17,595.37,213.4z"/>
		<path class="st4" d="M589.31,543.43c3.04-0.12,5.85,0.1,8.63-0.12c5.78-0.47,10.13-3.81,13.58-8.06
			c2.62-3.23,4.49-7.06,6.71-10.61c0.57-0.91,1.18-1.78,2.04-2.73c1.84,11.74-0.49,22.81-6.36,33.07
			c-6.31,11.04-16.17,17.99-27.63,22.89c-5.81,2.49-11.75,4.47-18.22,4.29c-10.17-0.29-17.18-7.27-17.34-17.48
			c-0.09-5.79,0.65-11.47,2.72-16.91c2.3-6.05,6.5-10.03,12.88-11.52c4.76-1.11,7.7,0.57,9.09,5.23c0.55,1.83,0.82,3.75,1.4,5.57
			c1.23,3.88,3.46,4.86,6.77,2.48C585.72,547.96,587.26,545.58,589.31,543.43z"/>
		<path class="st9" d="M389.85,294.59c4.75-1.78,9.46-1.73,14.07-3.31c4.77-1.64,9.67-1.64,14.56-1.34
			c4.83,0.3,8.92,2.69,12.15,6.12c4.09,4.35,7.7,9.15,11.71,13.59c2.15,2.39,5.4,3.37,8.06,5.65c-2.1,6.49-7.36,12.23-13.01,15.76
			c-7.39,4.62-15.52,7.4-24.19,8.37c-8.78,0.99-14.54-2.29-17.66-10.61c-1.81-4.82-3.03-9.93-3.9-15.02
			C390.65,308.03,390.36,300.79,389.85,294.59z"/>
		<path class="st1" d="M737.09,328.89c1.11-15.16,2.22-30.32,3.33-45.48c0.09-1.2,0.2-2.4,0.32-3.81c-5.56-0.66-7.11-4.55-7.19-9.06
			c-0.1-5.04,0.14-10.13,0.74-15.14c0.6-5.05,3.69-8.44,8.56-10.06c6.83-2.27,13.9-3.14,21.06-2.95c4.64,0.12,7.38,2.55,8.3,7.11
			c1.41,6.98,0.66,13.92-1.22,20.73c-0.75,2.74-2.69,4.27-5.58,4.78c-4.77,0.85-4.66,0.94-4.68,5.88
			c-0.03,7.94-0.19,15.89-0.64,24.26c-1.22,1.65-2.04,2.91-2.98,4.07c-4.13,5.06-8.15,10.23-12.51,15.08
			C742.65,326.48,740.33,328.58,737.09,328.89z"/>
		<path class="st1" d="M425.95,583.31c0.66-10.1,1.32-20.78,1.99-30.88c0.14-2.02,0.34-4.04,0.5-5.79
			c-2.04-0.87-4.26-1.15-5.28-2.41c-1.29-1.58-2.18-3.94-2.22-5.98c-0.09-5.03,0.15-10.11,0.74-15.11
			c0.52-4.45,3.13-7.86,7.03-10.09c7.68-4.39,16.06-6.97,24.65-8.77c4.41-0.92,7.14,1.15,7.93,5.65c1.2,6.85,0.53,13.65-1.43,20.3
			c-0.87,2.96-2.99,4.73-5.86,5.88c-4.68,1.87-4.54,2.05-4.56,6.94c-0.04,11.63-0.32,23.98-0.88,35.97
			c-7.17-1.5-13.26-0.75-19.15,2.72C428.41,582.34,427.05,582.83,425.95,583.31z"/>
		<path class="st1" d="M691.39,306.99c1.37-5.98,2.74-11.97,4.24-18.48c-1.71,0-3.02,0.04-4.32-0.01c-4.88-0.17-8.07-2.62-8.92-7.48
			c-1.16-6.62-0.39-13.12,2.37-19.29c1.46-3.25,4.07-5.53,7.21-7.07c8.38-4.09,17.31-6.11,26.61-6.15c6.4-0.02,9.34,2.79,9.82,9.16
			c0.25,3.39,0.18,6.88-0.32,10.23c-1.07,7.2-5.1,12.41-11.93,14.98c-2.72,1.02-3.08,2.42-2.76,4.95
			c1.4,11.14,2.64,22.31,3.59,33.85c-1.97-0.73-3.74-1.68-5.21-2.97c-5.43-4.73-10.78-9.49-18.51-10.01
			C692.59,308.67,692.01,307.59,691.39,306.99z"/>
		<path class="st6" d="M360.6,758.92c-1.14-8.28-0.77-20.14-0.33-28.46c0.69-12.97,1.93-25.91,2.94-38.87
			c0.04-0.54,0.15-1.09,0.27-1.62c2.7-11.6,5.71-15.79,21.08-16.63c4.76-0.26,7.03,1.85,7.9,6.58c1.01,5.52,0,10.86-1.39,16.22
			c-2.15,8.33-4.72,16.65-5.8,25.14c-0.92,7.23-1.09,16.2-0.17,23.14c-1.31,1.2-2.39,1.29-3.39,2.18
			C375.56,752.04,368.19,757.52,360.6,758.92z"/>
		<path class="st4" d="M691.54,306.52c0.82,0.36,1.77,1.8,2.42,1.84c7.73,0.51,12.37,5.63,17.8,10.36c1.47,1.29,3.24,1.17,5.19,2.29
			c0.46,6.55,0.95,14.17,0.67,20.69c-0.33,7.92-1.26,15.81-3.88,23.4c-2.97,8.56-8.77,13.64-17.82,14.91
			c-5.2,0.73-9.05-1.22-10.62-6.2c-1.14-3.6-1.73-7.47-1.93-11.25c-0.72-13.77,1.56-27.27,4.34-40.68
			C688.71,317.05,690.24,311.56,691.54,306.52z"/>
		<path class="st8" d="M343.7,604.58c1.57,0.79,3.16,2.54,4.5,3.85c11.42,11.16,25.38,11.89,38.2,4.02
			c8.78-5.38,16.67-12.02,25.02-18.12c2.3-1.68,4.87-4.06,7.48-5.72c-0.85,16.21-5.32,31.96-17.1,43.86
			c-8.06,8.14-18.24,11.97-29.55,12.49c-10.83,0.5-18.67-4.54-23.38-14.21C345.02,622.87,343.71,613.66,343.7,604.58z"/>
		<path class="st10" d="M356.45,439.08c2.51,2.94,4.6,7.98,7.13,11.16c2.2,2.77,4.57,5.44,7.14,7.86c5.68,5.34,12.6,5.9,19.51,3.52
			c5.67-1.95,10.21-5.44,13.71-10.89c2.17-0.64,4.71-1.2,6.86-1.31c3.88-0.19,6.56,1.81,7.86,5.38c2.17,5.94,1.94,12.13,1.07,18.24
			c-0.25,1.72-1.58,3.57-2.93,4.79c-1.99,1.81-4.28,3.5-6.73,4.56c-11.8,5.06-24.18,7.83-37,8.27c-7.94,0.27-12.23-2.7-14.01-10.43
			c-1.56-6.75-2.2-13.75-2.7-20.68C355.9,453.42,356.34,445.6,356.45,439.08z"/>
		<path class="st4" d="M581.07,693.3c4.12-1.73,6.75-4.83,8.59-8.25c3.09-5.76,5.73-11.78,8.23-17.82
			c3.76-9.09,7.21-18.31,10.86-27.45c0.5-1.24,1.4-2.32,2.42-3.57c1.79,1.4,3.43,1.61,5.52,1.1c2.76-0.67,5.65-1.13,8.48-1.1
			c3.63,0.04,5.83,2.31,6.11,5.94c0.41,5.13-1.15,9.63-5.66,12.4c-3.23,1.98-6.73,3.78-10.35,4.82c-4.41,1.27-6.37,3.71-6.36,8.19
			c0.02,8.48-0.08,16.96-0.17,25.44c-0.06,5.61,0.07,11.23-0.33,16.81c-0.48,6.71-3.81,11.59-10.96,13.79
			c-1.07,0.25-1.61,0.54-2.15,0.83c-1.46,0.47-2.91,0.93-4.96,1.16c-2.47-0.27-4.34-0.31-6.22-0.35c-2.41-0.57-2.93-2.59-3.26-5.13
			c0.09-4.98-0.05-9.41-0.19-13.83C580.75,702.04,580.83,697.82,581.07,693.3z"/>
		<path class="st1" d="M838.45,479.89c-1.36-0.59-2.85-1.39-3.79-2.6c-4.73-6.11-7.5-13.25-10.23-20.37
			c-2.78-7.25-5.29-14.64-10.42-20.67c-2.2-2.59-4.71-4.92-8.52-5.7c-1.09-5.09-0.5-10.07,0.97-14.95c1.28-4.27,4.3-6.74,8.66-7.01
			c9.46-0.58,18.51,1.25,26.9,5.75c3.7,1.98,6.13,5.3,6.53,9.43c0.47,4.85,0.71,9.84,0.15,14.66c-0.84,7.28-4.72,10.29-12.15,10.58
			c-0.4,0.02-0.79,0.12-1.79,0.27C835.39,459.44,837.75,469.38,838.45,479.89z"/>
		<path class="st4" d="M628.51,363.09c3.98-0.99,8.46,0.84,12.36-0.25c7.15-1.99,11.63-7.24,15.22-13.46
			c5.05-8.74,10.22-17.41,15.45-26.03c0.89-1.46,2.72-4.71,4.19-6.01c0.1,4.75-0.35,11.67-0.62,16.44
			c-0.51,9.16-0.82,18.35-1.77,27.48c-1.63,15.67-9.38,27.21-24.1,33.61c-5.65,2.46-9.38,1.43-12.52-3.92
			c-1.65-2.8-2.97-5.89-3.87-9.02C631.31,376.54,629.84,368.89,628.51,363.09z"/>
		<path class="st4" d="M689.26,216.17c1.15,0.23,2.27,0.73,3.21,1.46c5.91,4.59,12.33,5.4,19.1,2.34c3.28-1.48,6.34-3.44,9.55-5.46
			c4.23-0.95,8.41-1.73,12.62-2.22c2.28-0.27,4.66-0.3,6.93,0c4.18,0.56,6.96,3.11,8.32,7.05c1.82,5.28,2.06,10.76,1.45,16.25
			c-0.4,3.61-2.73,6.06-6.11,7.05c-3.53,1.04-7.17,1.95-10.82,2.23c-9.14,0.72-18.32,1.36-27.48,1.47
			c-8.53,0.1-12.76-3.19-14.61-11.52C690.1,228.86,689.87,222.64,689.26,216.17z"/>
		<path class="st10" d="M588.89,355.77c1.44-0.63,2.82,0.35,4.08-0.1c3.9-1.38,7.51-0.43,11.06,1.15c3.35,1.49,7.03,1.6,10.64,3.12
			c1.64,11.94,2.72,25.3,3.96,37.24c0.41,3.89-1.27,7.28-3.89,10.04c-5.61,5.91-12.64,9.51-20.44,11.55
			c-3.92,1.02-6.41-0.69-7.18-4.66c-0.44-2.26-0.6-4.62-0.51-6.92C587.29,390.52,588.05,372.79,588.89,355.77z"/>
		<path class="st1" d="M595.37,213.66c-3.9-1.85-5.48-6.48-7.77-9.95c-1.34-2.03-2.36-4.28-3.82-6.21
			c-2.5-3.33-5.81-4.87-10.46-5.39c0.07-1.46-0.02-3.36-0.09-4.54c-5.43-0.96-7.75-2.61-8.41-8.1c-0.57-4.71-0.53-9.55-0.26-14.3
			c0.27-4.87,3.01-8.47,7.33-10.69c7.51-3.85,15.56-6.07,23.88-7.18c5.11-0.68,8.47,1.68,8.99,6.78c0.54,5.4,0.3,10.92-0.09,16.35
			c-0.26,3.68-2.6,6.12-6.27,7.33c-4.48,1.48-4.35,1.7-4.09,6.56C594.8,193.76,595.04,203.84,595.37,213.66z"/>
		<path class="st5" d="M740.31,640.15c-1.82,0.81-3.52,1.3-5.23,1.71c-5.72,1.37-9.67-1.29-11.92-6.77
			c-1.94-4.73-3.06-9.81-4.45-14.75c-1.2-4.25-2.27-8.53-3.69-12.85c-0.16-7.72-0.37-15.41,0.21-23.03
			c0.81-10.56,10.97-16.62,20.9-12.88c2.33,0.88,3.99,2.5,4.66,4.86c0.55,1.96,1.05,4.03,1.01,6.04
			C741.41,601.21,740.91,621.04,740.31,640.15z"/>
		<path class="st10" d="M774.38,667.02c1.83,9.14,5.23,17.32,12.3,23.52c2.81,2.47,6.23,3.05,9.94,1.62
			c1.14-0.44,2.34-0.73,3.82-1.1c-2.09,3.41-5.67,5.4-9.45,6.57c-9.66,2.97-19.44,3.17-29.03-0.25
			c-12.13-4.32-20.28-16.22-20.27-29.09c0-5.64,0.45-11.24,2.7-16.49c2.58-6.03,7.61-8.3,13.7-6.47c4.34,1.3,6.19,4.72,7.31,8.68
			c0.74,2.63,1.11,5.36,1.87,7.98C768.44,666.07,769.6,666.84,774.38,667.02z"/>
		<path class="st10" d="M737.13,328.81c3.35-0.58,5.67-2.69,7.62-4.86c4.36-4.86,8.31-10.09,12.44-15.16
			c0.94-1.16,1.76-2.42,2.88-3.7c-0.04,7.71-0.26,15.56-0.57,23.34c-0.05,1.37-0.15,2.73-0.28,4.09c-0.2,2.08,0.46,3.5,2.76,3.69
			c2.57,0.22,3.53,1.96,3.66,4.19c0.42,7.13,0.13,14.23-1.63,21.2c-0.99,3.91-3.5,6.81-7.43,7.43c-7.14,1.13-14.35,2.06-21.56,2.33
			c-4.96,0.19-6.98-2.2-7.22-7.06c-0.33-6.71-0.08-13.42,1.68-19.97c0.77-2.85,1.93-5.31,5.11-6.44c0.96-0.34,1.8-1.93,2.06-3.09
			C737.05,332.97,736.92,331,737.13,328.81z"/>
		<path class="st10" d="M425.99,582.66c1.27-0.66,2.42-0.32,3.43-0.91c5.89-3.47,12.06-4.94,19.15-3.08
			c0.35,5.27,0.35,10.55,0.35,15.61c0.58,0.36,0.81,0.63,1.04,0.62c4.98-0.19,5.98,0.37,5.95,5.21c-0.04,5.31-0.59,10.64-1.29,15.9
			c-0.53,4-2.88,7.1-6.47,9.01c-7.81,4.16-16.21,6.58-24.95,7.68c-4.18,0.53-6.27-1.18-6.73-5.37c-0.74-6.71-0.36-13.44,1.97-19.82
			c0.68-1.87,2.4-3.75,4.15-4.73c2.05-1.16,2.52-2.52,2.57-4.59C425.27,593.27,425.68,587.92,425.99,582.66z"/>
		<path class="st6" d="M884.82,282.19c-6.37,5.48-12.47,10.99-19.15,15.69c-6.16,4.34-13.12,7.32-21.01,8.39
			c0.37-11.89,0.83-23.79,1.81-35.64c0.31-3.72,1.58-7.54,3.18-10.95c3.78-8.05,12.52-11.56,20.73-8.27
			c2.34,0.94,4.65,3.11,5.91,5.33c2.21,3.89,3.83,8.16,5.25,12.42C882.93,273.3,883.76,277.62,884.82,282.19z"/>
		<path class="st10" d="M360.23,755.29c8.52-0.31,15.32-3.25,21.48-8.71c1-0.89,2.07-1.69,3.39-2.55c2.19,2.99,5.01,3.97,8.4,3.52
			c2.71-0.36,5.41-0.83,8.13-1.17c3.66-0.47,5.41,0.51,6.89,3.73c3.34,7.31,1.77,17.34-3.97,22.97c-2.31,2.26-5.05,4.31-7.95,5.7
			c-7.59,3.63-15.78,4.52-24.08,3.75c-5.96-0.56-9.42-4.49-10.54-10.02C360.9,767.17,360.78,761.1,360.23,755.29z"/>
		<path class="st4" d="M506.56,270.49c4.22,1.36,8.23,3.45,12.48,4.75c7.44,2.28,11.14-0.66,14.47-5.95
			c3.27-5.2,5.32-11.02,6.24-17.58c3.09-1.39,6.05-2.41,9.03-3.39c4.37-1.44,6.94-0.36,8.12,4.15c2.32,8.88,2.24,17.64-2.6,25.86
			c-2.75,4.68-6.35,8.6-10.83,11.65c-6.78,4.61-14.28,7.57-22.29,9.11c-6.31,1.22-9.97-1.01-11.96-7.13
			C506.99,285.13,506.45,278.02,506.56,270.49z"/>
		<path class="st9" d="M526.58,743.89c3.31-7.85,5-16.34,6.92-24.56c1.62-6.97,3.77-13.7,7.22-19.98c2.86-5.2,6.66-6.66,12.4-4.88
			c0.13,0.04,0.27,0.06,0.39,0.12c6.83,2.78,13.96,3.51,21.68,1.7c-0.51,8.19-3.89,16.32-8.08,23.23
			c-8.02,13.24-19.94,21.01-35,24.1C530.67,743.92,528.43,743.88,526.58,743.89z"/>
		<path class="st4" d="M413.07,719.19c3.84,0.26,6.36,2.65,8.4,5.83c4.7,7.34,9.51,14.69,16.15,20.52
			c5.55,4.87,11.52,9.11,18.06,12.53c0.7,0.36,1.76,0.24,2.83,0.47c-2.59,2.65-5.36,6.07-8.65,8.02c-7.43,4.4-15.76,6.17-24.36,6.25
			c-5.46,0.05-8.89-2.28-10.41-7.54c-1.24-4.29-2.17-8.82-2.29-13.27C412.51,741.35,412.91,730.24,413.07,719.19z"/>
		<path class="st6" d="M801.44,428.49c-8.93,0.36-16.56,3.78-23.77,8.5c-2.35,1.54-4.88,2.83-7.63,4.25
			c-3.65-0.38-5.39-2.62-6.1-5.57c-1.9-7.88-1.5-15.77,0.75-23.5c1.18-4.07,4.39-6.54,8.41-6.91c6.23-0.57,12.57-1.03,18.77-0.45
			c6.83,0.63,8.48,3.53,9.73,11.04C802.26,419.82,801.61,424.02,801.44,428.49z"/>
		<path class="st4" d="M432.97,430.51c8.84-3.05,15.61,0.94,21.78,7.06c5.12,5.09,10.47,9.99,17.48,12.6
			c3.67,1.37,8.07,1.3,12.31,1.07c-2.96,5.62-8.04,11.01-13.39,14.7c-5.91,4.07-12.19,4.24-18.06,0.19
			c-3.2-2.21-6.11-5.11-8.46-8.22C438.68,450.04,435.36,440.33,432.97,430.51z"/>
		<path class="st11" d="M702.74,597.13c-7.65,1.99-13.3,6.36-16.96,12.98c-3.36,6.09-6.13,12.51-9.18,18.77
			c-0.35,0.72-2.06,4.84-1.81,4.33c0.03-13.15,0.27-28.56,1.01-41.78c0.58-10.38,11.07-17.4,21.2-14.99
			c3.17,0.76,5.1,2.92,5.36,6.01C702.76,587.21,702.7,592,702.74,597.13z"/>
		<path class="st4" d="M555.39,435.9c0-0.92,0.9-2.24,1.36-3.05c3.75-6.53,5.16-13.75,6.52-21.02c0.95-5.09,1.43-10.13,2.51-15.54
			c2.87-1.47,6.38-3.04,9.37-3.61c3.48-0.67,5.6,0.73,6.65,4.08c2.05,6.53,2.23,13.26,0.46,19.85c-1.15,4.3-4.45,7.34-8.11,9.51
			C568.39,429.55,561.63,432.81,555.39,435.9z"/>
		<path class="st10" d="M472.5,319.21c0.62-0.78,1.92-1.62,2.92-2.22c3.73-2.21,6.86-4.87,8.22-9.23
			c2.31-7.42,4.67-14.82,7.14-22.18c1.21-3.6,2.72-7.1,4.11-10.95c0.43-0.25,0.84-0.13,1.24-0.15c5.22-0.2,6.1,0.33,6.15,5.45
			c0.06,6.01-0.2,12.04-0.66,18.03c-0.47,6.07-3.71,10.71-9.1,13.29C486.25,314.26,479.25,316.62,472.5,319.21z"/>
		<path class="st2" d="M460.9,589.62c3.27,3.09,6.42,6.4,9.44,9.84c4.42,5.04,9.33,9.4,15.92,12.01
			c-5.57,5.22-12.66,7.35-20.21,8.02c-3.13,0.28-5.14-1.57-5.84-4.67c-0.42-1.84-0.55-3.8-0.48-5.69
			C459.98,602.72,460.39,596.31,460.9,589.62z"/>
		<path class="st2" d="M833.07,687.68c1.56,5.39,0.34,10.48-1.97,15.33c-1.02,2.14-2.68,2.94-5.21,2.25
			c-4.7-1.27-8.87-3.47-12.41-6.79c-3.25-3.05-4.48-6.74-2.68-11.36c1.51-0.23,2.51-0.05,3.42-0.27c6.07-1.45,11.92-0.56,17.73,1.33
			C832.32,688.28,832.59,687.88,833.07,687.68z"/>
		<path class="st10" d="M314.63,263.73c2.08-1.76,16.97,10.09,17.68,11.15c3.43,5.06,7.49,10.96,10.87,16.46
			c0.12,0.2-0.1,0.43-0.3,0.31c-3.59-2.09-15.23-5.06-18.19-7.66c-5.33-4.67-10.93-12.49-10.29-19.74
			C314.42,264.02,314.5,263.85,314.63,263.73z"/>
		<path class="st12" d="M925.15,282.12c-1.27-0.47-2.67-1.13-3.64-2.18c-6.18-6.63-13.6-8.79-22.35-6.56
			c-0.39,0.1-0.82,0.05-1.58,0.07c-0.38-2.59-0.58-5.19-0.38-7.77c0.26-3.24,1.83-4.86,5.02-4.78c6.55,0.16,12.72,1.85,18.03,5.87
			c3.02,2.28,4.28,5.62,4.74,9.25C925.23,277.91,925.15,279.84,925.15,282.12z"/>
		<path class="st2" d="M520.05,601.37c0.26-0.81,1.24-1.76,1.96-2.28c6.46-4.71,10.93-11.01,14.52-18.01
			c3.62-7.06,7.26-14.57,11.07-21.77C549.57,582.08,536.71,596.52,520.05,601.37z"/>
		<path class="st12" d="M338.21,598.15c-1.87,0.63-2.15-2.26-3.21-3.42c-3.43-3.79-7.01-7.45-10.7-10.98
			c-1.21-1.16-3.27-2.21-4.83-3.34c3.73-0.29,7.9-0.06,11.69,0.09c5.94,0.24,8.09,2.46,8.15,8.34
			C339.35,591.26,338.51,595.38,338.21,598.15z"/>
		<path class="st12" d="M833.04,687.69c-0.38,0.47-0.94,0.95-1.31,0.83c-5.81-1.89-11.67-2.77-17.73-1.33
			c-0.91,0.22-1.91,0.04-3.27,0.03c0.24-1.64,0.65-3.4,1.55-4.86c2.29-3.68,5.28-4.77,9.4-3.52
			C826.48,680.3,830.66,682.65,833.04,687.69z"/>
		<path class="st2" d="M522.43,437.29c2.19-0.85,4.87-0.06,6.93-0.95c4.27-1.84,8.32-1.71,12.42,0.4c1.55,0.8,4.28,1.05,6.16,1.95
			c-4.36,1.74-9.99,3.95-14.72,5.06C528.68,444.82,524.51,442.19,522.43,437.29z"/>
		<path class="st2" d="M755.38,633.81c4.32-0.65,9.42-0.86,12.37,3.43c0.37,0.54,1.05,2.22,1.32,3.13
			C764.95,638.76,759.63,635.94,755.38,633.81z"/>
		<path class="st2" d="M580.55,706.55c0.27,4.13,0.41,8.55,0.35,13.25C580.61,715.67,580.52,711.26,580.55,706.55z"/>
		<path class="st2" d="M281.91,610.29c0.26,3.05,0.4,6.39,0.33,10C281.95,617.23,281.87,613.91,281.91,610.29z"/>
		<path class="st2" d="M584.34,725.44c1.66-0.19,3.54-0.15,5.67,0.09C588.37,725.71,586.46,725.69,584.34,725.44z"/>
		<path class="st2" d="M595.54,724.45c0.3-0.34,0.84-0.63,1.63-0.89C596.87,723.9,596.32,724.2,595.54,724.45z"/>
	</g>
	<g>
		<path class="st13" d="M308.74,219.6c0.69,0.88,1.45,1.65,2.24,2.35c0.71,0.63,1.45,1.21,2.22,1.73c0.74,0.51,1.5,0.98,2.28,1.41
			c0.71,0.39,1.43,0.75,2.16,1.11c0.56,0.27,1.13,0.53,1.7,0.78c0.4,0.17,0.81,0.32,1.22,0.46c0.47,0.17,0.95,0.32,1.42,0.48
			c0.11,0.04,0.23,0.07,0.35,0.1c0.48,0.12,0.95,0.23,1.43,0.35c0.08,0.02,0.17,0.05,0.24,0.1c0.12,0.08,0.13,0.22,0.03,0.33
			c-0.06,0.06-0.13,0.1-0.21,0.12c-0.15,0.04-0.31,0.03-0.47,0.07c-0.63,0.15-1.26,0.3-1.89,0.46c-0.77,0.2-1.52,0.49-2.27,0.79
			c-0.59,0.24-1.18,0.5-1.76,0.77c-0.66,0.31-1.31,0.65-1.97,0.99c-0.98,0.52-1.93,1.1-2.85,1.75c-0.98,0.69-1.91,1.46-2.79,2.33
			c-0.78,0.77-1.49,1.63-2.15,2.55c-0.64,0.91-1.21,1.89-1.7,2.92c-0.23,0.49-0.44,0.99-0.64,1.5c-0.23,0.57-0.44,1.15-0.65,1.74
			c-0.14,0.4-0.26,0.82-0.37,1.23c-0.14,0.5-0.27,1.01-0.41,1.52c-0.01,0.02-0.02,0.04-0.02,0.07c-0.12,0.58-0.25,1.17-0.36,1.76
			c-0.12,0.65-0.23,1.3-0.33,1.96c-0.11,0.75-0.19,1.51-0.27,2.26c-0.05,0.54-0.13,1.08-0.18,1.63c-0.04,0.43-0.06,0.87-0.1,1.31
			c-0.01,0.14-0.03,0.28-0.07,0.42c-0.03,0.1-0.07,0.21-0.13,0.29c-0.13,0.18-0.3,0.15-0.37-0.07c-0.04-0.12-0.06-0.26-0.07-0.39
			c-0.07-0.62-0.13-1.24-0.19-1.87c-0.02-0.2-0.02-0.4-0.05-0.59c-0.08-0.62-0.14-1.24-0.24-1.86c-0.12-0.8-0.26-1.6-0.4-2.4
			c-0.1-0.57-0.22-1.14-0.34-1.71c-0.1-0.48-0.2-0.95-0.32-1.42c-0.22-0.87-0.44-1.75-0.69-2.61c-0.37-1.27-0.82-2.49-1.36-3.67
			c-0.81-1.77-1.88-3.29-3.13-4.63c-1.04-1.11-2.16-2.1-3.35-2.97c-1.18-0.87-2.41-1.62-3.68-2.28c-1.12-0.58-2.26-1.08-3.43-1.48
			c-1.04-0.36-2.1-0.66-3.18-0.82c-0.37-0.05-0.73-0.14-1.09-0.21c-0.11-0.02-0.22-0.01-0.33-0.04c-0.08-0.02-0.17-0.05-0.23-0.11
			c-0.1-0.09-0.09-0.23,0.02-0.31c0.04-0.03,0.08-0.05,0.13-0.05c0.09-0.02,0.18-0.03,0.27-0.03c0.73-0.04,1.45-0.11,2.17-0.27
			c0.6-0.13,1.2-0.28,1.8-0.44c0.45-0.12,0.89-0.28,1.33-0.43c0.36-0.13,0.72-0.26,1.07-0.41c0.63-0.26,1.25-0.53,1.87-0.82
			c0.51-0.24,1.01-0.49,1.51-0.77c0.55-0.31,1.1-0.62,1.62-0.97c0.68-0.46,1.36-0.94,2.01-1.45c1.08-0.84,2.09-1.8,2.98-2.92
			c0.79-0.99,1.47-2.08,2.02-3.28c0.49-1.06,0.91-2.16,1.27-3.3c0.29-0.92,0.55-1.85,0.78-2.8c0.23-0.96,0.47-1.92,0.67-2.89
			c0.14-0.67,0.24-1.35,0.36-2.03c0.08-0.5,0.17-1,0.24-1.5c0.09-0.64,0.16-1.29,0.24-1.93c0.04-0.4,0.07-0.81,0.1-1.21
			c0.01-0.1,0.02-0.21,0.05-0.3c0.03-0.09,0.08-0.19,0.14-0.25c0.13-0.13,0.29-0.09,0.37,0.08c0.04,0.09,0.06,0.19,0.07,0.29
			c0.04,0.51,0.07,1.01,0.11,1.52c0.06,0.81,0.12,1.61,0.2,2.42c0.04,0.47,0.13,0.92,0.17,1.39c0.04,0.44,0.09,0.87,0.19,1.29
			c0.02,0.11,0.04,0.22,0.05,0.33c0.04,0.39,0.1,0.77,0.2,1.14c0.03,0.1,0.04,0.22,0.06,0.33c0.05,0.26,0.11,0.52,0.17,0.78
			c0.01,0.04,0.02,0.08,0.03,0.11c0.11,0.49,0.22,0.98,0.34,1.47c0.11,0.42,0.24,0.84,0.37,1.25c0.1,0.3,0.2,0.6,0.3,0.9
			c0.21,0.66,0.46,1.3,0.74,1.92c0.27,0.58,0.54,1.17,0.82,1.73c0.34,0.67,0.74,1.3,1.16,1.89
			C308.23,218.93,308.48,219.26,308.74,219.6z"/>
	</g>
	<g>
		<path class="st13" d="M331.11,241.66c0.32,0.46,0.67,0.86,1.04,1.23c0.33,0.33,0.67,0.63,1.03,0.9c0.34,0.26,0.7,0.51,1.05,0.73
			c0.33,0.21,0.66,0.39,1,0.58c0.26,0.14,0.52,0.28,0.78,0.4c0.19,0.09,0.38,0.16,0.57,0.24c0.22,0.09,0.44,0.17,0.66,0.25
			c0.05,0.02,0.11,0.04,0.16,0.05c0.22,0.06,0.44,0.12,0.66,0.18c0.04,0.01,0.08,0.03,0.11,0.05c0.06,0.04,0.06,0.12,0.01,0.17
			c-0.03,0.03-0.06,0.05-0.1,0.06c-0.07,0.02-0.15,0.02-0.22,0.04c-0.29,0.08-0.58,0.15-0.88,0.24c-0.36,0.11-0.71,0.25-1.05,0.41
			c-0.27,0.12-0.55,0.26-0.81,0.4c-0.31,0.16-0.61,0.34-0.91,0.52c-0.45,0.27-0.89,0.57-1.32,0.91c-0.45,0.36-0.88,0.76-1.29,1.21
			c-0.36,0.4-0.69,0.85-0.99,1.33c-0.3,0.47-0.56,0.98-0.78,1.52c-0.11,0.25-0.2,0.52-0.3,0.78c-0.11,0.3-0.2,0.6-0.3,0.9
			c-0.06,0.21-0.12,0.42-0.17,0.64c-0.07,0.26-0.13,0.53-0.19,0.79c0,0.01-0.01,0.02-0.01,0.04c-0.06,0.3-0.12,0.61-0.17,0.91
			c-0.06,0.34-0.11,0.68-0.15,1.02c-0.05,0.39-0.09,0.78-0.12,1.18c-0.03,0.28-0.06,0.56-0.09,0.85c-0.02,0.23-0.03,0.45-0.04,0.68
			c-0.01,0.07-0.02,0.15-0.03,0.22c-0.01,0.05-0.03,0.11-0.06,0.15c-0.06,0.09-0.14,0.08-0.17-0.04c-0.02-0.06-0.03-0.14-0.03-0.2
			c-0.03-0.32-0.06-0.65-0.09-0.97c-0.01-0.1-0.01-0.21-0.02-0.31c-0.03-0.32-0.07-0.65-0.11-0.97c-0.06-0.42-0.12-0.83-0.19-1.25
			c-0.05-0.3-0.1-0.6-0.16-0.89c-0.05-0.25-0.09-0.5-0.15-0.74c-0.1-0.45-0.21-0.91-0.32-1.36c-0.17-0.66-0.38-1.3-0.63-1.91
			c-0.38-0.92-0.87-1.71-1.45-2.41c-0.48-0.58-1-1.09-1.55-1.55c-0.55-0.45-1.12-0.84-1.7-1.18c-0.52-0.3-1.05-0.56-1.59-0.77
			c-0.48-0.19-0.97-0.34-1.47-0.42c-0.17-0.03-0.34-0.07-0.5-0.11c-0.05-0.01-0.1-0.01-0.15-0.02c-0.04-0.01-0.08-0.03-0.11-0.06
			c-0.05-0.05-0.04-0.12,0.01-0.16c0.02-0.01,0.04-0.02,0.06-0.03c0.04-0.01,0.08-0.02,0.13-0.02c0.34-0.02,0.67-0.06,1.01-0.14
			c0.28-0.07,0.55-0.15,0.83-0.23c0.21-0.06,0.41-0.15,0.62-0.23c0.17-0.07,0.33-0.13,0.5-0.21c0.29-0.14,0.58-0.28,0.87-0.43
			c0.24-0.12,0.47-0.25,0.7-0.4c0.25-0.16,0.51-0.32,0.75-0.51c0.32-0.24,0.63-0.49,0.93-0.76c0.5-0.44,0.96-0.94,1.38-1.52
			c0.36-0.51,0.68-1.08,0.94-1.7c0.23-0.55,0.42-1.13,0.59-1.72c0.13-0.48,0.26-0.96,0.36-1.46c0.11-0.5,0.22-1,0.31-1.5
			c0.07-0.35,0.11-0.7,0.17-1.05c0.04-0.26,0.08-0.52,0.11-0.78c0.04-0.33,0.08-0.67,0.11-1.01c0.02-0.21,0.03-0.42,0.05-0.63
			c0-0.05,0.01-0.11,0.02-0.16c0.01-0.05,0.04-0.1,0.07-0.13c0.06-0.07,0.13-0.05,0.17,0.04c0.02,0.05,0.03,0.1,0.03,0.15
			c0.02,0.26,0.03,0.53,0.05,0.79c0.03,0.42,0.06,0.84,0.09,1.26c0.02,0.24,0.06,0.48,0.08,0.72c0.02,0.23,0.04,0.45,0.09,0.67
			c0.01,0.06,0.02,0.11,0.02,0.17c0.02,0.2,0.04,0.4,0.09,0.59c0.01,0.05,0.02,0.11,0.03,0.17c0.02,0.14,0.05,0.27,0.08,0.41
			c0,0.02,0.01,0.04,0.01,0.06c0.05,0.25,0.1,0.51,0.16,0.76c0.05,0.22,0.11,0.44,0.17,0.65c0.04,0.16,0.09,0.31,0.14,0.47
			c0.1,0.34,0.21,0.68,0.34,1c0.12,0.3,0.25,0.61,0.38,0.9c0.16,0.35,0.34,0.67,0.54,0.99
			C330.88,241.32,330.99,241.49,331.11,241.66z"/>
	</g>
	<g>
		<path class="st13" d="M294.43,268.98c0.27,0.34,0.56,0.63,0.86,0.91c0.27,0.24,0.56,0.46,0.85,0.67c0.29,0.2,0.58,0.38,0.88,0.54
			c0.27,0.15,0.55,0.29,0.83,0.43c0.22,0.11,0.43,0.2,0.65,0.3c0.15,0.07,0.31,0.12,0.47,0.18c0.18,0.06,0.36,0.12,0.55,0.19
			c0.04,0.01,0.09,0.03,0.13,0.04c0.18,0.04,0.37,0.09,0.55,0.13c0.03,0.01,0.06,0.02,0.09,0.04c0.05,0.03,0.05,0.09,0.01,0.13
			c-0.02,0.02-0.05,0.04-0.08,0.05c-0.06,0.01-0.12,0.01-0.18,0.03c-0.24,0.06-0.49,0.11-0.73,0.18c-0.3,0.08-0.59,0.19-0.87,0.3
			c-0.23,0.09-0.45,0.19-0.68,0.3c-0.25,0.12-0.51,0.25-0.76,0.38c-0.38,0.2-0.74,0.42-1.09,0.67c-0.38,0.27-0.73,0.56-1.07,0.9
			c-0.3,0.3-0.57,0.63-0.83,0.98c-0.25,0.35-0.46,0.73-0.65,1.12c-0.09,0.19-0.17,0.38-0.25,0.58c-0.09,0.22-0.17,0.44-0.25,0.67
			c-0.05,0.15-0.1,0.31-0.14,0.47c-0.05,0.19-0.11,0.39-0.16,0.58c0,0.01-0.01,0.02-0.01,0.03c-0.05,0.23-0.1,0.45-0.14,0.68
			c-0.05,0.25-0.09,0.5-0.13,0.75c-0.04,0.29-0.07,0.58-0.1,0.87c-0.02,0.21-0.05,0.42-0.07,0.63c-0.02,0.17-0.02,0.33-0.04,0.5
			c0,0.05-0.01,0.11-0.03,0.16c-0.01,0.04-0.03,0.08-0.05,0.11c-0.05,0.07-0.11,0.06-0.14-0.03c-0.02-0.05-0.02-0.1-0.03-0.15
			c-0.03-0.24-0.05-0.48-0.07-0.72c-0.01-0.08-0.01-0.15-0.02-0.23c-0.03-0.24-0.06-0.48-0.09-0.72c-0.05-0.31-0.1-0.62-0.15-0.92
			c-0.04-0.22-0.08-0.44-0.13-0.66c-0.04-0.18-0.08-0.37-0.12-0.55c-0.09-0.34-0.17-0.67-0.27-1c-0.14-0.49-0.32-0.96-0.52-1.41
			c-0.31-0.68-0.72-1.27-1.2-1.78c-0.4-0.43-0.83-0.81-1.29-1.14c-0.45-0.34-0.93-0.62-1.42-0.88c-0.43-0.22-0.87-0.42-1.32-0.57
			c-0.4-0.14-0.81-0.25-1.22-0.31c-0.14-0.02-0.28-0.06-0.42-0.08c-0.04-0.01-0.09,0-0.13-0.01c-0.03-0.01-0.06-0.02-0.09-0.04
			c-0.04-0.04-0.03-0.09,0.01-0.12c0.01-0.01,0.03-0.02,0.05-0.02c0.03-0.01,0.07-0.01,0.11-0.01c0.28-0.01,0.56-0.04,0.84-0.1
			c0.23-0.05,0.46-0.11,0.69-0.17c0.17-0.05,0.34-0.11,0.51-0.17c0.14-0.05,0.28-0.1,0.41-0.16c0.24-0.1,0.48-0.21,0.72-0.32
			c0.2-0.09,0.39-0.19,0.58-0.29c0.21-0.12,0.42-0.24,0.62-0.37c0.26-0.18,0.52-0.36,0.77-0.56c0.42-0.32,0.8-0.69,1.15-1.12
			c0.3-0.38,0.56-0.8,0.78-1.26c0.19-0.41,0.35-0.83,0.49-1.27c0.11-0.35,0.21-0.71,0.3-1.08c0.09-0.37,0.18-0.74,0.26-1.11
			c0.05-0.26,0.09-0.52,0.14-0.78c0.03-0.19,0.07-0.38,0.09-0.58c0.03-0.25,0.06-0.5,0.09-0.74c0.02-0.15,0.03-0.31,0.04-0.47
			c0-0.04,0.01-0.08,0.02-0.12c0.01-0.04,0.03-0.07,0.05-0.1c0.05-0.05,0.11-0.04,0.14,0.03c0.02,0.03,0.02,0.07,0.03,0.11
			c0.02,0.19,0.03,0.39,0.04,0.58c0.02,0.31,0.05,0.62,0.08,0.93c0.02,0.18,0.05,0.36,0.07,0.53c0.02,0.17,0.03,0.33,0.07,0.5
			c0.01,0.04,0.02,0.08,0.02,0.13c0.01,0.15,0.04,0.3,0.08,0.44c0.01,0.04,0.01,0.08,0.02,0.13c0.02,0.1,0.04,0.2,0.06,0.3
			c0,0.01,0.01,0.03,0.01,0.04c0.04,0.19,0.08,0.38,0.13,0.56c0.04,0.16,0.09,0.32,0.14,0.48c0.04,0.12,0.08,0.23,0.12,0.35
			c0.08,0.25,0.17,0.5,0.28,0.74c0.1,0.22,0.21,0.45,0.32,0.67c0.13,0.26,0.28,0.5,0.45,0.73
			C294.23,268.72,294.33,268.85,294.43,268.98z"/>
	</g>
	<g>
		<path class="st13" d="M821.64,574.09c0.69,0.88,1.45,1.65,2.24,2.35c0.71,0.63,1.45,1.21,2.22,1.73c0.74,0.51,1.5,0.98,2.28,1.41
			c0.71,0.39,1.43,0.75,2.16,1.11c0.56,0.27,1.13,0.53,1.7,0.78c0.4,0.17,0.81,0.32,1.22,0.46c0.47,0.17,0.95,0.32,1.42,0.48
			c0.11,0.04,0.23,0.07,0.35,0.1c0.48,0.12,0.95,0.23,1.43,0.35c0.08,0.02,0.17,0.05,0.24,0.1c0.12,0.08,0.13,0.22,0.03,0.33
			c-0.06,0.06-0.13,0.1-0.21,0.12c-0.15,0.04-0.31,0.03-0.47,0.07c-0.63,0.15-1.26,0.3-1.89,0.46c-0.77,0.2-1.52,0.49-2.27,0.79
			c-0.59,0.24-1.18,0.5-1.76,0.77c-0.66,0.31-1.31,0.65-1.97,0.99c-0.98,0.52-1.93,1.1-2.85,1.75c-0.98,0.69-1.91,1.46-2.79,2.33
			c-0.78,0.77-1.49,1.63-2.15,2.55c-0.64,0.91-1.21,1.89-1.7,2.92c-0.23,0.49-0.44,0.99-0.64,1.5c-0.23,0.57-0.44,1.15-0.65,1.74
			c-0.14,0.4-0.26,0.82-0.37,1.23c-0.14,0.5-0.27,1.01-0.41,1.52c-0.01,0.02-0.02,0.04-0.02,0.07c-0.12,0.58-0.25,1.17-0.36,1.76
			c-0.12,0.65-0.23,1.3-0.33,1.96c-0.11,0.75-0.19,1.51-0.27,2.26c-0.05,0.54-0.13,1.08-0.18,1.63c-0.04,0.43-0.06,0.87-0.1,1.31
			c-0.01,0.14-0.03,0.28-0.07,0.42c-0.03,0.1-0.07,0.21-0.13,0.29c-0.13,0.18-0.3,0.15-0.37-0.07c-0.04-0.12-0.06-0.26-0.07-0.39
			c-0.07-0.62-0.13-1.24-0.19-1.87c-0.02-0.2-0.02-0.4-0.05-0.59c-0.08-0.62-0.14-1.24-0.24-1.86c-0.12-0.8-0.26-1.6-0.4-2.4
			c-0.1-0.57-0.22-1.14-0.34-1.71c-0.1-0.48-0.2-0.95-0.32-1.42c-0.22-0.87-0.44-1.75-0.69-2.61c-0.37-1.27-0.82-2.49-1.36-3.67
			c-0.81-1.77-1.88-3.29-3.13-4.63c-1.04-1.11-2.16-2.1-3.35-2.97c-1.18-0.87-2.41-1.62-3.68-2.28c-1.12-0.58-2.26-1.08-3.43-1.48
			c-1.04-0.36-2.1-0.66-3.18-0.82c-0.37-0.05-0.73-0.14-1.09-0.21c-0.11-0.02-0.22-0.01-0.33-0.04c-0.08-0.02-0.17-0.05-0.23-0.11
			c-0.1-0.09-0.09-0.23,0.02-0.31c0.04-0.03,0.08-0.05,0.13-0.05c0.09-0.02,0.18-0.03,0.27-0.03c0.73-0.04,1.45-0.11,2.17-0.27
			c0.6-0.13,1.2-0.28,1.8-0.44c0.45-0.12,0.89-0.28,1.33-0.43c0.36-0.13,0.72-0.26,1.07-0.41c0.63-0.26,1.25-0.53,1.87-0.82
			c0.51-0.24,1.01-0.49,1.51-0.77c0.55-0.31,1.1-0.62,1.62-0.97c0.68-0.46,1.36-0.94,2.01-1.45c1.08-0.84,2.09-1.8,2.98-2.92
			c0.79-0.99,1.47-2.08,2.02-3.28c0.49-1.06,0.91-2.16,1.27-3.3c0.29-0.92,0.55-1.85,0.78-2.8c0.23-0.96,0.47-1.92,0.67-2.89
			c0.14-0.67,0.24-1.35,0.36-2.03c0.08-0.5,0.17-1,0.24-1.5c0.09-0.64,0.16-1.29,0.24-1.93c0.04-0.4,0.07-0.81,0.1-1.21
			c0.01-0.1,0.02-0.21,0.05-0.3c0.03-0.09,0.08-0.19,0.14-0.25c0.13-0.13,0.29-0.09,0.37,0.08c0.04,0.09,0.06,0.19,0.07,0.29
			c0.04,0.51,0.07,1.01,0.11,1.52c0.06,0.81,0.12,1.61,0.2,2.42c0.04,0.47,0.13,0.92,0.17,1.39c0.04,0.44,0.09,0.87,0.19,1.29
			c0.02,0.11,0.04,0.22,0.05,0.33c0.04,0.39,0.1,0.77,0.2,1.14c0.03,0.1,0.04,0.22,0.06,0.33c0.05,0.26,0.11,0.52,0.17,0.78
			c0.01,0.04,0.02,0.08,0.03,0.11c0.11,0.49,0.22,0.98,0.34,1.47c0.11,0.42,0.24,0.84,0.37,1.25c0.1,0.3,0.2,0.6,0.3,0.9
			c0.21,0.66,0.46,1.3,0.74,1.92c0.27,0.58,0.54,1.17,0.82,1.73c0.34,0.67,0.74,1.3,1.16,1.89
			C821.13,573.42,821.38,573.75,821.64,574.09z"/>
	</g>
	<g>
		<path class="st13" d="M785.69,563.35c0.32,0.46,0.67,0.86,1.04,1.23c0.33,0.33,0.67,0.63,1.03,0.9c0.34,0.26,0.7,0.51,1.05,0.73
			c0.33,0.21,0.66,0.39,1,0.58c0.26,0.14,0.52,0.28,0.78,0.4c0.19,0.09,0.38,0.16,0.57,0.24c0.22,0.09,0.44,0.17,0.66,0.25
			c0.05,0.02,0.11,0.04,0.16,0.05c0.22,0.06,0.44,0.12,0.66,0.18c0.04,0.01,0.08,0.03,0.11,0.05c0.06,0.04,0.06,0.12,0.01,0.17
			c-0.03,0.03-0.06,0.05-0.1,0.06c-0.07,0.02-0.15,0.02-0.22,0.04c-0.29,0.08-0.58,0.15-0.88,0.24c-0.36,0.11-0.71,0.25-1.05,0.41
			c-0.27,0.12-0.55,0.26-0.81,0.4c-0.31,0.16-0.61,0.34-0.91,0.52c-0.45,0.27-0.89,0.57-1.32,0.91c-0.45,0.36-0.88,0.76-1.29,1.21
			c-0.36,0.4-0.69,0.85-0.99,1.33c-0.3,0.47-0.56,0.98-0.78,1.52c-0.11,0.25-0.2,0.52-0.3,0.78c-0.11,0.3-0.2,0.6-0.3,0.9
			c-0.06,0.21-0.12,0.42-0.17,0.64c-0.07,0.26-0.13,0.53-0.19,0.79c0,0.01-0.01,0.02-0.01,0.04c-0.06,0.3-0.12,0.61-0.17,0.91
			c-0.06,0.34-0.11,0.68-0.15,1.02c-0.05,0.39-0.09,0.78-0.12,1.18c-0.03,0.28-0.06,0.56-0.09,0.85c-0.02,0.23-0.03,0.45-0.04,0.68
			c-0.01,0.07-0.02,0.15-0.03,0.22c-0.01,0.05-0.03,0.11-0.06,0.15c-0.06,0.09-0.14,0.08-0.17-0.04c-0.02-0.06-0.03-0.14-0.03-0.2
			c-0.03-0.32-0.06-0.65-0.09-0.97c-0.01-0.1-0.01-0.21-0.02-0.31c-0.03-0.32-0.07-0.65-0.11-0.97c-0.06-0.42-0.12-0.83-0.19-1.25
			c-0.05-0.3-0.1-0.6-0.16-0.89c-0.05-0.25-0.09-0.5-0.15-0.74c-0.1-0.45-0.21-0.91-0.32-1.36c-0.17-0.66-0.38-1.3-0.63-1.91
			c-0.38-0.92-0.87-1.71-1.45-2.41c-0.48-0.58-1-1.09-1.55-1.55c-0.55-0.45-1.12-0.84-1.7-1.18c-0.52-0.3-1.05-0.56-1.59-0.77
			c-0.48-0.19-0.97-0.34-1.47-0.42c-0.17-0.03-0.34-0.07-0.5-0.11c-0.05-0.01-0.1-0.01-0.15-0.02c-0.04-0.01-0.08-0.03-0.11-0.06
			c-0.05-0.05-0.04-0.12,0.01-0.16c0.02-0.01,0.04-0.02,0.06-0.03c0.04-0.01,0.08-0.02,0.13-0.02c0.34-0.02,0.67-0.06,1.01-0.14
			c0.28-0.07,0.55-0.15,0.83-0.23c0.21-0.06,0.41-0.15,0.62-0.23c0.17-0.07,0.33-0.13,0.5-0.21c0.29-0.14,0.58-0.28,0.87-0.43
			c0.24-0.12,0.47-0.26,0.7-0.4c0.25-0.16,0.51-0.32,0.75-0.51c0.32-0.24,0.63-0.49,0.93-0.76c0.5-0.44,0.96-0.94,1.38-1.52
			c0.36-0.51,0.68-1.08,0.94-1.7c0.23-0.55,0.42-1.13,0.59-1.72c0.13-0.48,0.26-0.96,0.36-1.46c0.11-0.5,0.22-1,0.31-1.5
			c0.07-0.35,0.11-0.7,0.17-1.05c0.04-0.26,0.08-0.52,0.11-0.78c0.04-0.33,0.08-0.67,0.11-1.01c0.02-0.21,0.03-0.42,0.05-0.63
			c0-0.05,0.01-0.11,0.02-0.16c0.01-0.05,0.04-0.1,0.07-0.13c0.06-0.07,0.13-0.05,0.17,0.04c0.02,0.05,0.03,0.1,0.03,0.15
			c0.02,0.26,0.03,0.53,0.05,0.79c0.03,0.42,0.06,0.84,0.09,1.26c0.02,0.24,0.06,0.48,0.08,0.72c0.02,0.23,0.04,0.45,0.09,0.67
			c0.01,0.06,0.02,0.11,0.02,0.17c0.02,0.2,0.04,0.4,0.09,0.59c0.01,0.05,0.02,0.11,0.03,0.17c0.02,0.14,0.05,0.27,0.08,0.41
			c0,0.02,0.01,0.04,0.01,0.06c0.05,0.25,0.1,0.51,0.16,0.76c0.05,0.22,0.11,0.44,0.17,0.65c0.04,0.16,0.09,0.31,0.14,0.47
			c0.1,0.34,0.21,0.68,0.34,1c0.12,0.3,0.25,0.61,0.38,0.9c0.16,0.35,0.34,0.67,0.54,0.99C785.45,563,785.57,563.17,785.69,563.35z"
			/>
	</g>
	<g>
		<path class="st13" d="M799.32,609.62c0.27,0.34,0.56,0.63,0.86,0.91c0.27,0.24,0.56,0.46,0.85,0.67c0.29,0.2,0.58,0.38,0.88,0.54
			c0.27,0.15,0.55,0.29,0.83,0.43c0.22,0.11,0.43,0.2,0.65,0.3c0.15,0.07,0.31,0.12,0.47,0.18c0.18,0.06,0.36,0.12,0.55,0.19
			c0.04,0.01,0.09,0.03,0.13,0.04c0.18,0.04,0.37,0.09,0.55,0.13c0.03,0.01,0.06,0.02,0.09,0.04c0.05,0.03,0.05,0.09,0.01,0.13
			c-0.02,0.02-0.05,0.04-0.08,0.05c-0.06,0.01-0.12,0.01-0.18,0.03c-0.24,0.06-0.49,0.11-0.73,0.18c-0.3,0.08-0.59,0.19-0.87,0.3
			c-0.23,0.09-0.45,0.19-0.68,0.3c-0.25,0.12-0.51,0.25-0.76,0.38c-0.38,0.2-0.74,0.42-1.09,0.67c-0.38,0.27-0.73,0.56-1.07,0.9
			c-0.3,0.3-0.57,0.63-0.83,0.98c-0.25,0.35-0.46,0.73-0.65,1.12c-0.09,0.19-0.17,0.38-0.25,0.58c-0.09,0.22-0.17,0.44-0.25,0.67
			c-0.05,0.15-0.1,0.31-0.14,0.47c-0.05,0.19-0.11,0.39-0.16,0.58c0,0.01-0.01,0.02-0.01,0.03c-0.05,0.23-0.1,0.45-0.14,0.68
			c-0.05,0.25-0.09,0.5-0.13,0.75c-0.04,0.29-0.07,0.58-0.1,0.87c-0.02,0.21-0.05,0.42-0.07,0.63c-0.02,0.17-0.02,0.33-0.04,0.5
			c0,0.05-0.01,0.11-0.03,0.16c-0.01,0.04-0.03,0.08-0.05,0.11c-0.05,0.07-0.11,0.06-0.14-0.03c-0.02-0.05-0.02-0.1-0.03-0.15
			c-0.03-0.24-0.05-0.48-0.07-0.72c-0.01-0.08-0.01-0.15-0.02-0.23c-0.03-0.24-0.06-0.48-0.09-0.72c-0.05-0.31-0.1-0.62-0.15-0.92
			c-0.04-0.22-0.08-0.44-0.13-0.66c-0.04-0.18-0.08-0.37-0.12-0.55c-0.09-0.34-0.17-0.67-0.27-1c-0.14-0.49-0.32-0.96-0.52-1.41
			c-0.31-0.68-0.72-1.27-1.2-1.78c-0.4-0.43-0.83-0.81-1.29-1.14c-0.45-0.34-0.93-0.62-1.42-0.88c-0.43-0.22-0.87-0.42-1.32-0.57
			c-0.4-0.14-0.81-0.25-1.22-0.31c-0.14-0.02-0.28-0.06-0.42-0.08c-0.04-0.01-0.09,0-0.13-0.01c-0.03-0.01-0.06-0.02-0.09-0.04
			c-0.04-0.04-0.03-0.09,0.01-0.12c0.01-0.01,0.03-0.02,0.05-0.02c0.03-0.01,0.07-0.01,0.11-0.01c0.28-0.01,0.56-0.04,0.84-0.1
			c0.23-0.05,0.46-0.11,0.69-0.17c0.17-0.05,0.34-0.11,0.51-0.17c0.14-0.05,0.28-0.1,0.41-0.16c0.24-0.1,0.48-0.21,0.72-0.32
			c0.2-0.09,0.39-0.19,0.58-0.29c0.21-0.12,0.42-0.24,0.62-0.37c0.26-0.18,0.52-0.36,0.77-0.56c0.42-0.32,0.8-0.69,1.15-1.12
			c0.3-0.38,0.56-0.8,0.78-1.26c0.19-0.41,0.35-0.83,0.49-1.27c0.11-0.35,0.21-0.71,0.3-1.08c0.09-0.37,0.18-0.74,0.26-1.11
			c0.05-0.26,0.09-0.52,0.14-0.78c0.03-0.19,0.07-0.38,0.09-0.58c0.03-0.25,0.06-0.5,0.09-0.74c0.02-0.15,0.03-0.31,0.04-0.47
			c0-0.04,0.01-0.08,0.02-0.12c0.01-0.04,0.03-0.07,0.05-0.1c0.05-0.05,0.11-0.04,0.14,0.03c0.02,0.03,0.02,0.07,0.03,0.11
			c0.02,0.19,0.03,0.39,0.04,0.58c0.02,0.31,0.05,0.62,0.08,0.93c0.02,0.18,0.05,0.36,0.07,0.53c0.02,0.17,0.03,0.33,0.07,0.5
			c0.01,0.04,0.02,0.08,0.02,0.13c0.01,0.15,0.04,0.3,0.08,0.44c0.01,0.04,0.01,0.08,0.02,0.13c0.02,0.1,0.04,0.2,0.06,0.3
			c0,0.01,0.01,0.03,0.01,0.04c0.04,0.19,0.08,0.38,0.13,0.56c0.04,0.16,0.09,0.32,0.14,0.48c0.04,0.12,0.08,0.23,0.12,0.35
			c0.08,0.25,0.17,0.5,0.28,0.74c0.1,0.22,0.21,0.45,0.32,0.67c0.13,0.26,0.28,0.5,0.45,0.73
			C799.13,609.36,799.22,609.49,799.32,609.62z"/>
	</g>
</g>
</svg>
