<?xml version="1.0" encoding="utf-8"?>
<!-- Generator: Adobe Illustrator 26.4.1, SVG Export Plug-In . SVG Version: 6.00 Build 0)  -->
<svg version="1.1" id="Out_Of_The_Darkness" xmlns="http://www.w3.org/2000/svg" xmlns:xlink="http://www.w3.org/1999/xlink"
	 x="0px" y="0px" viewBox="0 0 1080 575" style="enable-background:new 0 0 1080 575;" xml:space="preserve">
<style type="text/css">
	.st0{clip-path:url(#SVGID_00000132801624369180964520000003353623643286833802_);fill:#F0F7FA;}
	.st1{fill:#504483;}
	.st2{fill:#3B2D72;}
	.st3{fill:#504383;}
	.st4{fill:#3C2E72;}
	.st5{fill:#3B2E72;}
	.st6{fill:#514483;}
	.st7{fill:#3C2F72;}
	.st8{fill:#3D2F73;}
	.st9{fill:#524584;}
	.st10{fill:#3E3073;}
	.st11{fill:none;stroke:#3C2E72;stroke-width:0;stroke-linecap:round;stroke-linejoin:round;}
	.st12{fill:#FEFE5E;}
</style>
<g>
	<g>
		<defs>
			<rect id="SVGID_1_" x="75" y="20" width="930" height="535.55"/>
		</defs>
		<clipPath id="SVGID_00000055682386656084983880000012965474163580884636_">
			<use xlink:href="#SVGID_1_"  style="overflow:visible;"/>
		</clipPath>
		<path style="clip-path:url(#SVGID_00000055682386656084983880000012965474163580884636_);fill:#F0F7FA;" d="M182.17,555.33
			c-8.96-0.22-17.88-1.59-26.6-3.56c-6.39-1.6-12.61-3.83-18.79-6.07c-11.46-4.3-22.22-10.59-31.56-18.51
			c-5.94-5.21-11.09-11.27-15.81-17.58c-3.97-5.93-7.2-12.39-9.73-19.06c-4.22-12.45-4.56-25.98-1.85-38.8
			c2.2-9.91,6.55-19.21,11.17-28.19c6.63-12.06,16.31-22.06,25.97-31.73c13.72-13.02,28.99-24.28,44.57-34.95
			c7.75-5.34,15.74-10.34,23.28-15.99c6.23-4.85,12.24-10.17,16.96-16.54c4.34-6.11,5.88-14.1,4.35-21.4
			c-2.87-14.6-15.35-24.33-25-34.67c-5.86-6.06-10.63-13.11-14.02-20.83c-3.24-7.03-5.98-14.48-6.26-22.29
			c-0.2-8.81,1.52-17.77,5.39-25.72c2.09-4.11,4.28-8.18,6.86-12c3.35-4.68,7.01-9.16,11.12-13.2
			c28.06-27.44,66.24-40.24,103.38-50.17c18.71-5.27,38.23-8.54,55.98-16.59c31.93-21.45,63.24-44.09,97.25-62.2
			c18.04-9.57,36.91-18.2,56.96-22.5c10.38-1.77,20.92-2.65,31.45-2.49c10.7,0.22,21.33,1.69,31.85,3.62
			c20.94,3.85,41.2,10.82,62.22,14.28c8.74,1.24,17.57,1.78,26.4,1.5c11.53-0.16,23.02-1.65,34.35-3.75
			c15.78-3,30.76-9.63,46.98-9.62c11.49,0.25,22.48,4.21,33.27,7.79c20.64,7.02,39.89,18.38,55.38,33.78
			c8.3,8.13,15.03,17.64,22.22,26.72c5.95,7.41,12.17,14.66,19.22,21.03c7.43,6.71,15.66,12.54,24.41,17.41
			c33.32,18.41,74.03,24.49,101.7,52.24c8.31,8.47,15.45,18.94,16.99,30.94c2.66,19.46-10.36,36.53-24.01,48.91
			c-10.64,9.91-23.13,17.99-32.15,29.55c-4.8,6.09-8.96,12.85-10.6,20.51c-2.05,9.21-2.72,18.74-2.09,28.15
			c0.79,11.02,3.29,21.82,5.17,32.69c5.78,29.58,3.94,57.75-15.47,82.2c-16,20.05-40.64,30.38-64.7,37.27
			c-39.35,11.55-80.1,8.66-118.61-4.64c-21.3-7.19-41.69-16.78-61.69-26.98c-12.41-6.24-24.68-12.85-37.66-17.86
			c-32.07-12.59-63.33-16.98-97.38-10.73c-42.4,7.13-74.11,38.49-106.97,63.65c-4.93,3.6-10.05,7.06-15.74,9.35
			c-3.93,1.56-8.02,2.65-12.17,3.4c-7.57,1.41-15.22,2.61-22.93,2.62c-12.86-0.13-25.43-3.56-38.2-4.19
			c-32.98-2.49-64.72,9.83-93.65,24.35c-11.48,5.69-22.84,11.83-35.11,15.67c-10.26,3.43-21.07,5.27-31.89,5.27
			C184.98,555.43,183.58,555.39,182.17,555.33z"/>
	</g>
	<g>
		<path class="st1" d="M406.46,380.83c-0.05-4.9,1.57-9.71,2.45-14.51c0.32-1.74,0.64-3.48,0.87-5.24c0.55-4.23,2.55-7.9,4.54-11.54
			c1.93-3.52,4.92-5.96,8.7-7.24c1.94-0.66,4.04-1.58,6.45-1.98c0.23,1.2,0.27,3.84,0.29,4.81c0.38,17.24,1.3,33.91,1.63,51.15
			c0.08,4.33-0.48,8.59-1.58,12.79c-1.37,5.19-4.07,9.56-8.11,13.06c-4.06,3.53-8.7,6.85-13.85,8.31
			c-0.37-7.56-0.46-15.03-0.52-22.61c-0.01-1.92-0.59-3.81-0.8-5.73c-0.4-3.57-0.09-6.94,0.22-10.49"/>
		<path class="st2" d="M686.9,366.04c-0.09-3.12-0.22-6.23-0.26-9.35c-0.15-10.85-0.34-21.7-0.37-32.55
			c-0.02-7.28,0.13-14.57,0.37-21.84c0.1-2.96,0.62-5.91,1.02-8.85c0.14-1.02,0.46-2.03,0.76-3.02c2.15-7.22,6.26-9.66,13.47-7.65
			c3.27,0.91,6.49,2.18,9.54,3.66c5.88,2.85,11.62,5.98,17.43,8.98c17.28,8.95,34.57,17.87,51.82,26.88
			c5.66,2.95,11.3,5.98,16.78,9.25c3.3,1.97,6.4,4.33,9.36,6.8c6.57,5.48,8.31,12.8,7.22,20.92c-0.61,4.51-3.24,7.55-7.73,8.83
			c-4.11,1.17-8.25,0.9-12.37,0.22c-6.19-1.02-12.16-2.89-17.84-5.49c-7.29-3.34-14.48-6.89-21.65-10.48
			c-5.84-2.93-11.56-6.11-17.4-9.05c-2.51-1.27-5.16-2.28-7.8-3.27c-1.23-0.47-2.58-0.76-3.89-0.87c-3.13-0.27-4.55,0.95-4.54,4
			c0.01,5.12,1.48,9.73,5.62,13.04c2.07,1.66,4.41,3.01,6.65,4.45c2.37,1.52,4.88,2.85,7.15,4.52c3.51,2.57,6.43,5.74,8.42,9.67
			c2.23,4.41,2.75,8.98,1.5,13.84c-1.34,5.18-5.45,6.95-9.72,6.56c-3.42-0.31-6.68-1.4-9.84-2.73c-1.37-0.58-2.72-1.21-4.1-1.74
			c-1.27-0.48-2.41-0.15-3.1,0.94c-0.47,0.74-0.82,1.58-1.11,2.41c-1.67,4.73,1.14,12.83,6.94,14.86c-0.26,2.32-1.3,3.73-2.6,5
			c-2.76,2.71-5.42,5.51-8.22,8.17c-3.06,2.9-6.65,4.94-10.73,6.06c-0.7,0.19-1.54,0.38-2.17,0.17c-2.24-0.76-4.61-1.51-5.96-3.64
			c-1.43-2.24-2.95-4.51-3.85-6.99c-2.68-7.39-4.18-15.07-4.63-22.94c-0.04-0.74-0.04-1.5-0.23-2.21
			c-1.09-4.18-0.76-8.51-1.46-12.74c-0.68-4.06-0.71-8.23-1.04-12.35C688.26,366.67,687.69,366.23,686.9,366.04z"/>
		<path class="st3" d="M331.84,369.36c2.88,3.85,5.03,9.49,6.58,13.97c1.46,4.22,2.26,8.62,2.7,13.06
			c0.99,9.91,1.38,19.86,0.96,29.81c-0.41,9.66-1.6,19.23-4.38,28.54c-2.45,8.19-6.06,15.79-11.58,22.39
			c-6.45,7.71-14.63,12.94-23.91,16.55c-7.79,3.03-15.87,4.96-24.14,6c-3.68,0.46-7.39,0.51-11.08-0.3
			c-4.61-1.01-8.11-3.51-10.66-7.43c-1.96-3.02-3.25-6.33-4.28-9.75c-2.11-6.98-3.42-14.14-4.39-21.35
			c-2.03-15-3.93-31.19-5.56-46.64c2.35-3.34,4.39-5.06,6.4-7.96c2.54-3.66,5.25-7.1,9.39-9.19c3.98-2.01,7.93-3.23,12.33-1.5
			c4.16,1.63,9.14,2.72,11.19,7.19c-2.97,1.71-4.84,4.84-5.15,7.77c-0.09,0.88-0.11,1.78-0.1,2.67c0.13,8.92,1.41,17.72,3.05,26.47
			c0.27,1.44,0.79,2.87,1.41,4.2c1.43,3.06,3.35,3.8,6.51,2.67c2.86-1.02,5.22-2.8,7.29-4.96c4.2-4.36,7.11-9.45,8.63-15.32
			c1.37-5.28,1.13-11.4-0.76-16.92c2.91-5.01,6.16-8.82,8.96-13.48c2.58-4.29,5.05-8.65,7.8-12.82
			C322.49,377.8,325.96,372,331.84,369.36z"/>
		<path class="st4" d="M342.56,371.39c-0.87-10.06-1.38-20.13-0.74-30.23c0.34-5.34,0.88-10.64,2.12-15.86
			c2.42-10.2,7.61-18.66,15.9-25.07c11.41-8.83,24.22-14.92,38.19-18.51c3.73-0.96,7.55-1.43,11.47-0.69
			c4.32,0.82,7.7,2.96,10.28,6.46c1.86,2.54,3.15,5.37,4.17,8.33c1.99,5.78,3.07,11.77,3.87,17.8c1.18,8.83,1.87,17.71,1.74,27.04
			c-2.48,0.81-4.59,0.98-6.52,1.64c-3.78,1.28-6.77,3.72-8.7,7.24c-1.99,3.64-3.99,7.31-4.54,11.54c-0.23,1.75-0.55,3.5-0.87,5.24
			c-0.88,4.8-1.64,9.61-1.58,14.51c0.02,1.49,0.02,2.97-0.01,4.46c-0.04,2.22-0.28,4.4-0.58,6.61c-0.45,3.34-0.35,6.84,0.07,10.2
			c0.24,1.91,0.5,3.8,0.51,5.73c0.05,7.58,0.96,14.88,1,22.46c-4.89,1.49-8.06,0.84-9.42-3.71c-0.8-2.67-1.18-5.52-1.38-8.32
			c-0.43-5.93-0.48-11.89-0.94-17.82c-0.36-4.58-1.04-9.15-1.71-13.7c-0.19-1.29-0.71-2.59-1.31-3.76c-0.88-1.72-2.4-2.18-4.14-1.35
			c-2.8,1.32-4.92,3.38-5.95,6.33c-0.58,1.67-0.94,3.44-1.19,5.19c-0.89,6.21-0.71,12.46-0.5,18.7c0.2,6.09,0.47,12.18,0.54,18.28
			c0.03,2.51-0.67,5.61-1.32,8.44c-1.88-0.01-2.34-1.68-3.07-2.82c-3.91-6.16-6.89-12.79-9.64-19.5c-3.2-7.8-6.08-15.73-9.07-23.61
			c-2.33-6.14-5.56-11.78-9.71-16.87C347.73,373.58,345.57,371.74,342.56,371.39z M374.5,334c1.65,2.87,4.27,3.4,7.27,2.99
			c0.59-0.08,1.18-0.17,1.74-0.34c4.58-1.38,8.72-3.65,12.57-6.46c1.46-1.07,2.5-2.56,3.05-4.29c1-3.19,1-6.44,0.03-9.63
			c-0.85-2.8-2.96-4.41-5.91-4.53c-1.17-0.05-2.41,0-3.51,0.35c-2.38,0.77-4.76,1.62-7.02,2.7
			C376.85,317.62,371.94,324.08,374.5,334z"/>
		<path class="st5" d="M577.74,308.09c-0.26-4.74-0.54-9.48-0.77-14.23c-0.22-4.3-0.41-8.6-0.58-12.91
			c-0.22-5.68,0.24-11.28,2.28-16.65c2.61-6.89,7.45-11.34,14.66-13.02c3.35-0.78,6.78-0.77,10.2-0.34c2.46,0.31,4.57,1.53,6.17,3.3
			c2.08,2.3,4.21,4.67,5.7,7.36c2.58,4.66,4.94,9.48,6.93,14.42c2.93,7.29,5.38,14.78,8.17,22.13c1.58,4.16,3.31,8.26,5.21,12.28
			c0.8,1.7,2.02,3.31,3.38,4.63c1.99,1.92,4.31,1.3,5.25-1.32c1.12-3.12,1.36-6.39,0.86-9.67c-0.8-5.28-1.68-10.55-2.53-15.82
			c-0.99-6.15-2.02-12.3-2.97-18.46c-0.22-1.46-0.31-2.97-0.23-4.44c0.16-2.96,1.67-4.67,4.61-5.12c1.44-0.22,2.98-0.21,4.42,0.03
			c5.29,0.89,10.39,2.43,15.23,4.79c6.85,3.34,11.16,8.72,12.84,16.13c0.56,2.45,0.91,4.97,1.11,7.48
			c0.57,7.4,1.12,14.81,1.47,22.22c0.48,10.09,0.76,20.18,0.71,30.67c-1,0.28-1.59,0.19-2.15,0.02c-2.48-0.77-5.07-0.87-7.45-0.12
			c-2.65,0.83-5.11,2.27-7.63,3.51c-5.44,2.68-10.46,6.2-16.24,8.22c-5.54,1.94-11.11,3.22-16.92,1.31
			c-1.68-0.55-3.32-1.21-4.98-1.82c-1.01-3.53-1.9-7.1-3.08-10.58c-1.04-3.05-2.26-6.06-3.68-8.96c-0.76-1.54-2.01-2.88-3.21-4.16
			c-0.92-0.98-2.15-1.56-4.27-1.21c-1.03-0.26-2.87,0.32-3.07,0.02c-2.9-4.28-2.05-10.54-3.39-15.53
			c-1.19-4.46-2.96-8.66-4.91-12.81c-0.32-0.67-0.61-1.39-1.08-1.94c-2.47-2.86-5.24-3.77-8.52-1.26c-0.59,0.45-1.1,1-1.63,1.51
			c-2.65,2.58-5.35,5.14-7.14,8.45C579.88,307.33,579.09,308.09,577.74,308.09z"/>
		<path class="st5" d="M827.93,246.47c-0.31-3.85-0.72-7.69-0.91-11.55c-0.78-16.48-1.58-32.97-1.28-49.48
			c0.12-6.55,0.41-13.09,1.85-19.5c0.58-2.59,1.44-5.16,2.54-7.57c1.71-3.75,4.72-6.1,8.87-6.67c2.19-0.31,4.45-0.57,6.64-0.38
			c13.39,1.17,26.44,3.98,38.96,8.93c3.03,1.2,5.99,2.66,8.78,4.33c2.14,1.28,4.1,2.96,5.9,4.7c2.32,2.25,3.54,5.12,3.62,8.39
			c0.15,5.8,0.09,11.6-1.24,17.3c-0.4,1.72-1,3.43-1.72,5.04c-1.92,4.32-5.38,6.76-10.02,7.09c-3.08,0.22-6.25,0.06-9.31-0.39
			c-3.51-0.53-6.95-1.57-10.42-2.39c-0.87-0.2-1.72-0.49-2.6-0.6c-3.06-0.38-5.35,1.06-5.99,4.01c-0.99,4.55-0.03,7.84,4.3,10.15
			c3.2,1.7,6.72,2.33,10.27,2.74c2.81,0.32,5.62,0.53,8.42,0.91c7.55,1.01,10.39,3.76,11.33,11.38c0.6,4.87-0.6,10.9-0.99,16.11
			c-2.18,0.49-2.81-2.02-3.96-2.91c-4.29-3.31-8.96-4.94-14.49-3.59c-5.83,1.42-11.15,4.01-16.26,6.96
			c-5.05,2.92-10.22,5.19-15.99,6.21c-3.62,0.64-6.76-0.15-9.41-2.5c-1.98-1.76-3.64-3.88-5.48-5.8
			C828.97,247.02,828.41,246.79,827.93,246.47z"/>
		<path class="st4" d="M225.01,251.64c-0.4-4.11-0.35-9.5-0.2-13.65c0.49-13.42,3.13-26.54,5.98-39.6
			c1.36-6.23,3.8-12.19,6.74-17.88c1.64-3.16,3.5-6.21,5.34-9.26c2.97-4.91,6.91-8.86,11.66-12.09c6.58-4.48,13.53-8.03,21.47-9.35
			c4.72-0.79,9.49-1,14.2-0.09c7.35,1.42,13.07,5.46,17.42,11.5c3.16,4.39,5.29,9.27,6.92,14.39c2.49,7.83,3.68,15.91,4.38,24.06
			c1.02,11.88,0.02,23.93-0.77,35.8c-0.12,1.78-0.18,3.92-0.5,6.04c-1.06-0.22-1.69-1.25-2.17-1.92c-1.54-2.17-3.04-4.37-4.41-6.65
			c-1.71-2.84-4.06-5.09-6.48-7.26c-1.06-0.95-2.48-1.86-3.84-2.03c-3.69-0.47-7.43-0.52-10.68,1.84c-1.2,0.87-3.06,3.01-4.15,2.69
			c0.77-2.95,0.81-7.04,0.8-9.7c-0.01-2.2-0.28-4.46-0.83-6.59c-1.48-5.71-5.3-8.39-11.14-8.04c-1.03,0.06-2.07,0.22-3.07,0.48
			c-8.38,2.15-13.58,7.6-16.01,15.75c-1.3,4.35-1.11,8.8-0.33,13.24c1.29,7.33,5.58,12.16,13.24,13.67
			c-0.85,2.95-3.81,3.6-5.87,4.64c-4.14,2.1-7.06,1.56-10.45-1.64c-1.95-1.84-3.65-3.87-5.1-6.12c-1.84-2.86-3.79-5.64-6.31-7.97
			c-2.9-2.69-6.83-2.44-9.3,0.63c-0.55,0.68-1.03,1.46-1.37,2.27c-1.1,2.58-2.05,5.22-3.18,7.79
			C226.41,247.89,226.51,250.79,225.01,251.64z"/>
		<path class="st4" d="M713.35,139.94c-0.83-1.28-2.07-2.61-3.32-3.44c-2.47-1.64-4.94-3.33-7.12-5.32
			c-5.91-5.39-8.86-12.19-8.81-20.21c0.02-2.37,0.18-4.76,0.54-7.1c0.87-5.67,3.78-8.02,9.55-7.52c2.79,0.25,5.61,0.8,8.27,1.68
			c4.65,1.54,9.29,3.18,13.74,5.21c19.05,8.7,38.09,17.44,57.01,26.42c6.02,2.86,11.73,6.4,17.47,9.83c3.97,2.37,7.47,5.4,10.52,8.9
			c4.77,5.46,7.41,11.79,7.5,19.09c0.07,5.82-2.61,9.11-8.23,10.51c-4.78,1.19-9.47,0.4-14.13-0.59c-4.81-1.02-9.45-2.6-13.89-4.73
			c-11.38-5.47-22.76-10.95-34.15-16.4c-1.58-0.76-3.08-1.77-5.16-2c-0.68,1.48-0.29,2.94-0.15,4.33
			c0.57,5.62,1.22,11.23,1.83,16.84c0.88,8.13,1.76,16.25,2.64,24.38c0.14,1.33,0.21,3.64,0.02,5.33c-0.78,0.28-1.22-0.64-1.51-0.88
			c-2.28-1.89-4.6-3.75-6.03-6.44c-1.67-3.14-3.37-6.29-4.21-9.77c-1.25-5.16-2.6-10.3-3.49-15.53c-1.23-7.26-2.34-14.52-4.34-21.65
			c-0.91-3.25-2.5-5.99-4.32-8.66c-1.22-1.8-3.1-2.71-5.32-2.77C716.61,139.4,714.98,139.97,713.35,139.94z"/>
		<path class="st3" d="M577.93,148.31c0.2,1.01,0.51,2.01,0.57,3.02c0.44,8.46,0.68,16.93,0.12,25.39
			c-0.4,6.09-1.44,12.07-3.31,17.91c-4.44,13.86-13.6,22.71-27.72,26.32c-6.65,1.7-13.36,2.65-20.28,1.73
			c-12.27-1.63-21.64-7.73-28.38-17.99c-4.65-7.07-7.33-14.95-8.49-23.25c-2.43-17.47-1.19-34.67,5.13-51.65
			c1.45-0.39,2.3-0.66,3.17-0.74c1.15-0.11,2.39-0.32,3.47-0.04c3.2,0.83,6.04,2.42,8.05,5.09c1.94,2.57,3.93,5.14,5.15,8.19
			c0.55,1.36,1.3,2.64,2.01,3.94c0.47,0.86,1.28,1.17,2.2,1.59c-1.74,5.82-1.23,11.17,1.09,16.3c3.68,8.15,12.48,9.16,17.87,6.62
			c1.19-0.56,2.58-1.26,3.95-1.63c1.27,0.88,1.99,0.42,2.84-0.13c4.07-2.62,8.15-5.22,12.14-7.96c4.23-2.91,8.32-6.01,12.53-8.94
			C572.44,150.39,575.02,148.98,577.93,148.31z"/>
		<path class="st6" d="M864.64,380.84c-0.45-0.62-3.14-0.56-4.47-0.49c-2.49,0.14-4.3,1.41-4.93,3.8c-0.52,1.98-0.8,4.09-0.78,6.13
			c0.01,1.06,0.68,2.35,1.46,3.1c1.48,1.43,3.16,2.72,4.94,3.76c3.33,1.95,6.79,3.69,10.19,5.52c4.46,2.4,8.78,4.99,12.73,8.19
			c9.64,7.81,13.71,18.06,13.12,30.25c-0.21,4.44-0.85,8.85-2.17,13.16c-3.59,11.73-11.21,19.41-22.95,22.84
			c-9.76,2.85-19.7,3.15-29.49,0.35c-13.94-3.98-22.57-13.42-25.91-27.39c-1.69-7.07-0.63-14.22,1.94-21.03
			c2.18-5.77,7.16-8.49,13.18-6.98c2.48,0.62,4.88,1.29,7.01,2.73c2.56,1.73,4.27,4.14,5.15,7.07c0.68,2.27,1.14,4.61,1.72,6.91
			c0.32,1.3,0.56,2.63,1.04,3.87c1.7,4.42,5.98,5.97,10.21,3.82c1.65-0.84,2.91-2.07,3.8-3.66c2.25-4,3.05-8.34,2.91-12.88
			c-0.06-1.95-1.12-3.42-2.63-4.44c-1.71-1.16-3.55-2.18-5.43-3.03c-2.97-1.35-6.07-2.43-9.04-3.79c-2.83-1.3-5.64-2.68-8.32-4.26
			c-7.38-4.35-13.22-11.56-16.4-19.79c0.9-0.73,1.92,0.16,2.41-0.35c3.77-3.97,7.98-7.42,12.43-10.58
			c4.69-3.33,9.25-6.65,15.16-7.94c4.36-0.95,8.08,0.94,11.62,2.85C863.64,378.88,864.95,381.26,864.64,380.84z"/>
		<path class="st1" d="M547.57,323.07c-0.64,0.99-2.16,3.13-2.8,4.12c-0.97,1.49-1.97,2.96-2.88,4.5c-1.43,2.43-1.36,4.81,0.52,7.01
			c1.16,1.35,2.31,2.71,3.56,3.98c3.03,3.07,6.13,6.05,9.16,9.12c4.07,4.14,7.79,8.58,10.82,13.55c2.5,4.09,4.37,8.43,5.17,13.18
			c0.6,3.56,0.52,7.11-0.6,10.57c-1.17,3.65-3.61,6.1-7.28,7.21c-1.41,0.43-2.9,0.84-4.35,0.85c-3.85,0.02-7.71-0.11-11.56-0.32
			c-3.27-0.18-6.07-1.64-8.17-4.07c-2.12-2.46-4.27-5-5.81-7.84c-2.69-4.94-4.99-10.11-7.33-15.23c-1.61-3.51-2.97-7.12-4.54-10.65
			c-0.58-1.31-1.03-2.8-2.45-3.5c-1.2,0.04-1.56,0.96-1.76,1.77c-0.73,3.03-1.33,6.08-1.99,9.13c-1.21,5.5-2.23,11.06-3.71,16.49
			c-0.81,2.97-2.21,5.83-3.69,8.55c-1.81,3.33-4.66,5.35-8.65,5.3c-1.77-0.02-3.56-0.01-5.32-0.15c-4.29-0.34-7.08-2.77-8.82-6.55
			c-1.63-3.55-2.36-7.36-2.7-11.21c-0.48-5.47-0.88-10.96-0.96-16.45c-0.13-10.39-0.06-20.79,0.03-31.19
			c0.07-7.88,1.39-15.26,2.52-23.05c0.08-0.58,0.37-2.68,0.69-3.47c0.89,0.19,0.94,1.59,1.14,2.08c2.21,5.33,4.33,10.7,6.56,16.01
			c1.33,3.16,3.25,5.92,5.48,8.57c2.26,2.68,5,2.92,8.02,2.5c0.99-0.14,2.02-0.59,2.85-1.16c1.81-1.27,3.63-2.58,5.21-4.11
			c4.37-4.23,8.67-8.54,12.91-12.91c1.6-1.65,3.48-2.77,5.55-3.6c2.48-1,5.15-0.26,6.75,1.9c1.4,1.89,2.5,4.01,3.94,5.87
			C544.25,321.34,545.58,322.27,547.57,323.07z"/>
		<path class="st3" d="M224.93,250.64c1.58-1.24,1.48-2.92,2.06-4.23c1.13-2.57,2.09-5.21,3.18-7.79c0.34-0.81,0.82-1.59,1.37-2.27
			c2.46-3.07,6.4-3.31,9.3-0.63c2.51,2.33,4.47,5.11,6.31,7.97c1.45,2.26,3.15,4.28,5.1,6.12c3.39,3.2,6.31,3.73,10.45,1.64
			c2.06-1.04,5.05-1.86,5.75-4.67c5.19-0.82,9.13-2.89,12.16-6.67c1.68-2.1,2.93-4.44,3.74-7.01c0.62-1.97,1.18-3.96,1.77-5.94
			c1.56-0.11,2.76-0.98,3.97-1.86c3.25-2.36,6.99-2.31,10.68-1.84c1.35,0.17,2.78,1.08,3.84,2.03c2.42,2.17,4.77,4.43,6.48,7.26
			c1.37,2.28,2.87,4.48,4.41,6.65c0.48,0.67,1.28,1.12,2.24,1.7c-0.18,8.08-2.07,15.83-4.73,23.4c-2.89,8.2-7.09,15.66-12.85,22.19
			c-7.97,9.03-17.73,15.2-29.47,18.12c-12.6,3.13-23.12-0.26-31.55-10.12c-3.7-4.33-6.33-9.31-8.4-14.58
			c-3-7.64-4.68-15.6-5.45-23.76C225.11,254.58,224.98,252.81,224.93,250.64z"/>
		<path class="st2" d="M332.37,370.22c-5.84,2.94-9.89,7.59-13.33,12.79c-2.75,4.17-5.22,8.53-7.8,12.82
			c-2.81,4.67-5.59,9.34-8.74,14.14c-3.21-3.74-7.13-5.95-11.7-7.06c-3.35-0.81-6.73-0.65-10.08,0.2
			c-2.25-4.26-6.36-5.94-10.52-7.57c-4.4-1.73-8.35-0.51-12.33,1.5c-4.14,2.1-6.84,5.53-9.39,9.19c-2.01,2.9-4.05,5.78-6.33,8.77
			c-1-5.65-1.88-11.37-2.43-17.13c-0.64-6.65-1.06-13.33-1.44-20c-0.36-6.25-0.05-12.47,1.17-18.63c1.5-7.62,5.77-12.87,13.07-15.63
			c6.82-2.58,13.82-4.66,20.99-5.86c7.42-1.25,14.82-0.37,21.97,2.12C311.4,345.42,323.69,355.42,332.37,370.22z"/>
		<path class="st6" d="M821.11,225.57c0.29,3.83,0.64,8.36,0.81,12.2c0.73,17.21,1.4,34.43,2.07,51.64
			c0.07,1.78,0.07,3.56,0.05,5.35c-0.01,1.04-0.02,2.09-0.19,3.11c-0.79,4.7-3.25,6.29-7.9,5.2c-9.51-2.24-15.91-9.76-16.92-19.99
			c-0.36-3.69-0.43-7.42-0.84-11.11c-0.48-4.27-1.12-8.53-1.81-12.77c-0.23-1.45-0.77-2.86-1.23-4.27c-1.23-3.74-4.17-5.21-7.77-5.7
			c-1.67-0.23-3.02,0.68-3.17,2.39c-0.17,1.89-0.15,3.87,0.19,5.73c1.06,5.84,2.39,11.63,3.46,17.47c0.37,2.02,0.51,4.15,0.37,6.2
			c-0.32,4.83-3.13,6.94-7.85,5.84c-5.75-1.35-10.81-4.11-14.93-8.39c-2.9-3-4.24-6.76-4.74-10.83c-0.33-2.65-0.55-5.32-0.71-7.99
			c-0.74-12.3-1.3-24.62-2.14-36.91c-0.34-4.95,0.47-11.67-0.53-16.52c5.21-0.19,10.04,1.11,14.69,0.44
			c3.48-0.5,6.96-2.77,10.55-2.38c0.12,1.62,0.14,4.41,0.3,6.03c0.52,5.09,3.42,11.08,8.68,10.75c1.89-0.12,1.97-2.5,2.09-4.11
			c0.2-2.51,0.24-5.04,0.28-7.56c0.03-1.63,0.37-4.58,0.38-6.34c1.99-0.09,3.52,1.24,5.09,1.6c2.75,0.62,5.53,1.45,7.66,3.25
			c3.71,3.14,7.22,6.53,9.41,11.01c0.84,1.72,1.63,3.48,2.59,5.13C819.56,224.87,820.44,224.83,821.11,225.57z"/>
		<path class="st4" d="M396.51,181.36c0.21-2.81,0.43-5.61,0.64-8.42c0.09-1.29,0.15-2.59,0.22-3.83c-1.65-0.56-2.88,0.02-4.14,0.37
			c-9.3,2.57-18.62,5.07-27.9,7.73c-5.6,1.6-11.3,2.51-17.1,2.89c-4.03,0.26-8.03-0.04-11.89-1.3c-6.33-2.06-8.87-6.37-7.96-13.02
			c1.11-8.11,5.03-14.47,11.61-19.28c4.24-3.09,8.92-5.3,13.81-7.13c7.24-2.71,14.7-4.69,22.22-6.46
			c15.17-3.58,30.33-7.2,45.51-10.76c3.76-0.88,7.56-1.6,11.45-1.56c1.33,0.01,2.69,0.01,4,0.22c3.19,0.52,5.63,2.26,6.5,5.38
			c1.88,6.73,2.19,13.49-0.8,20.04c-1.38,3.01-4.76,5.59-7.25,7.94c-1.29-2.71-2.57-4.8-4.71-6.17c-3.26-2.09-6.56-1.69-9.69-0.07
			c-2.6,1.35-4.91,3.22-6.58,5.79c-2.1,3.22-4.2,6.41-5.84,9.9c-1.57,3.34-3.24,6.65-4.95,9.92c-0.89,1.7-1.85,3.37-2.98,4.91
			C399.66,179.84,398.59,181.37,396.51,181.36z"/>
		<path class="st1" d="M827.85,246.28c0.56-0.08,1.12,0.74,1.5,1.14c1.84,1.92,3.5,4.04,5.48,5.8c2.65,2.35,5.79,3.14,9.41,2.5
			c5.77-1.02,10.94-3.3,15.99-6.21c5.11-2.95,10.43-5.54,16.26-6.96c5.53-1.35,10.2,0.27,14.49,3.59c1.15,0.89,1.96,2.3,4.02,2.16
			c0.46,2.2-0.57,4.02-1.66,5.78c-1.05,1.7-2.58,2.8-4.56,3.32c-2.05,0.53-4.1,0.59-6.18,0.29c-4.11-0.59-8.22-1.17-12.33-1.77
			c-2.92-0.43-4.11,0.23-5.06,2.96c-1.32,3.83-1.18,7.56,0.73,11.21c1.21,2.32,3.02,3.73,5.65,3.61c3.55-0.15,7.09-0.55,10.64-0.79
			c2.66-0.18,5.33-0.48,7.99-0.38c6.47,0.25,10.9,3.49,13.04,9.63c0.73,2.09,1.36,4.28,1.59,6.47c0.45,4.27,0.73,8.58,0.81,12.88
			c0.1,5.74-2.89,9.47-8.16,11.49c-3.21,1.23-6.56,1.94-9.97,2.17c-10.56,0.73-21.07,0.28-31.46-1.82c-2.46-0.5-4.88-1.29-7.23-2.19
			c-5.65-2.17-9.75-6.08-12.48-11.47c-2.03-4.01-3.29-8.27-4.2-12.63c-1.4-6.69-2.27-13.46-2.82-20.26
			C828.8,260.26,828.28,253.18,827.85,246.28z"/>
		<path class="st4" d="M582.47,146.54c0.06-8.16-0.02-16.33,0.24-24.48c0.19-5.93,0.77-11.87,2.18-17.66
			c0.7-2.88,1.53-5.74,2.55-8.51c2.91-7.92,8.69-12.57,16.86-14.27c6.44-1.34,12.99-1.6,19.51-1.02
			c10.58,0.94,18.3,8.17,20.76,19.09c1.29,5.75,1.17,11.51,0,17.25c-0.29,1.43-0.87,2.84-1.54,4.15c-1.32,2.58-3.52,3.95-6.42,4.13
			c-2.85,0.18-5.64-0.12-8.35-1.05c-3.07-1.05-5.04-3.05-5.37-6.42c-0.12-1.18-0.22-2.37-0.4-3.54c-0.3-2.02-1.09-3.71-3.25-4.34
			c-2.33-0.68-4.43-0.28-6.16,1.46c-1.41,1.42-2.17,3.19-2.28,5.18c-0.22,3.74,0.14,7.43,1.21,11.02c1.12,3.75,3.65,6.05,7.59,6.61
			c2.2,0.31,4.42,0.55,6.64,0.73c6.01,0.5,9.94,3.8,11.28,9.62c0.74,3.22,0.99,6.45,0.11,9.7c-0.86,3.17-2.79,5.26-6.03,5.81
			c-2.03,0.34-4.12,0.28-6.19,0.38c-1.92,0.09-3.87-0.03-5.76,0.27c-3.19,0.5-4.75,2.05-5.14,5.25c-0.4,3.24-0.53,6.52,0.49,9.71
			c0.81,2.55,1.43,6.27,2.34,8.81c-1.33,0.32-2.03-1.26-2.45-2.05c-2.84-5.35-5.8-10.64-8.45-16.08c-2.15-4.41-4.65-8.56-7.68-12.38
			c-1.09-1.37-2.45-2.56-3.82-3.66C591.28,147.36,587.01,146.47,582.47,146.54z"/>
		<path class="st1" d="M481.02,291.54c-4.07,8-5.84,17.12-5.81,25.97c0.02,7.28,0.32,14.56,0.43,21.84
			c0.17,11.14,0.32,22.29,0.42,33.43c0.04,4.63-0.75,9.16-1.77,13.67c-2.72,12.06-10.43,18.94-22.27,21.57
			c-1.01,0.23-2.04,0.46-3.07,0.54c-4.41,0.37-7.86-1.23-10.01-5.21c-1.87-3.46-2.63-7.25-2.97-11.12
			c-0.24-2.66-0.35-5.34-0.33-8.01c0.13-14.71,0.32-33.2,0.86-48.38c2.57-1.79,4.42,0.24,5.61-1.98c1.67-3.13,3.19-6.35,4.55-9.63
			c3.62-8.75,6.99-17.59,11.5-25.95c1.77-3.29,3.74-6.41,6.65-8.79c2.74-2.24,5.77-3.8,9.34-1.81c1.14,0.63,2.12,1.57,3.1,2.46
			C478.24,291.04,479.51,291.56,481.02,291.54z"/>
		<path class="st1" d="M713.22,139.73c1.76-0.35,3.39-0.33,5.02-0.29c2.22,0.06,4.1,0.97,5.32,2.77c1.81,2.68,3.4,5.41,4.32,8.66
			c2,7.13,3.1,14.39,4.34,21.65c0.89,5.22,2.24,10.37,3.49,15.53c0.84,3.48,2.54,6.63,4.21,9.77c1.43,2.68,3.75,4.55,6.03,6.44
			c0.29,0.24,0.85,0.18,1.58,0.26c0.99,7.1,1.77,14.18,2.34,21.29c0.4,4.89,0.68,9.79,0.71,14.69c0.02,4-0.26,8.02-0.72,12
			c-0.27,2.33-0.95,4.67-1.78,6.87c-1.48,3.92-4.88,6.57-9.97,5.12c-1.42-0.41-2.87-0.81-4.21-1.42
			c-9.01-4.07-15.75-10.48-19.97-19.49c-2.86-6.1-4.64-12.53-5.84-19.12c-2.99-16.35-3.3-32.76-1.23-49.27
			c1.24-9.89,3.11-19.65,5.11-29.4C712.36,143.9,712.72,142,713.22,139.73z"/>
		<path class="st3" d="M396.62,180.79c2.26-0.29,3.04-0.95,4.07-2.36c1.13-1.54,2.09-3.22,2.98-4.91c1.71-3.27,3.38-6.58,4.95-9.92
			c1.64-3.49,3.75-6.68,5.84-9.9c1.67-2.57,3.98-4.43,6.58-5.79c3.13-1.63,6.42-2.03,9.69,0.07c2.14,1.37,4.18,2.76,5.17,5.56
			c-1.21,2.14-3.25,2.78-5.06,3.74c-1.17,0.62-2.41,1.1-3.52,1.6c-0.86,1.8-0.23,3.35,0.2,4.9c1.77,6.28,3.6,12.55,5.33,18.85
			c2.2,8.02,4.25,16.09,5.25,24.35c0.92,7.68,1.33,15.39-0.29,23.06c-1.52,7.19-5.65,12.29-12.2,15.5
			c-4.16,2.04-8.54,3.48-13.07,4.31c-9.2,1.7-14.47-1.57-16.97-10.7c-0.89-3.26-1.44-6.69-1.61-10.08
			c-0.49-10.09-0.33-20.19,0.64-30.27C395.13,193.2,395.92,186.71,396.62,180.79z"/>
		<path class="st4" d="M577.93,148.67c-2.97,1.07-5.49,1.73-7.91,3.41c-4.21,2.94-8.3,6.04-12.53,8.94
			c-3.99,2.74-8.07,5.33-12.14,7.96c-0.86,0.55-1.92,1.3-3.03,0.17c4.05-2.11,4.66-6.82,5.48-10.68c1.01-4.69,0.96-9.42,0.31-14.12
			c-0.26-1.85-1.01-3.73-1.93-5.38c-2-3.6-5.3-5.14-9.33-4.58c-6.48,0.9-11.66,4.04-15.26,9.6c-0.72,1.11-1.92,3.63-2.27,4.91
			c-0.93-0.05-1.46-1.82-1.93-2.67c-0.7-1.29-1.46-2.57-2.01-3.94c-1.22-3.05-3.21-5.61-5.15-8.19c-2.01-2.67-4.86-4.27-8.05-5.09
			c-1.08-0.28-2.32-0.07-3.47,0.04c-0.87,0.08-2.3,1.51-3.53,1.67c6.8-21.05,21.49-35.37,43.66-39.26
			c3.51-0.61,7.11-0.55,10.65,0.16c6.75,1.34,11.96,5.03,16.01,10.49c3.13,4.22,5.28,8.94,6.89,13.91
			C575.73,126.26,577.31,137.55,577.93,148.67z"/>
		<path class="st7" d="M546.95,324.08c-2.24-0.65-2.7-2.74-3.85-4.23c-1.44-1.86-2.54-3.98-3.94-5.87c-1.61-2.16-4.27-2.9-6.75-1.9
			c-2.07,0.83-3.95,1.95-5.55,3.6c-4.24,4.37-8.54,8.68-12.91,12.91c-1.58,1.53-3.4,2.84-5.21,4.11c-0.82,0.58-1.86,1.03-2.85,1.16
			c-3.02,0.42-5.76,0.18-8.02-2.5c-2.22-2.64-4.15-5.41-5.48-8.57c-2.24-5.32-4.62-10.23-6.56-15.66c-0.21-0.6-0.72-0.85-1.4-1.32
			c-0.05-3.04,1.18-7.63,3.17-10.83c1.78-2.86,4.41-4.37,7.75-4.54c6.62-0.35,11.92,2.01,15.46,7.79c2.54,4.14,3.12,9.31,3.6,14.05
			c0.23,2.28-0.36,4.88,1.98,5.61c1.05,0.33,1.43-1.13,1.63-1.67c0.94-2.5,1.82-5.03,2.61-7.58c3.03-9.79,6.01-19.6,9.85-29.12
			c2.17-5.38,4.55-10.66,7.56-15.64c1.93-3.19,4.1-6.19,6.8-8.79c5.16-4.99,11.3-5.5,17.85-3.87c2.27,0.56,3.98,2.1,4.82,4.3
			c0.63,1.65,1.11,3.39,1.38,5.14c2,12.98,0.17,25.46-5.07,37.47c-3.05,7-7.15,13.35-11.72,19.42
			C550.49,319.7,548.84,321.81,546.95,324.08z"/>
		<path class="st6" d="M577.71,307.57c1.43-0.41,2.17-1.39,2.78-2.53c1.79-3.31,4.49-4.7,7.14-7.28c0.53-0.52,1.04-1.07,1.63-1.51
			c3.28-2.51,6.05-1.6,8.52,1.26c0.47,0.55,0.76,1.27,1.08,1.94c1.96,4.15,3.72,8.34,4.91,12.81c1.33,4.99,1.05,11.09,4.96,14.48
			c0.27,0.23,0.82,0.65,1.53,0.97c-0.74,2.1-1.52,4.39-1.46,6.65c0.11,4.61-0.03,9.25,0.51,13.81c1.71,14.46,3.7,28.89,5.56,43.33
			c0.19,1.47,0.36,2.97,0.29,4.44c-0.21,4.73-2.7,7.77-7.28,8.92c-1.14,0.29-2.34,0.43-3.52,0.46c-5.56,0.13-10.96-0.88-16.18-2.74
			c-5.3-1.89-8.68-5.6-9.77-11.2c-0.34-1.74-0.62-3.52-0.7-5.29c-0.12-2.52-0.06-5.05-0.01-7.58
			C578.15,355.3,578.15,331.17,577.71,307.57z"/>
		<path class="st1" d="M624.47,352.42c1.68,0.27,3.32,1.51,5,2.06c5.81,1.9,11.39,0.63,16.92-1.31c5.78-2.02,10.8-5.54,16.24-8.22
			c2.51-1.24,4.98-2.68,7.63-3.51c2.38-0.75,4.98-0.65,7.45,0.12c0.56,0.17,1.21-0.26,2.14-0.13c0.09,1.16,0.17,2.89,0.16,3.92
			c-0.06,14.84,0.24,29.4,0.12,44.24c-0.04,4.75-0.4,9.49-1.52,14.13c-0.7,2.9-1.73,5.67-3.33,8.21c-3.05,4.86-7.39,7.6-13.17,7.9
			c-3.28,0.17-6.49-0.25-9.7-1c-4.76-1.11-8.46-3.68-10.98-7.73c-1.87-3.01-3.5-6.2-4.86-9.48c-3.31-7.98-5.15-16.4-7.01-24.8
			C627.81,369.01,626.15,360.59,624.47,352.42z"/>
		<path class="st4" d="M899.09,377.73c-2.4-9.54-6.78-17.71-15.69-22.77c-0.9-0.51-1.8-1.04-2.67-1.6
			c-8.34-5.37-17.55-7.91-27.38-8.2c-7.52-0.23-14.79,1.04-21.5,4.68c-7.5,4.08-12.25,10.27-13.8,18.67
			c-0.97,5.29-0.68,10.67,0.17,15.97c0.61,3.8,1.28,7.62,3.55,10.99c0.91-0.42,1.65-0.69,2.13-1.2c3.77-3.97,7.98-7.42,12.43-10.58
			c4.69-3.33,9.54-5.77,15.45-7.07c4.36-0.95,7.39,0.65,10.92,2.56c0.52,0.28,1.1,0.82,1.77,1.53c0.43,0.46,0.83,0.86,1.21,1.24
			c2.35,2.69,4.06,5.97,5.98,9.04c1.2,1.59,2.14,3.56,3.95,4.54c0.09,0.04,0.18,0.07,0.27,0.11c0.1,0.06,0.2,0.14,0.31,0.19
			c2.01,1.05,4.31,1.36,6.58,1.25c4.41,0.21,8.59-1.51,12.05-4.82C899.13,388.13,900.52,383.42,899.09,377.73z"/>
		<path class="st6" d="M794.23,414.76c4.99,3.28,9.75,7.62,13.52,12.24c4.68,5.74,6.68,12.2,4.74,19.53
			c-0.72,2.71-1.47,5.47-2.67,7.99c-4.64,9.77-13.07,14.94-25.22,12.94c-8.06-1.32-14.81-5.14-20.1-11.4
			c-5.58-6.62-9.03-14.22-10.4-22.79c-0.46-2.88-0.07-5.66,0.71-8.35c1.28-4.46,4.27-5.88,8.55-4.23c3.9,1.5,6.83,4.18,8.69,7.91
			c1.06,2.12,1.84,4.37,2.76,6.56c0.63,1.5,1.16,3.07,1.98,4.46c0.66,1.13,1.54,2.22,2.57,3.01c3.11,2.41,6.81,1.5,8.52-2.03
			c0.51-1.06,0.84-2.22,1.13-3.37c1-4.02,0.02-7.32-3.6-9.64c-1.62-1.04-3.21-2.14-4.79-3.25c-2.79-1.96-5.68-3.81-8.33-5.94
			c-10.27-8.23-15.4-18.96-15.34-32.14c0.01-1.48,0.3-3.54,0.91-5.37c0.97-0.43,1.23,0.06,1.67-0.03c7.2-1.45,9.33-0.71,13.39,6.12
			c0.45,0.76,0.78,1.6,1.07,2.44c1.76,5.18,3.53,10.35,5.2,15.56c0.78,2.43,2.08,4.54,3.28,6.76c1.87,3.45,5.05,4.38,8.4,5.11
			C792.4,417.2,793.49,416.41,794.23,414.76z"/>
		<path class="st4" d="M480.85,291.89c-1.74,0.2-2.61-0.85-3.6-1.75c-0.98-0.89-1.96-1.82-3.1-2.46c-3.57-1.99-6.6-0.43-9.34,1.81
			c-2.91,2.37-4.88,5.5-6.65,8.79c-4.5,8.36-7.87,17.21-11.5,25.95c-1.36,3.28-2.87,6.5-4.55,9.63c-1.19,2.23-3.05,3.97-5.51,5.35
			c-0.3-3.05-0.41-6.16-0.33-9.27c0.34-14.1,0.35-28.19-0.31-42.29c-0.17-3.56-0.24-7.1,0.66-10.62c1.14-4.41,3.61-7.75,7.49-10.06
			c4.29-2.56,9.01-3.81,13.94-4.15c3.4-0.24,6.44,0.85,8.85,3.38c0.92,0.97,1.8,1.98,2.79,2.87c1.72,1.55,3.68,1.91,5.73,0.69
			c1.4-0.83,2.71-1.8,4.05-2.74c3.15-2.22,6.2-4.6,9.46-6.65c5.16-3.24,10.79-4.86,16.95-4.17c3.65,0.41,6.89,1.73,9.59,4.24
			c2.73,2.54,4.27,5.65,4.35,9.42c0.06,2.83,0.05,5.64-1.01,8.34c-1.43,3.65-3.98,5.79-7.98,6.08c-3.44,0.25-6.81-0.14-10.16-0.84
			c-5.54-1.17-10.67-0.13-15.11,3.39C483.87,288.2,482.57,290.07,480.85,291.89z"/>
		<path class="st1" d="M384.13,178.72c1.79,0.28,2.38,1.69,2.68,3.15c0.32,1.59,0.53,3.24,0.51,4.85
			c-0.15,14.26-0.3,28.51-0.57,42.77c-0.11,6.09-0.75,12.14-2.47,18.04c-1.71,5.9-4.93,10.76-9.75,14.55
			c-1.63,1.28-3.32,2.52-5.1,3.57c-6.79,4.03-13.94,7.28-21.48,9.63c-1.84,0.57-3.72,1.06-5.62,1.33
			c-5.9,0.84-10.07-1.37-12.75-6.74c-2.01-4.03-2.29-9.17-3.09-14.05c1.52,0.01,2.61,1.31,3.74,1.62c1.83,0.51,3.76,1.52,5.51,1.28
			c2.87-0.39,5.81-1.26,8.4-2.57c5.44-2.77,8.97-7.57,11.95-12.73c0.47-0.81-0.2-1.83-0.09-2.85c2.99-1.55,3.9-5.95,4.7-9.52
			c0.71-1.29,1.6-1.47,1.89-2.38c1.32-4.2,2.62-8.42,3.71-12.69c1.78-6.98,3.76-13.9,5.99-20.75c2.06-6.31,5.21-11.85,11.1-15.43
			C383.72,179.58,383.88,179.08,384.13,178.72z"/>
		<path class="st6" d="M582.45,146.32c4.61-0.48,8.83,1.04,12.45,3.95c1.37,1.1,2.74,2.29,3.82,3.66c3.03,3.82,5.53,7.97,7.68,12.38
			c2.65,5.44,5.62,10.73,8.45,16.08c0.42,0.79,0.89,1.56,2.29,1.59c3.17,7.39,5.36,14.91,5.41,22.9c0.01,1.63-0.01,3.28-0.22,4.89
			c-0.56,4.17-2.64,6.36-6.77,7.15c-1.6,0.31-3.25,0.56-4.86,0.51c-3.86-0.12-7.71-0.39-11.56-0.71c-1.17-0.09-2.33-0.47-3.46-0.81
			c-4.14-1.24-7.02-3.89-8.25-8.04c-0.75-2.55-1.33-5.2-1.54-7.84c-1.17-15.1-2.23-30.22-3.28-45.33
			C582.41,153.61,582.47,149.85,582.45,146.32z"/>
		<path class="st6" d="M342.54,371.02c3.09-0.03,5.25,1.81,7.03,3.99c4.14,5.08,7.37,10.72,9.71,16.87
			c2.99,7.88,5.87,15.81,9.07,23.61c2.75,6.71,5.73,13.34,9.64,19.5c0.73,1.15,1.48,2.23,3.23,2.59
			c-0.15,6.36-2.93,11.68-7.11,16.29c-3.73,4.11-8.23,7.24-13.18,9.73c-0.79,0.4-1.63,0.72-2.47,0.99
			c-4.24,1.36-6.89,0.17-8.28-4.16c-0.85-2.65-1.25-5.48-1.61-8.26c-0.37-2.94-0.45-5.92-0.66-8.88
			c-0.73-10.36-1.41-20.72-2.2-31.08c-0.66-8.58-1.48-17.15-2.18-25.72C343.12,381.47,342.81,376.43,342.54,371.02z"/>
		<path class="st8" d="M356.15,240.55c0.2,0.98,0.4,2.06-0.07,2.87c-2.99,5.16-6.51,9.96-11.95,12.73c-2.58,1.31-5.52,2.18-8.4,2.57
			c-1.75,0.24-3.68-0.77-5.51-1.28c-1.13-0.31-2.22-0.74-3.67-1.12c-0.64-1.6-0.78-3.18-0.94-4.79c-1-10.65-1.01-21.33-0.62-32.01
			c0.17-4.59,0.06-9.19,0.35-13.78c0.13-2.06,0.4-4.14,0.84-6.16c0.77-3.53,2.81-6.16,6.06-7.81c3.62-1.84,7.5-2.83,11.51-3.13
			c4.25-0.31,6.27,1.61,6.57,5.96c0.11,1.62,0.01,3.26,0,4.89c-0.04,9.64-0.13,19.28-0.07,28.92c0.02,2.5,0.47,5.01,0.82,7.5
			c0.14,1.01,0.46,2.03,0.86,2.97C352.67,240.69,353.2,240.97,356.15,240.55z"/>
		<path class="st9" d="M686.92,365.93c0.89-0.22,1.35,0.74,1.41,1.59c0.33,4.12,0.36,8.29,1.04,12.35
			c0.71,4.23,0.38,8.56,1.46,12.74c0.18,0.71,0.18,1.47,0.23,2.21c0.45,7.87,1.96,15.54,4.63,22.94c0.89,2.47,2.42,4.74,3.85,6.99
			c1.35,2.13,3.72,2.87,5.96,3.64c0.63,0.22,1.47,0.02,2.17-0.17c4.08-1.12,7.67-3.16,10.73-6.06c2.8-2.66,5.46-5.47,8.22-8.17
			c1.3-1.27,1.17-3.26,1.65-5.37c4.52,1.37,9.71,4.42,13.32,7.56c3.72,3.25,5.88,7.36,6.72,12.25c0.98,5.66,0.44,11.27-0.3,16.88
			c-0.12,0.87-0.45,1.73-0.8,2.54c-0.82,1.96-2.31,3.14-4.46,3.12c-1.92-0.02-3.87-0.14-5.75-0.5c-2.03-0.4-4.05-1-5.98-1.75
			c-6.92-2.69-13.84-5.41-20.69-8.27c-2.46-1.02-4.79-2.38-7.08-3.75c-5.98-3.58-10-8.74-12.26-15.34
			c-2.09-6.11-2.91-12.44-3.39-18.82C686.72,390.66,686.71,378.24,686.92,365.93z"/>
		<path class="st10" d="M794.42,414.91c-0.58,1.9-2.02,2.28-3.56,1.95c-3.35-0.73-6.53-1.66-8.4-5.11c-1.2-2.21-2.51-4.33-3.28-6.76
			c-1.66-5.21-3.44-10.38-5.2-15.56c-0.28-0.84-0.62-1.68-1.07-2.44c-4.06-6.83-6.19-7.57-13.39-6.12
			c-0.43,0.09-0.87,0.18-1.71,0.26c1.3-7.69,6.07-11.86,13.73-12.38c4.53-0.31,8.9,0.49,13.08,2.15
			c13.77,5.5,22.54,15.53,26.33,29.82c0.6,2.24,0.66,4.71,0.53,7.05c-0.23,3.99-2.62,5.77-6.61,5.29
			c-4.78-0.58-8.35-2.89-10.43-7.31c-0.88-1.88-1.72-3.78-2.61-5.65c-0.97-2.03-2.6-3.19-4.81-3.54c-1.66-0.26-2.92,0.43-3.48,2.06
			c-0.91,2.66-0.95,5.27,1.05,7.53c1.08,1.22,2.22,2.4,3.45,3.46C790.06,411.36,792.18,412.99,794.42,414.91z"/>
		<path class="st8" d="M782.63,205.03c-3.71,0.01-7.14,1.12-10.61,1.62c-4.65,0.67-9.24,1.69-14.38,1.47
			c-0.3-2.16-0.95-4.71-1.07-7.08c-0.39-7.56-0.77-15.12-1.02-22.69c-0.07-2.05,0.11-4.17,0.57-6.16c0.6-2.63,2.31-3.57,5-3.21
			c0.15,0.02,0.3,0.03,0.44,0.07c7.06,2.26,13.45,5.56,17.86,11.79c2.38,3.37,3.44,7.24,3.51,11.32
			C782.97,196.32,782.81,200.48,782.63,205.03z"/>
		<path class="st8" d="M821.14,225.84c-0.76-0.31-1.58-0.97-2.08-1.81c-0.96-1.65-1.75-3.41-2.59-5.13
			c-2.19-4.48-5.7-7.87-9.41-11.01c-2.13-1.8-4.91-2.63-7.66-3.25c-1.57-0.36-3.15-0.64-5.07-0.96c-0.39-3.28-0.29-5.93,0.78-8.72
			c1.93-5,5.82-6.96,11-5.64c2.76,0.7,5.27,1.94,7.61,3.54c2.94,2.01,4.85,4.78,5.72,8.2c0.47,1.86,0.81,3.78,0.92,5.69
			C820.73,212.96,820.95,219.18,821.14,225.84z"/>
		<path class="st10" d="M384.19,178.7c0.04,0.55-0.47,0.88-0.82,1.09c-5.89,3.58-9.03,9.12-11.1,15.43
			c-2.24,6.85-4.21,13.77-5.99,20.75c-1.09,4.27-2.39,8.49-3.71,12.69c-0.29,0.91-1.09,1.67-1.94,2.57
			c0.19-12.39,0.64-24.86,1.18-37.32c0.08-1.76,0.46-3.53,0.9-5.24c0.57-2.22,1.81-4.15,3.7-5.42
			C371.58,179.78,377.56,177.94,384.19,178.7z"/>
	</g>
	<g>
		<g>
			<path class="st1" d="M414.96,349.06c-3,3.36-4.67,7.61-5.71,11.94c-1.14,4.77-1.7,9.7-2.23,14.56
				c-1.13,10.52-1.45,21.14-0.62,31.69c0.47,5.98,1.33,11.93,2.6,17.79c-0.02-0.09,0.89-0.39,0.87-0.5
				c-2.26-10.41-3.18-21.07-3.06-31.71c0.06-5.29,0.36-10.59,0.88-15.85c0.48-4.94,1.04-9.92,2.05-14.78
				c1.01-4.92,2.69-9.83,6.08-13.64C415.61,348.8,415.17,348.82,414.96,349.06L414.96,349.06z"/>
		</g>
	</g>
	<g>
		<g>
			<path class="st1" d="M407.71,390.35c-0.49-3.69-0.33-7.42,0.28-11.08c-0.29,0.17-0.58,0.33-0.87,0.5
				c0.04,6.28,0.27,12.56,0.7,18.82c-0.01-0.14,0.88-0.35,0.87-0.5c-0.43-6.26-0.67-12.54-0.7-18.82c0,0.17-0.84,0.31-0.87,0.5
				c-0.61,3.67-0.77,7.39-0.28,11.08C406.83,390.73,407.73,390.48,407.71,390.35L407.71,390.35z"/>
		</g>
	</g>
	<path class="st11" d="M887.7,381.3c-0.02-0.02-0.04-0.03-0.06-0.05"/>
	<path class="st11" d="M885.92,395.09c0.01,0-0.01,0.01-0.02,0.01"/>
	<g>
		<path class="st12" d="M212.47,172.26c0.82,1.04,1.72,1.96,2.67,2.8c0.84,0.75,1.73,1.44,2.64,2.06c0.89,0.61,1.79,1.17,2.71,1.68
			c0.84,0.47,1.71,0.9,2.57,1.32c0.67,0.33,1.34,0.63,2.02,0.92c0.48,0.2,0.97,0.38,1.46,0.55c0.56,0.2,1.13,0.38,1.69,0.57
			c0.14,0.05,0.27,0.08,0.41,0.12c0.57,0.14,1.14,0.27,1.7,0.41c0.1,0.02,0.2,0.06,0.29,0.12c0.14,0.1,0.16,0.27,0.03,0.4
			c-0.07,0.07-0.16,0.12-0.25,0.14c-0.18,0.04-0.37,0.04-0.56,0.08c-0.75,0.18-1.51,0.35-2.25,0.55c-0.92,0.24-1.81,0.58-2.71,0.94
			c-0.71,0.28-1.4,0.59-2.1,0.92c-0.79,0.37-1.57,0.77-2.34,1.18c-1.16,0.62-2.29,1.31-3.39,2.08c-1.16,0.82-2.27,1.74-3.32,2.77
			c-0.93,0.92-1.78,1.94-2.56,3.04c-0.77,1.08-1.44,2.24-2.02,3.48c-0.28,0.58-0.53,1.18-0.77,1.79c-0.27,0.68-0.53,1.37-0.77,2.07
			c-0.17,0.48-0.31,0.97-0.45,1.46c-0.17,0.6-0.33,1.2-0.49,1.8c-0.01,0.03-0.02,0.05-0.02,0.08c-0.14,0.7-0.3,1.39-0.43,2.09
			c-0.15,0.77-0.27,1.55-0.39,2.33c-0.14,0.89-0.23,1.79-0.32,2.69c-0.06,0.65-0.16,1.29-0.22,1.94c-0.05,0.52-0.07,1.04-0.12,1.55
			c-0.01,0.17-0.04,0.34-0.08,0.5c-0.03,0.12-0.09,0.25-0.15,0.34c-0.15,0.22-0.35,0.18-0.44-0.08c-0.05-0.14-0.07-0.31-0.09-0.47
			c-0.08-0.74-0.16-1.48-0.23-2.22c-0.02-0.23-0.03-0.47-0.05-0.71c-0.09-0.74-0.17-1.48-0.28-2.21c-0.15-0.96-0.31-1.91-0.48-2.86
			c-0.12-0.68-0.26-1.36-0.4-2.04c-0.12-0.57-0.24-1.14-0.38-1.7c-0.27-1.04-0.53-2.08-0.83-3.1c-0.44-1.51-0.98-2.97-1.62-4.37
			c-0.97-2.11-2.24-3.92-3.73-5.51c-1.24-1.33-2.58-2.49-3.99-3.54c-1.4-1.04-2.87-1.92-4.38-2.71c-1.33-0.69-2.69-1.29-4.09-1.76
			c-1.24-0.42-2.5-0.78-3.78-0.97c-0.43-0.06-0.86-0.17-1.3-0.25c-0.13-0.02-0.27-0.01-0.4-0.04c-0.1-0.02-0.2-0.06-0.28-0.13
			c-0.12-0.11-0.11-0.27,0.02-0.37c0.05-0.03,0.1-0.05,0.15-0.06c0.11-0.02,0.22-0.04,0.33-0.04c0.87-0.04,1.73-0.13,2.59-0.32
			c0.72-0.15,1.43-0.33,2.14-0.52c0.53-0.14,1.06-0.33,1.59-0.52c0.43-0.15,0.86-0.31,1.28-0.48c0.75-0.31,1.49-0.63,2.23-0.98
			c0.61-0.28,1.21-0.58,1.8-0.91c0.65-0.36,1.31-0.74,1.93-1.16c0.81-0.55,1.61-1.12,2.4-1.73c1.29-1,2.48-2.14,3.55-3.48
			c0.94-1.18,1.75-2.47,2.41-3.9c0.59-1.26,1.09-2.58,1.52-3.93c0.35-1.1,0.66-2.2,0.93-3.33c0.27-1.14,0.55-2.28,0.8-3.44
			c0.17-0.79,0.29-1.61,0.43-2.41c0.1-0.59,0.2-1.18,0.28-1.78c0.1-0.76,0.2-1.53,0.28-2.3c0.05-0.48,0.08-0.96,0.12-1.44
			c0.01-0.12,0.02-0.25,0.06-0.36c0.04-0.11,0.1-0.22,0.17-0.3c0.15-0.16,0.34-0.11,0.44,0.1c0.05,0.1,0.07,0.23,0.08,0.35
			c0.05,0.6,0.09,1.2,0.14,1.81c0.08,0.96,0.15,1.92,0.24,2.88c0.05,0.55,0.16,1.1,0.21,1.65c0.05,0.52,0.11,1.03,0.22,1.53
			c0.03,0.13,0.05,0.26,0.06,0.39c0.04,0.46,0.11,0.92,0.24,1.36c0.04,0.12,0.04,0.26,0.07,0.39c0.06,0.31,0.13,0.62,0.2,0.93
			c0.01,0.05,0.03,0.09,0.04,0.14c0.13,0.58,0.26,1.17,0.41,1.74c0.13,0.5,0.29,1,0.45,1.49c0.11,0.36,0.24,0.72,0.36,1.08
			c0.25,0.78,0.54,1.55,0.88,2.29c0.32,0.69,0.64,1.39,0.98,2.06c0.41,0.8,0.88,1.54,1.38,2.25
			C211.86,171.46,212.16,171.85,212.47,172.26z"/>
	</g>
	<g>
		<path class="st12" d="M239.09,198.51c0.38,0.54,0.8,1.02,1.23,1.46c0.39,0.39,0.8,0.75,1.22,1.07c0.41,0.32,0.83,0.61,1.25,0.87
			c0.39,0.24,0.79,0.47,1.19,0.69c0.31,0.17,0.62,0.33,0.93,0.48c0.22,0.11,0.45,0.2,0.67,0.28c0.26,0.1,0.52,0.2,0.78,0.3
			c0.06,0.02,0.13,0.04,0.19,0.06c0.26,0.07,0.53,0.14,0.79,0.22c0.05,0.01,0.09,0.03,0.13,0.06c0.07,0.05,0.07,0.14,0.02,0.21
			c-0.03,0.04-0.07,0.06-0.11,0.08c-0.09,0.02-0.17,0.02-0.26,0.04c-0.35,0.09-0.7,0.18-1.04,0.29c-0.42,0.13-0.84,0.3-1.25,0.49
			c-0.33,0.15-0.65,0.31-0.97,0.48c-0.36,0.19-0.72,0.4-1.08,0.61c-0.54,0.32-1.06,0.68-1.57,1.08c-0.54,0.43-1.05,0.91-1.53,1.44
			c-0.43,0.48-0.82,1.01-1.18,1.58c-0.35,0.56-0.66,1.17-0.93,1.81c-0.13,0.3-0.24,0.62-0.35,0.93c-0.13,0.35-0.24,0.71-0.36,1.08
			c-0.08,0.25-0.14,0.51-0.21,0.76c-0.08,0.31-0.15,0.63-0.23,0.94c0,0.01-0.01,0.03-0.01,0.04c-0.07,0.36-0.14,0.72-0.2,1.09
			c-0.07,0.4-0.13,0.81-0.18,1.21c-0.06,0.47-0.11,0.93-0.15,1.4c-0.03,0.34-0.07,0.67-0.1,1.01c-0.02,0.27-0.03,0.54-0.05,0.81
			c-0.01,0.09-0.02,0.18-0.04,0.26c-0.02,0.06-0.04,0.13-0.07,0.18c-0.07,0.11-0.16,0.09-0.21-0.04c-0.02-0.08-0.03-0.16-0.04-0.24
			c-0.04-0.39-0.07-0.77-0.11-1.16c-0.01-0.12-0.01-0.25-0.03-0.37c-0.04-0.38-0.08-0.77-0.13-1.15c-0.07-0.5-0.14-0.99-0.22-1.49
			c-0.06-0.36-0.12-0.71-0.19-1.06c-0.05-0.3-0.11-0.59-0.18-0.88c-0.12-0.54-0.24-1.08-0.38-1.62c-0.2-0.79-0.45-1.54-0.75-2.27
			c-0.45-1.1-1.03-2.04-1.72-2.87c-0.57-0.69-1.19-1.3-1.84-1.84c-0.65-0.54-1.33-1-2.03-1.41c-0.62-0.36-1.25-0.67-1.89-0.92
			c-0.57-0.22-1.16-0.41-1.75-0.51c-0.2-0.03-0.4-0.09-0.6-0.13c-0.06-0.01-0.12-0.01-0.18-0.02c-0.04-0.01-0.09-0.03-0.13-0.07
			c-0.06-0.06-0.05-0.14,0.01-0.19c0.02-0.02,0.05-0.03,0.07-0.03c0.05-0.01,0.1-0.02,0.15-0.02c0.4-0.02,0.8-0.07,1.2-0.17
			c0.33-0.08,0.66-0.17,0.99-0.27c0.25-0.07,0.49-0.17,0.73-0.27c0.2-0.08,0.4-0.16,0.59-0.25c0.34-0.16,0.69-0.33,1.03-0.51
			c0.28-0.15,0.56-0.3,0.83-0.47c0.3-0.19,0.6-0.38,0.89-0.6c0.38-0.28,0.75-0.58,1.11-0.9c0.6-0.52,1.15-1.12,1.64-1.81
			c0.43-0.61,0.81-1.29,1.11-2.03c0.27-0.66,0.5-1.34,0.7-2.05c0.16-0.57,0.31-1.15,0.43-1.73c0.13-0.6,0.26-1.19,0.37-1.79
			c0.08-0.41,0.13-0.84,0.2-1.25c0.05-0.31,0.09-0.62,0.13-0.93c0.05-0.4,0.09-0.8,0.13-1.2c0.02-0.25,0.04-0.5,0.06-0.75
			c0.01-0.06,0.01-0.13,0.03-0.19c0.02-0.06,0.04-0.11,0.08-0.15c0.07-0.08,0.16-0.06,0.2,0.05c0.02,0.05,0.03,0.12,0.04,0.18
			c0.02,0.31,0.04,0.63,0.06,0.94c0.03,0.5,0.07,1,0.11,1.5c0.02,0.29,0.07,0.57,0.1,0.86c0.02,0.27,0.05,0.54,0.1,0.8
			c0.01,0.07,0.02,0.13,0.03,0.2c0.02,0.24,0.05,0.48,0.11,0.71c0.02,0.06,0.02,0.13,0.03,0.2c0.03,0.16,0.06,0.32,0.09,0.48
			c0,0.02,0.01,0.05,0.02,0.07c0.06,0.3,0.12,0.61,0.19,0.91c0.06,0.26,0.13,0.52,0.21,0.78c0.05,0.19,0.11,0.37,0.17,0.56
			c0.12,0.41,0.25,0.81,0.41,1.19c0.15,0.36,0.29,0.72,0.45,1.07c0.19,0.42,0.41,0.8,0.64,1.17
			C238.81,198.1,238.95,198.3,239.09,198.51z"/>
	</g>
	<g>
		<path class="st12" d="M195.44,231.02c0.32,0.4,0.66,0.75,1.02,1.08c0.32,0.29,0.66,0.55,1.01,0.79c0.34,0.23,0.69,0.45,1.04,0.65
			c0.32,0.18,0.66,0.34,0.99,0.51c0.26,0.13,0.52,0.24,0.78,0.36c0.18,0.08,0.37,0.14,0.56,0.21c0.22,0.08,0.43,0.15,0.65,0.22
			c0.05,0.02,0.1,0.03,0.16,0.04c0.22,0.05,0.44,0.1,0.65,0.16c0.04,0.01,0.08,0.02,0.11,0.05c0.06,0.04,0.06,0.1,0.01,0.15
			c-0.03,0.03-0.06,0.05-0.09,0.06c-0.07,0.02-0.14,0.02-0.21,0.03c-0.29,0.07-0.58,0.14-0.87,0.21c-0.35,0.09-0.7,0.22-1.04,0.36
			c-0.27,0.11-0.54,0.23-0.81,0.35c-0.3,0.14-0.6,0.3-0.9,0.45c-0.45,0.24-0.88,0.5-1.3,0.8c-0.45,0.32-0.87,0.67-1.27,1.07
			c-0.36,0.35-0.68,0.74-0.98,1.17c-0.29,0.42-0.55,0.86-0.78,1.34c-0.11,0.22-0.2,0.45-0.29,0.69c-0.1,0.26-0.2,0.53-0.3,0.8
			c-0.06,0.18-0.12,0.37-0.17,0.56c-0.07,0.23-0.13,0.46-0.19,0.69c0,0.01-0.01,0.02-0.01,0.03c-0.06,0.27-0.11,0.53-0.17,0.8
			c-0.06,0.3-0.1,0.6-0.15,0.9c-0.05,0.34-0.09,0.69-0.12,1.04c-0.02,0.25-0.06,0.5-0.08,0.75c-0.02,0.2-0.03,0.4-0.04,0.6
			c-0.01,0.06-0.02,0.13-0.03,0.19c-0.01,0.05-0.03,0.1-0.06,0.13c-0.06,0.08-0.14,0.07-0.17-0.03c-0.02-0.06-0.03-0.12-0.03-0.18
			c-0.03-0.28-0.06-0.57-0.09-0.86c-0.01-0.09-0.01-0.18-0.02-0.27c-0.03-0.28-0.07-0.57-0.11-0.85c-0.06-0.37-0.12-0.73-0.18-1.1
			c-0.05-0.26-0.1-0.52-0.16-0.78c-0.05-0.22-0.09-0.44-0.15-0.65c-0.1-0.4-0.2-0.8-0.32-1.19c-0.17-0.58-0.38-1.14-0.62-1.68
			c-0.37-0.81-0.86-1.51-1.43-2.12c-0.48-0.51-0.99-0.96-1.53-1.36c-0.54-0.4-1.1-0.74-1.69-1.04c-0.51-0.27-1.04-0.49-1.57-0.68
			c-0.48-0.16-0.96-0.3-1.45-0.37c-0.17-0.02-0.33-0.07-0.5-0.1c-0.05-0.01-0.1-0.01-0.15-0.02c-0.04-0.01-0.08-0.02-0.11-0.05
			c-0.05-0.04-0.04-0.1,0.01-0.14c0.02-0.01,0.04-0.02,0.06-0.02c0.04-0.01,0.08-0.01,0.13-0.02c0.33-0.02,0.66-0.05,0.99-0.12
			c0.28-0.06,0.55-0.13,0.82-0.2c0.21-0.05,0.41-0.13,0.61-0.2c0.16-0.06,0.33-0.12,0.49-0.19c0.29-0.12,0.57-0.24,0.86-0.38
			c0.23-0.11,0.46-0.22,0.69-0.35c0.25-0.14,0.5-0.28,0.74-0.45c0.31-0.21,0.62-0.43,0.92-0.67c0.5-0.38,0.95-0.82,1.36-1.34
			c0.36-0.45,0.67-0.95,0.93-1.5c0.23-0.49,0.42-0.99,0.58-1.51c0.13-0.42,0.25-0.85,0.36-1.28c0.1-0.44,0.21-0.88,0.31-1.32
			c0.07-0.31,0.11-0.62,0.16-0.93c0.04-0.23,0.08-0.46,0.11-0.69c0.04-0.29,0.08-0.59,0.11-0.89c0.02-0.18,0.03-0.37,0.05-0.55
			c0-0.05,0.01-0.1,0.02-0.14c0.01-0.04,0.04-0.08,0.06-0.11c0.06-0.06,0.13-0.04,0.17,0.04c0.02,0.04,0.03,0.09,0.03,0.13
			c0.02,0.23,0.03,0.46,0.05,0.7c0.03,0.37,0.06,0.74,0.09,1.11c0.02,0.21,0.06,0.42,0.08,0.64c0.02,0.2,0.04,0.4,0.09,0.59
			c0.01,0.05,0.02,0.1,0.02,0.15c0.02,0.18,0.04,0.35,0.09,0.52c0.01,0.05,0.02,0.1,0.03,0.15c0.02,0.12,0.05,0.24,0.08,0.36
			c0,0.02,0.01,0.03,0.01,0.05c0.05,0.22,0.1,0.45,0.16,0.67c0.05,0.19,0.11,0.38,0.17,0.57c0.04,0.14,0.09,0.28,0.14,0.41
			c0.1,0.3,0.21,0.6,0.34,0.88c0.12,0.27,0.25,0.53,0.38,0.79c0.16,0.31,0.34,0.59,0.53,0.87
			C195.2,230.72,195.32,230.87,195.44,231.02z"/>
	</g>
	<g>
		<path class="st12" d="M927.88,359.93c0.87,1.1,1.82,2.07,2.81,2.96c0.89,0.79,1.82,1.51,2.78,2.17c0.93,0.64,1.89,1.23,2.86,1.77
			c0.89,0.49,1.8,0.94,2.71,1.39c0.7,0.35,1.41,0.67,2.13,0.97c0.51,0.22,1.02,0.4,1.54,0.58c0.59,0.21,1.19,0.41,1.79,0.6
			c0.14,0.05,0.29,0.09,0.43,0.12c0.6,0.15,1.2,0.29,1.8,0.44c0.1,0.03,0.21,0.07,0.3,0.13c0.15,0.11,0.17,0.28,0.04,0.42
			c-0.07,0.07-0.17,0.13-0.26,0.15c-0.19,0.04-0.4,0.04-0.59,0.09c-0.79,0.19-1.59,0.37-2.38,0.58c-0.97,0.25-1.91,0.62-2.85,0.99
			c-0.74,0.3-1.48,0.62-2.21,0.97c-0.83,0.39-1.65,0.81-2.47,1.25c-1.23,0.65-2.42,1.38-3.57,2.2c-1.23,0.87-2.4,1.84-3.5,2.93
			c-0.98,0.97-1.88,2.04-2.7,3.2c-0.81,1.14-1.51,2.37-2.13,3.67c-0.29,0.61-0.55,1.25-0.81,1.88c-0.29,0.72-0.56,1.45-0.81,2.18
			c-0.18,0.5-0.32,1.02-0.47,1.54c-0.18,0.63-0.35,1.27-0.52,1.9c-0.01,0.03-0.02,0.06-0.02,0.08c-0.15,0.73-0.31,1.47-0.45,2.2
			c-0.16,0.82-0.29,1.64-0.41,2.46c-0.14,0.94-0.24,1.89-0.34,2.84c-0.07,0.68-0.16,1.36-0.23,2.05c-0.05,0.54-0.08,1.09-0.12,1.64
			c-0.01,0.18-0.04,0.36-0.09,0.53c-0.03,0.13-0.09,0.26-0.16,0.36c-0.16,0.23-0.37,0.19-0.47-0.09c-0.05-0.15-0.07-0.33-0.09-0.49
			c-0.08-0.78-0.16-1.56-0.24-2.35c-0.02-0.25-0.03-0.5-0.06-0.74c-0.09-0.78-0.18-1.56-0.3-2.33c-0.15-1.01-0.33-2.01-0.51-3.02
			c-0.13-0.72-0.28-1.44-0.43-2.15c-0.13-0.6-0.25-1.2-0.4-1.79c-0.28-1.1-0.56-2.19-0.87-3.27c-0.46-1.59-1.03-3.13-1.71-4.61
			c-1.02-2.22-2.36-4.13-3.93-5.81c-1.31-1.4-2.72-2.63-4.21-3.73c-1.48-1.1-3.03-2.03-4.63-2.86c-1.41-0.73-2.84-1.36-4.31-1.86
			c-1.31-0.45-2.64-0.83-3.99-1.03c-0.46-0.07-0.91-0.18-1.37-0.27c-0.14-0.03-0.28-0.01-0.42-0.05c-0.1-0.02-0.21-0.06-0.29-0.14
			c-0.13-0.12-0.11-0.29,0.03-0.39c0.05-0.04,0.11-0.06,0.16-0.07c0.11-0.02,0.23-0.04,0.34-0.04c0.92-0.04,1.82-0.14,2.73-0.33
			c0.76-0.16,1.51-0.35,2.26-0.55c0.56-0.15,1.12-0.35,1.67-0.54c0.45-0.16,0.9-0.32,1.35-0.51c0.79-0.33,1.57-0.67,2.35-1.03
			c0.64-0.3,1.27-0.62,1.89-0.96c0.69-0.38,1.38-0.78,2.04-1.22c0.86-0.58,1.7-1.18,2.53-1.83c1.36-1.05,2.62-2.26,3.74-3.67
			c0.99-1.24,1.84-2.61,2.54-4.11c0.62-1.33,1.15-2.72,1.6-4.15c0.37-1.16,0.7-2.32,0.98-3.51c0.29-1.21,0.59-2.41,0.85-3.63
			c0.18-0.84,0.31-1.69,0.45-2.54c0.11-0.62,0.21-1.25,0.3-1.88c0.11-0.81,0.21-1.62,0.3-2.43c0.06-0.5,0.08-1.01,0.13-1.52
			c0.01-0.13,0.03-0.26,0.07-0.38c0.04-0.12,0.1-0.23,0.18-0.31c0.16-0.17,0.36-0.12,0.46,0.11c0.05,0.11,0.08,0.24,0.09,0.37
			c0.05,0.63,0.09,1.27,0.14,1.91c0.08,1.01,0.15,2.03,0.25,3.04c0.06,0.58,0.16,1.16,0.22,1.74c0.05,0.55,0.11,1.09,0.23,1.62
			c0.03,0.13,0.05,0.27,0.06,0.41c0.05,0.49,0.12,0.97,0.25,1.43c0.04,0.13,0.05,0.27,0.07,0.41c0.07,0.33,0.14,0.66,0.21,0.98
			c0.01,0.05,0.03,0.09,0.04,0.14c0.14,0.61,0.27,1.23,0.43,1.84c0.14,0.53,0.31,1.05,0.47,1.57c0.12,0.38,0.26,0.76,0.38,1.14
			c0.27,0.83,0.57,1.63,0.93,2.41c0.33,0.73,0.67,1.46,1.04,2.18c0.43,0.84,0.93,1.63,1.46,2.38
			C927.24,359.09,927.56,359.5,927.88,359.93z"/>
	</g>
	<g>
		<path class="st12" d="M883.51,339.31c0.4,0.57,0.84,1.08,1.3,1.54c0.41,0.41,0.84,0.79,1.29,1.13c0.43,0.33,0.87,0.64,1.32,0.92
			c0.41,0.26,0.83,0.49,1.25,0.72c0.33,0.18,0.65,0.35,0.98,0.51c0.23,0.11,0.47,0.21,0.71,0.3c0.27,0.11,0.55,0.21,0.83,0.31
			c0.07,0.02,0.13,0.05,0.2,0.06c0.28,0.08,0.55,0.15,0.83,0.23c0.05,0.01,0.1,0.03,0.14,0.07c0.07,0.06,0.08,0.15,0.02,0.22
			c-0.03,0.04-0.08,0.07-0.12,0.08c-0.09,0.02-0.18,0.02-0.27,0.05c-0.37,0.1-0.73,0.19-1.1,0.3c-0.45,0.13-0.89,0.32-1.32,0.52
			c-0.34,0.15-0.69,0.32-1.02,0.5c-0.38,0.21-0.76,0.42-1.14,0.65c-0.57,0.34-1.12,0.72-1.65,1.14c-0.57,0.45-1.11,0.96-1.62,1.52
			c-0.45,0.5-0.87,1.06-1.25,1.67c-0.37,0.59-0.7,1.23-0.99,1.91c-0.13,0.32-0.26,0.65-0.37,0.98c-0.13,0.37-0.26,0.75-0.38,1.13
			c-0.08,0.26-0.15,0.53-0.22,0.8c-0.08,0.33-0.16,0.66-0.24,0.99c0,0.01-0.01,0.03-0.01,0.04c-0.07,0.38-0.14,0.76-0.21,1.15
			c-0.07,0.42-0.13,0.85-0.19,1.28c-0.07,0.49-0.11,0.98-0.16,1.48c-0.03,0.36-0.08,0.71-0.11,1.06c-0.02,0.28-0.04,0.57-0.06,0.85
			c-0.01,0.09-0.02,0.19-0.04,0.27c-0.02,0.07-0.04,0.14-0.08,0.19c-0.07,0.12-0.17,0.1-0.22-0.05c-0.02-0.08-0.03-0.17-0.04-0.26
			c-0.04-0.41-0.08-0.81-0.11-1.22c-0.01-0.13-0.01-0.26-0.03-0.39c-0.04-0.41-0.08-0.81-0.14-1.21c-0.07-0.53-0.15-1.05-0.23-1.57
			c-0.06-0.38-0.13-0.75-0.2-1.12c-0.06-0.31-0.12-0.62-0.19-0.93c-0.13-0.57-0.26-1.14-0.4-1.7c-0.21-0.83-0.48-1.63-0.79-2.4
			c-0.47-1.16-1.09-2.15-1.82-3.02c-0.6-0.73-1.26-1.37-1.95-1.94c-0.69-0.57-1.4-1.06-2.14-1.49c-0.65-0.38-1.31-0.71-1.99-0.97
			c-0.61-0.23-1.22-0.43-1.85-0.53c-0.21-0.03-0.42-0.09-0.63-0.14c-0.06-0.01-0.13-0.01-0.19-0.02c-0.05-0.01-0.1-0.03-0.13-0.07
			c-0.06-0.06-0.05-0.15,0.01-0.2c0.02-0.02,0.05-0.03,0.07-0.03c0.05-0.01,0.11-0.02,0.16-0.02c0.42-0.02,0.84-0.07,1.26-0.17
			c0.35-0.08,0.7-0.18,1.04-0.29c0.26-0.08,0.52-0.18,0.77-0.28c0.21-0.08,0.42-0.17,0.62-0.27c0.36-0.17,0.73-0.35,1.09-0.54
			c0.3-0.16,0.59-0.32,0.88-0.5c0.32-0.2,0.64-0.4,0.94-0.64c0.4-0.3,0.79-0.62,1.17-0.95c0.63-0.55,1.21-1.18,1.73-1.91
			c0.46-0.65,0.85-1.36,1.18-2.14c0.29-0.69,0.53-1.41,0.74-2.16c0.17-0.6,0.32-1.21,0.45-1.83c0.13-0.63,0.27-1.25,0.39-1.89
			c0.08-0.44,0.14-0.88,0.21-1.32c0.05-0.33,0.1-0.65,0.14-0.98c0.05-0.42,0.1-0.84,0.14-1.26c0.03-0.26,0.04-0.53,0.06-0.79
			c0.01-0.07,0.01-0.14,0.03-0.2c0.02-0.06,0.05-0.12,0.08-0.16c0.07-0.09,0.17-0.06,0.21,0.05c0.02,0.06,0.04,0.13,0.04,0.19
			c0.02,0.33,0.04,0.66,0.07,0.99c0.04,0.53,0.07,1.05,0.11,1.58c0.03,0.3,0.08,0.6,0.1,0.91c0.02,0.28,0.05,0.57,0.11,0.84
			c0.01,0.07,0.02,0.14,0.03,0.21c0.02,0.25,0.06,0.5,0.12,0.74c0.02,0.07,0.02,0.14,0.03,0.21c0.03,0.17,0.06,0.34,0.1,0.51
			c0,0.03,0.01,0.05,0.02,0.07c0.07,0.32,0.12,0.64,0.2,0.96c0.06,0.28,0.14,0.55,0.22,0.82c0.06,0.2,0.12,0.39,0.18,0.59
			c0.12,0.43,0.26,0.85,0.43,1.26c0.15,0.38,0.31,0.76,0.48,1.13c0.2,0.44,0.43,0.85,0.67,1.24
			C883.21,338.87,883.36,339.09,883.51,339.31z"/>
	</g>
	<g>
		<path class="st12" d="M890.71,405.51c0.33,0.42,0.7,0.8,1.08,1.14c0.34,0.31,0.7,0.58,1.07,0.84c0.36,0.25,0.73,0.47,1.1,0.68
			c0.34,0.19,0.69,0.36,1.04,0.54c0.27,0.13,0.54,0.26,0.82,0.37c0.19,0.08,0.39,0.15,0.59,0.22c0.23,0.08,0.46,0.16,0.69,0.23
			c0.05,0.02,0.11,0.03,0.17,0.05c0.23,0.06,0.46,0.11,0.69,0.17c0.04,0.01,0.08,0.03,0.12,0.05c0.06,0.04,0.06,0.11,0.01,0.16
			c-0.03,0.03-0.06,0.05-0.1,0.06c-0.07,0.02-0.15,0.02-0.23,0.03c-0.31,0.07-0.61,0.14-0.91,0.22c-0.37,0.1-0.74,0.24-1.1,0.38
			c-0.29,0.11-0.57,0.24-0.85,0.37c-0.32,0.15-0.63,0.31-0.95,0.48c-0.47,0.25-0.93,0.53-1.37,0.84c-0.47,0.33-0.92,0.71-1.34,1.13
			c-0.38,0.37-0.72,0.79-1.04,1.23c-0.31,0.44-0.58,0.91-0.82,1.41c-0.11,0.24-0.21,0.48-0.31,0.73c-0.11,0.28-0.21,0.56-0.31,0.84
			c-0.07,0.19-0.12,0.39-0.18,0.59c-0.07,0.24-0.13,0.49-0.2,0.73c0,0.01-0.01,0.02-0.01,0.03c-0.06,0.28-0.12,0.56-0.17,0.85
			c-0.06,0.31-0.11,0.63-0.16,0.95c-0.06,0.36-0.09,0.73-0.13,1.09c-0.03,0.26-0.06,0.52-0.09,0.79c-0.02,0.21-0.03,0.42-0.05,0.63
			c-0.01,0.07-0.02,0.14-0.03,0.2c-0.01,0.05-0.03,0.1-0.06,0.14c-0.06,0.09-0.14,0.07-0.18-0.03c-0.02-0.06-0.03-0.13-0.04-0.19
			c-0.03-0.3-0.06-0.6-0.09-0.9c-0.01-0.1-0.01-0.19-0.02-0.29c-0.04-0.3-0.07-0.6-0.12-0.9c-0.06-0.39-0.13-0.78-0.19-1.16
			c-0.05-0.28-0.11-0.55-0.16-0.83c-0.05-0.23-0.1-0.46-0.15-0.69c-0.11-0.42-0.21-0.84-0.34-1.26c-0.18-0.61-0.4-1.2-0.66-1.77
			c-0.39-0.86-0.91-1.59-1.51-2.24c-0.5-0.54-1.04-1.01-1.62-1.44c-0.57-0.42-1.17-0.78-1.78-1.1c-0.54-0.28-1.09-0.52-1.66-0.72
			c-0.5-0.17-1.01-0.32-1.53-0.39c-0.18-0.03-0.35-0.07-0.53-0.1c-0.05-0.01-0.11-0.01-0.16-0.02c-0.04-0.01-0.08-0.02-0.11-0.05
			c-0.05-0.05-0.04-0.11,0.01-0.15c0.02-0.01,0.04-0.02,0.06-0.03c0.04-0.01,0.09-0.01,0.13-0.02c0.35-0.02,0.7-0.05,1.05-0.13
			c0.29-0.06,0.58-0.14,0.87-0.21c0.22-0.06,0.43-0.13,0.64-0.21c0.17-0.06,0.35-0.12,0.52-0.2c0.3-0.13,0.6-0.26,0.9-0.4
			c0.25-0.11,0.49-0.24,0.73-0.37c0.27-0.15,0.53-0.3,0.78-0.47c0.33-0.22,0.65-0.46,0.97-0.7c0.52-0.41,1.01-0.87,1.44-1.41
			c0.38-0.48,0.71-1,0.98-1.58c0.24-0.51,0.44-1.05,0.61-1.6c0.14-0.44,0.27-0.89,0.38-1.35c0.11-0.46,0.22-0.93,0.33-1.4
			c0.07-0.32,0.12-0.65,0.17-0.98c0.04-0.24,0.08-0.48,0.12-0.72c0.04-0.31,0.08-0.62,0.11-0.93c0.02-0.19,0.03-0.39,0.05-0.58
			c0-0.05,0.01-0.1,0.03-0.15c0.02-0.04,0.04-0.09,0.07-0.12c0.06-0.06,0.14-0.05,0.18,0.04c0.02,0.04,0.03,0.09,0.03,0.14
			c0.02,0.24,0.04,0.49,0.05,0.73c0.03,0.39,0.06,0.78,0.1,1.17c0.02,0.22,0.06,0.45,0.08,0.67c0.02,0.21,0.04,0.42,0.09,0.62
			c0.01,0.05,0.02,0.11,0.02,0.16c0.02,0.19,0.05,0.37,0.1,0.55c0.01,0.05,0.02,0.11,0.03,0.16c0.03,0.13,0.05,0.25,0.08,0.38
			c0,0.02,0.01,0.04,0.01,0.05c0.05,0.24,0.1,0.47,0.16,0.71c0.05,0.2,0.12,0.4,0.18,0.61c0.05,0.15,0.1,0.29,0.15,0.44
			c0.1,0.32,0.22,0.63,0.36,0.93c0.13,0.28,0.26,0.56,0.4,0.84c0.16,0.32,0.36,0.63,0.56,0.91
			C890.47,405.19,890.59,405.35,890.71,405.51z"/>
	</g>
</g>
</svg>
