<?xml version="1.0" encoding="utf-8"?>
<!-- Generator: Adobe Illustrator 26.4.1, SVG Export Plug-In . SVG Version: 6.00 Build 0)  -->
<svg version="1.1" id="World_Suicide_Prevention_Day"
	 xmlns="http://www.w3.org/2000/svg" xmlns:xlink="http://www.w3.org/1999/xlink" x="0px" y="0px" viewBox="0 0 1080 425"
	 style="enable-background:new 0 0 1080 425;" xml:space="preserve">
<style type="text/css">
	.swspd_st1{fill:#504383;}
	.swspd_st2{fill:#3C2E72;}
	.swspd_st3{fill:#514483;}
	.swspd_st4{fill:#3C2F72;}
	.swspd_st5{fill:#514583;}
	.swspd_st6{fill:#3B2E72;}
	.swspd_st7{fill:#3D2F73;}
	.swspd_st8{fill:#524584;}
	.swspd_st9{fill:#524583;}
	.swspd_st10{fill:#403274;}
	.swspd_st11{fill:#FEFE5E;}
</style>
<g>
	<g>
		<path style="clip-path:url(#SVGID_00000114785464965745125740000012991848471188529281_);fill:#F0F7FA;" d="M264.41,407.49
			c-4.26-0.17-8.47-0.99-12.59-2.06c-4.48-1.2-8.89-2.68-13.04-4.77c-10.58-5.37-19.18-13.75-28.18-21.32
			c-5-4.22-9.89-8.26-15.15-12.03c-4.4-3.13-9.15-5.72-13.92-8.22c-11.55-5.77-24.32-8.99-37.16-10.03
			c-12.02-0.76-24.05,0.45-36.07,0.53c-4.8,0.05-9.63-0.11-14.34-1.06c-2.26-0.39-4.49-1.02-6.51-2.16c-2.81-1.3-4.98-3.6-7.02-5.87
			c-2.23-2.55-3.51-5.87-4.44-9.08c-0.89-3.55-0.86-7.3,0.2-10.81c1.7-4.75,4.33-9.1,7.14-13.27c3.42-5.08,7.81-9.57,11.67-14.29
			c2.53-3.15,4.74-6.48,6.59-10.03c2.78-5.12,4.17-10.65,2.91-16.42c-1.71-8.03-7.11-14.71-12.6-20.55
			c-4.24-4.42-8.67-8.92-11.3-14.52c-1.14-2.87-2.02-5.98-1.55-9.08c0.45-4.32,2.71-8.26,5.87-11.19c8-7.63,17.96-12.71,27.82-17.49
			c8.07-3.89,16.79-6.06,25.37-8.48c5.49-1.74,11.48-3.07,16.23-6.45c8.34-6.27,10.25-14.71,7.42-24.39
			c-2.37-8.22-5.99-16.7-3.51-25.34c2.52-9.04,8.91-15.48,16.54-20.56c6.72-4.54,14.1-8.03,21.7-10.81c7.95-2.82,16.1-5.2,24.46-6.4
			c11.15-1.8,22.51-1.69,33.73-0.74c7.83,0.65,15.56,2.11,23.33,3.28c13.21,1.83,26.48,3.14,39.81,3.27
			c8.46-0.02,16.9-0.79,25.23-2.27c1.77-0.3,3.52-0.63,5.28-0.97c2.23-0.73,4.45-1.45,6.68-2.18c14.6-4.51,28.82-10.43,43.81-13.54
			c12.38-2.29,25.03-3.28,37.61-2.72c9.38,0.47,18.66,2.18,27.73,4.59c14.94,3.71,29.32,10.77,44.93,10.79
			c9.96,0.17,19.59-2.83,28.69-6.67c14.28-5.99,27.2-14.65,39.73-23.65c11.02-7.74,22-15.58,33.63-22.39
			c5.61-3.27,11.39-6.3,17.51-8.51c8.13-2.99,16.66-4.8,25.18-6.28c11.07-1.89,22.27-3.27,33.51-2.89
			c14.58,0.37,29.04,2.36,43.56,3.5c22.76,1.83,45.61,1.65,68.42,1.76c10.94,0.05,21.89,1.29,32.53,3.86
			c10.95,2.62,21.78,6.11,31.62,11.64c14.16,7.85,26.63,18.32,39.01,28.66c3.82,3.17,7.66,6.32,11.85,8.99
			c7.36,4.78,14.97,8.76,22.52,13.17c11.01,6.6,22.32,13,31.77,21.79c3.09,2.83,6,5.88,8.27,9.42c7.34,11.41,10.39,24.79,9.44,38.28
			c-0.44,7.14-1.79,14.18-3.52,21.11c-1.4,5.59-2.6,11.26-2.88,17.04c-1.09,12.83,2.03,25.67,7.61,37.19
			c4.32,8.98,9.57,17.53,12.96,26.95c3.19,8.58,4.43,18.09,2.17,27.05c-3.89,14.83-15.21,26.55-28.17,34.17
			c-22.39,13.46-47.88,21.05-73.69,24.36c-20.14,2.71-40.66,2.71-60.75-0.51c-12.5-1.85-24.74-5.27-36.4-10.13
			c-11.9-4.72-23.23-10.82-33.7-18.18c-5.99-4.24-11.79-8.89-17.53-13.42c-4.01-3.13-8.15-6.33-13-8.04
			c-6.68-2.48-13.71-3.91-20.79-4.68c-6.84-0.72-13.73-1.03-20.58-0.43c-5.7,0.56-11.44,1.89-16.94,3.38
			c-10.89,2.86-21.53,6.55-32.32,9.74c-8.12,2.28-16.43,4.13-24.88,4.64c-11.11,0.82-22.23-0.23-33.33-0.67
			c-9.05-0.35-18.35-0.47-27.15,1.97c-10.12,2.7-19.93,6.57-29.16,11.51c-15.43,8.11-30.01,17.39-44.73,26.67
			c-7.13,4.57-14.41,8.89-21.86,12.93c-7.27,3.99-14.67,7.86-22.64,10.28c-5.09,1.6-10.24,2.99-15.47,4.02
			c-6.56,1.36-13.29,1.63-19.97,1.49c-14.92-0.24-29.89-2.57-44.76-0.31c-16.85,2.31-33.49,6.3-49.42,12.28
			c-16.37,5.83-32.15,15.56-49.96,15.56C265.09,407.5,264.75,407.5,264.41,407.49z"/>
	</g>
	<g>
		<path class="swspd_st1" d="M841.91,254.59c0.23,1.36,0.52,3.1,0.63,4.46c0.63,8.12-0.01,16.2-1.12,24.24
			c-0.66,4.75-1.64,9.47-2.71,14.15c-0.87,3.83-2.38,7.47-4.4,10.87c-3.47,5.81-8.38,9.79-14.97,11.45
			c-2.81,0.71-5.7,1.21-8.59,1.41c-6.84,0.47-13.67-0.09-20.45-1.05c-4.01-0.56-8.02-1.19-11.97-2.02
			c-2.46-0.52-4.89-1.32-7.23-2.25c-4.56-1.83-7.76-5.14-9.76-9.61c-1.77-3.97-2.66-8.17-3.21-12.45
			c-1.11-8.56-1.11-17.17-0.99-25.78c0.17-11.65,1.03-23.27,1.91-34.88c0.13-1.64,0.57-3.71,1.11-5.69c0.69-0.5,0.91-0.14,1.16-0.39
			c2.51-2.49,5.14-4.82,7.85-7.09c5.1-4.29,10.48-7.86,17.38-8.35c3.82-1.4,7.5-0.21,11.04,0.94c5.49,1.79,9.44,5.85,12.82,10.27
			c3.77,4.92,6.23,10.62,8.76,16.28c2.05,4.6,4.53,9.02,7.05,13.38c0.85,1.47,2.37,2.61,3.72,3.73c0.86,0.71,1.98,1.27,3.17,0.99
			C836.04,256.51,839,255.34,841.91,254.59z M790.51,238.26c-1.07,1.62-1.62,3.43-1.89,5.32c-0.44,3-0.96,6-1.13,9.02
			c-0.29,5.3-0.42,10.61-0.46,15.91c-0.01,1.61,0.39,3.26,0.85,4.82c0.67,2.25,2.28,3.54,4.64,3.94c2.32,0.39,4.54,0.07,6.71-0.69
			c9.97-3.52,13.02-14.24,10.98-21.17c-1.87-6.36-5.49-11.62-10.55-15.87c-1.14-0.96-2.5-1.73-3.86-2.36
			C794.1,236.39,792.36,236.31,790.51,238.26z"/>
		<path class="swspd_st2" d="M204.69,148.18c-0.03-1.26-0.01-2.97,0.02-4.23c0.15-5.19,0.31-10.39,0.55-15.58
			c0.08-1.63,0.32-3.28,0.66-4.88c0.79-3.76,3.2-6.13,6.92-6.67c7.47-1.08,14.71-0.3,21.16,4.02c5.5,3.67,7.74,8.82,6.5,15.42
			c-0.61,3.27-1.74,6.34-3.08,9.36c-1.44,3.24-3,6.43-4.31,9.72c-0.69,1.74-1.18,3.63-1.35,5.5c-0.32,3.52,1.6,6.09,4.94,7.17
			c1.11,0.36,2.07,0.13,2.72-0.75c0.82-1.11,1.57-2.3,2.19-3.54c1.09-2.14,1.99-4.39,3.11-6.51c0.7-1.33,1.57-2.61,2.53-3.77
			c1.32-1.59,3.08-2.08,5.13-1.67c5.4,1.09,9.65,3.86,12.29,8.72c1.44,2.66,2.44,5.55,3.67,8.33c0.61,1.38,1.14,2.83,1.96,4.09
			c1.03,1.58,2.9,1.32,3.48-0.46c0.42-1.3,0.63-2.71,0.7-4.09c0.26-5.22-0.51-10.37-1.13-15.52c-0.54-4.53-1.22-9.04-1.72-13.57
			c-0.22-2.01-0.3-4.05-0.22-6.07c0.17-4.54,2.43-7.7,6.77-9.08c2.15-0.68,4.44-1.07,6.69-1.27c4.19-0.37,8.35,0.18,12.49,0.77
			c1,0.14,1.98,0.43,2.95,0.71c4.92,1.43,7.68,4.76,8.25,9.8c0.25,2.26,0.21,4.56,0.18,6.83c-0.25,18.5-0.63,37-0.78,55.5
			c-0.09,11.02,0.17,22.05,0.23,33.08c0.03,5.99-0.57,12.11-3.64,17.81c-0.87-0.28-1.26-0.84-1.49-1.36
			c-1.21-2.63-2.49-5.25-3.46-7.97c-2.78-7.84-5.16-15.8-8.7-23.39c-2.2-4.72-4.52-9.28-7.55-13.5c-3.13-4.35-6.72-8.15-11.79-10.34
			c-2.46-1.06-4.94-1.7-7.58-2.13c-3.91-0.65-7.73-0.9-11.6,0.04c-0.72,0.18-1.51,0.14-2.26,0.15c-3.03,0.02-6.07,0.05-9.1,0
			c-3.83-0.05-7.03-1.6-9.89-4.1c-3.8-3.32-6.33-7.5-8.42-11.99c-1.76-3.77-3.33-7.62-5.02-11.42c-0.51-1.15-1.05-2.31-1.7-3.39
			C213.26,153.44,209.96,149.89,204.69,148.18z"/>
		<path class="swspd_st1" d="M204.7,148.09c5.36,1.36,8.56,5.36,11.29,9.85c0.65,1.08,1.19,2.23,1.7,3.39c1.69,3.8,3.26,7.65,5.02,11.42
			c2.09,4.48,4.62,8.66,8.42,11.99c2.86,2.51,6.06,4.05,9.89,4.1c3.03,0.04,6.07,0.01,9.1,0c0.76,0,1.54,0.03,2.26-0.15
			c3.87-0.94,7.69-0.69,11.6-0.04c2.65,0.44,5.13,1.07,7.58,2.13c5.07,2.2,8.66,5.99,11.79,10.34c3.03,4.21,5.35,8.78,7.55,13.5
			c3.54,7.59,5.92,15.55,8.7,23.39c0.97,2.72,2.25,5.34,3.46,7.97c0.24,0.52,0.82,0.88,1.51,1.36c-2.23,6.24-7.09,9.28-13.47,9.81
			c-7.77,0.65-14.48-1.78-19.7-7.8c-3.11-3.58-5.49-7.6-7.38-11.91c-1.68-3.82-3.13-7.75-4.69-11.62c-0.62-1.53-1.23-3.06-1.93-4.54
			c-0.32-0.67-0.79-1.3-1.32-1.83c-0.49-0.49-1.21-0.52-1.68,0.04c-0.49,0.57-0.92,1.22-1.21,1.9c-0.79,1.87-1.44,3.79-2.24,5.65
			c-0.95,2.21-1.9,4.42-3.04,6.53c-0.78,1.43-1.77,2.79-2.86,4.01c-3.3,3.71-7.54,5.18-12.35,4.23
			c-12.3-2.45-25.34-10.41-28.23-28.06c-0.49-2.98-0.72-6.05-0.68-9.07C204,185.93,204.32,167.18,204.7,148.09z"/>
		<path class="swspd_st2" d="M319.48,246.33c-1.83-2.64-2.93-6.12-3.93-9.11c-2.96-8.83-4.45-17.93-4.78-27.23
			c-0.38-10.67,0.13-21.28,2.49-31.73c0.9-3.96,2.07-7.85,3.85-11.5c1-2.04,2.09-4.06,3.39-5.93c6.08-8.76,14.69-12.04,25.06-11.16
			c8.87,0.75,15.42,5.26,19.96,12.83c3.17,5.28,4.99,11.07,6.24,17.05c2.17,10.35,2.68,20.85,2.4,31.39
			c-0.14,5.19-0.76,10.66-1.56,16.08c-1.92-0.08-3.4-0.46-4.73-1.08c-3.17-1.46-6.64-1.28-9.93-1.99c-1.25-0.27-2.69,0.53-4.05,0.56
			c-5.82,0.13-10.66,3.02-15.33,5.88c-3.71,2.27-7.14,5.13-10.18,8.34c-1.3,1.37-2.65,2.71-4.02,4.01
			C322.89,244.11,321.54,245.9,319.48,246.33z M338.61,215.8c5.53,2.51,9.61,1.04,12.05-4.39c0.51-1.14,0.95-2.35,1.21-3.58
			c0.74-3.47,1.03-7,0.76-10.55c-0.19-2.53-0.74-4.99-2.02-7.24c-1.18-2.07-2.85-3.6-5.19-4.1c-4.5-0.95-8.87,0.36-11.67,4.39
			c-1.32,1.9-2.18,4.02-2.26,6.34c-0.07,2.26-0.11,4.57,0.21,6.8C332.39,208.22,333.98,212.56,338.61,215.8z"/>
		<path class="swspd_st2" d="M139.56,238.22c-0.13-1.13-0.31-2.25-0.37-3.38c-0.21-4.3-0.37-8.6-0.56-12.9
			c-0.16-3.57,0.17-7.09,1.13-10.53c2.08-7.46,6.84-11.97,14.63-12.96c1.99-0.25,4.06-0.37,6.05-0.14
			c9.71,1.13,18.76,4.24,26.86,9.77c11.04,7.54,17.7,17.93,19.56,31.21c1.18,8.44,1.17,16.91-0.07,25.36
			c-0.39,2.64-1.11,5.2-2.32,7.6c-2.06,4.09-5.36,6.37-9.96,6.44c-2.27,0.04-4.58-0.08-6.79-0.51c-3.1-0.6-6.12-1.56-9.18-2.37
			c-1.08-0.28-2.16-0.56-3.12-0.81c-1.15,0.87-0.98,1.93-0.92,2.91c0.22,3.79,0.5,7.58,0.46,11.65c-0.6,0.06-1.01-0.09-1.19-0.39
			c-1-1.6-2.03-3.19-2.9-4.87c-4.33-8.42-8.44-16.92-11.57-25.89c-1.4-4.03-2.95-8.11-5.68-11.49c-1.89-2.34-3.96-4.6-6.21-6.59
			C145.23,238.39,142.41,238.05,139.56,238.22z M182.69,253.81c0.74,0.15,1.47,0.4,2.21,0.43c2.44,0.09,3.79-0.82,4.62-3.08
			c0.26-0.7,0.44-1.46,0.49-2.2c0.32-4.51-0.43-8.83-2.72-12.76c-0.87-1.49-2.03-2.96-3.39-3.99c-4.31-3.25-9.57-1.37-11.05,3.8
			c-0.21,0.72-0.31,1.48-0.38,2.23C171.96,244.19,174.51,251.13,182.69,253.81z"/>
		<path class="swspd_st3" d="M513.99,238.44c1.82,2.1,2.56,5.14,2.97,7.72c0.7,4.37,1.33,8.78,1.44,13.19c0.33,13.68,0.2,27.36-0.72,41.01
			c-0.25,3.78-0.8,7.56-1.49,11.28c-0.41,2.21-1.23,4.38-2.11,6.47c-1.22,2.9-3.34,5.05-6.24,6.35c-2.43,1.09-4.84,2.19-7.31,3.17
			c-1.16,0.46-2.43,0.74-3.67,0.91c-1.41,0.19-2.5-0.56-2.78-2c-0.26-1.35-0.35-2.76-0.36-4.14c-0.02-6.46,0.08-12.92,0.01-19.38
			c-0.06-5.06,0.02-10.14-0.91-15.15c-0.23-1.24-0.51-2.49-0.97-3.65c-0.69-1.72-1.92-2.37-3.64-1.87c-4.13,1.19-7.3,3.45-8.32,7.95
			c-0.99,4.34-1.38,8.76-1.53,13.19c-0.3,8.61-0.5,17.22-0.71,25.82c-0.15,5.93-3.06,10.04-8.34,12.47
			c-2.29,1.06-4.68,1.95-7.11,2.65c-5.84,1.67-8.55-0.07-9.67-6.12c-0.37-1.99-0.68-4.01-0.74-6.03
			c-0.43-13.68-0.35-27.35,0.66-41.3c4.62-1.04,8.31-2.89,11.66-5.45c1.5-1.14,2.88-2.46,4.43-3.53c3.79-2.62,6.87-6.01,9.83-9.42
			c3.56-4.09,7.28-8.03,10.83-12.12c1.49-1.72,3.23-3.21,4.8-4.86c4.48-4.67,9.56-8.59,14.93-12.15c1.37-0.91,2.68-1.91,4.06-2.78
			C513.71,240.23,513.84,239.2,513.99,238.44z"/>
		<path class="swspd_st4" d="M246.45,350.81c-0.81-2.11-1.77-4.17-2.4-6.34c-1.37-4.72-2.53-9.5-3.85-14.24c-0.57-2.06-1.25-4.1-2.02-6.1
			c-0.4-1.04-1.06-2-1.72-2.9c-0.25-0.33-0.9-0.6-1.29-0.52c-0.37,0.07-0.88,0.61-0.92,0.99c-0.21,1.87-0.4,3.76-0.38,5.64
			c0.03,2.52,0.25,5.04,0.08,7.89c-0.88-0.13-1.68-0.46-1.98-1.06c-2.77-5.4-5.71-10.74-8.09-16.32c-2-4.68-4.46-9.05-7.16-13.31
			c-1.03-1.62-2.28-3.01-3.96-3.97c-0.14-1-0.38-1.99-0.42-2.99c-0.38-8.99-0.75-17.97-1.07-26.96c-0.08-2.4-0.03-4.81,0.07-7.22
			c0.1-2.43,0.71-4.77,1.81-6.94c1.75-3.46,4.56-5.3,8.52-5.33c2.72-0.02,5.3,0.62,7.75,1.66c10.75,4.54,20.29,10.88,28.32,19.4
			c3.68,3.9,6.65,8.29,8.48,13.39c0.86,2.4,1.43,4.85,1.58,7.4c0.31,5.46,0.31,10.9-0.89,16.26c-0.41,1.84-1.03,3.67-1.82,5.37
			c-1.49,3.23-4.08,5.09-7.67,5.44c-1.12,0.11-2.24,0.22-3.6,0.35c0.07,0.86-0.04,1.63,0.21,2.25c0.46,1.17,1.06,2.3,1.72,3.37
			c1.85,3.02,3.78,6,5.64,9.02c1.66,2.7,3.28,5.41,4.87,8.15c2.61,4.49,4.04,9.27,3.1,14.86c-2.06,0.54-3.61-0.06-5.21-0.29
			c-5.83-0.84-11-3.29-15.99-6.23C247.62,351.24,247.02,351.06,246.45,350.81z M235.8,290.08c1.6,2.66,4.03,4.11,7.02,4.6
			c2.56,0.42,3.98-0.58,4.16-3.09c0.28-3.86-0.48-7.54-2.77-10.75c-1.67-2.34-3.99-3.82-6.79-4.47c-1.77-0.41-2.95,0.39-3.35,2.14
			c-0.17,0.73-0.29,1.5-0.27,2.24C233.88,283.78,234.11,286.79,235.8,290.08z"/>
		<path class="swspd_st5" d="M912.09,115.77c0.32,4.1-0.47,8.78-1.77,12.64c-0.16,0.48-0.4,0.93-0.65,1.37c-1.5,2.64-3.4,3.66-6.32,2.93
			c-2.06-0.51-4.07-1.38-6-2.29c-1.59-0.76-3.04-1.82-4.55-2.74c-0.86-0.53-1.7-1.1-2.6-1.58c-2.92-1.54-4.94-0.3-5.03,3.03
			c-0.05,1.62,0.51,3.05,1.66,4.1c1.3,1.19,2.71,2.3,4.22,3.19c1.85,1.09,3.86,1.9,5.78,2.88c1.24,0.63,2.47,1.29,3.64,2.04
			c2.26,1.44,3.61,3.49,3.96,6.18c0.57,4.35,0.09,8.62-1.39,12.72c-1.12,3.12-3.18,4-6.34,2.92c-1.91-0.65-3.76-1.5-5.61-2.32
			c-1.39-0.61-2.73-1.34-4.12-1.95c-1.79-0.78-2.55-0.48-3.36,1.16c-0.99,2.04-1.07,4.15-0.51,6.3c0.55,2.12,1.83,3.6,4.03,4.11
			c1.48,0.34,2.98,0.58,4.46,0.94c2.33,0.57,4.71,1.04,6.96,1.85c4.13,1.47,6.65,4.54,7.73,8.74c1.18,4.61,1.17,9.3,0.52,13.97
			c-0.43,3.09-2.16,4.69-5.35,4.95c-2.13,0.17-4.33,0.13-6.43-0.21c-7.28-1.19-14.27-3.42-21.17-6c-8.12-3.03-12.18-9.02-13.1-17.48
			c-0.62-5.7-0.75-11.39-0.27-17.08c1.13-13.25,2.31-26.51,3.57-39.75c0.44-4.66,1.43-9.79,2.54-14.69
			c2.27-0.25,3.79,0.29,5.55,0.23c6.29-0.21,12.52,0.17,18.68,1.53c6.82,1.51,13.11,4.24,18.86,8.19
			C910.45,116.18,911.15,115.87,912.09,115.77z"/>
		<path class="swspd_st6" d="M841.91,254.66c-2.96,1.07-5.86,1.86-8.79,2.54c-1.19,0.28-2.31-0.28-3.17-0.99
			c-1.35-1.12-2.87-2.26-3.72-3.73c-2.53-4.36-5-8.79-7.05-13.38c-2.53-5.66-4.99-11.36-8.76-16.28
			c-3.38-4.42-7.33-8.48-12.82-10.27c-3.54-1.15-7.22-2.34-11.04-0.94c-6.9,0.49-12.28,4.06-17.38,8.35
			c-2.7,2.28-5.34,4.61-7.85,7.09c-0.25,0.25-0.66,0.33-1.25,0.52c-0.04-2.48,0.1-5.01,0.39-7.52c1.37-11.82,2.92-23.62,6.05-35.14
			c0.86-3.17,1.89-6.32,3.18-9.33c0.98-2.3,2.32-4.51,3.82-6.52c2.32-3.11,5.59-4.67,9.5-4.78c0.13,0,0.25-0.01,0.38,0
			c9.46,0.6,18.19,3.12,25.28,9.81c3.81,3.59,6.89,7.76,9.65,12.17c4.86,7.75,8.69,16.01,12.03,24.51
			c4.96,12.64,8.79,25.61,10.99,39.03C841.6,251.31,841.76,252.82,841.91,254.66z"/>
		<path class="swspd_st2" d="M598.55,218.49c0.25-5.22,1.57-10.24,2.99-15.22c1.85-6.48,4.43-12.66,8.22-18.28
			c4.49-6.68,10.17-11.96,17.91-14.64c2.13-0.74,4.39-1.27,6.63-1.51c5.59-0.6,10.26,1.38,13.65,5.86c1.51,2,2.73,4.27,3.77,6.55
			c2.06,4.53,3.05,9.38,3.73,14.28c1.73,12.47,1.88,24.98,1.01,37.52c-0.1,1.52-0.23,3.03-0.68,4.93c-0.96,1.16-1.7,1.88-2.2,2.73
			c-2.98,5.05-6.98,9.22-11.13,13.3c-2.7,2.65-6.15,3.27-9.59,4c-0.59,0.13-1.28,0.03-1.87-0.15c-2.92-0.88-5.69-1.99-7.83-4.35
			c-1.72-1.89-3.13-3.94-4.23-6.23c-2.73-5.69-5.45-11.38-8.17-17.07c-1.43-3-3.44-5.58-5.83-7.84
			C603.09,220.65,601.12,219.05,598.55,218.49z M635.84,227.23c0.93-4.23,1.29-8.5,0.69-12.8c-0.19-1.36-0.54-2.74-1.1-3.99
			c-1.34-3.02-3.53-4.1-6.74-3.48c-0.86,0.17-1.71,0.46-2.51,0.81c-2.38,1.03-4.28,2.68-5.76,4.79c-4.46,6.35-4.63,13.16-2.06,20.23
			c0.25,0.7,0.69,1.35,1.14,1.96c2.44,3.36,6.41,4.24,10.07,2.27c1.84-0.99,3.28-2.42,4.19-4.26
			C634.54,231.19,635.07,229.49,635.84,227.23z"/>
		<path class="swspd_st2" d="M659.39,230.37c0.18-6.96,0.3-13.92,0.55-20.87c0.19-5.31,0.5-10.62,0.86-15.93c0.39-5.7,1.27-11.32,3-16.78
			c0.92-2.91,1.99-5.78,3.82-8.23c1.35-1.81,2.82-3.62,4.56-5.03c4.18-3.4,9.47-3.15,13.54,0.39c2.36,2.05,3.88,4.65,4.77,7.62
			c0.36,1.21,0.61,2.45,0.94,3.8c0.31-0.2,0.69-0.32,0.85-0.57c2.18-3.44,5.46-5.18,9.31-6c4.3-0.92,8.55-0.7,12.76,0.56
			c2.66,0.8,4.71,2.37,6.22,4.7c1.53,2.36,2.59,4.92,3.34,7.62c1.57,5.66,2.17,11.46,2.09,17.29c-0.11,7.97-0.54,15.94-0.91,23.91
			c-0.32,6.7-0.74,13.4-1.14,20.1c-0.28,4.8-0.59,9.6-1.23,14.65c-0.57-0.04-0.93-0.3-1-0.62c-0.81-3.68-1.58-7.37-2.36-11.06
			c-2.18-10.32-6.07-19.96-11.12-29.22c-3.31-6.08-8.44-9.34-14.99-10.29c-6.49-0.94-12.31,1.32-17.1,5.6
			c-4.31,3.86-8.45,7.95-11.76,12.8C663.01,226.85,661.86,229.26,659.39,230.37z"/>
		<path class="swspd_st4" d="M274.66,357.65c-1.65-3.77-2.14-7.82-2.48-11.84c-0.58-7.07-1.16-14.15-1.33-21.24
			c-0.26-11.02-0.24-22.04-0.21-33.07c0.01-2.9,0.43-5.81,0.83-8.69c0.22-1.62,0.65-3.23,1.19-4.78c1.73-4.93,4.56-6.93,9.76-6.66
			c2.9,0.15,5.8,0.62,8.66,1.13c6.64,1.19,13.01,3.29,19.12,6.14c2.53,1.18,4.93,2.59,7.04,4.46c2.5,2.22,3.96,4.89,3.76,8.34
			c-0.12,2.15,0,4.32-0.23,6.45c-0.2,1.87-0.59,3.76-1.14,5.56c-1.17,3.83-3.87,5.93-7.87,5.97c-2.26,0.03-4.54-0.31-6.77-0.71
			c-1.99-0.36-3.91-1.04-5.87-1.56c-0.73-0.19-1.47-0.42-2.22-0.49c-1.85-0.17-3.12,0.81-3.58,2.67c-0.62,2.5,0.17,4.47,2.44,5.82
			c2.22,1.33,4.72,1.78,7.23,2.17c1.75,0.27,3.51,0.48,5.26,0.78c0.99,0.17,1.98,0.42,2.94,0.73c2.35,0.76,3.88,2.32,4.44,4.76
			c0.92,4.03,0.86,8.07-0.31,12.03c-0.87,2.98-2.86,4.34-6,4.2c-2.02-0.09-4.03-0.43-6.03-0.74c-1.63-0.25-3.23-0.66-4.85-0.94
			c-1.87-0.32-2.9,0.32-3.42,2.12c-0.59,2.04-0.43,4.01,0.67,6.37c-3.6,3.34-7.51,5.6-11.52,7.69
			C281.19,355.89,278.08,357.22,274.66,357.65z"/>
		<path class="swspd_st3" d="M697.62,96.18c-0.96,10.6-2.86,21.03-6.01,31.21c-1.05,3.39-2.44,6.65-4.23,9.72
			c-3.06,5.23-7.42,8.88-13.2,10.8c-6.29,2.09-12.78,2.98-19.37,3.33c-0.88,0.05-1.76-0.1-2.65-0.16c-5.71-0.4-9.31-3.47-11.17-8.77
			c-1.4-3.98-2-8.11-2.19-12.28c-0.45-9.86-0.17-19.72,0.38-29.58c0.2-3.53,0.4-7.07,0.98-10.95c2.97-1.3,5.55-2.3,8.17-3.19
			c5.24-1.78,10.46-3.71,16.16-3.21c-0.09,3.54-0.19,7.07-0.28,10.61c-0.09,3.54-0.25,7.09-0.22,10.63
			c0.01,1.63,0.26,3.28,0.61,4.88c0.42,1.93,1.96,2.61,3.77,1.85c1.11-0.47,1.89-1.31,2.3-2.41c0.58-1.53,1.24-3.08,1.52-4.68
			c0.87-5.11,1.58-10.25,2.33-15.38c0.24-1.63,0.39-3.27,0.99-5.19c2.09,0.16,3.85,0.42,5.44,1.1c5.72,2.42,10.93,5.6,14.79,10.62
			C696.24,95.81,696.87,96.06,697.62,96.18z"/>
		<path class="swspd_st3" d="M445.57,286.19c-2.73,3.12-6.5,4.24-10.3,5.23c-2.57,0.67-5.22,0.99-7.81,1.59c-3.05,0.71-4.84,2.9-4.99,5.89
			c-0.11,2.07,0.77,3.19,2.8,3.23c1.37,0.02,2.79-0.14,4.12-0.47c2.33-0.58,4.61-1.37,6.92-2.02c1.46-0.41,2.94-0.84,4.43-1.01
			c2.26-0.25,3.74,0.76,4.13,2.98c0.84,4.84,0.45,9.6-1.62,14.12c-1.1,2.41-3.05,4.04-5.52,4.95c-2.01,0.75-4.08,1.37-6.13,2
			c-1.33,0.4-2.7,0.68-4.04,1.06c-3.38,0.98-5.36,4.13-4.75,7.51c0.41,2.27,1.96,3.27,4.12,2.5c1.67-0.59,3.27-1.37,4.88-2.1
			c2.08-0.94,4.12-1.96,6.22-2.84c1.28-0.53,2.62-0.96,3.98-1.25c3.95-0.82,6.35,0.6,7.5,4.48c1.06,3.58,1.03,7.27,0.56,10.92
			c-0.25,1.95-1.46,3.55-2.98,4.72c-1.9,1.46-3.87,2.9-6,3.96c-3.05,1.53-6.22,2.83-9.42,4.03c-5.69,2.13-11.45,4.08-17.43,5.26
			c-1.6,0.32-3.26,0.48-4.89,0.48c-3.36,0-5.76-1.64-7.2-4.68c-1.26-2.67-1.88-5.53-2.13-8.43c-0.39-4.54-0.77-9.09-0.82-13.65
			c-0.1-9.88-0.05-19.76,0.09-29.64c0.06-4.55,0.48-10.09,1.08-15.02c1.41-1.03,2.57-0.57,3.52-1.37c2.93-2.44,6.18-4.4,9.57-6.03
			c4.67-2.24,9.56-3.69,14.95-3.36c4.83,0.3,9.11,1.56,12.93,4.55C442.62,284.79,443.83,286.01,445.57,286.19z"/>
		<path class="swspd_st3" d="M622.97,97.86c7.9,2.46,12.37,7.82,12.8,16.01c0.8,15.05-3.95,28.19-14.29,39.19
			c-2.33,2.48-4.95,4.73-7.68,6.78c-7.14,5.37-15.04,9.37-23.45,12.33c-3.97,1.4-8.05,2.19-12.31,1.63
			c-4.89-0.64-8.45-3.19-10.85-7.42c-1.33-2.34-2.19-4.87-2.31-7.57c-0.28-6.12,0.31-12.15,2.32-17.98
			c1.13-3.27,2.78-6.23,5.27-8.69c2.41-2.39,5.33-3.82,8.53-4.77c0.36-0.11,0.75-0.15,1.12-0.19c3.61-0.47,5.53,0.64,6.75,4.03
			c0.47,1.31,0.72,2.69,1.08,4.03c0.26,0.98,0.44,1.99,0.81,2.92c0.86,2.19,2.25,2.85,4.53,2.11c0.95-0.31,1.86-0.8,2.71-1.34
			c1.63-1.04,2.87-2.48,3.91-4.09c2.61-4.06,3.56-8.63,3.92-13.35c0.15-2-0.76-3.15-2.7-3.53c-1.35-0.27-2.77-0.39-4.14-0.3
			c-2.78,0.19-5.54,0.62-8.31,0.87c-4.92,0.45-10.1,0.75-14.96-1.42c3.38-2.17,7.17-3.08,11.09-2.83c3.01,0.19,6.05-0.26,9.03,0.68
			c1.31,0.42,2.74,0.07,4.04-0.61c3.69-1.92,7.46-3.65,10.73-6.35c3.2-2.64,6.75-4.86,10.12-7.29
			C621.75,99.99,622.98,99.4,622.97,97.86z"/>
		<path class="swspd_st3" d="M855.71,107.74c1.97,5.1,2.74,10.88,3.6,16.24c1.65,10.31,0.06,20.41-1.91,30.49
			c-0.78,3.98-1.8,7.9-3.43,11.61c-0.91,2.07-1.99,4.1-3.26,5.97c-3.09,4.55-7.54,6.57-13,6.42c-2.92-0.08-5.78-0.62-8.58-1.45
			c-6.44-1.9-12.65-4.39-18.75-7.19c-0.92-0.42-1.78-0.95-2.67-1.44c-4.59-2.55-7.34-6.46-8.51-11.53
			c-1.11-4.85-1.31-9.78-0.99-14.71c0.53-8.07,1.41-16.52,2.42-24.86c0.68-0.07,0.85,0.52,1.16,0.74c3.08,2.14,5.94,4.61,9.43,6.12
			c1.17,0.51,2.32,0.86,3.62,0.84c2.01-0.03,3.97-0.46,6.03-0.1c-0.11,2.97-0.37,6.1,0.26,8.72c0.67,2.78,2.1,4.07,4.93,4.38
			c3.35,0.37,6.25-0.61,8.49-3.14c2.75-3.1,3.95-6.78,3.04-10.83c-0.57-2.54-1.97-5.25-2.59-7.76c0.74-0.22,1.47-0.07,1.92-0.29
			c4.43-2.15,8.73-4.58,13.49-5.99C852.22,109.43,853.93,108.36,855.71,107.74z"/>
		<path class="swspd_st4" d="M332.94,344.78c-0.96-2.86-2.09-5.68-2.84-8.6c-2.05-7.99-3.31-16.13-3.96-24.35
			c-0.43-5.43-0.75-10.87-1.02-16.31c-0.17-3.43,0.1-6.83,1-10.17c0.84-3.14,2.48-5.82,4.71-8.13c3.3-3.42,6.56-3.42,9.78,0.17
			c1.42,1.58,2.71,3.4,3.62,5.31c1.79,3.77,3.43,7.62,4.83,11.55c3.19,8.96,5.33,18.22,7.49,27.48c0.78,3.33,1.53,6.67,2.33,9.99
			c0.23,0.96,0.59,1.89,1,3.19c0.76-0.92,1.39-1.52,1.82-2.24c1.97-3.29,3.24-6.89,3.99-10.63c1.14-5.71,2.03-11.47,3.12-17.19
			c0.95-4.97,1.91-9.95,3.1-14.87c0.89-3.7,2.38-7.21,4.48-10.43c2.74-4.22,6.49-7.07,11.41-8.25c1.1-0.26,2.25-0.36,3.38-0.37
			c2.66-0.04,4.65,1.21,5.82,3.56c0.66,1.34,1.13,2.82,1.45,4.29c0.65,2.99,0.69,6.04,0.43,9.08c-0.17,2.02-0.45,4.03-1.05,6.4
			c-5.13,4.37-9.24,8.98-12.71,14.13c-4.44,6.59-8.73,13.28-13.06,19.95c-1.94,2.98-4.13,5.75-6.79,8.09
			c-3.08,2.71-6.55,4.67-10.69,5.31c-2.11,0.33-4.2,0.67-6.35,0.83c-2.87,0.2-5.7,0.88-8.55,1.31
			C337.43,344.22,335.19,344.48,332.94,344.78z"/>
		<path class="swspd_st5" d="M542.74,168.28c0,0.75,0.15,1.53-0.01,2.25c-0.89,4.07-1.66,8.18-2.84,12.17
			c-3.08,10.38-9.02,18.85-17.66,25.41c-7.7,5.84-16.18,10.33-24.98,14.24c-1.97,0.87-4.01,1.51-6.2,1.63
			c-2.85,0.15-5.02-0.97-6.14-3.53c-0.91-2.06-1.59-4.26-2.03-6.47c-1.06-5.35-1.23-10.8-1.33-16.24
			c-0.26-13.66-0.08-27.31,0.95-41.3c2.37-1.08,4.38-1.79,6.36-2.56c2.48-0.97,5.01-1.65,7.71-1.56c1.51,0.06,3.03,0.05,4.55,0
			c6.27-0.19,11.92,1.89,17.22,4.94c2.93,1.69,5.56,3.9,8.38,5.79c2.3,1.55,4.67,2.97,7.01,4.47
			C536.59,169.36,539.6,169.54,542.74,168.28z M519.46,169.48c0.32-1.48,0.75-2.94,0.93-4.44c0.42-3.59-1.16-6.1-4.49-7.46
			c-1.82-0.74-3.7-0.89-5.58-0.51c-3.26,0.67-5.44,2.57-6.15,5.92c-0.29,1.36-0.6,2.74-0.64,4.11c-0.12,4.42-0.16,8.84-0.11,13.26
			c0.01,1.24,0.34,2.5,0.72,3.69c0.42,1.3,1.47,1.78,2.71,1.14c1.44-0.75,2.88-1.61,4.08-2.69
			C514.76,179.08,517.52,174.89,519.46,169.48z"/>
		<path class="swspd_st5" d="M659.4,230.28c2.56-1.37,3.61-3.43,5-5.46c3.31-4.86,7.45-8.94,11.76-12.8c4.79-4.28,10.61-6.54,17.1-5.6
			c6.55,0.95,11.67,4.21,14.99,10.29c5.05,9.25,8.94,18.9,11.12,29.22c0.78,3.69,1.55,7.38,2.36,11.06c0.07,0.32,0.4,0.53,1.01,0.6
			c0.13,5.54-0.64,11.28-2.03,16.55c-0.38,1.45-1.04,2.86-1.78,4.17c-1.08,1.91-2.8,2.86-5.06,2.7c-3.17-0.23-6.28-0.83-9.29-1.86
			c-3.27-1.12-4.97-3.46-4.95-6.87c0.02-3.67,0.18-7.34,0.41-11.01c0.56-8.85,1.32-17.69,1.05-26.57c-0.09-3.03-0.41-6.06-0.77-9.08
			c-0.37-3.09-1.57-5.86-3.71-8.17c-0.52-0.55-1.05-1.11-1.66-1.55c-1.71-1.22-3.42-1.1-4.68,0.57c-0.9,1.19-1.59,2.58-2.14,3.98
			c-1.25,3.2-1.77,6.59-2.23,9.99c-0.89,6.55-1.04,13.13-0.83,19.72c0.14,4.31,0.14,8.62-0.71,12.87c-0.45,2.23-0.99,4.46-1.73,6.6
			c-0.53,1.54-1.33,3.03-2.25,4.37c-3.39,4.92-8.82,5.64-13.49,1.85c-2-1.62-3.51-3.64-4.66-5.93c-1.74-3.45-2.53-7.14-2.96-10.94
			c-0.67-5.94-0.41-11.89-0.3-17.85C659.02,237.72,659.23,233.96,659.4,230.28z"/>
		<path class="swspd_st2" d="M377.19,229.88c-0.07-1.01-0.14-2.76-0.14-3.76c0.02-17.47,0.06-34.94,0.07-52.42
			c0-3.57,0.48-7.07,1.55-10.48c2.46-7.89,7.84-12.46,15.94-13.94c3.64-0.66,7.31-0.72,10.98-0.62c5.45,0.15,10.88,0.61,16.15,2.12
			c2.06,0.59,4.1,1.34,6.02,2.27c6.04,2.91,9.16,7.84,9.3,14.51c0.13,6.22-0.59,12.74-2.63,19.05c-1.35-0.05-2.13-0.78-3.1-1.03
			c-2.05-0.54-4.03-1.54-6.24-1.16c-6.14,1.06-10.94,4.41-14.82,9.1c-4.42,5.34-8.21,11.14-12.03,16.93
			c-3.55,5.37-7.44,10.49-12.25,14.84C383.47,227.52,380.73,229.99,377.19,229.88z M401.35,173.85c0.01,1.64-0.05,3.28,0.07,4.91
			c0.08,0.99,0.35,2,0.72,2.92c0.89,2.19,2.42,3.09,4.75,2.96c5.41-0.31,8.3-3.42,8.19-8.81c-0.01-0.63-0.04-1.27-0.13-1.89
			c-0.76-5.21-4.2-7.36-9.23-5.86C403.1,168.86,401.8,170.66,401.35,173.85z"/>
		<path class="swspd_st3" d="M897.32,292.27c-0.11,6.45-0.21,12.9-0.35,19.35c-0.05,2.4-0.18,4.81-0.37,7.21
			c-0.12,1.51-0.32,3.02-0.66,4.49c-0.7,3.06-2.76,4.85-5.77,5.3c-3.26,0.49-6.55,0.44-9.8-0.42c-3.5-0.92-5.33-3.24-5.75-6.73
			c-0.17-1.38-0.1-2.78-0.1-4.17c-0.01-3.8,0.1-7.6-0.03-11.4c-0.05-1.62-0.44-3.26-0.89-4.82c-0.42-1.47-1.63-2.19-3.12-2.41
			c-1.53-0.23-2.82,0.32-3.46,1.72c-0.47,1.02-0.87,2.14-0.98,3.24c-0.49,4.65-0.83,9.33-1.29,13.98c-0.16,1.62-0.4,3.27-0.85,4.83
			c-0.64,2.23-2.23,3.66-4.5,4.2c-4.47,1.06-8.82,0.48-12.99-1.29c-2.11-0.9-3.42-2.68-3.77-4.93c-0.31-1.99-0.47-4.03-0.4-6.04
			c0.31-8.35,0.65-16.71,1.13-25.05c0.68-11.88,1.83-24.04,4.75-35.95c2.3-0.21,3.88,0.04,5.65,0.12c3.73,0.16,7.21,1.16,10.17,3.51
			c0.96,0.77,1.99,0.72,3.14,1.01c-0.19,0.92-0.44,1.92-0.55,2.54c-0.94,5.13,1.35,8.93,6.36,10.53c0.96,0.31,1.95,0.51,2.99,1.09
			c0.22,1.06,0.26,1.85,0.57,2.51c1.4,2.95,2.72,5.95,4.38,8.75c1.85,3.12,3.87,6.15,6.7,8.55c1.85,1.57,3.8,2.34,6.22,1.36
			C894.88,292.88,896.12,292.62,897.32,292.27z"/>
		<path class="swspd_st4" d="M623.03,97.88c0.25,1.67-1.28,2.16-2.29,2.89c-3.37,2.43-6.92,4.65-10.12,7.29
			c-3.28,2.7-7.04,4.43-10.73,6.35c-1.3,0.68-2.72,1.02-4.04,0.61c-2.99-0.95-6.02-0.49-9.03-0.68c-3.92-0.25-7.47,0.9-11.05,2.87
			c-3.56-0.56-5.47-3.03-6.94-5.91c-1.47-2.88-1.89-6.03-2.12-9.2c-0.36-4.9,0.57-9.57,2.55-14.06c2.13-4.81,5.11-9.04,8.76-12.78
			c9.51-9.76,20.97-15.76,34.53-17.56c4.84-0.64,9.61-0.3,14.28,1.14c3.07,0.95,5.84,2.43,8.16,4.69c4.16,4.05,4.96,9.06,2.3,14.21
			c-1.43,2.76-3.51,4.95-6,6.76c-3.01,2.18-6.38,3.61-10,4.46c-3.96,0.93-7.28,0.04-9.65-3.47c-0.28-0.42-0.59-0.83-0.91-1.22
			c-1.87-2.27-3.25-2.63-5.99-1.57c-4.14,1.59-6.4,5-6.28,9.45c0.04,1.36,0.48,2.15,1.89,2.49c1.71,0.41,3.48,0.61,5.23,0.8
			c4.53,0.49,9.07,0.88,13.59,1.39C620.31,96.93,621.69,97.45,623.03,97.88z"/>
		<path class="swspd_st3" d="M377.15,229.48c3.62-0.23,6.32-1.96,8.82-4.22c4.82-4.35,8.7-9.47,12.25-14.84
			c3.82-5.78,7.61-11.58,12.03-16.93c3.88-4.69,8.68-8.03,14.82-9.1c2.21-0.38,4.19,0.62,6.24,1.16c0.96,0.25,1.89,0.63,3.12,0.96
			c-1.3,7.14-4.95,12.82-11.35,16.58c-0.98,0.57-2.03,1.08-2.39,2.43c0.2,1.77,1.35,3.15,2.47,4.51c1.76,2.16,3.67,4.2,5.41,6.38
			c1.74,2.17,3.45,4.38,4.99,6.7c2.15,3.24,3.28,6.82,3.04,10.78c-0.12,1.9-0.09,3.8-0.17,5.7c-0.2,4.45-2.26,7.66-6.32,9.61
			c-3.1,1.49-6.37,2.46-9.7,3.25c-2.04,0.48-3.86-0.2-5.16-1.71c-1.22-1.42-2.29-3.04-3.12-4.72c-1.85-3.77-2.8-7.86-3.82-11.91
			c-0.98-3.93-1.91-7.88-2.97-11.78c-0.39-1.45-1.01-2.87-1.68-4.22c-0.44-0.88-1.08-1.86-2.31-1.61c-0.99,0.2-1.32,1.13-1.47,2.01
			c-0.25,1.5-0.59,3-0.6,4.51c-0.03,3.54,0.08,7.09,0.21,10.63c0.17,4.81,0.34,9.62,0.65,14.43c0.3,4.72-1.97,7.66-6.11,9.45
			c-2.84,1.23-5.83,1.75-8.88,1.77c-4.33,0.03-6.58-1.77-7.56-5.98c-0.37-1.59-0.5-3.26-0.51-4.89
			C377.03,242.25,377.07,236.04,377.15,229.48z"/>
		<path class="swspd_st3" d="M139.47,237.79c2.94-0.48,5.76,0.6,7.93,2.52c2.25,1.99,4.32,4.24,6.21,6.59c2.73,3.38,4.28,7.46,5.68,11.49
			c3.13,8.97,7.24,17.48,11.57,25.89c0.86,1.68,1.89,3.27,2.9,4.87c0.18,0.29,0.57,0.39,1.17,0.25c0.94,4.97,1.62,10.35,2.27,15.24
			c0.57,4.27,1.13,8.53,1.63,12.81c0.13,1.12,0.13,2.28-0.01,3.41c-0.45,3.83-2.51,6.07-6.31,6.42c-2.37,0.22-4.83,0.15-7.18-0.24
			c-4.26-0.7-8.33-2.14-12.3-3.84c-7.22-3.09-10.58-8.7-10.88-16.37c-0.23-6.08-0.45-12.16-0.7-18.23
			C140.77,272.02,140.08,254.7,139.47,237.79z"/>
		<path class="swspd_st2" d="M820.87,125.04c-2.01-0.03-4.02-0.1-6.03-0.06c-1.3,0.02-2.45-0.33-3.62-0.84c-3.49-1.51-6.35-3.98-9.43-6.12
			c-0.31-0.21-0.63-0.41-1.18-0.66c0.18-5.08,0.51-10.13,1.03-15.16c0.64-6.29,1.32-12.59,2.21-18.85
			c0.49-3.49,1.31-6.96,2.23-10.37c0.45-1.67,1.32-3.29,2.27-4.76c1.38-2.15,3.51-3.22,6.06-3.38c0.76-0.05,1.53-0.09,2.28,0
			c7.82,0.98,15.05,3.3,20.85,8.99c3.74,3.67,6.81,7.82,9.39,12.35c3.83,6.74,6.78,13.85,8.82,21.64c-1.76,0.92-3.52,1.6-5.33,2.13
			c-4.76,1.42-9.06,3.84-13.49,5.99c-0.45,0.22-0.93,0.37-1.87,0.42c-1.71-1.71-2.85-3.38-4.21-4.84c-0.93-0.99-2.09-1.83-3.29-2.48
			c-1.96-1.07-3.47-0.54-4.21,1.54c-0.62,1.76-0.99,3.63-1.29,5.48C821.58,119.06,821.26,122.06,820.87,125.04z"/>
		<path class="swspd_st2" d="M542.7,168.73c-3.25,1.55-6.11,0.63-8.99-1.21c-2.33-1.49-4.71-2.92-7.01-4.47c-2.82-1.9-5.45-4.11-8.38-5.79
			c-5.3-3.04-10.95-5.13-17.22-4.94c-1.51,0.05-3.03,0.06-4.55,0c-2.7-0.1-5.23,0.59-7.71,1.56c-1.98,0.77-4.09,1.98-6.37,2.72
			c-0.21-6.09,0.6-12.62,2.15-18.52c1.66-6.33,5.31-11.19,11.13-14.24c3.47-1.82,7-3.58,10.64-5.02c8.91-3.53,17.18-2.07,24.65,3.81
			c6.1,4.81,9.73,11.26,11.76,18.65c1.05,3.8,1.64,7.7,1.37,11.65C543.83,157.86,543.23,163.52,542.7,168.73z"/>
		<path class="swspd_st4" d="M727.23,136.33c-0.18-2.64-0.6-5.3-0.48-7.93c0.31-6.83,0.78-13.65,1.35-20.47
			c0.56-6.69,1.29-13.36,2.01-20.03c0.76-7.04,1.25-14.13,2.89-21.05c0.47-1.96,1.04-3.92,1.8-5.79c1.78-4.35,5.12-6.94,9.76-7.47
			c5.68-0.65,11.39-0.6,16.99,0.76c2.6,0.63,5.03,1.74,7.14,3.42c3.15,2.51,4.88,5.74,4.87,9.84c-0.01,2.69-0.33,5.31-1.44,7.78
			c-1.84,4.1-4.43,5.13-7.75,4.69c-1.13-0.15-2.27-0.27-3.4-0.32c-1.13-0.05-2.28-0.06-3.41,0.02c-2.84,0.19-4.7,1.69-5.6,4.37
			c-0.36,1.08-0.73,2.17-0.92,3.28c-1.31,7.5-2.13,15.04-2.07,22.66c0.02,2.46,0.47,4.79,2.08,7.1c-2.1,2.82-4.01,5.33-6.14,7.65
			c-2.31,2.52-4.8,4.87-7.22,7.28C734.78,134.99,731.56,137.06,727.23,136.33z"/>
		<path class="swspd_st7" d="M919.86,281.76c-4.9-5.46-9.89-10.86-14.67-16.42c-1.97-2.29-3.66-4.86-5.2-7.47
			c-1.02-1.72-1.79-3.66-2.26-5.6c-1.06-4.36,1.06-8.18,5.34-9.59c2.02-0.66,4.21-1.14,6.32-1.1c4.68,0.07,9.35,0.53,14.02,0.82
			c1.85,0.11,3.12,1.06,3.74,2.75c0.78,2.14,1.54,4.29,2.11,6.49c0.86,3.31,1.51,6.67,2.34,9.98c0.4,1.59,0.97,3.14,1.56,4.68
			c0.36,0.94,0.9,1.82,2.01,2.16c1.15-0.03,1.81-0.84,2.31-1.7c1.09-1.85,2.09-3.76,3.09-5.66c1.64-3.14,3.14-6.36,4.93-9.42
			c1.01-1.73,2.36-3.28,3.73-4.76c1.25-1.35,2.89-1.98,4.8-1.87c4.45,0.24,8.85,0.88,12.98,2.59c1.72,0.71,3.36,1.79,4.79,2.99
			c1.75,1.48,2.32,3.53,1.89,5.85c-0.45,2.44-1.57,4.53-2.97,6.51c-2.36,3.33-5.24,6.18-8.27,8.89c-3.02,2.71-6.13,5.31-9.14,8.02
			c-1.88,1.69-3.67,3.48-5.98,5.34c-6.83-3.85-13.84-4.92-21.12-4.23C924.1,281.18,922,281.64,919.86,281.76z"/>
		<path class="swspd_st5" d="M558.5,233.24c2.2,7.27,3.79,15.09,5.12,22.56c1.48,8.27,2.06,16.58,1.34,24.95
			c-0.26,3.01-0.79,6.03-1.54,8.95c-1.56,6.09-5.23,10.61-10.88,13.42c-1.69,0.84-3.47,1.53-5.23,2.22c-0.7,0.28-1.45,0.46-2.2,0.57
			c-3.76,0.56-6.17-0.67-7.53-4.2c-0.77-1.98-1.22-4.13-1.5-6.24c-0.92-6.82-0.38-13.64,0.41-20.44c1.32-11.45,3.82-22.7,6-34
			c0.16-0.83,0.15-1.69,0.26-2.87c-1.25,0.49-2.18,0.82-3.08,1.22c-3.47,1.57-7,2.94-10.74,3.7c-1.23,0.25-2.5,0.44-3.75,0.47
			c-4.7,0.09-6.22-1.87-6.15-6.93c0.85-0.41,1.27-0.04,1.72-0.23c2.09-0.88,4.11-1.98,6.26-2.66c2.99-0.93,6.04-1.98,9.12-2.22
			c6.29-0.49,12.58-0.15,18.72,1.68C556.02,233.55,557.26,233.1,558.5,233.24z"/>
		<path class="swspd_st3" d="M332.94,344.72c2.24-0.59,4.49-0.51,6.72-0.84c2.85-0.43,5.68-1.11,8.55-1.31c2.15-0.15,4.24-0.5,6.35-0.83
			c4.15-0.64,7.61-2.6,10.69-5.31c2.67-2.35,4.86-5.12,6.79-8.09c4.33-6.66,8.62-13.35,13.06-19.95c3.47-5.15,7.83-10.5,12.81-14.57
			c0.26,3.52-0.97,7.68-1.76,11.11c-3.71,16.23-9.2,31.85-16.25,46.92c-2.49,5.32-5.69,10.19-9.99,14.22
			c-1.74,1.63-3.66,3.18-5.74,4.32c-5.25,2.89-10.5,2.68-15.32-1c-2.09-1.6-4.02-3.5-5.72-5.52
			C338.52,358.4,335.25,351.79,332.94,344.72z"/>
		<path class="swspd_st3" d="M598.58,218.39c2.68,0.27,4.51,2.21,6.33,3.94c2.39,2.26,4.4,4.84,5.83,7.84c2.72,5.69,5.45,11.38,8.17,17.07
			c1.1,2.29,2.51,4.34,4.23,6.23c2.14,2.36,4.91,3.47,7.83,4.35c0.59,0.18,1.28,0.28,1.87,0.15c3.44-0.73,6.9-1.35,9.59-4
			c4.15-4.08,8.15-8.25,11.13-13.3c0.5-0.85,1.34-1.87,2.2-2.71c-0.19,8.75-2.05,17.57-5.96,25.51
			c-4.73,9.61-12.67,14.9-23.13,16.52c-1.99,0.31-4.04,0.5-6.05,0.39c-6.98-0.35-12.2-3.81-16-9.54c-2.69-4.06-4.33-8.58-5.46-13.29
			c-2.28-9.46-2.55-19.06-1.87-28.71C597.53,225.57,598.12,221.95,598.58,218.39z"/>
		<path class="swspd_st8" d="M591.95,217.43c2.13,2.5,2.24,5.32,2.39,8.11c0.12,2.28,0.04,4.56,0.13,6.84
			c0.47,12.28,0.96,24.55,1.43,36.83c0.08,2.15,0.2,4.31,0.12,6.46c-0.07,1.76-0.27,3.54-0.65,5.26c-0.65,2.96-2.31,5.35-4.86,7
			c-3.78,2.45-7.95,3.86-12.41,4.42c-0.75,0.09-1.52,0.06-2.28,0.01c-2.44-0.15-4.05-1.47-4.71-3.75c-0.41-1.44-0.62-2.98-0.65-4.48
			c-0.05-2.91,0.04-5.83,0.16-8.74c0.52-13.54,1.05-27.09,1.6-40.63c0.06-1.39,0.15-2.79,0.35-4.16c1.02-7.1,6.78-13.11,13.82-14.47
			C588.32,215.76,590.17,215.83,591.95,217.43z"/>
		<path class="swspd_st8" d="M459.16,178.18c-0.02,1.64-0.07,3.28-0.06,4.92c0.01,4.81-0.01,9.62,0.11,14.43c0.04,1.5,0.33,3.03,0.76,4.47
			c0.76,2.57,2.26,3.55,4.84,3.15c1.61-0.25,3.19-0.79,4.75-1.3c1.44-0.48,2.81-1.16,4.26-1.63c1.69-0.55,3.05-0.12,3.93,1.38
			c0.63,1.07,1.1,2.29,1.35,3.51c2.71,12.87-2,22.66-12.9,29.44c-4.11,2.55-8.7,4.14-13.41,5.2c-6.11,1.37-9.36-0.54-11.33-6.49
			c-1.21-3.64-1.64-7.41-1.92-11.21c-0.77-10.5-0.83-21.01-0.24-31.87c2.49,0.12,4.07-1.12,5.43-2.31
			c3.85-3.36,8.21-6.13,11.67-9.95C457.14,179.12,457.88,178.19,459.16,178.18z"/>
		<path class="swspd_st7" d="M897.31,292.29c-1.29,0.68-2.43,0.58-3.58,1.05c-2.42,0.98-4.37,0.21-6.22-1.36
			c-2.82-2.39-4.85-5.43-6.7-8.55c-1.66-2.8-2.98-5.81-4.38-8.75c-0.31-0.66-0.7-1.45-0.63-2.53c3.86-0.6,5.06-1.33,5.5-4.65
			c0.11-0.87,0.14-1.75,0.13-2.63c-0.08-4.72-2.45-7.74-6.91-9.16c-3.13-1-5.68-0.55-7.49,2.4c-1.17,0.02-2.15-0.33-3.12-1.1
			c-2.95-2.35-6.44-3.34-10.17-3.51c-1.77-0.08-3.54-0.03-5.67-0.05c0.26-4.96,1.81-9.62,4.23-13.97c2.76-4.98,6.96-7.56,12.72-7.37
			c6.92,0.23,13.53,1.83,19.77,4.77c5.08,2.39,8.33,6.48,10.13,11.74c1.44,4.22,2.1,8.59,2.42,13.02
			C898.08,271.64,897.91,281.98,897.31,292.29z"/>
		<path class="swspd_st1" d="M319.35,246.15c2.04-0.7,3.54-2.04,5-3.42c1.38-1.3,2.72-2.63,4.02-4.01c3.04-3.21,6.48-6.07,10.18-8.34
			c4.67-2.87,9.51-5.76,15.33-5.88c1.36-0.03,2.8-0.83,4.05-0.56c3.3,0.7,6.76,0.53,9.93,1.99c1.33,0.61,2.91,0.7,4.71,1.06
			c-0.32,7.28-2.22,14.17-5.54,20.65c-2.04,3.98-4.77,7.4-8.32,10.18c-8.07,6.31-24.37,8.73-34.34-3.83
			C322.51,251.61,321.03,248.94,319.35,246.15z"/>
		<path class="swspd_st4" d="M514.08,238.58c-0.09,1.01-0.36,1.65-1.09,2.11c-1.39,0.88-2.69,1.88-4.06,2.78
			c-5.38,3.56-10.45,7.49-14.93,12.15c-1.58,1.64-3.32,3.14-4.8,4.86c-3.55,4.09-7.27,8.03-10.83,12.12
			c-2.97,3.41-6.05,6.8-9.83,9.42c-1.55,1.07-2.93,2.38-4.43,3.53c-3.35,2.55-7.19,4.9-11.68,5.66c-0.01-2.36-0.13-5.31,0.04-7.7
			c0.51-7.33,1.24-14.65,3.07-21.78c0.72-2.8,1.76-5.54,2.87-8.22c1.11-2.69,3.11-4.55,5.94-5.51c2.87-0.97,5.68-2.14,8.57-3.08
			c1.18-0.38,2.48-0.54,3.73-0.55c1.92-0.02,3.02,0.92,3.56,2.79c0.17,0.6,0.26,1.24,0.3,1.87c0.06,0.76-0.01,1.52,0.06,2.28
			c0.1,1.08-0.21,2.51,1.29,2.78c1.36,0.25,1.94-0.99,2.51-1.95c0.72-1.19,1.27-2.49,2.01-3.66c1.42-2.24,2.78-4.55,4.44-6.6
			c3.12-3.85,7.24-6.26,12.01-7.57C507.51,233.03,511.32,234.11,514.08,238.58z"/>
		<path class="swspd_st9" d="M797.57,113.13c-0.26,4.41-0.53,9.23-0.91,13.63c-0.58,6.68-1.27,13.35-2.03,20.01
			c-0.29,2.5-0.83,4.98-1.4,7.44c-0.25,1.09-0.78,2.14-1.35,3.11c-1.24,2.11-3.14,3.37-5.61,3.32c-5.2-0.11-10.02-1.53-14.02-4.95
			c-3.36-2.87-4.11-6.84-3.93-11.04c0.07-1.64,0.33-3.27,0.6-4.89c1.93-11.6,4.09-23.59,6.46-35.46c2.13,0.08,3.71,0.64,5.34,1.22
			c3.05,1.08,6.2,1.96,8.9,3.91c1.72,1.24,3.65,2.19,5.41,3.38C795.8,113.34,796.67,113.17,797.57,113.13z"/>
		<path class="swspd_st7" d="M558.55,233.33c-1.23,0.17-2.53,0.22-3.71-0.13c-6.14-1.82-12.43-2.17-18.72-1.68
			c-3.08,0.24-6.13,1.29-9.12,2.22c-2.15,0.67-4.17,1.78-6.26,2.66c-0.45,0.19-0.97,0.22-1.74,0.33c-0.38-4.1,1.29-7.61,3.5-10.9
			c1.98-2.96,4.5-5.45,7.22-7.75c5.03-4.26,10.55-7.84,16.24-11.14c3.82-2.21,7.73-4.3,11.68-6.28c1.79-0.9,3.74-1.57,5.69-2.03
			c3.84-0.9,6.08,0.34,6.69,4.09c1.55,9.59,0.57,17.99-9.05,25.18c-0.9,0.67-1.81,1.33-2.81,2.06
			C558.28,231.05,558.41,232.03,558.55,233.33z"/>
		<path class="swspd_st4" d="M700.32,104.24c0.28-2.38,0.75-5.35,1.05-7.73c0.4-3.13,0.8-6.27,1.26-9.39c0.2-1.37,0.42-2.76,0.87-4.06
			c0.87-2.5,2.56-4.34,5.04-5.35c3.61-1.46,7.35-1.85,11.15-1.02c4.18,0.92,6.29,3.37,6.76,7.58c0.08,0.75,0.14,1.52,0.08,2.27
			c-0.79,11.6-1.58,23.2-2.43,34.8c-0.32,4.28-0.81,8.55-1.66,13.16c-1.92,0.31-3.41,0.29-4.67,0.27
			c-2.7-3.46-6.69-10.63-8.21-14.29c-1.58-3.82-3.29-7.58-4.98-11.35c-0.62-1.37-1.34-2.7-2.02-4.04
			C702.14,104.24,701.31,104.28,700.32,104.24z"/>
		<path class="swspd_st9" d="M919.61,281.44c2.04-0.4,4.49-0.27,6.59-0.46c7.28-0.68,14.79-0.11,21.4,3.88c-1.39,2.27-2.22,5.3-2.36,8.02
			c-0.39,7.57-0.97,15.14-1.64,22.7c-0.22,2.5-0.88,4.98-1.49,7.42c-0.3,1.21-0.87,2.38-1.48,3.48c-0.96,1.75-2.47,2.82-4.48,3.17
			c-2.77,0.47-5.53,0.45-8.3-0.02c-2.18-0.37-3.68-1.6-4.57-3.58c-1-2.22-1.4-4.58-1.62-6.99c-0.55-6.19-0.57-12.38-0.36-18.58
			c0.13-4.04,0.2-8.09,0.45-12.13C921.9,286.09,921.12,283.5,919.61,281.44z"/>
		<path class="swspd_st7" d="M459.17,178.19c-1.39,0.29-2.12,1.22-2.87,2.04c-3.46,3.82-7.82,6.59-11.67,9.95
			c-1.36,1.19-3.04,2.87-5.42,2.41c-0.26-3.92-0.26-8.28-0.11-12.2c0.27-6.83,0.58-13.66,1.08-20.47c0.23-3.14,0.86-6.26,1.48-9.36
			c0.32-1.6,0.93-3.15,1.57-4.66c1.19-2.81,3.24-4.9,6.1-5.92c2.61-0.93,5.33-1.56,8.02-2.25c0.72-0.18,1.52-0.14,2.26-0.06
			c2.05,0.24,3.56,1.27,4.23,3.29c0.28,0.83,0.55,1.7,0.63,2.57c0.35,3.79,0.43,7.59-0.4,11.34c-1.21,5.43-2.48,10.85-3.65,16.29
			C459.94,173.4,459.65,175.66,459.17,178.19z"/>
		<path class="swspd_st9" d="M727.22,136.18c4.39,0.44,7.56-1.18,10.44-4.04c2.43-2.4,4.92-4.76,7.22-7.28c2.12-2.32,3.84-5.13,6.06-7.69
			c3.14,1.47,6.53,2.58,9.78,3.02c3.4,0.46,5.15,2.43,5.83,5.57c0.29,1.35,0.62,2.75,0.57,4.12c-0.13,3.28-0.2,6.59-0.78,9.81
			c-1.32,7.38-7.09,12.39-14.59,12.48c-5.85,0.07-11.56-1.16-16.98-3.43c-3.48-1.46-5.64-4.2-6.76-7.75
			C727.61,139.66,727.46,137.82,727.22,136.18z"/>
		<path class="swspd_st7" d="M445.51,286.28c-1.98-0.07-2.99-1.54-4.25-2.52c-3.82-2.99-8.1-3.51-12.93-3.81
			c-5.39-0.33-9.78,1.12-14.45,3.36c-3.38,1.62-6.64,3.34-9.57,5.78c-0.95,0.79-2.7,0.83-4.01,1.53c0.18-4.27,0.75-8.23,1.94-12.23
			c1.67-5.63,5.05-9.86,10.56-12.15c9.18-3.81,18.7-6.17,28.7-6.06c1.99,0.02,4.05,0.32,5.95,0.9c2.89,0.88,4.05,2.64,4.06,5.66
			c0.02,3.93-0.39,7.82-1.44,11.62C449.29,281.2,447.87,284.06,445.51,286.28z"/>
		<path class="swspd_st8" d="M274.57,357.47c3.41-0.69,6.62-1.58,9.64-3.15c4.01-2.1,7.68-4.7,11.38-7.76c1.49,0.86,3.32,1.55,5,1.53
			c1.9-0.03,3.79-0.09,5.69-0.14c2.54-0.07,5.06-0.02,7.54,0.6c3.3,0.82,5.69,2.74,6.95,5.89c1.54,3.83,1.79,7.87,1.53,11.95
			c-0.1,1.63-1.01,2.91-2.44,3.61c-1.23,0.6-2.57,1.11-3.92,1.33c-1.99,0.33-4.03,0.54-6.04,0.49c-7.48-0.17-14.88-1.03-22.17-2.74
			c-0.37-0.09-0.74-0.18-1.1-0.28C280.9,367.22,276.57,363.51,274.57,357.47z"/>
		<path class="swspd_st4" d="M697.6,96.3c-0.83-0.01-1.36-0.5-1.87-1.17c-3.86-5.02-9.07-8.2-14.79-10.62c-1.59-0.67-3.5-0.39-5.48-0.85
			c-0.01-1.02-0.21-2.31-0.16-3.19c0.25-4.41,0.52-8.83,0.82-13.24c0.09-1.26,0.3-2.51,0.52-3.75c0.57-3.27,2.52-5.5,5.51-6.72
			c4.17-1.7,8.54-2.28,13.01-1.78c3.03,0.34,4.79,2.13,5.17,5.14c0.17,1.37,0.13,2.77,0.08,4.16
			C700.02,74.77,698.92,85.61,697.6,96.3z"/>
		<path class="swspd_st8" d="M700.38,103.91c1.13-0.23,1.76,0.33,2.18,1.17c0.68,1.34,1.41,2.67,2.02,4.04c1.69,3.77,3.75,7.24,5.33,11.06
			c1.52,3.66,5.07,11.74,9,13.69c1.13,0.56,1.76,0.54,3.54,0.53c-0.23,2.32-0.44,5.12-1.43,7.32c-1.2,2.7-3.24,4.54-6.12,5.27
			c-4.66,1.19-9.3,0.93-13.85-0.56c-3.17-1.04-5.1-3.3-5.57-6.6c-0.25-1.73-0.33-3.55-0.09-5.28c0.93-6.65,2.01-13.27,3.07-19.9
			C699.03,111.17,699.65,107.68,700.38,103.91z"/>
		<path class="swspd_st8" d="M212.64,300.15c1.79,0.65,3.05,2.79,4.07,4.41c2.7,4.27,5.16,8.63,7.16,13.31
			c2.38,5.58,5.42,10.82,8.19,16.22c0.3,0.59,0.75,0.93,1.7,0.87c0.32,0.14,0.22,1.04,0.23,1.16c0.38,3.9,1.22,7.65,1.44,11.56
			c0.16,3.01-1.1,4.12-4.15,4.03c-1-0.03-2.04-0.15-3-0.42c-2.93-0.84-5.74-1.99-8.35-3.61c-3.06-1.9-5.06-4.57-5.71-8.15
			c-0.25-1.37-0.49-2.75-0.54-4.14C213.27,324,212.91,311.86,212.64,300.15z"/>
		<path class="swspd_st7" d="M664.48,83.34c-5.8-0.19-10.92,1.2-16.16,2.98c-2.62,0.89-5.29,2.19-8.14,3.15
			c-0.06-5.29,0.17-10.89,0.45-16.18c0.25-4.78,2.73-8.03,7.16-9.8c3.3-1.32,6.69-2.32,10.25-2.62c1-0.08,2.03-0.1,3.02,0.04
			c2.44,0.33,3.87,1.7,4.23,4.16c0.2,1.37,0.2,2.78,0.14,4.16C665.22,73.65,664.84,78.61,664.48,83.34z"/>
		<path class="swspd_st7" d="M797.55,113.2c-0.98,0.37-1.75,0.15-2.54-0.39c-1.76-1.19-3.69-2.14-5.41-3.38c-2.7-1.95-5.85-2.83-8.9-3.91
			c-1.63-0.58-3.4-0.74-5.41-1.1c-0.03-2.51,0.23-5.02,0.51-7.53c0.22-2.01,0.43-4.02,0.71-6.02c0.89-6.46,4.3-8.99,10.77-8.03
			c0.5,0.07,1,0.15,1.5,0.25c6.22,1.28,9.74,5.29,9.88,11.62c0.07,3.28-0.27,6.56-0.46,9.84
			C798.04,107.32,797.82,110.1,797.55,113.2z"/>
		<path class="swspd_st7" d="M912.12,116.21c-0.97,0.4-1.67-0.03-2.43-0.55c-5.75-3.95-12.04-6.68-18.86-8.19
			c-6.16-1.36-12.39-1.74-18.68-1.53c-1.76,0.06-3.52,0.01-5.64,0.01c-0.25-3.85,0.72-7.51,2.17-11.03c1.93-4.68,4.72-6.01,9.7-4.87
			c1.11,0.25,2.19,0.63,3.25,1.03c7.9,2.95,15.12,7.11,21.58,12.51c2.22,1.85,4.19,4.03,6.11,6.2
			C910.84,111.51,911.84,113.57,912.12,116.21z"/>
		<path class="swspd_st10" d="M582.16,187.69c1.28-0.61,2.29-1.16,3.36-1.51c4-1.29,6.94,0.21,8.32,4.23c0.28,0.83,0.5,1.7,0.63,2.57
			c1.46,10.14-5.26,19.65-15.27,21.61c-0.74,0.14-1.51,0.19-2.26,0.19c-1.69,0-2.88-0.84-3.56-2.36c-0.3-0.69-0.59-1.42-0.69-2.15
			c-0.51-3.78-0.5-7.56,0.28-11.31c0.84-4.03,3.01-7.18,6.38-9.51C580.17,188.87,581.05,188.37,582.16,187.69z"/>
		<path class="swspd_st10" d="M794.11,79.78c-3.94,0.45-7.31-0.58-10.58-1.99c-2.87-1.24-4.55-3.46-5.13-6.58
			c-0.57-3.05-0.33-6.05,0.44-9.01c0.75-2.89,2.76-4.48,5.71-4.75c3.2-0.29,6.34,0.13,9.25,1.52c6.06,2.89,8.64,10.94,5.51,16.88
			C798.25,77.89,796.63,79.17,794.11,79.78z"/>
		<path class="swspd_st10" d="M707.93,71.92c-2.43-1.17-3.36-3.06-3.62-5.29c-0.28-2.39-0.18-4.78,0.49-7.14c0.74-2.63,2.33-4.45,4.87-5.4
			c3.37-1.26,6.89-1.7,10.44-1.18c4.45,0.66,7.34,3.63,8.01,7.93c0.67,4.31-1.58,8.98-5.49,10.73c-1.81,0.81-3.86,1.23-5.84,1.43
			C713.89,73.28,710.98,73.09,707.93,71.92z"/>
		<path class="swspd_st8" d="M246.36,350.59c0.56-0.03,1.26,0.65,1.79,0.96c5,2.94,10.16,5.39,15.99,6.23c1.6,0.23,3.25,0.33,5.22,0.12
			c0.25,0.73,0.19,1.99,0.03,2.7c-0.42,1.86-1.75,2.7-3.55,2.82c-0.87,0.06-1.78,0.03-2.63-0.16c-2.46-0.54-4.89-1.16-7.34-1.77
			c-2.7-0.67-4.78-2.29-6.29-4.55C248.4,355.18,247.39,352.73,246.36,350.59z"/>
	</g>
	<g>
		<path class="swspd_st11" d="M189.77,110.28c0.7,0.88,1.46,1.66,2.26,2.38c0.72,0.64,1.46,1.22,2.24,1.75c0.75,0.51,1.52,0.99,2.3,1.43
			c0.72,0.4,1.45,0.76,2.18,1.12c0.56,0.28,1.14,0.54,1.71,0.78c0.41,0.17,0.82,0.32,1.23,0.46c0.48,0.17,0.96,0.33,1.44,0.49
			c0.11,0.04,0.23,0.07,0.35,0.1c0.48,0.12,0.96,0.23,1.44,0.35c0.08,0.02,0.17,0.05,0.24,0.1c0.12,0.09,0.14,0.22,0.03,0.34
			c-0.06,0.06-0.14,0.11-0.21,0.12c-0.16,0.04-0.32,0.04-0.47,0.07c-0.64,0.15-1.28,0.3-1.91,0.47c-0.78,0.2-1.54,0.49-2.29,0.8
			c-0.6,0.24-1.19,0.5-1.78,0.78c-0.67,0.32-1.33,0.65-1.98,1c-0.99,0.52-1.94,1.11-2.87,1.76c-0.99,0.7-1.93,1.48-2.81,2.35
			c-0.79,0.78-1.51,1.64-2.17,2.58c-0.65,0.92-1.22,1.9-1.71,2.95c-0.23,0.49-0.45,1-0.65,1.51c-0.23,0.58-0.45,1.16-0.65,1.75
			c-0.14,0.41-0.26,0.82-0.38,1.24c-0.14,0.51-0.28,1.02-0.42,1.53c-0.01,0.02-0.02,0.04-0.02,0.07c-0.12,0.59-0.25,1.18-0.36,1.77
			c-0.13,0.66-0.23,1.32-0.33,1.98c-0.12,0.76-0.2,1.52-0.27,2.28c-0.05,0.55-0.13,1.09-0.19,1.64c-0.04,0.44-0.06,0.88-0.1,1.32
			c-0.01,0.14-0.03,0.29-0.07,0.42c-0.03,0.1-0.07,0.21-0.13,0.29c-0.13,0.18-0.3,0.15-0.38-0.07c-0.04-0.12-0.06-0.26-0.07-0.4
			c-0.07-0.63-0.13-1.26-0.19-1.88c-0.02-0.2-0.02-0.4-0.05-0.6c-0.08-0.63-0.15-1.25-0.24-1.88c-0.12-0.81-0.26-1.62-0.41-2.43
			c-0.1-0.58-0.22-1.16-0.34-1.73c-0.1-0.48-0.2-0.96-0.32-1.44c-0.22-0.88-0.45-1.76-0.7-2.63c-0.37-1.28-0.83-2.52-1.37-3.7
			c-0.82-1.79-1.9-3.32-3.16-4.67c-1.05-1.12-2.18-2.11-3.38-3c-1.19-0.88-2.44-1.63-3.72-2.3c-1.13-0.59-2.28-1.09-3.47-1.49
			c-1.05-0.36-2.12-0.66-3.21-0.82c-0.37-0.05-0.73-0.15-1.1-0.21c-0.11-0.02-0.23-0.01-0.34-0.04c-0.08-0.02-0.17-0.05-0.23-0.11
			c-0.11-0.09-0.09-0.23,0.02-0.31c0.04-0.03,0.09-0.05,0.13-0.05c0.09-0.02,0.18-0.03,0.28-0.03c0.74-0.04,1.47-0.11,2.2-0.27
			c0.61-0.13,1.21-0.28,1.81-0.44c0.45-0.12,0.9-0.28,1.34-0.44c0.36-0.13,0.73-0.26,1.08-0.41c0.63-0.27,1.26-0.54,1.89-0.83
			c0.51-0.24,1.02-0.49,1.52-0.77c0.55-0.31,1.11-0.62,1.64-0.98c0.69-0.46,1.37-0.95,2.03-1.47c1.09-0.85,2.1-1.82,3.01-2.95
			c0.8-1,1.48-2.1,2.04-3.31c0.5-1.07,0.92-2.18,1.28-3.33c0.29-0.93,0.56-1.87,0.79-2.82c0.23-0.97,0.47-1.94,0.68-2.91
			c0.14-0.67,0.25-1.36,0.36-2.04c0.09-0.5,0.17-1,0.24-1.51c0.09-0.65,0.17-1.3,0.24-1.95c0.04-0.41,0.07-0.81,0.1-1.22
			c0.01-0.1,0.02-0.21,0.05-0.3c0.03-0.09,0.08-0.19,0.14-0.25c0.13-0.13,0.29-0.09,0.37,0.08c0.04,0.09,0.06,0.2,0.07,0.3
			c0.04,0.51,0.07,1.02,0.11,1.53c0.06,0.81,0.12,1.63,0.2,2.44c0.04,0.47,0.13,0.93,0.18,1.4c0.04,0.44,0.09,0.87,0.19,1.3
			c0.02,0.11,0.04,0.22,0.05,0.33c0.04,0.39,0.1,0.78,0.2,1.15c0.03,0.11,0.04,0.22,0.06,0.33c0.05,0.26,0.11,0.53,0.17,0.79
			c0.01,0.04,0.02,0.08,0.03,0.11c0.11,0.49,0.22,0.99,0.34,1.48c0.11,0.43,0.25,0.85,0.38,1.26c0.1,0.31,0.21,0.61,0.31,0.91
			c0.22,0.66,0.46,1.31,0.74,1.94c0.27,0.59,0.54,1.18,0.83,1.75c0.34,0.68,0.74,1.31,1.17,1.91
			C189.26,109.61,189.51,109.94,189.77,110.28z"/>
	</g>
	<g>
		<path class="swspd_st11" d="M212.35,132.55c0.32,0.46,0.67,0.86,1.05,1.24c0.33,0.33,0.68,0.63,1.04,0.91c0.35,0.27,0.7,0.52,1.06,0.74
			c0.33,0.21,0.67,0.4,1.01,0.58c0.26,0.14,0.53,0.28,0.79,0.41c0.19,0.09,0.38,0.17,0.57,0.24c0.22,0.09,0.44,0.17,0.66,0.25
			c0.05,0.02,0.11,0.04,0.16,0.05c0.22,0.06,0.45,0.12,0.67,0.18c0.04,0.01,0.08,0.03,0.11,0.05c0.06,0.04,0.06,0.12,0.01,0.17
			c-0.03,0.03-0.06,0.06-0.1,0.06c-0.07,0.02-0.15,0.02-0.22,0.04c-0.3,0.08-0.59,0.16-0.88,0.24c-0.36,0.11-0.71,0.26-1.06,0.41
			c-0.28,0.12-0.55,0.26-0.82,0.41c-0.31,0.16-0.61,0.34-0.92,0.52c-0.46,0.27-0.9,0.58-1.33,0.92c-0.46,0.36-0.89,0.77-1.3,1.22
			c-0.36,0.4-0.7,0.85-1,1.34c-0.3,0.48-0.56,0.99-0.79,1.53c-0.11,0.26-0.21,0.52-0.3,0.79c-0.11,0.3-0.21,0.6-0.3,0.91
			c-0.07,0.21-0.12,0.43-0.17,0.65c-0.07,0.26-0.13,0.53-0.19,0.8c0,0.01-0.01,0.02-0.01,0.04c-0.06,0.31-0.12,0.61-0.17,0.92
			c-0.06,0.34-0.11,0.68-0.15,1.03c-0.05,0.39-0.09,0.79-0.13,1.19c-0.03,0.29-0.06,0.57-0.09,0.86c-0.02,0.23-0.03,0.46-0.05,0.69
			c-0.01,0.07-0.02,0.15-0.03,0.22c-0.01,0.05-0.03,0.11-0.06,0.15c-0.06,0.1-0.14,0.08-0.17-0.04c-0.02-0.06-0.03-0.14-0.03-0.21
			c-0.03-0.33-0.06-0.65-0.09-0.98c-0.01-0.1-0.01-0.21-0.02-0.31c-0.04-0.33-0.07-0.65-0.11-0.98c-0.06-0.42-0.12-0.84-0.19-1.26
			c-0.05-0.3-0.1-0.6-0.16-0.9c-0.05-0.25-0.09-0.5-0.15-0.75c-0.1-0.46-0.21-0.92-0.32-1.37c-0.17-0.67-0.38-1.31-0.64-1.93
			c-0.38-0.93-0.88-1.73-1.46-2.43c-0.49-0.59-1.01-1.1-1.56-1.56c-0.55-0.46-1.13-0.85-1.72-1.2c-0.52-0.31-1.06-0.57-1.6-0.78
			c-0.49-0.19-0.98-0.35-1.48-0.43c-0.17-0.03-0.34-0.08-0.51-0.11c-0.05-0.01-0.1-0.01-0.16-0.02c-0.04-0.01-0.08-0.03-0.11-0.06
			c-0.05-0.05-0.04-0.12,0.01-0.16c0.02-0.01,0.04-0.02,0.06-0.03c0.04-0.01,0.09-0.02,0.13-0.02c0.34-0.02,0.68-0.06,1.02-0.14
			c0.28-0.07,0.56-0.15,0.84-0.23c0.21-0.06,0.42-0.15,0.62-0.23c0.17-0.07,0.34-0.13,0.5-0.21c0.29-0.14,0.58-0.28,0.87-0.43
			c0.24-0.12,0.47-0.26,0.7-0.4c0.26-0.16,0.51-0.33,0.76-0.51c0.32-0.24,0.63-0.5,0.94-0.76c0.51-0.44,0.97-0.95,1.39-1.53
			c0.37-0.52,0.68-1.09,0.94-1.72c0.23-0.56,0.43-1.14,0.59-1.73c0.14-0.48,0.26-0.97,0.36-1.47c0.11-0.51,0.22-1.01,0.31-1.52
			c0.07-0.35,0.11-0.71,0.17-1.06c0.04-0.26,0.08-0.52,0.11-0.79c0.04-0.34,0.08-0.68,0.11-1.02c0.02-0.21,0.03-0.42,0.05-0.63
			c0-0.05,0.01-0.11,0.02-0.16c0.01-0.05,0.04-0.1,0.07-0.13c0.06-0.07,0.13-0.05,0.17,0.04c0.02,0.05,0.03,0.1,0.03,0.15
			c0.02,0.27,0.03,0.53,0.05,0.8c0.03,0.42,0.06,0.85,0.09,1.27c0.02,0.24,0.06,0.49,0.08,0.73c0.02,0.23,0.04,0.46,0.09,0.68
			c0.01,0.06,0.02,0.11,0.02,0.17c0.02,0.2,0.04,0.4,0.09,0.6c0.01,0.05,0.02,0.11,0.03,0.17c0.03,0.14,0.05,0.27,0.08,0.41
			c0,0.02,0.01,0.04,0.01,0.06c0.05,0.26,0.1,0.52,0.16,0.77c0.05,0.22,0.11,0.44,0.17,0.66c0.04,0.16,0.1,0.32,0.14,0.48
			c0.1,0.35,0.21,0.68,0.34,1.01c0.12,0.31,0.25,0.61,0.38,0.91c0.16,0.35,0.34,0.68,0.54,0.99
			C212.11,132.2,212.23,132.37,212.35,132.55z"/>
	</g>
	<g>
		<path class="swspd_st11" d="M175.33,160.11c0.27,0.34,0.56,0.64,0.87,0.91c0.27,0.25,0.56,0.47,0.86,0.67c0.29,0.2,0.58,0.38,0.88,0.55
			c0.28,0.15,0.56,0.29,0.84,0.43c0.22,0.11,0.44,0.21,0.66,0.3c0.16,0.07,0.32,0.12,0.47,0.18c0.18,0.06,0.37,0.13,0.55,0.19
			c0.04,0.01,0.09,0.03,0.13,0.04c0.18,0.05,0.37,0.09,0.55,0.14c0.03,0.01,0.06,0.02,0.09,0.04c0.05,0.03,0.05,0.09,0.01,0.13
			c-0.02,0.02-0.05,0.04-0.08,0.05c-0.06,0.01-0.12,0.01-0.18,0.03c-0.25,0.06-0.49,0.12-0.73,0.18c-0.3,0.08-0.59,0.19-0.88,0.31
			c-0.23,0.09-0.46,0.19-0.68,0.3c-0.26,0.12-0.51,0.25-0.76,0.39c-0.38,0.2-0.75,0.43-1.1,0.68c-0.38,0.27-0.74,0.57-1.08,0.91
			c-0.3,0.3-0.58,0.63-0.83,0.99c-0.25,0.35-0.47,0.73-0.66,1.13c-0.09,0.19-0.17,0.39-0.25,0.58c-0.09,0.22-0.17,0.45-0.25,0.67
			c-0.05,0.16-0.1,0.32-0.15,0.48c-0.06,0.2-0.11,0.39-0.16,0.59c0,0.01-0.01,0.02-0.01,0.03c-0.05,0.23-0.1,0.45-0.14,0.68
			c-0.05,0.25-0.09,0.51-0.13,0.76c-0.04,0.29-0.08,0.58-0.1,0.88c-0.02,0.21-0.05,0.42-0.07,0.63c-0.02,0.17-0.02,0.34-0.04,0.51
			c0,0.05-0.01,0.11-0.03,0.16c-0.01,0.04-0.03,0.08-0.05,0.11c-0.05,0.07-0.11,0.06-0.14-0.03c-0.02-0.05-0.02-0.1-0.03-0.15
			c-0.03-0.24-0.05-0.48-0.07-0.73c-0.01-0.08-0.01-0.15-0.02-0.23c-0.03-0.24-0.06-0.48-0.09-0.72c-0.05-0.31-0.1-0.62-0.16-0.93
			c-0.04-0.22-0.09-0.44-0.13-0.67c-0.04-0.19-0.08-0.37-0.12-0.55c-0.09-0.34-0.17-0.68-0.27-1.01c-0.14-0.49-0.32-0.97-0.53-1.43
			c-0.32-0.69-0.73-1.28-1.21-1.8c-0.4-0.43-0.84-0.81-1.3-1.15c-0.46-0.34-0.94-0.63-1.43-0.88c-0.43-0.23-0.88-0.42-1.33-0.57
			c-0.4-0.14-0.81-0.26-1.23-0.32c-0.14-0.02-0.28-0.06-0.42-0.08c-0.04-0.01-0.09,0-0.13-0.01c-0.03-0.01-0.07-0.02-0.09-0.04
			c-0.04-0.04-0.04-0.09,0.01-0.12c0.01-0.01,0.03-0.02,0.05-0.02c0.04-0.01,0.07-0.01,0.11-0.01c0.28-0.01,0.56-0.04,0.84-0.1
			c0.23-0.05,0.47-0.11,0.7-0.17c0.17-0.05,0.35-0.11,0.52-0.17c0.14-0.05,0.28-0.1,0.42-0.16c0.24-0.1,0.49-0.21,0.73-0.32
			c0.2-0.09,0.39-0.19,0.59-0.3c0.21-0.12,0.43-0.24,0.63-0.38c0.26-0.18,0.53-0.37,0.78-0.56c0.42-0.33,0.81-0.7,1.16-1.13
			c0.31-0.38,0.57-0.81,0.79-1.27c0.19-0.41,0.35-0.84,0.49-1.28c0.11-0.36,0.22-0.72,0.3-1.09c0.09-0.37,0.18-0.75,0.26-1.12
			c0.06-0.26,0.09-0.52,0.14-0.79c0.03-0.19,0.07-0.39,0.09-0.58c0.03-0.25,0.06-0.5,0.09-0.75c0.02-0.16,0.03-0.31,0.04-0.47
			c0-0.04,0.01-0.08,0.02-0.12c0.01-0.04,0.03-0.07,0.05-0.1c0.05-0.05,0.11-0.04,0.14,0.03c0.02,0.03,0.02,0.08,0.03,0.11
			c0.02,0.2,0.03,0.39,0.04,0.59c0.02,0.31,0.05,0.63,0.08,0.94c0.02,0.18,0.05,0.36,0.07,0.54c0.02,0.17,0.03,0.34,0.07,0.5
			c0.01,0.04,0.02,0.08,0.02,0.13c0.01,0.15,0.04,0.3,0.08,0.44c0.01,0.04,0.01,0.08,0.02,0.13c0.02,0.1,0.04,0.2,0.06,0.3
			c0,0.01,0.01,0.03,0.01,0.04c0.04,0.19,0.08,0.38,0.13,0.57c0.04,0.16,0.09,0.33,0.15,0.49c0.04,0.12,0.08,0.23,0.12,0.35
			c0.08,0.26,0.18,0.51,0.29,0.75c0.1,0.23,0.21,0.45,0.32,0.67c0.13,0.26,0.29,0.5,0.45,0.74
			C175.13,159.86,175.23,159.98,175.33,160.11z"/>
	</g>
	<g>
		<path class="swspd_st11" d="M970.36,221.36c0.59,0.74,1.23,1.4,1.9,2c0.6,0.54,1.23,1.02,1.88,1.47c0.63,0.43,1.28,0.83,1.94,1.2
			c0.6,0.33,1.22,0.64,1.83,0.94c0.48,0.23,0.96,0.45,1.44,0.66c0.34,0.15,0.69,0.27,1.04,0.39c0.4,0.14,0.81,0.27,1.21,0.41
			c0.1,0.03,0.2,0.06,0.29,0.08c0.41,0.1,0.81,0.19,1.22,0.3c0.07,0.02,0.14,0.04,0.2,0.09c0.1,0.07,0.11,0.19,0.02,0.28
			c-0.05,0.05-0.11,0.09-0.18,0.1c-0.13,0.03-0.27,0.03-0.4,0.06c-0.54,0.13-1.07,0.25-1.61,0.39c-0.66,0.17-1.3,0.42-1.93,0.67
			c-0.5,0.2-1,0.42-1.5,0.66c-0.56,0.27-1.12,0.55-1.67,0.84c-0.83,0.44-1.64,0.93-2.42,1.49c-0.83,0.59-1.62,1.24-2.37,1.98
			c-0.66,0.65-1.27,1.38-1.83,2.17c-0.55,0.77-1.02,1.6-1.44,2.48c-0.2,0.42-0.38,0.84-0.55,1.28c-0.19,0.49-0.38,0.98-0.55,1.48
			c-0.12,0.34-0.22,0.69-0.32,1.04c-0.12,0.43-0.23,0.86-0.35,1.29c-0.01,0.02-0.01,0.04-0.02,0.06c-0.1,0.5-0.21,0.99-0.31,1.49
			c-0.11,0.55-0.2,1.11-0.28,1.66c-0.1,0.64-0.16,1.28-0.23,1.92c-0.05,0.46-0.11,0.92-0.16,1.38c-0.04,0.37-0.05,0.74-0.08,1.11
			c-0.01,0.12-0.03,0.24-0.06,0.36c-0.02,0.09-0.06,0.18-0.11,0.25c-0.11,0.15-0.25,0.13-0.32-0.06c-0.04-0.1-0.05-0.22-0.06-0.33
			c-0.06-0.53-0.11-1.06-0.16-1.59c-0.02-0.17-0.02-0.34-0.04-0.5c-0.06-0.53-0.12-1.06-0.2-1.58c-0.1-0.68-0.22-1.36-0.34-2.04
			c-0.09-0.49-0.19-0.97-0.29-1.46c-0.08-0.41-0.17-0.81-0.27-1.21c-0.19-0.74-0.38-1.48-0.59-2.22c-0.31-1.08-0.7-2.12-1.16-3.12
			c-0.69-1.5-1.6-2.8-2.66-3.93c-0.88-0.95-1.84-1.78-2.85-2.53c-1-0.74-2.05-1.37-3.13-1.93c-0.95-0.49-1.92-0.92-2.92-1.26
			c-0.89-0.3-1.78-0.56-2.7-0.69c-0.31-0.05-0.62-0.12-0.93-0.18c-0.09-0.02-0.19-0.01-0.28-0.03c-0.07-0.02-0.14-0.04-0.2-0.09
			c-0.09-0.08-0.08-0.19,0.02-0.26c0.03-0.02,0.07-0.04,0.11-0.05c0.08-0.01,0.16-0.03,0.23-0.03c0.62-0.03,1.23-0.09,1.85-0.23
			c0.51-0.11,1.02-0.24,1.53-0.37c0.38-0.1,0.76-0.24,1.13-0.37c0.31-0.11,0.61-0.22,0.91-0.35c0.53-0.22,1.06-0.45,1.59-0.7
			c0.43-0.2,0.86-0.42,1.28-0.65c0.47-0.26,0.93-0.53,1.38-0.83c0.58-0.39,1.15-0.8,1.71-1.23c0.92-0.71,1.77-1.53,2.53-2.48
			c0.67-0.84,1.25-1.76,1.72-2.78c0.42-0.9,0.78-1.84,1.08-2.81c0.25-0.78,0.47-1.57,0.66-2.38c0.19-0.82,0.4-1.63,0.57-2.45
			c0.12-0.57,0.21-1.15,0.3-1.72c0.07-0.42,0.14-0.85,0.2-1.27c0.07-0.55,0.14-1.09,0.2-1.64c0.04-0.34,0.06-0.68,0.09-1.03
			c0.01-0.09,0.02-0.18,0.04-0.26c0.03-0.08,0.07-0.16,0.12-0.21c0.11-0.11,0.24-0.08,0.31,0.07c0.03,0.07,0.05,0.16,0.06,0.25
			c0.04,0.43,0.06,0.86,0.1,1.29c0.05,0.69,0.1,1.37,0.17,2.05c0.04,0.4,0.11,0.79,0.15,1.18c0.03,0.37,0.08,0.74,0.16,1.1
			c0.02,0.09,0.03,0.18,0.04,0.28c0.03,0.33,0.08,0.65,0.17,0.97c0.03,0.09,0.03,0.18,0.05,0.28c0.05,0.22,0.09,0.44,0.14,0.67
			c0.01,0.03,0.02,0.06,0.03,0.1c0.1,0.42,0.18,0.83,0.29,1.25c0.09,0.36,0.21,0.71,0.32,1.06c0.08,0.26,0.17,0.51,0.26,0.77
			c0.18,0.56,0.39,1.11,0.63,1.63c0.23,0.5,0.46,0.99,0.7,1.47c0.29,0.57,0.63,1.1,0.99,1.61
			C969.93,220.79,970.14,221.07,970.36,221.36z"/>
	</g>
	<g>
		<path class="swspd_st11" d="M989.37,240.1c0.27,0.39,0.57,0.73,0.88,1.04c0.28,0.28,0.57,0.53,0.87,0.77c0.29,0.23,0.59,0.43,0.9,0.62
			c0.28,0.17,0.56,0.33,0.85,0.49c0.22,0.12,0.44,0.24,0.67,0.34c0.16,0.08,0.32,0.14,0.48,0.2c0.19,0.07,0.37,0.14,0.56,0.21
			c0.04,0.02,0.09,0.03,0.14,0.04c0.19,0.05,0.38,0.1,0.56,0.15c0.03,0.01,0.07,0.02,0.09,0.05c0.05,0.04,0.05,0.1,0.01,0.15
			c-0.02,0.03-0.05,0.05-0.08,0.05c-0.06,0.02-0.12,0.02-0.18,0.03c-0.25,0.07-0.5,0.13-0.74,0.2c-0.3,0.09-0.6,0.22-0.89,0.35
			c-0.23,0.1-0.46,0.22-0.69,0.34c-0.26,0.14-0.52,0.29-0.77,0.44c-0.38,0.23-0.76,0.49-1.12,0.77c-0.38,0.31-0.75,0.65-1.1,1.03
			c-0.31,0.34-0.59,0.72-0.84,1.13c-0.25,0.4-0.47,0.83-0.67,1.29c-0.09,0.22-0.17,0.44-0.25,0.66c-0.09,0.25-0.17,0.51-0.25,0.77
			c-0.06,0.18-0.1,0.36-0.15,0.54c-0.06,0.22-0.11,0.45-0.16,0.67c0,0.01-0.01,0.02-0.01,0.03c-0.05,0.26-0.1,0.52-0.14,0.78
			c-0.05,0.29-0.09,0.58-0.13,0.87c-0.05,0.33-0.08,0.67-0.11,1c-0.02,0.24-0.05,0.48-0.07,0.72c-0.02,0.19-0.02,0.38-0.04,0.58
			c0,0.06-0.01,0.13-0.03,0.19c-0.01,0.05-0.03,0.09-0.05,0.13c-0.05,0.08-0.12,0.07-0.15-0.03c-0.02-0.05-0.02-0.11-0.03-0.17
			c-0.03-0.28-0.05-0.55-0.08-0.83c-0.01-0.09-0.01-0.18-0.02-0.26c-0.03-0.27-0.06-0.55-0.09-0.82c-0.05-0.36-0.1-0.71-0.16-1.06
			c-0.04-0.25-0.09-0.51-0.13-0.76c-0.04-0.21-0.08-0.42-0.13-0.63c-0.09-0.39-0.17-0.77-0.27-1.15c-0.15-0.56-0.32-1.1-0.54-1.62
			c-0.32-0.78-0.74-1.45-1.23-2.05c-0.41-0.49-0.85-0.93-1.32-1.31c-0.46-0.39-0.95-0.71-1.45-1.01c-0.44-0.26-0.89-0.48-1.35-0.65
			c-0.41-0.16-0.83-0.29-1.25-0.36c-0.14-0.02-0.29-0.06-0.43-0.09c-0.04-0.01-0.09-0.01-0.13-0.02c-0.03-0.01-0.07-0.02-0.09-0.05
			c-0.04-0.04-0.04-0.1,0.01-0.14c0.01-0.01,0.03-0.02,0.05-0.02c0.04-0.01,0.07-0.01,0.11-0.02c0.29-0.02,0.57-0.05,0.85-0.12
			c0.24-0.06,0.47-0.12,0.71-0.19c0.18-0.05,0.35-0.12,0.52-0.19c0.14-0.06,0.28-0.11,0.42-0.18c0.25-0.12,0.49-0.24,0.74-0.36
			c0.2-0.1,0.4-0.22,0.59-0.34c0.22-0.13,0.43-0.27,0.64-0.43c0.27-0.2,0.53-0.42,0.79-0.64c0.43-0.37,0.82-0.8,1.17-1.29
			c0.31-0.44,0.58-0.92,0.8-1.45c0.19-0.47,0.36-0.96,0.5-1.46c0.11-0.41,0.22-0.82,0.31-1.24c0.09-0.43,0.18-0.85,0.26-1.28
			c0.06-0.3,0.1-0.6,0.14-0.9c0.03-0.22,0.07-0.44,0.09-0.66c0.03-0.28,0.06-0.57,0.09-0.85c0.02-0.18,0.03-0.36,0.04-0.53
			c0-0.05,0.01-0.09,0.02-0.13c0.01-0.04,0.03-0.08,0.06-0.11c0.05-0.06,0.11-0.04,0.14,0.04c0.02,0.04,0.02,0.09,0.03,0.13
			c0.02,0.22,0.03,0.45,0.04,0.67c0.02,0.36,0.05,0.71,0.08,1.07c0.02,0.21,0.05,0.41,0.07,0.61c0.02,0.19,0.04,0.38,0.07,0.57
			c0.01,0.05,0.02,0.1,0.02,0.15c0.01,0.17,0.04,0.34,0.08,0.5c0.01,0.05,0.01,0.1,0.02,0.14c0.02,0.12,0.04,0.23,0.07,0.35
			c0,0.02,0.01,0.03,0.01,0.05c0.04,0.22,0.08,0.43,0.13,0.65c0.04,0.19,0.1,0.37,0.15,0.55c0.04,0.13,0.08,0.27,0.12,0.4
			c0.08,0.29,0.18,0.58,0.29,0.85c0.1,0.26,0.21,0.52,0.32,0.77c0.13,0.3,0.29,0.57,0.46,0.84
			C989.17,239.81,989.27,239.95,989.37,240.1z"/>
	</g>
	<g>
		<path class="swspd_st11" d="M958.2,263.31c0.23,0.29,0.47,0.54,0.73,0.77c0.23,0.21,0.47,0.39,0.72,0.57c0.24,0.17,0.49,0.32,0.74,0.46
			c0.23,0.13,0.47,0.25,0.7,0.36c0.18,0.09,0.37,0.17,0.55,0.25c0.13,0.06,0.27,0.1,0.4,0.15c0.15,0.05,0.31,0.11,0.46,0.16
			c0.04,0.01,0.07,0.02,0.11,0.03c0.16,0.04,0.31,0.07,0.47,0.11c0.03,0.01,0.05,0.02,0.08,0.03c0.04,0.03,0.04,0.07,0.01,0.11
			c-0.02,0.02-0.04,0.03-0.07,0.04c-0.05,0.01-0.1,0.01-0.15,0.02c-0.21,0.05-0.41,0.1-0.62,0.15c-0.25,0.07-0.5,0.16-0.74,0.26
			c-0.19,0.08-0.39,0.16-0.58,0.25c-0.22,0.1-0.43,0.21-0.64,0.32c-0.32,0.17-0.63,0.36-0.93,0.57c-0.32,0.23-0.62,0.48-0.91,0.76
			c-0.26,0.25-0.49,0.53-0.7,0.83c-0.21,0.3-0.39,0.62-0.55,0.96c-0.08,0.16-0.14,0.32-0.21,0.49c-0.07,0.19-0.14,0.38-0.21,0.57
			c-0.05,0.13-0.08,0.27-0.12,0.4c-0.05,0.16-0.09,0.33-0.13,0.5c0,0.01,0,0.01-0.01,0.02c-0.04,0.19-0.08,0.38-0.12,0.57
			c-0.04,0.21-0.07,0.43-0.11,0.64c-0.04,0.25-0.06,0.49-0.09,0.74c-0.02,0.18-0.04,0.35-0.06,0.53c-0.01,0.14-0.02,0.28-0.03,0.43
			c0,0.05-0.01,0.09-0.02,0.14c-0.01,0.03-0.02,0.07-0.04,0.09c-0.04,0.06-0.1,0.05-0.12-0.02c-0.01-0.04-0.02-0.08-0.02-0.13
			c-0.02-0.2-0.04-0.41-0.06-0.61c-0.01-0.06-0.01-0.13-0.02-0.19c-0.02-0.2-0.05-0.41-0.08-0.61c-0.04-0.26-0.08-0.52-0.13-0.79
			c-0.03-0.19-0.07-0.37-0.11-0.56c-0.03-0.16-0.07-0.31-0.1-0.47c-0.07-0.29-0.15-0.57-0.23-0.85c-0.12-0.41-0.27-0.82-0.44-1.2
			c-0.27-0.58-0.61-1.08-1.02-1.51c-0.34-0.36-0.71-0.69-1.09-0.97c-0.39-0.29-0.79-0.53-1.2-0.74c-0.37-0.19-0.74-0.35-1.12-0.48
			c-0.34-0.12-0.69-0.22-1.04-0.27c-0.12-0.02-0.24-0.05-0.36-0.07c-0.04-0.01-0.07,0-0.11-0.01c-0.03-0.01-0.05-0.02-0.08-0.04
			c-0.03-0.03-0.03-0.07,0.01-0.1c0.01-0.01,0.03-0.01,0.04-0.02c0.03-0.01,0.06-0.01,0.09-0.01c0.24-0.01,0.47-0.04,0.71-0.09
			c0.2-0.04,0.39-0.09,0.59-0.14c0.15-0.04,0.29-0.09,0.43-0.14c0.12-0.04,0.23-0.08,0.35-0.13c0.2-0.09,0.41-0.17,0.61-0.27
			c0.17-0.08,0.33-0.16,0.49-0.25c0.18-0.1,0.36-0.2,0.53-0.32c0.22-0.15,0.44-0.31,0.66-0.48c0.35-0.27,0.68-0.59,0.97-0.96
			c0.26-0.32,0.48-0.68,0.66-1.07c0.16-0.35,0.3-0.71,0.42-1.08c0.09-0.3,0.18-0.61,0.25-0.92c0.07-0.31,0.15-0.63,0.22-0.94
			c0.05-0.22,0.08-0.44,0.12-0.66c0.03-0.16,0.06-0.33,0.08-0.49c0.03-0.21,0.05-0.42,0.08-0.63c0.01-0.13,0.02-0.26,0.03-0.4
			c0-0.03,0.01-0.07,0.02-0.1c0.01-0.03,0.03-0.06,0.05-0.08c0.04-0.04,0.09-0.03,0.12,0.03c0.01,0.03,0.02,0.06,0.02,0.1
			c0.01,0.17,0.02,0.33,0.04,0.5c0.02,0.26,0.04,0.53,0.06,0.79c0.01,0.15,0.04,0.3,0.06,0.45c0.01,0.14,0.03,0.28,0.06,0.42
			c0.01,0.03,0.01,0.07,0.02,0.11c0.01,0.13,0.03,0.25,0.07,0.37c0.01,0.03,0.01,0.07,0.02,0.11c0.02,0.09,0.04,0.17,0.05,0.26
			c0,0.01,0.01,0.02,0.01,0.04c0.04,0.16,0.07,0.32,0.11,0.48c0.04,0.14,0.08,0.27,0.12,0.41c0.03,0.1,0.07,0.2,0.1,0.3
			c0.07,0.22,0.15,0.43,0.24,0.63c0.09,0.19,0.17,0.38,0.27,0.57c0.11,0.22,0.24,0.42,0.38,0.62
			C958.04,263.09,958.12,263.2,958.2,263.31z"/>
	</g>
</g>
</svg>
