<?xml version="1.0" encoding="utf-8"?>
<!-- Generator: Adobe Illustrator 26.4.1, SVG Export Plug-In . SVG Version: 6.00 Build 0)  -->
<svg version="1.1" id="Semana_Nacional_De_La_Prevencion_Del_Suicidio"
	 xmlns="http://www.w3.org/2000/svg" xmlns:xlink="http://www.w3.org/1999/xlink" x="0px" y="0px" viewBox="0 0 1080 360"
	 style="enable-background:new 0 0 1080 360;" xml:space="preserve">
<style type="text/css">
	.st0{clip-path:url(#SVGID_00000087395515762727659420000013565721296189297826_);fill:#EFF6F9;}
	.st1{fill:#534684;}
	.st2{fill:#3D2F72;}
	.st3{fill:#3C2E71;}
	.st4{fill:#514483;}
	.st5{fill:#514484;}
	.st6{fill:#514584;}
	.st7{fill:#524584;}
	.st8{fill:#FEFE5E;}
</style>
<g>
	<g id="Cloud_Bubble">
		<defs>
			<rect id="SVGID_1_" x="75" y="20" width="930" height="319.77"/>
		</defs>
		<clipPath id="SVGID_00000115503322219347253810000012131578213112343697_">
			<use xlink:href="#SVGID_1_"  style="overflow:visible;"/>
		</clipPath>
		<path style="clip-path:url(#SVGID_00000115503322219347253810000012131578213112343697_);fill:#EFF6F9;" d="M989.66,199.15
			c6.99,13.17,15.25,25.17,5.85,39.83c-6.95,11.25-19.1,17.49-30.62,23.12c-32.94,15.59-69.5,21.08-105.62,22.88
			c-33.12,2.41-66.24-2.4-98.19-10.97c-30.59-8.24-56.33-10.02-86.51,1.21c-9.03,3.25-17.51,7.8-26.31,11.59
			c-6.26,2.68-12.76,4.84-19.45,6.14c-12.56,2.55-25.48,1.66-38.15,0.44c-10.39-1.02-20.84-2.37-31.28-1.32
			c-8.8,0.78-17.42,2.67-25.88,5.18c-11.29,3.33-22.26,7.7-32.66,13.22c-29.32,15.67-52.78,29.2-87.36,28.72
			c-8.14-0.06-16.25-1.05-24.24-2.54c-9.08-1.7-18.05-4.05-27.25-5.06c-8.47-0.89-17.06-1.08-25.53-0.49
			c-11.75,0.76-23.34,2.93-35.04,4.14c-20.96,2.28-41.82-2.46-61.78-8.49c-17.76-5.04-35.8-10.4-54.42-9.9
			c-12.17,0.39-24.22,2.44-36.17,4.67c-15.83,2.98-27.57,5.92-43.59-0.7c-18.13-7.09-30.36-20.12-26.71-40.94
			c1.76-11.16,8.25-20.83,12.48-31.09c1.58-3.92,2.72-8.06,2.87-12.3c0.42-9.71-3.7-19.16-2.24-28.83
			c2.09-13.75,14.65-21.98,25.82-28.39c8.58-5.04,18.37-7.99,26.42-13.92c6.03-4.85,10.91-11.76,11.61-19.63
			c0.66-5.62-0.27-11.45,1.35-16.94c2.94-8.45,9.61-14.04,17.76-17.23c15.83-6.05,32.97-7.51,49.78-8.04
			c8.32-0.16,16.64-0.08,24.95,0.21c1.5-0.15,3.01-0.3,4.51-0.44c5.16-0.49,10.38-0.86,15.56-0.52c0.12-0.07,0.26-0.1,0.41-0.09
			c12.59,1.28,25.12,3.04,37.63,4.99c8.59,1.38,17.21,2.62,25.9,3.15c15.28,0.91,30.57-1.41,45.35-5.14
			c11.92-3.03,23.52-7.45,34.6-12.66c6.8-3.21,13.52-6.63,20.54-9.32c10.12-3.95,20.8-6.5,31.67-7.02
			c12.78-0.6,25.56,0.68,38.22,2.29c8.71,1.09,17.39,2.42,26.16,2.9c19.52,0.98,39.18-2.45,57.49-9.2
			c11.55-4.34,22.66-9.85,32.92-16.71c7.65-4.98,14.84-10.6,22.34-15.79c7.21-4.95,14.88-9.27,22.94-12.67
			c17.86-7.11,41.68-7.39,60.48-4.39c16.82,2.84,32.46,10.05,48.31,16.05c8.99,3.43,18.17,6.53,27.69,8.08
			c7.27,1.18,14.81,1.31,22.12,1.14c6.7-0.14,13.4-0.43,20.1-0.09c6.32,0.3,12.6,1.29,18.72,2.87c13.14,3.49,25.91,8.22,38.93,12.12
			c14.95,4.71,30.39,7.82,45.08,13.34c21.1,8.05,45.38,22.88,46.64,47.84c0.47,10.49-4.35,20.1-7.84,29.72
			c-2.59,7.26-4.24,14.99-3.61,22.73C983.06,184.75,986.06,192.2,989.66,199.15z M292.33,107.07c0.71,0.09,1.43,0.18,2.14,0.28
			c-6.54-0.99-13.08-1.9-19.65-2.54c-0.64-0.07-1.29-0.14-1.93-0.21c-0.41,0.18-0.92-0.02-1.36-0.04c-2.33-0.27-4.68-0.32-7.02-0.3
			c-0.78,0.01-1.55,0.04-2.32,0.07C272.27,104.95,282.32,105.88,292.33,107.07z"/>
		<path style="clip-path:url(#SVGID_00000115503322219347253810000012131578213112343697_);fill:#EFF6F9;" d="M315.86,114
			c-10.51-1.62-20.92-3.8-31.42-5.44c-1.72-0.28-3.44-0.54-5.16-0.82c-1.07-0.27-2.45-0.15-3.32-0.86
			c-5.86-0.45-11.74-1.05-17.62-0.91c-0.43,0.11-0.88-0.21-0.97-0.63c-0.17-0.99,1-1.09,1.71-1.05c0.91,0,1.82,0.02,2.73,0.05
			c0.36-0.68,1.26-0.5,1.9-0.55c1.28-0.01,2.56,0.06,3.84,0.13c5.42,0.28,10.82,0.84,16.18,1.69c2.59,0.42,5.19,0.63,7.79,0.98
			c1.03,0.22,4.74,0.32,3.36,2.08c4.56,0.81,9.12,1.67,13.68,2.47c2.53,0.44,5.06,0.87,7.6,1.25
			C317.2,112.6,316.92,114.16,315.86,114z"/>
	</g>
	<path class="st1" d="M869.62,219.98c-0.12,0.09-0.25,0.09-0.58,0.08"/>
	<path class="st2" d="M457.58,209.99c1.38-1.52,0.8-3.23-1.26-3.52c-1-0.14-2.11-0.03-3.08,0.26c-3.51,1.05-6.65,2.83-9.47,5.17
		c-0.5,0.42-0.95,0.95-1.3,1.5c-0.84,1.36-0.22,2.75,1.34,3c0.26,0.04,0.88-0.06,0.95-0.08c3.86-1.07,7.57-2.8,11.15-4.98"/>
	<path class="st3" d="M448.9,216.81c0.29-0.1,2.04-0.62,2.8-0.73c1.69-0.25,2.79-0.04,3.95-0.03c2.44,0.02,4.03,1.51,5.36,3.35
		c1.84,2.54,2.57,5.51,3.17,8.51c0.13,0.65,0.16,1.33,0.21,2.24c-1.7,1.17-3.12,2.41-4.51,3.72c-1.51,1.43-3.1,2.82-4.82,3.97
		c-1.35,0.9-2.12,2.49-4.19,2.91c-1.55-0.76-2.73-0.62-3.93-0.19c-3.21,1.15-5.31,3.46-6.72,6.47c-0.36,0.76-0.61,1.58-0.9,2.37
		c-0.8,0.24-1.61,0.44-2.39,0.74c-0.7,0.26-1.35,0.67-2.05,0.94c-2.39,0.92-4.84,1.5-7.67,1.21c0.41-8.71,2.57-16.97,7.36-24.38
		c2.87-4.43,6.5-8.33,11.91-10.18"/>
	<path class="st1" d="M781.54,130.89"/>
	<path class="st3" d="M386.8,190.63c-0.58-2.39-1.31-5.78-1.89-8.17c-0.58-2.4-1.11-4.81-1.77-7.19c-0.38-1.37-0.88-2.71-1.47-4
		c-0.39-0.84-0.95-1.65-1.59-2.33c-1.14-1.19-2.38-0.84-2.64,0.75c-0.23,1.4-0.29,2.83-0.35,4.25c-0.03,0.85-0.22,2.43-0.07,3.44
		c-1.55-0.64-2.19-2.74-3.08-3.93c-2.73-3.64-5.55-7.2-8.91-10.3c-0.64-0.59-1.23-1.2-2.19-1.16c-0.03-0.09-0.08-0.18-0.08-0.28
		c0.07-6.69,0.07-13.38,0.26-20.07c0.04-1.48,0.55-3.01,1.1-4.42c1.17-2.99,3.42-4.71,6.61-5.3c2.04-0.38,4.01-0.16,5.97,0.3
		c1.34,0.32,2.43,1.18,3.23,2.28c1,1.39,2.03,2.81,2.72,4.36c1.27,2.88,2.35,5.84,3.43,8.81c0.98,2.69,1.81,5.44,2.77,8.14
		c0.41,1.17,0.93,2.3,1.49,3.41c0.3,0.59,0.73,1.13,1.19,1.6c0.89,0.89,2.02,0.69,2.55-0.49c0.35-0.77,0.65-1.64,0.64-2.46
		c0-2.29-0.09-4.58-0.31-6.86c-0.31-3.23-0.78-6.45-1.17-9.68c-0.03-0.28-0.05-0.57-0.06-0.86c-0.17-3.41,0.78-4.58,4.23-4.62
		c2.87-0.04,5.74,0.27,8.51,1.09c2.88,0.86,4.45,2.85,4.79,5.8c0.11,0.95,0.11,1.91,0.11,2.87c-0.03,15.98,2.72,32.2-0.11,47.93
		c-0.25,1.41-0.75,3.86-0.81,5.35c-1.79,0.22-3.06-0.57-4.49-0.64c-1.03-0.05-2.06-0.2-3.07-0.43c-4.8-1.11-8.99-3.44-12.72-6.62
		C388.73,190.44,387.99,190.77,386.8,190.63z"/>
	<path class="st4" d="M711.93,171.53c-0.01,1.15-0.06,3.14-0.1,4.28c-0.31,8.52-0.69,17.03-0.94,25.55
		c-0.2,7.18-0.44,14.36-1.24,21.5c-0.31,2.75-0.95,5.46-1.53,8.17c-0.22,1.02-0.63,2.01-1.05,2.97c-1.8,4.17-5.01,6.49-9.51,6.79
		c-2.66,0.18-5.37,0.19-8.03-0.07c-4.65-0.44-8.03-2.85-9.96-7.18c-0.98-2.2-1.72-4.48-2.08-6.85c-0.59-3.88-1.25-7.76-1.54-11.66
		c-0.92-12.33-0.52-23.76-0.12-36.12c0.01-0.38,0.1-2.21,0.19-2.95c1.09,0.43,1.79,1.71,2.54,2.4c1.09,1.01,2.31,1.58,3.82,1.52
		c1.5-0.06,3,0.04,4.46-0.5c0.96-0.36,2.08-1.31,3.09-1.53c0.01,1.24,0.01,3.33-0.05,4.57c-0.35,7.38-0.21,14.74,0.26,22.11
		c0.08,1.33,0.32,2.66,0.52,3.98c0.07,0.47,0.2,0.94,0.37,1.38c0.32,0.84,0.77,1.56,1.82,1.57c0.79,0.01,1.46-0.53,1.75-1.62
		c0.3-1.1,0.56-2.24,0.65-3.38c0.26-3.34,0.48-6.68,0.62-10.03c0.28-6.7,0.65-14.47,1.22-21.4c1.26-0.41,2.04,0.53,2.94,0.28
		C703.96,174.21,707.91,172.14,711.93,171.53z"/>
	<path class="st3" d="M270.09,164.31c-0.05-0.57-0.14-1.14-0.15-1.71c-0.16-10.42-0.33-20.85-0.44-31.27
		c-0.02-1.81,0.13-3.64,0.41-5.42c0.21-1.3,0.65-2.6,1.2-3.8c1.09-2.39,2.96-4.02,5.54-4.59c5.76-1.27,10.16,0.28,13.09,4.71
		c1.04,1.58,1.79,3.36,2.58,5.1c0.55,1.21,0.93,2.51,1.43,3.75c0.17,0.43,0.47,0.82,0.75,1.21c0.1,0.13,0.32,0.17,0.49,0.25
		c0.83-0.24,1.13-0.97,1.45-1.65c0.58-1.21,1.06-2.47,1.71-3.63c0.79-1.41,1.6-2.85,2.63-4.08c1.92-2.28,4.39-3.16,7.43-2.7
		c7.51,1.16,11.44,6.12,12.4,12.07c0.21,1.32,0.41,2.65,0.42,3.98c0.04,8.51-0.13,17.41-0.42,26.18c-2.75,0.32-4.77-1.06-6.88-2.12
		c-1.69-0.85-3.24-1.97-4.83-3c-3.17-2.05-6.73-3.03-10.4-3.54c-1.67-0.23-3.44-0.16-5.12,0.11c-2.33,0.37-4.61,1.05-6.91,1.6
		c-1.35-0.25-2.44,0.11-3.48,1.54c-3.94,1.59-7.02,3.97-10.4,5.8C271.78,163.54,270.92,163.91,270.09,164.31z"/>
	<path class="st4" d="M489.94,214.46c0.41,1.35,0.85,3.19,1.32,4.52c0.34,0.97,0.76,1.93,1.28,2.82c0.43,0.75,1.4,0.82,1.93,0.15
		c0.52-0.65,1.05-1.38,1.28-2.17c0.43-1.44,1.22-4.06,1.46-5.57c3.28,0.39,5.48,2.94,7.7,4.91c0.85,0.76,1.63,1.6,2.43,2.42
		c0.48,0.49,1.15,0.27,1.89,0.25c-0.26,4.1-0.64,8.82-0.93,12.92c-0.27,3.82-0.56,7.63-0.92,11.44c-0.27,2.88-1.09,5.63-2.32,8.25
		c-1.89,4.04-4.84,7.08-8.78,9.15c-0.51,0.27-1.02,0.55-1.57,0.7c-1.39,0.4-2.64,0.15-3.68-0.94c-1.01-1.06-1.62-2.36-2.13-3.7
		c-1.11-2.87-1.65-5.89-2.24-8.89c-0.59-3-1.1-6.02-1.78-9c-0.29-1.29-0.79-2.57-1.43-3.72c-0.74-1.34-2.28-1.27-2.95,0.08
		c-0.38,0.76-0.64,1.62-0.73,2.45c-0.21,1.99-0.5,4.02-0.38,6c0.3,4.87,0.8,9.72,1.24,14.58c0.12,1.33,0.34,2.66,0.46,3.99
		c0.18,1.91-0.37,3.63-1.61,5.06c-2.72,3.15-6.26,5-10.24,5.99c-1.62,0.4-2.88-0.42-3.22-2.05c-0.25-1.21-0.35-2.47-0.31-3.7
		c0.26-7.36,0.52-14.73,0.91-22.09c0.38-7.17,1-15.01,1.77-22.4c2.42-1.79,4.49-2.63,6.58-4.23c3.49-2.67,7.29-4.74,11.42-6.21
		C487.58,215.05,488.69,214.39,489.94,214.46z"/>
	<path class="st5" d="M674.06,172.77c0.79,2.98,0.39,6.68-0.57,9.52c-0.39,1.15-1.04,2.29-1.83,3.2c-2.41,2.77-6.28,2.48-8.34-0.55
		c-0.99-1.45-1.42-3.12-1.91-4.78c-0.37-1.28-0.75-2.58-1.28-3.8c-0.51-1.17-1.78-1.61-2.88-1.04c-0.48,0.25-0.97,0.69-1.2,1.17
		c-0.93,1.95-1.07,4.07-0.89,6.18c0.14,1.61,1.15,2.81,2.27,3.89c0.9,0.86,1.84,1.68,2.76,2.51c1.42,1.29,2.87,2.54,4.25,3.87
		c5.69,5.49,8.77,12.26,9.51,20.07c0.4,4.29,0.39,8.61-0.46,12.88c-0.47,2.36-1.17,4.64-2.41,6.73c-1.88,3.18-4.55,5.38-8.12,6.46
		c-3.46,1.04-6.99,1.22-10.51,0.45c-3.94-0.86-6.92-3.18-9.13-6.5c-2.11-3.17-3.38-6.68-3.7-10.45c-0.32-3.73-0.27-7.48,0.53-11.16
		c0.28-1.3,0.66-2.62,1.26-3.8c1.47-2.89,4.82-3.37,7.21-1.13c0.93,0.87,1.57,1.95,1.89,3.17c0.44,1.66,0.75,3.36,1.15,5.03
		c0.31,1.3,0.54,2.65,1.06,3.86c0.97,2.23,3.36,2.39,4.76,0.4c0.96-1.37,1.36-2.96,1.54-4.58c0.17-1.61,0.16-3.25,0.21-4.88
		c0.06-1.76-0.69-3.17-2.05-4.23c-0.83-0.65-1.73-1.21-2.62-1.75c-1.23-0.74-2.49-1.42-3.73-2.15c-5.07-2.99-8.14-7.45-9.52-13.1
		c-0.45-1.86-0.71-4.53-0.82-6.64c0.98-0.17,1.47,0.15,1.96-0.31c3.05-2.86,6.35-5.43,9.97-7.52c5.42-3.12,11.12-4.34,17.19-1.98
		c0.88,0.34,1.67,0.88,2.55,1.24C672.77,173.28,673.43,172.61,674.06,172.77z"/>
	<path class="st3" d="M413.07,198.25c-0.04-0.28-0.11-0.57-0.11-0.85c0.15-9.08,0.26-18.17,0.49-27.25c0.11-4.3,0.37-8.6,0.77-12.88
		c0.26-2.75,0.87-5.46,1.36-8.19c0.1-0.56,0.31-1.1,0.48-1.65c1.58-5.05,4.91-8.15,10.23-8.74c4.38-0.49,8.77-0.59,13.14,0.24
		c4,0.76,6.69,3.06,8.19,6.82c1.4,3.51,1.9,7.19,2.22,10.91c0.88,10.21,0.54,20.45,0.15,30.94c-1.58,0.5-2.72-0.08-3.89-0.46
		c-3.91-1.25-7.84-1.39-11.82-0.39c-0.32-0.33-0.59-0.76-0.98-0.98c-1.31-0.76-3.4-0.4-4.11,0.93c-0.3,0.56-0.33,1.25-0.4,2.14
		c-0.94,0.61-1.63,0.95-2.26,1.37c-2.87,1.89-5.71,3.82-8.59,5.7C416.44,196.92,414.88,197.86,413.07,198.25z M437.52,154.6
		c-1.63-1.87-3.77-2.12-6.04-1.85c-1.34,0.16-2.34,0.89-2.85,2.13c-1.97,4.7,0.35,9.2,5.53,8.94c0.57-0.03,1.15-0.03,1.72-0.11
		c1.36-0.21,2.24-0.95,2.57-2.34C438.97,159.14,438.9,157,437.52,154.6z"/>
	<path class="st4" d="M375.1,247.25c0.09,0.66,0.32,2.31,0.32,2.97c0.12,10.05,0.22,20.09,0.32,30.14c0.02,1.92-0.14,3.82-0.7,5.67
		c-1.88,6.27-7.16,7.43-11.4,6.77c-1.59-0.25-2.83-1.1-3.84-2.32c-1.3-1.57-2.27-3.34-2.9-5.25c-1.12-3.35-2.12-6.75-3.09-10.14
		c-1-3.49-1.86-7.02-2.88-10.51c-0.43-1.46-1.04-2.88-1.7-4.25c-0.36-0.76-0.93-1.45-1.54-2.04c-0.89-0.87-1.79-0.57-2.12,0.64
		c-0.47,1.7-0.29,3.41-0.12,5.13c0.67,6.96,2.09,13.8,3.38,20.66c0.09,0.47,0.24,0.93,0.27,1.4c0.15,2.05-0.89,3.67-2.89,4.01
		c-3.16,0.54-6.3,0.38-9.27-1c-1.79-0.83-2.74-2.36-3.15-4.21c-0.27-1.21-0.43-2.46-0.49-3.69c-0.51-10.22-0.98-21.14-1.16-31.63
		c1.25-0.35,2.19,0.27,3.14,0.18c0.94-0.1,1.88-0.3,2.82-0.32c2.97-0.07,5.86,0.45,8.68,1.36c2.18,0.7,4.31,1.53,6.52,2.13
		c1.82,0.49,3.71,0.99,5.57,0.99c1.76,0.01,3.56-0.52,5.29-0.99C368.04,251.88,371.53,249.05,375.1,247.25z"/>
	<path class="st4" d="M824.56,198.79c0.44,1.15,0.93,2.28,1.3,3.45c1.77,5.74,2.46,11.57,1.79,17.58c-0.34,3.05-0.48,6.12-1.34,9.07
		c-0.48,1.65-1.04,3.29-1.79,4.83c-1.59,3.25-4.19,5.36-7.63,6.54c-3.14,1.07-6.39,1.27-9.63,1.34c-3.44,0.08-6.89-0.14-10.33-0.29
		c-0.85-0.04-1.69-0.3-2.53-0.5c-2.52-0.6-4.27-2.16-5.18-4.54c-0.58-1.51-1.03-3.09-1.33-4.68c-0.33-1.78-0.54-3.61-0.61-5.42
		c-0.31-8.23-0.09-17.24,0.66-25.67c0.64-0.21,0.78,0.6,1.05,0.54c4.19-0.83,8.36-1.78,12.6-2.41c3.68-0.54,7.33-1.12,11.06-1.02
		c2.95,0.08,5.92-0.2,8.83,0.58C822.49,198.48,823.53,198.6,824.56,198.79z M812.4,214.84c0.03-0.19,0.05-0.38,0.08-0.57
		c0.29-1.98-0.08-3.81-1.23-5.46c-1.39-2.01-3.07-3.68-5.41-4.52c-2.08-0.75-3.28-0.13-3.95,1.98c-0.14,0.45-0.27,0.93-0.3,1.4
		c-0.15,2.96-0.33,5.92-0.38,8.88c-0.02,1.13,0.2,2.29,0.47,3.4c0.33,1.34,1.14,1.99,2.49,1.9c1.03-0.06,2.1-0.26,3.04-0.67
		C809.81,220.06,811.44,217.99,812.4,214.84z"/>
	<path class="st3" d="M764.87,134.79c-0.09-2.94,0.4-7.22,0.82-10.34c1.2-8.81,2.49-17.6,3.84-26.39c0.39-2.54,1.04-5.05,1.66-7.55
		c0.28-1.1,0.74-2.17,1.22-3.2c1.17-2.5,3.19-3.84,5.94-3.73c5.79,0.24,11.13,1.65,15.26,6.13c2.69,2.92,4.79,6.19,6.5,9.74
		c3.75,7.78,5.68,16.03,5.95,24.62c0.1,3.13-0.4,6.29-0.93,9.54c-5.1-1.73-10-2.92-15.17-2.63c-0.75,0.04-1.52,0.04-2.26-0.06
		c-0.33-0.04-0.86-0.11-1.06-0.45c2.43-1.61,3.87-4.02,4.52-6.62c1.1-4.44-3.02-10.31-6.14-11.65c-1.51-0.65-2.62-0.22-3.28,1.23
		c-0.23,0.52-0.44,1.06-0.55,1.62c-0.76,3.83-1.4,7.68-1.4,11.61c0,1.26,0.2,2.46,0.69,3.82c-0.25,0.88-0.77,0.98-1.36,1.09
		c-2.86,0.53-5.7,1.17-8.58,1.62C768.68,133.49,766.79,135.05,764.87,134.79z"/>
	<path class="st3" d="M566.17,212.03c0.01-1.15-0.04-2.29,0.03-3.44c0.3-4.87,0.59-9.75,0.96-14.62c0.62-8.02,1.19-16.05,2.88-23.93
		c0.52-2.42,1.32-4.8,2.22-7.1c1.24-3.19,3.61-5.34,6.76-6.67c3.42-1.44,6.95-2.08,10.66-1.74c1.74,0.16,3.41,0.59,4.92,1.46
		c2.33,1.35,3.67,3.35,3.6,6.1c-0.1,4.32-0.71,8.58-1.87,12.75c-0.05,0.18-0.13,0.36-0.2,0.54c-1.62,4.51-4.19,6.2-8.97,5.91
		c-1.05-0.06-2.1-0.14-3.15-0.17c-1.06-0.03-1.82,0.52-2.35,1.39c-0.83,1.35-1.09,2.86-1.01,4.41c0.09,1.58,0.93,2.53,2.5,2.64
		c1.42,0.1,2.86-0.08,4.3-0.13c0.86-0.03,1.72-0.11,2.57-0.02c1.25,0.13,2.12,0.86,2.48,2.08c0.21,0.73,0.41,1.49,0.45,2.24
		c0.19,3.46-0.1,6.89-0.76,10.29c-0.18,0.93-0.53,1.84-0.92,2.71c-0.67,1.52-1.88,2.4-3.57,2.49c-1.53,0.08-3.06,0.08-4.59,0.15
		c-2.05,0.09-2.56,0.44-3.09,2.31c-0.51,1.77-0.69,3.58-0.13,5.38c0.38,1.23,1.11,1.7,2.39,1.47c0.75-0.13,1.48-0.38,2.22-0.58
		c1.11-0.3,2.21-0.63,3.33-0.89c2.51-0.57,4.55,0.01,5.7,2.83c-2.13,1.48-4.25,1.61-6.45,0.99c-0.54-0.15-1.13-0.24-1.69-0.21
		c-2.6,0.11-4.83-0.89-6.93-2.26c-1.11-0.72-2.08-1.69-3.24-2.31C572.29,214.57,569.5,212.7,566.17,212.03z"/>
	<path class="st3" d="M634.66,104.52c0.26-7.36,0.42-14.72,0.82-22.07c0.35-6.28,4.13-10.46,10.26-11.8
		c0.28-0.06,0.58-0.06,0.85-0.15c3.23-0.99,5.66,0.27,7.41,2.89c1.11,1.66,2.02,3.47,2.83,5.3c1.04,2.36,1.85,4.82,2.84,7.2
		c0.48,1.14,1.04,2.27,1.77,3.26c0.99,1.33,2.4,1.16,3.26-0.28c0.6-1.01,0.9-2.13,0.86-3.29c-0.07-2.1-0.24-4.2-0.37-6.29
		c-0.14-2.19-0.3-4.39-0.44-6.58c-0.11-1.68,0.74-2.78,2.29-3.2c3.73-1.01,7.53-1.39,11.34-0.5c2.1,0.49,3.2,1.86,3.22,4.17
		c0.03,2.67-0.12,5.36-0.33,8.02c-0.44,5.63-0.96,11.24-1.47,16.86c-0.2,2.19-0.45,4.38-0.94,6.84c-1.92,1.39-3.51,2.61-5.24,3.59
		c-2.86,1.61-5.78,1.84-8.62-0.16c-0.78-0.55-1.56-1.1-2.35-1.63c-2.38-1.58-4.74-3.21-7.37-4.36c-0.7-0.3-1.28-0.34-2.1-0.15
		c-0.22-0.78-0.75-1.74-1.16-2.37c-0.52-0.82-1.17-1.58-2.25-1.48c-1.01,0.09-2.14,1.57-2.06,2.83c-3.73,0.54-6.85,0.49-9.95,2
		C636.75,103.65,635.7,104.07,634.66,104.52z"/>
	<path class="st5" d="M360.5,159.22c0.06,0.85,0.18,1.71,0.18,2.56c0.02,11.19,0.05,22.39,0,33.58c-0.01,1.61-0.22,3.25-0.59,4.82
		c-0.6,2.52-2,3.46-4.58,3.39c-2.15-0.07-4.13-0.71-5.99-1.77c-2.05-1.17-3.21-3.02-3.67-5.25c-0.34-1.68-0.5-3.41-0.56-5.12
		c-0.11-3.06-0.02-6.12-0.12-9.18c-0.06-1.71-0.28-3.43-0.53-5.13c-0.11-0.74-0.38-1.48-0.72-2.16c-0.46-0.91-1.26-1.4-2.3-1.48
		c-0.87-0.06-1.59,0.22-1.83,1.05c-0.4,1.36-0.78,2.77-0.88,4.18c-0.21,2.96-0.22,5.93-0.32,8.89c-0.06,1.72-0.11,3.44-0.25,5.16
		c-0.07,0.85-0.27,1.71-0.56,2.5c-0.78,2.13-2.19,2.98-4.47,2.73c-0.85-0.09-1.7-0.28-2.53-0.5c-4.13-1.09-6.63-3.63-7.02-8.02
		c-0.09-1.05-0.29-2.09-0.28-3.14c0.02-8.13-0.08-17.03,0.26-25.41c1.05-0.37,1.98,0.37,2.69,0.14c2.37-0.74,4.71-1.56,7.06-2.34
		c3.72-1.24,7.58-1.89,11.43-2.37c4.33-0.53,8.55,0.38,12.56,2.07C358.46,158.85,359.41,159.28,360.5,159.22z"/>
	<path class="st4" d="M515.95,144.67c-0.04,3.83-0.12,8.34-0.2,12.17c-0.07,2.97-0.17,5.94-0.37,8.89
		c-0.48,6.93-2.86,13.07-8.07,17.85c-1.33,1.22-2.85,2.27-4.41,3.18c-2.24,1.31-4.04,0.9-5.41-1.32c-0.94-1.53-1.71-3.23-2.21-4.95
		c-1.08-3.77-1.9-7.61-2.88-11.4c-0.43-1.66-0.91-3.32-1.5-4.93c-0.32-0.88-0.83-1.74-1.43-2.46c-1.04-1.23-2.57-0.91-3.18,0.6
		c-0.21,0.52-0.29,1.11-0.41,1.67c-0.44,2.18-0.37,4.39-0.12,6.58c0.59,5.32,1.13,10.66,1.94,15.95c0.63,4.09-0.74,7.1-4.06,9.38
		c-2.07,1.42-4.31,2.47-6.71,3.21c-0.36,0.11-0.74,0.22-1.11,0.27c-2.53,0.38-3.77-0.5-4.22-3.06c-0.18-1.03-0.28-2.09-0.26-3.14
		c0.17-5.84,0.46-12.29,0.95-18.4c0.37-0.34,0.71,0,0.85-0.22c2.23-3.43,4.39-6.9,6.66-10.31c3.18-4.77,6.86-9.15,11.1-13.02
		c1.95-1.78,3.8-3.92,6.56-4.45c0.16,0.09,1.12,1.14,1.25,1.26c1.3,1.13,2.22,0.82,2.81-0.5c0.17-0.38,0.31-1.8,0.55-2.29
		c1.32-0.23,2.1-0.14,3.04-0.17c2.08-0.08,4.2-0.38,6.24-0.08C512.87,145.2,514.44,144.66,515.95,144.67z"/>
	<path class="st3" d="M527.54,225.58c0.23-3.92,0.37-7.84,0.71-11.75c0.43-4.96,0.96-9.91,1.54-14.86
		c0.61-5.13,1.35-10.25,2.8-15.23c0.37-1.28,0.8-2.56,1.31-3.8c1.37-3.38,3.57-6.12,6.66-8.06c1.7-1.06,3.46-2.07,5.28-2.89
		c3.09-1.4,6.03-0.93,8.53,1.35c1.19,1.08,2.21,2.39,3.12,3.72c1.74,2.55,2.89,5.4,3.81,8.33c2.31,7.35,3.59,14.89,3.48,22.61
		c-0.03,2.01-0.27,4.01-0.75,6.25c-1.39,0.23-2.44,0.25-3.5,0.22c-2.48-0.05-4.96,0-7.39,0.61c-0.83,0.21-1.68,0.32-2.51,0.22
		c0.12-1.29,0.35-2.34,0.32-3.37c-0.07-2.41-1.06-4.44-3-5.91c-2.22-1.68-4.81-1-5.83,1.56c-0.42,1.05-0.69,2.19-0.84,3.31
		c-0.29,2.17-0.44,4.36-0.67,6.53c-0.14,1.32-0.31,2.64-0.67,3.97c-0.96,0.4-1.76,0.72-2.47,1.18c-2.16,1.38-4.25,2.85-6.43,4.2
		C529.95,224.47,528.72,224.99,527.54,225.58z"/>
	<path class="st3" d="M298.36,264.49c-0.42-3.7-0.95-7.39-1.23-11.1c-0.64-8.58-1.35-17.17-1.28-25.78
		c0.03-3.05,0.21-6.12,0.53-9.16c0.18-1.69,0.62-3.39,1.21-4.99c0.91-2.52,2.85-3.72,5.55-3.7c2.52,0.02,4.94,0.6,7.31,1.35
		c4.32,1.37,8.34,3.38,11.91,6.18c1.49,1.17,2.83,2.57,4.08,4c1.42,1.64,2.09,3.63,2.08,5.82c-0.01,1.82,0.11,3.64-0.05,5.45
		c-0.13,1.51-0.44,3.03-0.9,4.47c-0.61,1.96-2.11,2.89-4.16,2.84c-1.74-0.04-3.41-0.4-5.03-1.03c-1.51-0.59-3.02-1.2-4.56-1.72
		c-1.37-0.46-2.22,0-2.68,1.32c-0.65,1.87-0.04,3.9,1.57,5.12c1.24,0.94,2.7,1.43,4.18,1.82c1.38,0.37,2.78,0.69,4.17,1.04
		c3.12,0.8,4.99,2.69,4.95,6.23c-1.22,0.6-2.23,0.89-3.15,1.36c-5.01,2.56-9.94,5.29-15.02,7.71
		C304.87,263.14,301.82,264.61,298.36,264.49z"/>
	<path class="st4" d="M719.1,94.29c-0.28,3.42-0.55,7.87-1.01,11.27c-0.99,7.29-2.13,14.56-3.26,21.83
		c-0.25,1.6-0.62,3.19-1.05,4.75c-0.25,0.91-0.66,1.79-1.13,2.62c-1,1.77-2.65,2.53-4.59,2.28c-1.5-0.19-3-0.61-4.41-1.16
		c-2.26-0.87-3.48-2.68-3.64-5.06c-0.1-1.52-0.02-3.06,0.15-4.57c0.37-3.42,0.91-6.82,1.23-10.24c0.13-1.4-0.03-2.86-0.25-4.26
		c-0.19-1.19-1.08-1.86-2.18-1.92c-1.07-0.05-1.86,0.48-2.31,1.4c-0.37,0.77-0.7,1.58-0.87,2.42c-0.58,2.81-1.08,5.63-1.59,8.44
		c-0.24,1.32-0.39,2.65-0.63,3.96c-0.14,0.75-0.32,1.5-0.56,2.22c-1.25,3.91-3.54,5.32-7.65,4.65c-1.13-0.18-2.25-0.46-3.33-0.83
		c-1.56-0.54-2.6-1.67-2.87-3.3c-0.22-1.3-0.39-2.67-0.25-3.97c0.5-4.75,1.14-9.49,1.73-14.23c0.33-2.66,0.81-5.85,1.45-8.72
		c0.74-0.41,1.06,0,1.44-0.26c2.04-1.4,4-2.93,6.09-4.24c3.71-2.34,7.47-4.6,11.82-5.6c0.56-0.13,0.42-0.55,0.75-1.07
		c1.81,0.3,3.86,0.21,5.36-0.61c0.25,0.73,0.59,1.1,1.09,1.15c0.93,0.09,1.9,0.07,2.79,0.33c2.18,0.64,4.25,1.55,6.02,3.05
		C717.85,94.96,718.77,93.81,719.1,94.29z"/>
	<path class="st2" d="M807.52,135.59c0.02-1.62-0.05-3.25,0.06-4.87c0.59-8.59,1.4-17.16,2.83-25.66c0.33-1.97,0.86-3.92,1.42-5.85
		c0.29-1,0.75-1.97,1.27-2.88c1.02-1.8,2.57-2.82,4.68-2.8c1.15,0.01,2.31,0.01,3.43,0.23c5.23,1.02,10.09,2.98,14.43,6.09
		c1.46,1.05,2.78,2.33,4.01,3.65c1.36,1.46,1.95,3.29,1.66,5.31c-0.28,1.89-0.6,3.77-0.98,5.64c-0.15,0.74-0.48,1.45-0.84,2.12
		c-0.9,1.67-2.35,2.59-4.25,2.3c-1.59-0.25-3.16-0.72-4.68-1.26c-1.35-0.47-2.6-1.21-3.93-1.75c-1.92-0.78-3.19-0.06-3.53,1.93
		c-0.25,1.46,0.24,2.7,1.44,3.51c1.02,0.69,2.15,1.23,3.29,1.7c1.41,0.57,2.89,0.99,4.34,1.49c2.79,0.95,4.25,2.87,4.08,5.84
		c-0.11,2-0.36,3.99-0.6,5.98c-0.07,0.56-0.3,1.11-0.53,1.63c-0.87,1.94-2,2.61-4.12,2.18c-1.49-0.3-2.93-0.87-4.39-1.32
		c-0.36-0.11-0.72-0.26-1.08-0.38c-2.29-0.78-3.1-0.35-3.59,2.04c-0.17,0.83-0.19,1.72-0.1,2.56c0.24,2.15,1.12,3.04,3.27,3.34
		c0.94,0.13,1.91,0.09,2.86,0.19c1.23,0.13,2.48,0.24,3.69,0.5c2.78,0.59,4.59,2.3,5.26,5.07c0.29,1.2,0.34,2.45,0.24,3.89
		c-1.77-0.34-3.3-0.86-4.79-1.49c-1.13-0.48-2.34-0.93-3.28-1.69c-2.07-1.67-4.03-3.47-5.95-5.31c-2.88-2.77-5.54-5.77-8.77-8.15
		c-1.53-1.13-3.09-2.22-4.71-3.2C809.06,135.81,808.24,135.78,807.52,135.59z"/>
	<path class="st4" d="M464.37,229.63c0.75,1.92,0.54,4.73,0.61,6.71c0.33,9.48-0.17,18.91-2.5,28.16
		c-1.25,4.95-3.18,9.61-6.37,13.67c-3.3,4.21-7.54,6.98-12.74,8.25c-4.96,1.21-9.05-0.32-12.04-4.49c-1.58-2.2-2.6-4.67-3.3-7.27
		c-1.69-6.25-1.98-12.62-1.47-19.05c0.08-0.95,0.56-3.44,0.96-4.63c2.91,0.05,4.97,1,7.36,0.09c0.7-0.27,1.35-0.67,2.05-0.94
		c0.78-0.29,1.59-1.65,2.42-1.66c-0.01,0.51-0.03,1.95-0.08,2.23c-0.31,1.73-0.05,3.45,0.32,5.12c1.04,4.61,5.13,5.85,8.65,2.66
		c1.3-1.18,2.16-2.67,2.75-4.31c0.95-2.64,1.26-5.37,1.28-8.17c0.01-1.86-1.09-4.37-1.95-5.96c1.87-0.49,3.41-1.32,4.76-2.21
		c1.72-1.15,3.31-2.54,4.82-3.97C461.28,232.56,462.7,230.56,464.37,229.63z"/>
	<path class="st3" d="M236.75,152.82c-0.06-0.66-0.19-1.33-0.19-1.99c0.01-5.36-0.08-10.72,0.1-16.08c0.11-3.34,0.59-6.67,1.02-9.98
		c0.16-1.22,0.59-2.41,1.01-3.58c1.03-2.87,3.18-4.49,6.1-5.07c6-1.18,11.82-0.47,17.42,1.93c1.29,0.55,2.48,1.43,3.6,2.31
		c1.25,1,1.87,2.37,1.84,4.03c-0.04,2.11-0.07,4.2-0.58,6.27c-0.94,3.81-2.77,5.36-6.64,5.42c-0.95,0.02-1.91-0.1-2.85-0.22
		c-1.23-0.15-2.49-0.25-3.68-0.59c-2.27-0.65-4.29,1.24-3.46,4.34c0.24,0.9,1.02,1.43,1.88,1.61c1.4,0.29,2.82,0.47,4.25,0.62
		c1.14,0.12,2.31,0.03,3.44,0.19c2.67,0.4,3.93,1.65,4.12,4.34c0.14,2.09,0.01,4.2-0.06,6.31c-0.02,0.56-0.23,1.12-0.4,1.67
		c-0.7,2.15-1.74,3.02-3.96,3.04c-1.62,0.02-3.25-0.15-4.86-0.32c-2.41-0.26-3.22-0.28-3.74,3c-0.12,0.73-0.01,1.54,0.18,2.26
		c0.58,2.18,1.51,2.78,3.79,2.46c1.52-0.21,3.01-0.58,4.53-0.75c2.38-0.28,4.59,0.08,6.24,2.41c-0.57,0.89-1.05,1.59-1.7,1.88
		c-1.91,0.85-3.85,1.71-5.87,2.22c-1.66,0.42-3.39,0.23-4.99-0.69c-1.84-1.05-3.57-2.22-4.95-3.84c-1.11-1.3-2.12-2.69-3.18-4.03
		c-2.18-2.77-4.03-5.8-6.74-8.13C237.91,153.43,237.3,153.16,236.75,152.82z"/>
	<path class="st3" d="M595.36,112.6c-0.36-7.65,0.7-15.08,3.51-22.22c1.2-3.05,2.92-5.81,5.23-8.18c3.9-4.01,8.67-6.27,14.22-6.69
		c4.31-0.32,7.86,1.29,10.42,4.88c1.29,1.82,2.13,3.84,2.76,5.96c1.18,3.99,1.41,8.1,1.41,12.22c0,2.58-0.39,5.78-0.79,8.65
		c-2.99,2.09-5.09,3.81-7.37,6.11c-1.01,1.02-1.99,2.06-3.04,3.03c-2.03,1.87-4.08,3.72-6.15,5.53c-0.57,0.5-1.22,0.93-1.89,1.27
		c-1.67,0.84-3.29,1.18-5.13,0.13c-2.09-1.18-4.05-2.5-5.77-4.14c-1.87-1.77-3.66-3.63-5.48-5.46
		C596.74,113.17,596.22,112.58,595.36,112.6z M607.4,102.26c0,1.05-0.14,2.12,0.03,3.14c0.2,1.2,0.5,2.45,1.06,3.52
		c1.11,2.16,3.3,2.89,5.59,2.12c1.5-0.5,2.73-1.39,3.61-2.68c2.32-3.42,2.75-7.23,2.12-11.22c-0.04-0.28-0.18-0.54-0.29-0.8
		c-0.72-1.65-1.78-2.34-3.57-2.28c-2.21,0.07-4.02,1.06-5.59,2.55C608.86,98.04,607.96,99.79,607.4,102.26z"/>
	<path class="st3" d="M180.78,242.52c-0.07-1.34-0.18-2.67-0.22-4.01c-0.14-5.75-0.24-11.49-0.37-17.24
		c-0.06-2.51,0.25-4.96,1.04-7.36c1.75-5.37,5.49-8.45,11-9.23c3.61-0.5,7.28-0.48,10.84,0.52c1.47,0.41,2.93,0.93,4.28,1.62
		c4.63,2.35,7.28,6.21,7.79,11.32c0.47,4.78,0.26,9.58-1.06,14.25c-0.41,1.45-1.17,2.81-2.15,4.32c-0.74,0.23-1.11,0.3-1.46,0.45
		c-3.99,1.79-7.98,3.57-11.96,5.39c-2.95,1.35-6.01,2.26-9.17,3.02c-2.65,0.63-4.64,0.08-6.45-1.78
		C182.31,243.2,181.76,242.5,180.78,242.52z M194.5,223.66c0.2,0.83,0.35,1.68,0.61,2.49c0.24,0.76,0.8,1.29,1.54,1.6
		c1.84,0.78,4.68-0.14,5.43-1.98c1.04-2.55,0.75-5.09-0.79-7.37c-1.01-1.49-2.61-1.46-4.16-1.15c-1.46,0.29-2.35,1.29-2.55,2.75
		C194.44,221.04,194.5,222.1,194.5,223.66z"/>
	<path class="st2" d="M847.57,213.17c-0.13-6.87,0.94-13.54,3.59-19.89c0.8-1.92,1.9-3.76,3.09-5.47
		c6.07-8.73,18.44-7.67,24.14-1.49c2.77,3,4.79,6.43,6.12,10.27c0.97,2.81,1.65,5.7,2,8.65c0.92,7.73,1.08,15.45-0.93,23.29
		c-0.65,0-1.06-0.1-1.31-0.36c-3.28-3.39-7.41-5.3-11.77-6.84c-0.98-0.35-1.91-0.85-2.88-1.36c-0.01-0.08-0.04-0.25,0.13-0.36
		c1.79-1,2.64-2.49,3.08-4.18c0.51-1.93,0.85-3.94,0.58-5.94c-0.18-1.3-0.53-2.62-1.06-3.82c-0.69-1.55-1.97-2.53-3.69-2.85
		c-4.37-0.81-8.02,1.99-8.34,6.41c-0.23,3.25,0.43,6.25,2.39,9.03c-0.56,0.3-1.02,0.58-1.41,0.5
		C856.4,217.71,851.77,215.95,847.57,213.17z"/>
	<path class="st6" d="M735.23,175.5c0.08,2.49-0.12,5.27-0.7,7.69c-0.16,0.65-0.35,1.29-0.62,1.9c-0.46,1.04-1.24,1.6-2.43,1.7
		c-2.93,0.24-2.91,0.28-2.86,3.21c0.17,10.04,0.32,20.08,0.49,30.13c0.02,1.04,0.09,2.08,0.14,3.08c0.49,0.26,0.81,0.54,1.16,0.59
		c1.72,0.26,2.43,1.4,2.6,2.96c0.4,3.53,0.48,7.05-0.14,10.57c-0.43,2.43-1.98,3.69-4.28,3.98c-3.72,0.46-7.46,0.42-11.17-0.1
		c-2.96-0.42-4.24-1.72-4.63-4.65c-0.44-3.32-0.45-6.69,0.04-10.02c0.43-2.92,0.85-3.32,3.76-4.54c0-3.85-0.02-7.76,0-11.67
		c0.02-3.92,0-7.85,0.14-11.77c0.14-3.91,0.45-7.82,0.69-11.84c-0.49-0.33-0.94-0.66-1.4-0.95c-1.22-0.77-1.8-2-2.11-3.31
		c-0.35-1.48-0.49-2.93-0.45-4.45c0.05-1.89,0.19-5.1,0.44-7.16c2.68-0.19,4.82,0.99,7.11,0.97c3.89-0.04,7.52,0.98,11.03,2.54
		C733.09,174.82,734.2,175.01,735.23,175.5z"/>
	<path class="st3" d="M375.24,247.98c-3.63,2.07-7.2,3.9-11.09,4.95c-1.73,0.47-3.52,0.99-5.29,0.99c-1.86-0.01-3.75-0.5-5.57-0.99
		c-2.2-0.6-4.34-1.43-6.52-2.13c-2.82-0.9-5.71-1.43-8.68-1.36c-0.94,0.02-1.88,0.23-2.82,0.32c-0.94,0.1-1.89,0.16-3.09,0.25
		c-0.35-0.46-0.51-0.92-0.54-1.39c-0.3-5.16-0.61-10.31-0.84-15.47c-0.1-2.29-0.07-4.6,0.55-6.84c0.13-0.46,0.23-0.93,0.38-1.38
		c2.01-6.03,6.1-6.6,10.55-5.84c1.38,0.24,2.52,1.02,3.29,2.14c1.03,1.48,2.11,3,2.8,4.65c1.39,3.35,2.58,6.79,3.77,10.21
		c1.16,3.34,2.2,6.72,3.35,10.06c0.37,1.08,0.88,2.12,1.42,3.13c0.26,0.49,0.68,0.92,1.1,1.3c0.64,0.59,1.61,0.46,1.93-0.32
		c0.35-0.87,0.69-1.82,0.72-2.74c0.06-1.62-0.03-3.25-0.22-4.86c-0.55-4.65-1.49-9.26-1.64-13.95c-0.02-0.76-0.08-1.54,0.02-2.28
		c0.21-1.56,1-2.4,2.53-2.73c0.56-0.12,1.15-0.2,1.71-0.14c2.09,0.22,4.2,0.34,6.24,0.8c2.96,0.66,4.89,2.53,5.43,5.61
		c0.2,1.12,0.37,2.27,0.4,3.41C375.22,238.15,375.25,242.94,375.24,247.98z"/>
	<path class="st4" d="M230.86,229.51c1.53,0.84,3.39,1.61,5.14,1.71c1.24,0.07,2.48,0.21,3.71,0.41c2.48,0.41,3.81,1.62,4.25,4.02
		c0.53,2.94,0.5,5.91-0.04,8.85c-0.08,0.46-0.28,0.91-0.47,1.35c-0.54,1.26-1.5,2.01-2.89,1.95c-1.43-0.06-2.86-0.23-4.28-0.38
		c-0.95-0.1-1.89-0.31-2.84-0.38c-1.05-0.07-1.64,0.32-1.88,1.37c-0.21,0.92-0.37,1.9-0.28,2.83c0.27,2.66,1.6,3.59,3.69,3.4
		c1.43-0.13,2.87-0.17,4.3-0.23c4.63-0.2,7.32,1.39,8.68,6.54c0.66,2.51,0.84,5.1,0.78,7.69c-0.06,2.2-0.97,3.32-3.17,3.79
		c-1.3,0.28-2.66,0.47-3.98,0.42c-5.07-0.2-10.12-0.64-15.11-1.58c-0.28-0.05-0.56-0.11-0.84-0.18c-3.44-0.88-5.78-2.97-6.73-6.39
		c-0.58-2.11-1.08-4.28-1.28-6.46c-0.36-4-0.55-8.02-0.68-12.03c-0.13-3.92-0.02-8.31,0.23-12.5c0.65-0.34,0.96,0.1,1.31-0.02
		c2.74-0.96,5.46-2,8.23-2.89C228.13,230.34,229.4,229.83,230.86,229.51z"/>
	<path class="st5" d="M751.48,192.27c-1.33,1.38-2.29,3.35-2.49,5.16c-0.67,6.1-1.12,12.21-0.3,18.33c0.55,4.17,1.86,5.41,6.06,5.92
		c0.85,0.1,1.72,0.13,2.58,0.14c1.62,0.01,2.72,0.83,3.44,2.19c0.31,0.59,0.53,1.23,0.72,1.87c0.75,2.62,0.84,5.31,0.51,7.98
		c-0.34,2.83-1.98,4.92-4.44,6.36c-1.6,0.94-3.36,1.43-5.18,1.59c-2.97,0.27-5.94,0.13-8.86-0.5c-3.06-0.66-5.09-2.52-6.15-5.45
		c-1.06-2.91-1.49-5.95-1.69-9c-0.49-7.84-0.66-15.69-0.31-23.54c0.13-2.97,0.12-5.94,0.28-8.9c0.28-5.35,1.23-11.25,2.16-16.57
		c2.54,2.08,4.75,4.63,6.81,6.99c1.8,2.07,3.27,4.43,4.84,6.69C749.88,192.12,750.76,192.24,751.48,192.27z"/>
	<path class="st5" d="M226.43,145.97c3.37,1.38,6.4,5.4,7.75,8.98c1.16,3.09,1.55,6.34,1.59,9.6c0.05,3.74-0.31,7.46-1.47,11.05
		c-2.82,8.69-11.56,14.18-20.63,12.92c-3.1-0.43-5.54-2.03-7.44-4.47c-1.99-2.55-3.2-5.48-3.51-8.68c-0.3-3.15-0.31-6.33,0.49-9.43
		c0.3-1.19,0.77-2.36,1.31-3.47c0.51-1.05,1.37-1.84,2.48-2.29c2.93-1.17,5.22-0.36,6.34,2.46c0.39,0.97,0.56,2.03,0.86,3.03
		c0.33,1.1,0.59,2.23,1.06,3.27c0.58,1.28,1.89,1.62,3.15,0.97c0.89-0.46,1.49-1.21,1.89-2.09c1.22-2.69,1.43-5.54,1.17-8.44
		c-0.09-1.02-0.75-1.79-1.65-2.21c-0.86-0.4-1.79-0.67-2.71-0.9c-1.58-0.4-3.18-0.7-4.75-1.09c-1.59-0.4-3.71-1.62-4.96-2.77
		c1.06-0.79,2.64-0.78,3.62-1.33c2.22-1.26,4.42-2.5,6.97-3.11c2.32-0.55,4.61-1.01,7-0.89C225.8,147.12,225.8,146.8,226.43,145.97z
		"/>
	<path class="st2" d="M360.54,159.49c-1.13,0.33-2.07-0.64-3.05-1.05c-4.02-1.7-8.23-2.61-12.56-2.07
		c-3.86,0.48-7.72,1.12-11.43,2.37c-2.35,0.79-4.7,1.6-7.06,2.34c-0.71,0.22-1.51,0.62-2.44,0.37c-0.31-0.08-0.28-0.07-0.27-0.25
		c0.24-7.74,0.12-15.8,1.4-23.47c0.27-1.6,0.63-3.19,1.13-4.73c1.65-5.2,4.49-7.9,11.24-7.53c3.05,0.17,6.07,0.73,9.02,1.57
		c0.82,0.24,1.63,0.54,2.43,0.85c3.97,1.53,6.71,4.3,8.33,8.21c1.26,3.03,1.99,6.19,2.31,9.43
		C360,149.91,360.25,154.83,360.54,159.49z M343.03,151.99c0.93,0.21,1.85,0.48,2.79,0.6c1.6,0.2,2.55-0.51,2.78-2.14
		c0.14-1.03,0.15-2.09,0.08-3.13c-0.29-4.26-3.35-6.45-7.12-6.87c-1.44-0.16-2.67,0.66-3.13,2.01c-1.22,3.61-0.01,6.53,2.22,8.24
		C341.25,151.15,341.96,151.45,343.03,151.99z"/>
	<path class="st7" d="M403.55,241.75c-0.31,0.89-0.83,2.6-1.25,3.43c-0.69,1.37-1.9,2.13-3.42,2.31c-0.95,0.11-1.91,0.11-2.86,0.21
		c-3.21,0.33-4.61,1.55-5.21,4.74c-0.3,1.59-0.37,3.23-0.48,4.85c-0.27,4.21-0.2,8.42,0.25,12.61c0.46,4.32,1.92,5.62,6.31,5.68
		c0.76,0.01,1.53-0.06,2.29-0.07c1.6-0.03,2.85,0.66,3.4,2.15c1.28,3.48,1.84,7.09,0.54,10.66c-1.37,3.76-4.4,5.76-8.22,6.35
		c-3.02,0.46-6.09,0.41-9.12-0.33c-2.73-0.67-4.65-2.27-5.57-4.88c-0.66-1.88-1.15-3.85-1.5-5.81c-0.35-1.97-0.55-3.99-0.59-5.99
		c-0.21-9.76-0.03-19.51-0.18-29.27c-0.01-0.48,0.05-1.65,0.39-2.35c1.35-0.69,2.12-0.41,3.12-0.95c2.03-1.1,4.19-1.84,6.38-2.47
		c1.45-0.42,2.97-0.6,4.45-0.94c1.98-0.45,3.94-0.42,5.93,0C399.87,242.04,401.87,241.48,403.55,241.75z"/>
	<path class="st4" d="M527.63,224.77c1.24-0.78,2.31-0.3,3.43-1c2.17-1.35,4.27-2.82,6.43-4.2c0.71-0.45,2.13-1.49,2.77-2.03
		c-0.17,1.58,0.18,3.38,0.37,4.4c0.28,1.5,1.09,1.87,2.47,1.23c1.96-0.91,3.33-2.49,4.57-4.19c1.42-1.94,2.32-4.55,3.05-6.82
		c0.94,0.18,1.61,0.12,2.44-0.09c2.43-0.61,4.91-0.66,7.39-0.61c1.05,0.02,2.18-0.3,3.5-0.3c0.04,6.82-1.04,13.82-3.31,20.28
		c-2.11,6.03-6.12,10.37-12.12,12.6c-4.12,1.53-8.34,2.76-12.55,4.03c-1.08,0.32-2.27,0.33-3.41,0.37
		c-2.06,0.07-3.51-0.94-4.18-2.85c-0.47-1.34-0.82-2.75-1-4.16c-0.52-4.09-0.54-8.21-0.2-12.32
		C527.35,228.06,527.52,226.01,527.63,224.77z"/>
	<path class="st3" d="M273.21,250.87c1.2-4.76,1.4-9.64,1.85-14.5c0.62-6.57,1.2-13.15,2.89-19.56c0.58-2.21,1.4-4.37,2.33-6.46
		c0.53-1.19,1.38-2.31,2.31-3.25c1.98-2.01,4.69-2.27,7.1-0.77c2.6,1.62,4.13,3.96,4.29,7.06c0.11,2.01,0.1,4.02,0.13,6.03
		c0.13,8.14-0.14,16.27-1.27,24.34c-0.94,6.74-2.29,13.38-5.2,19.85c-1.51-0.48-2.71-1.04-3.84-1.7c-3.29-1.94-5.92-4.67-8.49-7.43
		C274.36,253.47,273.44,252.34,273.21,250.87z"/>
	<path class="st4" d="M786.75,130.4c0.32,0.18,0.62,0.49,0.95,0.53c0.75,0.09,1.51,0.1,2.26,0.06c5.18-0.29,10.23,0.67,15.21,2.6
		c-0.11,5.59-1.55,11.07-4.03,16c-0.51,1.02-1.17,1.98-1.87,2.88c-2.2,2.78-5.1,4.24-8.65,4.44c-2.5,0.14-4.98-0.08-7.41-0.65
		c-2.88-0.68-5.74-1.46-8.6-2.21c-0.37-0.1-0.72-0.24-1.09-0.36c-5.42-1.66-8.13-5.49-8.55-10.98c-0.21-2.76-0.11-5.54-0.09-8.57
		c1.98,0,3.8-0.64,5.65-0.93c2.87-0.46,5.71-1.1,8.58-1.62c0.59-0.11,0.96-0.28,1.36-1.11c0.14,0.18,0.31,0.37,0.65,0.47
		c0.24,0.08,0.33,0.08,0.73,0.13C783.72,131.31,785.24,130.95,786.75,130.4z"/>
	<path class="st7" d="M549.72,124.46c0.07,0.95,0.2,1.9,0.2,2.86c-0.04,7.95-0.08,15.9-0.18,23.85c-0.02,1.62-0.2,3.25-0.45,4.86
		c-0.44,2.89-1.85,5.25-4.36,6.79c-1.46,0.89-3.03,1.66-4.64,2.23c-1.82,0.64-2.95-0.08-3.37-2.01c-0.22-1.02-0.23-2.09-0.23-3.14
		c-0.01-2.97,0.06-5.94,0.03-8.91c-0.01-0.95-0.14-1.91-0.39-2.83c-0.32-1.17-1.16-1.4-2.22-0.78c-1.05,0.62-1.73,1.53-2.01,2.68
		c-0.27,1.11-0.53,2.24-0.62,3.38c-0.25,2.86-0.37,5.73-0.6,8.6c-0.11,1.43-0.27,2.86-0.53,4.27c-0.49,2.66-1.86,4.84-4.05,6.39
		c-1.4,0.99-2.95,1.75-4.47,2.56c-0.49,0.26-1.08,0.38-1.65,0.46c-1.45,0.19-2.22-0.27-2.57-1.66c-0.23-0.92-0.37-1.89-0.36-2.83
		c0.03-2.11,0.21-4.21,0.3-6.31c0.25-6.22,0.55-13.29,1.09-19.77c1.6-0.52,2.79-0.1,4.16,0.02c0.55,0.05,1.15-0.08,1.68-0.25
		c4.8-1.6,8.91-4.31,12.5-7.82c2.6-2.54,5.16-5.13,7.71-7.72c0.66-0.68,1.22-1.46,1.84-2.18
		C547.46,126.12,548.2,124.84,549.72,124.46z"/>
	<path class="st6" d="M177.56,234.47c-0.67,4.29-3.3,7.68-7.34,9.08c-1.16,0.4-2.41,0.58-3.62,0.84c-1.02,0.22-2.05,0.4-3,0.59
		c-0.82,1.13-0.54,2.31-0.45,3.42c0.36,4.28,0.8,8.56,1.21,12.84c0.09,0.95,0.22,1.9,0.23,2.85c0.03,2.52-1.08,4.41-3.32,5.59
		c-2.99,1.57-6.19,1.9-9.48,1.5c-1.76-0.22-2.99-1.28-3.4-3.05c-0.24-1.01-0.36-2.07-0.39-3.11c-0.22-8.89-0.39-17.77-0.61-26.66
		c-0.08-3.06-0.09-6.73,0.03-10.03c1.62-0.85,2.83-0.86,4.22-1.41c1.48-0.59,2.98-1.13,4.48-1.66c2.47-0.86,5.17-1.1,7.66-0.82
		c-0.9,1.98-1.43,4.33-0.9,6.28c0.52,1.93,1.77,2.97,3.65,2.98c1.94,0.01,3.31-0.95,3.88-2.76c0.22-0.72,0.36-2.09,0.73-2.81
		c1.38,0.33,1.97,1.91,2.69,2.76C175.01,232.3,175.83,233.54,177.56,234.47z"/>
	<path class="st2" d="M596.82,220.06c-0.08-1.24-0.25-2.47-0.21-3.71c0.25-8.7,0.46-17.4,0.86-26.09c0.28-6.11,0.78-12.22,1.3-18.31
		c0.42-4.86,1.01-9.7,2.27-14.43c0.37-1.38,0.84-2.76,1.49-4.02c1.43-2.73,4.62-3.96,7.61-3.12c1.09,0.3,1.95,0.9,2.33,1.94
		c0.36,0.97,0.65,2.01,0.73,3.04c0.34,4.41-0.05,8.79-0.92,13.12c-0.97,4.87-2.12,9.72-2.84,14.63c-1.23,8.34-1.83,16.73-1.02,25.16
		c0.16,1.64,0.5,3.22,1.7,4.83c-3.12,3.87-7.26,5.6-11.61,6.94C597.99,220.2,597.39,220.06,596.82,220.06z"/>
	<path class="st4" d="M273.51,250.22c0.4,1.36,0.93,2.95,1.88,3.96c2.57,2.76,5.2,5.49,8.49,7.43c1.13,0.67,2.56,1.07,3.93,1.7
		c-1.28,4.56-3.91,8.7-7.39,11.97c-4.22,3.96-8.04,4.04-12.53,0.38c-2.41-1.96-4.24-4.41-5.86-7.03c-2.28-3.68-4.03-7.61-5.48-11.68
		c-2.91-8.15-4.85-17.38-5.49-26.24c2.48-0.05,4.18,2.28,5.85,3.45c3.59,2.52,6.71,5.61,9.38,9.14c0.86,1.14,1.86,2.17,2.86,3.19
		c0.23,0.24,0.69,0.25,1.05,0.37c0.41,1.31,0.8,2.63,1.26,3.92C271.65,251.37,273.03,251.58,273.51,250.22z"/>
	<path class="st3" d="M549.77,124.98c-1.56,0.62-2.31,1.9-3.24,2.97c-0.62,0.72-1.17,1.5-1.84,2.18c-2.55,2.59-5.11,5.18-7.71,7.72
		c-3.6,3.51-7.71,6.23-12.5,7.82c-0.53,0.18-1.13,0.3-1.68,0.25c-1.37-0.12-2.64,0.31-4.18,0.57c-0.23-1.14-0.31-2.29-0.22-3.43
		c0.4-5.34,0.52-10.72,1.55-16c0.09-0.47,0.16-0.94,0.24-1.42c1.4-7.7,5.59-13.31,12.59-16.79c1.97-0.98,3.94-1.98,6.01-2.71
		c4.92-1.73,7.65-0.33,9.19,4.66c0.53,1.73,0.92,3.53,1.13,5.33C549.45,118.99,549.59,121.87,549.77,124.98z M536.16,119.78
		c-0.36,0.13-0.73,0.23-1.07,0.39c-3.05,1.47-4.53,4.1-4.18,7.41c0.17,1.61,1.09,2.59,2.61,2.37c4.27-0.64,7.13-2.89,6.36-7.67
		c-0.11-0.71-0.47-1.46-0.92-2.03C538.38,119.5,537.47,119.49,536.16,119.78z"/>
	<path class="st3" d="M231,229.61c-1.37,0.53-2.87,0.73-4.29,1.18c-2.77,0.89-5.49,1.93-8.23,2.89c-0.35,0.12-0.73,0.14-1.32,0.22
		c-0.28-2-0.38-4-0.36-6c0.04-3.73,0.04-7.46,0.26-11.18c0.16-2.66,0.63-5.3,1.02-7.94c0.13-0.84,0.42-1.67,0.71-2.47
		c1.05-2.92,3.08-4.79,6.1-5.52c5.71-1.38,11.19-0.75,16.42,1.94c1.55,0.79,2.89,1.86,3.95,3.26c0.89,1.17,1.51,2.47,1.57,3.93
		c0.13,3.25,0.19,6.5-0.54,9.7c-0.15,0.65-0.34,1.3-0.59,1.91c-0.83,2.05-2.31,3.29-4.58,3.28c-1.52-0.01-3.05-0.17-4.55-0.36
		c-1.13-0.14-2.24-0.49-3.37-0.67c-1.07-0.18-1.87,0.31-2.36,1.25C230.08,226.48,230.11,227.95,231,229.61z"/>
	<path class="st4" d="M847.62,212.15c4.3,2.58,8,5.03,12.91,6.09c0.39,0.08,1.24-0.04,1.98-0.25c1.91,1.38,4.17,2.02,6.53,1.93
		c0.33-0.01,0.96-0.55,1.05-0.46c0.72,0.7,1.42,1.39,2.41,1.73c4.36,1.53,8.49,3.45,11.77,6.84c0.25,0.26,0.66,0.36,1.2,0.55
		c-0.5,4.19-2.37,7.8-5.17,10.92c-1.84,2.05-4.17,3.33-6.83,4.02c-3.01,0.78-6.07,0.86-9.11,0.32c-5.34-0.95-9.19-4.06-12-8.58
		c-1.94-3.13-3.15-6.55-3.91-10.13C847.63,221.27,847.4,216.29,847.62,212.15z"/>
	<path class="st2" d="M227.22,146.36c-0.5,0.98-1.42,0.76-2.24,0.72c-2.39-0.12-4.68,0.34-7,0.89c-2.55,0.6-4.75,1.85-6.97,3.11
		c-0.98,0.56-1.94,1.16-3.12,1.78c-2.16-1.02-3.35-2.78-4.07-4.77c-2.78-7.75-2.46-15.22,2.62-22.03c2.9-3.89,6.71-6.5,11.54-7.43
		c9.27-1.77,16.35,5.17,17.23,12.76c0.31,2.66-0.47,5.12-2.28,7.17c-1.33,1.51-3.02,2.28-5.03,2.38c-1.69,0.08-3-0.55-3.87-1.98
		c-0.59-0.98-1.03-2.05-1.58-3.05c-1.08-1.96-3.36-2.06-4.55-0.16c-0.9,1.44-1.11,3.09-0.73,4.7c0.15,0.65,0.79,1.32,1.39,1.71
		c0.95,0.61,2.06,0.99,3.09,1.47C223.48,144.49,225.28,145.36,227.22,146.36z"/>
	<path class="st5" d="M286.49,155.71c2.21-0.73,4.49-1.41,6.81-1.78c1.67-0.27,3.44-0.34,5.12-0.11c3.67,0.5,7.23,1.49,10.4,3.54
		c1.59,1.03,3.14,2.15,4.83,3c2.11,1.06,4.28,2.06,6.98,2c0.27,8.41,0.33,16.81,0.31,25.22c0,1.03-0.27,2.09-0.61,3.07
		c-0.65,1.87-1.91,2.69-3.93,2.72c-0.48,0.01-0.96,0-1.43-0.1c-2.25-0.46-4.45-1.06-6.53-2.09c-3.78-1.89-5.72-4.95-5.81-9.15
		c-0.03-1.43,0.06-2.87,0.21-4.29c0.41-3.9,0.92-7.78,1.3-11.68c0.16-1.61,0.18-3.25,0.1-4.87c-0.04-0.82-0.38-1.65-0.69-2.43
		c-0.21-0.53-1.16-0.56-1.45-0.06c-0.43,0.74-0.78,1.53-1.15,2.3c-0.62,1.29-1.1,2.66-1.87,3.85c-1.22,1.91-3.07,2.77-5.38,2.66
		c-1.14-0.06-2.06-0.51-2.65-1.45c-0.55-0.89-1.04-1.83-1.44-2.79c-0.54-1.33-0.91-2.72-1.45-4.04
		C287.71,158.1,287.12,157.01,286.49,155.71z"/>
	<path class="st2" d="M702.24,90.81c-0.08,0.49-0.25,0.91-0.81,1.04c-4.35,1-8.11,3.26-11.82,5.6c-2.09,1.32-4.05,2.84-6.09,4.24
		c-0.38,0.26-0.85,0.39-1.51,0.6c0.44-6.93,1.29-13.85,2.95-20.64c0.43-1.76,1.04-3.48,1.71-5.16c1.81-4.51,5.26-6.97,10.03-7.48
		c4.2-0.45,8.42-0.36,12.56,0.57c4.82,1.08,8.03,3.9,9.14,8.81c0.44,1.95,0.87,3.95,0.92,5.94c0.09,3.53-0.12,7.07-0.28,10.82
		c-0.59,0-1.19-0.11-1.59-0.45c-1.77-1.5-3.84-2.41-6.02-3.05c-0.89-0.26-1.86-0.24-2.79-0.33c-0.5-0.05-0.91-0.19-1.1-1.12
		c0.26-1.52,0.66-2.62,0.72-3.73c0.09-1.56-0.31-3.05-1.63-4.07c-1.76-1.37-3.79-1.72-5.93-1.3c-0.61,0.12-1.24,0.54-1.68,0.99
		c-2.17,2.18-1.71,6.04,0.9,7.67C700.63,90.2,701.46,90.46,702.24,90.81z"/>
	<path class="st7" d="M180.79,242.17c1.05-0.28,1.53,1.03,2.12,1.64c1.81,1.85,3.8,2.41,6.45,1.78c3.16-0.76,6.22-1.67,9.17-3.02
		c3.98-1.82,7.97-3.6,11.96-5.39c0.34-0.15,0.95-0.46,1.53-0.56c-0.4,1.65-2.02,2.72-3.43,3.55c-0.81,0.48-1.84,0.61-2.42,1.61
		c0,1.25,0.76,2.26,1.42,3.29c1.29,2.02,2.7,3.96,3.94,6c1.09,1.8,2.11,3.65,2.99,5.55c1.46,3.15,1.46,6.48,0.99,9.85
		c-0.28,1.99-1.41,3.17-3.36,3.32c-1.99,0.15-4.01,0.16-6,0.04c-1.4-0.08-2.54-0.95-3.26-2.13c-0.79-1.3-1.6-2.65-2.04-4.08
		c-1.05-3.47-1.88-7.01-2.82-10.52c-0.4-1.48-0.78-2.96-1.29-4.4c-0.31-0.87-0.7-1.82-2.02-1.99c-0.24,0.44-0.62,0.88-0.74,1.38
		c-0.53,2.26-0.44,4.56-0.31,6.86c0.16,2.77,0.28,5.54,0.4,8.32c0.03,0.67,0.01,1.34,0.01,2.01c-0.01,1.64-0.87,2.73-2.33,3.29
		c-2.78,1.06-5.63,1.08-8.43,0.12c-1.49-0.51-2.24-1.76-2.49-3.26c-0.15-0.94-0.19-1.91-0.19-2.86
		C180.62,256.06,180.71,248.94,180.79,242.17z"/>
	<path class="st3" d="M824.71,199.19c-1.03,0.03-2.07-0.1-3.08-0.36c-2.91-0.78-5.88-0.49-8.83-0.58c-3.73-0.1-7.39,0.47-11.06,1.02
		c-4.24,0.62-8.4,1.58-12.6,2.41c-0.28,0.05-0.57,0.02-1.11,0.01c-0.03-6.52,0.32-12.25,1.7-18.24c0.38-1.66,1.03-3.3,1.81-4.82
		c1.21-2.39,3.26-3.81,5.95-3.93c2.48-0.11,4.99-0.1,7.45,0.2c3.03,0.38,5.54,2.03,7.77,4.06c2.72,2.47,4.86,5.41,6.71,8.56
		C821.57,191.16,823.4,194.95,824.71,199.19z"/>
	<path class="st7" d="M297.96,260.9c3.48-0.13,6.91,2.23,9.89,0.81c5.07-2.43,10.01-5.15,15.02-7.71c0.92-0.47,1.93-1.3,3.12-1.67
		c0.99,2.46,0.75,5.47,0.2,7.91c-0.45,1.98-1.51,2.72-3.53,2.58c-0.95-0.06-1.89-0.27-2.83-0.48c-1.21-0.27-2.45-0.51-3.61-0.94
		c-2.11-0.78-2.69,0.08-3.05,2.09c-0.26,1.49,0.19,2.85,1,4.09c0.55,0.84,1.35,1.36,2.39,1.4c1.24,0.05,2.49,0.03,3.73,0.12
		c1.33,0.09,2.67,0.19,3.99,0.4c2.78,0.46,4.72,2.07,5.79,4.63c1.32,3.15,1.58,6.49,1.41,9.87c-0.07,1.39-0.89,2.35-2.18,2.74
		c-1.09,0.33-2.25,0.59-3.37,0.57c-2.39-0.06-4.79-0.21-7.15-0.55c-3.12-0.45-6.23-1.03-9.31-1.72c-4.5-1.01-7.34-3.87-8.77-8.24
		c-1.01-3.11-1.61-6.3-2.07-9.52C298.53,266.52,298.05,261.92,297.96,260.9z"/>
	<path class="st5" d="M563.68,112.28c-1.19,5.97-1.29,12.28-0.68,18.31c0.02,0.19,0.04,0.38,0.08,0.57
		c0.48,2.55,1.55,3.18,4.08,2.36c0.91-0.29,1.78-0.69,2.68-1.03c2.41-0.92,3.53-0.48,4.02,1.92c0.86,4.31,0.8,8.56-1.49,12.54
		c-1.31,2.28-2.99,4.21-5.14,5.72c-2.61,1.84-5.54,3-8.55,4c-0.09,0.03-0.18,0.06-0.28,0.08c-3.16,0.72-4.72-0.14-5.66-3.22
		c-0.78-2.58-1.02-5.27-1.06-7.94c-0.09-5.84-0.08-11.68-0.1-17.52c-0.01-1.91,0.09-4.29,0.34-6.49c2-1.71,3.7-2.64,5.43-4.09
		c1.81-1.52,3.57-3.1,5.37-4.64C562.92,112.67,563.41,112.36,563.68,112.28z"/>
	<path class="st3" d="M674.08,173.3c-0.65,0.07-1.31-0.02-1.9-0.27c-0.87-0.36-1.67-0.9-2.55-1.24c-6.07-2.36-11.77-1.14-17.19,1.98
		c-3.63,2.08-6.92,4.65-9.97,7.52c-0.5,0.46-0.98,0.91-1.93,0.85c-0.74-5.95-0.64-11.84,1.26-17.6c1.09-3.31,2.64-6.35,4.93-9
		c1.2-1.39,2.55-2.6,4.13-3.52c3.91-2.29,7.82-2.25,11.71,0.02c2.1,1.23,3.76,2.95,5.18,4.9c2.8,3.85,4.57,8.16,5.72,12.75
		C673.75,170.79,673.9,171.94,674.08,173.3z"/>
	<path class="st1" d="M362.81,161.87c1.05-0.3,1.56,0.7,2.2,1.29c3.36,3.1,6.18,6.65,8.91,10.3c0.89,1.19,1.54,2.6,3.05,3.46
		c0.62,3.74,1.02,7.44,1.5,11.14c0.49,3.79,1.08,7.58,1.58,11.37c0.16,1.23,0.31,2.48,0.27,3.71c-0.09,2.49-1.27,3.97-3.69,4.43
		c-3.72,0.71-7.24-0.05-10.47-1.98c-1.72-1.03-2.75-2.7-3.11-4.65c-0.33-1.78-0.57-3.6-0.58-5.4c-0.03-8.52,0.04-17.04,0.08-25.56
		C362.57,167.49,362.69,164.62,362.81,161.87z"/>
	<path class="st2" d="M721.18,98.8c0.21-2.19,0.33-4.39,0.66-6.56c0.69-4.54,1.43-9.07,2.29-13.58c0.26-1.39,0.86-2.74,1.48-4.02
		c0.82-1.71,2.29-2.49,4.2-2.44c2.23,0.06,4.38,0.53,6.4,1.44c2.19,0.99,3.4,2.69,3.56,5.13c0.17,2.51-0.03,4.98-0.89,7.35
		c-0.52,1.44-1.09,2.86-1.69,4.27c-1.99,4.71-3.15,9.63-3.83,14.68c-0.32,2.37-0.53,4.76-0.71,7.14c-0.08,1.04-0.03,2.11,0.08,3.15
		c0.19,1.95,1.16,3.45,2.97,4.26c1.31,0.58,2.66,1.1,4.05,1.43c2.06,0.49,3.01,1.81,3.42,3.77c0.49,2.3-0.1,4.98-0.43,7.55
		c-1.06,0.28-1.7-0.29-2.32-0.87c-2.17-2.03-4.22-4.16-5.86-6.64c-2.5-3.76-4.06-7.98-5.9-12.06c-1.65-3.65-3.31-7.3-5.08-10.89
		C723,100.75,722.44,99.48,721.18,98.8z"/>
	<path class="st7" d="M422.09,251.16c0.06,1.53,0.17,3.59,0.18,5.12c0.03,5.26,0.01,10.53,0.02,15.79c0,0.94,0.08,1.87,0.12,2.64
		c0.37,0.26,0.51,0.44,0.68,0.46c2.45,0.39,2.63,0.47,2.91,2.66c0.4,3.16,0.18,6.31-0.43,9.43c-0.37,1.9-1.57,3.31-3.37,4.01
		c-3.89,1.5-7.94,2.14-12.1,1.87c-1.82-0.12-2.77-1.02-3.21-2.77c-0.12-0.46-0.19-0.95-0.19-1.42c0-2.3,0.01-4.59,0.09-6.89
		c0.03-0.75,0.27-1.5,0.44-2.25c0.29-1.29,0.93-2.29,2.26-2.73c0.35-0.12,0.65-0.34,1.11-0.58c0.02-1.05,0.06-2.09,0.07-3.13
		c0.05-6.51,0.33-13.02,0.53-19.52c0.05-1.56,0.33-4.36,0.38-6.49c0.93-0.02,1.51,0.65,2.1,0.93c1.38,0.65,2.73,1.36,4.1,2.04
		C419.14,251.02,420.52,251.13,422.09,251.16z"/>
	<path class="st4" d="M566.19,211.45c3.39,0.4,6.11,3.12,9.02,4.68c1.16,0.62,2.13,1.59,3.24,2.31c2.1,1.36,4.33,2.37,6.93,2.26
		c0.56-0.02,1.15,0.06,1.69,0.21c2.2,0.62,4.24,0.26,6.41-1.02c1.44,1.95,1.39,4.62,1.65,6.97c0.18,1.61,0.13,3.25,0.07,4.87
		c-0.13,3.7-1.56,5.62-5.16,6.65c-1.83,0.52-3.73,0.84-5.62,1.07c-2.65,0.32-5.33,0.5-8,0.68c-1.14,0.08-2.3,0.05-3.44-0.05
		c-2.98-0.27-4.94-1.85-5.85-4.71c-0.73-2.29-1.15-4.65-1.16-7.04C565.96,223.07,566.1,216.97,566.19,211.45z"/>
	<path class="st4" d="M721.21,98.37c1.38,0.49,1.79,2.37,2.37,3.54c1.77,3.59,3.43,7.24,5.08,10.89c1.84,4.08,3.4,8.31,5.9,12.06
		c1.65,2.47,3.7,4.61,5.86,6.64c0.62,0.58,1.34,0.69,2.33,0.63c0.21,2.15-0.39,4.15-1.44,6c-1.9,3.34-4.76,5.18-8.67,5.11
		c-3.61-0.06-6.96-1.12-10.09-2.87c-2.21-1.23-3.57-3.19-4.1-5.62c-0.37-1.67-0.66-3.4-0.63-5.1c0.09-3.82,0.24-7.65,0.65-11.44
		C719.18,111.86,720.26,104.91,721.21,98.37z"/>
	<path class="st3" d="M497.57,146.88c-2.71,0.73-4.71,2.57-6.67,4.35c-4.24,3.86-7.92,8.24-11.1,13.02
		c-2.27,3.4-4.43,6.88-6.66,10.31c-0.15,0.23-0.5,0.53-0.91,0.78c0.1-1.63,0.09-3.15,0.04-4.46c-0.25-7.26,0.05-14.46,0.14-21.72
		c0.03-2.59,0.27-5.16,1.06-7.64c1.89-5.9,6.19-9.25,11.89-11.03c1.68-0.52,3.28-0.08,4.45,1.25c0.94,1.06,1.83,2.23,2.48,3.48
		c1.09,2.12,1.96,4.35,2.94,6.53C495.99,143.39,496.76,145.03,497.57,146.88z"/>
	<path class="st7" d="M781.2,202.56c0.07,1.32,0.12,3.49,0.13,4.82c0,4.97-0.05,9.94-0.05,14.91c0,0.94-0.16,1.92,0.47,2.91
		c0.33,0.14,0.75,0.4,1.2,0.48c1.38,0.23,1.91,1.18,2.08,2.4c0.44,3.15,0.34,6.31-0.08,9.44c-0.3,2.21-1.59,3.64-3.86,4.05
		c-0.84,0.15-1.7,0.34-2.55,0.35c-2.29,0.04-4.59,0.02-6.88-0.02c-0.67-0.01-1.34-0.09-1.99-0.21c-3.15-0.6-4.27-1.71-4.56-4.96
		c-0.25-2.76-0.24-5.53,0.26-8.29c0.37-2.06,1.09-3.69,3.4-3.86c0.6-1.09,0.34-2.16,0.37-3.2c0.12-5.45,0.29-11.66,0.71-17.35
		c2.72-0.42,5.02-0.24,7.45-0.09c0.18,0.01,0.36-0.09,0.54-0.11C778.91,203.69,780.09,202.7,781.2,202.56z"/>
	<path class="st4" d="M807.52,135.44c0.8-0.04,1.55,0.37,2.16,0.75c1.62,0.98,3.18,2.07,4.71,3.2c3.23,2.38,5.89,5.38,8.77,8.15
		c1.92,1.84,3.88,3.65,5.95,5.31c0.94,0.76,2.15,1.21,3.28,1.69c1.49,0.63,3.09,0.84,4.82,1.42c0.18,1.93,0.22,4.15,0.02,6.04
		c-0.37,3.5-2.06,4.98-5.65,5.22c-2.69,0.18-5.34-0.19-7.97-0.67c-2.44-0.44-4.85-1.04-7.27-1.59c-0.65-0.15-1.28-0.39-1.91-0.6
		c-4.01-1.35-6.28-4.18-6.96-8.31c-0.25-1.5-0.49-3.03-0.53-4.54C806.79,146.35,806.89,140.81,807.52,135.44z"/>
	<path class="st6" d="M236.76,152.7c0.62,0.08,1.15,0.74,1.64,1.16c2.71,2.32,4.56,5.36,6.74,8.13c1.06,1.35,2.07,2.73,3.18,4.03
		c1.38,1.62,3.11,2.78,4.95,3.84c1.6,0.92,3.33,1.11,4.99,0.69c2.02-0.51,3.96-1.37,5.87-2.22c0.65-0.29,0.97-1.22,1.62-1.92
		c1.37,0.99,1.9,2.85,2.15,4.42c0.42,2.64,0.72,5.31,0.81,7.98c0.1,2.78-1.03,4.36-3.71,5.07c-2.11,0.56-4.32,0.84-6.5,0.97
		c-3.05,0.18-6.12,0.13-9.18,0.13c-0.95,0-1.9-0.14-2.85-0.26c-3.15-0.39-5.22-2.16-6.45-5.03c-1.22-2.84-1.81-5.85-2.19-8.88
		C237.11,165,236.76,158.8,236.76,152.7z"/>
	<path class="st2" d="M270.1,246.91c-0.35,0.14-0.82,0.13-1.05-0.11c-0.99-1.02-2-2.05-2.86-3.19c-2.66-3.53-5.78-6.62-9.38-9.14
		c-1.67-1.17-3.29-2.65-5.73-2.86c-0.35-0.36-0.3-0.71-0.36-1.15c-1.01-7.48-1.7-14.95-0.93-22.5c0.14-1.42,0.46-2.83,0.82-4.2
		c0.22-0.81,0.62-1.61,1.08-2.32c0.68-1.05,1.67-1.47,2.97-1.16c1.55,0.36,2.81,1.16,3.9,2.28c1.48,1.53,2.51,3.36,3.39,5.27
		c1.85,4.01,3.01,8.25,3.85,12.56c1.06,5.43,1.95,10.89,2.86,16.35C269.2,240.03,269.62,243.35,270.1,246.91z"/>
	<path class="st4" d="M843.21,206.5c0.04,4.68,0.01,11.83,0.05,16.51c0.01,0.86-0.01,1.72,0.06,2.58c0.04,0.46,0.23,0.9,0.35,1.33
		c0.33,0.17,0.57,0.38,0.83,0.41c1.91,0.21,2.61,1.48,2.65,3.17c0.06,2.58,0.14,5.17-0.04,7.74c-0.2,2.84-1.49,4.07-4.31,4.51
		c-0.75,0.12-1.53,0.14-2.29,0.14c-2.87-0.01-5.74,0.09-8.58-0.5c-3.02-0.63-4.19-1.79-4.35-4.79c-0.12-2.29-0.01-4.59,0.03-6.88
		c0.01-0.47,0.13-0.94,0.23-1.41c0.33-1.64,1.12-2.84,2.94-3.06c0.17-0.02,0.33-0.18,0.7-0.41c0.01-0.81,0.03-1.75,0.04-2.69
		c0.04-4.97,0.52-9.64,0.6-14.62c0.03-1.72,0.02-5.66,0.34-7.8c3.21,0.78,5.3,4.98,7.7,6.77
		C841.08,208.16,842.02,206.39,843.21,206.5z"/>
	<path class="st4" d="M595.37,112.39c0.93-0.27,1.37,0.77,1.91,1.31c1.82,1.82,3.61,3.68,5.48,5.46c1.73,1.64,3.69,2.96,5.77,4.14
		c1.84,1.05,3.46,0.7,5.13-0.13c0.68-0.34,1.33-0.77,1.89-1.27c2.07-1.82,4.13-3.66,6.15-5.53c1.05-0.97,2.04-2.01,3.04-3.03
		c2.28-2.3,4.52-4.64,7.43-6.48c-0.29,7.02-2.1,13.7-5.72,19.82c-3.2,5.39-7.69,9.24-13.83,10.89c-1.46,0.39-3.01,0.66-4.52,0.63
		c-3.27-0.07-5.82-1.65-7.77-4.25c-1.51-2.02-2.52-4.28-3.24-6.67C595.7,122.66,595.19,117.47,595.37,112.39z"/>
	<path class="st2" d="M781.18,203.14c-1.16,0.4-2.27,0.55-3.37,0.69c-0.18,0.02-0.37,0.12-0.54,0.11c-2.44-0.15-4.81,0.44-7.46,0.62
		c-0.16-2.39-0.1-4.77,0.01-7.16c0.08-1.52,0.24-3.04,0.37-4.66c-0.54-0.32-1.02-0.6-1.49-0.88c-0.98-0.56-1.53-1.46-1.85-2.47
		c-0.32-1-0.59-2.03-0.68-3.07c-0.28-3.26-0.13-6.51,0.57-9.72c0.71-3.27,2.42-4.67,5.83-4.86c3.27-0.18,6.51,0.11,9.72,0.7
		c2.89,0.54,4.61,2.27,5.03,5.17c0.57,3.92,0.32,7.84-0.57,11.7c-0.52,2.26-1.51,3.01-3.56,3.03c-0.38,0-0.77,0.04-1.14,0.12
		c-0.63,0.15-0.99,0.58-1.01,1.22c-0.03,0.67,0,1.34,0.01,2.01C781.11,198.09,781.18,200.49,781.18,203.14z"/>
	<path class="st6" d="M591.18,106.92c0.05,2.96,0.11,7,0.14,9.96c0.02,2.49-0.02,4.98,0,7.46c0,0.65,0.01,1.32,0.2,1.99
		c0.18,0.63,1.66-0.05,2.22,0.22c1.11,0.51,0.93,1.81,0.96,2.77c0.1,2.97-0.05,5.93-0.57,8.86c-0.44,2.51-1.72,4.44-4.02,5.61
		c-3,1.52-6.13,2.66-9.41,3.42c-0.37,0.09-0.75,0.17-1.13,0.18c-1.28,0.05-2.15-0.62-2.51-1.9c-0.08-0.27-0.13-0.56-0.14-0.85
		c-0.12-3.44-0.23-6.89,0.53-10.29c0.32-1.43,0.76-2.78,2.15-3.56c0.75-0.42,1.01-1.11,1.01-1.93c0.01-1.53,0-3.06,0.02-4.59
		c0.09-6.03,0.27-12.82,0.68-19.11c2.66-0.52,4.85,0.16,7.01,0.94C589.3,106.48,590.2,106.55,591.18,106.92z"/>
	<path class="st4" d="M653.14,102.04c0.79-0.43,1.45,0,2.15,0.3c2.64,1.15,4.99,2.78,7.37,4.36c0.79,0.53,1.57,1.08,2.35,1.63
		c2.84,2,5.76,1.77,8.62,0.16c1.73-0.97,3.4-2.43,5.24-3.58c-0.29,4.12-0.79,8.53-1.33,12.68c-0.31,2.38-1.13,4.63-2.28,6.74
		c-2.39,4.38-6.09,6.69-11.07,6.98c-2.1,0.12-3.8-0.61-4.83-2.43c-0.79-1.4-1.45-2.9-1.94-4.43c-1.19-3.74-1.6-7.64-2.27-11.49
		C654.52,109.39,653.83,105.83,653.14,102.04z"/>
	<path class="st7" d="M596.83,219.99c0.63-0.24,1.17,0.22,1.68,0.06c4.35-1.34,8.35-3.3,11.56-6.99c1.5,0.46,3.16,0.96,4.69,0.88
		c2.44-0.12,3.62,0.81,4.3,3.29c0.35,1.28,0.71,2.6,0.8,3.91c0.17,2.57,0.29,5.15,0.14,7.72c-0.08,1.48-0.54,3.01-1.13,4.39
		c-1.43,3.34-4.09,5.25-7.67,5.68c-2.46,0.3-4.95,0.22-7.4-0.37c-2.4-0.58-4.08-1.97-5.06-4.23c-1-2.31-1.4-4.76-1.65-7.22
		C596.88,224.92,596.89,222.42,596.83,219.99z"/>
	<path class="st2" d="M751.33,192.43c-0.95,0.04-1.45-0.31-1.87-0.91c-1.58-2.26-3.04-4.62-4.84-6.69
		c-2.06-2.36-4.43-4.45-6.87-6.72c0.44-2.09,0.59-3.78,1.32-5.56c1.43-3.52,4.12-5.19,7.85-5.1c2.58,0.06,5.16,0.34,7.65,1.09
		c5.08,1.53,8.31,5.58,8.78,10.9c0.23,2.69-0.08,5.35-0.79,7.95c-0.15,0.55-0.37,1.09-0.61,1.61c-0.93,2-2.35,3.19-4.72,2.94
		c-1.23-0.13-2.49-0.13-3.72-0.07C752.83,191.91,752.2,192.19,751.33,192.43z"/>
	<path class="st2" d="M163.68,224.77c-2.53-0.06-5.09-0.37-7.56,0.5c-1.5,0.53-3,1.07-4.48,1.66c-1.39,0.55-2.75,1.18-4.32,1.77
		c-0.55-2.95-0.57-5.9,0.11-8.83c1.11-4.79,3.99-8,8.74-9.32c4.02-1.11,8.11-1.23,12.19-0.25c4.9,1.18,8.04,4.23,9.39,9.06
		c0.38,1.37,0.59,2.81,0.66,4.23c0.17,3.73,0.1,7.45-0.87,11.3c-1.85-0.75-2.53-2.6-3.71-4c-0.72-0.85-1.31-1.82-2.76-2.36
		c-0.56-1.52-0.63-2.88-1.37-4.06c-0.94-1.51-2.33-1.99-3.93-1.19C165.02,223.67,164.37,224.27,163.68,224.77z"/>
	<path class="st2" d="M843.18,208.92c-1.23,0.15-2.1-0.53-3.02-1.21c-2.4-1.78-4.64-3.83-7.76-4.83c-0.21-1.91-0.21-3.81-0.21-5.87
		c-2.62-0.83-3.31-3.01-3.66-5.5c-0.39-2.79-0.09-5.54,0.35-8.27c0.49-3.01,1.89-4.31,4.89-4.78c1.31-0.21,2.66-0.23,3.99-0.17
		c1.81,0.08,3.62,0.26,5.42,0.5c3.67,0.49,5.49,2.27,5.72,5.99c0.16,2.65-0.07,5.33-0.21,8c-0.04,0.74-0.32,1.49-0.58,2.21
		c-0.39,1.07-1.17,1.71-2.34,1.84c-0.84,0.09-1.67,0.2-2.52,0.3c-0.63,2.04-0.1,3.94-0.13,5.82
		C843.1,204.83,843.19,206.74,843.18,208.92z"/>
	<path class="st2" d="M422.14,251.45c-1.62,0.21-3-0.43-4.36-1.11c-1.37-0.68-2.71-1.39-4.1-2.04c-0.59-0.28-1.25-0.42-2.09-0.62
		c-0.3-0.56-0.39-1.13-0.5-1.79c-2.6-0.43-3.5-2.3-3.92-4.64c-0.62-3.45-0.46-6.87,0.17-10.28c0.46-2.47,1.96-4.21,4.33-4.94
		c2.46-0.76,5.01-1.25,7.53-1.8c1.21-0.26,2.45-0.45,3.69-0.54c2.79-0.2,4.34,1,4.95,3.7c0.06,0.28,0.11,0.57,0.13,0.85
		c0.18,3.45,0.18,6.9-0.55,10.3c-0.44,2.01-1.43,3.43-3.59,4.03c-2,0.55-2.13,0.96-2,3.18
		C421.93,247.58,422.07,249.39,422.14,251.45z"/>
	<path class="st7" d="M634.67,104.17c1.11-0.71,2.08-0.51,3.1-1.01c3.1-1.5,6.38-2.3,10.01-2.65c-0.22,3.91-0.14,7.82,0.19,11.74
		c0.3,3.63,0.5,7.26,0.72,10.89c0.06,0.95,0.13,1.92,0.07,2.87c-0.14,2.15-1.09,3.87-3,4.93c-2.94,1.63-6.15,2.1-9.45,1.75
		c-1.65-0.17-2.76-1.28-3.02-3.01c-0.19-1.31-0.23-2.68-0.15-4.01c0.26-4.4,0.6-8.79,0.9-13.18
		C634.22,110.01,634.44,106.91,634.67,104.17z"/>
	<path class="st2" d="M403.35,242.3c-1.78-0.06-3.48-0.26-5.14-0.61c-1.99-0.42-3.95-0.45-5.93,0c-1.48,0.34-3,0.52-4.45,0.94
		c-2.19,0.63-4.36,1.37-6.38,2.47c-1,0.54-2.07,0.95-3.33,1.43c-0.38-4.4-0.08-8.77,1-13.05c1.26-5.01,3.39-6.88,8.52-7.38
		c2.75-0.27,5.52-0.33,8.26,0.3c4.87,1.12,7.81,4.5,8.06,9.45C404.06,237.93,404.05,240.04,403.35,242.3z"/>
	<path class="st7" d="M270.12,164.27c0.88-0.67,1.66-0.73,2.48-1.17c3.38-1.83,6.54-4.36,10.36-5.79c0.12,2.01,0.43,4.12,1.07,6.03
		c0.73,2.17,1.47,4.34,2.12,6.54c0.51,1.74,1.01,3.49,1.28,5.28c0.23,1.49,0.32,3.07,0.11,4.55c-0.52,3.79-3.02,6.13-6.82,6.64
		c-0.57,0.08-1.15,0.15-1.71,0.11c-6.27-0.45-7.52-2.99-8.3-7.31c-0.1-0.56-0.16-1.14-0.19-1.71
		C270.34,173.24,270.25,168.73,270.12,164.27z"/>
	<path class="st2" d="M563.64,112.42c-0.38,0.25-0.72,0.25-0.91,0.42c-1.8,1.53-3.56,3.11-5.37,4.64c-1.73,1.45-3.5,2.85-5.45,4.29
		c-0.38-5.43-0.18-10.86,0.76-16.25c0.77-4.45,3.12-7.76,7.09-9.86c1.94-1.03,3.95-1.91,5.97-2.77c1.43-0.6,2.95-0.75,4.5-0.56
		c2.02,0.26,3.37,1.34,3.86,3.32c0.84,3.41,0.28,6.67-1.54,9.63c-0.52,0.85-1.46,1.49-2.31,2.07c-0.78,0.53-1.71,0.83-2.57,1.26
		C566.02,109.45,564.61,110.55,563.64,112.42z"/>
	<path class="st2" d="M509.14,222.18c-0.8,0.25-1.32-0.15-1.8-0.64c-0.8-0.82-1.58-1.66-2.43-2.42c-2.23-1.97-4.65-3.59-7.83-4.21
		c-0.37-5.15-0.62-10.29-0.2-15.45c0.19-2.35,1.11-4.22,2.86-5.71c2.34-2,5.04-3.43,7.87-4.62c0.44-0.18,0.91-0.29,1.38-0.37
		c1.31-0.23,2.3,0.31,2.64,1.59c0.24,0.91,0.35,1.89,0.29,2.82c-0.15,2.57-0.4,5.14-0.64,7.7c-0.59,6.37-1.2,12.73-1.81,19.1
		C509.4,220.63,509.29,221.29,509.14,222.18z"/>
	<path class="st3" d="M515.93,145.09c-1.57,0.25-3.05,0.11-4.57-0.11c-2.03-0.3-4.15,0-6.24,0.08c-0.94,0.04-1.88,0.18-3.1,0.24
		c0.55-3.47-0.23-6.84-0.66-10.24c-0.26-1.98-0.44-3.98-0.62-5.97c-0.18-1.95,0.49-3.57,2.04-4.78c2.74-2.13,5.85-3.57,9.11-4.69
		c0.44-0.15,0.94-0.17,1.41-0.17c1.23-0.02,2.01,0.46,2.35,1.68c0.28,0.99,0.4,2.06,0.41,3.1c0.04,4.48,0.02,8.97,0,13.45
		C516.05,140.06,516,142.44,515.93,145.09z"/>
	<path class="st2" d="M591.22,107.73c-1.02-0.11-1.99-0.49-2.97-0.85c-2.16-0.78-4.68-1.88-6.94-1.2c-0.08-0.68-0.01-1.4-0.09-2.15
		c-0.04-0.35-0.34-0.7-0.69-0.73c-0.71-0.06-1.33-0.31-1.79-0.59c-1.24-0.77-1.52-2-1.63-3.18c-0.18-2-0.21-4.03-0.09-6.04
		c0.13-2.03,1.22-3.88,2.91-5c1.03-0.69,2.11-1.34,3.26-1.81c2.21-0.92,4.46-1.71,6.72-2.52c0.62-0.22,1.29-0.37,1.95-0.43
		c2.37-0.22,3.72,0.71,3.93,3.11c0.21,2.37,0.15,4.79-0.06,7.16c-0.16,1.8-1.14,3.24-3,3.86c-0.18,0.06-0.35,0.17-0.52,0.23
		c-1.13,0.43-1.67,1.2-1.5,2.44c0.11,0.85,0.18,1.71,0.24,2.57C591.06,104.23,591.16,105.86,591.22,107.73z"/>
	<path class="st1" d="M434.3,186.71c3.97-1.24,7.91-0.8,11.82,0.45c1.17,0.37,2.39,0.57,3.91,0.33c0.1,4.47-0.07,9.34-0.26,13.81
		c-0.04,1.03-0.37,2.07-0.71,3.05c-0.69,1.99-2.01,3.44-3.98,4.25c-1.78,0.74-3.63,1.19-5.57,1.09c-2.08-0.11-3.43-1.08-3.97-3.1
		c-0.36-1.37-0.53-2.81-0.57-4.23c-0.08-3.15,0.05-6.3-0.06-9.45C434.85,191.04,434.52,188.84,434.3,186.71z"/>
	<path class="st2" d="M689.96,178.43c-1.08,0.48-2.12,0.59-3.08,0.94c-1.47,0.55-2.96,0.45-4.46,0.5c-1.52,0.06-2.73-0.51-3.82-1.52
		c-0.75-0.69-1.59-1.28-2.6-1.93c-0.43-5.1-0.09-10.16,0.54-15.2c0.15-1.21,0.58-2.42,1.06-3.56c0.74-1.74,2.12-2.69,4.05-2.67
		c0.86,0.01,1.73,0.04,2.57,0.19c3.47,0.61,5.43,2.54,5.96,6.06c0.28,1.88,0.38,3.81,0.34,5.72
		C690.44,170.71,690.2,174.44,689.96,178.43z"/>
	<path class="st6" d="M386.62,189.86c1.22-0.09,2.11,0.58,2.99,1.33c3.73,3.18,7.91,5.51,12.72,6.62c1,0.23,2.04,0.38,3.07,0.43
		c1.42,0.07,2.85,0.02,4.54,0.02c0.25,3.05-0.73,5.82-2.35,8.34c-2.47,3.86-6.15,5.23-10.59,4.8c-1.49-0.14-2.75-0.91-3.63-2.09
		c-0.91-1.21-1.76-2.5-2.4-3.87c-0.77-1.63-1.43-3.34-1.9-5.08C388.15,196.97,387.4,193.52,386.62,189.86z"/>
	<path class="st2" d="M490.03,214.69c-1.27,0.16-2.45,0.36-3.64,0.79c-4.14,1.47-7.94,3.54-11.42,6.21
		c-2.09,1.6-4.24,3.13-6.56,4.71c-0.32-5.47,1.08-10.57,3.82-15.3c2.16-3.73,5.21-6.54,8.96-8.66c2.99-1.69,4.56-0.44,5.67,1.66
		c0.62,1.17,1.13,2.43,1.5,3.7C489.01,210,489.5,212.24,490.03,214.69z"/>
	<path class="st5" d="M413.01,197.67c1.87-0.66,3.43-0.75,4.95-1.74c2.88-1.88,5.72-3.81,8.59-5.7c0.64-0.42,1.4-0.99,2.25-1.4
		c-0.02,3.88-0.31,8.02-0.52,11.93c-0.08,1.43-0.12,2.87-0.28,4.29c-0.11,0.94-0.32,1.89-0.61,2.79c-0.73,2.3-2.36,3.76-4.71,4.11
		c-1.68,0.25-3.44,0.24-5.13,0.07c-1.96-0.19-3.34-1.39-3.95-3.29c-0.32-0.99-0.56-2.04-0.6-3.07
		C412.9,203.37,412.95,200.23,413.01,197.67z"/>
	<path class="st2" d="M711.92,172.11c-4.09,0.87-7.96,2.09-11.86,3.19c-0.9,0.25-1.84,0.38-3.02,0.57
		c-0.13-3.03-0.03-6.08,0.14-9.12c0.05-0.94,0.28-1.89,0.51-2.81c0.95-3.81,3.08-5.23,6.93-4.64c0.56,0.09,1.12,0.25,1.67,0.38
		c2.99,0.73,4.76,2.6,5.41,5.62C712.16,167.48,712.03,169.67,711.92,172.11z"/>
	<path class="st2" d="M735.25,175.57c-1.13-0.25-2.16-0.75-3.2-1.22c-3.51-1.57-7.14-2.59-11.03-2.54
		c-2.29,0.03-4.66,0.15-7.23,0.13c0.04-1.96,0.2-3.53,0.57-5.24c0.47-2.14,2.12-3.38,4.36-3.62c0.95-0.1,1.92-0.23,2.85-0.13
		c2.47,0.26,4.95,0.51,7.39,0.98c3.84,0.74,5.61,2.67,6.12,6.55C735.3,172.09,735.26,173.72,735.25,175.57z"/>
	<g>
		<path class="st8" d="M190.33,106.09c0.52,0.66,1.08,1.23,1.67,1.76c0.53,0.47,1.08,0.9,1.66,1.29c0.56,0.38,1.12,0.73,1.7,1.06
			c0.53,0.29,1.07,0.56,1.61,0.83c0.42,0.21,0.84,0.4,1.27,0.58c0.3,0.13,0.61,0.24,0.91,0.34c0.35,0.12,0.71,0.24,1.06,0.36
			c0.09,0.03,0.17,0.05,0.26,0.07c0.36,0.09,0.71,0.17,1.07,0.26c0.06,0.02,0.13,0.04,0.18,0.08c0.09,0.06,0.1,0.17,0.02,0.25
			c-0.04,0.04-0.1,0.08-0.16,0.09c-0.12,0.03-0.24,0.03-0.35,0.05c-0.47,0.11-0.95,0.22-1.42,0.34c-0.58,0.15-1.14,0.37-1.7,0.59
			c-0.44,0.18-0.88,0.37-1.32,0.58c-0.49,0.23-0.98,0.48-1.47,0.74c-0.73,0.39-1.44,0.82-2.13,1.31c-0.73,0.52-1.43,1.1-2.08,1.74
			c-0.58,0.58-1.12,1.22-1.61,1.91c-0.48,0.68-0.9,1.41-1.27,2.18c-0.17,0.37-0.33,0.74-0.48,1.12c-0.17,0.43-0.33,0.86-0.48,1.3
			c-0.1,0.3-0.19,0.61-0.28,0.92c-0.11,0.38-0.21,0.76-0.31,1.13c0,0.02-0.01,0.03-0.01,0.05c-0.09,0.44-0.19,0.87-0.27,1.31
			c-0.09,0.49-0.17,0.97-0.25,1.46c-0.09,0.56-0.14,1.13-0.2,1.69c-0.04,0.41-0.1,0.81-0.14,1.22c-0.03,0.32-0.05,0.65-0.07,0.98
			c-0.01,0.11-0.03,0.21-0.05,0.31c-0.02,0.08-0.05,0.16-0.1,0.22c-0.1,0.14-0.22,0.11-0.28-0.05c-0.03-0.09-0.04-0.19-0.06-0.29
			c-0.05-0.47-0.1-0.93-0.14-1.4c-0.01-0.15-0.02-0.3-0.03-0.44c-0.06-0.46-0.11-0.93-0.18-1.39c-0.09-0.6-0.19-1.2-0.3-1.8
			c-0.08-0.43-0.16-0.86-0.25-1.28c-0.07-0.36-0.15-0.71-0.24-1.07c-0.17-0.65-0.33-1.31-0.52-1.95c-0.28-0.95-0.61-1.86-1.02-2.74
			c-0.61-1.32-1.41-2.46-2.34-3.46c-0.78-0.83-1.62-1.57-2.5-2.22c-0.88-0.65-1.8-1.21-2.75-1.7c-0.84-0.43-1.69-0.81-2.57-1.11
			c-0.78-0.27-1.57-0.49-2.38-0.61c-0.27-0.04-0.54-0.11-0.82-0.16c-0.08-0.02-0.17-0.01-0.25-0.03c-0.06-0.01-0.13-0.04-0.17-0.08
			c-0.08-0.07-0.07-0.17,0.02-0.23c0.03-0.02,0.06-0.03,0.1-0.04c0.07-0.01,0.14-0.02,0.2-0.03c0.55-0.03,1.09-0.08,1.63-0.2
			c0.45-0.1,0.9-0.21,1.34-0.33c0.34-0.09,0.67-0.21,1-0.32c0.27-0.09,0.54-0.19,0.8-0.3c0.47-0.2,0.94-0.4,1.4-0.61
			c0.38-0.18,0.76-0.37,1.13-0.57c0.41-0.23,0.82-0.46,1.21-0.73c0.51-0.34,1.01-0.71,1.51-1.09c0.81-0.63,1.56-1.35,2.23-2.18
			c0.59-0.74,1.1-1.55,1.51-2.45c0.37-0.79,0.68-1.62,0.95-2.47c0.22-0.69,0.41-1.38,0.58-2.09c0.17-0.72,0.35-1.44,0.5-2.16
			c0.11-0.5,0.18-1.01,0.27-1.51c0.06-0.37,0.13-0.74,0.18-1.12c0.07-0.48,0.12-0.96,0.18-1.44c0.03-0.3,0.05-0.6,0.08-0.9
			c0.01-0.08,0.02-0.16,0.04-0.23c0.02-0.07,0.06-0.14,0.11-0.19c0.09-0.1,0.22-0.07,0.27,0.06c0.03,0.07,0.05,0.14,0.05,0.22
			c0.03,0.38,0.06,0.76,0.09,1.14c0.05,0.6,0.09,1.21,0.15,1.81c0.03,0.35,0.1,0.69,0.13,1.04c0.03,0.33,0.07,0.65,0.14,0.96
			c0.02,0.08,0.03,0.16,0.04,0.25c0.03,0.29,0.07,0.57,0.15,0.85c0.02,0.08,0.03,0.16,0.04,0.24c0.04,0.2,0.08,0.39,0.12,0.59
			c0.01,0.03,0.02,0.06,0.02,0.08c0.08,0.37,0.16,0.73,0.26,1.1c0.08,0.32,0.18,0.63,0.28,0.94c0.07,0.23,0.15,0.45,0.23,0.68
			c0.16,0.49,0.34,0.97,0.55,1.44c0.2,0.44,0.4,0.87,0.62,1.3c0.26,0.5,0.55,0.97,0.87,1.42
			C189.95,105.59,190.14,105.84,190.33,106.09z"/>
	</g>
	<g>
		<path class="st8" d="M207.05,122.59c0.24,0.34,0.5,0.64,0.77,0.92c0.24,0.25,0.5,0.47,0.77,0.67c0.26,0.2,0.52,0.38,0.79,0.55
			c0.25,0.15,0.5,0.29,0.75,0.43c0.19,0.11,0.39,0.21,0.59,0.3c0.14,0.07,0.28,0.12,0.42,0.18c0.16,0.06,0.33,0.13,0.49,0.19
			c0.04,0.01,0.08,0.03,0.12,0.04c0.16,0.05,0.33,0.09,0.49,0.14c0.03,0.01,0.06,0.02,0.08,0.04c0.04,0.03,0.05,0.09,0.01,0.13
			c-0.02,0.02-0.05,0.04-0.07,0.05c-0.05,0.01-0.11,0.01-0.16,0.03c-0.22,0.06-0.44,0.12-0.65,0.18c-0.27,0.08-0.53,0.19-0.79,0.31
			c-0.2,0.09-0.41,0.19-0.61,0.3c-0.23,0.12-0.45,0.25-0.68,0.39c-0.34,0.2-0.67,0.43-0.98,0.68c-0.34,0.27-0.66,0.57-0.96,0.91
			c-0.27,0.3-0.52,0.63-0.74,0.99c-0.22,0.35-0.42,0.73-0.59,1.14c-0.08,0.19-0.15,0.39-0.22,0.58c-0.08,0.22-0.15,0.45-0.22,0.68
			c-0.05,0.16-0.09,0.32-0.13,0.48c-0.05,0.2-0.1,0.39-0.14,0.59c0,0.01-0.01,0.02-0.01,0.03c-0.04,0.23-0.09,0.45-0.12,0.68
			c-0.04,0.25-0.08,0.51-0.11,0.76c-0.04,0.29-0.07,0.59-0.09,0.88c-0.02,0.21-0.05,0.42-0.06,0.63c-0.01,0.17-0.02,0.34-0.03,0.51
			c0,0.06-0.01,0.11-0.02,0.16c-0.01,0.04-0.02,0.08-0.04,0.11c-0.04,0.07-0.1,0.06-0.13-0.03c-0.01-0.05-0.02-0.1-0.03-0.15
			c-0.02-0.24-0.05-0.48-0.07-0.73c-0.01-0.08-0.01-0.15-0.02-0.23c-0.03-0.24-0.05-0.48-0.08-0.72c-0.04-0.31-0.09-0.62-0.14-0.93
			c-0.04-0.22-0.08-0.45-0.12-0.67c-0.03-0.19-0.07-0.37-0.11-0.55c-0.08-0.34-0.15-0.68-0.24-1.01c-0.13-0.49-0.28-0.97-0.47-1.43
			c-0.28-0.69-0.65-1.28-1.08-1.8c-0.36-0.43-0.75-0.82-1.16-1.16c-0.41-0.34-0.83-0.63-1.27-0.89c-0.39-0.23-0.78-0.42-1.19-0.58
			c-0.36-0.14-0.73-0.26-1.1-0.32c-0.13-0.02-0.25-0.06-0.38-0.08c-0.04-0.01-0.08,0-0.12-0.01c-0.03-0.01-0.06-0.02-0.08-0.04
			c-0.04-0.04-0.03-0.09,0.01-0.12c0.01-0.01,0.03-0.02,0.04-0.02c0.03-0.01,0.06-0.01,0.09-0.01c0.25-0.01,0.5-0.04,0.75-0.1
			c0.21-0.05,0.41-0.11,0.62-0.17c0.16-0.05,0.31-0.11,0.46-0.17c0.12-0.05,0.25-0.1,0.37-0.16c0.22-0.1,0.43-0.21,0.65-0.32
			c0.18-0.09,0.35-0.19,0.52-0.3c0.19-0.12,0.38-0.24,0.56-0.38c0.24-0.18,0.47-0.37,0.7-0.57c0.37-0.33,0.72-0.7,1.03-1.14
			c0.27-0.38,0.51-0.81,0.7-1.27c0.17-0.41,0.32-0.84,0.44-1.28c0.1-0.36,0.19-0.72,0.27-1.09c0.08-0.37,0.16-0.75,0.23-1.12
			c0.05-0.26,0.08-0.52,0.12-0.79c0.03-0.19,0.06-0.39,0.08-0.58c0.03-0.25,0.06-0.5,0.08-0.75c0.02-0.16,0.02-0.31,0.04-0.47
			c0-0.04,0.01-0.08,0.02-0.12c0.01-0.04,0.03-0.07,0.05-0.1c0.04-0.05,0.1-0.04,0.13,0.03c0.01,0.03,0.02,0.08,0.02,0.11
			c0.01,0.2,0.03,0.39,0.04,0.59c0.02,0.31,0.04,0.63,0.07,0.94c0.02,0.18,0.05,0.36,0.06,0.54c0.01,0.17,0.03,0.34,0.06,0.5
			c0.01,0.04,0.01,0.08,0.02,0.13c0.01,0.15,0.03,0.3,0.07,0.44c0.01,0.04,0.01,0.08,0.02,0.13c0.02,0.1,0.04,0.2,0.06,0.3
			c0,0.01,0.01,0.03,0.01,0.04c0.04,0.19,0.07,0.38,0.12,0.57c0.04,0.16,0.08,0.33,0.13,0.49c0.03,0.12,0.07,0.23,0.1,0.35
			c0.07,0.26,0.16,0.51,0.26,0.75c0.09,0.23,0.19,0.45,0.29,0.67c0.12,0.26,0.25,0.5,0.4,0.74
			C206.88,122.33,206.97,122.45,207.05,122.59z"/>
	</g>
	<g>
		<path class="st8" d="M179.63,143.01c0.2,0.25,0.42,0.47,0.64,0.68c0.2,0.18,0.42,0.35,0.64,0.5c0.21,0.15,0.43,0.28,0.65,0.41
			c0.2,0.11,0.41,0.22,0.62,0.32c0.16,0.08,0.32,0.15,0.49,0.22c0.12,0.05,0.23,0.09,0.35,0.13c0.14,0.05,0.27,0.09,0.41,0.14
			c0.03,0.01,0.07,0.02,0.1,0.03c0.14,0.03,0.27,0.07,0.41,0.1c0.02,0.01,0.05,0.02,0.07,0.03c0.03,0.02,0.04,0.06,0.01,0.1
			c-0.02,0.02-0.04,0.03-0.06,0.03c-0.04,0.01-0.09,0.01-0.13,0.02c-0.18,0.04-0.36,0.09-0.54,0.13c-0.22,0.06-0.44,0.14-0.65,0.23
			c-0.17,0.07-0.34,0.14-0.51,0.22c-0.19,0.09-0.38,0.19-0.56,0.29c-0.28,0.15-0.55,0.32-0.82,0.5c-0.28,0.2-0.55,0.42-0.8,0.67
			c-0.22,0.22-0.43,0.47-0.62,0.73c-0.18,0.26-0.35,0.54-0.49,0.84c-0.07,0.14-0.13,0.29-0.18,0.43c-0.07,0.16-0.13,0.33-0.19,0.5
			c-0.04,0.12-0.07,0.23-0.11,0.35c-0.04,0.14-0.08,0.29-0.12,0.44c0,0.01,0,0.01-0.01,0.02c-0.03,0.17-0.07,0.34-0.1,0.5
			c-0.04,0.19-0.07,0.37-0.09,0.56c-0.03,0.22-0.06,0.43-0.08,0.65c-0.02,0.16-0.04,0.31-0.05,0.47c-0.01,0.12-0.02,0.25-0.03,0.38
			c0,0.04-0.01,0.08-0.02,0.12c-0.01,0.03-0.02,0.06-0.04,0.08c-0.04,0.05-0.08,0.04-0.11-0.02c-0.01-0.03-0.02-0.07-0.02-0.11
			c-0.02-0.18-0.04-0.36-0.06-0.54c-0.01-0.06-0.01-0.11-0.01-0.17c-0.02-0.18-0.04-0.36-0.07-0.53c-0.04-0.23-0.07-0.46-0.12-0.69
			c-0.03-0.17-0.06-0.33-0.1-0.49c-0.03-0.14-0.06-0.27-0.09-0.41c-0.06-0.25-0.13-0.5-0.2-0.75c-0.11-0.36-0.24-0.72-0.39-1.06
			c-0.23-0.51-0.54-0.95-0.9-1.33c-0.3-0.32-0.62-0.6-0.96-0.86c-0.34-0.25-0.69-0.46-1.06-0.65c-0.32-0.17-0.65-0.31-0.99-0.43
			c-0.3-0.1-0.6-0.19-0.91-0.23c-0.1-0.02-0.21-0.04-0.31-0.06c-0.03-0.01-0.06,0-0.1-0.01c-0.02-0.01-0.05-0.01-0.07-0.03
			c-0.03-0.03-0.03-0.07,0.01-0.09c0.01-0.01,0.02-0.01,0.04-0.02c0.03,0,0.05-0.01,0.08-0.01c0.21-0.01,0.42-0.03,0.62-0.08
			c0.17-0.04,0.34-0.08,0.52-0.13c0.13-0.03,0.26-0.08,0.38-0.12c0.1-0.04,0.21-0.07,0.31-0.12c0.18-0.08,0.36-0.15,0.54-0.24
			c0.15-0.07,0.29-0.14,0.43-0.22c0.16-0.09,0.32-0.18,0.47-0.28c0.2-0.13,0.39-0.27,0.58-0.42c0.31-0.24,0.6-0.52,0.86-0.84
			c0.23-0.28,0.42-0.6,0.58-0.94c0.14-0.31,0.26-0.62,0.37-0.95c0.08-0.26,0.16-0.53,0.22-0.81c0.07-0.28,0.13-0.55,0.19-0.83
			c0.04-0.19,0.07-0.39,0.1-0.58c0.02-0.14,0.05-0.29,0.07-0.43c0.03-0.18,0.05-0.37,0.07-0.56c0.01-0.12,0.02-0.23,0.03-0.35
			c0-0.03,0.01-0.06,0.02-0.09c0.01-0.03,0.02-0.05,0.04-0.07c0.04-0.04,0.08-0.03,0.11,0.02c0.01,0.03,0.02,0.06,0.02,0.08
			c0.01,0.15,0.02,0.29,0.03,0.44c0.02,0.23,0.04,0.46,0.06,0.7c0.01,0.13,0.04,0.27,0.05,0.4c0.01,0.13,0.03,0.25,0.05,0.37
			c0.01,0.03,0.01,0.06,0.01,0.09c0.01,0.11,0.03,0.22,0.06,0.33c0.01,0.03,0.01,0.06,0.02,0.09c0.02,0.08,0.03,0.15,0.05,0.23
			c0,0.01,0.01,0.02,0.01,0.03c0.03,0.14,0.06,0.28,0.1,0.42c0.03,0.12,0.07,0.24,0.11,0.36c0.03,0.09,0.06,0.17,0.09,0.26
			c0.06,0.19,0.13,0.37,0.21,0.55c0.08,0.17,0.15,0.34,0.24,0.5c0.1,0.19,0.21,0.37,0.33,0.54
			C179.48,142.82,179.56,142.91,179.63,143.01z"/>
	</g>
	<g>
		<path class="st8" d="M905.6,193.05c0.75,0.73,1.57,1.38,2.44,1.97c0.77,0.53,1.58,1.01,2.42,1.45c0.81,0.43,1.64,0.82,2.48,1.18
			c0.77,0.33,1.56,0.63,2.35,0.93c0.61,0.23,1.23,0.45,1.85,0.65c0.44,0.14,0.89,0.26,1.33,0.39c0.52,0.14,1.03,0.27,1.55,0.4
			c0.12,0.03,0.25,0.06,0.38,0.08c0.52,0.1,1.04,0.19,1.56,0.29c0.09,0.02,0.18,0.04,0.26,0.09c0.13,0.07,0.15,0.19,0.03,0.28
			c-0.06,0.05-0.15,0.09-0.23,0.1c-0.17,0.03-0.34,0.03-0.51,0.06c-0.69,0.12-1.38,0.25-2.06,0.39c-0.84,0.17-1.66,0.41-2.48,0.66
			c-0.65,0.2-1.29,0.42-1.92,0.65c-0.72,0.26-1.43,0.54-2.14,0.83c-1.06,0.43-2.1,0.92-3.1,1.47c-1.07,0.58-2.08,1.23-3.04,1.95
			c-0.85,0.65-1.63,1.36-2.34,2.14c-0.7,0.76-1.31,1.58-1.85,2.45c-0.25,0.41-0.48,0.83-0.7,1.26c-0.25,0.48-0.48,0.97-0.71,1.46
			c-0.15,0.34-0.28,0.68-0.41,1.03c-0.16,0.42-0.3,0.85-0.45,1.27c-0.01,0.02-0.02,0.04-0.02,0.06c-0.13,0.49-0.27,0.98-0.39,1.47
			c-0.14,0.54-0.25,1.09-0.36,1.64c-0.12,0.63-0.21,1.26-0.29,1.9c-0.06,0.46-0.14,0.91-0.2,1.37c-0.05,0.36-0.07,0.73-0.11,1.09
			c-0.01,0.12-0.04,0.24-0.08,0.35c-0.03,0.09-0.08,0.17-0.14,0.24c-0.14,0.15-0.32,0.13-0.41-0.06c-0.05-0.1-0.06-0.22-0.08-0.33
			c-0.07-0.52-0.14-1.04-0.21-1.57c-0.02-0.17-0.02-0.33-0.05-0.5c-0.08-0.52-0.16-1.04-0.26-1.56c-0.13-0.67-0.28-1.34-0.44-2.01
			c-0.11-0.48-0.24-0.96-0.37-1.44c-0.11-0.4-0.22-0.8-0.35-1.19c-0.24-0.73-0.48-1.46-0.76-2.19c-0.4-1.06-0.89-2.09-1.48-3.08
			c-0.89-1.48-2.05-2.76-3.41-3.88c-1.13-0.93-2.36-1.76-3.65-2.49c-1.29-0.73-2.63-1.35-4.01-1.91c-1.22-0.49-2.47-0.91-3.74-1.24
			c-1.14-0.3-2.29-0.55-3.46-0.68c-0.4-0.04-0.79-0.12-1.19-0.18c-0.12-0.02-0.24-0.01-0.36-0.03c-0.09-0.02-0.18-0.04-0.25-0.09
			c-0.11-0.08-0.1-0.19,0.02-0.26c0.04-0.02,0.09-0.04,0.14-0.04c0.1-0.01,0.2-0.03,0.3-0.03c0.79-0.03,1.58-0.09,2.37-0.22
			c0.66-0.11,1.31-0.24,1.96-0.37c0.49-0.1,0.97-0.23,1.45-0.36c0.39-0.11,0.78-0.22,1.17-0.34c0.68-0.22,1.36-0.45,2.04-0.69
			c0.55-0.2,1.1-0.41,1.64-0.64c0.6-0.26,1.2-0.52,1.77-0.82c0.74-0.39,1.48-0.79,2.19-1.22c1.18-0.7,2.27-1.51,3.25-2.45
			c0.86-0.83,1.6-1.74,2.21-2.75c0.54-0.89,1-1.81,1.39-2.77c0.32-0.77,0.6-1.55,0.85-2.35c0.25-0.81,0.51-1.61,0.73-2.42
			c0.16-0.56,0.27-1.13,0.39-1.7c0.09-0.42,0.19-0.83,0.26-1.25c0.1-0.54,0.18-1.08,0.26-1.62c0.05-0.34,0.07-0.68,0.11-1.01
			c0.01-0.09,0.02-0.17,0.06-0.25c0.03-0.08,0.09-0.16,0.15-0.21c0.14-0.11,0.31-0.08,0.4,0.07c0.04,0.07,0.07,0.16,0.08,0.25
			c0.05,0.42,0.08,0.85,0.12,1.27c0.07,0.68,0.13,1.35,0.22,2.03c0.05,0.39,0.14,0.77,0.19,1.16c0.04,0.37,0.1,0.73,0.2,1.08
			c0.03,0.09,0.04,0.18,0.05,0.27c0.04,0.33,0.1,0.64,0.22,0.95c0.03,0.09,0.04,0.18,0.06,0.27c0.06,0.22,0.12,0.44,0.18,0.66
			c0.01,0.03,0.02,0.06,0.03,0.1c0.12,0.41,0.23,0.82,0.37,1.23c0.12,0.35,0.27,0.7,0.41,1.05c0.1,0.25,0.22,0.5,0.33,0.76
			c0.23,0.55,0.5,1.09,0.8,1.61c0.29,0.49,0.58,0.98,0.9,1.45c0.37,0.56,0.8,1.09,1.26,1.59
			C905.05,192.49,905.32,192.76,905.6,193.05z"/>
	</g>
	<g>
		<path class="st8" d="M929.98,211.54c0.35,0.38,0.73,0.72,1.13,1.03c0.36,0.28,0.73,0.53,1.12,0.76c0.37,0.22,0.76,0.43,1.15,0.62
			c0.36,0.17,0.72,0.33,1.09,0.48c0.28,0.12,0.57,0.23,0.85,0.34c0.2,0.08,0.41,0.14,0.62,0.2c0.24,0.07,0.48,0.14,0.72,0.21
			c0.06,0.02,0.12,0.03,0.17,0.04c0.24,0.05,0.48,0.1,0.72,0.15c0.04,0.01,0.08,0.02,0.12,0.04c0.06,0.04,0.07,0.1,0.01,0.15
			c-0.03,0.03-0.07,0.05-0.1,0.05c-0.08,0.02-0.16,0.02-0.24,0.03c-0.32,0.06-0.64,0.13-0.95,0.2c-0.39,0.09-0.77,0.21-1.15,0.34
			c-0.3,0.1-0.59,0.22-0.89,0.34c-0.33,0.14-0.66,0.28-0.99,0.43c-0.49,0.23-0.97,0.48-1.43,0.76c-0.49,0.3-0.96,0.64-1.4,1.02
			c-0.39,0.34-0.75,0.71-1.08,1.11c-0.32,0.4-0.61,0.82-0.85,1.27c-0.12,0.21-0.22,0.43-0.32,0.65c-0.11,0.25-0.22,0.5-0.33,0.76
			c-0.07,0.18-0.13,0.36-0.19,0.54c-0.07,0.22-0.14,0.44-0.21,0.66c0,0.01-0.01,0.02-0.01,0.03c-0.06,0.26-0.13,0.51-0.18,0.77
			c-0.06,0.28-0.12,0.57-0.17,0.85c-0.06,0.33-0.1,0.66-0.14,0.99c-0.03,0.24-0.07,0.47-0.09,0.71c-0.02,0.19-0.03,0.38-0.05,0.57
			c-0.01,0.06-0.02,0.12-0.04,0.18c-0.01,0.04-0.04,0.09-0.07,0.13c-0.06,0.08-0.15,0.07-0.19-0.03c-0.02-0.05-0.03-0.11-0.04-0.17
			c-0.03-0.27-0.07-0.54-0.1-0.81c-0.01-0.09-0.01-0.17-0.02-0.26c-0.04-0.27-0.07-0.54-0.12-0.81c-0.06-0.35-0.13-0.7-0.2-1.05
			c-0.05-0.25-0.11-0.5-0.17-0.75c-0.05-0.21-0.1-0.42-0.16-0.62c-0.11-0.38-0.22-0.76-0.35-1.14c-0.19-0.55-0.41-1.09-0.69-1.6
			c-0.41-0.77-0.95-1.44-1.58-2.02c-0.52-0.49-1.09-0.91-1.69-1.3c-0.59-0.38-1.22-0.71-1.86-0.99c-0.56-0.25-1.14-0.47-1.73-0.65
			c-0.53-0.16-1.06-0.29-1.6-0.36c-0.18-0.02-0.37-0.06-0.55-0.09c-0.06-0.01-0.11-0.01-0.17-0.02c-0.04-0.01-0.08-0.02-0.12-0.05
			c-0.05-0.04-0.05-0.1,0.01-0.14c0.02-0.01,0.04-0.02,0.06-0.02c0.05-0.01,0.09-0.01,0.14-0.02c0.37-0.02,0.73-0.05,1.1-0.12
			c0.3-0.06,0.6-0.12,0.91-0.19c0.23-0.05,0.45-0.12,0.67-0.19c0.18-0.05,0.36-0.11,0.54-0.18c0.32-0.12,0.63-0.23,0.94-0.36
			c0.26-0.1,0.51-0.21,0.76-0.33c0.28-0.13,0.55-0.27,0.82-0.42c0.34-0.2,0.68-0.41,1.01-0.63c0.55-0.37,1.05-0.79,1.5-1.27
			c0.4-0.43,0.74-0.91,1.02-1.43c0.25-0.46,0.46-0.94,0.64-1.44c0.15-0.4,0.28-0.81,0.39-1.22c0.11-0.42,0.23-0.84,0.34-1.26
			c0.07-0.29,0.12-0.59,0.18-0.88c0.04-0.22,0.09-0.43,0.12-0.65c0.04-0.28,0.08-0.56,0.12-0.84c0.02-0.18,0.03-0.35,0.05-0.53
			c0-0.04,0.01-0.09,0.03-0.13c0.02-0.04,0.04-0.08,0.07-0.11c0.06-0.06,0.14-0.04,0.18,0.04c0.02,0.04,0.03,0.08,0.04,0.13
			c0.02,0.22,0.04,0.44,0.06,0.66c0.03,0.35,0.06,0.7,0.1,1.05c0.02,0.2,0.07,0.4,0.09,0.61c0.02,0.19,0.04,0.38,0.09,0.56
			c0.01,0.05,0.02,0.09,0.03,0.14c0.02,0.17,0.05,0.34,0.1,0.5c0.02,0.05,0.02,0.09,0.03,0.14c0.03,0.11,0.06,0.23,0.08,0.34
			c0,0.02,0.01,0.03,0.02,0.05c0.06,0.21,0.11,0.43,0.17,0.64c0.06,0.18,0.12,0.37,0.19,0.55c0.05,0.13,0.1,0.26,0.15,0.39
			c0.11,0.29,0.23,0.57,0.37,0.84c0.13,0.25,0.27,0.51,0.42,0.76c0.17,0.29,0.37,0.57,0.58,0.83
			C929.72,211.25,929.85,211.4,929.98,211.54z"/>
	</g>
	<g>
		<path class="st8" d="M890.01,234.44c0.29,0.28,0.61,0.53,0.94,0.76c0.3,0.2,0.61,0.39,0.93,0.56c0.31,0.16,0.63,0.32,0.95,0.46
			c0.3,0.13,0.6,0.24,0.9,0.36c0.23,0.09,0.47,0.17,0.71,0.25c0.17,0.06,0.34,0.1,0.51,0.15c0.2,0.05,0.4,0.1,0.6,0.16
			c0.05,0.01,0.1,0.02,0.14,0.03c0.2,0.04,0.4,0.07,0.6,0.11c0.03,0.01,0.07,0.02,0.1,0.03c0.05,0.03,0.06,0.07,0.01,0.11
			c-0.02,0.02-0.06,0.03-0.09,0.04c-0.06,0.01-0.13,0.01-0.2,0.02c-0.26,0.05-0.53,0.1-0.79,0.15c-0.32,0.07-0.64,0.16-0.95,0.25
			c-0.25,0.08-0.49,0.16-0.74,0.25c-0.28,0.1-0.55,0.21-0.82,0.32c-0.41,0.17-0.81,0.35-1.19,0.56c-0.41,0.22-0.8,0.47-1.17,0.75
			c-0.33,0.25-0.63,0.52-0.9,0.82c-0.27,0.29-0.51,0.61-0.71,0.94c-0.1,0.16-0.18,0.32-0.27,0.48c-0.1,0.18-0.19,0.37-0.27,0.56
			c-0.06,0.13-0.11,0.26-0.16,0.4c-0.06,0.16-0.12,0.33-0.17,0.49c0,0.01-0.01,0.01-0.01,0.02c-0.05,0.19-0.1,0.38-0.15,0.57
			c-0.05,0.21-0.1,0.42-0.14,0.63c-0.05,0.24-0.08,0.49-0.11,0.73c-0.02,0.18-0.05,0.35-0.08,0.53c-0.02,0.14-0.03,0.28-0.04,0.42
			c0,0.05-0.01,0.09-0.03,0.14c-0.01,0.03-0.03,0.07-0.05,0.09c-0.05,0.06-0.12,0.05-0.16-0.02c-0.02-0.04-0.02-0.08-0.03-0.13
			c-0.03-0.2-0.05-0.4-0.08-0.6c-0.01-0.06-0.01-0.13-0.02-0.19c-0.03-0.2-0.06-0.4-0.1-0.6c-0.05-0.26-0.11-0.52-0.17-0.78
			c-0.04-0.19-0.09-0.37-0.14-0.55c-0.04-0.15-0.08-0.31-0.13-0.46c-0.09-0.28-0.19-0.56-0.29-0.84c-0.15-0.41-0.34-0.8-0.57-1.18
			c-0.34-0.57-0.79-1.06-1.31-1.49c-0.44-0.36-0.91-0.68-1.4-0.96c-0.49-0.28-1.01-0.52-1.54-0.73c-0.47-0.19-0.95-0.35-1.44-0.48
			c-0.44-0.12-0.88-0.21-1.33-0.26c-0.15-0.02-0.3-0.05-0.46-0.07c-0.05-0.01-0.09,0-0.14-0.01c-0.03-0.01-0.07-0.02-0.1-0.04
			c-0.04-0.03-0.04-0.07,0.01-0.1c0.02-0.01,0.04-0.01,0.05-0.02c0.04-0.01,0.08-0.01,0.11-0.01c0.31-0.01,0.61-0.04,0.91-0.09
			c0.25-0.04,0.5-0.09,0.75-0.14c0.19-0.04,0.37-0.09,0.56-0.14c0.15-0.04,0.3-0.08,0.45-0.13c0.26-0.09,0.52-0.17,0.78-0.26
			c0.21-0.08,0.42-0.16,0.63-0.25c0.23-0.1,0.46-0.2,0.68-0.31c0.29-0.15,0.57-0.3,0.84-0.47c0.45-0.27,0.87-0.58,1.25-0.94
			c0.33-0.32,0.61-0.67,0.85-1.06c0.21-0.34,0.38-0.7,0.53-1.06c0.12-0.3,0.23-0.6,0.33-0.9c0.1-0.31,0.2-0.62,0.28-0.93
			c0.06-0.22,0.1-0.44,0.15-0.65c0.04-0.16,0.07-0.32,0.1-0.48c0.04-0.21,0.07-0.42,0.1-0.62c0.02-0.13,0.03-0.26,0.04-0.39
			c0-0.03,0.01-0.07,0.02-0.1c0.01-0.03,0.03-0.06,0.06-0.08c0.05-0.04,0.12-0.03,0.15,0.03c0.02,0.03,0.03,0.06,0.03,0.09
			c0.02,0.16,0.03,0.33,0.05,0.49c0.03,0.26,0.05,0.52,0.08,0.78c0.02,0.15,0.05,0.3,0.07,0.45c0.02,0.14,0.04,0.28,0.08,0.42
			c0.01,0.03,0.02,0.07,0.02,0.11c0.02,0.13,0.04,0.25,0.08,0.37c0.01,0.03,0.02,0.07,0.02,0.1c0.02,0.08,0.05,0.17,0.07,0.25
			c0,0.01,0.01,0.02,0.01,0.04c0.05,0.16,0.09,0.32,0.14,0.47c0.05,0.14,0.1,0.27,0.16,0.4c0.04,0.1,0.09,0.19,0.13,0.29
			c0.09,0.21,0.19,0.42,0.31,0.62c0.11,0.19,0.22,0.38,0.35,0.56c0.14,0.22,0.31,0.42,0.49,0.61
			C889.8,234.23,889.9,234.33,890.01,234.44z"/>
	</g>
</g>
</svg>
