<?xml version="1.0" encoding="utf-8"?>
<!-- Generator: Adobe Illustrator 26.4.1, SVG Export Plug-In . SVG Version: 6.00 Build 0)  -->
<svg version="1.1" id="Dia_Mundial" xmlns="http://www.w3.org/2000/svg" xmlns:xlink="http://www.w3.org/1999/xlink" x="0px"
	 y="0px" viewBox="0 0 1080 420" style="enable-background:new 0 0 1080 420;" xml:space="preserve">
<style type="text/css">
	.st0{clip-path:url(#SVGID_00000092429652167297441120000006374502064974434714_);fill:#EFF6F9;}
	.st1{fill:#3D2F72;}
	.st2{fill:#514483;}
	.st3{fill:#3C2E71;}
	.st4{fill:#514484;}
	.st5{fill:#514584;}
	.st6{fill:#524584;}
	.st7{fill:#534684;}
	.st8{fill:#FEFE5E;}
</style>
<g>
	<g>
		<defs>
			<rect id="SVGID_1_" x="75" y="20" width="925.71" height="371.87"/>
		</defs>
		<clipPath id="SVGID_00000114066614178657289430000017060632957614780823_">
			<use xlink:href="#SVGID_1_"  style="overflow:visible;"/>
		</clipPath>
		<path style="clip-path:url(#SVGID_00000114066614178657289430000017060632957614780823_);fill:#EFF6F9;" d="M999.61,237.82
			c1,10.95-4.43,21.31-11.14,29.6c-18.91,23.19-51.23,30.03-79.79,26.29c-23.71-2.88-45.11-14.04-67.28-22.13
			c-9.67-3.32-19.69-6.18-29.99-6.11c-10.63-0.28-20.82,3.01-31.1,5.18c-7.49,1.58-15.17,2.43-22.82,1.92
			c-11.43-0.67-22.64-3.21-33.72-5.96c-14.61-3.98-29.56-6.8-44.23-1.52c-9.87,3.55-18.18,10.06-27.06,15.46
			c-5.51,3.43-11.26,6.55-17.42,8.64c-6.4,2.18-13.03,3.58-19.71,4.54c-7.75,1.2-15.61,1.6-23.31,3.15
			c-11.67,2.51-22.86,7.15-33.14,13.09c-8.23,4.76-15.74,10.66-22.57,17.26c-11.99,11.74-23.05,24.94-38.11,32.9
			c-10.14,5.74-21.31,9.66-32.91,11.01c-18.18,2.08-36.59-0.62-54.75,1.85c-7.13,0.9-14.17,2.56-20.91,4.97
			c-15.61,5.23-30.69,13.82-47.54,13.7c-18.64,0.05-31-6.4-47.23-14.31c-6.8-3.24-13.85-6.21-21.39-7.03
			c-5.98-0.74-11.81-0.67-17.8-0.56c-12.41,0.27-24.92,0.2-37.17-1.99c-3.73-0.68-7.46-1.47-11.06-2.68
			c-6.29-2.16-12.16-5.49-17.33-9.67c-7.35-5.88-12.92-13.69-19.06-20.72c-6.31-7.36-13.85-13.81-22.57-18.11
			c-18.62-9.2-40.21-13.51-55.58-28.31c-12.73-11.89-17.84-30.47-13.1-47.23c2.25-8.3,6.95-15.64,12.05-22.47
			c6.76-9.14,15.03-17.1,24.39-23.54c11.96-8.61,25.2-15.11,38.12-22.09c8.83-4.85,16.4-11.64,23.1-19.11
			c6.5-7.32,12.01-15.7,19.92-21.64c14.17-10.74,31.19-17.02,48.49-20.58c12.63-2.47,25.56-3.04,38.41-3.32
			c36.96-0.72,73.5,6.09,110.33,7.84c8.87,0.32,17.79,0.36,26.61-0.84c17.9-7.35,35.01-16.8,51.04-27.52
			c10.87-7.36,21.17-15.56,32.52-22.2c19.93-12,36.94-13.17,59.48-9.45c12.99,2.04,26.16,5.08,39.36,3.24
			c7.82-1.03,15.37-3.61,22.67-6.44c9.82-3.83,19.27-8.54,28.45-13.71c10.77-5.89,21.09-13.03,33.01-16.41
			c8.04-2.35,16.49-2.7,24.81-2.36c6.17,0.23,12.32,0.82,18.39,1.95c12.07,2.14,23.6,6.48,34.95,11.01
			c14.37,5.83,28.82,11.55,43.72,15.88c9.03,2.67,18.26,4.61,27.57,6.01c13.07,2.15,26.37,2.59,39.4,5.04
			c11.74,2.28,23.12,7.06,32.52,14.52c10.88,8.71,19.72,19.61,28,30.74c5.06,6.72,10.5,13.26,17.25,18.36
			c9.49,7.17,20.29,12.69,28.57,21.38c6.5,6.64,9.04,16.21,8.67,25.33c-0.21,5.53-1.17,10.99-1.56,16.51
			c-0.53,6.89-0.13,13.95,1.64,20.63C994.22,217.84,998.76,227.42,999.61,237.82z"/>
		<path style="clip-path:url(#SVGID_00000114066614178657289430000017060632957614780823_);fill:#EFF6F9;" d="M387.2,118.68
			c-0.21-1.19,1.29-1.11,2.07-1.16c1.8-0.09,3.6-0.12,5.4-0.2c4.32-0.19,8.62-0.71,12.9-1.31c7.52-0.98,14.86-2.19,22.02-4.58
			c18.44-6.07,35.18-16.12,52.62-24.45c1.73-0.86,3.46-1.72,5.2-2.58c0.41-0.2,0.9-0.08,1.13,0.33c0.21,0.38,0.08,0.93-0.33,1.13
			c-3.73,1.85-7.47,3.71-11.2,5.56c-21.06,10.3-41.9,23-65.61,25.72c-7.31,1.13-14.66,1.92-22.05,2.03
			C388.58,119.14,387.51,119.69,387.2,118.68z"/>
	</g>
	<path class="st1" d="M933.45,224.37c-1.95,0.78-3.26,0.13-5.55,0.22c0.33-2.25,0.87-4.53,1.6-6.74c1.42-4.26,3.27-8.34,5.88-12.01
		c1.48-2.08,3.13-4.11,4.97-5.87c3.48-3.31,7.67-4.87,12.56-4.43c4.23,0.38,7.4,2.37,9.51,6.01c1.65,2.85,2.36,6.01,2.83,9.24
		c0.94,6.49,0.35,12.95-0.31,19.41c-0.25,2.44-0.7,4.87-1.14,7.57c-0.94,0.23-1.41-0.31-1.92-0.95c-2.55-3.19-5.23-6.25-9.23-8.47
		c-0.25-2.22-0.04-4.14-0.29-6c-0.34-2.54-2.09-3.82-4.67-3.89c-2.72-0.08-4.69,1.26-6.22,3.34c-0.65,0.89-1.15,1.89-1.72,2.85"/>
	<path class="st2" d="M546.47,127.98"/>
	<path class="st2" d="M608.46,187.05c1.75,4.53,2.89,11.08,3.5,15.86c0.83,6.5,0.16,12.98-0.33,19.45
		c-0.38,5.02-1.06,10.02-2.36,14.91c-0.06,0.22-0.09,0.44-0.14,0.66c-2.51,10.36-8.47,17.88-18.32,22.17
		c-3.69,1.61-7.41,3.16-11.16,4.65c-1.66,0.66-3.41,1.08-5.24,1.07c-2-0.01-3.53-0.83-4.33-2.62c-0.72-1.62-1.31-3.34-1.68-5.07
		c-0.43-1.96-0.67-3.98-0.79-5.99c-0.88-14.32-0.94-28.66-0.3-42.99c0.23-5.03,1.21-13.2,1.98-18.45c2.42-0.03,3.86,2.82,5.86,3.33
		c2.61,0.66,5.07,1.58,7.47,2.79c1.78,0.9,3.65,1.62,5.48,2.44c1.3,0.58,2.53,0.46,3.88,0.04c3.15-0.96,5.77-2.83,8.44-4.6
		C603.29,192.79,605.64,189,608.46,187.05z M592.81,211.14c-0.7-0.55-1.34-1.22-2.12-1.62c-2.92-1.53-5.92-0.4-7.13,2.66
		c-0.32,0.82-0.51,1.71-0.65,2.59c-0.88,5.45-0.62,10.93-0.47,16.41c0.02,0.77,0.23,1.55,0.44,2.3c0.48,1.7,1.49,2.15,3.02,1.15
		c1.2-0.79,2.35-1.74,3.29-2.82c3.33-3.82,5.16-8.33,5.76-13.34C595.26,215.92,594.77,213.56,592.81,211.14z"/>
	<path class="st3" d="M330.43,211.14c-0.35-1.64-0.73-4.01-1.17-5.62c-0.26-0.96-0.67-1.9-1.17-2.75c-0.56-0.94-1.52-1.3-2.61-1.1
		c-1.06,0.19-1.87,0.76-2.02,1.67c-0.2,1.21-0.43,3.66-0.37,5.18c-3.1-0.24-5.85-1.61-8.63-1.43c-0.33,0.02-0.7,0.05-0.99-0.07
		c-2.04-0.78-4.17,0.08-6.27,0.02c-0.2-2.23-0.51-5.08-0.58-7.31c-0.28-9.07-0.58-18.14-0.68-27.21c-0.06-5.49,0.3-10.97,1.13-16.41
		c0.39-2.55,0.98-5.05,1.97-7.45c1.82-4.42,5.16-6.61,9.88-6.79c3.5-0.13,6.93,0.33,10.3,1.25c4.26,1.17,7.4,3.73,9.16,7.76
		c0.98,2.24,1.75,4.6,2.34,6.98c1.52,6.1,2.08,12.36,2.63,18.61c1.14,12.72,2.18,25.44,3.27,38.17c0.23,2.68,0.49,6.34,0.47,9.27
		c-1.13-0.23-2.03-1.65-2.85-2.19c-2.24-1.48-4.12-3.37-5.99-5.28C335.92,214.03,333.34,212.79,330.43,211.14z M320.74,170.04
		c1.37,3.01,3.65,4.69,7,4.81c2.18,0.08,3.05-0.58,3.34-2.8c0.33-2.46,0.07-4.9-0.83-7.22c-0.96-2.47-2.8-3.94-5.42-4.45
		c-2.2-0.43-3.68,0.43-4.33,2.58C319.85,165.16,319.88,167.36,320.74,170.04z"/>
	<path class="st3" d="M210.83,288.57c-0.16-0.65-0.4-3.27-0.46-3.93c-1.06-11.72-2.04-22.19-2.1-33.97
		c-0.02-4.71,0.19-9.42,1.18-14.04c0.26-1.2,0.6-2.4,1.09-3.52c1.38-3.16,3.47-4.37,6.95-4.05c1.11,0.1,2.23,0.3,3.3,0.59
		c9.08,2.45,16.84,7.19,23.61,13.64c1.13,1.07,2.09,2.34,3.03,3.59c1.51,2.01,2.51,4.25,2.66,6.79c0.17,3.02,0.36,6.04,0.37,9.06
		c0,1.32-0.3,2.68-0.7,3.95c-0.76,2.39-2.31,3.39-4.85,3.25c-2.15-0.12-4.18-0.77-6.13-1.65c-1.73-0.78-3.42-1.67-5.13-2.5
		c-0.81-0.39-1.6-0.82-2.43-1.14c-1.98-0.77-3.28,0.04-3.52,2.18c-0.22,2.02,0.31,3.84,1.82,5.19c1.07,0.96,2.28,1.84,3.57,2.46
		c2.01,0.96,4.16,1.65,6.23,2.5c1.65,0.68,3.32,1.34,4.91,2.16c2.08,1.08,3.49,2.83,4.2,5.04c1.1,3.44,1.55,6.99,1.34,10.61
		c-0.02,0.33-0.08,0.67-0.14,1c-0.55,2.8-2.37,3.86-4.89,3.08c-2.67-0.83-5.31-1.77-7.97-2.62c-1.27-0.4-2.57-0.69-4.26-1.2
		c-1.99-0.93-3.52-1.86-5.18-2.43c-4.06-1.4-8.17-2.67-12.29-3.91C213.67,288.28,212.23,288.84,210.83,288.57z"/>
	<path class="st3" d="M387.52,198.1c-0.64-1.01-2.22-1-3.56-0.4c-1.4,0.05-1.93,0-2.82-0.02c-3.4-0.1-6.32,0.92-8.62,3.52
		c-0.59,0.67-1.27,1.25-1.89,1.88c-0.61,0.62-1.28,3.1-2.07,3.07c-0.43-5.35-1.06-13.13-1.35-18.49c-0.43-7.94-0.7-15.88-1-23.83
		c-0.1-2.69-0.04-5.4,0.8-7.98c0.52-1.58,1.16-3.16,1.99-4.59c1.28-2.21,3.26-3.74,5.74-4.38c6.38-1.63,10.85-0.24,14.17,5.24
		c1.2,1.99,2.03,4.23,2.92,6.39c0.6,1.44,0.97,2.98,1.52,4.44c0.26,0.7,0.72,1.32,1.04,1.87c0.91,0.1,1.22-0.38,1.43-0.88
		c0.5-1.24,0.95-2.51,1.42-3.76c0.67-1.78,1.28-3.58,2.02-5.33c0.52-1.23,1.15-2.43,1.87-3.56c2.97-4.64,6.64-6.56,13.33-4.93
		c3.41,0.83,5.62,3.12,7.01,6.24c1.35,3.01,1.82,6.22,1.94,9.48c0.11,2.91-0.29,6.36-0.31,9.67c-1.34,0.38-2.28-0.34-3.24-0.09
		c-4.28,1.11-8.11,3.14-11.23,6.27c-3.3,3.31-6.78,6.43-9.66,10.17c-1.83,2.37-4.22,4.29-6.31,6.46
		C391.15,196.13,389.65,197.64,387.52,198.1z"/>
	<path class="st4" d="M632.49,178.15c0.01,1.01-0.49,4.71-0.39,5.71c0.13,1.39,1,2.3,2.39,2.34c1.33,0.03,2.67-0.15,3.99-0.36
		c1.76-0.28,3.5-0.82,5.27-0.98c2.62-0.24,3.66,0.66,4.2,3.25c0.11,0.55,0.19,1.11,0.21,1.66c0.14,4.28-0.33,8.49-1.3,12.66
		c-0.15,0.65-0.41,1.28-0.66,1.9c-0.9,2.23-2.44,3.72-4.84,4.22c-1.97,0.4-3.94,0.92-5.93,1.11c-2.14,0.21-3.19,1.37-3.68,3.29
		c-0.47,1.86-0.79,3.74-0.36,5.64c0.14,0.64,0.43,1.27,0.78,1.82c0.38,0.62,1.05,0.89,1.75,0.66c1.16-0.39,2.29-0.89,3.43-1.35
		c1.76-0.71,3.48-1.56,5.3-2.09c3.39-0.99,5.62,0.25,6.82,3.59c0.26,0.74,0.5,1.5,0.6,2.27c0.59,4.35,0.64,8.71,0.21,13.07
		c-0.25,2.46-1.56,4.46-3.65,5.77c-1.51,0.94-3.12,1.81-4.79,2.38c-5.73,1.95-11.59,3.39-17.56,4.4c-0.55,0.09-1.11,0.17-1.67,0.18
		c-3.31,0.04-5.32-1.18-6.49-4.29c-0.67-1.76-1.14-3.65-1.37-5.52c-0.38-3.11-0.63-6.24-0.69-9.37c-0.27-13.78,0.32-22.6,1.06-36.35
		c0.07-1.34,0.58-9.87,0.97-11.51c1.28-0.56,1.87,1.58,2.74,1.15C623,181.35,627.86,177.85,632.49,178.15z"/>
	<path class="st4" d="M518.96,146.66c-0.06,0.7-0.11,2.14-0.12,2.81c-0.15,8.4-0.12,16.53-0.32,24.93
		c-0.14,5.8-1.52,11.29-4.18,16.45c-1.98,3.84-4.69,7.08-8.11,9.73c-0.71,0.55-1.44,1.08-2.23,1.5c-2,1.08-3.67,0.88-5.12-0.85
		c-0.99-1.18-1.9-2.54-2.44-3.97c-1.12-2.92-2.09-5.91-2.9-8.93c-1.23-4.54-2.2-9.14-3.41-13.68c-0.49-1.82-1.24-3.59-2.02-5.32
		c-0.46-1.03-1.22-1.99-2.55-1.82c-1.35,0.17-1.77,1.33-1.97,2.43c-0.25,1.43-0.33,2.89-0.36,4.34c-0.09,4.72,0.46,9.39,1.16,14.04
		c0.77,5.09,1.63,10.17,2.51,15.24c0.65,3.74-0.57,6.85-3.09,9.5c-2.28,2.4-5.1,3.99-8.2,5.1c-0.52,0.19-1.08,0.31-1.63,0.37
		c-2.03,0.22-3.23-0.43-3.99-2.29c-0.38-0.92-0.64-1.92-0.75-2.91c-0.23-2-0.42-4.01-0.48-6.02c-0.29-10.86-0.53-21.72-0.51-32.94
		c0.69-0.87,1.19-1.32,1.49-1.88c2.6-4.99,5.94-9.41,10.4-12.86c3.09-2.39,6.54-3.55,10.61-2.51c2.23,0.57,4.14,1.56,6,2.81
		c1.48,0.99,2.94,2.03,4.5,2.88c1.55,0.84,3.31,1.09,4.69-0.2c1.95-1.82,3.97-3.57,5.44-5.88c1.85-2.91,3.88-5.71,5.9-8.5
		C517.61,147.75,518.41,147,518.96,146.66z"/>
	<path class="st2" d="M772.47,176.15c-0.57,2.49-1.43,5.7-1.96,8.2c-0.98,4.57-1.98,9.15-2.85,13.74c-0.33,1.74-0.36,3.55-0.44,5.33
		c-0.03,0.77,0.07,1.57,0.26,2.31c0.31,1.18,1.81,1.63,2.67,0.79c0.54-0.53,1.05-1.18,1.34-1.88c0.73-1.74,1.42-3.51,1.97-5.32
		c1.49-4.9,2.9-9.83,4.74-14.89c0.78,0.23,1.27,0.55,1.53,0.99c1.9,3.25,3.7,6.56,5.63,9.79c1.19,1.99,2.81,3.19,5.27,3.81
		c-0.47,1.95-1.14,4.64-1.68,6.58c-1.96,7-3.93,14.01-5.97,20.98c-0.56,1.93-1.36,3.79-2.14,5.65c-0.47,1.13-1.08,2.21-1.69,3.28
		c-2.68,4.71-6.76,7.05-12.16,6.98c-2.91-0.04-5.81-0.33-8.64-1.11c-4.19-1.16-7.03-3.75-8.52-7.86c-1.32-3.64-1.71-7.44-1.7-11.24
		c0.02-4.36,0.24-8.74,0.7-13.08c1.15-10.81,3.45-22.09,6.4-32.85c1.16-0.35,1.73,0.15,2.46-0.04c0.96-0.24,1.9-0.75,2.85-0.76
		c3.49-0.06,7.04-0.55,10.39,1.01C771.32,176.74,772.05,176.05,772.47,176.15z"/>
	<path class="st2" d="M757.48,83.76c4.02,4.84,7.1,13.72,6.1,20.53c-0.41,2.77-0.78,5.54-1.66,8.2c-2.59,7.8-7.81,12.66-16.05,13.92
		c-2.86,0.44-5.78,0.72-8.67,0.74c-6.6,0.06-13.21,0.01-19.79-0.76c-1.33-0.16-2.65-0.39-3.96-0.69c-3.97-0.91-6.55-3.35-7.48-7.31
		c-0.54-2.27-0.91-4.61-1.11-6.94c-0.23-2.67-0.21-5.37-0.23-8.05c-0.04-6.04-0.04-14.34,0.3-20.7c3.63-1.33,6.99,1.29,10.33,1.29
		c0.65,0,1.29,0.29,1.94,0.44c2.23,0.5,4.1,1.74,5.94,2.99c1.03,0.7,2.37,0.8,3.6,0.93c-0.26,0.53-0.87,1.43-0.95,1.74
		c-0.98,3.98-0.93,7.98-0.24,11.99c0.06,0.33,0.15,0.66,0.28,0.96c0.37,0.86,0.95,1.56,1.88,1.78c0.86,0.21,1.77,0.44,2.64,0.38
		c2.71-0.18,5.34-0.81,7.59-2.41c1.07-0.77,2.11-1.71,2.84-2.79c1.54-2.25,1.33-4.4-0.46-6.45c-0.8-0.92-3.09-2.62-3.85-3.7
		C743.27,86.68,750.22,84.07,757.48,83.76z"/>
	<path class="st2" d="M408.88,291.88c0.18,0.99,0.89,6.02,0.96,7.01c0.58,8.04,1.15,16.09,1.66,24.13c0.19,3.03,0.09,6.05-0.86,8.98
		c-1.6,4.9-4.75,8.29-9.67,9.96c-3.14,1.06-5.16,0.57-7.02-2.16c-1.25-1.83-2.31-3.86-3.09-5.93c-1.37-3.66-2.45-7.44-3.68-11.16
		c-1.05-3.19-2.08-6.38-3.23-9.53c-0.46-1.25-1.14-2.44-1.88-3.55c-0.41-0.61-1.11-1.07-1.76-1.48c-0.53-0.34-1.51,0.09-1.65,0.7
		c-0.19,0.86-0.33,1.76-0.35,2.64c-0.11,3.38,0.47,6.71,1.12,10c1.04,5.27,2.24,10.51,3.36,15.76c0.21,0.98,0.44,1.97,0.53,2.97
		c0.22,2.37-0.81,4.13-2.89,5.24c-2.22,1.18-4.63,1.64-7.12,1.74c-5.18,0.21-7.23-1.52-7.65-6.67c-0.5-6.14-0.81-12.29-1.35-18.43
		c-0.76-8.59-1.62-17.17-2.49-25.74c-0.45-4.46-1-9.98-1.21-14.71c0.73-0.17,1.18,0.97,1.58,1.14c1.9,0.76,3.34,2.19,4.97,3.35
		c2.22,1.58,4.17,3.46,5.82,5.53c1.68,2.12,3.59,3.98,5.43,5.93c1.48,1.57,3.32,2.63,5.2,3.63c1.01,0.53,2.07,0.71,3.22,0.79
		c2.98,0.21,5.75-0.67,8.53-1.5C400.05,299.12,404.03,292.83,408.88,291.88z"/>
	<path class="st2" d="M281.8,177.15c0.22,2.11,0.64,5.2,0.71,7.31c0.24,7.05,0.01,14.09-1.04,21.08c-0.43,2.88-1.16,5.69-2.36,8.36
		c-2.21,4.88-5.93,7.46-11.33,7.38c-2-0.03-4.05-0.12-5.99-0.54c-3.92-0.86-7.84-1.83-11.67-3.01c-5.6-1.73-9.04-5.61-10.3-11.33
		c-0.58-2.61-1.07-5.27-1.31-7.93c-0.85-9.37-0.71-18.77-0.39-28.17c0.13-3.91,0.44-8.81,0.88-13c1.04-0.02,1.64,1.13,2.31,1.49
		c1.36,0.72,2.79,1.4,3.96,2.37c1.96,1.63,3.67,3.54,5.01,5.73c0.52,0.85,1.04,1.71,1.68,2.47c0.32,0.37,0.83-0.4,1.34,0.15
		c-0.01,4.33-0.03,9.26,0,13.28c0.01,1.44,0.25,2.9,0.62,4.29c0.69,2.58,2.59,3.54,5.16,2.79c2.67-0.78,4.42-2.62,5.42-5.1
		c0.58-1.43,1.05-4,1.73-5.53c1.5-0.2,2.44,0.7,3.6,0.4C273.78,178.63,277.67,176.84,281.8,177.15z"/>
	<path class="st2" d="M196.41,275.46c-0.72,0.56-1.24,1.4-0.89,2.19c0.64,1.43,1.26,2.88,2.05,4.23c2.43,4.16,4.99,8.25,7.39,12.42
		c1.45,2.52,2.74,5.14,4.04,7.74c1.85,3.72,2,7.77,2.18,11.81c0.01,0.11-0.01,0.22-0.02,0.34c-0.26,2.81-1.36,3.82-4.15,3.58
		c-3.03-0.26-5.95-1.06-8.78-2.17c-1.72-0.68-3.1-1.89-4.05-3.43c-1.29-2.09-2.53-4.24-3.51-6.48c-2.11-4.84-3.36-9.97-4.74-15.05
		c-0.68-2.48-1.34-4.98-2.13-7.43c-0.45-1.38-1.08-2.7-1.77-3.98c-0.28-0.52-0.91-0.85-1.61-1.48c-0.34,0.74-0.71,1.2-0.74,1.68
		c-0.12,1.78-0.32,3.58-0.15,5.35c0.58,6.14,1.29,12.26,1.96,18.38c0.05,0.45,0.15,0.89,0.17,1.33c0.13,2.62-1.15,4.22-3.73,4.06
		c-4.23-0.27-8.17-1.58-11.22-4.69c-2.15-2.19-2.73-5.09-2.95-8.04c-0.22-2.91-0.42-5.82-0.52-8.73c-0.33-9.64-0.52-20.44-0.5-30.39
		c1.62-0.61,2.85,0.37,4.1-0.06c3.61-1.24,7.28-1.85,11.11-1.8c4.87,0.06,8.41,2.36,11.33,6.02c2.97,3.72,4.36,8.23,6.45,12.4
		C196.05,273.91,196.31,274.69,196.41,275.46z"/>
	<path class="st4" d="M544.41,215.69c0.07,0.66,0.18,2.14,0.19,2.8c0.26,14.22,0.52,28.43,0.77,42.65
		c0.06,3.36,0.05,6.72-0.79,10.01c-1.5,5.9-4.57,10.65-9.98,13.7c-0.49,0.27-0.97,0.58-1.49,0.77c-1.85,0.68-3.64,0.5-4.86-1.13
		c-1.13-1.5-2.2-3.13-2.9-4.86c-1.13-2.79-1.98-5.7-2.88-8.58c-0.9-2.88-1.7-5.8-2.61-8.68c-0.37-1.17-0.86-2.3-1.36-3.43
		c-0.27-0.61-0.64-1.18-1.04-1.72c-0.48-0.66-1.13-1.13-2.01-0.94c-0.88,0.19-1.27,0.93-1.45,1.69c-0.21,0.86-0.28,1.76-0.33,2.65
		c-0.17,3.38,0.37,6.71,0.96,10.01c0.84,4.73,1.9,9.43,2.86,14.14c0.11,0.55,0.21,1.1,0.32,1.65c0.55,2.74-0.23,5.1-2.13,7.09
		c-2.45,2.56-5.43,4.32-8.75,5.46c-2.26,0.78-3.6-0.01-4.3-2.37c-0.25-0.85-0.36-1.75-0.41-2.64c-0.4-6.03-0.77-12.06-1.17-18.1
		c-0.46-7.04-0.94-15.06-1.11-22.39c1.23,0.07,2.18,1.38,3.09,1.8c1.22,0.55,2.4,1.21,3.62,1.76c1.74,0.78,3.44,0.9,5.03-0.41
		c0.86-0.71,1.81-1.31,2.62-2.07c1.31-1.22,2.6-2.47,3.8-3.8c2.94-3.23,6.36-5.59,10.85-6.24c0.81-1.4,1.64-2.72,2.36-4.1
		c3.81-7.35,7.58-14.71,11.39-22.06C543.09,217.62,543.3,215.83,544.41,215.69z"/>
	<path class="st3" d="M593.99,121.83c0.27-7.04,0.49-14.09,0.83-21.13c0.19-3.91,0.77-7.78,1.56-11.63
		c1.72-8.36,6.5-13.78,14.8-16.07c3.57-0.99,7.15-1.83,10.85-2.09c0.22-0.02,0.45-0.06,0.67-0.06c6-0.09,9.88,1.6,12.09,8.39
		c1.26,3.86,1.73,7.87,1.95,11.9c0.5,9.28,0.51,18.58-0.21,28.18c-0.76,0.41-1.24,0.42-1.6,0.64c-2.44,1.46-4.77,1.28-7.21-0.12
		c-2.2-1.27-4.54-2.31-6.82-3.45c-1-0.5-1.93-0.57-3.09-0.29c0,0-0.23-0.55-0.46-0.78c-0.72-0.71-1.47-0.84-2.2-0.64
		c-0.3,0.08-0.67,0.35-1.1,0.81c-2.84-0.82-5.21-0.64-7.63,0.05c-3.06,0.87-5.76,2.34-8.35,4.14
		C596.81,120.51,595.66,121.69,593.99,121.83z M620.8,93.97c2.24-1.3,2.29-3.42,2.04-5.6c-0.23-2.04-1.41-3.22-3.44-3.57
		c-1.47-0.26-2.9,0-4.3,0.45c-2.99,0.95-4.59,3.2-4.5,6.3c0.06,2.02,1.16,3.4,3.18,3.71c0.98,0.15,2.02,0.11,3-0.07
		C617.98,94.98,619.14,94.53,620.8,93.97z"/>
	<path class="st3" d="M716.7,189.71c-2.4-1.87-3.59-4.52-4.55-7.29c-1.28-3.66-1.47-7.46-1.29-11.29c0.22-4.72,0.93-9.37,2.64-13.81
		c2.49-6.49,6.6-11.68,12.61-15.25c3.95-2.34,8.21-3.52,12.85-3.13c5.36,0.45,9.74,2.79,12.75,7.18c4.78,6.98,5.92,14.65,3.44,22.76
		c-0.79,2.6-2.23,4.88-4.29,6.72c-1.38,1.23-2.96,2.05-4.8,2.22c-3.44,0.33-5.79-1.07-6.76-4.21c-0.43-1.38-0.57-2.85-0.84-4.28
		c-0.21-1.1-0.33-2.23-0.66-3.28c-0.5-1.58-1.87-2.19-3.47-1.69c-1.13,0.35-1.95,1.08-2.53,2.09c-1.02,1.78-1.52,3.74-1.78,5.74
		c-0.17,1.28,0.34,2.46,1.19,3.4c1.12,1.25,2.86,3.32,4.08,4.47c2.11,2,4.32,4.17,5.81,6.6c-1.19,0.81-2.69,0.45-3.68,0.93
		c-2.09,1.01-4.19,1.99-6.29,2.96c-1.06,0.49-2.14,0.44-3.25,0.12C724.22,189.64,720.49,189.37,716.7,189.71z"/>
	<path class="st5" d="M357.42,280.12c0.15,1.83,0.18,4.79,0.04,6.67c-0.09,1.2-0.47,2.42-0.93,3.55c-0.62,1.53-1.82,2.52-3.44,2.95
		c-1.65,0.43-3.3,0.58-4.99,0.22c-2.08-0.44-4.16-0.88-6.25-1.27c-1.96-0.36-3,0.32-3.46,2.18c-0.6,2.43,0.5,4.77,2.8,5.84
		c1.65,0.76,3.41,1.01,5.22,1.12c1.78,0.11,3.57,0.28,5.34,0.55c2.35,0.35,3.79,1.82,4.43,4.06c0.97,3.39,1.06,6.87,0.62,10.33
		c-0.38,2.94-1.99,4.25-5.04,4.31c-1.22,0.03-2.45-0.2-3.68-0.3c-1.23-0.1-2.46-0.24-3.69-0.27c-1.43-0.04-2.07,0.45-2.32,1.87
		c-0.15,0.87-0.23,1.79-0.14,2.67c0.31,2.99,2.05,4.38,5,4.05c1.67-0.19,3.32-0.48,4.99-0.7c0.78-0.1,1.56-0.21,2.34-0.21
		c4.07,0,6.56,1.73,7.87,5.55c0.91,2.67,1.24,5.45,1.35,8.26c0.09,2.4-1.05,4.09-3.27,4.96c-1.14,0.45-2.33,0.88-3.53,1.05
		c-6.59,0.89-13.17,0.78-19.74-0.3c-5.04-0.83-8.32-3.74-9.8-8.54c-0.99-3.2-1.87-6.46-2.42-9.75c-0.91-5.41-1.5-11.76-1.96-17.51
		c0.77-0.72,1.41-0.14,1.74-0.66c2.33-3.66,4.63-7.34,6.87-11.05c3.12-5.17,6.67-10.02,11.21-14.03c3.33-2.94,7.13-4.97,11.81-4.59
		C355.4,281.18,356.41,280.12,357.42,280.12z"/>
	<path class="st3" d="M518.93,146.89c-0.61,0.65-1.32,0.86-1.67,1.35c-2.02,2.79-4.05,5.59-5.9,8.5c-1.47,2.31-3.49,4.06-5.44,5.88
		c-1.38,1.29-3.15,1.04-4.69,0.2c-1.56-0.85-3.02-1.88-4.5-2.88c-1.86-1.25-3.76-2.24-6-2.81c-4.07-1.04-7.52,0.12-10.61,2.51
		c-4.45,3.45-7.79,7.87-10.4,12.86c-0.29,0.56-0.89,1.38-1.51,1.93c-0.13-4.68-0.25-9.9-0.28-14.61c-0.02-3.14-0.02-6.1,0.04-9.24
		c0.07-3.72,0.66-7.37,1.96-10.86c2.18-5.86,6.16-10.07,11.85-12.66c2.98-1.35,4.85-0.99,6.71,1.69c1.2,1.73,2.17,3.67,2.97,5.62
		c1.23,3,2.2,6.11,3.34,9.15c0.55,1.47,1.17,2.91,1.85,4.32c0.28,0.59,0.75,1.11,1.22,1.58c0.59,0.61,1.55,0.62,2.09-0.07
		c0.61-0.78,1.27-1.64,1.5-2.56c0.42-1.73,0.79-3.54,0.72-5.29c-0.15-3.58-0.63-7.14-0.92-10.71c-0.18-2.23-0.26-4.47-0.39-6.71
		c-0.14-2.43,0.86-4.39,2.67-5.89c3.22-2.68,6.93-4.52,10.86-5.93c0.52-0.19,1.09-0.27,1.65-0.31c1.55-0.1,2.63,0.55,3.01,2.09
		c0.34,1.4,0.53,2.87,0.52,4.31c-0.05,5.16-0.22,10.31-0.33,15.47C519.17,138.06,519.09,142.32,518.93,146.89z"/>
	<path class="st2" d="M567.75,139.79c-1.18,9.61-5.07,18.79-11.78,25.82c-2.08,2.18-4.31,4.27-6.72,6.06
		c-4.84,3.6-9.83,7.01-14.83,10.39c-1.46,0.99-3.13,1.76-4.79,2.36c-2.91,1.06-4.7,0.25-5.9-2.64c-0.59-1.43-1.03-2.97-1.24-4.5
		c-0.38-2.76-0.73-5.56-0.76-8.34c-0.08-9.28,0.08-19.19,0.38-28.81c2.36-1.36,3.56-2.63,5.13-4.19c2-1.98,4.17-3.68,6.49-5.27
		c2.31-1.59,4.89-2.09,7.49-2.72c0.19-0.05,0.85,0.01,0.97,0.39c-2.14,1.34-3.35,3.55-3.73,5.74c-0.81,4.65-0.61,9.34-0.48,14.02
		c0.03,1.1,0.11,2.4,1.17,2.98c1.31,0.71,2.34-0.34,3.24-1.13c4.14-3.61,6.96-8.05,8.38-13.39c0.74-2.8,0.6-5.38-1.22-7.55
		c1.03,0.09,1.8,0.1,2.44,0.44c1.76,0.93,3.56,1.87,5.12,3.1c2.35,1.85,4.52,3.93,6.72,5.96
		C564.92,139.51,566.23,139.64,567.75,139.79z"/>
	<path class="st6" d="M897.75,121.39c-0.01,4.24,0.24,9.49-0.07,13.71c-0.72,9.94-2.37,19.76-4.49,29.5
		c-0.36,1.64-0.73,3.29-1.32,4.85c-1.38,3.66-3.45,4.5-7.13,3.05c-0.73-0.29-1.43-0.65-2.1-1.04c-2.34-1.33-3.57-3.36-3.5-6.06
		c0.04-1.33,0.24-2.67,0.44-3.99c0.54-3.65,1.17-7.28,1.66-10.94c0.15-1.09,0.08-2.25-0.13-3.34c-0.14-0.71-0.6-1.45-1.12-1.96
		c-1.06-1.02-2.41-0.8-3.06,0.49c-0.5,0.99-0.9,2.05-1.16,3.13c-0.73,3.04-1.32,6.12-2.07,9.16c-0.4,1.62-0.9,3.24-1.6,4.74
		c-0.85,1.83-2.45,2.52-4.46,2.16c-2.49-0.44-4.7-1.51-6.52-3.24c-1.85-1.76-2.29-4.07-1.96-6.5c0.35-2.55,0.83-5.08,1.31-7.61
		c1.65-8.69,2.4-14.94,3.5-23.7c0.25-2,1.38-7.87,1.86-10.51c0.87-0.22,1.07,1.65,1.49,1.54c3.29-0.85,6.56-0.91,9.86-0.04
		c0.63,0.17,1.59-0.8,2.19-0.49c-1.37,4.47-0.65,8.55,2.68,10.72c0.74,0.48,1.54,0.89,2.37,1.2c2.17,0.81,3.16,0.21,3.48-2.01
		c0.33-2.26,0.13-5.49-1.24-7.24c1.55-0.24,3.24,0.86,4.28,1.54c1.66,1.08,3.27,2.25,4.96,3.29
		C896.42,122.15,897.12,121.21,897.75,121.39z"/>
	<path class="st3" d="M196.28,275.57c-0.33-0.79-0.23-1.66-0.56-2.31c-2.08-4.16-3.48-8.68-6.45-12.4
		c-2.92-3.66-6.47-5.96-11.33-6.02c-3.83-0.05-7.5,0.56-11.11,1.8c-1.25,0.43-2.57,0.62-4.13,0.92c-0.32-1.34-0.43-2.68-0.43-4.02
		c0-6.94-0.01-13.88,0.04-20.81c0.03-3.73,0.72-7.35,2.37-10.73c1.44-2.94,3.56-5.18,6.95-5.78c1.19-0.21,2.46-0.26,3.65-0.08
		c1.54,0.23,3.08,0.63,4.54,1.17c8.52,3.2,15.48,8.46,20.59,16.02c3.59,5.3,5.65,11.16,5.76,17.61c0.06,3.69,0.06,7.39-0.07,11.07
		c-0.1,2.8-0.61,5.56-1.7,8.17c-0.98,2.37-1.95,3.59-4.88,4.72c-0.77,0.3-1.75,0.42-2.1,0.52
		C197.12,275.51,196.81,275.54,196.28,275.57z M180.25,248.6c0.93,2.4,2.72,3.75,5.22,4.16c2.3,0.38,3.68-0.58,3.96-2.92
		c0.39-3.26,0-6.44-1.48-9.43c-0.71-1.44-1.79-2.54-3.22-3.28c-3.18-1.63-5.22-0.53-5.48,3.04
		C179.04,242.85,179.21,245.52,180.25,248.6z"/>
	<path class="st4" d="M716.36,189.38c3.68-0.55,7.86,0.26,11.52,1.32c1.11,0.32,2.19,0.37,3.25-0.12c2.1-0.97,4.2-1.96,6.29-2.96
		c0.99-0.48,1.96-1.02,3.26-1.6c3.64,3.54,5.23,7.95,5.8,12.67c1.16,9.68-0.64,18.95-4.44,27.87c-0.57,1.33-1.34,2.59-2.14,3.8
		c-3.64,5.53-8.86,8.39-15.38,8.98c-0.67,0.06-1.34,0.05-2.02,0.07c-7.45,0.16-12.61-3.31-15.62-10.01
		c-1.92-4.26-2.65-8.75-2.28-13.43c0.27-3.36,0.72-6.68,1.64-9.93c0.61-2.16,1.4-4.26,2.87-6.03c1.38-1.67,3.12-2.54,5.33-2.18
		c2.03,0.33,3.6,1.41,4.29,3.35c0.51,1.46,0.75,3.03,0.94,4.58c0.26,2.11,0.34,4.24,0.55,6.36c0.15,1.52,0.62,2.95,2.29,3.37
		c1.61,0.41,2.83-0.47,3.73-1.69c0.66-0.89,1.21-1.89,1.65-2.9c1.12-2.59,1.68-5.33,2.03-8.12c0.3-2.35-0.5-4.19-2.43-5.52
		c-1.2-0.82-2.45-1.57-3.71-2.3C721.34,193.53,718.46,191.59,716.36,189.38z"/>
	<path class="st4" d="M387.32,197.87c2.06-0.68,3.83-1.75,5.35-3.32c2.09-2.17,4.49-4.09,6.31-6.46c2.88-3.74,6.36-6.86,9.66-10.17
		c3.12-3.13,6.95-5.16,11.23-6.27c0.95-0.25,1.99-0.16,3.27-0.23c0.45,2.9,0.65,5.81,0.79,8.71c0.34,7.16,0.57,14.33,1.01,21.49
		c0.45,7.15,1.1,14.29,1.66,21.44c0.18,2.35,0.3,4.68-0.21,7.02c-0.64,2.94-2.36,4.72-5.23,5.51c-2.54,0.7-5.11,0.79-7.66,0.33
		c-2.59-0.47-4.44-2.05-5.5-4.48c-0.92-2.09-1.27-4.29-1.26-6.55c0.03-4.93,0.14-9.86,0.15-14.79c0-3.25-0.09-6.49-0.21-9.74
		c-0.04-1.22-0.22-2.46-1.64-3.31c-0.4,0.52-0.94,0.95-1.12,1.5c-0.51,1.59-0.79,3.27-1.34,4.85c-0.58,1.68-1.22,3.37-2.09,4.92
		c-0.97,1.74-2.6,2.7-4.62,3.03c-1.37,0.22-2.5-0.16-3.2-1.32c-0.8-1.34-1.49-2.75-2.11-4.19
		C389.47,203.29,388.45,200.69,387.32,197.87z"/>
	<path class="st2" d="M442.89,185.02c0.15,1.55,0.49,3.63,0.77,5.16c0.12,0.66,0.28,1.31,0.51,1.94c0.61,1.65,1.06,1.79,3.31,1.12
		c1.49,2.43,3.33,4.13,5.57,5.42c0.88,0.51,1.7,0.38,2.42-0.33c1.35-1.31,2.73-2.57,3.56-4.34c1.17-2.49,2.81-4.76,3.69-7.41
		c0.27-0.83,0.74-1.62,1.22-2.36c0.21-0.32,0.79-1.63,1.16-1.85c0,3.24,0.04,7.67-0.13,10.9c-0.25,4.7-0.67,9.39-1.12,14.07
		c-0.31,3.13-1.04,6.18-2.05,9.16c-1.96,5.78-5.79,9.75-11.5,11.91c-2.53,0.95-5.09,1.68-7.83,1.79c-3.58,0.14-6.38-1.27-8.24-4.25
		c-1.12-1.79-2.02-3.75-2.74-5.73c-1.77-4.87-2.6-9.96-3.29-15.07c-1.22-9.12-1.43-17.02-1.82-26.21c-0.09-2.19-0.29-4.46-0.26-6.56
		c3,0.21,5.33,1.43,7.28,3.29c2.79,2.67,5.58,5.37,7.63,8.69C441.48,185.06,442.03,184.98,442.89,185.02z"/>
	<path class="st1" d="M270.47,317.12c-2.52-4.13-4.68-9.62-6.34-14.12c-4.33-11.69-7.17-23.76-8.96-36.09
		c-0.69-4.77-1.35-9.54-1.18-14.37c0.06-1.67,0.3-3.34,0.52-5c0.09-0.66,0.28-1.31,0.52-1.94c1.11-2.95,2.58-3.56,5.46-2.29
		c2.63,1.16,4.69,3.02,6.5,5.19c2.39,2.85,4.22,6.05,5.85,9.38c3.45,7.07,5.9,14.51,7.98,22.07c2.07,7.55,4.2,16.33,5.9,24.26
		c-2.69,2.44-5.45,3.33-7.84,5.49c-1.74,1.57-3.4,3.25-4.98,4.97C272.81,315.84,272.01,317.27,270.47,317.12z"/>
	<path class="st3" d="M541.97,128.52c-0.25-0.2-0.55-0.61-0.74-0.57c-2.59,0.62-5.18,1.13-7.49,2.72c-2.32,1.59-4.49,3.29-6.49,5.27
		c-1.57,1.56-2.86,3.46-5.15,4.51c-0.25-7.82,0.16-15.64,1.62-23.36c0.27-1.42,0.68-2.83,1.12-4.21c1.23-3.86,3.57-6.94,6.85-9.3
		c2.92-2.11,6.06-3.85,9.39-5.18c5.12-2.04,10.1-1.53,14.79,1.38c2.4,1.49,4.46,3.39,6.17,5.64c4.47,5.88,6.95,12.47,6.94,19.92
		c-0.01,4.94-0.31,9.85-1.28,14.95c-1.65,0.09-2.78-0.76-3.86-1.76c-2.2-2.03-4.37-4.11-6.72-5.96c-1.55-1.23-3.35-2.17-5.12-3.1
		c-0.64-0.34-1.05-0.18-2.31-0.32c-1.16-0.62-1.36-0.97-2.15-1.34c-0.91-0.43-2.79-0.53-3.85-0.07
		C542.97,128.05,542.5,128.41,541.97,128.52z"/>
	<path class="st1" d="M766.54,88.63c-0.62-4.36-0.34-8.72,0.42-13.02c0.75-4.27,3.07-6.24,7.42-6.32c3-0.06,6.04,0.24,9.02,0.69
		c6.22,0.94,12.25,2.64,17.96,5.31c2.11,0.99,4.1,2.27,6.05,3.58c1.89,1.27,2.82,3.14,2.62,5.48c-0.1,1.23-0.09,2.48-0.35,3.67
		c-0.57,2.65-2.27,3.96-5.01,4.05c-2.27,0.07-4.44-0.49-6.59-1.1c-2.15-0.61-4.27-1.33-6.43-1.92c-0.85-0.24-1.75-0.37-2.63-0.4
		c-1.06-0.03-1.85,0.53-2.1,1.35c-0.28,0.92-0.21,1.87,0.54,2.48c0.85,0.69,1.81,1.36,2.83,1.71c2.11,0.74,4.29,1.26,6.43,1.87
		c1.72,0.49,3.47,0.89,5.14,1.51c2.7,1,4.12,2.96,4.01,5.92c-0.06,1.67-0.01,3.35-0.66,4.96c-0.91,2.24-2.32,3.19-4.71,2.81
		c-1.87-0.3-3.71-0.83-5.55-1.29c-1.41-0.35-2.79-0.83-4.21-1.12c-2.39-0.49-4.09,1.23-3.72,3.68c0.29,1.89,1.52,3.3,3.45,3.64
		c1.98,0.35,4,0.47,5.99,0.76c1.66,0.24,3.33,0.47,4.94,0.92c1.96,0.54,3.92,1.95,5.05,4.1c-0.76,0.58-1.59,0.36-2.23,0.38
		c-1.79,0.06-3.59-0.05-5.37,0.04c-1.97,0.1-3.75-0.44-5.51-1.19c-3.44-1.46-5.89-4.13-7.82-7.12c-2.78-4.31-5.24-8.83-7.72-13.32
		C775.05,95.72,771.46,91.57,766.54,88.63z"/>
	<path class="st3" d="M869.09,215.24c2.06-8.73,5.14-18.01,9.32-25.97c0.88-1.67,2.02-3.22,3.23-4.67c2.11-2.53,4.91-3.38,8.14-2.84
		c0.11,0.02,0.22,0.06,0.33,0.07c6.57,0.74,10.75,4.44,13.19,10.44c1.99,4.91,3.18,10.01,3.87,15.23
		c0.87,6.67,1.12,11.75,0.07,18.45c-0.07,0.44-0.4,2.5-0.62,3.14c-2.5,0.54-4.55,0.86-6.61,1.2c-3.25,0.53-6.47,1.37-9.72,0.71
		c0.59-1.23,1.17-2.19,1.55-3.23c1.47-3.99-0.05-9.16-3.4-11.72c-0.35-0.27-0.74-0.51-1.14-0.68c-1.26-0.55-2.52-0.28-3.22,0.89
		c-0.67,1.14-1.23,2.37-1.63,3.63c-0.77,2.43-1.95,5.99-2.5,8.46c-2.04-0.08-2.72-2.48-3.55-3.78c-1.77-2.78-3.51-5.57-5.22-8.39
		C870.73,215.42,870.05,215.47,869.09,215.24z"/>
	<path class="st3" d="M544.47,216.19c-1.17,0.44-1.38,1.43-1.77,2.19c-3.81,7.35-7.58,14.71-11.39,22.06
		c-0.72,1.38-1.03,3.19-2.36,4.1c-3.76,2.54-7.92,3.01-10.85,6.24c-1.2,1.32-2.49,2.58-3.8,3.8c-0.81,0.75-1.76,1.36-2.62,2.07
		c-1.59,1.31-3.29,1.2-5.03,0.41c-1.22-0.55-2.4-1.21-3.62-1.76c-0.91-0.41-1.86-0.73-3.03-1.1c-0.87-5.46-1.37-10.91-1.2-16.41
		c0.13-4.08,1.06-7.98,2.82-11.66c1.88-3.93,4.68-7.08,8.33-9.46c2.1-1.37,3.71-1.2,5.34,0.69c0.94,1.09,1.78,2.33,2.38,3.63
		c1.26,2.74,2.35,5.56,3.48,8.36c0.92,2.28,1.75,4.6,2.75,6.85c0.53,1.2,0.93,2.83,2.4,3.04c1.1,0.15,1.7-0.76,1.94-1.62
		c0.4-1.39,0.82-2.91,0.93-4.34c0.31-3.72-0.53-7.35-0.98-11.01c-0.43-3.44-0.75-6.89-1.08-10.34c-0.29-3.01,0.89-5.45,3-7.52
		c2.41-2.38,5.21-4.23,8.15-5.87c0.19-0.11,0.41-0.18,0.62-0.27c2.96-1.25,4.51-0.51,5.13,2.56c0.29,1.42,0.44,2.88,0.47,4.33
		C544.54,208.72,544.51,212.3,544.47,216.19z"/>
	<path class="st1" d="M409.37,295.62c-4.9,1.25-9.32,3.5-14.02,4.89c-2.78,0.83-5.54,1.7-8.53,1.5c-1.14-0.08-2.21-0.26-3.22-0.79
		c-1.88-0.99-3.72-2.06-5.2-3.63c-1.84-1.94-3.74-3.81-5.43-5.93c-1.65-2.07-3.59-3.95-5.82-5.53c-1.63-1.16-3.07-2.59-4.97-3.35
		c-0.41-0.16-0.86-0.23-1.53-0.34c-0.78-3.7-0.65-7.37,0.28-10.99c0.48-1.86,1.25-3.6,2.45-5.11c2.11-2.65,5.01-3.68,8.26-3.82
		c1.29-0.06,2.45,0.57,3.26,1.52c1.23,1.44,2.49,2.91,3.4,4.56c1.5,2.74,2.84,5.59,4.06,8.47c1.7,4.02,3.2,8.12,4.86,12.16
		c0.64,1.55,1.43,3.04,2.23,4.51c0.31,0.57,0.83,1.05,1.33,1.48c0.62,0.53,1.67,0.3,1.99-0.46c0.3-0.71,0.52-1.47,0.63-2.23
		c0.35-2.48-0.03-4.92-0.51-7.34c-0.84-4.17-1.8-8.31-2.66-12.48c-0.38-1.86-0.74-3.74-0.95-5.63c-0.38-3.3,0.73-5.16,3.89-6.12
		c2.02-0.61,4.15-1.01,6.25-1.13c2.84-0.17,5.01,1.12,5.99,3.91c0.52,1.47,1,2.99,1.18,4.53c0.77,6.45,1.45,12.91,2.13,19.37
		C409,290.2,409.19,292.77,409.37,295.62z"/>
	<path class="st3" d="M281.91,177.88c-4.15-0.05-8.13,0.75-12.09,1.78c-1.16,0.3-2.37,0.38-3.91,0.33
		c-0.4-5.16-2.83-8.89-6.29-12.09c-0.72-0.66-1.63-1.17-2.53-1.57c-1.34-0.59-2.45-0.1-2.98,1.24c-0.33,0.82-0.52,1.69-0.77,2.54
		c-0.47-0.24-1.07-0.36-1.39-0.73c-0.64-0.75-1.16-1.62-1.68-2.47c-1.35-2.2-3.05-4.1-5.01-5.73c-1.17-0.98-2.6-1.65-3.96-2.37
		c-0.67-0.36-1.45-0.52-2.42-0.81c-0.12-6.31,0.25-12.56,1.59-18.7c0.33-1.51,0.87-3.02,1.54-4.42c1.15-2.41,3.14-3.72,5.84-3.88
		c6.59-0.39,12.36,1.28,16.96,6.36c3.96,4.37,6.88,9.37,9.33,14.67C277.93,160.19,280.53,168.72,281.91,177.88z"/>
	<path class="st2" d="M496.24,251.72c0.53,2.62,1.38,6.3,1.75,8.94c1.01,7.35,1.29,14.75,0.78,22.14c-0.38,5.5-1.5,10.86-3.88,15.91
		c-2.73,5.79-6.91,10.16-12.69,12.92c-1.31,0.62-2.69,1.14-4.09,1.48c-3.52,0.85-6.65,0-9.32-2.48c-1.58-1.47-2.74-3.25-3.66-5.19
		c-1.25-2.64-2.19-5.39-2.49-8.64c1.93-1.74,2.95-3.6,3.86-5.51c1.88-3.92,3.64-7.89,5.49-11.82c0.21-0.45,0.45-1.75,0.92-1.93
		c0.28,1.72,1.13,3.55,1.75,4.59c1.59,2.72,4.34,3.21,6.87,1.36c1.49-1.1,2.59-2.55,3.08-4.29c0.54-1.93,1.02-3.93,1.06-5.91
		c0.05-2.44-0.14-4.94-0.69-7.31c-0.71-3.09-2.17-3.57-5.39-3.94c0.99-1.57,2.29-3.1,3.38-4.33c2.85-3.22,6.28-5.24,10.79-4.87
		C494.64,252.91,495.36,251.74,496.24,251.72z"/>
	<path class="st1" d="M653.48,196.3c0.14-3.68,0.15-7.38,0.44-11.05c0.49-6.25,1.1-12.49,1.76-18.73
		c0.58-5.46,1.36-10.89,2.73-16.21c0.53-2.05,1.23-4.07,2.05-6.03c1.35-3.26,3.87-5.15,7.38-5.62c1.22-0.16,2.46-0.25,3.68-0.18
		c2.91,0.15,4.66,1.62,4.91,4.52c0.21,2.44,0.19,4.95-0.16,7.36c-0.47,3.2-1.24,6.37-2.12,9.48c-1.67,5.92-3.55,11.79-4.68,17.85
		c-1.42,7.62-1.98,15.32-2.15,23.05c-0.03,1.56,0.16,3.13,0.39,4.68c0.55,3.72,2.04,4.95,5.88,4.97c0.9,0.01,1.79-0.09,2.69-0.1
		c2.01-0.02,2.81,0.51,3.57,2.38c0.78,1.9,0.82,5.17,0.57,7.57c-1.53,1.12-2.66,0.62-3.91,1.34c-3.38,1.96-5.51,1.07-8.25-1.7
		c-1-1.01-1.72-2.3-2.55-3.48c-2.75-3.92-5.04-8.1-7.24-12.35C657.06,201.33,655.76,198.49,653.48,196.3z"/>
	<path class="st2" d="M270.04,316.37c1.51-0.08,2.77-0.52,3.86-1.71c1.59-1.73,3.24-3.4,4.98-4.97c2.39-2.16,4.88-4.22,7.58-6.37
		c0.58,1.73,0.95,4.03,1.64,5.91c0.34,0.92,1.22,1.91,2.4,1.82c1.33-0.1,1.6-1.43,1.73-2.52c0.32-2.66,0.89-6.5,1.22-9.18
		c1.14-0.29,1.83,0.59,2.61,0.64c2.87,0.18,5.5,1.12,7.6,3.05c1.88,1.72,3.76,3.46,5.19,5.65c1.28,1.94,2.87,3.69,4.39,5.46
		c0.32,0.37,1.49-1.49,1.97-1.26c-1.36,7.12-4.56,15.65-9.01,21.43c-1.58,2.06-3.45,3.81-5.7,5.12c-3.42,2-6.93,2.24-10.56,0.51
		c-2.56-1.22-4.76-2.89-6.79-4.83c-3.83-3.65-6.92-7.88-9.65-12.38C272.3,320.73,271.21,318.65,270.04,316.37z"/>
	<path class="st2" d="M869.23,214.63c1.09,0.03,1.5,0.79,1.97,1.56c1.7,2.82,3.45,5.61,5.22,8.39c0.83,1.3,1.69,2.61,3.75,2.97
		c0.06,1.82-0.29,3.36-0.33,4.9c-0.05,2.32,1,3.15,3.37,2.99c1.5-0.1,2.83-0.69,4-1.56c1.07-0.79,2.66-2.16,3.27-3.18
		c3.34,0.42,6.29,0.13,9.54-0.41c2.06-0.34,4.29-1.02,6.64-1.34c0.06,1.43-0.24,3.25-0.62,4.64c-1.06,3.88-2.17,7.75-3.39,11.59
		c-0.82,2.56-2.06,4.96-3.6,7.18c-2.8,4.01-6.63,6.26-11.52,6.63c-5.51,0.41-10.96-0.14-16.35-1.32c-0.33-0.07-0.66-0.14-0.98-0.23
		c-4.02-1.14-6.22-3.8-6.6-7.95c-0.31-3.47-0.18-6.94,0.29-10.39C865.03,230.88,866.88,222.82,869.23,214.63z"/>
	<path class="st4" d="M963.82,237.59c-0.75,5.58-2.24,11.42-4.67,16.52c-1.31,2.76-3.05,5.22-5.37,7.24
		c-4.96,4.32-13.07,5.36-18.94,2.43c-2.15-1.07-3.89-2.62-5.28-4.57c-2.06-2.88-3.22-6.14-3.89-9.58
		c-0.75-3.87-0.97-7.79-0.62-11.72c0.38-4.35,1.59-8.9,2.9-13.54c0.98,0.04,4.28,0.52,6.23-0.26c0.29-0.11,0.71-0.12,0.98,0.01
		c1.49,0.68,3.17-0.32,4.72,0.09c-0.17,1.38-0.46,3.2-0.58,4.31c-0.24,2.27,0.04,4.49,1.19,6.48c2.02,3.49,5.98,3.85,8.67,0.87
		c1.15-1.27,1.78-2.01,2.35-3.59c0.34-0.94,1.01-2.96,1.18-4.16c3.97,1.91,6.66,5.51,9.2,8.7
		C962.41,237.46,962.96,237.55,963.82,237.59z"/>
	<path class="st3" d="M632.16,180.64c-4.75-0.09-9.16,0.71-13.36,2.76c-0.88,0.43-1.91,0.54-3.12,0.8
		c-0.03-3.24,0.04-6.49,0.44-9.71c0.48-3.89,1.1-7.77,1.9-11.6c0.45-2.18,1.24-4.31,2.11-6.36c1.45-3.41,3.86-6.07,7.14-7.8
		c5.33-2.82,10.99-4.48,17.1-4.19c2.15,0.1,4.24,0.5,6.21,1.35c3.6,1.56,5.17,4.13,4.68,8c-0.43,3.44-0.95,6.89-1.68,10.27
		c-0.42,1.95-1.22,3.85-2.09,5.65c-1.22,2.53-3.24,4.32-5.99,5.05c-1.94,0.52-3.94,0.81-5.92,1.14c-0.77,0.13-1.56,0.14-2.35,0.16
		c-2.13,0.06-3.6,1.06-4.42,3.03C632.63,179.61,632.45,180.02,632.16,180.64z"/>
	<path class="st3" d="M357.47,280.82c-1.05,0.29-2.06,0.36-3.06,0.28c-4.69-0.37-8.48,1.65-11.81,4.59
		c-4.53,4.01-8.08,8.86-11.21,14.03c-2.24,3.71-4.54,7.39-6.87,11.05c-0.33,0.52-0.97,0.83-1.7,1.27c-0.3-2.96-0.79-6.45-1.08-9.35
		c-0.87-8.47-2.02-16.24-2.82-24.72c-0.29-3.03-0.18-6.05,0.2-9.06c0.03-0.22,0.04-0.45,0.07-0.67c0.89-5.66,3.46-7.54,8.49-7.51
		c7.56,0.04,14.63,1.94,21.28,5.44c1.28,0.67,2.5,1.51,3.64,2.41c2.56,2.02,4.28,4.56,4.52,7.93
		C357.22,277.87,357.38,279.2,357.47,280.82z"/>
	<path class="st1" d="M125.35,236.71c-0.15-4.15-0.07-9.64,0.67-13.74c0.42-2.33,1.11-4.58,2.29-6.64
		c2.25-3.91,5.56-5.98,10.17-5.95c9.81,0.06,17.89,6.45,20.4,16.38c0.52,2.05,0.83,4.18,0.97,6.3c0.4,6.17,0.08,12.33-0.96,18.43
		c-0.28,1.64-0.83,3.26-1.48,4.8c-1.41,3.34-4.03,5.01-7.66,4.99c-1,0-2-0.21-3.28-0.63c-2.25-3.3-3.55-6.56-4.48-10.01
		c-0.96-3.56-2.68-6.85-4.9-9.77c-1.81-2.38-3.91-4.64-7.11-5.16C128.46,235.44,126.89,236.82,125.35,236.71z M150.79,236.14
		c-0.24-1.54-0.66-3.06-1.63-4.36c-1.34-1.81-3.66-1.96-5.2-0.31c-0.3,0.32-0.57,0.7-0.76,1.09c-1.57,3.19-1.61,6.47-0.31,9.72
		c0.35,0.88,1.06,1.77,1.84,2.3c2.41,1.66,5.17,1.66,6.02-2.2c0.14-0.65,0.2-1.33,0.2-1.99
		C150.96,239.18,151.06,237.93,150.79,236.14z"/>
	<path class="st2" d="M210.78,288.15c1.45-0.03,2.88,0.13,4.24,0.54c4.12,1.24,8.23,2.51,12.29,3.91c1.66,0.57,3.46,1.41,5.18,2.37
		c-0.61,1.49-1.02,2.99-0.88,4.44c0.3,3.08,2.22,5.34,5.27,6c2.59,0.55,5.22,0.91,8.21,1.64c0.49,0.48,0.57,0.69,0.69,0.87
		c2.77,4.03,6.25,7.42,9.74,10.81c0.71,0.69,1.55,0.78,2.46,0.73c0.97,2.29,1.39,4.7,1.41,7.16c0.01,1.83-0.65,2.6-2.42,3.13
		c-1.54,0.46-3.11,0.45-4.66,0.15c-4.39-0.84-8.79-1.66-13.15-2.64c-2.94-0.66-5.83-1.55-8.74-2.37c-1.07-0.3-2.12-0.7-3.18-1.06
		c-6.29-2.12-10.34-6.39-12.41-12.67c-1.66-5.02-2.55-10.19-3.29-15.4C211.21,293.35,211.01,290.89,210.78,288.15z"/>
	<path class="st3" d="M314.83,314.64c-0.62-0.02-1.25-0.13-1.57-0.51c-1.52-1.77-3.12-3.51-4.39-5.46
		c-1.44-2.19-3.32-3.93-5.19-5.65c-2.11-1.93-4.74-2.87-7.6-3.05c-0.78-0.05-1.56-0.11-2.63-0.12c-0.29-1.9-0.08-4.68-0.1-6.51
		c-0.08-6.71,0.5-12.51,0.94-19.2c0.23-3.47,0.91-6.89,2.09-10.16c0.6-1.67,1.38-3.32,2.39-4.77c1.99-2.89,5.02-3.86,8.27-2.62
		c4.36,1.67,7.34,4.74,8.12,9.46c1.84,11.07,2.52,22.23,1.9,33.44C316.77,304.52,316.08,309.51,314.83,314.64z"/>
	<path class="st6" d="M834.57,194.01c-3.11,6.49-5.53,14.38-6.98,21.39c-0.42,2.05-0.43,4.22-0.43,6.33c0,1.85,1.07,3.18,2.76,3.86
		c1.23,0.5,2.54,0.88,3.85,1.12c2.29,0.43,3.6,1.7,3.83,4.01c0.49,4.75,0.08,9.43-2.04,13.74c-2.08,4.22-5.78,6.17-10.4,6.07
		c-2.79-0.06-5.54-0.62-8.21-1.55c-3.22-1.13-5.33-3.23-5.99-6.62c-0.3-1.53-0.49-3.09-0.55-4.64c-0.2-5.51,0.72-10.92,1.73-16.31
		c1.49-7.92,3.89-16.51,6.64-24.39c3.35-0.67,5.9-0.37,8.8-0.88C829.74,195.76,832.42,194.39,834.57,194.01z"/>
	<path class="st1" d="M473.08,278.34c-0.37,0.38-0.87,0.69-1.09,1.14c-1.85,3.93-3.61,7.91-5.49,11.82
		c-0.91,1.9-1.85,4.49-3.76,5.96c-0.53-1.87-0.85-4.39-1.04-6.03c-1.23-10.83-1.82-21.12,0.14-31.91c0.8-4.42,2.02-8.72,4.07-12.74
		c2.35-4.59,5.6-8.36,10.25-10.77c1.19-0.61,2.43-1.18,3.72-1.51c3.64-0.95,6.95-0.22,9.53,2.58c1.35,1.46,2.5,3.17,3.45,4.92
		c1.78,3.26,2.86,6.79,3.55,10.72c-0.88,0.29-1.78,0.39-2.66,0.32c-4.51-0.37-7.94,1.65-10.79,4.87c-1.09,1.23-1.94,2.67-3.12,4.38
		c-4.09,2.4-5.96,5.77-6.81,9.92C472.6,274.15,472.99,276.23,473.08,278.34z"/>
	<path class="st4" d="M125.27,235.63c1.62-0.17,3.19-0.19,4.71,0.06c3.2,0.53,5.3,2.78,7.11,5.16c2.22,2.92,3.94,6.21,4.9,9.77
		c0.93,3.46,3.31,6.89,5.31,10.11c-1.44,0.43-4.18-0.37-5.63-0.52c-0.16,0.72,0.25,5.22,0.27,5.92c0.11,3.92,0.18,4.26,0.49,8.17
		c0.35,4.47,1,8.91,1.4,13.37c0.13,1.43,0.04,2.91-0.2,4.33c-0.38,2.26-1.93,3.58-4.13,3.83c-4.17,0.48-8.02-0.56-11.43-3.02
		c-1.41-1.01-2.27-2.51-2.65-4.18c-0.35-1.52-0.67-0.85-0.67-2.39c0.03-15.02,0.13-30.05,0.23-45.07
		C124.99,240.16,125.12,236.91,125.27,235.63z"/>
	<path class="st3" d="M726.48,88.75c-1.33,0.11-2.31-0.62-3.34-1.31c-1.84-1.25-3.71-2.49-5.94-2.99c-0.65-0.15-1.29-0.44-1.94-0.44
		c-3.33,0-6.7-0.37-10.26,0.65c-0.21-3.56-0.41-7.17,0.01-10.7c0.8-6.73,3.41-9.28,10.1-9.94c10.56-1.04,20.51,0.76,29.4,6.95
		c5.67,3.94,10.55,8.64,14.33,14.73c-7.19,0.54-14.23,1.89-21.27,5c-2.2-0.63-4.02-1.47-5.9-2.17
		C729.95,87.87,728.18,87.91,726.48,88.75z"/>
	<path class="st2" d="M766.54,88.21c5.01,2.64,8.51,7.51,11.26,12.5c2.47,4.5,4.93,9.02,7.72,13.32c1.93,2.99,4.39,5.66,7.82,7.12
		c1.76,0.75,3.55,1.3,5.51,1.19c1.79-0.09,3.58,0.01,5.37-0.04c0.65-0.02,1.29-0.25,2.12-0.61c0.6,0.55,1.15,1.27,1.41,2.09
		c1.07,3.43,0.62,6.88-0.21,10.27c-0.48,1.94-1.98,3.03-3.94,3.1c-2.23,0.08-4.52,0.17-6.68-0.24c-6.26-1.19-12.48-2.6-18.69-3.99
		c-1.41-0.32-2.78-0.85-4.13-1.4c-3.55-1.46-5.78-4.07-6.76-7.8c-0.78-2.96-0.76-5.98-1.01-8.99c-0.06-0.67-0.04-1.34-0.03-2.01
		C766.31,104.89,766.43,96.34,766.54,88.21z"/>
	<path class="st1" d="M568.61,143.03c-0.02-1.82,0.9-3.9,2.38-4.83c1.57-0.99,1.87-2.28,1.86-3.97c-0.05-5.15-0.05-10.29,0.05-15.44
		c0.08-4.14,0.35-8.27,0.51-12.4c0.04-0.88,0.01-1.76,0.01-2.57c-0.31-0.15-0.48-0.31-0.67-0.33c-2.78-0.29-3.35-0.7-3.95-3.14
		c-0.83-3.33-0.63-6.67,0.21-9.96c0.46-1.79,1.56-3.25,3.07-4.28c1.38-0.94,2.81-1.86,4.34-2.52c2.87-1.23,5.82-2.3,8.77-3.34
		c1.04-0.37,2.17-0.59,3.27-0.68c2.12-0.16,3.49,0.75,4.02,2.77c0.93,3.55,0.71,7.1-0.35,10.59c-0.41,1.34-1.34,2.31-2.61,2.93
		c-0.4,0.2-0.83,0.35-1.22,0.54c-2.29,1.14-2.35,1.39-2.19,3.87c0.29,4.35,0.57,8.71,0.67,13.06c0.13,5.48,0.07,10.96-0.12,16.77
		c-0.99,0.95-1.81,1.52-2.52,2.21c-2.32,2.26-4.57,4.6-6.9,6.85c-0.87,0.85-1.9,1.53-2.84,2.31
		C572.7,142.88,570.66,143.73,568.61,143.03z"/>
	<path class="st3" d="M465.08,183.22c-0.43,0.53-0.91,0.67-1.13,0.99c-0.49,0.74-0.95,1.52-1.22,2.36
		c-0.88,2.65-2.51,4.91-3.69,7.41c-0.83,1.77-2.21,3.03-3.56,4.34c-0.72,0.71-1.54,0.84-2.42,0.33c-2.24-1.29-4.35-2.81-5.61-5.36
		c0.94-3.25,1.51-6.55,1.54-9.69c0.07-7.51,0.09-15.01,0.12-22.52c0.02-4.14-0.04-8.29,0.05-12.43c0.04-1.78,0.25-3.57,0.58-5.33
		c0.5-2.69,2.04-4.78,4.5-5.94c1.9-0.91,3.94-1.64,5.99-2.1c2.66-0.59,4.34,0.64,4.9,3.29c0.23,1.09,0.31,2.23,0.3,3.34
		C465.35,155.58,465.24,169.25,465.08,183.22z"/>
	<path class="st3" d="M608.87,188.59c-2.78,2.21-5.58,4.21-8.44,6.11c-2.68,1.78-5.3,3.64-8.44,4.6c-1.35,0.41-2.59,0.54-3.88-0.04
		c-1.82-0.82-3.7-1.53-5.48-2.44c-2.39-1.21-4.85-2.14-7.47-2.79c-2.01-0.5-3.99-0.21-6.29-0.43c-0.17-3.29,0.6-6.44,1.61-9.53
		c1.29-3.92,3.5-7.25,6.65-9.93c2.57-2.19,5.38-4.04,8.39-5.57c4.21-2.13,8.24-1.67,12.03,1.06c2.4,1.73,4.23,4,5.8,6.48
		C605.76,179.91,607.59,183.98,608.87,188.59z"/>
	<path class="st3" d="M286.32,181.52c-0.09-4.59-0.19-9.17-0.26-13.76c-0.04-2.46-0.01-4.92-0.01-7.53
		c-3.19-1.46-4.2-4.43-4.46-7.63c-0.25-3.11-0.11-6.26-0.06-9.39c0.01-0.76,0.28-1.54,0.52-2.28c0.61-1.91,1.97-2.98,3.93-3.15
		c1.44-0.13,2.91-0.16,4.36-0.05c2.23,0.18,4.46,0.43,6.66,0.82c3.3,0.57,5.45,2.48,6.15,5.83c0.23,1.09,0.49,2.2,0.52,3.31
		c0.08,2.57,0.06,5.15,0.04,7.73c-0.01,0.78-0.08,1.57-0.23,2.34c-0.52,2.59-1.08,3.03-3.79,3.25c-0.63,0.05-1.25,0.31-1.96,0.49
		c0.44,6.94,0.88,13.73,1.3,20.53c0.42,6.82,0.82,13.64,0.97,20.72c-1.78-0.35-2.68-1.64-3.64-2.86c-1.68-2.15-2.39-4.76-3.45-7.21
		c-1.24-2.86-2.49-5.72-3.79-8.56C288.58,182.85,287.88,181.69,286.32,181.52z"/>
	<path class="st1" d="M640.07,116.37c-0.14-1.21-0.13-3.77-0.15-4.98c-0.12-10.85-0.57-21.07,0.27-31.91
		c0.18-2.33,0.61-4.65,1.12-6.93c0.79-3.53,3.06-5.55,6.65-6.21c2.33-0.43,4.65-0.66,7-0.55c3.41,0.16,5.25,2.12,5.55,5.13
		c0.2,2.04,0.14,4.02-0.48,5.96c-0.65,2.02-1.33,4.03-2,6.05c-2.05,6.18-2.08,12.53-1.61,18.92c0.07,0.88,0.35,1.76,0.64,2.59
		c0.48,1.35,1.44,2.3,2.89,2.51c1.32,0.19,2.66,0.29,3.99,0.29c1.23-0.01,2.45-0.25,3.67-0.33c3.85-0.25,4.8,0.4,5.9,4.38
		c-0.79,0.42-1.45,0.45-1.81,0.79c-1.99,1.88-4.06,1.39-6.18,0.35c-0.3-0.15-0.64-0.26-0.89-0.47c-1.58-1.37-3.55-1.87-5.46-2.47
		c-3.55-1.11-7.05-0.97-10.47,0.51c-1.96,0.85-3.7,2.06-5.36,3.4C642.33,114.23,641.17,115.63,640.07,116.37z"/>
	<path class="st1" d="M446.14,303.46c-0.29-2.78-0.76-7.08-0.96-9.87c-0.37-5.25-0.64-10.52-0.96-15.77
		c-0.07-1.22-0.18-2.44-0.27-3.57c-3.24-1.21-3.77-1.7-4.63-4.86c-1.09-4.03-1.4-8.16-1.21-12.32c0.14-2.93,1.53-5.11,3.99-6.61
		c3.08-1.88,6.45-3.15,9.89-4.16c2.64-0.77,4.25,0.16,5.4,2.67c0.95,2.08,1.19,4.32,1.39,6.54c0.23,2.56,0.33,5.14,0.3,7.71
		c-0.02,1.87-0.69,3.59-2.56,4.39c-2.09,0.89-2.27,2.4-1.94,4.38c1.51,9.11,1.5,16.61,2.44,25.75c0.07,0.67,0.54,3.91,0.38,5.11
		c-2.24,0.93-4.13-0.02-6.12-0.2C449.53,302.48,447.88,303.7,446.14,303.46z"/>
	<path class="st6" d="M865.04,204.53c-0.76,3.26-1.71,7.06-2.45,10.33c-1.41,6.23-2.82,12.45-4.21,18.68
		c-0.07,0.32-0.01,0.67-0.01,1.13c0.27,0.26,0.53,0.69,0.9,0.83c1.7,0.62,2.06,1.96,1.93,3.51c-0.33,4.03-1.01,8.01-2.34,11.84
		c-1.04,3-2.62,4.02-5.86,4c-3.39-0.02-6.7-0.65-9.91-1.67c-3.06-0.98-4.15-2.57-3.99-5.8c0.18-3.82,0.86-7.57,2.08-11.2
		c0.07-0.21,0.15-0.42,0.22-0.63c0.72-2.05,1.86-3.61,4.34-3.52c1-2.27,3.31-11.4,3.94-13.65c2.45-8.66,2.99-11.29,5.54-19.23
		c0.82,0,1.25,0.12,1.64,0.32c2.02,1.04,3.53,2.7,5.09,4.3C862.76,204.6,863.79,204.73,865.04,204.53z"/>
	<path class="st1" d="M796.65,201.68c1.12-5.49,2.93-10.77,4.79-16.04c0.44-1.25,0.85-2.52,1.29-3.83
		c-0.37-0.39-0.64-0.75-0.97-1.02c-1.04-0.84-1.49-1.96-1.47-3.24c0.02-1.45-0.01-2.93,0.29-4.34c0.79-3.73,2.08-7.31,3.81-10.71
		c0.5-0.99,1.14-1.93,1.85-2.78c1.28-1.53,2.96-2.36,4.98-2.4c1-0.02,2.05-0.08,3.01,0.15c2.93,0.7,5.88,1.39,8.72,2.37
		c3.43,1.18,4.79,3.5,4.13,7.05c-0.92,4.98-2.78,9.65-5.18,14.11c-1.04,1.93-2.52,2.95-4.92,2.62c-2.03-0.28-2.46,0.17-2.99,2.28
		c-0.99,3.9-1.15,5.03-2.4,8.85c-0.2,0.62-1.17,4.22-1.49,5.37c-1.59,0.39-2.78,0.55-3.97,0.7
		C802.98,201.22,799.87,202.04,796.65,201.68z"/>
	<path class="st6" d="M796.8,201.07c3.34,0.16,6.18,0.14,9.33-0.26c1.19-0.15,2.65-1.12,4.12-1.28c-0.67,4.14-1.92,9.08-2.84,13.22
		c-0.73,3.28-1.4,6.57-2.06,9.86c-0.13,0.64-0.09,1.31-0.13,1.91c0.33,0.31,0.54,0.65,0.82,0.75c1.96,0.67,2.45,2.17,2.24,4
		c-0.47,4.23-1.04,8.46-2.32,12.53c-1.15,3.67-2.89,5.02-6.69,4.78c-3.22-0.21-6.47-0.7-9.61-1.44c-3.49-0.82-4.79-2.7-4.64-6.39
		c0.17-4.37,0.86-8.69,2.29-12.85c1.03-2.99,1.4-3.27,4.68-4.27C793.45,215.16,795.2,207.82,796.8,201.07z"/>
	<path class="st6" d="M424.41,292.72c0.36,3.22,0.66,8.24,1.09,11.45c0.21,1.55,0.5,3.11,1,4.58c0.69,2.04,2.09,2.79,4.2,2.39
		c1.31-0.25,2.59-0.72,3.89-1.06c2.17-0.57,3.36-0.19,4.09,1.78c2.52,6.79,2.32,13.63-4.31,18.76c-3.55,2.75-7.74,4.02-12.15,4.45
		c-3.14,0.31-4.78-0.8-6.03-3.73c-1.28-3.02-1.8-6.24-2.11-9.48c-0.76-7.81-0.98-12.47-1.68-20.28c-0.08-0.89-0.62-7.18-0.38-8.34
		c3.09-1.1,5.95,1.37,8.78,1.34C422,294.57,423.21,292.74,424.41,292.72z"/>
	<path class="st1" d="M424.45,294.21c-1.25,0.33-2.45,0.36-3.66,0.37c-2.83,0.03-5.69-0.19-8.72,0.64c-0.6-3.56-1-7.11-1.28-10.67
		c-0.22-2.79-0.42-5.59-0.42-8.39c-0.01-3.24,0.12-6.49,0.36-9.72c0.11-1.43,0.55-2.86,1.01-4.22c0.71-2.09,2.09-3.7,4.07-4.72
		c3.01-1.55,6.21-2.54,9.61-2.74c4.63-0.27,7.83,2.27,9.34,6.23c1.17,3.08,1.38,6.34,1.1,9.6c-0.13,1.44-0.42,2.88-0.81,4.27
		c-0.52,1.83-1.71,3.09-3.61,3.64c-1.07,0.31-2.11,0.73-3.14,1.18c-1.99,0.86-3.24,2.35-3.57,4.53c-0.19,1.21-0.4,2.44-0.42,3.66
		C424.29,289.87,424.43,291.89,424.45,294.21z"/>
	<path class="st1" d="M834.23,194.87c-2.34,0.51-4.49,0.89-6.64,1.27c-2.91,0.51-5.81,1.01-9.02,1.5
		c1.99-8.58,5.06-16.83,9.48-24.52c0.99-1.72,2.28-3.33,3.65-4.77c2.23-2.34,5.07-3.24,8.26-2.61c2.07,0.41,4.15,0.91,6.14,1.63
		c5.75,2.07,8.4,6.62,7.31,12.66c-0.68,3.78-2.28,7.23-4.51,10.37c-1.68,2.35-3.83,3.34-6.69,2.44c-0.43-0.13-0.86-0.25-1.3-0.35
		C838.31,191.93,836.04,192.39,834.23,194.87z"/>
	<path class="st6" d="M653.53,195.06c2.41,1.9,3.52,6.27,4.93,9c2.19,4.25,4.49,8.43,7.24,12.35c0.83,1.18,1.55,2.47,2.55,3.48
		c2.75,2.76,4.87,3.66,8.25,1.7c1.25-0.72,2.48-1.48,3.94-2.31c1,4.88,0.61,9.73-1.59,14.28c-2.25,4.65-5.97,7.44-11.22,7.94
		c-1.89,0.18-3.79,0.44-5.68,0.35c-4.2-0.21-6.37-1.86-7.56-5.9c-0.69-2.34-1.15-4.8-1.34-7.23c-0.51-6.35-0.66-12.73-0.33-19.1
		C652.95,205.38,653.24,199.6,653.53,195.06z"/>
	<path class="st1" d="M790.51,199.55c-2.62-0.44-3.96-2.35-5.16-4.34c-1.93-3.23-3.29-5.01-5.19-8.26
		c-0.26-0.44-1.37-2.11-1.99-2.51c0.17-0.76,0.59-2.12,0.82-2.86c2.21-7.03,3.95-13.71,6.26-20.71c0.62-1.9,1.45-3.77,2.46-5.49
		c2.09-3.58,4.75-4.63,8.79-3.66c1.19,0.28,2.38,0.66,3.47,1.19c2.08,1.03,3.12,2.75,3.12,5.13c-0.01,2.52-0.83,4.83-1.61,7.16
		c-2.02,6.03-4.14,12.04-6.06,18.1C793.73,188.62,792.24,194,790.51,199.55z"/>
	<path class="st6" d="M286.34,180.75c1.63-0.13,2.24,2.1,2.81,3.34c1.29,2.84,2.54,5.7,3.79,8.56c1.06,2.45,1.77,5.06,3.45,7.21
		c0.96,1.23,1.86,2.07,3.61,2.71c0.63,0.85,1.13,2.05,2.05,2.33c1.61,0.49,2.3,1.73,2.57,3.22c0.36,1.97,0.74,3.96,0.86,5.96
		c0.2,3.23,0.34,6.48,0.26,9.71c-0.11,4.82-2.03,6.43-6.83,5.73c-2.86-0.42-5.71-1.05-8.51-1.81c-4.08-1.1-6.36-3.82-6.97-8.07
		c-0.66-4.56-0.69-9.13-0.54-13.71c0.02-0.66,0.18-1.32,0.29-1.99c0.29-1.87,1.12-3.17,3.46-3.03c0.07-0.98,0.21-1.85,0.17-2.71
		c-0.17-4.13-0.13-6.46-0.31-10.59C286.45,186.39,286.29,182.29,286.34,180.75z"/>
	<path class="st6" d="M848.04,119.38c0.01,0.89-0.05,2.68-0.06,3.57c-0.01,1.01-0.03,2.01-0.1,3.02c-0.32,4.58,1.59,7.77,5.84,9.55
		c0.62,0.26,1.2,0.62,1.82,0.85c2.09,0.8,3.12,2.4,3.57,4.51c0.79,3.74,0.31,7.4-1.01,10.87c-1.22,3.22-3.84,4.84-7.32,4.9
		c-0.78,0.01-1.6,0.03-2.33-0.17c-4.14-1.13-8-2.87-11.31-5.66c-2.15-1.81-3.33-4.21-3.74-6.94c-0.3-1.99-0.55-4.01-0.47-6.01
		c0.16-4.36,0.55-8.7,1.23-13.31c3.06-0.82,5.65-1.58,8.21-2.61C844.14,121.24,845.93,119.11,848.04,119.38z"/>
	<path class="st6" d="M368.42,204.01c0.85-0.25,1.6-0.31,2.21-0.93c0.62-0.63,1.3-1.22,1.89-1.88c2.3-2.6,5.22-3.63,8.62-3.52
		c0.89,0.03,1.78-0.01,2.97-0.02c-0.97,1.77-1.22,3.7-0.59,5.75c0.86,2.78,1.75,5.54,2.63,8.31c1.12,3.51,2.32,7,3.33,10.55
		c0.71,2.5,0.76,5.09,0.4,7.67c-0.84,6.1-6.25,9.79-12.2,8.43c-2.61-0.6-4.37-2.09-5.45-4.52c-1.1-2.5-1.51-5.16-1.78-7.82
		C369.7,218.78,369.05,211.54,368.42,204.01z"/>
	<path class="st6" d="M922.95,224.54c-0.55,3.19-1.28,7.09-1.81,10.28c-0.53,3.18-1.04,6.36-1.52,9.33
		c0.31,0.43,0.41,0.73,0.58,0.77c2.38,0.61,2.79,2.38,2.51,4.43c-0.39,2.88-0.73,5.78-1.37,8.6c-0.84,3.74-2.53,4.93-6.44,4.99
		c-3.15,0.05-6.26-0.32-9.29-1.16c-2.96-0.82-3.92-2.05-3.87-5.04c0.06-3.59,0.66-7.13,1.83-10.53c0.8-2.32,1.29-2.68,4.22-3.64
		c0.97-4.89,2.41-11.43,3.83-16.64C915.87,225.64,919.24,225.31,922.95,224.54z"/>
	<path class="st1" d="M848.03,120c-2.18,0.01-3.89,1.24-5.67,1.96c-2.55,1.03-5.24,2.33-8.18,2.91c-0.2-1.92,0.15-5.9,0.24-7.68
		c0.39-7.36,0.52-12.93,0.96-20.29c0.13-2.23,0.32-4.46,0.65-6.67c0.79-5.31,2.72-6.44,7.82-4.54c1.77,0.66,3.49,1.51,5.1,2.48
		c2.12,1.27,3.35,3.3,3.73,5.72c0.38,2.43,0.51,4.89-0.3,7.3c-0.25,0.74-0.44,1.5-0.72,2.23C849.62,108.67,848.57,114.13,848.03,120
		z"/>
	<path class="st2" d="M640.02,115.95c1.15-1.04,2.31-1.72,3.35-2.55c1.67-1.33,3.4-2.55,5.36-3.4c3.42-1.48,6.92-1.62,10.47-0.51
		c1.92,0.6,3.88,1.1,5.46,2.47c0.25,0.21,0.59,0.32,0.89,0.47c2.12,1.04,4.19,1.54,6.18-0.35c0.36-0.34,1.02-0.73,1.79-0.9
		c1.81,5.1,0.67,9.8-3.39,13.33c-2.59,2.26-5.66,3.64-8.97,4.29c-3.49,0.69-7.06,1.06-10.6,1.44c-1.2,0.13-2.44-0.1-3.65-0.27
		c-2.56-0.37-4.33-1.89-5.17-4.25c-0.71-1.98-1.1-4.08-1.51-6.15C640.02,118.49,640.05,117.36,640.02,115.95z"/>
	<path class="st3" d="M442.92,185.27c-0.89,0.25-1.44-0.21-1.88-0.92c-2.05-3.32-4.84-6.02-7.63-8.69
		c-1.95-1.87-4.37-2.54-7.28-3.03c-0.1-1.19-0.27-3.52-0.28-4.29c-0.08-5.59-0.35-9.75-0.33-15.34c0.01-1.55,0.27-3.11,0.59-4.63
		c0.46-2.22,1.84-3.79,3.87-4.77c2.04-0.99,4.2-1.54,6.45-1.68c2.7-0.17,4.3,0.93,4.93,3.54c0.36,1.5,0.43,3.1,0.47,4.65
		c0.19,7.72,0.27,15.43,0.49,23.15C442.42,177.17,442.73,181.07,442.92,185.27z"/>
	<path class="st1" d="M922.87,225.02c-3.82,1.01-7.46,2.15-11.61,2.21c1.05-5.54,2.42-11.06,3.89-16.95
		c-0.58-0.71-1.85-1.36-2.11-2.8c-0.29-1.58-0.24-3.13,0.19-4.65c0.73-2.57,1.41-5.17,2.33-7.68c1.18-3.23,3.65-4.76,7.06-4.46
		c2.67,0.23,5.34,0.56,7.96,1.12c2.62,0.56,3.79,2.12,3.69,4.82c-0.07,1.88-0.42,3.77-0.85,5.61c-0.43,1.84-1.09,3.63-1.72,5.42
		c-0.78,2.22-2.13,3.66-4.74,3.31c-0.31-0.04-0.65,0.11-0.97,0.17c-0.96,0.83-0.94,1.99-1.13,3.07
		C924.25,217.75,923.61,221.26,922.87,225.02z"/>
	<path class="st1" d="M772.36,176.68c-0.58,0.09-1.04,0.07-1.43-0.11c-3.35-1.56-6.9-1.07-10.39-1.01
		c-0.95,0.02-1.89,0.52-2.85,0.76c-0.74,0.19-1.49,0.31-2.53,0.45c1.42-8.12,3.74-16.07,6.28-23.95c0.51-1.58,1.32-3.09,2.19-4.51
		c1.47-2.39,3.73-3.57,6.53-3.31c1.77,0.16,3.57,0.47,5.24,1.05c2.92,1.02,4.26,3.14,3.96,6.26c-0.18,1.88-0.65,3.75-1.19,5.56
		C776.32,164.09,774.4,170.28,772.36,176.68z"/>
	<path class="st1" d="M864.95,204.83c-1.35,0.44-2.19-0.23-3-1.06c-1.55-1.59-2.71-2.8-4.73-3.85c-0.39-0.2-1.45-0.32-2.13-0.5
		c0.32-1.18,0.48-2.41,0.75-3.52c-2.56-1.9-2.53-4.49-1.94-7.25c0.73-3.41,1.9-6.66,3.45-9.78c0.4-0.8,0.88-1.56,1.42-2.27
		c1.23-1.61,2.87-2.51,4.92-2.43c1.33,0.05,2.68,0.2,3.97,0.52c2.17,0.53,4.35,1.09,6.43,1.88c2.76,1.05,3.76,2.8,3.6,5.75
		c-0.03,0.67-0.09,1.36-0.3,1.98c-1.1,3.28-2.22,6.56-3.41,9.81c-0.3,0.83-0.83,1.58-1.33,2.32c-0.67,0.99-1.6,1.55-2.84,1.45
		c-0.56-0.04-1.11-0.13-1.67-0.14c-0.9-0.02-1.5,0.47-1.72,1.31C865.92,200.88,865.5,202.74,864.95,204.83z"/>
	<path class="st6" d="M594.01,121.63c1.74-0.39,2.8-1.12,4.06-1.99c2.59-1.79,5.29-3.26,8.35-4.14c2.42-0.69,5.06-0.96,7.67-0.1
		c-1.14,1.67-2.2,3.43-2.35,5.4c-0.16,2.11-0.39,4.22-0.55,6.33c-0.2,2.67-0.27,5.35-0.55,8.01c-0.37,3.59-2.2,6.32-5.4,7.97
		c-1.97,1.01-4.11,1.7-6.18,2.53c-0.2,0.08-0.43,0.11-0.65,0.14c-2.83,0.46-4.3-0.56-4.67-3.36c-0.18-1.32-0.18-2.67-0.17-4.01
		c0.04-3.8,0.12-7.59,0.19-11.39C593.79,125.46,593.91,123.44,594.01,121.63z"/>
	<path class="st1" d="M879.16,114.94c-0.66-0.04-1.36,0.02-1.99-0.15c-3.3-0.86-6.57-0.81-9.86,0.04c-0.42,0.11-0.88,0.03-1.64,0.03
		c-0.19-3.06,0.47-6,1.34-8.9c0.35-1.17,0.81-2.33,1.4-3.4c1.5-2.76,3.92-3.88,7-3.54c1.11,0.12,2.24,0.29,3.28,0.66
		c2.83,1.03,5.69,2.04,8.41,3.32c5.82,2.73,9.02,7.5,10.09,13.75c0.28,1.65,0.43,3.33,0.59,5.3c-0.67,0.13-1.37,0.08-1.91-0.25
		c-1.69-1.04-3.29-2.21-4.96-3.29c-1.04-0.68-2.19-1.07-3.92-0.96c-1.48-1.26-2.74-2.09-4.13-2.77
		C881.57,114.16,880.37,114.14,879.16,114.94z"/>
	<path class="st7" d="M568.62,142.69c2.21,0.5,4.08,0.18,5.75-1.21c0.94-0.78,1.97-1.47,2.84-2.31c2.33-2.25,4.58-4.59,6.9-6.85
		c0.71-0.69,1.54-1.8,2.53-2.43c1.11-0.02,1.99,0.49,2.88,0.49c0.77,0,1.22,0.46,1.48,1.14c0.08,0.21,0.11,0.43,0.14,0.65
		c0.63,4.37,0.32,8.7-0.63,12.99c-0.45,2.04-1.63,3.68-3.24,4.97c-1.04,0.84-2.12,1.67-3.3,2.3c-3.16,1.69-6.35,3.29-9.57,4.86
		c-1,0.49-2.08,0.84-3.16,1.09c-1.55,0.36-2.69-0.3-3.06-1.82c-0.29-1.19-0.45-2.42-0.49-3.64
		C567.6,149.55,567.8,146.2,568.62,142.69z"/>
	<path class="st6" d="M307.14,206.72c2.16-0.25,4.29-0.47,6.32,0.31c0.3,0.11,0.66,0.09,0.99,0.07c2.79-0.18,5.53,0.2,8.55,0.7
		c0.45,1.9,0.61,3.79,0.75,5.68c0.21,2.79,0.44,5.57,0.61,8.36c0.1,1.67,0.2,3.36,0.12,5.03c-0.06,1.21-0.29,2.45-0.66,3.61
		c-0.57,1.77-1.93,2.77-3.78,2.81c-4.14,0.09-9.66-1.21-11.17-7.59c-0.41-1.74-0.8-3.5-0.94-5.27
		C307.57,215.96,307.35,211.49,307.14,206.72z"/>
	<path class="st6" d="M446,302.21c1.8-0.03,3.53,0.27,5.28,0.44c2,0.19,3.97-0.04,6.16-0.67c0.12,0.63,0.39,1.47,0.69,1.86
		c0.18,0.24,0.78,0.29,0.97,0.3c2.75,0.21,2.66-0.09,2.93,2.44c0.32,2.98,0.44,6.01,0.35,9.01c-0.07,2.59-1.37,4.67-3.63,6.07
		c-3.35,2.07-7.01,3.41-10.77,4.51c-0.21,0.06-0.44,0.08-0.66,0.1c-2.43,0.28-3.39-0.25-3.87-2.58c-0.78-3.75-0.7-7.55-0.24-11.33
		c0.22-1.78,1.29-3.06,2.89-3.85C446.64,306.44,446.05,304.46,446,302.21z"/>
	<path class="st7" d="M617.79,115.99c1.09-0.55,2.1-0.12,3.11,0.38c2.28,1.15,4.62,2.18,6.82,3.45c2.44,1.41,4.77,1.59,7.21,0.12
		c0.36-0.22,0.93-0.76,1.62-0.87c-0.02,2.28,0.31,5.01,0.15,7.23c-0.31,4.31-2.49,7.31-6.62,8.82c-2.11,0.77-4.24,1.46-6.5,1.56
		c-2.69,0.12-3.97-0.82-4.51-3.45c-0.27-1.3-0.28-2.66-0.31-4c-0.05-2.91,0.05-5.82-0.09-8.72
		C618.6,119.08,618.15,117.67,617.79,115.99z"/>
	<path class="st7" d="M330.3,210.69c2.94,1.38,5.62,3.34,7.95,5.74c1.86,1.91,3.75,3.8,5.99,5.28c0.82,0.54,1.73,0.97,2.82,1.48
		c0.66,2.9,0.99,5.76,0.56,8.69c-0.62,4.16-3.38,4.89-6.11,4.64c-4.82-0.45-7.57-2.59-8.84-7.32c-0.69-2.57-0.97-5.26-1.31-7.91
		C330.93,217.86,330.62,214.41,330.3,210.69z"/>
	<path class="st1" d="M287.06,122.49c2.76-2.18,5.55-3.77,8.78-4.55c1.58-0.38,3.11-0.34,4.6,0.31c2.4,1.04,3.7,3.59,2.88,6.07
		c-0.41,1.24-1.08,2.48-1.92,3.48c-3.17,3.77-7.43,5.63-12.14,6.58c-0.43,0.09-0.89,0.07-1.34,0.05c-3.77-0.15-6.02-3.55-4.73-7.1
		C283.9,125.38,285.35,123.98,287.06,122.49z"/>
	<path class="st1" d="M471.47,226.87c1.4-1.77,2.64-3.36,3.94-4.89c1.17-1.38,2.54-2.51,4.35-3c2.67-0.73,5.03,1.02,4.97,3.8
		c-0.02,0.87-0.24,1.78-0.58,2.58c-1.45,3.38-3.82,6.02-6.83,8.09c-0.54,0.37-1.19,0.62-1.81,0.86c-1.51,0.59-2.89,0.22-4.04-0.83
		c-1.16-1.05-1.63-2.42-1.18-3.95C470.53,228.68,470.97,227.89,471.47,226.87z"/>
	<path class="st1" d="M258.09,319.65c-0.91,0.31-1.84-0.23-2.55-0.92c-3.49-3.39-6.97-6.78-9.74-10.81
		c-0.12-0.18-1.11-0.66-1.33-1.03C251.25,307.88,256.27,312.82,258.09,319.65z"/>
	<g>
		<path class="st8" d="M202.94,143.75c0.65,0.82,1.35,1.54,2.1,2.21c0.66,0.59,1.36,1.13,2.08,1.62c0.7,0.48,1.41,0.92,2.14,1.32
			c0.67,0.37,1.34,0.71,2.02,1.04c0.52,0.26,1.06,0.5,1.59,0.73c0.38,0.16,0.76,0.3,1.15,0.43c0.44,0.16,0.89,0.3,1.33,0.45
			c0.11,0.04,0.22,0.07,0.32,0.09c0.45,0.11,0.89,0.21,1.34,0.33c0.08,0.02,0.16,0.05,0.22,0.1c0.11,0.08,0.13,0.21,0.03,0.31
			c-0.05,0.06-0.13,0.1-0.19,0.11c-0.14,0.03-0.29,0.03-0.44,0.07c-0.59,0.14-1.19,0.28-1.78,0.43c-0.72,0.19-1.43,0.46-2.13,0.74
			c-0.56,0.22-1.11,0.46-1.65,0.72c-0.62,0.29-1.23,0.61-1.84,0.93c-0.91,0.48-1.81,1.03-2.67,1.64c-0.92,0.65-1.79,1.37-2.61,2.18
			c-0.73,0.72-1.4,1.52-2.02,2.39c-0.6,0.85-1.13,1.77-1.59,2.74c-0.22,0.46-0.41,0.93-0.6,1.41c-0.21,0.54-0.42,1.08-0.61,1.63
			c-0.13,0.38-0.24,0.76-0.35,1.15c-0.13,0.47-0.26,0.95-0.39,1.42c-0.01,0.02-0.01,0.04-0.02,0.06c-0.11,0.55-0.23,1.09-0.34,1.65
			c-0.12,0.61-0.22,1.22-0.31,1.84c-0.11,0.7-0.18,1.41-0.25,2.12c-0.05,0.51-0.12,1.02-0.17,1.53c-0.04,0.41-0.06,0.82-0.09,1.22
			c-0.01,0.13-0.03,0.27-0.07,0.39c-0.03,0.1-0.07,0.19-0.12,0.27c-0.12,0.17-0.28,0.14-0.35-0.07c-0.04-0.11-0.06-0.24-0.07-0.37
			c-0.06-0.58-0.12-1.17-0.18-1.75c-0.02-0.18-0.02-0.37-0.04-0.56c-0.07-0.58-0.14-1.16-0.22-1.74c-0.11-0.75-0.24-1.5-0.38-2.25
			c-0.1-0.54-0.21-1.07-0.32-1.61c-0.09-0.45-0.19-0.89-0.3-1.34c-0.21-0.82-0.42-1.64-0.65-2.44c-0.35-1.19-0.77-2.34-1.28-3.44
			c-0.76-1.66-1.76-3.08-2.93-4.34c-0.98-1.04-2.03-1.96-3.14-2.79c-1.11-0.82-2.26-1.51-3.45-2.13c-1.05-0.55-2.12-1.01-3.22-1.39
			c-0.98-0.33-1.97-0.62-2.98-0.77c-0.34-0.05-0.68-0.13-1.02-0.2c-0.1-0.02-0.21-0.01-0.31-0.03c-0.08-0.02-0.16-0.05-0.22-0.1
			c-0.1-0.09-0.08-0.21,0.02-0.29c0.04-0.03,0.08-0.04,0.12-0.05c0.09-0.02,0.17-0.03,0.26-0.03c0.68-0.03,1.36-0.1,2.04-0.25
			c0.56-0.12,1.12-0.26,1.68-0.41c0.42-0.11,0.83-0.26,1.25-0.41c0.34-0.12,0.67-0.24,1-0.38c0.59-0.25,1.17-0.5,1.75-0.77
			c0.48-0.22,0.95-0.46,1.41-0.72c0.51-0.29,1.03-0.58,1.52-0.91c0.64-0.43,1.27-0.88,1.89-1.36c1.01-0.79,1.95-1.69,2.79-2.74
			c0.74-0.93,1.38-1.95,1.9-3.07c0.46-1,0.86-2.03,1.19-3.09c0.27-0.86,0.52-1.74,0.73-2.62c0.21-0.9,0.44-1.8,0.63-2.71
			c0.13-0.63,0.23-1.26,0.34-1.9c0.08-0.47,0.16-0.93,0.22-1.4c0.08-0.6,0.15-1.21,0.22-1.81c0.04-0.38,0.06-0.76,0.1-1.13
			c0.01-0.1,0.02-0.2,0.05-0.28c0.03-0.09,0.08-0.17,0.13-0.23c0.12-0.12,0.27-0.09,0.34,0.08c0.04,0.08,0.06,0.18,0.07,0.28
			c0.04,0.47,0.07,0.95,0.11,1.42c0.06,0.76,0.11,1.51,0.19,2.27c0.04,0.44,0.12,0.87,0.16,1.3c0.04,0.41,0.08,0.81,0.17,1.21
			c0.02,0.1,0.04,0.2,0.05,0.31c0.03,0.36,0.09,0.72,0.19,1.07c0.03,0.1,0.04,0.2,0.06,0.3c0.05,0.24,0.1,0.49,0.16,0.73
			c0.01,0.04,0.02,0.07,0.03,0.11c0.11,0.46,0.2,0.92,0.32,1.37c0.1,0.4,0.23,0.79,0.35,1.17c0.09,0.28,0.19,0.56,0.28,0.85
			c0.2,0.62,0.43,1.22,0.69,1.8c0.25,0.55,0.5,1.09,0.77,1.63c0.32,0.63,0.69,1.21,1.09,1.77
			C202.46,143.12,202.7,143.43,202.94,143.75z"/>
	</g>
	<g>
		<path class="st8" d="M223.91,164.43c0.3,0.43,0.63,0.8,0.97,1.15c0.31,0.31,0.63,0.59,0.96,0.84c0.32,0.25,0.65,0.48,0.99,0.69
			c0.31,0.19,0.62,0.37,0.94,0.54c0.24,0.13,0.49,0.26,0.74,0.38c0.17,0.08,0.35,0.15,0.53,0.22c0.2,0.08,0.41,0.16,0.62,0.23
			c0.05,0.02,0.1,0.03,0.15,0.05c0.21,0.06,0.41,0.11,0.62,0.17c0.04,0.01,0.07,0.03,0.1,0.05c0.05,0.04,0.06,0.11,0.01,0.16
			c-0.02,0.03-0.06,0.05-0.09,0.06c-0.07,0.02-0.14,0.02-0.2,0.03c-0.27,0.07-0.55,0.14-0.82,0.22c-0.33,0.1-0.66,0.24-0.99,0.38
			c-0.26,0.12-0.51,0.24-0.76,0.38c-0.29,0.15-0.57,0.32-0.85,0.48c-0.42,0.25-0.83,0.54-1.23,0.85c-0.42,0.34-0.83,0.71-1.21,1.14
			c-0.34,0.38-0.65,0.79-0.93,1.24c-0.28,0.44-0.52,0.92-0.74,1.43c-0.1,0.24-0.19,0.48-0.28,0.73c-0.1,0.28-0.19,0.56-0.28,0.85
			c-0.06,0.2-0.11,0.4-0.16,0.6c-0.06,0.25-0.12,0.49-0.18,0.74c0,0.01-0.01,0.02-0.01,0.03c-0.05,0.29-0.11,0.57-0.16,0.86
			c-0.05,0.32-0.1,0.64-0.14,0.96c-0.05,0.37-0.08,0.73-0.12,1.1c-0.02,0.27-0.06,0.53-0.08,0.79c-0.02,0.21-0.03,0.42-0.04,0.64
			c-0.01,0.07-0.01,0.14-0.03,0.2c-0.01,0.05-0.03,0.1-0.06,0.14c-0.06,0.09-0.13,0.07-0.16-0.03c-0.02-0.06-0.03-0.13-0.03-0.19
			c-0.03-0.3-0.06-0.61-0.08-0.91c-0.01-0.1-0.01-0.19-0.02-0.29c-0.03-0.3-0.06-0.61-0.1-0.91c-0.05-0.39-0.11-0.78-0.17-1.17
			c-0.04-0.28-0.1-0.56-0.15-0.84c-0.04-0.23-0.09-0.47-0.14-0.7c-0.1-0.43-0.19-0.85-0.3-1.27c-0.16-0.62-0.36-1.22-0.59-1.79
			c-0.35-0.86-0.81-1.6-1.36-2.26c-0.45-0.54-0.94-1.02-1.45-1.45c-0.51-0.43-1.05-0.79-1.6-1.11c-0.49-0.28-0.98-0.53-1.49-0.72
			c-0.45-0.17-0.91-0.32-1.38-0.4c-0.16-0.03-0.31-0.07-0.47-0.1c-0.05-0.01-0.1-0.01-0.14-0.02c-0.04-0.01-0.07-0.02-0.1-0.05
			c-0.05-0.05-0.04-0.11,0.01-0.15c0.02-0.01,0.04-0.02,0.06-0.03c0.04-0.01,0.08-0.01,0.12-0.02c0.32-0.02,0.63-0.05,0.94-0.13
			c0.26-0.06,0.52-0.14,0.78-0.21c0.19-0.06,0.39-0.14,0.58-0.21c0.16-0.06,0.31-0.13,0.46-0.2c0.27-0.13,0.54-0.26,0.81-0.4
			c0.22-0.12,0.44-0.24,0.65-0.37c0.24-0.15,0.48-0.3,0.7-0.48c0.3-0.22,0.59-0.46,0.87-0.71c0.47-0.41,0.9-0.88,1.29-1.43
			c0.34-0.48,0.64-1.01,0.88-1.6c0.21-0.52,0.4-1.06,0.55-1.61c0.13-0.45,0.24-0.9,0.34-1.37c0.1-0.47,0.2-0.94,0.29-1.41
			c0.06-0.33,0.11-0.66,0.16-0.99c0.04-0.24,0.07-0.49,0.1-0.73c0.04-0.31,0.07-0.63,0.1-0.94c0.02-0.2,0.03-0.39,0.04-0.59
			c0-0.05,0.01-0.1,0.02-0.15c0.01-0.04,0.03-0.09,0.06-0.12c0.05-0.06,0.12-0.05,0.16,0.04c0.02,0.04,0.03,0.09,0.03,0.14
			c0.02,0.25,0.03,0.49,0.05,0.74c0.03,0.39,0.05,0.79,0.09,1.18c0.02,0.23,0.06,0.45,0.08,0.68c0.02,0.21,0.04,0.42,0.08,0.63
			c0.01,0.05,0.02,0.11,0.02,0.16c0.02,0.19,0.04,0.38,0.09,0.56c0.01,0.05,0.02,0.11,0.03,0.16c0.02,0.13,0.05,0.25,0.07,0.38
			c0,0.02,0.01,0.04,0.01,0.06c0.05,0.24,0.09,0.48,0.15,0.72c0.05,0.21,0.11,0.41,0.16,0.61c0.04,0.15,0.09,0.29,0.13,0.44
			c0.09,0.32,0.2,0.64,0.32,0.94c0.12,0.28,0.23,0.57,0.36,0.85c0.15,0.33,0.32,0.63,0.5,0.92
			C223.69,164.1,223.8,164.26,223.91,164.43z"/>
	</g>
	<g>
		<path class="st8" d="M189.53,190.03c0.25,0.32,0.52,0.59,0.81,0.85c0.26,0.23,0.52,0.43,0.8,0.62c0.27,0.18,0.54,0.35,0.82,0.51
			c0.26,0.14,0.52,0.27,0.78,0.4c0.2,0.1,0.41,0.19,0.61,0.28c0.14,0.06,0.29,0.11,0.44,0.17c0.17,0.06,0.34,0.12,0.51,0.17
			c0.04,0.01,0.08,0.03,0.12,0.04c0.17,0.04,0.34,0.08,0.52,0.13c0.03,0.01,0.06,0.02,0.09,0.04c0.04,0.03,0.05,0.08,0.01,0.12
			c-0.02,0.02-0.05,0.04-0.07,0.04c-0.06,0.01-0.11,0.01-0.17,0.03c-0.23,0.05-0.46,0.11-0.68,0.17c-0.28,0.07-0.55,0.18-0.82,0.28
			c-0.21,0.09-0.43,0.18-0.63,0.28c-0.24,0.11-0.47,0.23-0.71,0.36c-0.35,0.19-0.69,0.4-1.03,0.63c-0.35,0.25-0.69,0.53-1,0.84
			c-0.28,0.28-0.54,0.59-0.77,0.92c-0.23,0.33-0.43,0.68-0.61,1.05c-0.08,0.18-0.16,0.36-0.23,0.54c-0.08,0.21-0.16,0.42-0.23,0.63
			c-0.05,0.14-0.09,0.29-0.13,0.44c-0.05,0.18-0.1,0.36-0.15,0.55c0,0.01-0.01,0.02-0.01,0.02c-0.04,0.21-0.09,0.42-0.13,0.63
			c-0.04,0.23-0.08,0.47-0.12,0.71c-0.04,0.27-0.07,0.54-0.1,0.82c-0.02,0.2-0.05,0.39-0.07,0.59c-0.02,0.16-0.02,0.31-0.03,0.47
			c0,0.05-0.01,0.1-0.03,0.15c-0.01,0.04-0.03,0.07-0.05,0.1c-0.05,0.07-0.11,0.05-0.13-0.03c-0.02-0.04-0.02-0.09-0.03-0.14
			c-0.02-0.22-0.05-0.45-0.07-0.67c-0.01-0.07-0.01-0.14-0.02-0.21c-0.03-0.22-0.05-0.45-0.09-0.67c-0.04-0.29-0.09-0.58-0.15-0.87
			c-0.04-0.21-0.08-0.41-0.12-0.62c-0.04-0.17-0.07-0.34-0.12-0.51c-0.08-0.31-0.16-0.63-0.25-0.94c-0.13-0.46-0.3-0.9-0.49-1.32
			c-0.29-0.64-0.68-1.19-1.13-1.67c-0.38-0.4-0.78-0.76-1.21-1.07c-0.43-0.31-0.87-0.58-1.33-0.82c-0.4-0.21-0.82-0.39-1.24-0.53
			c-0.38-0.13-0.76-0.24-1.15-0.29c-0.13-0.02-0.26-0.05-0.39-0.08c-0.04-0.01-0.08,0-0.12-0.01c-0.03-0.01-0.06-0.02-0.08-0.04
			c-0.04-0.03-0.03-0.08,0.01-0.11c0.01-0.01,0.03-0.02,0.05-0.02c0.03-0.01,0.07-0.01,0.1-0.01c0.26-0.01,0.52-0.04,0.78-0.1
			c0.22-0.05,0.43-0.1,0.65-0.16c0.16-0.04,0.32-0.1,0.48-0.16c0.13-0.05,0.26-0.09,0.39-0.15c0.23-0.1,0.45-0.19,0.67-0.3
			c0.18-0.09,0.37-0.18,0.54-0.28c0.2-0.11,0.4-0.22,0.59-0.35c0.25-0.17,0.49-0.34,0.73-0.52c0.39-0.3,0.75-0.65,1.07-1.05
			c0.28-0.36,0.53-0.75,0.73-1.18c0.18-0.38,0.33-0.78,0.46-1.19c0.1-0.33,0.2-0.67,0.28-1.01c0.08-0.35,0.17-0.69,0.24-1.04
			c0.05-0.24,0.09-0.49,0.13-0.73c0.03-0.18,0.06-0.36,0.09-0.54c0.03-0.23,0.06-0.46,0.08-0.7c0.02-0.14,0.02-0.29,0.04-0.44
			c0-0.04,0.01-0.08,0.02-0.11c0.01-0.03,0.03-0.07,0.05-0.09c0.05-0.05,0.1-0.03,0.13,0.03c0.01,0.03,0.02,0.07,0.03,0.11
			c0.02,0.18,0.03,0.37,0.04,0.55c0.02,0.29,0.04,0.58,0.07,0.87c0.02,0.17,0.05,0.33,0.06,0.5c0.01,0.16,0.03,0.31,0.07,0.46
			c0.01,0.04,0.01,0.08,0.02,0.12c0.01,0.14,0.03,0.28,0.07,0.41c0.01,0.04,0.01,0.08,0.02,0.12c0.02,0.09,0.04,0.19,0.06,0.28
			c0,0.01,0.01,0.03,0.01,0.04c0.04,0.18,0.08,0.35,0.12,0.53c0.04,0.15,0.09,0.3,0.13,0.45c0.03,0.11,0.07,0.22,0.11,0.33
			c0.08,0.24,0.16,0.47,0.27,0.69c0.1,0.21,0.19,0.42,0.3,0.63c0.12,0.24,0.27,0.47,0.42,0.68
			C189.34,189.79,189.43,189.91,189.53,190.03z"/>
	</g>
	<g>
		<path class="st8" d="M977.46,206.8c0.65,0.82,1.35,1.54,2.09,2.2c0.66,0.59,1.35,1.13,2.07,1.62c0.7,0.48,1.41,0.92,2.13,1.32
			c0.66,0.37,1.34,0.7,2.02,1.04c0.52,0.26,1.05,0.5,1.58,0.73c0.38,0.16,0.76,0.29,1.14,0.43c0.44,0.16,0.89,0.3,1.33,0.45
			c0.11,0.04,0.21,0.07,0.32,0.09c0.45,0.11,0.89,0.21,1.34,0.33c0.08,0.02,0.16,0.05,0.22,0.1c0.11,0.08,0.13,0.21,0.03,0.31
			c-0.05,0.06-0.13,0.1-0.19,0.11c-0.14,0.03-0.29,0.03-0.44,0.07c-0.59,0.14-1.18,0.28-1.77,0.43c-0.72,0.19-1.42,0.46-2.12,0.74
			c-0.55,0.22-1.1,0.46-1.65,0.72c-0.62,0.29-1.23,0.6-1.84,0.93c-0.91,0.48-1.8,1.03-2.66,1.63c-0.91,0.65-1.78,1.37-2.6,2.18
			c-0.73,0.72-1.4,1.52-2.01,2.38c-0.6,0.85-1.13,1.76-1.59,2.73c-0.22,0.46-0.41,0.93-0.6,1.4c-0.21,0.53-0.41,1.08-0.6,1.62
			c-0.13,0.38-0.24,0.76-0.35,1.15c-0.13,0.47-0.26,0.94-0.38,1.42c-0.01,0.02-0.01,0.04-0.02,0.06c-0.11,0.55-0.23,1.09-0.34,1.64
			c-0.12,0.61-0.21,1.22-0.31,1.83c-0.11,0.7-0.18,1.41-0.25,2.11c-0.05,0.51-0.12,1.01-0.17,1.52c-0.04,0.41-0.06,0.81-0.09,1.22
			c-0.01,0.13-0.03,0.27-0.07,0.39c-0.03,0.1-0.07,0.19-0.12,0.27c-0.12,0.17-0.28,0.14-0.35-0.07c-0.04-0.11-0.06-0.24-0.07-0.37
			c-0.06-0.58-0.12-1.16-0.18-1.75c-0.02-0.18-0.02-0.37-0.04-0.55c-0.07-0.58-0.13-1.16-0.22-1.74c-0.11-0.75-0.24-1.5-0.38-2.25
			c-0.1-0.54-0.21-1.07-0.32-1.6c-0.09-0.45-0.19-0.89-0.3-1.33c-0.21-0.82-0.42-1.63-0.65-2.44c-0.35-1.18-0.77-2.33-1.27-3.43
			c-0.76-1.66-1.76-3.07-2.93-4.32c-0.97-1.04-2.02-1.96-3.13-2.78c-1.1-0.82-2.26-1.51-3.44-2.13c-1.05-0.54-2.11-1.01-3.21-1.38
			c-0.98-0.33-1.96-0.62-2.97-0.76c-0.34-0.05-0.68-0.13-1.02-0.2c-0.1-0.02-0.21-0.01-0.31-0.03c-0.08-0.02-0.16-0.05-0.22-0.1
			c-0.1-0.09-0.08-0.21,0.02-0.29c0.04-0.03,0.08-0.04,0.12-0.05c0.08-0.02,0.17-0.03,0.26-0.03c0.68-0.03,1.36-0.1,2.03-0.25
			c0.56-0.12,1.12-0.26,1.68-0.41c0.42-0.11,0.83-0.26,1.24-0.41c0.34-0.12,0.67-0.24,1-0.38c0.59-0.25,1.17-0.5,1.75-0.77
			c0.48-0.22,0.95-0.46,1.41-0.72c0.51-0.29,1.03-0.58,1.52-0.91c0.64-0.43,1.27-0.88,1.88-1.36c1.01-0.78,1.95-1.68,2.79-2.73
			c0.74-0.92,1.37-1.94,1.89-3.06c0.46-0.99,0.85-2.02,1.19-3.09c0.27-0.86,0.52-1.73,0.73-2.62c0.21-0.9,0.44-1.79,0.63-2.7
			c0.13-0.62,0.23-1.26,0.34-1.89c0.08-0.47,0.16-0.93,0.22-1.4c0.08-0.6,0.15-1.2,0.22-1.81c0.04-0.38,0.06-0.75,0.1-1.13
			c0.01-0.1,0.02-0.19,0.05-0.28c0.03-0.09,0.07-0.17,0.13-0.23c0.12-0.12,0.27-0.09,0.34,0.08c0.04,0.08,0.06,0.18,0.07,0.27
			c0.04,0.47,0.07,0.95,0.11,1.42c0.06,0.75,0.11,1.51,0.18,2.26c0.04,0.43,0.12,0.86,0.16,1.3c0.04,0.41,0.08,0.81,0.17,1.2
			c0.02,0.1,0.04,0.2,0.05,0.31c0.03,0.36,0.09,0.72,0.19,1.06c0.03,0.1,0.03,0.2,0.06,0.3c0.05,0.24,0.1,0.49,0.15,0.73
			c0.01,0.04,0.02,0.07,0.03,0.11c0.11,0.46,0.2,0.92,0.32,1.37c0.1,0.4,0.23,0.78,0.35,1.17c0.09,0.28,0.19,0.56,0.28,0.85
			c0.2,0.62,0.43,1.22,0.69,1.8c0.25,0.55,0.5,1.09,0.77,1.62c0.32,0.63,0.69,1.21,1.08,1.77
			C976.98,206.18,977.22,206.48,977.46,206.8z"/>
	</g>
	<g>
		<path class="st8" d="M998.36,227.42c0.3,0.43,0.62,0.8,0.97,1.15c0.31,0.31,0.63,0.59,0.96,0.84c0.32,0.25,0.65,0.48,0.99,0.69
			c0.31,0.19,0.62,0.37,0.93,0.54c0.24,0.13,0.49,0.26,0.73,0.38c0.17,0.08,0.35,0.15,0.53,0.22c0.2,0.08,0.41,0.16,0.62,0.23
			c0.05,0.02,0.1,0.03,0.15,0.05c0.21,0.06,0.41,0.11,0.62,0.17c0.04,0.01,0.07,0.03,0.1,0.05c0.05,0.04,0.06,0.11,0.01,0.16
			c-0.02,0.03-0.06,0.05-0.09,0.06c-0.07,0.02-0.14,0.02-0.2,0.03c-0.27,0.07-0.55,0.14-0.82,0.22c-0.33,0.1-0.66,0.24-0.98,0.38
			c-0.26,0.12-0.51,0.24-0.76,0.38c-0.29,0.15-0.57,0.31-0.85,0.48c-0.42,0.25-0.83,0.53-1.23,0.85c-0.42,0.34-0.83,0.71-1.2,1.13
			c-0.34,0.37-0.65,0.79-0.93,1.24c-0.28,0.44-0.52,0.92-0.73,1.42c-0.1,0.24-0.19,0.48-0.28,0.73c-0.1,0.28-0.19,0.56-0.28,0.84
			c-0.06,0.2-0.11,0.4-0.16,0.6c-0.06,0.24-0.12,0.49-0.18,0.74c0,0.01-0.01,0.02-0.01,0.03c-0.05,0.28-0.11,0.57-0.16,0.85
			c-0.05,0.32-0.1,0.63-0.14,0.95c-0.05,0.37-0.08,0.73-0.12,1.1c-0.02,0.26-0.06,0.53-0.08,0.79c-0.02,0.21-0.03,0.42-0.04,0.63
			c-0.01,0.07-0.01,0.14-0.03,0.2c-0.01,0.05-0.03,0.1-0.06,0.14c-0.06,0.09-0.13,0.07-0.16-0.03c-0.02-0.06-0.03-0.13-0.03-0.19
			c-0.03-0.3-0.06-0.61-0.08-0.91c-0.01-0.1-0.01-0.19-0.02-0.29c-0.03-0.3-0.06-0.6-0.1-0.9c-0.05-0.39-0.11-0.78-0.17-1.17
			c-0.04-0.28-0.1-0.56-0.15-0.83c-0.04-0.23-0.09-0.46-0.14-0.69c-0.1-0.42-0.19-0.85-0.3-1.27c-0.16-0.62-0.35-1.21-0.59-1.79
			c-0.35-0.86-0.81-1.6-1.35-2.25c-0.45-0.54-0.94-1.02-1.45-1.45c-0.51-0.42-1.04-0.79-1.59-1.11c-0.48-0.28-0.98-0.53-1.48-0.72
			c-0.45-0.17-0.91-0.32-1.37-0.4c-0.16-0.03-0.31-0.07-0.47-0.1c-0.05-0.01-0.1-0.01-0.14-0.02c-0.03-0.01-0.07-0.02-0.1-0.05
			c-0.05-0.05-0.04-0.11,0.01-0.15c0.02-0.01,0.04-0.02,0.06-0.03c0.04-0.01,0.08-0.01,0.12-0.02c0.32-0.02,0.63-0.05,0.94-0.13
			c0.26-0.06,0.52-0.14,0.78-0.21c0.19-0.06,0.38-0.14,0.58-0.21c0.16-0.06,0.31-0.12,0.46-0.2c0.27-0.13,0.54-0.26,0.81-0.4
			c0.22-0.12,0.44-0.24,0.65-0.37c0.24-0.15,0.47-0.3,0.7-0.47c0.3-0.22,0.59-0.46,0.87-0.71c0.47-0.41,0.9-0.88,1.29-1.42
			c0.34-0.48,0.63-1.01,0.87-1.59c0.21-0.52,0.39-1.05,0.55-1.61c0.13-0.45,0.24-0.9,0.34-1.36c0.1-0.47,0.2-0.93,0.29-1.4
			c0.06-0.32,0.11-0.66,0.15-0.99c0.04-0.24,0.07-0.48,0.1-0.73c0.04-0.31,0.07-0.63,0.1-0.94c0.02-0.2,0.03-0.39,0.04-0.59
			c0-0.05,0.01-0.1,0.02-0.15c0.01-0.04,0.03-0.09,0.06-0.12c0.05-0.06,0.12-0.05,0.16,0.04c0.02,0.04,0.03,0.09,0.03,0.14
			c0.02,0.25,0.03,0.49,0.05,0.74c0.03,0.39,0.05,0.78,0.09,1.18c0.02,0.23,0.06,0.45,0.08,0.68c0.02,0.21,0.04,0.42,0.08,0.63
			c0.01,0.05,0.02,0.11,0.02,0.16c0.02,0.19,0.04,0.37,0.09,0.55c0.01,0.05,0.02,0.11,0.03,0.16c0.02,0.13,0.05,0.25,0.07,0.38
			c0,0.02,0.01,0.04,0.01,0.06c0.05,0.24,0.09,0.48,0.15,0.71c0.05,0.21,0.11,0.41,0.16,0.61c0.04,0.15,0.09,0.29,0.13,0.44
			c0.09,0.32,0.2,0.63,0.32,0.93c0.12,0.28,0.23,0.57,0.36,0.84c0.15,0.33,0.32,0.63,0.5,0.92
			C998.15,227.09,998.25,227.25,998.36,227.42z"/>
	</g>
	<g>
		<path class="st8" d="M964.08,252.95c0.25,0.32,0.52,0.59,0.8,0.85c0.25,0.23,0.52,0.43,0.8,0.62c0.27,0.18,0.54,0.35,0.82,0.51
			c0.26,0.14,0.52,0.27,0.78,0.4c0.2,0.1,0.4,0.19,0.61,0.28c0.14,0.06,0.29,0.11,0.44,0.17c0.17,0.06,0.34,0.12,0.51,0.17
			c0.04,0.01,0.08,0.03,0.12,0.04c0.17,0.04,0.34,0.08,0.51,0.13c0.03,0.01,0.06,0.02,0.09,0.04c0.04,0.03,0.05,0.08,0.01,0.12
			c-0.02,0.02-0.05,0.04-0.07,0.04c-0.06,0.01-0.11,0.01-0.17,0.03c-0.23,0.05-0.45,0.11-0.68,0.17c-0.28,0.07-0.55,0.18-0.82,0.28
			c-0.21,0.09-0.42,0.18-0.63,0.28c-0.24,0.11-0.47,0.23-0.71,0.36c-0.35,0.19-0.69,0.39-1.02,0.63c-0.35,0.25-0.69,0.53-1,0.84
			c-0.28,0.28-0.54,0.58-0.77,0.92c-0.23,0.33-0.43,0.68-0.61,1.05c-0.08,0.18-0.16,0.36-0.23,0.54c-0.08,0.21-0.16,0.41-0.23,0.62
			c-0.05,0.14-0.09,0.29-0.13,0.44c-0.05,0.18-0.1,0.36-0.15,0.54c0,0.01-0.01,0.02-0.01,0.02c-0.04,0.21-0.09,0.42-0.13,0.63
			c-0.04,0.23-0.08,0.47-0.12,0.7c-0.04,0.27-0.07,0.54-0.1,0.81c-0.02,0.2-0.05,0.39-0.07,0.59c-0.02,0.16-0.02,0.31-0.03,0.47
			c0,0.05-0.01,0.1-0.03,0.15c-0.01,0.04-0.03,0.07-0.05,0.1c-0.05,0.07-0.11,0.05-0.13-0.03c-0.02-0.04-0.02-0.09-0.03-0.14
			c-0.02-0.22-0.05-0.45-0.07-0.67c-0.01-0.07-0.01-0.14-0.02-0.21c-0.03-0.22-0.05-0.45-0.09-0.67c-0.04-0.29-0.09-0.58-0.14-0.86
			c-0.04-0.21-0.08-0.41-0.12-0.62c-0.04-0.17-0.07-0.34-0.12-0.51c-0.08-0.31-0.16-0.63-0.25-0.94c-0.13-0.46-0.3-0.9-0.49-1.32
			c-0.29-0.64-0.68-1.18-1.12-1.66c-0.37-0.4-0.78-0.75-1.2-1.07c-0.42-0.31-0.87-0.58-1.32-0.82c-0.4-0.21-0.81-0.39-1.23-0.53
			c-0.37-0.13-0.75-0.24-1.14-0.29c-0.13-0.02-0.26-0.05-0.39-0.08c-0.04-0.01-0.08,0-0.12-0.01c-0.03-0.01-0.06-0.02-0.08-0.04
			c-0.04-0.03-0.03-0.08,0.01-0.11c0.01-0.01,0.03-0.02,0.05-0.02c0.03-0.01,0.07-0.01,0.1-0.01c0.26-0.01,0.52-0.04,0.78-0.1
			c0.22-0.05,0.43-0.1,0.65-0.16c0.16-0.04,0.32-0.1,0.48-0.16c0.13-0.05,0.26-0.09,0.38-0.15c0.22-0.1,0.45-0.19,0.67-0.3
			c0.18-0.09,0.36-0.18,0.54-0.28c0.2-0.11,0.39-0.22,0.58-0.35c0.25-0.17,0.49-0.34,0.72-0.52c0.39-0.3,0.75-0.65,1.07-1.05
			c0.28-0.36,0.53-0.75,0.73-1.18c0.18-0.38,0.33-0.78,0.46-1.19c0.1-0.33,0.2-0.67,0.28-1.01c0.08-0.35,0.17-0.69,0.24-1.04
			c0.05-0.24,0.09-0.49,0.13-0.73c0.03-0.18,0.06-0.36,0.09-0.54c0.03-0.23,0.06-0.46,0.08-0.69c0.02-0.14,0.02-0.29,0.04-0.43
			c0-0.04,0.01-0.07,0.02-0.11c0.01-0.03,0.03-0.07,0.05-0.09c0.05-0.05,0.1-0.03,0.13,0.03c0.01,0.03,0.02,0.07,0.03,0.11
			c0.02,0.18,0.03,0.36,0.04,0.55c0.02,0.29,0.04,0.58,0.07,0.87c0.02,0.17,0.05,0.33,0.06,0.5c0.01,0.16,0.03,0.31,0.07,0.46
			c0.01,0.04,0.01,0.08,0.02,0.12c0.01,0.14,0.03,0.28,0.07,0.41c0.01,0.04,0.01,0.08,0.02,0.12c0.02,0.09,0.04,0.19,0.06,0.28
			c0,0.01,0.01,0.03,0.01,0.04c0.04,0.18,0.08,0.35,0.12,0.53c0.04,0.15,0.09,0.3,0.13,0.45c0.03,0.11,0.07,0.22,0.11,0.33
			c0.08,0.24,0.16,0.47,0.27,0.69c0.1,0.21,0.19,0.42,0.3,0.62c0.12,0.24,0.26,0.47,0.42,0.68
			C963.9,252.71,963.99,252.82,964.08,252.95z"/>
	</g>
</g>
</svg>
