<?xml version="1.0" encoding="utf-8"?>
<!-- Generator: Adobe Illustrator 26.4.1, SVG Export Plug-In . SVG Version: 6.00 Build 0)  -->
<svg version="1.1" id="La_Prevencion_Del_Suicidio" xmlns="http://www.w3.org/2000/svg" xmlns:xlink="http://www.w3.org/1999/xlink"
	 x="0px" y="0px" viewBox="0 0 1080 570" style="enable-background:new 0 0 1080 570;" xml:space="preserve">
<style type="text/css">
	.slpdsccn_st1{fill:#524584;}
	.slpdsccn_st2{fill:#514584;}
	.slpdsccn_st3{fill:#3C2E71;}
	.slpdsccn_st4{fill:#514483;}
	.slpdsccn_st5{fill:#3D2F72;}
	.slpdsccn_st6{fill:#514484;}
	.slpdsccn_st7{fill:#534684;}
	.slpdsccn_st8{fill:#FEFE5E;}
</style>
<g>
	<g>
		<path style="clip-path:url(#SVGID_00000134943436601427431520000001696762755311465104_);fill:#EFF6F9;" d="M1005.01,164.98
			c2.39,9.11,1.68,18.71-0.24,27.85c-4.4,21.78-16.14,41.16-22.16,62.42c-4.64,16.05-5.35,33.07-1.2,49.31
			c4.12,16.9,13.35,32.23,16.1,49.51c3.48,19.97-3.08,39.18-21.42,49.32c-9.13,4.99-19.44,7.26-29.7,8.53
			c-13.36,1.65-26.86,1.77-40.29,1.05c-32.9-1.44-65.35-7.74-98.12-10.42c-13.82-0.91-27.81-0.42-41.28,2.94
			c-11.86,2.89-23.41,7.43-34.26,12.92c-8.14,4.08-15.96,8.76-24.08,12.87c-11,5.75-22.91,9.42-34.98,12.16
			c-21.28,4.81-43.08,6.9-64.84,8.12c-16.38,0.98-32.58,1.45-48.77,3.79c-14.15,2.19-28.01,6.2-41.35,11.31
			c-16.46,6.51-32.28,14.68-46.97,24.57c-19.61,13.15-37.21,29.17-57.62,41.15c-12.2,7.19-25.33,13.03-39.18,16.12
			c-8.48,1.86-17.19,2.46-25.85,2.23c-14-0.33-27.89-2.61-41.5-5.82c-10.88-2.6-21.61-5.89-31.94-10.21
			c-7.09-2.96-14.09-6.19-20.6-10.29c-22.22-13.59-41.83-31.46-65.77-42.16c-19.69-8.65-40.76-13.38-60.97-20.55
			c-8.64-3.01-17.25-6.31-25.13-11.01c-10.37-5.99-19.17-14.95-24.22-25.87c-6.06-13.53-5.99-28.95-3.74-43.37
			c1.61-9.66,4.87-18.96,8.92-27.86c4.71-10.75,11.72-20.37,20.04-28.62c3.79-3.87,8.02-7.27,12.45-10.38
			c11.28-8.02,23.53-14.55,36.16-20.18c10.88-5.16,23.54-9.89,29.75-20.95c4.1-7.99,2.42-16.93-1.72-24.47
			c-5.11-10.21-12.36-19.16-17.52-29.34c-5.64-11.25-8.87-25.88-4.88-38.05c2.56-7.28,7.06-13.85,12.46-19.32
			c4.68-4.58,10.24-8.16,15.93-11.36c14.03-7.77,29.51-12.54,45.04-16.33c13.98-3.19,28.21-5.31,42.5-6.54
			c21.42-1.46,42.97-1.05,64.36,0.85c9.34,0.81,18.67,1.8,27.95,3.18c7.84,1.51,16.01,1.82,23.87,2.36
			c20.08,1.33,40.3,0.68,60.3-1.45c16.81-1.73,33.1-6.67,48.58-13.32c18.95-8.01,36.93-18.19,53.25-30.71
			c13.12-10.05,25.31-21.33,39.16-30.41c9.47-6.2,19.65-11.37,30.42-14.89c15.5-5.23,32-5.9,48.22-5.74
			c14.5,0.13,29.17,0.19,43.61-0.88c23.7-1.75,47.2-5.64,70.47-10.41c16.44-3.41,33.14-6.48,50-5.51
			c21.7,1.11,42.93,7.64,60.85,20.07c9.78,6.58,18.47,14.73,25.82,23.95c7.44,9.29,13.48,19.82,20.01,29.67
			c5.97,9.06,13.12,17.33,21.27,24.51c7.19,6.36,14.97,12.02,22.36,18.14C993.45,144.72,1002.23,153.41,1005.01,164.98z"/>
	</g>
	<path class="slpdsccn_st1" d="M632.49,121.91"/>
	<path class="slpdsccn_st2" d="M510.03,214.65"/>
	<path class="slpdsccn_st3" d="M459.15,447.47c-0.82-1.44-2.05-3.98-2.99-5.34c-0.79-1.15-1.7-2.28-2.78-3.14c-1.46-1.15-2.98-0.19-3.99,1.35
		c-0.92,1.4,0.34,4.1-0.11,5.69c-2.24,0.02-4.11-1.77-5.95-2.13c-4.07-0.79-8.14-1.54-12.32-1.42c-0.48-3.18-1.04-6.35-1.43-9.53
		c-0.79-6.39-1.5-12.79-2.22-19.19c-0.39-3.49-0.15-6.97,0.66-10.37c1.76-7.33,6.36-11.83,13.7-13.65c2.38-0.59,4.4-0.13,6.08,1.45
		c1.39,1.31,2.69,2.8,3.7,4.42c1.56,2.51,2.92,5.15,4.21,7.81c1.79,3.71,3.41,7.5,5.17,11.22c0.77,1.63,1.63,3.22,2.58,4.74
		c0.54,0.85,1.29,1.6,2.07,2.25c0.85,0.72,2.18,0.55,2.69-0.43c0.58-1.12,1.14-2.36,1.23-3.59c0.14-1.91,0.06-3.87-0.26-5.76
		c-0.61-3.55-1.5-7.05-2.19-10.59c-0.64-3.28-1.18-6.59-1.77-9.88c-0.68-3.79,0.79-6.57,4.08-8.37c3.51-1.93,7.19-3.49,11.17-4.14
		c3.84-0.63,5.85,0.69,6.83,4.47c0.39,1.49,0.62,3.03,0.75,4.57c0.55,6.16,1,12.32,1.57,18.48c0.98,10.64,1.5,19.84,2.51,30.48
		c0.06,0.64,0.35,2.76,0.32,3.73c-2.29,1.32-4.25,2.29-6.22,3.23c-3.87,1.84-7.99,3.01-12.21,3.19c-4.6,0.19-9.26,0.6-13.82-0.64
		C459.69,446.29,459.66,447.46,459.15,447.47z"/>
	<path class="slpdsccn_st3" d="M356.09,256.89c-1.08-3.57-2.11-7.16-3.25-10.7c-0.63-1.95-1.4-3.87-2.22-5.75c-0.41-0.93-1.23-2.56-2.49-1.82
		c-0.44,0.26-0.71,0.96-0.78,1.52c-0.19,1.4-0.33,2.83-0.25,4.23c0.18,3.21,0.51,7.76,0.45,11.3c-1.08,0.16-1.88-1.23-2.55-1.56
		c-3.11-1.51-6.18-3.09-9.25-4.67c-2.14-1.1-4.21-2.39-6.7-2.6c-0.25-2.56-0.61-5.11-0.74-7.67c-0.62-12.72-1.2-25.43-1.74-38.15
		c-0.15-3.47-0.21-6.96,0.68-10.36c0.42-1.61,0.84-3.24,1.51-4.76c2.38-5.45,6.62-8.43,12.56-8.73c8.14-0.41,15.84,1.35,23.09,5.05
		c2.77,1.41,5.18,3.32,7.27,5.65c3.14,3.51,4.67,7.69,4.95,12.29c0.36,6.05,0.04,12.09-1.37,18.01c-0.44,1.86-1.1,3.7-1.89,5.44
		c-1.26,2.77-3.28,4.89-6.07,6.23c-0.7,0.33-1.41,0.64-2.07,1.02c-0.89,0.52-1.23,1.34-0.77,2.3c0.66,1.38,1.42,2.73,2.28,4.01
		c1.86,2.78,4.44,6.58,6.05,9.51c-1.39,1.47-3.34,1.49-4.28,2.81c-1.36,1.89-3.15,3.23-4.78,4.8
		C361.48,256.44,359.05,257.25,356.09,256.89z M358.26,206.64c0.32-2.3,0.11-4.63-0.76-6.84c-1.21-3.08-3.26-4.41-6.57-4.23
		c-2.39,0.13-3.88,1.32-4.21,3.7c-0.37,2.68-0.35,5.39,0.55,8.01c1.09,3.16,3.3,4.46,6.57,3.87
		C356.06,210.73,357.85,209.59,358.26,206.64z"/>
	<path class="slpdsccn_st3" d="M765.93,199.67c0.29-3.98,0.48-7.96,0.9-11.92c0.88-8.19,1.88-16.38,2.83-24.56
		c0.45-3.87,1.49-7.58,3.26-11.05c3.6-7.07,9.51-10.97,17.17-12.46c2.1-0.41,3.8,0.36,5.21,1.86c1.44,1.53,2.42,3.37,2.98,5.36
		c1.11,3.96,2.1,7.96,3.1,11.95c0.62,2.5,1.1,5.03,1.77,7.52c0.33,1.23,0.85,2.43,1.41,3.59c0.45,0.94,1.08,1.82,2.27,1.85
		c1.38,0.04,2.12-0.93,2.57-2c0.55-1.29,1.08-2.65,1.27-4.02c0.33-2.42,0.49-4.87,0.56-7.31c0.12-3.86,0.1-7.73,0.17-11.59
		c0.02-1.03,0.08-2.06,0.22-3.08c0.48-3.41,1.89-5.08,5.31-5.75c3.56-0.7,7.2-0.72,10.77-0.05c3.62,0.68,5.37,2.73,5.51,6.4
		c0.08,2.18-0.08,4.38-0.33,6.55c-1.25,10.61-2.88,22.05-4.59,32.99c-3.22,1.16-5.78,0.98-8.51,2.03
		c-7.85,3.01-15.64,6.2-23.47,9.28c-0.81,0.32-1.61,1.84-2.47,2.02c-0.35-2.24-1.18-5.91-1.81-8.12c-0.42-1.47-1.01-2.9-2.22-3.95
		c-1.24-1.07-2.84-0.86-3.47,0.66c-0.58,1.39-1.02,2.91-1.17,4.4c-0.31,3.17-0.39,6.37-0.99,9.88c-1.07,0.34-1.75,0.24-2.35,0.4
		c-4.87,1.32-9.65,0.93-14.38-0.69C766.98,199.68,766.44,199.73,765.93,199.67z"/>
	<path class="slpdsccn_st3" d="M370.3,455.01c-0.9-1.84-1.74-3.71-2.71-5.51c-0.85-1.58-1.75-3.14-2.8-4.59c-0.9-1.25-2.17-2.86-3.77-2.21
		c-1.75,0.71-1.75,3.55-1.73,5.06c0.03,2.42,1.21,4.97,1.77,7.62c-4.65-0.25-8.82-2.45-12.76-4.28c-1.94-0.91-3.67-2.35-5.95-2.45
		c-0.87-5.59-1.79-11.17-2.59-16.77c-0.76-5.35-1.42-10.71-2.09-16.07c-0.43-3.47-0.54-6.92,0.35-10.35
		c1.49-5.75,5.34-8.83,11.28-9.38c3.83-0.35,6.84,0.85,9.08,3.91c1.29,1.76,2.6,3.54,3.59,5.48c2.23,4.35,4.24,8.8,6.37,13.2
		c1.57,3.24,3.08,6.51,4.8,9.68c0.72,1.33,1.78,2.52,2.88,3.57c1.08,1.03,2.57,0.53,3.08-0.88c0.59-1.61,0.72-3.28,0.4-4.95
		c-0.51-2.65-1.08-5.29-1.68-7.92c-0.96-4.26-1.96-8.52-2.93-12.78c-0.17-0.75-0.3-1.52-0.37-2.28c-0.32-3.44,0.74-5.18,4.04-5.94
		c3.26-0.76,6.61-1.13,9.97-0.78c4.8,0.49,7.11,2.52,8.33,7.23c0.26,0.99,0.49,2.01,0.62,3.02c1.6,12.76,3.18,26.36,4.42,39.46
		c-1.95,0.75-3.59,0.26-5.16,0.79c-3.16,1.06-6.24,2.35-9.43,3.31C381.68,451.88,375.98,453.41,370.3,455.01z"/>
	<path class="slpdsccn_st4" d="M588.52,150.02c0.03,1.41,0.02,3.75-0.02,5.16c-0.24,10.68-0.51,21.36-0.77,32.04
		c-0.09,3.61-0.43,7.19-1.37,10.69c-2.21,8.19-6.94,14.52-14.08,19.11c-4.34,2.79-7.12,1.81-9.52-2.43
		c-1.66-2.93-2.55-6.18-3.4-9.41c-1.08-4.1-2.03-8.24-3.1-12.35c-0.39-1.49-0.89-2.95-1.41-4.4c-0.31-0.84-0.71-1.66-1.19-2.42
		c-0.63-1-1.43-1.89-2.8-1.64c-1.34,0.25-1.92,1.37-2.13,2.49c-0.34,1.76-0.56,3.57-0.54,5.36c0.05,3.47,0.13,6.96,0.54,10.4
		c0.67,5.62,1.49,11.22,2.5,16.79c0.66,3.62-0.26,6.63-2.57,9.29c-3.2,3.68-7.28,6.14-11.75,7.88c-3.69,1.44-5.68,0.12-6.14-3.8
		c-0.18-1.53-0.15-3.08-0.12-4.63c0.21-12.35,0.55-25.43,1.12-38.15c0.69-0.53,1.04,0.12,1.26-0.14c1.24-1.46,2.52-2.9,3.62-4.47
		c3.53-5.06,7.93-9.37,12-13.96c2.62-2.95,5.74-5.48,8.79-8.02c1.23-1.03,2.38-2.79,4.18-2.92c0.56,1.39,1.64,3.13,2.55,4.33
		c1.03,1.35,4.54,3.01,5.58,1.64c1.04-1.36,0.74-4.19,0.63-5.86c-0.09-1.27-0.38-4.73-0.54-6.49c1.92-0.83,3.5-0.28,5.08-0.76
		C579.32,152,583.91,150.19,588.52,150.02z"/>
	<path class="slpdsccn_st3" d="M748.18,113.06c-0.7-2.06-1.35-4.14-2.12-6.17c-0.54-1.44-1.17-2.85-1.89-4.2c-0.41-0.77-1.01-1.5-1.68-2.08
		c-1.95-1.67-4.52-0.99-5.14,1.48c-0.43,1.72-0.51,3.55-0.58,5.33c-0.05,1.4,0.07,3.57,0.07,5.37c-6.71,0.18-12.96,0.61-18.72,3.2
		c-0.33,0.15-0.75,0.12-1.13,0.18c-0.01-1.54-0.05-3.08-0.03-4.62c0.09-7.85,0.18-15.7,0.3-23.54c0.03-1.67,0.11-3.34,0.31-5
		c0.85-7.07,4.64-12.16,10.82-15.45c2.14-1.14,4.5-1.87,6.79-2.7c2.95-1.07,5.65-0.36,7.88,1.69c1.5,1.38,2.86,2.98,3.96,4.69
		c1.59,2.48,2.89,5.16,4.32,7.74c0.81,1.46,1.58,2.95,2.48,4.36c0.55,0.85,1.23,1.67,2,2.32c1.44,1.21,3.37,0.97,4.32-0.66
		c0.62-1.07,1.12-2.38,1.15-3.6c0.04-2.17-0.22-4.35-0.53-6.51c-0.44-3.05-1.13-6.07-1.54-9.12c-0.48-3.55,0.34-4.97,3.69-6.23
		c4.38-1.65,8.94-2.41,13.62-2.13c3.47,0.21,5.16,1.79,5.65,5.17c0.2,1.4,0.27,2.82,0.3,4.23c0.28,12.35-0.08,24.7-0.93,37.4
		c-1.43,0.78-2.52,1.17-3.56,1.64c-3.16,1.42-6.32,2.88-9.47,4.33c-4.62,2.12-9.4,3.38-14.55,2.96
		C752.06,112.96,750.12,113.07,748.18,113.06z"/>
	<path class="slpdsccn_st4" d="M747.63,313.02c-0.87,6.17-3.91,11.3-9.94,13.69c-0.48,0.19-0.93,0.44-1.37,0.71
		c-0.74,0.47-0.99,1.22-0.73,2.01c0.32,0.97,0.71,1.94,1.23,2.81c1.19,1.99,2.53,3.88,3.72,5.87c2.18,3.64,4.43,7.25,6.4,11
		c2.38,4.53,3.35,9.43,2.89,14.57c-0.16,1.79-0.12,3.61-0.35,5.39c-0.56,4.37-2.4,6.39-6.78,7.2c-2.14,0.4-4.34,0.42-6.52,0.6
		c-2.3,0.19-3.96-0.93-5.21-2.72c-1.49-2.13-2.58-4.47-3.21-6.98c-1.29-5.11-2.49-10.24-3.71-15.37c-0.81-3.38-1.51-6.78-2.42-10.13
		c-0.4-1.46-1.14-2.86-1.89-4.19c-0.26-0.46-1-0.83-1.56-0.91c-0.72-0.1-1.15,0.55-1.28,1.2c-0.27,1.38-0.62,2.78-0.61,4.17
		c0.04,4.76,0.22,9.52,0.36,14.28c0.13,4.37,0.39,8.75,0.41,13.12c0.02,4.61-2.18,7.47-6.54,8.87c-2.48,0.8-5.04,1.05-7.63,0.9
		c-3.03-0.18-5.1-1.67-5.96-4.61c-0.36-1.23-0.59-2.5-0.73-3.78c-0.14-1.27-0.1-2.57-0.12-3.86c-0.26-13.13-0.5-26.25-0.79-39.38
		c-0.05-2.44-0.04-5.92-0.04-8.67c1.47-0.57,2.6,0.28,3.68-0.06c3.28-1.04,6.53-2.17,9.8-3.21c5.36-1.71,10.91-2.56,16.49-2.89
		c4.59-0.27,9.22-0.06,13.82-0.05c0.89,0,1.88-0.15,2.66,0.16C743.61,313.49,745.73,312.87,747.63,313.02z"/>
	<path class="slpdsccn_st4" d="M686.54,205.95c-0.02,1.79-0.21,5.02-0.28,6.81c-0.34,9.91-0.69,19.82-1.08,29.73
		c-0.08,1.92-0.27,3.85-0.55,5.76c-0.43,2.95-1.93,5.33-4.37,7.01c-3.86,2.67-8.2,4.27-12.72,5.4c-0.49,0.12-1.02,0.12-1.54,0.12
		c-2.58,0.01-3.97-1.06-4.05-3.61c-0.08-2.3,0.19-4.62,0.5-6.91c0.51-3.7,1.26-7.36,1.77-11.05c0.35-2.53,0.7-5.1,0.04-7.58
		c-0.89-0.59-1.63-0.37-2.06,0.37c-0.63,1.11-1.12,2.3-1.63,3.48c-0.82,1.89-1.51,3.84-2.43,5.67c-1.71,3.41-4.24,6.13-7.54,8.08
		c-2.23,1.31-3.39,1.05-4.82-1.18c-0.83-1.3-1.47-2.72-2.29-4.02c-0.89-1.41-1.94-1.53-3.21-0.48c-2.75,2.28-3.48,4.86-2.24,8.26
		c0.39,1.08,0.93,2.12,1.43,3.16c0.5,1.05,1.03,2.07,1.55,3.11c2.53,5.11,1.91,9.96-1.25,14.59c-3.44,5.04-8.12,8.55-13.58,11.12
		c-0.23,0.11-0.48,0.18-0.73,0.26c-3.35,1.17-4.81,0.29-5.23-3.28c-0.16-1.4-0.22-2.83-0.21-4.24c0.1-16.1,0.32-33.12,0.85-49.58
		c1.31-0.37,2.18,0.76,2.99,0.48c2.51-0.86,5.08-0.63,7.64-0.65c3.09-0.03,6.18-0.11,9.26,0.02c3.14,0.13,6.08-0.62,9.06-1.46
		c7.62-2.15,14.39-6.18,21.34-9.75c4.44-2.28,8.64-5.02,12.98-7.5C684.81,207.71,685.81,206.17,686.54,205.95z"/>
	<path class="slpdsccn_st3" d="M601.42,361.26c-0.07-2.7-0.27-5.39-0.19-8.09c0.29-10.19,1.37-20.27,4.47-30.05c1.83-5.8,4.31-11.29,8-16.17
		c3.88-5.14,8.67-9.13,14.67-11.57c1.78-0.72,3.64-1.31,5.51-1.69c5.44-1.12,10.19,0.37,14.19,4.19c2.55,2.43,4.3,5.42,5.75,8.61
		c2.19,4.84,3.45,9.97,4.29,15.18c1.01,6.23,1.48,12.51,1.22,19.21c-2.84,2.15-5.31,3.98-7.89,5.66c-3.12,2.03-6.25,4.05-9.51,5.84
		c-2.69,1.48-5.57,2.61-8.37,3.9c-0.71,0.33-2.15,0.83-2.39,0c3.6-2.16,6.2-6.24,7.22-9.94c1.11-4,1.43-8.07,0.96-12.19
		c-0.12-1.02-0.3-2.04-0.6-3.02c-1.35-4.43-4.41-5.82-8.62-3.96c-2.65,1.17-4.79,2.99-6.45,5.32c-4,5.61-4.84,11.75-2.9,18.3
		c0.89,3.01,2.91,5.27,6.28,6.26c0.59,0.35,1.02,0.55,1.74,0.88c-3.61,0.9-7.23,1.54-10.62,1.83c-3.31,0.28-6.66,0.32-9.9,0.96
		C605.98,361.18,603.73,361.32,601.42,361.26z"/>
	<path class="slpdsccn_st4" d="M614.03,228.45c2.06,3.26,2.67,7.63,3.15,11.29c1.27,9.64,1.04,19.27-0.69,28.84
		c-1.99,11.06-6.6,20.8-14.93,28.57c-3.32,3.1-6.99,5.7-11.09,7.64c-1.84,0.87-3.85,1.47-5.84,1.92c-4.62,1.05-8.36-0.57-11.27-4.18
		c-2.06-2.56-3.18-5.58-3.94-8.73c-1.36-5.68-1.7-11.45-1.33-17.26c0.36-5.65,1.57-12.94,3.37-18.72c1.84-0.52,1.98,0.03,2.82-0.92
		c1.45-1.62,2.78-3.36,4.29-4.92c2.5-2.58,5.18-4.96,7.91-7.31c3.51-3.02,7.04-5.95,10.91-8.5c3.77-2.48,7.7-4.64,11.96-6.13
		C610.93,229.49,612.3,228.22,614.03,228.45z M595.29,271.66c4.91-4.61,6.11-10.53,5.74-16.9c-0.27-4.67-3.05-6.12-7.07-3.74
		c-5.13,3.03-8.31,7.54-9.56,13.37c-0.47,2.19-0.18,4.36,0.5,6.46c0.99,3.06,3.29,4.27,6.3,3.21
		C592.49,273.6,593.65,272.72,595.29,271.66z"/>
	<path class="slpdsccn_st4" d="M888.76,181.55c-1.78,2.88-5.84,6.06-8.39,8.19c-4.64,3.88-7.59,6.22-12.33,9.97c-2.12,1.68-4.7,3.5-6.79,5.22
		c-0.76,0.63-3.22,2.48-2.9,3.8c0.29,1.18,3.67,2.14,4.49,2.33c6.02,1.41,10.24,1.63,15.94,4.06c2.47,1.06,4.87,2.34,7.16,3.75
		c2.87,1.76,4.15,4.49,3.95,7.86c-0.11,1.8-0.17,3.61-0.44,5.39c-0.71,4.74-3.01,6.75-7.83,6.76c-2.05,0-4.13-0.21-6.14-0.61
		c-11.23-2.22-22.45-4.48-33.65-6.86c-2.37-0.5-4.67-1.43-6.91-2.39c-4.99-2.13-7.08-6.08-6.86-11.4c0.17-4.2,1.27-8.11,3.36-11.76
		c2.06-3.6,4.58-6.83,7.42-9.84c4.97-5.27,10.75-9.5,16.61-13.72c2.19-1.58,5.34-4.06,8.03-5.46c3.6,0.94,5.79,1.06,8.99,1.81
		c3.86,0.91,7.77,1.5,11.47,3.06C885.22,182.25,887.39,181.24,888.76,181.55z"/>
	<path class="slpdsccn_st3" d="M496.12,438.99c-0.4-1.62-1.15-4.35-1.39-5.99c-2.03-13.88-2.17-27.73,1.24-41.45
		c1.44-5.78,3.65-11.26,6.93-16.28c4.26-6.52,9.88-11.5,16.84-14.98c2.32-1.16,4.72-2.01,7.32-2.34c4.45-0.56,8.13,0.86,11.09,4.17
		c1.91,2.13,3.25,4.62,4.35,7.26c2.46,5.88,3.38,11.23,3.89,17.53c0.14,1.7,0.63,5.57,0.78,7.6c-3.34,3.02-6.38,4.64-9.42,7.3
		c-2.38,2.08-4.73,4.18-7.14,6.22c-0.35,0.29-0.94,0.81-1.46,0.6c-0.05-2.54-0.01-5.25-0.09-7.43c-0.08-2.08-0.55-4.09-1.63-5.89
		c-1.22-2.02-3.07-2.73-5.29-2.02c-0.97,0.31-1.91,0.79-2.77,1.33c-4.13,2.58-6.81,6.31-7.93,10.99c-1.49,6.2-0.46,12.12,4.37,16.84
		c-4.87,4.49-9.91,8.76-15.12,12.41C499.16,435.93,498.22,438.82,496.12,438.99z"/>
	<path class="slpdsccn_st4" d="M803.76,332.71c0.19,8.87-1.38,20.52-4.76,28.72c-1.23,2.99-3.03,5.65-5.11,8.15
		c-6.43,7.7-22.47,11.29-31.78-0.92c-2.68-3.52-4.6-7.44-6.11-11.57c-2.53-6.93-3.91-14.14-4.78-21.44
		c-0.79-6.66-0.93-13.97-0.29-21.03c1.16-0.3,1.87,0.22,2.56,0.46c3.23,1.12,6.42,2.36,9.64,3.53c1.66,0.6,3.14,0.43,4.94,1.27
		c0.62,2.76,1.31,5.98,2.5,8.26c1.15,2.19,2.68,4.01,4.93,5.14c2.77,1.4,5.52,0.93,7.64-1.33c0.69-0.73,1.83-2.5,2.63-3.83
		c3.15,1.41,5.44,4.48,8.42,5.52C797.27,334.72,800.43,332.62,803.76,332.71z"/>
	<path class="slpdsccn_st5" d="M284.16,240.24c-0.23-3.07-0.57-7.28-0.68-10.36c-0.38-11.19-0.69-22.37-1-33.56
		c-0.08-2.96-0.02-5.92,0.7-8.82c0.25-1,0.49-2,0.83-2.97c2.13-5.92,6.25-8.87,12.52-9c4.3-0.08,8.44,0.73,12.43,2.31
		c8.09,3.21,12.84,9.18,14.47,17.65c1.15,5.99,0.9,12.04,0.36,18.07c-0.2,2.17-0.56,4.35-1.14,6.44c-1.83,6.67-5.57,9.54-12.55,9.77
		c-1.28,0.04-2.57-0.04-3.86-0.03c-0.61,0.01-1.22,0.1-1.95,0.16c-0.65,4.05,0.23,9.08,0.15,13.21c-0.62,0.34-0.89-0.92-1.13-0.86
		c-6.57,1.64-12.71,0.71-18.41-2.99C284.7,239.14,284.41,240.29,284.16,240.24z M313.07,202.3c-0.37-1.36-1.01-2.67-1.8-3.8
		c-1.44-2.05-3.79-2.33-5.73-0.75c-0.77,0.62-1.43,1.51-1.83,2.42c-1.38,3.1-1.26,6.26,0.05,9.36c1,2.37,2.93,3.52,5.44,3.68
		c1.53,0.1,2.82-0.52,3.47-1.95c0.42-0.91,0.75-1.94,0.78-2.93C313.5,206.53,313.71,204.66,313.07,202.3z"/>
	<path class="slpdsccn_st4" d="M601.46,360.56c2.37-0.27,4.52,0.62,6.82,0.16c3.24-0.64,6.59-0.68,9.9-0.96c3.39-0.29,6.7-0.93,10.31-1.83
		c-0.73-0.33-1.15-0.53-1.44-0.94c1.72-0.56,3.31-0.9,4.9-1.24c0.39,0.63,0.91,0.85,1.61,0.52c2.8-1.29,5.68-2.42,8.37-3.9
		c3.26-1.79,6.39-3.81,9.51-5.84c2.58-1.68,5.05-4.34,7.81-6.15c0.31,0.2,0.11,2.1,0.11,2.35c0.04,10.74-0.75,20.5-4.29,30.71
		c-2.35,6.76-5.76,12.91-10.96,17.95c-4.13,4-8.93,6.93-14.33,8.87c-1.33,0.48-2.7,0.9-4.09,1.11c-6.45,1-11.63-1.18-15.55-6.38
		c-2.92-3.86-4.68-8.26-5.97-12.88C602.31,375.52,601.71,367.72,601.46,360.56z"/>
	<path class="slpdsccn_st4" d="M589.88,364.1c3.63,0.66,6.2,3.33,7.86,6.35c1.38,2.52,2.09,5.29,2.36,8.11c0.72,7.62,0.31,15.17-1.99,22.54
		c-2.23,7.14-5.96,13.37-11.19,18.71c-4.36,4.45-9.37,8.05-14.86,10.97c-2.63,1.4-5.4,2.44-8.38,2.78
		c-4.65,0.53-8.33-1.1-10.97-4.98c-1.48-2.18-2.3-4.63-2.51-7.22c-0.35-4.38-0.32-8.76,0.73-13.06c1.17-4.81,3.51-8.85,8.04-11.27
		c0.89-0.48,1.89-0.84,2.88-1.04c1.68-0.33,3.08,0.28,3.91,1.81c0.55,1.01,0.93,2.11,1.35,3.19c0.46,1.2,0.79,2.46,1.34,3.61
		c0.82,1.72,2.14,2.05,3.82,1.07c1.48-0.87,2.6-2.1,3.43-3.59c2.46-4.44,2.96-9.27,2.6-14.22c-0.14-1.92-1.19-2.69-3.15-2.57
		c-1.14,0.07-2.29,0.33-3.4,0.62c-2.49,0.65-4.95,1.42-7.45,2.04c-2.77,0.69-6.1,0.62-9.13-0.6c0.29-1.22,1.19-1.78,1.84-2.32
		c2.06-1.71,4.2-3.34,6.36-4.92c6-4.39,12.2-8.46,18.91-11.69c1.96-0.94,4.01-1.7,6.05-2.44
		C589.23,365.64,589.51,364.99,589.88,364.1z"/>
	<path class="slpdsccn_st3" d="M392.98,355.93c-0.12-1.14-0.44-3.94-0.45-5.09c-0.09-11.72-0.19-23.43-0.19-35.15c0-4.89,0.4-9.77,1.38-14.58
		c0.08-0.38,0.13-0.76,0.22-1.14c1.29-5.67,4.79-8.94,10.56-9.75c1.02-0.14,2.05-0.22,3.06-0.4c5.13-0.95,9.67,0.43,13.84,3.39
		c3.84,2.73,6.83,6.25,9.43,10.12c4.19,6.24,7.39,13.93,9.11,21.51c-0.8,0.68-1.56,0-1.93,0.48c-2.21,2.82-4.36,5.68-6.51,8.54
		c-2,2.66-3.95,5.36-6,7.99c-0.34,0.44-1.04,1.84-1.62,1.82c-0.21-1.7-0.17-4.39-0.58-5.7c-1.23-3.88-3.8-6.62-7.65-8.01
		c-2.49-0.9-4.32,0.05-5.04,2.56c-0.38,1.33-0.6,2.76-0.59,4.15c0.02,5.62,0.36,12.89,0.08,18.52c-2.53,0.02-4.89-1.64-7.05-1.61
		c-1.27,0.01-2.62-0.2-3.78,0.18C397.14,354.45,395.12,356,392.98,355.93z"/>
	<path class="slpdsccn_st4" d="M483.25,200.39c-0.54,3.16-1.37,8-2.05,11.14c-2.66,12.23-6.18,24.18-11.56,35.53
		c-2.15,4.55-4.55,8.97-7.81,12.83c-1.4,1.66-2.99,3.21-4.71,4.53c-2.95,2.27-6.22,2.4-9.4,0.5c-1.63-0.98-3.15-2.24-4.5-3.59
		c-2.58-2.57-4.42-5.68-6.06-8.91c-3.75-7.4-5.76-15.35-7.46-23.44c-0.11-0.5-0.49-1.7-0.47-2.4c2.77-1.47,4.76-2.6,6.72-4.43
		c2.88-2.69,5.83-5.33,8.79-7.94c0.95-0.84,1.97-1.64,3.07-2.26c0.73-0.41,1.67-1.08,2.51-1.29c0.24,1.24,0.54,3.09,0.71,4.34
		c0.54,4.07,1.02,8.15,1.55,12.22c0.13,1.01,0.04,2.87,1.44,2.84c0.53-0.01,1.08-0.59,1.32-1.06c0.51-1.02,0.96-2.12,1.17-3.24
		c0.81-4.15,1.54-8.33,2.26-12.5c0.52-3.04,1.29-7.12,2.18-10.46c1.02-0.45,1.35,0.48,1.94,0.27c3.76-1.33,7.6-1.99,11.63-1.89
		C477.31,201.25,480.5,199.79,483.25,200.39z"/>
	<path class="slpdsccn_st4" d="M338.95,443.8c1.1,4.93,1.28,10.97,1.03,15.98c-0.12,2.43-0.59,4.84-1,7.25c-0.17,1-0.52,1.99-0.91,2.94
		c-2.26,5.59-6.43,8.58-12.44,8.77c-6.09,0.19-11.7-1.54-16.84-4.76c-5-3.14-8.89-7.39-12.08-12.31
		c-5.48-8.45-8.72-17.77-10.34-27.64c-1.06-6.48-1.44-14.15-0.41-21.01c0.98-0.24,1.24,0.79,1.69,0.98
		c4.47,1.9,8.98,3.72,13.34,5.87c1.34,0.66,3.61-0.04,4.88,0.23c-2.39,1.98-4.11,5.43-3.83,8.1c0.34,3.32,1.2,6.54,2.93,9.46
		c1.46,2.47,3.35,4.51,5.86,5.94c1.24,0.7,2.54,1.18,3.99,1.2c2.16,0.03,3.78-0.93,4.53-2.9c0.53-1.41,0.74-2.96,0.91-4.47
		c0.15-1.39,0.06-4.04,0.35-5.42c2.83,0.73,4.53,3.99,6.6,5.43c3.02,2.1,5.96,4.33,8.89,6.56
		C336.97,444.66,337.9,443.84,338.95,443.8z"/>
	<path class="slpdsccn_st6" d="M511.43,294.01c0.36,1.48,0.84,2.95,1.05,4.45c1.66,11.81,1.68,23.58-1.11,35.24
		c-1.61,6.72-4.43,12.87-8.96,18.15c-4.28,4.99-9.48,8.63-15.89,10.4c-5.3,1.46-9.61-0.14-13.09-4.25
		c-1.76-2.08-2.97-4.48-3.96-7.02c-2.23-5.69-3.24-11.66-3.55-17.69c-0.26-5.12,0.11-11.1,0.54-16.57c2.71,0.74,4.94,2.59,7.22,3.71
		c1.51,0.74,2.82,0.87,4.27-0.23c0.88-0.67,1.94-1.91,3.07-2.08c0.08,2.26,0.95,5.05,1.75,6.76c1.72,3.63,5.38,4.53,8.75,2.38
		c2.14-1.37,3.54-3.34,4.4-5.71c1.3-3.57,1.69-7.27,1.31-11.03c-0.24-2.35-1.05-4.51-2.89-6.35c3.77-5.12,8.84-7.77,14.58-9.35
		C509.77,294.58,510.6,294.28,511.43,294.01z"/>
	<path class="slpdsccn_st5" d="M803.88,335.52c-3.45,0.2-6.61-0.8-9.69-1.87c-2.98-1.04-5.79-2.56-8.9-4.29c1.2-5.04,1.64-9.75,0.64-14.5
		c-0.37-1.73-1.05-3.44-1.9-5c-1.02-1.89-2.76-3.02-4.91-3.4c-3.96-0.71-7.48,0.96-9.42,4.49c-1,1.83-1.51,3.82-1.51,5.92
		c0,1.15-0.02,2.31-0.03,3.46c-1.67-0.57-3.36-1.12-5.02-1.73c-3.22-1.17-6.41-2.4-9.64-3.53c-0.7-0.24-1.51-0.14-2.57-0.2
		c-0.42-8.17,0.61-16.17,3.41-23.88c0.97-2.67,2.3-5.17,4.09-7.41c3.58-4.47,8.26-6.88,13.93-7.35
		c10.46-0.87,18.19,3.51,23.48,12.41c3.06,5.15,4.9,10.78,6.06,16.61C803.88,315.15,804.53,325.15,803.88,335.52z"/>
	<path class="slpdsccn_st5" d="M590.05,364.13c-0.14,1.07-0.82,1.51-1.73,1.84c-2.05,0.74-4.1,1.5-6.05,2.44
		c-6.71,3.23-12.91,7.3-18.91,11.69c-2.16,1.58-4.3,3.21-6.36,4.92c-0.65,0.54-1.03,1.41-1.56,2.41c-2.15,0.05-3.55-1.33-4.56-2.99
		c-0.99-1.63-1.85-3.41-2.37-5.24c-1.95-6.85-1.82-13.75,0.22-20.56c3.3-10.97,9.18-20.35,17.65-28.07
		c3.06-2.79,6.5-5.04,10.35-6.62c2.78-1.14,5.65-1.63,8.66-1.55c6.77,0.18,13.45,5.87,13.01,14.4c-0.38,7.38-3.87,13.22-10.02,17.39
		c-0.53,0.36-1.1,0.66-1.69,0.93c-2.81,1.29-4.51,0.9-6.43-1.49c-0.72-0.9-1.33-1.9-2.09-2.77c-0.91-1.04-1.91-1.14-3.09-0.35
		c-2.1,1.4-3.7,3.21-4.25,5.74c-0.27,1.25-0.49,2.53-0.53,3.81c-0.09,3.22,0.84,4.12,4.15,3.96c2.44-0.12,4.87-0.4,7.31-0.64
		C584.48,363.14,587.16,363.29,590.05,364.13z"/>
	<path class="slpdsccn_st4" d="M529.18,408.47c0.48-0.14,1.07-0.14,1.42-0.44c2.41-2.04,4.77-4.14,7.14-6.22c3.04-2.66,6.08-5.32,9.36-8.03
		c0.52,4.83,1.03,9.71,1.02,14.58c-0.02,7.74-0.69,15.43-2.76,22.95c-1.3,4.74-3.08,9.28-5.66,13.48
		c-3.95,6.43-9.36,11.25-16.16,14.5c-2.71,1.29-5.55,2.02-8.58,1.98c-3.22-0.04-6.05-1.07-8.55-3.08c-2.56-2.05-4.47-4.61-6.02-7.47
		c-2.1-3.88-3.55-7.99-4.5-12.58c2.12-0.47,3.27-2.23,4.78-3.3c5.21-3.66,9.84-8.02,15.01-12.5c4.43,0.85,7.2-0.94,9.52-3.74
		c1.56-1.89,2.5-4.1,3.11-6.46C528.64,410.94,528.9,409.7,529.18,408.47z"/>
	<path class="slpdsccn_st4" d="M423.92,342.75c0.54-0.29,1.24-0.46,1.58-0.9c2.04-2.63,3.99-5.33,6-7.99c2.15-2.86,4.3-5.73,6.51-8.54
		c0.37-0.47,1.03-0.73,1.81-1.12c1.84,3.69,2.42,7.65,2.61,11.61c0.39,8.36,0.2,16.73-1.47,24.96c-0.64,3.13-1.53,6.25-2.68,9.23
		c-2.37,6.12-6.61,10.67-12.47,13.63c-6.04,3.05-12.52,4.71-19.19,5.42c-6.58,0.7-9.46-1.41-11.36-7.75
		c-1.45-4.84-1.8-9.85-2.12-14.85c-0.25-3.85-0.3-7.71-0.34-11.87c2.24-0.23,4.36-0.14,6.48-0.83c1.16-0.37,2.51-0.16,3.78-0.18
		c2.16-0.02,4.31-0.02,7.01,0.16c1.92,3.06,2.96,3.56,5.49,2.11c1.41-0.81,2.72-1.91,3.84-3.11c1.94-2.09,3.15-4.64,3.84-7.42
		C423.43,344.46,423.68,343.61,423.92,342.75z"/>
	<path class="slpdsccn_st3" d="M686.47,207.06c-0.86,0.56-1.66,0.65-2.31,1.02c-4.34,2.48-8.54,5.22-12.98,7.5
		c-6.96,3.57-13.72,7.6-21.34,9.75c-2.98,0.84-5.91,1.59-9.06,1.46c-3.08-0.13-6.17-0.04-9.26-0.02c-2.56,0.02-5.13-0.21-7.64,0.65
		c-0.81,0.28-1.79,0.07-3.02,0.09c-0.72-9.79,3.03-17.82,10.25-24.25c2-1.78,4.33-3.24,6.62-4.64c1.18-0.72,2.59-1.12,3.96-1.44
		c2.79-0.67,5.16,0.25,6.8,2.53c1.12,1.55,1.89,3.35,2.81,5.04c0.54,0.98,0.63,2.29,1.98,2.67c1.12-0.39,1.48-1.4,1.87-2.34
		c0.88-2.14,1.66-4.32,2.52-6.48c1.71-4.32,3.61-8.54,6.35-12.33c3.05-4.22,7.03-7.16,12.05-8.54c1.47-0.4,3.04-0.56,4.56-0.57
		c2.56-0.03,4.5,1.25,5.5,3.56c0.7,1.63,1.11,3.42,1.42,5.17c0.22,1.25,0.14,2.57,0.07,3.86
		C687.31,195.41,686.95,201.06,686.47,207.06z"/>
	<path class="slpdsccn_st5" d="M830.58,335.55c-2.37-0.59-4.92-2.81-7.08-3.94c-1.93-1.02-3.92-1.95-5.8-3.05
		c-5.57-3.25-9.37-8.01-11.39-14.09c-2.05-6.16-3.11-12.48-1.89-18.99c2.01-10.73,11.7-17.42,22.49-15.64
		c4.29,0.71,8.15,2.34,11.56,4.99c5.68,4.4,9.53,10.03,11.23,17.06c0.62,2.56,0.56,5.1-0.33,7.6c-1.02,2.87-2.87,4.89-6,5.36
		c-3.36,0.5-6.11-0.66-7.96-3.55c-0.83-1.29-1.42-2.73-2.12-4.11c-0.53-1.03-1-2.09-1.61-3.06c-0.76-1.19-1.93-1.66-3.33-1.45
		c-1.43,0.21-2.29,1.11-2.73,2.42c-1.18,3.54-0.3,6.57,2.73,8.87c1.84,1.4,3.81,2.63,5.73,3.92c2.89,1.94,5.67,4.01,8.09,6.54
		c2.98,3.1,5.75,8.24,6.73,12.68c-1.34,0.29-2.85-1.13-3.77-1.43c-2.61-0.86-5.27-0.61-7.93-0.64
		C834.79,335,832.93,336.13,830.58,335.55z"/>
	<path class="slpdsccn_st1" d="M225.78,289.57c0.14,2.04,1.09,5.02,2.54,6.39c1.59,1.5,3.2,2.99,4.83,4.44c3.95,3.51,7.84,7.07,11.04,11.31
		c7.16,9.48,9.42,20.12,7.33,31.73c-0.29,1.62-0.86,3.24-1.55,4.74c-1.86,4.01-5.14,6.02-9.51,6.09c-1.78,0.03-3.62-0.2-5.33-0.65
		c-14.63-3.9-23.82-13.18-27.21-27.99c-0.9-3.94-0.56-7.94,0.32-11.87c0.11-0.5,0.3-0.98,0.52-1.45c1.17-2.57,2.99-3.42,5.64-2.51
		c3.2,1.09,5.61,3.18,6.9,6.33c0.73,1.77,1.13,3.68,1.68,5.52c0.48,1.6,0.85,3.24,1.45,4.79c0.63,1.62,1.78,2.82,3.54,3.28
		c1.57,0.4,2.85-0.07,3.62-1.47c1.42-2.59,1.47-5.44,1.25-8.28c-0.16-2.05-1.39-3.58-2.86-4.87c-1.55-1.36-3.2-2.59-4.8-3.88
		c-2.52-2-5.12-3.91-7.53-6.03c-3.82-3.34-7.17-8.44-8.9-13.46c5.03-1.76,10.2-1.08,15.14-0.78
		C224.51,290.97,225.15,289.58,225.78,289.57z"/>
	<path class="slpdsccn_st6" d="M256.23,213.09c0.13,0.75,0.45,2.74,0.49,3.49c0.35,7.46,0.66,14.92,1,22.38c0.22,4.76,0.52,9.51,0.69,14.27
		c0.06,1.53-0.01,3.11-0.32,4.6c-0.61,2.87-2,3.9-4.88,3.9c-2.77,0-5.35-0.75-7.74-2.12c-3.06-1.75-4.4-4.63-4.77-7.97
		c-0.36-3.33-0.47-6.68-0.75-10.01c-0.23-2.69-0.48-5.38-0.86-8.06c-0.16-1.13-0.57-2.24-1-3.31c-0.41-0.98-1.19-1.65-2.26-1.94
		c-1.29-0.35-2.48,0.08-2.79,1.33c-0.4,1.61-0.73,3.28-0.77,4.93c-0.08,3.73,0.06,7.47,0.07,11.2c0,1.8,0.05,3.62-0.2,5.39
		c-0.43,3.09-2.32,4.45-5.43,4.05c-1.14-0.14-2.27-0.46-3.38-0.78c-4.95-1.43-7.98-4.51-8.4-9.83c-0.1-1.28-0.33-2.56-0.36-3.84
		c-0.25-10.94,0.04-21.68-0.16-32.62c-0.03-1.54-0.01-5.25,0.42-6.97c0.96,0.67,1.18,3.42,1.68,4.3c1.39,2.46,3.25,4.13,6.19,4.62
		c1.42,0.24,2.72,0.46,4.13,0.03c0.84-0.26,1.76-0.36,2.64-0.37c3.85-0.04,7.7-0.03,11.55-0.01c0.76,0,1.55,0.04,2.28,0.23
		c3.59,0.94,7.19,1.83,10.51,3.58C254.57,213.97,255.38,212.84,256.23,213.09z"/>
	<path class="slpdsccn_st3" d="M486.83,204.3c-0.02-0.13-0.07-0.25-0.07-0.38c-0.01-9.67,0.41-19.31,2.13-28.85
		c0.05-0.25,0.08-0.51,0.13-0.76c1.43-7.77,5.75-12.95,13.32-15.57c5.02-1.74,10.08-3.11,15.36-3.65c2.45-0.25,4.89-0.23,7.29,0.45
		c3.12,0.88,4.33,2.33,4.32,5.49c0,4.01-0.37,7.96-1.61,11.82c-1.38,4.31-4.06,7.41-8.26,9.13c-1.42,0.58-2.89,1.08-4.37,1.5
		c-1.48,0.42-3.02,0.65-4.51,1.05c-3.37,0.9-5.18,3.44-4.93,6.83c0.11,1.52,0.94,2.41,2.49,2.34c1.27-0.06,2.56-0.29,3.79-0.62
		c1.36-0.37,2.67-0.95,4-1.42c0.97-0.35,1.93-0.74,2.92-0.99c3.38-0.85,4.91,0.17,5.02,3.73c0.09,2.82-0.24,5.64-0.78,8.87
		c-0.87,0.82-1.38,1.22-1.84,1.66c-2.21,2.12-3.9,4.74-6.46,6.53c-0.55,0.39-0.35,1.17-0.71,1.83c0.05,0.02-0.33,0.33-0.81,0.51
		c-0.51,0.18-0.75,0.22-0.82,0.25c-0.47,0.19-0.53,0.16-1.17,0.32c-0.63,0.16-2.33,0.47-3.16,0.56c-0.9-0.45-1.01-0.79-1.48-0.93
		c-3.34-1.01-6.26-2.83-9.18-4.68c-2.15-1.36-4.32-2.73-6.59-3.88C489.63,204.81,488.18,204.66,486.83,204.3z"/>
	<path class="slpdsccn_st3" d="M379.73,235.7c-0.13-0.88-0.23-3.24-0.27-4.2c-0.48-11.28-0.86-21.75-0.29-32.82c0.2-3.84,0.8-7.68,1.52-11.47
		c1.24-6.59,5.21-10.43,11.99-11.21c6.72-0.77,13.38-0.64,19.91,1.33c2.22,0.67,4.38,1.54,6.25,2.97c2.29,1.75,3.57,3.98,3.52,6.94
		c-0.06,3.88-0.33,7.73-1.43,11.47c-1.41,4.79-3.87,6.84-8.8,7.3c-1.66,0.15-3.34,0.05-5.01,0.01c-1.67-0.05-3.34-0.2-5.02-0.26
		c-1.63-0.06-2.65,0.84-3.28,2.24c-0.61,1.35-0.62,2.76-0.28,4.16c0.26,1.07,1.01,1.86,2.02,2.18c1.21,0.38,2.49,0.68,3.75,0.75
		c1.67,0.1,3.35-0.08,5.02-0.08c1.29-0.01,2.58-0.02,3.86,0.12c1.99,0.21,3.33,1.35,3.85,3.28c0.33,1.24,0.54,2.52,0.65,3.79
		c0.1,1.28-0.3,3.58-0.44,5.09c-2.3-0.65-4.13-2.59-6.13-3.45c-4.88-2.1-9.95-2.52-14.96-0.78c-3.76,1.31-7.19,3.35-9.98,6.31
		c-1.23,1.31-2.55,2.53-3.8,3.82C381.63,233.92,380.84,235.68,379.73,235.7z"/>
	<path class="slpdsccn_st5" d="M747.6,313.19c-2.07,0.1-3.99,0.31-5.86-0.43c-0.79-0.31-1.77-0.16-2.66-0.16c-4.61-0.01-9.23-0.22-13.82,0.05
		c-5.58,0.33-11.13,1.19-16.49,2.89c-3.28,1.04-6.53,2.17-9.8,3.21c-1.08,0.34-2.22,0.52-3.61,0.77c-0.64-4.87-0.99-9.73-1.34-14.6
		c-0.19-2.56-0.32-5.13-0.56-7.69c-0.28-2.98,0-5.93,0.61-8.82c1.53-7.2,6.67-12.03,14.06-12.87c9.95-1.14,19.49,0.49,28.36,5.25
		c2.13,1.14,4.12,2.64,5.92,4.25c3.26,2.92,5.21,6.64,5.84,11.01C749.07,301.71,748.78,307.33,747.6,313.19z M716.51,293.95
		c-1.27,3.34-0.67,6.63,0.64,9.73c1.67,3.94,8.04,4.61,10.7,1.23c0.52-0.67,0.96-1.62,0.95-2.44c-0.02-1.9-0.14-3.85-0.59-5.68
		c-0.59-2.37-2.14-4.12-4.59-4.74C721.19,291.44,718.77,291.34,716.51,293.95z"/>
	<path class="slpdsccn_st4" d="M713.54,118c-0.8,5.72-2.03,11.14-4.26,16.05c-6.27,13.82-17.07,22.23-31.71,25.69
		c-7.25,1.72-12.87-1.15-16.35-7.72c-2.14-4.05-3.17-8.43-3.51-12.93c-0.73-9.67,0.22-19.66,3.41-29.27
		c4.55,0.19,8.07,2.04,11.5,4.27c1.07,0.69,2.14,0.71,3.55,0.83c-0.58,2.09-0.24,5.04,0.13,6.88c0.77,3.84,3.94,5.73,7.77,4.83
		c1.23-0.29,3.13-0.61,4.09-1.29c1.85,1.52,3.72,1.61,5.67,1.1c2.11-0.54,3.87-0.84,5.82-1.89c2.71-1.46,5.47-2.86,8.28-4.13
		C709.65,119.63,711.73,118.62,713.54,118z"/>
	<path class="slpdsccn_st4" d="M297.74,324.11c-0.04,6.69,0.06,13.8-0.16,20.49c-0.18,5.53-0.6,13.05-2.01,18.44
		c-0.58,2.22-1.34,4.45-2.36,6.5c-1.67,3.34-4.58,4.77-8.29,4.44c-1.4-0.13-2.81-0.4-4.17-0.77c-3.37-0.91-6.55-2.31-9.62-3.98
		c-5.55-3.01-9.6-7.4-11.79-13.3c-1.3-3.48-2.34-7.1-3.05-10.75c-1.42-7.21-2.05-14.53-2.09-22.17c6,2.05,11.83,3.3,17.99,2.71
		c0.32,1.75,0.56,3.53,0.99,5.25c0.27,1.09,0.73,2.17,1.28,3.16c0.46,0.83,1.34,1.17,2.31,1.02c0.88-0.14,1.17-0.64,1.55-1.3
		c0.6-1.01,0.79-2.14,0.94-3.53c0.1-0.92,0.22-3.67,0.37-5c3.39-0.28,6.41,0.07,9.26,0.59
		C291.82,326.45,294.81,324.09,297.74,324.11z"/>
	<path class="slpdsccn_st4" d="M758.28,193.9c-0.77,4.43-3.68,8.21-8.1,9.05c-2.53,0.48-5.06,0.95-7.57,1.47c-3.47,0.73-5.75,5.11-4.41,8.41
		c0.47,1.16,1.51,1.76,2.8,1.46c1.12-0.26,2.21-0.67,3.3-1.06c2.06-0.74,4.07-1.63,6.17-2.22c1.59-0.44,3.28-0.65,4.93-0.7
		c2.48-0.06,4.08,1.32,4.95,3.58c0.18,0.48,0.36,0.97,0.46,1.47c0.71,3.71,0.6,7.44,0.1,11.15c-0.33,2.43-1.89,4.25-3.99,5.42
		c-1.79,1-3.67,1.89-5.61,2.53c-6.97,2.31-14.15,3.83-21.34,5.27c-1.74,0.35-3.59,0.29-5.38,0.25c-2.57-0.05-4.4-1.41-5.39-3.72
		c-0.6-1.4-1.09-2.9-1.32-4.41c-0.38-2.54-0.64-5.11-0.71-7.68c-0.23-8.76,0.69-14.5,1.39-23.22c0.14-1.8,0.52-7.61,1-10.12
		c1.99-0.46,3.2,0.77,4.72,0.66c3.3-0.24,6.51-1.23,9.86-1.1c2.8,0.1,5.57,0.12,8.37,0.65c3.89,0.74,7.74,1.45,11.42,2.99
		C755.18,194.57,756.92,193.58,758.28,193.9z"/>
	<path class="slpdsccn_st4" d="M862.88,100.68c0.03,5.43-0.69,10.77-2.23,15.98c-0.4,1.35-0.94,2.67-1.54,3.95
		c-2.53,5.38-6.83,8.3-12.71,8.67c-3.46,0.22-6.96,0.17-10.42-0.06c-4.49-0.3-8.96-0.89-13.44-1.36c-0.13-0.01-0.26-0.03-0.38-0.05
		c-6.8-1.04-9.67-3.81-10.77-10.64c-0.43-2.66-0.69-5.37-0.72-8.06c-0.07-6.18,0.15-13.91,0.58-20.44c2.22-0.76,3.96,0.39,5.8-0.01
		c4.31-0.94,8.79-3.42,13.24-2.84c-1.03,4.5-1.06,10.09-0.98,14.32c0.01,0.64,0.11,1.28,0.27,1.9c0.58,2.25,1.84,3.3,4.16,3.18
		c3.51-0.18,6.48-1.58,8.56-4.5c2.15-3.02,2.17-6.27,0.09-9.34c-0.71-1.05-2.07-2.64-2.54-3.66c2.3-0.02,4.59,1.37,6.34,2.16
		c5.43,2.44,10.24,5.83,14.76,9.66C861.5,100.01,862.23,100.3,862.88,100.68z"/>
	<path class="slpdsccn_st3" d="M888.25,182.55c-1.59-0.18-3.04-0.3-4.31-0.84c-3.7-1.56-7.61-2.15-11.47-3.06c-3.2-0.75-7.04-0.05-10.38-1.05
		c1.09-1.01,2.04-1.37,2.91-2.3c0.57-0.62,2.48-1.92,2.1-3.03c-0.47-1.36-4.04-1.73-5.12-2.02c-4.97-1.32-8.52-1.73-13.48-3.09
		c-2.35-0.65-4.68-1.43-6.95-2.32c-4.13-1.61-6.46-4.71-6.53-9.13c-0.05-3.2,0.25-6.42,0.65-9.6c0.28-2.21,1.78-3.75,3.93-4.33
		c1.72-0.47,3.52-0.75,5.3-0.85c4.66-0.25,9.24,0.57,13.77,1.55c7.31,1.58,14.46,3.68,21.24,6.89c2.43,1.15,4.78,2.51,7.06,3.96
		c5.16,3.29,7.15,8.13,6.95,14.15C893.72,173.09,892.01,178.06,888.25,182.55z"/>
	<path class="slpdsccn_st4" d="M379.66,234.91c1.18-0.37,1.97-1,2.71-1.75c1.26-1.28,2.57-2.51,3.8-3.82c2.79-2.97,6.22-5.01,9.98-6.31
		c5.02-1.74,10.08-1.31,14.96,0.78c2,0.86,4.03,1.77,6.25,2.76c-0.11,2.12-0.18,4.22-0.87,6.16c-0.7,1.97-2.1,3.24-4.18,3.59
		c-1.39,0.23-2.8,0.34-4.21,0.39c-1.8,0.07-3.6,0.04-5.41,0.04c-1.19,0-1.97,0.67-2.34,1.69c-0.77,2.11-0.96,4.27-0.09,6.41
		c0.63,1.55,1.64,2.22,3.3,2.09c1.14-0.09,2.27-0.41,3.4-0.63c2.27-0.45,4.52-1.1,6.81-1.33c3.92-0.38,6.44,1.22,7.8,4.91
		c1.58,4.3,1.88,8.8,1.51,13.32c-0.2,2.5-1.86,4.15-4.04,5.29c-2.31,1.21-4.82,1.89-7.36,2.19c-4.85,0.57-9.73,0.95-14.6,1.28
		c-1.52,0.1-3.08-0.14-4.61-0.31c-3.91-0.43-6.66-2.5-8.33-6.04c-1.45-3.06-2.17-6.31-2.7-9.62
		C380.34,249.14,379.89,242.21,379.66,234.91z"/>
	<path class="slpdsccn_st3" d="M895.02,188.08c0.43-6.46,1.66-12.78,4.23-18.73c2.64-6.13,6.51-7.69,12.79-5.41
		c4.89,1.77,9.32,4.37,13.29,7.73c4.16,3.52,6.82,8,8.3,13.22c1.41,4.98,1.99,10.1,2.34,15.25c0.89,13,0.66,27.25,0.26,40.59
		c-2.1-0.34-3.09-3.09-4.19-4.45c-4.09-5.09-7.52-10.65-11-16.16c-3.28-5.19-6.38-10.51-9.81-15.6c-3-4.46-6.29-8.73-10.32-12.34
		C899.14,190.58,897.43,188.81,895.02,188.08z M911.46,188.17c-0.67,3.89,0.7,7.1,3.59,9.58c1.42,1.22,3.19,2.1,4.9,2.91
		c1.71,0.81,2.66,0.27,3.18-1.46c1.7-5.62-1.64-12.35-7.18-14.45c-1.79-0.68-2.77-0.35-3.83,1.39
		C911.87,186.56,911.78,187.09,911.46,188.17z"/>
	<path class="slpdsccn_st5" d="M713.49,118.24c-1.96,0.9-3.83,1.39-5.57,2.18c-2.81,1.27-5.56,2.67-8.28,4.13c-1.95,1.05-4.02,1.66-6.13,2.2
		c-1.95,0.5-3.82,0.42-5.52-1.31c5.74-4.29,7.35-10.05,6.97-16.48c-0.26-4.37-3.03-6.07-7.2-4.81c-3.12,0.94-5.8,2.63-8.03,5.03
		c-1.69,1.82-2.72,4-3.7,6.23c-1.4,0.22-2.37-0.62-3.43-1.31c-3.43-2.22-7.16-3.66-11.56-4.11c3.05-13.09,10.57-22.77,22.99-28.42
		c3.05-1.39,6.23-2.39,9.55-2.92c7.61-1.23,13.94,1.78,17.37,9.01c1.56,3.29,2.46,6.77,2.89,10.34
		C714.67,104.65,714.64,111.32,713.49,118.24z"/>
	<path class="slpdsccn_st6" d="M830.09,335.3c2.28-0.27,4.7-0.3,7.11-0.27c2.65,0.03,5.31-0.22,7.93,0.64c0.92,0.3,2.02,0.08,3.4,0.08
		c1.65,2.3,1.9,4.9,2.14,7.44c0.54,5.68,0.34,11.35-1.33,16.85c-0.74,2.44-1.74,4.86-3,7.08c-2.45,4.31-6.19,7.23-10.91,8.73
		c-4.48,1.43-9.08,1.87-13.73,0.91c-4.63-0.95-8.3-3.4-11.09-7.17c-3.72-5.02-5.55-10.75-5.75-16.93c-0.13-3.85,0.13-7.73,1.11-11.5
		c0.29-1.11,0.64-2.24,1.16-3.26c2.09-4.12,6.84-5,10.4-2c1.53,1.3,2.46,2.98,2.98,4.87c0.45,1.61,0.67,3.28,1.07,4.9
		c0.37,1.49,0.7,3.02,1.3,4.43c1.2,2.86,4.61,2.53,6.05,0.76c0.56-0.69,1.05-1.48,1.39-2.3c1.39-3.29,1.57-6.76,1.22-10.25
		C831.44,337.35,830.68,336.48,830.09,335.3z"/>
	<path class="slpdsccn_st5" d="M328.29,346.8c-0.08-0.51-0.11-2.87-0.12-3.38c-0.17-10.03-0.53-19.95-0.56-29.98
		c-0.01-4.88,0.11-9.78,1.17-14.58c0.33-1.49,0.81-2.98,1.41-4.38c1.03-2.39,2.89-3.91,5.48-4.4c5.29-1.01,10.56-0.73,15.56,1.2
		c5.54,2.14,8.44,6.56,9.15,12.36c0.39,3.2,0.33,6.44-0.59,9.57c-0.36,1.22-0.86,2.42-1.52,3.51c-0.77,1.27-2.02,1.96-3.55,1.96
		c-1.41,0-2.83-0.09-4.24-0.04c-3.61,0.13-5.07,1.33-5.88,4.87c-0.25,1.12-0.4,2.29-0.39,3.44c0.04,7.33,0.07,14.65,0.25,21.98
		c0.05,1.9,0.51,3.82,0.99,5.68c0.74,2.85,2.57,4.7,5.53,5.27c1.38,0.27,2.78,0.58,4.18,0.64c2.36,0.11,3.84,1.33,4.67,3.41
		c0.47,1.19,0.84,3.48,0.87,5.03c-3.86-0.08-6.98-2.74-9.89-4.61c-4.62-2.97-8.6-6.75-12.67-10.4c-2.56-2.3-4.9-4.86-7.35-7.29
		C330.08,345.93,329.43,346.84,328.29,346.8z"/>
	<path class="slpdsccn_st2" d="M895.1,187.02c2.54,0.44,4.04,3.55,5.83,5.15c4.03,3.61,7.32,7.88,10.32,12.34c3.43,5.09,6.53,10.41,9.81,15.6
		c3.48,5.51,6.91,11.07,11,16.16c1.09,1.36,2.19,2.87,4.23,3.56c0.26,3.76,0.33,7.49,0.24,11.22c-0.03,1.26-0.34,2.56-0.74,3.77
		c-0.49,1.49-1.63,2.3-3.25,2.22c-0.89-0.05-1.85-0.05-2.66-0.39c-2.13-0.89-4.29-1.78-6.26-2.96c-2.96-1.76-4.51-4.53-4.74-7.96
		c-0.13-1.92-0.06-3.86-0.13-5.79c-0.14-3.6-0.28-7.2-0.53-10.79c-0.08-1.13-0.43-2.27-0.81-3.35c-0.5-1.42-1.6-2.3-3.01-2.78
		c-0.92-0.31-1.92,0.02-2.26,0.94c-0.43,1.19-0.85,2.45-0.95,3.7c-0.31,3.85-0.44,7.71-0.71,11.56c-0.11,1.53-0.21,3.1-0.62,4.56
		c-0.66,2.33-1.92,3.27-4.25,3.08c-4.06-0.33-7.78-1.69-10.93-4.34c-1.64-1.38-2.49-3.26-2.77-5.37c-0.14-1.02-0.24-2.06-0.2-3.08
		c0.2-6.56,0.37-13.12,0.69-19.68c0.24-4.88,0.62-9.76,1.07-14.63C893.77,196.05,894.52,191.01,895.1,187.02z"/>
	<path class="slpdsccn_st5" d="M758.1,194.76c-1.49-0.04-2.92-0.18-4.19-0.71c-3.68-1.54-7.52-2.25-11.42-2.99
		c-2.81-0.53-5.57-0.55-8.37-0.65c-3.35-0.12-6.56,0.87-9.86,1.1c-1.52,0.11-3.03,0.33-4.92,0.51c-0.01-6.8,0.99-13.53,2.5-20.18
		c0.4-1.75,0.96-3.47,1.55-5.17c2.08-6.04,6.02-10.35,11.94-12.88c7.29-3.12,14.81-5.17,22.79-5.03c2.03,0.04,4.12,0.35,6.07,0.93
		c3.17,0.93,4.31,2.82,3.91,6.12c-0.44,3.58-1.25,7.08-2.72,10.4c-1.71,3.87-4.55,6.55-8.58,7.77c-2.57,0.77-5.25,1.19-7.89,1.72
		c-1.51,0.3-3.06,0.41-4.56,0.77c-2.61,0.63-4.39,2.82-4.67,5.5c-0.13,1.3,0.51,2.32,1.79,2.56c0.86,0.16,1.8,0.21,2.66,0.05
		c2.4-0.42,4.77-1.04,7.17-1.45c1.63-0.28,3.31-0.47,4.96-0.46c1.53,0.01,2.34,0.81,2.69,2.3c0.2,0.87,0.38,1.8,0.29,2.67
		C758.97,189.92,758.57,192.2,758.1,194.76z"/>
	<path class="slpdsccn_st3" d="M865.33,103.74c-0.07-0.38-0.22-0.76-0.21-1.13c0.4-8.87,0.74-17.75,1.29-26.61c0.16-2.54,0.73-5.11,1.51-7.54
		c1.22-3.8,3.24-5.02,7.25-5c2.61,0.02,5.09,0.7,7.56,1.41c5.5,1.57,10.54,4.09,15.21,7.37c0.74,0.52,1.46,1.06,2.14,1.65
		c6.55,5.7,6.02,8.32,4.72,15.41c-0.09,0.5-0.32,0.98-0.53,1.45c-1.09,2.39-2.76,3.35-5.28,2.74c-1.74-0.42-3.43-1.1-5.08-1.79
		c-1.42-0.59-2.77-1.36-4.16-2.04c-0.81-0.4-1.6-0.83-2.44-1.15c-0.99-0.38-2.09-0.55-2.89,0.3c-0.84,0.89-1.04,2.02-0.63,3.24
		c0.44,1.3,1.32,2.24,2.47,2.85c1.81,0.97,3.69,1.81,5.55,2.68c1.51,0.71,3.07,1.32,4.55,2.1c2.74,1.46,4.14,3.78,4.1,6.91
		c-0.01,1.16-0.28,2.83-0.76,4.32c-5.18,0.34-9.72-0.16-14.46-0.16c-0.77,0-1.55,0.05-2.3-0.09c-5.43-1.04-10.71-2.44-15.22-5.88
		C867.05,104.28,866.13,104.08,865.33,103.74z"/>
	<path class="slpdsccn_st3" d="M304.97,420.9c-1.41-0.04-2.65-0.37-3.99-1.03c-4.35-2.14-8.87-3.97-13.34-5.87
		c-0.44-0.19-1.01-0.09-1.84-0.12c-0.6-5.53,0.74-10.71,3.38-15.52c2.75-5.01,7.07-7.64,12.83-7.82c8.21-0.26,15.03,2.77,20.59,8.72
		c3.82,4.09,6.48,8.9,8.66,14.01c3.4,7.96,5.42,16.3,6.86,24.79c0.34,2.02,0.58,4.06,0.84,6.43c-1.08,0.38-2,0.17-2.89-0.5
		c-2.93-2.23-5.87-4.46-8.89-6.56c-2.07-1.44-3.77-3.46-6.73-4.45c-0.93-2.14-1.32-4.04-2.03-5.83
		C316.41,422.02,311.07,418.51,304.97,420.9z"/>
	<path class="slpdsccn_st3" d="M862.86,101.39c-0.73-0.06-1.36-1.38-1.92-1.86c-4.52-3.83-9.33-7.22-14.76-9.66
		c-1.75-0.79-3.53-1.56-6.08-1.63c-1.99-0.91-3.38-1.82-4.86-2.53c-1.94-0.92-3.72-0.56-5.14,1.13c-4.47-0.26-8.75,0.88-13.06,1.82
		c-1.84,0.4-3.68,0.8-5.82,1.21c-0.31-2.18-0.42-4.37-0.29-6.55c0.34-5.64,0.17-11.33,1.26-16.92c0.37-1.88,0.89-3.76,1.6-5.53
		c1.08-2.68,3.18-4.41,6.01-4.95c8.13-1.57,15.88-0.82,22.84,4.16c2.63,1.88,4.99,4.07,7.04,6.56c7.22,8.73,11.74,18.67,13.19,29.94
		C863.01,97.72,862.89,99.91,862.86,101.39z"/>
	<path class="slpdsccn_st5" d="M256.39,213.98c-0.9,0.11-1.82-0.01-2.59-0.41c-3.32-1.75-6.92-2.64-10.51-3.58
		c-0.73-0.19-1.52-0.23-2.28-0.23c-3.85-0.02-7.7-0.03-11.55,0.01c-0.88,0.01-1.8,0.11-2.64,0.37c-1.41,0.44-2.71,0.21-4.13-0.03
		c-2.94-0.49-4.79-2.16-6.19-4.62c-0.5-0.88-1.14-1.67-1.95-2.62c-0.6-7.74-0.03-15.29,1.83-22.7c0.56-2.21,1.52-4.38,2.62-6.39
		c1.56-2.86,4.13-4.55,7.35-5.11c6-1.06,11.81-0.22,17.38,2.1c3.76,1.57,6.14,4.57,7.74,8.24c1.71,3.93,2.53,8.09,3.13,12.3
		C255.66,198.71,256.14,206.16,256.39,213.98z M234.24,201.25c1.58,0.48,3.13,1.12,4.74,1.38c1.8,0.3,3.03-0.64,3.17-2.49
		c0.15-2.02,0.22-4.12-0.16-6.1c-0.7-3.63-3.14-5.75-6.73-6.51c-2.33-0.5-4.01,0.48-4.71,2.81
		C229.28,194.56,230.15,198.17,234.24,201.25z"/>
	<path class="slpdsccn_st2" d="M486.74,202.9c1.44,0,2.89,1.91,4.11,2.52c2.27,1.15,4.43,2.51,6.59,3.88c2.92,1.85,5.83,3.67,9.18,4.68
		c0.48,0.14,0.9,0.48,1.5,0.95c-1.73,2.03-2.41,4.33-2.42,6.85c-0.01,0.88,0.2,1.79,0.49,2.62c0.37,1.05,1.48,1.56,2.5,1.14
		c1.18-0.49,2.32-1.09,3.43-1.72c2.13-1.2,4.17-2.55,6.35-3.64c1.24-0.62,2.64-0.99,4.02-1.21c1.85-0.3,3.25,0.59,4.08,2.25
		c0.34,0.69,0.65,1.42,0.79,2.17c0.62,3.42,0.96,6.87,0.63,10.36c-0.26,2.66-1.34,5-3.26,6.82c-1.67,1.58-3.47,3.08-5.39,4.33
		c-5.85,3.79-12.2,6.6-18.79,8.83c-1.56,0.53-3.25,0.76-4.9,0.93c-2.92,0.3-4.9-1.13-6.14-3.71c-1.24-2.59-1.84-5.36-2.07-8.18
		c-0.38-4.61-0.76-9.23-0.82-13.84C486.5,220.95,486.63,211.22,486.74,202.9z"/>
	<path class="slpdsccn_st5" d="M370.52,364.97c-0.79-13.51-0.72-28.37-0.58-41.89c0.01-1.41,0-2.82,0-4.11c-1.24-0.95-2.61-1.6-3.35-2.68
		c-0.92-1.34-1.58-2.98-1.9-4.59c-0.79-3.92-1.11-7.92-0.74-11.92c0.52-5.54,2.42-7.53,7.92-8.14c3.07-0.34,6.16-0.46,9.25-0.57
		c1.14-0.04,2.31,0.17,3.43,0.4c2.19,0.46,3.63,1.87,4.48,3.88c0.35,0.82,0.65,1.7,0.78,2.58c0.68,4.6,1.06,9.22,0.27,13.85
		c-0.13,0.76-0.26,1.53-0.52,2.25c-0.46,1.27-1.28,2.2-2.72,2.47c-0.99,0.18-1.96,0.48-2.67,0.66c-0.29,1.09-0.06,7.67-0.04,8.81
		c0.18,11.23,0.75,20.09,0.75,32.2c-3.68,2.18-7.02,2.14-10.4,3.87C373.24,362.68,371.8,364.45,370.52,364.97z"/>
	<path class="slpdsccn_st5" d="M663.67,338.76c0.3-3.2,0.72-7.85,1.11-11.04c0.55-4.47,1.26-8.92,1.86-13.39c0.2-1.5,0.45-3.02,0.2-4.48
		c-1.12-0.73-2.16-0.27-3.15-0.29c-4.47-0.11-7.35-2.27-8.29-6.61c-0.77-3.54-0.9-7.16-0.16-10.75c0.49-2.35,1.68-4.33,3.6-5.77
		c1.02-0.77,2.12-1.48,3.29-2c5.93-2.65,12.14-4.27,18.65-4.51c6.08-0.23,8.44,1.66,9.63,7.62c0.38,1.88,0.5,3.83,0.51,5.75
		c0.01,5.31-2.58,9.02-7.27,11.34c-0.9,0.45-1.84,0.84-2.85,1.29c0.19,3.51,1.64,6.58,2.36,9.81c0.7,3.14,1.49,6.25,1.93,9.69
		c-1.73,0.86-3.25,1.23-4.53,2c-4.47,2.69-8.83,5.54-13.27,8.28C666.22,336.36,664.8,338.23,663.67,338.76z"/>
	<path class="slpdsccn_st6" d="M663.78,337.63c1.23-0.85,2.44-1.27,3.5-1.93c4.44-2.73,8.81-5.59,13.27-8.28c1.28-0.77,2.8-1.66,4.5-2.21
		c1.06,3.31,1.83,6.47,2.35,9.49c1.36,8.01,2.17,16.09,1.69,24.21c-0.24,4.1-0.84,8.18-1.48,12.24c-0.4,2.54-1.38,4.95-2.71,7.19
		c-2.69,4.53-6.93,6.41-11.94,6.63c-2.93,0.13-5.15-1.4-6.61-3.95c-1.43-2.5-2.16-5.24-2.56-8.05c-0.43-3.05-0.76-6.13-0.9-9.21
		C662.49,355.15,662.68,346.54,663.78,337.63z"/>
	<path class="slpdsccn_st4" d="M199.25,180.91c-0.37,1.75-1.1,5.27-1.53,7.01c-2.22,9.12-2.51,18.32-1.24,27.59c0.1,0.76,0.27,1.52,0.47,2.26
		c0.71,2.53,2.27,4.31,4.78,5.14c1.58,0.52,3.19,1.04,4.83,1.33c2.27,0.41,3.63,1.79,4.54,3.77c0.32,0.7,0.6,1.43,0.8,2.17
		c0.91,3.38,1.23,6.84,1.02,10.33c-0.29,4.86-3.24,7.8-8.08,8.17c-0.89,0.07-1.8,0-2.69-0.1c-3.35-0.36-6.54-1.35-9.68-2.51
		c-3.98-1.48-6.69-4.25-8.14-8.23c-1.43-3.9-2.08-7.95-2.44-12.07c-1.12-12.84-1.3-28.8-0.54-42c1.94-0.29,3.29,2.52,4.68,1.59
		c2.9-1.93,6.15-3.02,9.74-2.7C196.79,182.76,198.23,180.92,199.25,180.91z"/>
	<path class="slpdsccn_st1" d="M657.35,109.7c-0.38,1.23-1.73,2.18-2.75,2.74c-0.79,0.44-1.6,0.82-2.37,1.28c-1.09,0.64-1.66,1.58-1.49,2.89
		c1.32,10.39,0.44,20.82,0.58,31.23c0.01,0.89,0,1.78,0,2.86c0.93,0,1.65,0.06,2.35-0.01c1.66-0.18,2.22,0.07,2.56,1.48
		c0.21,0.87,0.4,1.78,0.35,2.66c-0.17,3.08-0.31,6.17-0.73,9.22c-0.37,2.75-1.74,5.1-3.92,6.89c-0.99,0.81-2,1.65-3.13,2.25
		c-4.43,2.34-8.91,4.6-13.39,6.84c-0.91,0.45-1.92,0.75-2.92,0.96c-1.79,0.37-2.98-0.45-3.41-2.25c-0.09-0.37-0.15-0.76-0.16-1.14
		c-0.09-3.86-0.16-7.71,0.68-11.52c0.57-2.59,1.42-4.95,3.86-6.39c0.97-0.57,1.4-1.47,1.45-2.57c0.03-0.64,0.05-1.29,0.06-1.93
		c0.1-9.9,0.08-19.81,0.95-29.69c0.08-0.88,0.04-1.79-0.07-2.67c-0.03-0.24-0.76-0.99-1.55-0.93c2.59-4.57,7.37-6.97,11.79-9.2
		C649.47,110.96,653.4,109.3,657.35,109.7z"/>
	<path class="slpdsccn_st6" d="M607.33,154.11c-0.08,1.55,0,3.8,0.12,5.33c0.15,1.79,0.25,3.6,0.6,5.36c0.49,2.44,1.8,3.21,4.24,2.45
		c1.58-0.49,3.07-1.3,4.58-2c1.17-0.54,2.26-1.25,3.46-1.72c1.49-0.59,2.9-0.03,3.55,1.43c0.47,1.04,0.82,2.19,0.96,3.32
		c0.66,5.13-0.07,9.99-2.82,14.48c-2.59,4.24-5.83,7.9-9.91,10.68c-3.18,2.17-6.56,4.07-9.93,5.93c-1.33,0.73-2.86,1.16-4.36,1.5
		c-1.97,0.45-3.63-0.32-4.54-2.1c-0.7-1.35-1.19-2.84-1.53-4.33c-1.12-4.93-1.06-9.99-1.06-14.99c0.01-9.01,0.42-18.85,1.02-28.21
		c3.26-0.51,5.93,0.29,8.61,1.08C602.63,153,604.99,153.56,607.33,154.11z"/>
	<path class="slpdsccn_st1" d="M269.17,408.01c-0.68,8.04,0.11,17.97,1.69,25.8c0.98,4.83,3.81,8.04,8.54,9.54c1.1,0.35,2.17,0.81,3.29,1.11
		c2.54,0.68,4.27,2.31,5.45,4.56c1.95,3.7,2.91,7.71,3.09,11.85c0.17,3.88-1.97,6.35-5.83,6.87c-1.37,0.18-2.83,0.06-4.2-0.19
		c-3.94-0.72-7.67-2.13-11.29-3.82c-4.64-2.16-7.89-5.63-9.94-10.31c-1.71-3.92-2.85-8.01-3.57-12.19
		c-1.24-7.22-1.71-11.9-2.75-19.16c-0.35-2.42-1.05-9.5-0.94-12.26c1.53-0.34,2.76,1.96,3.82,1.63c2.01-0.62,4.02-0.63,6.06-0.68
		c0.63-0.01,1.25-0.23,1.88-0.3C265.87,410.32,267.78,408.14,269.17,408.01z"/>
	<path class="slpdsccn_st4" d="M793.71,196.13c0.9-0.51,1.8-0.58,2.61-0.9c7.83-3.08,15.61-6.27,23.47-9.28c2.72-1.04,5.6-1.69,8.68-2.54
		c-0.16,4.84-0.57,9.71-1.03,14.58c-0.4,4.23-0.87,8.46-1.26,12.69c-0.31,3.37-1.08,6.61-2.52,9.67c-3.47,7.38-10.16,9.54-16.8,9.37
		c-1.73-0.04-3.2-0.87-4.46-2.07c-1.52-1.46-2.53-3.24-3.34-5.15c-1.56-3.7-2.43-7.6-3.1-11.54
		C795.15,206.13,794.44,201.29,793.71,196.13z"/>
	<path class="slpdsccn_st3" d="M481.02,318.75c-1.04,0.47-2.2,0.77-3.08,1.45c-1.45,1.11-2.76,0.98-4.27,0.23c-2.28-1.13-4.62-2.15-7.19-3.23
		c0.04-9.74,1.89-19.09,6.73-27.67c3.71-6.58,9.21-10.93,16.56-12.82c1.48-0.38,3.02-0.62,4.55-0.72c4.97-0.33,9.02,1.47,12.06,5.47
		c2.69,3.55,4.19,8.12,5.08,12.74c-0.85,0.58-1.68,0.37-2.53,0.6c-5.74,1.58-10.29,4.34-14.37,9.4c-2.38-0.27-4.69,0.23-6.41,1.11
		c-3.11,1.59-5.16,4.16-6.14,7.44C481.42,314.69,481.33,316.75,481.02,318.75z"/>
	<path class="slpdsccn_st5" d="M225.84,290.62c-0.69,0.31-1.32,0.36-1.95,0.32c-4.94-0.3-9.8,0.15-14.88,1.64c-2.79-4.78-3.5-9.99-3.64-15.29
		c-0.04-1.52,0.27-3.09,0.67-4.57c1.56-5.73,6.48-9.38,12.64-9.5c2.35-0.05,4.6,0.46,6.81,1.21c3.83,1.29,7.26,3.3,10.41,5.81
		c5.12,4.07,9.28,8.94,12.08,14.87c1.03,2.19,1.76,4.56,2.41,6.9c0.53,1.88,0.42,3.83-0.24,5.71c-1.08,3.09-3.42,4.53-6.61,3.9
		c-2.89-0.57-5.32-2-6.97-4.48c-0.92-1.38-1.65-2.9-2.41-4.39c-0.53-1.03-0.91-2.14-1.48-3.14c-0.44-0.77-0.98-1.55-1.66-2.1
		c-2.49-2.05-4.51-1.21-5.06,2.05C225.9,289.8,225.91,290.06,225.84,290.62z"/>
	<path class="slpdsccn_st1" d="M459.7,314.04c0.21,1.52,0.23,4.16,0.29,5.68c0.33,8.63,0.9,16.94,1.21,25.57c0.05,1.26-0.27,2.59,0.49,3.72
		c0.25,0.16,0.45,0.4,0.67,0.42c3.07,0.21,3.22,0.21,3.61,2.79c0.7,4.61,0.75,9.23-0.08,13.84c-0.48,2.71-1.9,4.77-4.18,6.21
		c-4.08,2.57-8.6,4.05-13.23,5.25c-0.25,0.06-0.51,0.07-0.77,0.1c-3.39,0.32-4.72-0.68-5.18-4.15c-0.63-4.75-0.63-9.52,0.08-14.26
		c0.3-2.06,0.84-4.06,3-5.09c1.07-0.51,1.34-1.49,1.29-2.59c-0.1-2.19-0.27-4.38-0.29-6.56c-0.09-9.02-0.13-19.48,0.18-28.86
		C451.21,314.31,455.3,313.65,459.7,314.04z"/>
	<path class="slpdsccn_st6" d="M370.24,454.89c5.64-1.9,11.44-3.01,17.09-4.71c3.19-0.96,6.27-2.25,9.43-3.31c1.57-0.53,3.21-0.86,5.12-1.29
		c0.79,3.03,1.35,6.05,1.77,9.1c0.74,5.34,1.37,10.69,2.11,16.03c0.38,2.72,0.19,5.4-0.47,8.02c-1.17,4.63-4.05,7.64-8.79,8.68
		c-1.13,0.25-2.27,0.43-3.42,0.53c-3.12,0.28-5.91-0.63-8.03-2.93c-1.64-1.78-3.22-3.7-4.41-5.79c-1.78-3.11-3.34-6.36-4.74-9.66
		C373.93,464.96,372.1,459.84,370.24,454.89z"/>
	<path class="slpdsccn_st1" d="M320.01,336.53c0.11,2.18,0.25,4.36,0.34,6.54c0.18,4.76,0.35,9.52,0.5,14.28c0.05,1.53,0.42,2.76,2.07,3.31
		c1.84,0.61,2.5,2.19,2.71,3.9c0.66,5.39,0.6,10.8,0.01,16.19c-0.08,0.75-0.37,1.5-0.64,2.22c-0.65,1.75-2,2.63-3.79,2.87
		c-0.63,0.08-1.3,0.11-1.92,0.01c-4.47-0.7-8.82-1.87-12.9-3.85c-3.27-1.59-5.04-4.27-5.42-7.9c-0.48-4.62-0.69-9.25-0.06-13.87
		c0.1-0.76,0.2-1.54,0.4-2.28c0.4-1.46,1.13-2.6,2.88-2.63c0.36-0.01,0.72-0.22,1.35-0.42c-0.2-8.18-0.31-17.64-0.14-26.21
		c1.24-0.16,2.08,1.1,2.85,1.49c3.07,1.57,6.09,3.25,9.12,4.89C318.25,335.55,319.13,336.04,320.01,336.53z"/>
	<path class="slpdsccn_st1" d="M865.09,102.12c0.94,0,1.95,2.15,2.63,2.67c4.51,3.44,9.8,4.84,15.22,5.88c0.75,0.14,1.53,0.09,2.3,0.09
		c4.74,0,9.49-0.32,14.58-0.34c-0.28,1.31-0.73,2.95-1.17,4.13c-0.63,1.69-1.18,2.23-3,1.79c-1.36-0.33-2.67-0.91-3.97-1.45
		c-1.9-0.79-3.75-1.7-5.66-2.47c-0.94-0.38-1.77,0.06-2.23,0.97c-1.57,3.18-0.19,6.73,3.1,7.85c1.22,0.41,2.49,0.66,3.73,0.99
		c0.99,0.26,1.99,0.51,2.98,0.81c5.34,1.62,8.52,5.15,9.19,10.73c0.29,2.42,0.37,4.87,0.45,7.31c0.03,0.89-0.13,1.8-0.33,2.67
		c-0.45,1.92-1.31,2.66-3.22,2.67c-1.15,0.01-2.31-0.16-3.44-0.38c-1.01-0.2-2-0.51-2.96-0.88c-5.53-2.12-11.02-4.34-16.57-6.39
		c-7.05-2.6-10.59-7.64-11.34-15.07C864.73,117.28,864.75,108.9,865.09,102.12z"/>
	<path class="slpdsccn_st2" d="M552.28,280.09c0.06,3.85-0.05,9.25,0.11,13.1c0.08,1.91,0.32,3.85,0.75,5.71c0.47,2.05,1.69,2.7,3.77,2.13
		c1.22-0.33,2.39-0.92,3.54-1.48c1.27-0.62,2.46-1.41,3.73-2c2.08-0.97,3.54-0.45,4.3,1.68c1.24,3.47,1.36,7.04,0.37,10.61
		c-0.95,3.42-2.88,6.3-5.26,8.87c-4.74,5.1-10.72,8.3-17.05,10.93c-0.24,0.1-0.5,0.12-0.74,0.22c-2.95,1.17-5.67-0.16-6.64-3.35
		c-0.66-2.2-1.26-4.47-1.47-6.75c-0.44-4.73-0.68-8.96-0.85-13.71c-0.15-4.11,0.23-9.47,0.32-14.27c1.27-0.83,2.13-0.17,3-0.71
		c3.19-1.96,6.11-4.24,8.66-7.01C549.76,283.06,550.67,280.21,552.28,280.09z"/>
	<path class="slpdsccn_st1" d="M710.09,194.77c-0.08,3.47-0.23,7.97-0.35,11.43c-0.18,5.27-0.41,10.54-0.6,15.82
		c-0.02,0.49,0.12,0.99,0.2,1.65c0.54,0.09,1.01,0.22,1.48,0.24c2.19,0.1,2.82,0.52,2.99,2.57c0.36,4.39-0.01,8.75-1,13.03
		c-0.58,2.5-2.1,4.41-4.37,5.63c-1.35,0.73-2.76,1.41-4.21,1.9c-3.53,1.19-7.07,2.41-10.67,3.33c-4.21,1.07-5.82-0.2-5.88-4.52
		c-0.04-2.95,0.13-5.91,0.43-8.85c0.33-3.22,1.59-5.98,4.88-7.41c0.54-9.03,1.18-19.96,2.08-29.28c3.25-1.62,6.13-2.92,9.04-4.15
		C706.08,195.34,708.1,195.54,710.09,194.77z"/>
	<path class="slpdsccn_st5" d="M450.36,210.93c-0.89,0.55-1.83,0.61-2.56,1.02c-1.1,0.62-2.12,1.42-3.07,2.26c-2.96,2.61-5.9,5.24-8.79,7.94
		c-1.96,1.83-3.95,3.58-6.73,4.73c-1.14-5.4-2.21-10.84-2.74-16.32c-0.55-5.75-0.66-11.55-0.8-17.34c-0.1-4.12,0.34-8.23,1.33-12.24
		c0.37-1.49,0.87-2.97,1.55-4.34c1.56-3.11,3.5-3.97,6.96-3.38c2.41,0.41,4.39,1.63,5.79,3.54c1.36,1.85,2.56,3.86,3.52,5.94
		c1.63,3.51,2.5,7.28,3.25,11.07C449.16,199.36,450.09,204.93,450.36,210.93z"/>
	<path class="slpdsccn_st4" d="M328.21,345.4c1.23-0.31,1.87,0.53,2.59,1.25c2.45,2.43,4.79,4.98,7.35,7.29c4.06,3.65,8.05,7.43,12.67,10.4
		c2.91,1.87,5.93,3.5,9.78,3.89c1.18,4.04,1.46,8.1,0.83,12.21c-0.4,2.6-1.41,4.92-3.08,6.95c-2.07,2.51-4.75,3.89-7.98,4.1
		c-3.91,0.24-7.68-0.51-11.31-1.9c-3.28-1.26-5.53-3.65-6.9-6.87c-1.37-3.22-2.08-6.61-2.48-10.06
		C328.62,363.72,328.15,354.75,328.21,345.4z"/>
	<path class="slpdsccn_st1" d="M920.49,112.31c-0.1,2.57-0.26,5.13-0.28,7.7c-0.02,2.95,0.03,5.91,0.16,8.86c0.16,3.56,1.81,6.38,4.63,8.51
		c1.13,0.85,2.25,1.73,3.49,2.41c2.82,1.54,4.32,3.99,4.94,7c0.65,3.15,0.97,6.36,0.71,9.58c-0.09,1.14-0.33,2.3-0.71,3.38
		c-0.85,2.41-2.77,3.75-5.34,3.56c-1.5-0.11-3.08-0.48-4.43-1.12c-4.08-1.93-7.84-4.41-11.22-7.42c-3.21-2.85-4.99-6.52-5.77-10.65
		c-0.48-2.52-0.88-5.09-0.89-7.64c-0.03-8.35,0.25-17.63,0.77-26.33c3.46-0.02,6.39,1.23,9.42,1.55c0.12,0.01,0.24,0.1,0.36,0.12
		C917.72,111.99,919.1,112.15,920.49,112.31z"/>
	<path class="slpdsccn_st5" d="M320.07,337.02c-0.94-0.15-1.82-1.47-2.71-1.95c-3.03-1.64-6.05-3.32-9.12-4.89
		c-0.76-0.39-1.71-0.42-2.87-0.61c-0.38-3.07-0.16-6.03-0.34-9.23c-0.17-2.95-0.22-5.91-0.22-9.04c-0.55-0.4-1.13-0.86-1.76-1.26
		c-1.37-0.87-2.26-2.14-2.77-3.6c-0.59-1.69-1.23-3.43-1.38-5.19c-0.29-3.32-0.43-6.67-0.28-10c0.17-3.9,1.96-5.55,5.82-5.74
		c4.52-0.23,8.97,0.45,13.38,1.38c3.45,0.73,5.7,2.86,6.6,6.28c1.33,5.03,1.65,10.14,0.82,15.27c-0.53,3.27-1.1,3.63-4.6,3.82
		c-0.5,0.03-1,0.16-1.75,0.28c-0.08,0.86,0.02,3.06,0.08,3.9c0.37,5,0.52,8.64,0.9,13.64C320.02,332,320.05,334.75,320.07,337.02z"
		/>
	<path class="slpdsccn_st5" d="M607.31,154.53c-2.42-0.24-4.79-0.7-7.09-1.38c-2.69-0.79-5.35-1.59-8.51-1.43
		c-0.29-7.35,0.2-14.65,1.82-21.83c1.4-6.21,4.8-11.08,10.39-14.21c3.36-1.88,6.84-3.56,10.33-5.18c1.87-0.86,3.9-1.29,6-1.23
		c3.79,0.12,5.99,2.15,6.24,5.95c0.24,3.67-0.54,7.18-2.24,10.44c-1.1,2.1-2.74,3.7-4.88,4.8c-1.83,0.94-3.64,1.92-5.39,3.01
		c-2.88,1.78-4.69,4.36-5.29,7.72c-0.29,1.64-0.57,3.29-0.73,4.95C607.73,148.82,607.58,151.52,607.31,154.53z"/>
	<path class="slpdsccn_st5" d="M272.23,326.21c-6.2,0.92-12.03-0.23-17.97-2.62c-0.19-2.27-0.3-5.98-0.44-8.28
		c-0.63-10.78-1.75-21.16-2.33-31.94c-0.09-1.67-0.13-3.35,0.05-5.01c0.3-2.85,1.79-4.1,4.66-3.97c2.85,0.13,5.59,0.86,8.13,2.18
		c2.55,1.33,4.13,3.47,4.83,6.2c0.41,1.61,0.71,3.28,0.82,4.94c0.56,9.11,1.03,18.23,1.56,27.35
		C271.75,318.39,272.03,322.55,272.23,326.21z"/>
	<path class="slpdsccn_st5" d="M268.85,409.89c-1.58,0.31-2.97,0.43-4.36,0.58c-0.63,0.07-1.25,0.28-1.88,0.3c-2.04,0.04-4.06,0.06-6.06,0.68
		c-1.06,0.33-2.29,0.09-3.77,0.11c-1.38-7.8-1.93-15.62-1.32-23.47c0.15-1.9,0.57-3.83,1.19-5.62c0.79-2.27,2.56-3.48,5.04-3.44
		c0.64,0.01,1.3-0.04,1.93,0.07c5.35,0.95,10.58,2.29,15.11,5.47c6.85,4.81,9.6,11.49,8.73,19.74c-0.07,0.64-0.15,1.28-0.33,1.9
		c-0.75,2.65-2.18,3.57-4.9,3.05c-1.77-0.34-3.49-0.89-5.26-1.23C271.32,407.69,269.89,408.09,268.85,409.89z"/>
	<path class="slpdsccn_st6" d="M458.65,446.72c0.49-0.3,1.04-0.43,1.52-0.3c4.56,1.24,9.23,0.83,13.82,0.64c4.23-0.18,8.34-1.35,12.21-3.19
		c1.98-0.94,3.94-2.53,6.17-3.52c0.8,4.44,1.42,9.52,1.82,14c0.31,3.5-0.25,6.95-1.4,10.27c-2.24,6.48-6.91,10.41-13.28,12.46
		c-2.5,0.8-4.94,0.34-6.83-1.51c-1.46-1.43-2.86-3.02-3.86-4.78c-1.7-3.02-3.21-6.17-4.54-9.37
		C462.3,456.66,460.53,451.82,458.65,446.72z"/>
	<path class="slpdsccn_st5" d="M552.27,281.34c-1.7,0.43-2.5,1.72-3.43,2.73c-2.55,2.77-5.48,5.05-8.66,7.01c-0.87,0.53-1.83,0.91-3.03,1.38
		c-0.6-8.72-0.58-17.43,1.17-26.07c1.21-5.96,4.21-10.74,9.23-14.14c2.87-1.94,5.82-3.78,8.87-5.41c1.78-0.96,3.79-1.65,5.78-2.05
		c3.56-0.71,6.17,1.02,6.73,4.6c0.8,5.11-0.11,10.01-3.12,14.31c-0.86,1.22-2.21,2.11-3.43,3.03c-1.13,0.84-2.39,1.51-3.58,2.27
		c-3.33,2.11-5.45,5.02-5.97,9C552.69,279.01,552.51,280.02,552.27,281.34z"/>
	<path class="slpdsccn_st1" d="M430.95,441.79c4.23-0.46,8.3,1.32,12.37,2.11c1.85,0.36,3.71,0.6,5.89,0.9c0.69,1.76,1.07,3.5,1.42,5.25
		c1.51,7.57,3.81,14.92,6.13,22.27c0.31,0.98,0.66,1.95,0.93,2.94c0.73,2.65-0.08,4.88-2.22,6.48c-1.21,0.91-2.64,1.6-4.07,2.11
		c-2.92,1.05-5.96,1.56-9.08,1.42c-3.19-0.14-5.32-1.71-6.3-4.74c-0.39-1.22-0.76-2.47-0.92-3.73
		C433.67,465.6,432.29,453.35,430.95,441.79z"/>
	<path class="slpdsccn_st5" d="M561.7,160.71c-1.78,0.43-3.03,1.68-4.27,2.7c-3.05,2.54-6.17,5.07-8.79,8.02c-4.07,4.58-8.48,8.89-12,13.96
		c-1.09,1.57-2.38,3.01-3.62,4.47c-0.22,0.26-0.67,0.34-1.28,0.52c-0.27-9.09-0.57-18.22,0.45-27.31c0.52-4.67,2.1-8.99,4.82-12.85
		c2.74-3.9,6.45-6.57,10.77-8.47c2.3-1.01,4.38-0.58,5.92,1.27c1.3,1.56,2.49,3.31,3.28,5.17
		C558.71,152.2,560.14,156.33,561.7,160.71z"/>
	<path class="slpdsccn_st3" d="M297.71,326.13c-3,0.33-5.88,0.32-8.82-0.22c-2.85-0.53-6.07,0.47-9.38,0.45c0.05-0.85,0.01-3.09,0.02-3.6
		c0.17-11.48-0.82-21.48-1.31-32.94c-0.08-1.78,0.07-3.62,0.41-5.37c0.42-2.16,1.86-3.35,4.08-3.45c3.42-0.16,6.68,0.56,9.58,2.43
		c2.57,1.66,3.58,4.33,4,7.21c0.32,2.16,0.5,4.36,0.58,6.54C297.21,306.71,297.48,316.25,297.71,326.13z"/>
	<path class="slpdsccn_st5" d="M710.06,195.46c-2.07,1.12-4.09,1.84-6.06,2.67c-2.91,1.22-5.99,2.42-9.16,3.72c0.03-1.76,0.34-3.6,0.46-5.07
		c0.14-1.77,0.13-2.92,0.29-4.65c-4.1-0.77-4.71-1.31-5.13-5.14c-0.43-4,0.02-7.95,1.2-11.79c0.66-2.14,1.95-3.92,3.69-5.31
		c1.3-1.04,2.68-1.99,4.12-2.81c4.02-2.3,8.29-4.06,12.68-5.53c1.19-0.4,2.5-0.58,3.76-0.61c1.77-0.04,2.88,0.92,3.36,2.59
		c0.11,0.37,0.17,0.76,0.19,1.14c0.3,4.52-0.12,8.97-1.5,13.31c-0.7,2.19-2.01,3.85-4.16,4.77c-0.47,0.2-0.93,0.44-1.39,0.66
		c-1.71,0.79-2.42,2.07-2.33,4C710.23,189.96,710.14,192.54,710.06,195.46z"/>
	<path class="slpdsccn_st7" d="M370.5,363.87c1.41-0.76,2.74-1.19,3.96-1.82c3.38-1.73,6.72-3.55,10.34-5.38c0.41,2.64,0.56,5.32,0.72,8.03
		c0.55,0.31,0.96,0.71,1.42,0.77c2.01,0.28,2.81,1.54,3.07,3.4c0.78,5.65,0.73,11.3-0.15,16.92c-0.5,3.24-2.4,5.42-5.63,6.12
		c-4.3,0.93-8.64,1.29-13.02,0.46c-3.03-0.57-4.82-2.28-5.3-5.31c-0.97-6.03-0.82-12.05,0.2-18.05c0.34-2.01,1.24-3.65,3.56-4.04
		C369.93,364.92,370.14,364.41,370.5,363.87z"/>
	<path class="slpdsccn_st5" d="M482.99,201.79c-2.91-0.34-5.68-0.53-8.5-0.6c-4.03-0.1-7.86,0.56-11.63,1.89c-0.59,0.21-1.23,0.31-2.14,0.47
		c0.88-8.94,2.81-17.7,6.38-26.03c1.28-2.98,2.9-5.74,5.12-8.12c1.88-2.02,4.1-3.56,6.84-4.1c1.09-0.21,2.31-0.17,3.4,0.07
		c2.26,0.49,3.5,2.04,3.74,4.34c0.07,0.64,0.03,1.28,0.01,1.93C485.87,181.66,484.92,191.64,482.99,201.79z"/>
	<path class="slpdsccn_st5" d="M459.75,314.52c-4.45-0.05-8.64,1.34-12.99,2.78c0.09-2.44-0.16-4.05-0.37-5.98c-2.94-0.39-4.13-2.35-4.74-4.9
		c-1.07-4.46-0.95-8.96-0.44-13.44c0.36-3.18,2.24-5.42,5.25-6.62c4.22-1.68,8.66-2.51,13.14-2.99c3.15-0.34,5.2,1.2,5.93,4.32
		c1.17,4.95,1.14,9.97,0.07,14.95c-0.37,1.73-1.43,3.01-3.18,3.59c-0.49,0.16-0.99,0.29-1.46,0.5c-1.03,0.47-1.59,1.25-1.5,2.44
		C459.58,310.84,459.69,312.51,459.75,314.52z"/>
	<path class="slpdsccn_st1" d="M342.31,448.12c2.32-0.21,4.06,2.06,6,2.97c3.94,1.84,8.01,3.21,12.64,3.77c0.7,1.22,1.08,2.44,1.46,3.66
		c1.96,6.25,3.94,12.49,5.86,18.75c0.37,1.22,0.73,2.48,0.81,3.73c0.12,1.9-0.78,3.36-2.59,3.82c-5.72,1.46-11.24,0.85-16.26-2.39
		c-2.03-1.31-3.02-3.51-3.54-5.8c-0.62-2.75-1.08-5.54-1.52-8.33C344.17,461.96,343.22,454.78,342.31,448.12z"/>
	<path class="slpdsccn_st1" d="M765.93,199.46c0.62-0.26,1.05,0.22,1.53,0.38c4.73,1.61,9.5,2.01,14.38,0.69c0.6-0.16,1.59-1.4,2.57-1.42
		c0.02,1.17,0.18,3.96,0.24,4.71c0.52,6.39,1.2,11.64,1.72,18.03c0.29,3.57-1.06,6.32-4.3,7.86c-4.14,1.95-8.58,2.65-13.12,2.31
		c-2.87-0.22-4.38-1.69-4.94-4.54c-0.27-1.37-0.41-2.81-0.3-4.2C764.33,215.61,765.15,207.44,765.93,199.46z"/>
	<path class="slpdsccn_st7" d="M716.97,115.83c0.51-0.34,1.83-0.68,2.19-0.77c6-1.68,10.98-3.64,17.64-3.5c0.02,5.85,1.97,12.64,3.04,18.57
		c0.43,2.39-0.16,4.38-1.74,6.01c-1.14,1.18-2.5,2.23-3.93,3.04c-3.7,2.1-7.69,3.52-11.85,4.46c-0.5,0.11-1.01,0.22-1.52,0.26
		c-2.83,0.21-4.36-0.91-4.91-3.71c-0.19-1-0.24-2.04-0.19-3.06C716.02,130.32,716.49,122.91,716.97,115.83z"/>
	<path class="slpdsccn_st6" d="M747.96,112.43c1.95-0.28,4.09,0.54,6.01,0.69c5.15,0.42,9.93-0.84,14.55-2.96c3.15-1.45,6.3-2.9,9.47-4.33
		c1.05-0.47,2.24-1.59,3.58-2.02c0.06,3.84,0.09,8.46-0.56,12.23c-1.01,5.9-4.43,10.32-9.72,13.21c-2.73,1.49-5.67,2.44-8.7,3.08
		c-3.51,0.73-6.42-0.34-8.39-3.34c-1.19-1.81-2.26-3.76-3.01-5.79C750.01,120.08,748.94,115.91,747.96,112.43z"/>
	<path class="slpdsccn_st1" d="M284.09,239.46c0.31-0.3,0.61-0.31,0.81-0.18c5.7,3.7,11.85,4.63,18.41,2.99c0.25-0.06,0.51-0.03,1.09-0.05
		c1.26,5.82,2.21,11.64,3.14,17.47c0.1,0.63,0.17,1.28,0.17,1.91c-0.04,3.84-1.86,6.39-5.59,7.31c-3.96,0.97-7.91,0.69-11.67-1.02
		c-2.09-0.95-3.57-2.57-4.21-4.76c-0.56-1.96-1.05-3.99-1.2-6.01C284.61,251.35,284.36,245.57,284.09,239.46z"/>
	<path class="slpdsccn_st5" d="M920.5,112.34c-1.5,0.11-2.4-0.11-3.75-0.42c-0.12-0.03-1.38-0.21-1.5-0.22c-3.03-0.32-5.35-0.64-8.69-0.97
		c-0.08-5.65,0.07-11.3,0.42-16.94c0.22-3.59,0.66-7.17,1.17-10.73c0.22-1.5,0.74-3,1.36-4.39c0.77-1.7,2-2.37,3.77-1.91
		c5.49,1.46,11.69,4.91,11.88,12.8c0.08,3.25-0.17,6.41-1.22,9.5C922.54,103.21,921.3,107.74,920.5,112.34z"/>
	<path class="slpdsccn_st5" d="M614.23,228.8c-1.72,0.05-3.3,0.69-4.86,1.24c-4.26,1.5-8.19,3.65-11.96,6.13c-3.87,2.54-7.4,5.48-10.91,8.5
		c-2.73,2.35-5.41,4.73-7.91,7.31c-1.51,1.56-2.84,3.29-4.29,4.92c-0.85,0.95-1.6,2.05-3.27,2.34c3-14.91,10.31-27.1,23.68-35.16
		c2.21-1.33,4.54-2.35,7.1-2.86c4.71-0.94,8.31,0.67,10.94,4.59C613.33,226.66,613.74,227.62,614.23,228.8z"/>
	<path class="slpdsccn_st5" d="M588.49,150.59c-4.69,0.53-9.17,1.41-13.57,2.76c-1.58,0.48-3.16,0.96-5.03,1.45
		c-0.78-4.19-1.16-8.41-1.8-12.58c-0.86-5.57,1.28-9.46,6.2-11.97c2.28-1.16,4.56-2.34,6.88-3.41c1.04-0.48,2.16-0.82,3.29-1.04
		c2.05-0.41,3.61,0.53,4.05,2.55c0.3,1.36,0.34,2.8,0.33,4.2C588.78,138.45,588.67,144.34,588.49,150.59z"/>
	<path class="slpdsccn_st5" d="M657.25,109.94c-4.16-0.22-7.78,1.03-11.19,2.75c-4.42,2.23-8.78,4.63-11.72,9.14
		c-0.41,0.27-0.6,0.48-1.35,0.28c-0.37-0.1-1.23-0.64-1.37-0.77c-1.18-1.12-1.1-2.06-1.14-3.47c-0.08-2.81-0.13-5.65,0.11-8.45
		c0.21-2.5,1.41-4.68,3.35-6.31c1.27-1.07,2.59-2.16,4.07-2.88c4.27-2.06,8.59-4.01,12.96-5.85c1.26-0.53,2.73-0.66,4.12-0.75
		c1.57-0.1,2.67,0.75,3.24,2.23c0.18,0.48,0.4,0.97,0.45,1.47C659.24,101.56,659.45,105.78,657.25,109.94z"/>
	<path class="slpdsccn_st1" d="M355.99,256.66c2.95,0.07,5.49-0.22,7.72-2.36c1.63-1.57,3.43-2.91,4.78-4.8c0.94-1.31,2.38-2.27,3.87-3.48
		c5.28,5.79,7.21,12.63,6.59,20.24c-0.32,3.91-1.74,5.52-5.58,6.17c-1.89,0.32-3.81,0.43-5.73,0.55c-2.36,0.15-4.31-0.8-5.67-2.67
		c-1.13-1.54-2.17-3.19-2.94-4.93C357.91,262.8,356.96,259.59,355.99,256.66z"/>
	<path class="slpdsccn_st1" d="M329.08,246.45c2.56-0.12,4.52,1.89,6.66,2.99c3.07,1.58,6.15,3.16,9.25,4.67c0.67,0.33,1.47,0.37,2.54,0.59
		c0.75,3.73,1.32,7.41,1.57,11.1c0.27,3.95-1.48,6.08-5.42,6.46c-2.26,0.22-4.62,0.06-6.87-0.31c-3.38-0.55-5.39-2.82-6.22-6.07
		c-0.38-1.48-0.62-3.02-0.74-4.55C329.5,256.73,329.32,251.4,329.08,246.45z"/>
	<path class="slpdsccn_st5" d="M198.97,182.37c-1.15,0.3-2.18,0.39-3.19,0.3c-3.6-0.32-6.84,0.78-9.74,2.7c-1.39,0.93-2.74,1.22-4.6,1.18
		c-0.62-4.89-0.03-9.71,0.72-14.52c0.18-1.13,0.49-2.25,0.87-3.34c1.28-3.71,2.96-4.87,6.86-4.77c1.02,0.03,2.05,0.09,3.06,0.27
		c3.99,0.68,6.11,2.79,6.65,6.84c0.25,1.89,0.3,3.84,0.21,5.75C199.73,178.55,199.35,180.31,198.97,182.37z"/>
	<path class="slpdsccn_st5" d="M691.75,68.44c-2,3.73-4.64,6.48-7.94,8.62c-1.31,0.85-2.72,1.44-4.33,1.45c-2.83,0.02-4.94-1.94-4.9-4.79
		c0.01-1.12,0.25-2.33,0.71-3.35c2.41-5.29,6.1-9.5,11.13-12.43c1.08-0.63,2.37-1.08,3.61-1.21c3.8-0.4,6.29,3.01,4.9,6.58
		c-0.32,0.83-0.82,1.6-1.29,2.36C693.08,66.53,692.47,67.35,691.75,68.44z"/>
	<path class="slpdsccn_st7" d="M513.93,213.39c0.09-0.67,0.33-1.51,0.85-1.94c2.45-1.99,4.24-4.65,6.46-6.53c0.49-0.41,1.17-1.36,1.87-1.86
		c-0.04,4.08-2.28,7.53-6.1,9.21C516.09,212.67,515.14,213.02,513.93,213.39z"/>
	<g>
		<path class="slpdsccn_st8" d="M161.61,154.72c0.54,0.68,1.12,1.27,1.73,1.82c0.55,0.49,1.12,0.93,1.72,1.34c0.58,0.39,1.16,0.76,1.77,1.09
			c0.55,0.31,1.11,0.58,1.67,0.86c0.43,0.21,0.87,0.41,1.31,0.6c0.31,0.13,0.63,0.24,0.95,0.36c0.37,0.13,0.73,0.25,1.1,0.37
			c0.09,0.03,0.18,0.05,0.27,0.08c0.37,0.09,0.74,0.18,1.11,0.27c0.06,0.02,0.13,0.04,0.19,0.08c0.09,0.07,0.1,0.17,0.02,0.26
			c-0.04,0.05-0.1,0.08-0.16,0.09c-0.12,0.03-0.24,0.03-0.36,0.06c-0.49,0.12-0.98,0.23-1.47,0.36c-0.6,0.16-1.18,0.38-1.76,0.61
			c-0.46,0.18-0.91,0.38-1.36,0.6c-0.51,0.24-1.02,0.5-1.52,0.77c-0.76,0.4-1.49,0.85-2.21,1.35c-0.76,0.54-1.48,1.13-2.16,1.81
			c-0.6,0.6-1.16,1.26-1.67,1.98c-0.5,0.7-0.93,1.46-1.31,2.26c-0.18,0.38-0.34,0.77-0.5,1.16c-0.18,0.44-0.34,0.89-0.5,1.35
			c-0.11,0.31-0.2,0.63-0.29,0.95c-0.11,0.39-0.21,0.78-0.32,1.17c0,0.02-0.01,0.03-0.02,0.05c-0.09,0.45-0.19,0.9-0.28,1.36
			c-0.1,0.5-0.18,1.01-0.26,1.52c-0.09,0.58-0.15,1.17-0.21,1.75c-0.04,0.42-0.1,0.84-0.14,1.26c-0.03,0.34-0.05,0.67-0.07,1.01
			c-0.01,0.11-0.03,0.22-0.05,0.32c-0.02,0.08-0.06,0.16-0.1,0.22c-0.1,0.14-0.23,0.12-0.29-0.05c-0.03-0.09-0.05-0.2-0.06-0.3
			c-0.05-0.48-0.1-0.96-0.15-1.45c-0.02-0.15-0.02-0.31-0.04-0.46c-0.06-0.48-0.11-0.96-0.18-1.44c-0.09-0.62-0.2-1.24-0.31-1.86
			c-0.08-0.44-0.17-0.89-0.26-1.33c-0.08-0.37-0.16-0.74-0.25-1.1c-0.17-0.68-0.34-1.35-0.54-2.02c-0.29-0.98-0.64-1.93-1.06-2.84
			c-0.63-1.37-1.46-2.55-2.42-3.59c-0.81-0.86-1.68-1.62-2.6-2.3c-0.91-0.68-1.87-1.25-2.85-1.76c-0.87-0.45-1.75-0.84-2.66-1.15
			c-0.81-0.28-1.63-0.51-2.46-0.63c-0.28-0.04-0.56-0.11-0.84-0.16c-0.09-0.02-0.17-0.01-0.26-0.03c-0.06-0.01-0.13-0.04-0.18-0.08
			c-0.08-0.07-0.07-0.18,0.02-0.24c0.03-0.02,0.07-0.03,0.1-0.04c0.07-0.01,0.14-0.02,0.21-0.03c0.57-0.03,1.13-0.09,1.68-0.21
			c0.47-0.1,0.93-0.22,1.39-0.34c0.35-0.09,0.69-0.22,1.03-0.34c0.28-0.1,0.56-0.2,0.83-0.31c0.49-0.2,0.97-0.41,1.45-0.64
			c0.39-0.18,0.79-0.38,1.17-0.59c0.43-0.24,0.85-0.48,1.26-0.75c0.53-0.36,1.05-0.73,1.56-1.13c0.84-0.65,1.62-1.4,2.31-2.26
			c0.61-0.77,1.14-1.61,1.57-2.54c0.38-0.82,0.71-1.68,0.99-2.56c0.23-0.71,0.43-1.43,0.6-2.17c0.18-0.75,0.36-1.49,0.52-2.24
			c0.11-0.52,0.19-1.04,0.28-1.57c0.07-0.39,0.13-0.77,0.19-1.16c0.07-0.5,0.13-1,0.18-1.5c0.03-0.31,0.05-0.62,0.08-0.94
			c0.01-0.08,0.02-0.16,0.04-0.23c0.02-0.07,0.06-0.14,0.11-0.19c0.1-0.1,0.22-0.07,0.28,0.07c0.03,0.07,0.05,0.15,0.06,0.23
			c0.03,0.39,0.06,0.78,0.09,1.18c0.05,0.62,0.09,1.25,0.15,1.87c0.03,0.36,0.1,0.72,0.13,1.08c0.03,0.34,0.07,0.67,0.14,1
			c0.02,0.08,0.03,0.17,0.04,0.25c0.03,0.3,0.07,0.6,0.16,0.88c0.02,0.08,0.03,0.17,0.05,0.25c0.04,0.2,0.09,0.4,0.13,0.61
			c0.01,0.03,0.02,0.06,0.02,0.09c0.09,0.38,0.17,0.76,0.26,1.14c0.09,0.33,0.19,0.65,0.29,0.97c0.07,0.24,0.16,0.47,0.23,0.7
			c0.17,0.51,0.35,1.01,0.57,1.49c0.21,0.45,0.41,0.9,0.64,1.34c0.26,0.52,0.57,1,0.9,1.47
			C161.22,154.2,161.42,154.45,161.61,154.72z"/>
	</g>
	<g>
		<path class="slpdsccn_st8" d="M178.95,171.81c0.25,0.35,0.52,0.66,0.8,0.95c0.25,0.26,0.52,0.49,0.79,0.7c0.27,0.21,0.54,0.4,0.82,0.57
			c0.25,0.16,0.51,0.3,0.77,0.45c0.2,0.11,0.4,0.21,0.61,0.31c0.14,0.07,0.29,0.13,0.44,0.19c0.17,0.07,0.34,0.13,0.51,0.19
			c0.04,0.02,0.08,0.03,0.12,0.04c0.17,0.05,0.34,0.09,0.51,0.14c0.03,0.01,0.06,0.02,0.09,0.04c0.04,0.03,0.05,0.09,0.01,0.13
			c-0.02,0.02-0.05,0.04-0.07,0.05c-0.06,0.01-0.11,0.01-0.17,0.03c-0.23,0.06-0.45,0.12-0.68,0.19c-0.28,0.08-0.55,0.2-0.81,0.32
			c-0.21,0.1-0.42,0.2-0.63,0.31c-0.24,0.13-0.47,0.26-0.7,0.4c-0.35,0.21-0.69,0.44-1.02,0.7c-0.35,0.28-0.68,0.59-1,0.94
			c-0.28,0.31-0.54,0.66-0.77,1.03c-0.23,0.37-0.43,0.76-0.61,1.18c-0.08,0.2-0.16,0.4-0.23,0.61c-0.08,0.23-0.16,0.46-0.23,0.7
			c-0.05,0.16-0.09,0.33-0.13,0.5c-0.05,0.2-0.1,0.41-0.15,0.61c0,0.01-0.01,0.02-0.01,0.03c-0.04,0.24-0.09,0.47-0.13,0.71
			c-0.04,0.26-0.08,0.53-0.12,0.79c-0.04,0.3-0.07,0.61-0.1,0.91c-0.02,0.22-0.05,0.44-0.07,0.66c-0.02,0.17-0.02,0.35-0.03,0.53
			c0,0.06-0.01,0.11-0.03,0.17c-0.01,0.04-0.03,0.08-0.05,0.12c-0.05,0.07-0.11,0.06-0.13-0.03c-0.02-0.05-0.02-0.1-0.03-0.16
			c-0.02-0.25-0.05-0.5-0.07-0.75c-0.01-0.08-0.01-0.16-0.02-0.24c-0.03-0.25-0.05-0.5-0.09-0.75c-0.04-0.32-0.09-0.65-0.14-0.97
			c-0.04-0.23-0.08-0.46-0.12-0.69c-0.04-0.19-0.07-0.38-0.11-0.57c-0.08-0.35-0.16-0.7-0.25-1.05c-0.13-0.51-0.29-1.01-0.49-1.48
			c-0.29-0.71-0.67-1.33-1.12-1.87c-0.37-0.45-0.78-0.84-1.2-1.2c-0.42-0.35-0.86-0.65-1.32-0.92c-0.4-0.23-0.81-0.44-1.23-0.6
			c-0.37-0.14-0.75-0.27-1.14-0.33c-0.13-0.02-0.26-0.06-0.39-0.09c-0.04-0.01-0.08,0-0.12-0.01c-0.03-0.01-0.06-0.02-0.08-0.04
			c-0.04-0.04-0.03-0.09,0.01-0.13c0.01-0.01,0.03-0.02,0.05-0.02c0.03-0.01,0.07-0.01,0.1-0.01c0.26-0.01,0.52-0.04,0.78-0.11
			c0.22-0.05,0.43-0.11,0.64-0.18c0.16-0.05,0.32-0.11,0.48-0.17c0.13-0.05,0.26-0.1,0.38-0.16c0.22-0.11,0.45-0.21,0.67-0.33
			c0.18-0.1,0.36-0.2,0.54-0.31c0.2-0.12,0.39-0.25,0.58-0.39c0.24-0.19,0.49-0.38,0.72-0.59c0.39-0.34,0.75-0.73,1.07-1.18
			c0.28-0.4,0.53-0.84,0.73-1.32c0.18-0.43,0.33-0.87,0.46-1.33c0.1-0.37,0.2-0.75,0.28-1.13c0.08-0.39,0.17-0.77,0.24-1.16
			c0.05-0.27,0.09-0.54,0.13-0.82c0.03-0.2,0.06-0.4,0.09-0.6c0.03-0.26,0.06-0.52,0.08-0.78c0.02-0.16,0.02-0.32,0.04-0.49
			c0-0.04,0.01-0.08,0.02-0.12c0.01-0.04,0.03-0.07,0.05-0.1c0.05-0.05,0.1-0.04,0.13,0.03c0.01,0.04,0.02,0.08,0.03,0.12
			c0.01,0.2,0.03,0.41,0.04,0.61c0.02,0.33,0.04,0.65,0.07,0.97c0.02,0.19,0.05,0.37,0.06,0.56c0.01,0.18,0.03,0.35,0.07,0.52
			c0.01,0.04,0.01,0.09,0.02,0.13c0.01,0.16,0.03,0.31,0.07,0.46c0.01,0.04,0.01,0.09,0.02,0.13c0.02,0.11,0.04,0.21,0.06,0.32
			c0,0.02,0.01,0.03,0.01,0.05c0.04,0.2,0.08,0.4,0.12,0.59c0.04,0.17,0.09,0.34,0.13,0.51c0.03,0.12,0.07,0.24,0.11,0.36
			c0.08,0.27,0.16,0.52,0.26,0.77c0.1,0.24,0.19,0.47,0.3,0.7c0.12,0.27,0.26,0.52,0.42,0.76
			C178.76,171.54,178.85,171.67,178.95,171.81z"/>
	</g>
	<g>
		<path class="slpdsccn_st8" d="M150.53,192.97c0.21,0.26,0.43,0.49,0.67,0.7c0.21,0.19,0.43,0.36,0.66,0.52c0.22,0.15,0.45,0.29,0.68,0.42
			c0.21,0.12,0.43,0.22,0.64,0.33c0.17,0.08,0.34,0.16,0.5,0.23c0.12,0.05,0.24,0.09,0.36,0.14c0.14,0.05,0.28,0.1,0.42,0.14
			c0.03,0.01,0.07,0.02,0.1,0.03c0.14,0.03,0.28,0.07,0.43,0.1c0.02,0.01,0.05,0.02,0.07,0.03c0.04,0.03,0.04,0.07,0.01,0.1
			c-0.02,0.02-0.04,0.03-0.06,0.04c-0.05,0.01-0.09,0.01-0.14,0.02c-0.19,0.04-0.38,0.09-0.56,0.14c-0.23,0.06-0.45,0.15-0.68,0.24
			c-0.18,0.07-0.35,0.15-0.52,0.23c-0.2,0.09-0.39,0.19-0.59,0.3c-0.29,0.15-0.57,0.33-0.85,0.52c-0.29,0.21-0.57,0.44-0.83,0.69
			c-0.23,0.23-0.44,0.48-0.64,0.76c-0.19,0.27-0.36,0.56-0.51,0.87c-0.07,0.15-0.13,0.3-0.19,0.45c-0.07,0.17-0.13,0.34-0.19,0.52
			c-0.04,0.12-0.08,0.24-0.11,0.37c-0.04,0.15-0.08,0.3-0.12,0.45c0,0.01,0,0.01-0.01,0.02c-0.04,0.17-0.07,0.35-0.11,0.52
			c-0.04,0.19-0.07,0.39-0.1,0.58c-0.03,0.22-0.06,0.45-0.08,0.67c-0.02,0.16-0.04,0.32-0.05,0.49c-0.01,0.13-0.02,0.26-0.03,0.39
			c0,0.04-0.01,0.08-0.02,0.13c-0.01,0.03-0.02,0.06-0.04,0.09c-0.04,0.05-0.09,0.05-0.11-0.02c-0.01-0.04-0.02-0.08-0.02-0.12
			c-0.02-0.19-0.04-0.37-0.06-0.56c-0.01-0.06-0.01-0.12-0.01-0.18c-0.02-0.18-0.04-0.37-0.07-0.55c-0.04-0.24-0.08-0.48-0.12-0.72
			c-0.03-0.17-0.07-0.34-0.1-0.51c-0.03-0.14-0.06-0.28-0.1-0.42c-0.07-0.26-0.13-0.52-0.21-0.78c-0.11-0.38-0.24-0.74-0.41-1.09
			c-0.24-0.53-0.56-0.98-0.93-1.38c-0.31-0.33-0.64-0.62-1-0.89c-0.35-0.26-0.72-0.48-1.1-0.68c-0.33-0.17-0.67-0.32-1.02-0.44
			c-0.31-0.11-0.63-0.2-0.95-0.24c-0.11-0.02-0.22-0.04-0.32-0.06c-0.03-0.01-0.07,0-0.1-0.01c-0.02-0.01-0.05-0.02-0.07-0.03
			c-0.03-0.03-0.03-0.07,0.01-0.09c0.01-0.01,0.03-0.01,0.04-0.02c0.03-0.01,0.05-0.01,0.08-0.01c0.22-0.01,0.43-0.03,0.65-0.08
			c0.18-0.04,0.36-0.08,0.54-0.13c0.13-0.03,0.27-0.08,0.4-0.13c0.11-0.04,0.21-0.08,0.32-0.12c0.19-0.08,0.37-0.16,0.56-0.24
			c0.15-0.07,0.3-0.15,0.45-0.23c0.16-0.09,0.33-0.18,0.48-0.29c0.2-0.14,0.4-0.28,0.6-0.43c0.32-0.25,0.62-0.54,0.89-0.87
			c0.23-0.29,0.44-0.62,0.6-0.98c0.15-0.32,0.27-0.65,0.38-0.98c0.09-0.27,0.17-0.55,0.23-0.83c0.07-0.29,0.14-0.57,0.2-0.86
			c0.04-0.2,0.07-0.4,0.11-0.6c0.03-0.15,0.05-0.3,0.07-0.45c0.03-0.19,0.05-0.38,0.07-0.58c0.01-0.12,0.02-0.24,0.03-0.36
			c0-0.03,0.01-0.06,0.02-0.09c0.01-0.03,0.02-0.06,0.04-0.07c0.04-0.04,0.09-0.03,0.11,0.03c0.01,0.03,0.02,0.06,0.02,0.09
			c0.01,0.15,0.02,0.3,0.03,0.45c0.02,0.24,0.04,0.48,0.06,0.72c0.01,0.14,0.04,0.28,0.05,0.41c0.01,0.13,0.03,0.26,0.06,0.38
			c0.01,0.03,0.01,0.06,0.01,0.1c0.01,0.12,0.03,0.23,0.06,0.34c0.01,0.03,0.01,0.06,0.02,0.1c0.02,0.08,0.03,0.16,0.05,0.23
			c0,0.01,0.01,0.02,0.01,0.03c0.03,0.15,0.06,0.29,0.1,0.44c0.03,0.13,0.07,0.25,0.11,0.37c0.03,0.09,0.06,0.18,0.09,0.27
			c0.06,0.2,0.14,0.39,0.22,0.57c0.08,0.17,0.16,0.35,0.25,0.52c0.1,0.2,0.22,0.39,0.35,0.56
			C150.38,192.77,150.45,192.87,150.53,192.97z"/>
	</g>
	<g>
		<path class="slpdsccn_st8" d="M869.19,276.97c0.54,0.68,1.12,1.27,1.73,1.82c0.55,0.49,1.12,0.93,1.72,1.34c0.58,0.39,1.16,0.76,1.77,1.09
			c0.55,0.31,1.11,0.58,1.67,0.86c0.43,0.21,0.87,0.41,1.31,0.6c0.31,0.13,0.63,0.24,0.95,0.36c0.37,0.13,0.73,0.25,1.1,0.37
			c0.09,0.03,0.18,0.05,0.27,0.08c0.37,0.09,0.74,0.18,1.11,0.27c0.06,0.02,0.13,0.04,0.19,0.08c0.09,0.07,0.1,0.17,0.02,0.26
			c-0.04,0.05-0.1,0.08-0.16,0.09c-0.12,0.03-0.24,0.03-0.36,0.06c-0.49,0.12-0.98,0.23-1.47,0.36c-0.6,0.16-1.18,0.38-1.76,0.61
			c-0.46,0.18-0.91,0.38-1.36,0.6c-0.51,0.24-1.02,0.5-1.52,0.77c-0.76,0.4-1.49,0.85-2.21,1.35c-0.76,0.54-1.48,1.13-2.16,1.81
			c-0.6,0.6-1.16,1.26-1.67,1.98c-0.5,0.7-0.93,1.46-1.31,2.26c-0.18,0.38-0.34,0.77-0.5,1.16c-0.18,0.44-0.34,0.89-0.5,1.35
			c-0.11,0.31-0.2,0.63-0.29,0.95c-0.11,0.39-0.21,0.78-0.32,1.17c0,0.02-0.01,0.03-0.02,0.05c-0.09,0.45-0.19,0.9-0.28,1.36
			c-0.1,0.5-0.18,1.01-0.26,1.52c-0.09,0.58-0.15,1.17-0.21,1.75c-0.04,0.42-0.1,0.84-0.14,1.26c-0.03,0.34-0.05,0.67-0.07,1.01
			c-0.01,0.11-0.03,0.22-0.05,0.32c-0.02,0.08-0.06,0.16-0.1,0.22c-0.1,0.14-0.23,0.12-0.29-0.05c-0.03-0.09-0.05-0.2-0.06-0.3
			c-0.05-0.48-0.1-0.96-0.15-1.45c-0.02-0.15-0.02-0.31-0.04-0.46c-0.06-0.48-0.11-0.96-0.18-1.44c-0.09-0.62-0.2-1.24-0.31-1.86
			c-0.08-0.44-0.17-0.89-0.26-1.33c-0.08-0.37-0.16-0.74-0.25-1.1c-0.17-0.68-0.34-1.35-0.54-2.02c-0.29-0.98-0.64-1.93-1.05-2.84
			c-0.63-1.37-1.46-2.55-2.42-3.59c-0.81-0.86-1.68-1.62-2.6-2.3c-0.91-0.68-1.87-1.25-2.85-1.76c-0.87-0.45-1.75-0.84-2.66-1.15
			c-0.81-0.28-1.63-0.51-2.46-0.63c-0.28-0.04-0.56-0.11-0.84-0.16c-0.09-0.02-0.17-0.01-0.26-0.03c-0.06-0.01-0.13-0.04-0.18-0.08
			c-0.08-0.07-0.07-0.18,0.02-0.24c0.03-0.02,0.07-0.03,0.1-0.04c0.07-0.01,0.14-0.02,0.21-0.03c0.57-0.03,1.13-0.09,1.68-0.21
			c0.47-0.1,0.93-0.22,1.39-0.34c0.35-0.09,0.69-0.22,1.03-0.34c0.28-0.1,0.56-0.2,0.83-0.31c0.49-0.2,0.97-0.41,1.45-0.64
			c0.39-0.18,0.79-0.38,1.17-0.59c0.43-0.24,0.85-0.48,1.26-0.75c0.53-0.36,1.05-0.73,1.56-1.13c0.84-0.65,1.62-1.4,2.31-2.26
			c0.61-0.77,1.14-1.61,1.57-2.54c0.38-0.82,0.71-1.68,0.99-2.56c0.23-0.71,0.43-1.43,0.6-2.17c0.18-0.74,0.36-1.49,0.52-2.24
			c0.11-0.52,0.19-1.05,0.28-1.57c0.07-0.39,0.13-0.77,0.19-1.16c0.07-0.5,0.13-1,0.18-1.5c0.03-0.31,0.05-0.62,0.08-0.94
			c0.01-0.08,0.02-0.16,0.04-0.23c0.02-0.07,0.06-0.14,0.11-0.19c0.1-0.1,0.22-0.07,0.28,0.07c0.03,0.07,0.05,0.15,0.06,0.23
			c0.03,0.39,0.06,0.78,0.09,1.18c0.05,0.62,0.09,1.25,0.15,1.87c0.03,0.36,0.1,0.72,0.13,1.08c0.03,0.34,0.07,0.67,0.14,1
			c0.02,0.08,0.03,0.17,0.04,0.25c0.03,0.3,0.07,0.6,0.16,0.88c0.02,0.08,0.03,0.17,0.05,0.25c0.04,0.2,0.09,0.4,0.13,0.61
			c0.01,0.03,0.02,0.06,0.02,0.09c0.09,0.38,0.17,0.76,0.26,1.14c0.09,0.33,0.19,0.65,0.29,0.97c0.07,0.24,0.16,0.47,0.23,0.7
			c0.17,0.51,0.35,1.01,0.57,1.49c0.21,0.45,0.41,0.9,0.64,1.34c0.26,0.52,0.57,1,0.9,1.47
			C868.8,276.46,868.99,276.71,869.19,276.97z"/>
	</g>
	<g>
		<path class="slpdsccn_st8" d="M886.52,294.07c0.25,0.35,0.52,0.66,0.8,0.95c0.25,0.26,0.52,0.49,0.79,0.7c0.27,0.21,0.54,0.4,0.82,0.57
			c0.25,0.16,0.51,0.3,0.77,0.45c0.2,0.11,0.4,0.21,0.61,0.31c0.14,0.07,0.29,0.13,0.44,0.19c0.17,0.07,0.34,0.13,0.51,0.19
			c0.04,0.02,0.08,0.03,0.12,0.04c0.17,0.05,0.34,0.09,0.51,0.14c0.03,0.01,0.06,0.02,0.09,0.04c0.04,0.03,0.05,0.09,0.01,0.13
			c-0.02,0.02-0.05,0.04-0.07,0.05c-0.06,0.01-0.11,0.01-0.17,0.03c-0.23,0.06-0.45,0.12-0.68,0.19c-0.28,0.08-0.55,0.2-0.81,0.32
			c-0.21,0.1-0.42,0.2-0.63,0.31c-0.24,0.13-0.47,0.26-0.7,0.4c-0.35,0.21-0.69,0.44-1.02,0.7c-0.35,0.28-0.68,0.59-1,0.94
			c-0.28,0.31-0.54,0.66-0.77,1.03c-0.23,0.37-0.43,0.76-0.61,1.18c-0.08,0.2-0.16,0.4-0.23,0.61c-0.08,0.23-0.16,0.46-0.23,0.7
			c-0.05,0.16-0.09,0.33-0.13,0.5c-0.05,0.2-0.1,0.41-0.15,0.61c0,0.01-0.01,0.02-0.01,0.03c-0.04,0.24-0.09,0.47-0.13,0.71
			c-0.04,0.26-0.08,0.53-0.12,0.79c-0.04,0.3-0.07,0.61-0.1,0.91c-0.02,0.22-0.05,0.44-0.07,0.66c-0.02,0.17-0.02,0.35-0.03,0.53
			c0,0.06-0.01,0.11-0.03,0.17c-0.01,0.04-0.03,0.08-0.05,0.12c-0.05,0.07-0.11,0.06-0.13-0.03c-0.02-0.05-0.02-0.1-0.03-0.16
			c-0.02-0.25-0.05-0.5-0.07-0.75c-0.01-0.08-0.01-0.16-0.02-0.24c-0.03-0.25-0.05-0.5-0.09-0.75c-0.04-0.32-0.09-0.65-0.14-0.97
			c-0.04-0.23-0.08-0.46-0.12-0.69c-0.04-0.19-0.07-0.38-0.11-0.57c-0.08-0.35-0.16-0.7-0.25-1.05c-0.13-0.51-0.29-1.01-0.49-1.48
			c-0.29-0.71-0.67-1.33-1.12-1.87c-0.37-0.45-0.78-0.84-1.2-1.2c-0.42-0.35-0.86-0.65-1.32-0.92c-0.4-0.23-0.81-0.44-1.23-0.6
			c-0.37-0.14-0.75-0.27-1.14-0.33c-0.13-0.02-0.26-0.06-0.39-0.09c-0.04-0.01-0.08,0-0.12-0.01c-0.03-0.01-0.06-0.02-0.08-0.04
			c-0.04-0.04-0.03-0.09,0.01-0.13c0.01-0.01,0.03-0.02,0.05-0.02c0.03-0.01,0.07-0.01,0.1-0.01c0.26-0.01,0.52-0.04,0.78-0.11
			c0.22-0.05,0.43-0.11,0.64-0.18c0.16-0.05,0.32-0.11,0.48-0.17c0.13-0.05,0.26-0.1,0.38-0.16c0.22-0.11,0.45-0.21,0.67-0.33
			c0.18-0.1,0.36-0.2,0.54-0.31c0.2-0.12,0.39-0.25,0.58-0.39c0.24-0.19,0.49-0.38,0.72-0.59c0.39-0.34,0.75-0.73,1.07-1.18
			c0.28-0.4,0.53-0.84,0.73-1.32c0.18-0.43,0.33-0.87,0.46-1.33c0.1-0.37,0.2-0.75,0.28-1.13c0.08-0.39,0.17-0.77,0.24-1.16
			c0.05-0.27,0.09-0.54,0.13-0.82c0.03-0.2,0.06-0.4,0.09-0.6c0.03-0.26,0.06-0.52,0.08-0.78c0.02-0.16,0.02-0.32,0.04-0.49
			c0-0.04,0.01-0.08,0.02-0.12c0.01-0.04,0.03-0.07,0.05-0.1c0.05-0.05,0.1-0.04,0.13,0.03c0.01,0.04,0.02,0.08,0.03,0.12
			c0.02,0.2,0.03,0.41,0.04,0.61c0.02,0.33,0.04,0.65,0.07,0.97c0.02,0.19,0.05,0.37,0.06,0.56c0.01,0.18,0.03,0.35,0.07,0.52
			c0.01,0.04,0.01,0.09,0.02,0.13c0.01,0.16,0.03,0.31,0.07,0.46c0.01,0.04,0.01,0.09,0.02,0.13c0.02,0.11,0.04,0.21,0.06,0.32
			c0,0.02,0.01,0.03,0.01,0.05c0.04,0.2,0.08,0.4,0.12,0.59c0.04,0.17,0.09,0.34,0.13,0.51c0.03,0.12,0.07,0.24,0.11,0.36
			c0.08,0.27,0.16,0.52,0.26,0.77c0.1,0.24,0.19,0.47,0.3,0.7c0.12,0.27,0.26,0.52,0.42,0.76
			C886.34,293.8,886.43,293.93,886.52,294.07z"/>
	</g>
	<g>
		<path class="slpdsccn_st8" d="M858.1,315.23c0.21,0.26,0.43,0.49,0.67,0.7c0.21,0.19,0.43,0.36,0.66,0.52c0.22,0.15,0.45,0.29,0.68,0.42
			c0.21,0.12,0.43,0.22,0.64,0.33c0.17,0.08,0.34,0.16,0.5,0.23c0.12,0.05,0.24,0.09,0.36,0.14c0.14,0.05,0.28,0.1,0.42,0.14
			c0.03,0.01,0.07,0.02,0.1,0.03c0.14,0.03,0.28,0.07,0.43,0.1c0.02,0.01,0.05,0.02,0.07,0.03c0.04,0.03,0.04,0.07,0.01,0.1
			c-0.02,0.02-0.04,0.03-0.06,0.04c-0.05,0.01-0.09,0.01-0.14,0.02c-0.19,0.04-0.38,0.09-0.56,0.14c-0.23,0.06-0.45,0.15-0.68,0.24
			c-0.18,0.07-0.35,0.15-0.52,0.23c-0.2,0.09-0.39,0.19-0.59,0.3c-0.29,0.15-0.57,0.33-0.85,0.52c-0.29,0.21-0.57,0.44-0.83,0.69
			c-0.23,0.23-0.44,0.48-0.64,0.76c-0.19,0.27-0.36,0.56-0.51,0.87c-0.07,0.15-0.13,0.3-0.19,0.45c-0.07,0.17-0.13,0.34-0.19,0.52
			c-0.04,0.12-0.08,0.24-0.11,0.37c-0.04,0.15-0.08,0.3-0.12,0.45c0,0.01,0,0.01-0.01,0.02c-0.04,0.17-0.07,0.35-0.11,0.52
			c-0.04,0.19-0.07,0.39-0.1,0.58c-0.03,0.22-0.06,0.45-0.08,0.67c-0.02,0.16-0.04,0.32-0.05,0.49c-0.01,0.13-0.02,0.26-0.03,0.39
			c0,0.04-0.01,0.08-0.02,0.13c-0.01,0.03-0.02,0.06-0.04,0.09c-0.04,0.05-0.09,0.05-0.11-0.02c-0.01-0.04-0.02-0.08-0.02-0.12
			c-0.02-0.19-0.04-0.37-0.06-0.56c-0.01-0.06-0.01-0.12-0.01-0.18c-0.02-0.18-0.04-0.37-0.07-0.55c-0.04-0.24-0.08-0.48-0.12-0.72
			c-0.03-0.17-0.07-0.34-0.1-0.51c-0.03-0.14-0.06-0.28-0.1-0.42c-0.07-0.26-0.13-0.52-0.21-0.78c-0.11-0.38-0.24-0.74-0.41-1.09
			c-0.24-0.53-0.56-0.98-0.93-1.38c-0.31-0.33-0.64-0.62-1-0.89c-0.35-0.26-0.72-0.48-1.1-0.68c-0.33-0.17-0.67-0.32-1.02-0.44
			c-0.31-0.11-0.63-0.2-0.95-0.24c-0.11-0.02-0.22-0.04-0.32-0.06c-0.03-0.01-0.07,0-0.1-0.01c-0.02-0.01-0.05-0.02-0.07-0.03
			c-0.03-0.03-0.03-0.07,0.01-0.09c0.01-0.01,0.03-0.01,0.04-0.02c0.03-0.01,0.05-0.01,0.08-0.01c0.22-0.01,0.43-0.03,0.65-0.08
			c0.18-0.04,0.36-0.08,0.54-0.13c0.13-0.03,0.27-0.08,0.4-0.13c0.11-0.04,0.21-0.08,0.32-0.12c0.19-0.08,0.37-0.16,0.56-0.24
			c0.15-0.07,0.3-0.15,0.45-0.23c0.16-0.09,0.33-0.18,0.48-0.29c0.2-0.14,0.4-0.28,0.6-0.43c0.32-0.25,0.62-0.54,0.89-0.87
			c0.23-0.29,0.44-0.62,0.6-0.98c0.15-0.32,0.27-0.65,0.38-0.98c0.09-0.27,0.17-0.55,0.23-0.83c0.07-0.29,0.14-0.57,0.2-0.86
			c0.04-0.2,0.07-0.4,0.11-0.6c0.03-0.15,0.05-0.3,0.07-0.45c0.03-0.19,0.05-0.38,0.07-0.58c0.01-0.12,0.02-0.24,0.03-0.36
			c0-0.03,0.01-0.06,0.02-0.09c0.01-0.03,0.02-0.06,0.04-0.07c0.04-0.04,0.09-0.03,0.11,0.03c0.01,0.03,0.02,0.06,0.02,0.09
			c0.01,0.15,0.02,0.3,0.03,0.45c0.02,0.24,0.04,0.48,0.06,0.72c0.01,0.14,0.04,0.28,0.05,0.41c0.01,0.13,0.03,0.26,0.06,0.38
			c0.01,0.03,0.01,0.06,0.01,0.1c0.01,0.12,0.03,0.23,0.06,0.34c0.01,0.03,0.01,0.06,0.02,0.1c0.02,0.08,0.03,0.16,0.05,0.23
			c0,0.01,0.01,0.02,0.01,0.03c0.03,0.15,0.06,0.29,0.1,0.44c0.03,0.13,0.07,0.25,0.11,0.37c0.03,0.09,0.06,0.18,0.09,0.27
			c0.06,0.2,0.14,0.39,0.22,0.57c0.08,0.17,0.16,0.35,0.25,0.52c0.1,0.2,0.22,0.39,0.35,0.56
			C857.95,315.03,858.03,315.13,858.1,315.23z"/>
	</g>
</g>
</svg>
