<?xml version="1.0" encoding="utf-8"?>
<!-- Generator: Adobe Illustrator 26.4.1, SVG Export Plug-In . SVG Version: 6.00 Build 0)  -->
<svg version="1.1" id="Together_Lets_Walk" xmlns="http://www.w3.org/2000/svg" xmlns:xlink="http://www.w3.org/1999/xlink" x="0px"
	 y="0px" viewBox="0 0 1080 520" style="enable-background:new 0 0 1080 520;" xml:space="preserve">
<style type="text/css">
	.st0{clip-path:url(#SVGID_00000031899292662405968720000009979990944477728418_);fill:#ECF5F8;}
	.st1{fill:#504480;}
	.st2{fill:#3B2C72;}
	.st3{fill:#FCFF2C;}
</style>
<g>
	<g id="Cloud_Bubble">
		<defs>
			<rect id="SVGID_1_" x="75" y="20" width="930" height="481.47"/>
		</defs>
		<clipPath id="SVGID_00000102503273031580321850000010046202852619506817_">
			<use xlink:href="#SVGID_1_"  style="overflow:visible;"/>
		</clipPath>
		<path style="clip-path:url(#SVGID_00000102503273031580321850000010046202852619506817_);fill:#ECF5F8;" d="M1004.3,301.63
			c0.64,8.22-0.38,16.46-1.86,24.53c-1.67,8.95-4.14,17.77-7.57,26.21c-3.89,9.57-8.81,18.81-15.35,26.85
			c-9.37,11.48-20.89,21.23-33.86,28.42c-8.55,4.81-17.67,8.62-27.18,11.05c-6.48,1.72-13.08,2.99-19.77,3.48
			c-12.76,0.86-25.6-0.43-38.1-3c-8.25-1.7-16.36-4.01-24.54-6.01c-5.13-1.26-10.3-2.4-15.56-2.93c-8.22-0.9-16.53,0.09-24.59,1.69
			c-9.5,1.9-18.85,4.47-28.13,7.25c-10.81,3.2-21.59,6.53-32.52,9.31c-9.59,2.39-19.84,4.16-29.54,1.38
			c-4.97-1.42-9.61-3.76-14.17-6.18c-7.65-4.08-15.02-8.7-22.82-12.5c-6.85-3.37-14.09-5.9-21.5-7.7c-4.14-1-8.26-1.75-12.49-2.12
			c-4.24-0.34-8.51-0.23-12.75,0.17c-4.57,0.39-9.1,1.13-13.53,2.33c-4.92,1.3-9.66,3.15-14.36,5.08
			c-9.08,3.77-17.88,8.2-26.24,13.37c-21.55,13.43-40.98,29.94-62.3,43.71c-5.16,3.26-10.51,6.26-16.16,8.58
			c-7.86,3.26-16.22,5.32-24.7,5.98c-8.14,0.64-16.36-0.07-24.3-1.89c-8.12-1.85-15.97-4.73-24.11-6.49
			c-12.71-2.9-25.9-3.25-38.82-1.7c-16.65,1.97-33.06,5.62-49.27,9.84c-19.36,5.07-38.45,11.27-58.07,15.32
			c-18.52,3.83-37.45,5.49-56.35,5.61c-15.34,0.11-30.67-1.38-45.75-4.15c-20.76-3.8-41.28-10.35-59.22-21.65
			c-5.01-3.22-9.78-6.89-13.75-11.35c-4.57-5.21-8.07-11.52-9.36-18.37c-0.88-4.71-0.52-9.56,0.13-14.28
			c2-12.39,7.91-23.71,14.14-34.46c4.12-7.15,8.81-14.02,12.3-21.51c2.08-4.51,3.71-9.27,4.36-14.21c0.32-2.88,0.31-5.82-0.08-8.7
			c-0.34-2.35-1.07-4.63-1.94-6.84c-1.75-4.38-4.29-8.42-7.15-12.15c-2.13-2.7-4.53-5.17-6.87-7.69c-4.28-4.61-8.66-9.16-12.6-14.07
			c-4.91-6.1-9.22-12.83-11.8-20.27c-0.9-3.43-1.14-7.07-0.62-10.59c0.36-2.58,1.26-5.05,2.19-7.48c3.09-7.73,8.78-14.03,14.9-19.54
			c11.29-10.36,24.19-19.05,38.21-25.26c9.04-3.84,18.5-6.53,27.87-9.42c17.72-5.51,35.43-11.04,53.19-16.43
			c7.95-2.43,15.69-5.5,23.09-9.26c2.48-1.27,4.92-2.61,7.24-4.16c1.68-1.18,3.4-2.45,4.61-4.11c0.86-1.18,1.18-2.92,0.19-4.11
			c-0.97-1.04-2.41-1.4-3.74-1.77c-4.37-1.06-8.86-1.57-13.31-2.18c-9.26-1.27-18.65-1.92-27.76-4.09
			c-10.21-2.57-21.13-8.5-28.2-16.37c-1.6-1.82-2.97-3.83-4.09-5.97c-1.57-3.34-2.08-7.13-2.03-10.79c0.04-3.1,0.84-6.12,1.84-9.04
			c1.24-3.99,3.39-7.65,6.24-10.71c2.75-3.19,6.16-5.73,9.76-7.88c7.47-4.56,15.48-8.13,23.51-11.57
			c12.33-5.04,24.91-9.54,37.73-13.19c13.35-3.83,27-6.46,40.63-9.09c6.55-1.26,13.11-2.52,19.72-3.48
			c9.79-1.61,19.73-1.44,29.62-1.55c8.68-0.17,17.37-0.67,25.96-1.91c5.56-0.82,11.13-1.88,16.42-3.74c0,0,0,0,0,0
			c1.87-0.97,3.56-2.23,5.34-3.34c5.14-3.17,10.23-6.46,15.68-9.06c4.16-1.99,8.53-3.49,12.98-4.69c3.33-0.88,6.73-1.47,10.12-2.05
			c1.09-0.17,2.17-0.34,3.26-0.51c0.27-0.07,0.55-0.13,0.83-0.18c0.45-0.08,0.91-0.15,1.37-0.2c3.02-0.54,6.06-0.97,9.1-1.31
			c8.82-1.16,17.73-1.57,26.62-1.45c16.27,0.09,32.57,0.85,48.69,3.16c8.42,1.19,16.81,2.63,25.08,4.62
			c8.77,2.17,17.49,4.82,26.41,6.27c14.42,2.5,29.13,0.01,43.38-2.53c31.25-5.77,61.7-15.06,91.89-24.87
			c7.65-2.39,15.36-4.63,23.21-6.24c10.07-2.11,20.27-3.51,30.55-4.05c21-1.39,42.46,1.17,62.04,9.1
			c6.52,2.59,12.74,5.83,18.82,9.32c15.33,8.68,30.49,18.03,47.25,23.73c9.96,3.55,20.35,5.64,30.77,7.24
			c20.2,3.2,40.78,6.26,59.48,14.98c8.91,4.09,17.46,9.58,23.55,17.38c1.79,2.43,3.15,5.14,4.29,7.92c1.14,2.9,1.71,6,1.8,9.12
			c0.24,9.75-4.61,18.04-10.74,25.24c-6.02,7.19-12.98,13.51-19.78,19.95c-8.93,8.5-17.94,17.42-23.52,28.56
			c-1.33,2.73-2.72,5.47-3.35,8.46c-1.68,7.29,0.03,13.5,5.46,18.6c5.19,4.89,11.01,9.06,16.39,13.74
			c5.4,4.59,10.38,9.67,15.02,15.03c6.13,7.09,11.8,14.74,15.53,23.39c1.71,3.9,2.95,7.97,4.2,12.03
			C1002.69,290.56,1003.91,296.05,1004.3,301.63z"/>
	</g>
	<g>
		<path class="st1" d="M649.19,262.62c0.07,1.4,0.19,2.81,0.2,4.21c0.14,21.8,0.26,43.6,0.4,65.4c0.02,3.46,0.19,6.91-0.13,10.38
			c-0.24,2.56-0.65,5.09-1.3,7.57c-2.75,10.58-9.05,18.22-18.95,22.88c-4.09,1.92-8.35,3.31-12.77,4.13
			c-7.06,1.32-13.19-0.5-18.2-5.81c-2.49-2.63-4.47-5.61-6.25-8.73c-1.34-2.34-2.62-4.7-3.95-7.04c-0.57-1-1.21-1.97-2.14-2.69
			c-0.88-0.69-2.01-0.56-2.74,0.31c-0.83,1-1.33,2.18-1.73,3.41c-0.96,2.92-1.94,5.84-2.87,8.77c-1.36,4.28-2.88,8.5-4.78,12.57
			c-4.04,8.64-9.55,16.09-17.56,21.46c-5.46,3.66-11.32,6.5-17.72,8.19c-2.27,0.6-4.55,0.76-6.86,0.61
			c-3.86-0.26-6.79-2.09-8.83-5.36c-1.52-2.44-2.35-5.14-2.73-7.95c-0.34-2.54-0.6-5.1-0.61-7.66c-0.07-17.06-0.67-34.1-1.11-51.15
			c-0.08-3.33-0.32-6.66-0.45-9.99c-0.05-1.4,0-2.81,0.01-4.22c1.74-0.42,2.22-2.03,2.93-3.31c2.3-4.15,3.97-8.58,5.22-13.14
			c1.22-4.41,2.08-8.92,3.28-13.34c1.74-6.4,3.49-12.81,6.49-18.78c1.72-3.42,3.83-6.58,6.24-9.59c4.39-5.5,9.7-8.93,16.93-8.81
			c1.5,1.77,1.77,3.91,1.87,6.11c0.18,3.87-0.41,7.65-1.28,11.4c-1.26,5.49-3.03,10.83-4.64,16.22c-1.21,4.04-2.4,8.09-3.02,12.28
			c-0.24,1.66-0.36,3.3,0.17,4.93c0.49,1.52,1.52,2.37,3.08,2.46c2.73,0.17,5.05-0.6,6.57-3.09c0.94-1.54,1.64-3.18,2.2-4.89
			c1.28-3.89,2.52-7.79,3.81-11.67c0.85-2.55,1.91-5.02,3.25-7.36c1.59-2.78,3.77-4.83,6.94-5.66c1.36-0.35,2.71-0.75,4.09-0.99
			c5.14-0.92,9.31,0.76,12.55,4.81c1.53,1.91,2.65,4.07,3.8,6.21c0.67,1.24,1.28,2.52,2.32,3.5c1.14,1.07,2.66,1.02,3.76-0.11
			c1.02-1.05,1.55-2.37,1.68-3.79c0.16-1.78,0.17-3.57,0.21-5.36c0.03-1.15-0.01-2.3-0.02-3.44c0.64,0.03,1.33-0.08,1.91,0.12
			c1.62,0.56,3.2,0.87,4.83,0.05c0.32-0.16,0.75-0.11,1.14-0.14c2.84-0.16,5.57-0.91,8.15-2.01c5.41-2.31,10.74-4.81,16.11-7.22
			C642.18,265.73,645.69,264.18,649.19,262.62z"/>
		<path class="st1" d="M417.02,248.83c1.49-0.7,3-1.36,4.48-2.09c2.05-1.02,2.92-2.68,2.76-4.99c-0.12-1.8-0.62-3.5-1.08-5.22
			c0.54-1.14,1.34-2.09,1.79-3.33c1.88-5.27,3.92-10.48,5.98-15.69c1.45-3.67,2.8-7.4,4.59-10.9c2.21-4.31,5-8.22,8.62-11.58
			c4.85-4.5,10.29-5.76,16.54-3.92c1.22,0.36,2.41,0.84,3.71,0.79c0.09,0.76,0.26,1.52,0.26,2.27c0.02,6.93,0.19,13.86-0.03,20.78
			c-0.29,8.73-1.39,17.37-3.73,25.83c-3.94,14.26-11.59,26.18-22.65,35.93c-12.93,11.41-27.95,18.95-44.45,23.68
			c-14.07,4.03-28.43,5.41-43.02,4.56c-6.04-0.35-11.97-1.38-17.76-3.15c-1.83-0.56-3.63-1.28-5.39-2.03
			c-8.33-3.53-12.88-9.85-13.76-18.83c-0.44-4.47-0.97-8.92-0.1-13.41c1.17-6.04,4.37-9.31,10.42-10.15
			c2.15-0.3,4.35-0.39,6.53-0.33c5.64,0.15,11.28,0.41,16.92,0.69c5.77,0.29,11.54,0.31,17.3-0.1c4.73-0.34,9.45-0.77,14.18-1.13
			c0.89-0.07,1.79-0.01,2.68-0.02c1.53-0.06,2.32,1.13,2.96,2.12c1.75,2.73,4.12,4.86,6.43,7.02c4.04,3.77,7.09,4.2,11.56,1.1
			c0.62-0.43,1.32-0.79,1.86-1.32c3.1-3.01,6.41-5.88,8.68-9.58C414.69,253.6,416.63,251.6,417.02,248.83z"/>
		<path class="st2" d="M527.1,180.79c-3.07,1.87-6.39,3.28-9.75,4.43c-5.71,1.95-7.76,6.21-8.41,11.65
			c-0.14,1.18,0.03,2.3,0.45,3.38c0.93,2.41,2.48,3.24,5.11,2.73c0.37-0.07,0.74-0.18,1.11-0.28c0.39,0.8,0.81,1.51,0.13,2.46
			c-2.3,3.21-4.29,6.68-6.82,9.7c-3.37,4.02-7.17,7.58-12.06,9.91c-3.78,1.81-7.12,0.78-9.43-2.36c-2.5-3.39-4.83-6.9-6.88-10.58
			c-2.05-3.68-4.31-7.24-6.9-10.56c-1.07-1.37-2.1-2.95-4.05-3.3c-0.24-3.71-0.65-7.41-0.7-11.12c-0.14-9.87-0.25-19.75-0.14-29.62
			c0.09-8.47,0.68-16.91,2.18-25.27c0.68-3.79,1.67-7.5,3.1-11.09c2.41-6.03,6.34-10.79,11.8-14.29c3.03-1.94,6.27-3.48,9.6-4.85
			c13.58-5.59,27.62-9.47,42.24-11.18c3.7-0.43,7.42-0.49,11.14-0.24c2.06,0.14,4.07,0.57,5.93,1.5c2.13,1.06,3.34,2.71,3.32,5.18
			c-0.04,6.21-0.84,12.28-3.22,18.06c-2.22,5.39-5.9,9.57-10.79,12.69c-4.89,3.12-10.17,5.42-15.68,7.19
			c-4.27,1.37-8.56,2.67-12.84,4.03c-3.2,1.02-5.62,3.02-7.21,5.98c-0.93,1.73-1.41,3.58-1.22,5.56c0.17,1.77,1.15,2.78,2.96,2.95
			c1.68,0.16,3.31-0.11,4.94-0.56c4.71-1.31,9.11-3.41,13.62-5.25c2.61-1.06,5.23-2.09,7.9-3.01c1.32-0.46,2.73-0.71,4.12-0.9
			c1.55-0.21,3.07-0.09,4.2,1.23c-0.06,0.75,0.1,1.6-0.48,2.18c-1.28,1.29-1.93,2.98-2.95,4.42c-4.74,6.67-8.15,14.05-11.68,21.37
			C528.53,175.4,527.02,177.86,527.1,180.79z"/>
		<path class="st1" d="M748.01,312.68c0.1,1.01,0.27,2.03,0.27,3.04c0.01,13.08,0,26.15-0.01,39.23c0,2.83-0.17,5.63-1,8.37
			c-1.38,4.51-4.42,7.15-9.02,7.84c-5.64,0.85-11.26,0.45-16.76-1.08c-5.31-1.47-8.47-5.03-9.63-10.41
			c-0.55-2.52-0.76-5.06-0.76-7.63c-0.01-7.05-0.05-14.1-0.71-21.13c-0.28-2.94-0.65-5.88-1.75-8.63c-1.25-3.11-3.67-4.47-7.02-4.13
			c-1.93,0.2-3.38,1.11-4.31,2.82c-0.81,1.48-1.3,3.08-1.52,4.73c-0.35,2.66-0.74,5.34-0.84,8.02c-0.21,5.89-0.25,11.79-0.37,17.68
			c-0.06,2.95-0.22,5.88-0.97,8.76c-1.25,4.8-4.24,7.75-9.06,8.92c-4.04,0.98-8.14,0.89-12.23,0.79c-2.18-0.05-4.34-0.24-6.46-0.86
			c-4.19-1.23-6.76-3.94-7.9-8.13c-0.61-2.25-0.84-4.53-0.88-6.84c-0.44-24.48-0.64-48.96,0.33-73.43
			c0.27-6.78,0.47-13.58,1.61-20.29c2.78,0.19,5.53-0.25,8.34-0.1c4.45,0.24,8.59,1.38,12.58,3.08c7.13,3.04,13.44,7.37,18.92,12.88
			c2.25,2.27,4.38,4.64,6.46,7.08c2.89,3.42,5.6,6.96,8.31,10.51c3.34,4.37,6.7,8.7,10.69,12.54c4.33,4.17,9.47,6.41,15.35,7.09
			c1.12,0.13,2.36,0.09,3.42-0.25C744.71,312.62,746.35,312.72,748.01,312.68z"/>
		<path class="st1" d="M815.05,122.57c-2.65,3.65-6.45,5.3-10.7,6.14c-1.76,0.35-3.56,0.5-5.32,0.83c-1.62,0.3-2.15,1.19-1.73,2.77
			c0.43,1.63,1.27,3.08,2.15,4.49c2.24,3.59,4.53,7.15,6.82,10.71c3.33,5.18,6.54,10.43,9.25,15.97c2.14,4.39,4.04,8.87,5.12,13.66
			c0.17,0.75,0.41,1.5,0.48,2.26c0.51,6.29,0.37,12.56-0.79,18.77c-0.16,0.87-0.5,1.73-0.86,2.54c-0.83,1.87-2.24,3.07-4.26,3.56
			c-1.51,0.37-3.03,0.48-4.58,0.3c-5.24-0.61-10.32-1.96-15.37-3.44c-3.35-0.98-5.76-3.28-7.75-6.04c-2.12-2.93-3.63-6.18-4.89-9.56
			c-2.3-6.14-3.83-12.5-5.27-18.88c-1.3-5.75-2.54-11.52-3.88-17.26c-0.76-3.25-1.7-6.45-3.14-9.48c-0.67-1.4-1.45-2.72-2.75-3.65
			c-1.49-1.07-3.01-0.74-3.81,0.94c-0.67,1.4-0.99,2.9-1.14,4.45c-0.46,4.73-0.57,9.47-0.4,14.22c0.26,7.18,0.39,14.36,0.56,21.54
			c0.03,1.41-0.1,2.82-0.04,4.23c0.15,4-2.24,7.33-6.88,8.53c-1.99,0.52-4.03,0.8-6.1,0.7c-4.75-0.23-9.45-0.85-14.03-2.2
			c-0.98-0.29-1.93-0.69-2.86-1.12c-3.73-1.71-6.11-4.56-7.16-8.53c-0.57-2.13-0.82-4.28-0.78-6.47c0.05-2.82,0.1-5.64,0.19-8.46
			c0.25-7.95,0.52-15.9,0.8-23.85c0.03-0.76,0.2-1.51,0.31-2.26c1.17,0.01,2.2-0.28,3.22-0.98c4-2.73,8-5.42,11.72-8.56
			c4.37-3.69,9.07-6.99,13.47-10.64c3.83-3.18,7.79-6.15,12.03-8.74c4.42-2.71,9.3-4.1,14.39-4.84c2.55-0.37,5.03,0.03,7.57,0.5
			c7.25,1.36,13.43,4.61,18.71,9.71c2.03,1.96,3.94,4.02,5.33,6.48C813.21,121.92,813.92,122.53,815.05,122.57z"/>
		<path class="st2" d="M464.42,191.9c-1.31,0.05-2.49-0.43-3.71-0.79c-6.25-1.84-11.69-0.57-16.54,3.92
			c-3.62,3.36-6.41,7.27-8.62,11.58c-1.79,3.5-3.14,7.23-4.59,10.9c-2.06,5.2-4.11,10.41-5.98,15.69c-0.44,1.25-1.25,2.19-1.79,3.33
			c-1.9-2.23-4.42-2.93-7.22-2.89c-1.28,0.02-2.56,0.12-3.84,0.2c-2.18,0.13-4.34,0.12-6.52-0.14c-5.15-0.62-9.13-3.14-12.17-7.26
			c-2.15-2.91-3.66-6.16-4.84-9.57c-1.95-5.59-3.04-11.38-3.83-17.23c-0.82-5.98-1.14-12-1.26-18.02
			c-0.23-11.86,0.93-23.55,5.06-34.79c1.33-3.62,3.01-7.07,5.16-10.28c5.46-8.19,12.9-13.4,22.69-15.08
			c4.69-0.81,9.39-1.16,14.15-0.57c7.9,0.98,14.34,4.5,19.33,10.67c3.18,3.93,5.42,8.38,7.2,13.08c2.61,6.86,4.12,14,5.23,21.23
			c1.27,8.24,1.8,16.56,2.23,24.88C464.56,191.14,464.46,191.52,464.42,191.9z M404.84,182.88c0,2.04-0.13,4.1,0.03,6.13
			c0.25,3.06,0.76,6.09,2.17,8.88c1.55,3.07,4.05,4.54,7.48,4.25c5.4-0.44,10.03-2.8,11.57-9.39c1.47-6.29,1.47-12.68,0.11-19.02
			c-0.51-2.4-1.56-4.59-3.28-6.41c-1.17-1.24-2.53-2.15-4.24-2.44c-5.99-1-11.84,2.91-13.35,8.84
			C404.57,176.75,404.67,179.82,404.84,182.88z"/>
		<path class="st1" d="M703.07,131.8c0.37,0.04,0.75,0.08,1.12,0.12c0.47,2.47,1.95,4.43,3.61,6.12c5.38,5.46,3.28,4.51,10.41,4.48
			c0.98,1.13,1.04,2.58,1.31,3.94c0.48,2.52,0.81,5.06,0.8,7.64c-0.03,5.51-0.04,11.02-0.15,16.53c-0.06,2.82-0.47,5.62-1.34,8.32
			c-1.28,3.96-3.86,6.63-7.93,7.62c-6.05,1.48-12.17,1.76-18.29,0.56c-3.29-0.65-5.43-2.67-6.31-5.99
			c-0.47-1.76-0.65-3.53-0.66-5.32c-0.01-2.95,0.02-5.89,0.05-8.84c0.02-1.95-0.29-3.84-0.97-5.65c-1.1-2.92-3.25-4.64-6.35-4.79
			c-6.15-0.3-13.36,1.74-15.68,10.66c-0.48,1.85-0.76,3.77-0.97,5.67c-0.28,2.54-0.42,5.11-0.61,7.66
			c-0.34,4.53-2.47,7.78-6.85,9.27c-6.33,2.16-12.79,3.75-19.52,3.79c-6.35,0.04-9.46-2.66-10.44-8.91
			c-0.26-1.64-0.31-3.32-0.26-4.98c0.43-16.14,0.9-32.28,1.35-48.42c0.17-6.02,0.3-12.04,0.51-18.06c0.04-1.26-0.23-2.57,0.45-3.76
			c1.57,0.07,2.52-1.15,3.68-1.85c5.87-3.56,11.58-7.38,18.1-9.75c3.23-1.17,6.45-2.36,9.96-2.23c1.07,0.04,2-0.3,2.92-0.76
			c1.79,1.7,2.16,3.97,2.41,6.24c0.34,3.04,0.38,6.09,0.24,9.15c-0.2,4.71-0.37,9.42,0.31,14.11c0.83,5.65,2.82,7.39,8.63,7.42
			c1.65,0.01,3.3,0.01,4.95,0.02c2.41-0.02,4.82-0.06,7.23-0.06C690.88,131.75,696.98,131.78,703.07,131.8z"/>
		<path class="st2" d="M429.55,420.94c0.07-0.76,0.06-1.53,0.22-2.26c0.45-2.15,0.48-4.33,0.5-6.5c0.02-2.09-1.09-3.34-2.99-3.97
			c-1.59-0.53-3.24-0.78-4.91-0.8c-2.95-0.03-5.9-0.06-8.84-0.12c-4.24-0.09-8.45-0.52-12.57-1.54
			c-10.41-2.58-17.54-8.87-20.65-19.19c-4.52-15.01-2.87-29.24,6.68-41.98c11.64-15.52,27.14-24.67,46.51-26.95
			c5.68-0.67,11.26,0.04,16.66,1.95c3.04,1.08,5.88,2.57,8.35,4.66c6.82,5.77,9.81,12.98,7.95,21.89
			c-2.07,9.89-7.65,17.18-16.53,21.94c-1.58,0.85-3.27,1.44-5.04,1.83c-3.47,0.78-6.33-0.21-8.61-2.89
			c-0.83-0.97-1.52-2.06-2.26-3.1c-0.59-0.83-1.12-1.73-1.77-2.51c-1.81-2.19-3.45-2.63-6.13-1.61c-4.3,1.65-6.99,4.66-7.52,9.34
			c-0.17,1.52-0.15,3.07-0.21,4.6c-0.07,1.9,0.88,3.21,2.54,3.92c1.29,0.54,2.66,0.98,4.03,1.2c2.4,0.39,4.83,0.61,7.25,0.83
			c3.57,0.32,7.16,0.54,10.73,0.87c1.14,0.11,2.25,0.44,3.38,0.67c0.21,0.59,0.56,1.16,0.2,1.82c-0.56,1-1.06,2.04-1.66,3.02
			c-1.86,3.06-3.45,6.25-4.78,9.59c-1.94,4.85-3.63,9.79-5.23,14.76c-0.82,2.55-1.78,5.05-2.74,7.55c-0.32,0.83-0.81,1.59-1.24,2.38
			C430.58,420.87,430.07,420.93,429.55,420.94z"/>
		<path class="st2" d="M748.01,312.68c-1.66,0.04-3.3-0.06-4.95,0.47c-1.06,0.34-2.29,0.38-3.42,0.25
			c-5.88-0.68-11.01-2.93-15.35-7.09c-3.99-3.83-7.35-8.17-10.69-12.54c-2.71-3.55-5.42-7.09-8.31-10.51
			c-2.07-2.45-4.2-4.81-6.46-7.08c-5.48-5.51-11.79-9.84-18.92-12.88c-3.99-1.7-8.13-2.84-12.58-3.08c-2.81-0.15-5.56,0.29-8.34,0.1
			c0.77-10.53,2.62-20.82,6.7-30.61c0.79-1.88,1.77-3.7,2.82-5.45c4.12-6.9,10.07-11.51,17.73-13.88c5.3-1.64,10.75-2.3,16.29-2.41
			c6.17-0.12,12.29,0.07,18.32,1.59c8.73,2.19,15.11,7.26,19.08,15.37c2.44,4.99,3.9,10.29,4.92,15.72
			c1.35,7.18,2.03,14.45,2.49,21.75c1,15.61,0.79,31.25,0.93,46.87C748.29,310.39,748.1,311.54,748.01,312.68z M710.14,271.7
			c0.78-0.06,1.93-0.14,3.07-0.25c3.05-0.3,4.88-2.01,5.59-4.95c0.94-3.92,1.04-7.85,0-11.76c-1.21-4.54-4.05-7.58-8.52-9.09
			c-2.59-0.88-5.25-1.07-7.95-0.85c-3.8,0.32-6.38,2.34-7.94,5.77c-0.91,2.01-1.18,4.18-1.39,6.34c-0.59,6.29,2.53,11.23,8.48,13.47
			C704.16,271.39,706.95,271.64,710.14,271.7z"/>
		<path class="st2" d="M314.91,224.9c-1.79-4.71-2.61-9.65-3.24-14.6c-1.74-13.89-2.13-27.86-1.62-41.84
			c0.24-6.42,1.21-12.75,3.07-18.92c1.16-3.82,2.74-7.45,4.99-10.77c4.5-6.67,10.81-10.53,18.73-11.48
			c5.99-0.72,12.03-0.59,17.99,0.67c8.06,1.71,13.92,6.24,17.5,13.67c2.08,4.32,3.25,8.91,3.85,13.63c0.42,3.3,0.71,6.63,0.84,9.95
			c0.24,6.28,0.37,12.56,0.47,18.84c0.14,9.49-0.16,18.97-1.26,28.41c-0.77,6.63-2.04,13.17-4.43,19.44c-0.5,1.31-0.91,2.67-1.8,3.8
			c-1.15,0.02-1.85-0.75-2.57-1.48c-2.44-2.45-4.89-4.89-7.32-7.34c-2.11-2.12-4.62-3.64-7.35-4.77
			c-5.62-2.31-11.55-2.25-17.37-1.52c-4.39,0.55-8.73,1.75-12.98,3.15C320,224.51,317.53,225.24,314.91,224.9z M354.3,189.58
			c-0.11-1.57-0.16-3.62-0.41-5.65c-0.38-3.07-1.17-6.03-2.94-8.63c-2.2-3.23-5.54-4.54-9.33-3.79c-2.93,0.58-5.14,2.19-6.82,4.59
			c-1.26,1.8-2,3.83-2.51,5.97c-1.08,4.5-0.31,8.9,0.57,13.3c0.48,2.39,1.33,4.67,2.54,6.8c1.28,2.27,2.93,4.19,5.21,5.51
			c3.68,2.11,7.65,1.28,10.19-2.14c1.16-1.56,1.85-3.34,2.36-5.21C354.1,196.96,354.15,193.51,354.3,189.58z"/>
		<path class="st2" d="M815.05,122.57c-1.14-0.05-1.84-0.65-2.39-1.63c-1.39-2.47-3.3-4.52-5.33-6.48
			c-5.28-5.1-11.46-8.35-18.71-9.71c-2.54-0.48-5.02-0.87-7.57-0.5c-5.08,0.74-9.97,2.13-14.39,4.84c-4.24,2.6-8.2,5.57-12.03,8.74
			c-4.4,3.65-9.1,6.95-13.47,10.64c-3.72,3.14-7.72,5.83-11.72,8.56c-1.02,0.7-2.04,0.99-3.22,0.98c-0.04-0.64-0.13-1.27-0.12-1.91
			c0.33-20.12,0.67-40.24,0.99-60.37c0.05-3.35,0.41-6.64,1.43-9.85c2.44-7.74,7.46-13,15.08-15.77c5.65-2.05,11.5-2.47,17.43-1.99
			c10.92,0.89,21.51,3.26,31.67,7.44c5.59,2.3,10.88,5.16,15.7,8.82c2.87,2.18,5.47,4.64,7.75,7.44c4.7,5.78,7.19,12.34,7.06,19.84
			c-0.1,6.16-0.53,12.29-2.02,18.3c-0.99,4.01-2.41,7.84-4.84,11.22C815.99,121.7,815.49,122.11,815.05,122.57z M779.24,96.44
			c1.41-0.01,2.81,0.03,4.19-0.37c2.96-0.87,4.54-2.67,4.8-5.75c0.24-2.83,0.03-5.63-1.03-8.3c-1.03-2.6-2.75-4.6-5.23-5.9
			c-3.14-1.65-6.51-2.3-10.02-1.93c-3.26,0.34-5.1,2.02-5.72,5.26c-0.7,3.6-0.31,7.14,1.01,10.55c1.13,2.94,3.34,4.76,6.33,5.67
			C775.41,96.22,777.31,96.44,779.24,96.44z"/>
		<path class="st1" d="M897.4,330.39c9.72,8.05,17,17.68,19.63,30.31c0.81,3.9,1.21,7.85,1.07,11.84
			c-0.26,7.44-4.17,12.26-11.35,14.03c-3.78,0.93-7.62,0.99-11.46,0.7c-2.63-0.2-4.92-1.34-6.88-3.11
			c-1.74-1.56-3.07-3.42-4.19-5.46c-2-3.61-3.4-7.46-4.48-11.42c-1.59-5.81-3.02-11.65-4.61-17.46c-0.68-2.47-1.53-4.89-2.4-7.29
			c-0.61-1.69-1.47-3.27-2.54-4.73c-0.77-1.05-1.65-1.96-2.79-2.6c-2.8-1.58-4.37-0.74-4.55,2.52c-0.27,4.76,0.45,9.47,1.03,14.17
			c0.75,5.97,1.64,11.93,2.47,17.89c0.04,0.25,0.04,0.51,0.09,0.76c0.87,4.4-1.09,7.41-4.71,9.61c-3.36,2.04-7.02,3.08-10.92,3.32
			c-4.52,0.28-8.94-0.32-13.31-1.48c-6.87-1.82-10.62-6.34-11.54-13.29c-0.22-1.65-0.27-3.32-0.26-4.99
			c0.06-23.07,0.14-46.14,0.24-69.2c0-1.14,0.17-2.29,0.26-3.43c0.89,0.02,1.76,0.08,2.63,0.38c6.34,2.19,11.8,5.94,17.3,9.63
			c1.47,0.99,2.86,2.13,4.16,3.35c2.23,2.09,4.63,3.99,6.95,5.97c4.15,3.54,8.6,6.76,13.32,9.53c2.75,1.61,5.51,3.21,8.38,4.59
			c2.98,1.43,6.06,2.69,9.16,3.82c2.74,1,5.58,1.75,8.39,2.54C896.71,330.98,897.09,330.58,897.4,330.39z"/>
		<path class="st2" d="M897.4,330.39c-0.31,0.18-0.69,0.59-0.93,0.52c-2.81-0.8-5.65-1.54-8.39-2.54c-3.11-1.13-6.18-2.39-9.16-3.82
			c-2.87-1.38-5.63-2.98-8.38-4.59c-4.73-2.77-9.17-5.99-13.32-9.53c-2.32-1.98-4.71-3.88-6.95-5.97c-1.3-1.21-2.68-2.36-4.16-3.35
			c-5.5-3.69-10.96-7.44-17.3-9.63c-0.87-0.3-1.74-0.36-2.63-0.38c-0.06-1.02-0.2-2.04-0.17-3.06c0.36-13.97,0.74-27.94,1.13-41.9
			c0.07-2.57,0.27-5.12,1.01-7.6c1.51-5.13,4.49-7.5,9.83-7.4c5.84,0.11,11.41,1.61,16.67,4.1c3.45,1.64,5.45,4.58,6.52,8.17
			c0.99,3.34,1.36,6.77,1.55,10.24c0.47,8.62-0.34,17.15-1.83,25.64c-0.42,2.4-0.69,4.82-0.99,7.24c-0.25,2.07-0.09,4.1,0.73,6.04
			c0.87,2.05,2.76,2.39,4.24,0.69c0.74-0.86,1.38-1.87,1.8-2.92c0.85-2.14,1.61-4.32,2.23-6.54c1.58-5.68,3.04-11.39,4.6-17.07
			c0.99-3.59,2.3-7.07,3.9-10.43c1.44-3.03,3.17-5.86,5.52-8.27c3.91-4.01,8.67-5.46,14.05-4.31c9.61,2.05,16.12,8,20.15,16.81
			c0.81,1.77,1.03,3.67,0.96,5.63c-0.41,12.56-4.89,23.22-14.67,31.37c-2.56,2.13-5.3,4.04-7.94,6.07c-1.93,1.48-3.9,2.92-5.73,4.52
			c-1.05,0.91-2.01,2-2.76,3.17c-1.58,2.45-1.68,5.06-0.27,7.66c0.98,1.82,2.32,3.38,3.8,4.81
			C892.79,325.97,895.1,328.18,897.4,330.39z"/>
		<path class="st1" d="M304.83,397.4c0.29,2.36-0.25,4.6-1.1,6.75c-1.16,2.93-3.12,4.16-6.23,4.17c-1.96,0-3.8-0.5-5.62-1.15
			c-5.08-1.8-9.96-4.07-14.82-6.38c-1.16-0.55-2.33-1.07-3.51-1.56c-1.23-0.5-2.27-0.07-3.09,0.88c-1.35,1.56-1.75,3.47-1.48,5.41
			c0.61,4.35,2.71,7.78,6.99,9.33c2.88,1.04,5.88,1.79,8.86,2.52c3.98,0.97,8.01,1.78,11.88,3.16c1.93,0.68,3.85,1.43,5.68,2.34
			c5.84,2.94,9.57,7.58,10.98,14.02c0.8,3.65,1.19,7.34,1.05,11.07c-0.14,3.84-1.62,5.55-5.32,6.47c-2.53,0.63-5.08,0.58-7.64,0.32
			c-6.27-0.62-12.39-2.05-18.42-3.81c-8.61-2.51-17.11-5.37-25.34-8.96c-3.29-1.44-6.47-3.1-9.5-5.04
			c-6.62-4.24-11.16-10.06-13.75-17.48c-1.83-5.24-2.88-10.64-3.53-16.11c-1.68-14.28-2.08-28.63-2.44-42.98
			c-0.01-0.51,0.11-1.01,0.17-1.52c0.89,0.1,1.78,0.17,2.66,0.3c2.64,0.4,5.26,1.12,7.91,1.19c4.36,0.11,8.6,0.84,12.88,1.54
			c9.76,1.6,18.55,5.5,26.8,10.83c4.3,2.78,8.4,5.83,12.2,9.23c4.48,4.02,8.45,8.54,11.31,13.92
			C302.92,396.87,303.69,397.39,304.83,397.4z"/>
		<path class="st1" d="M192.99,311.91c-0.01,0.38,0.05,0.79-0.05,1.14c-2.54,8.69-3.42,17.6-3.27,26.61
			c0.1,6.15,0.24,12.3,1.04,18.42c0.33,2.55,0.81,5.06,1.57,7.51c1.3,4.2,3.74,7.59,7.46,9.93c2.27,1.43,4.65,2.7,7.07,3.88
			c2.41,1.19,4.89,2.24,7.39,3.24c4.55,1.82,7.58,5.12,9.55,9.51c1.91,4.27,2.66,8.82,3.03,13.43c0.15,1.78,0.19,3.59,0.09,5.38
			c-0.26,5.06-3.12,8.66-7.98,10.14c-3.12,0.95-6.32,1.05-9.52,0.63c-3.31-0.43-6.59-1.1-9.73-2.22
			c-5.43-1.94-10.83-3.96-16.19-6.08c-2.26-0.89-4.43-2.03-6.55-3.21c-6.67-3.69-11.26-9.16-13.88-16.32
			c-1.95-5.33-3.05-10.85-3.8-16.44c-1.94-14.37-2.5-28.85-3.15-43.32c-0.45-10.12-0.72-20.24-1.03-30.36
			c-0.14-4.48-0.1-8.96,0.38-13.43c2.96-0.25,5.85,0.32,8.73,0.85c4.58,0.84,8.99,2.38,12.7,5.11c4.09,3.01,8.11,6.23,10.91,10.63
			c0.89,1.39,2.01,2.64,2.91,4.03C191.25,311.91,192.08,311.92,192.99,311.91z"/>
		<path class="st2" d="M304.83,397.4c-1.14-0.01-1.91-0.53-2.45-1.54c-2.86-5.37-6.83-9.9-11.31-13.92c-3.79-3.4-7.9-6.45-12.2-9.23
			c-8.25-5.33-17.04-9.23-26.8-10.83c-4.28-0.7-8.52-1.43-12.88-1.54c-2.64-0.07-5.27-0.78-7.91-1.19c-0.88-0.13-1.77-0.2-2.66-0.3
			c-0.21-4.48-0.51-8.95-0.62-13.43c-0.26-10.9-0.54-21.8,0.44-32.68c0.35-3.84,0.93-7.62,2.11-11.31c1.73-5.42,5.35-9.97,13.86-8.2
			c2.65,0.55,5.22,1.31,7.73,2.27c16.64,6.37,31.92,15.17,46.08,25.93c2.76,2.1,5.35,4.4,7.73,6.92c1.95,2.05,3.71,4.24,5.06,6.75
			c1.11,2.06,1.86,4.23,1.96,6.57c0.2,4.62,0.19,9.23-0.62,13.81c-0.38,2.15-0.92,4.26-2.01,6.18c-1.58,2.79-3.91,4.34-7.18,4.34
			c-1.8,0-3.57-0.17-5.32-0.65c-3.97-1.1-7.76-2.64-11.35-4.65c-3.47-1.94-6.91-3.92-10.38-5.86c-1.12-0.62-2.24-1.28-3.43-1.73
			c-3.3-1.24-5.63,0.31-5.84,3.77c-0.13,2.15,0.53,4.04,1.82,5.73c1.25,1.65,2.8,2.99,4.48,4.18c3.46,2.47,7.23,4.37,11.12,6.06
			c3.29,1.43,6.57,2.89,9.83,4.36c1.87,0.85,3.63,1.9,5.28,3.14c3.01,2.27,4.83,5.27,5.34,9.01
			C305.07,392.05,305.52,394.72,304.83,397.4z"/>
		<path class="st2" d="M326.17,427.37c-0.22-0.78-0.15-1.54,0.07-2.31c0.73-0.46,0.81-0.96,0.08-1.5c0.03-5.02,1-9.93,1.84-14.85
			c1.82-10.61,4.59-21.02,6.89-31.53c0.27-1.25,0.52-2.51,0.69-3.78c0.25-1.83-0.05-2.31-1.66-2.94c-0.71-0.28-1.46-0.48-2.17-0.78
			c-8.05-3.37-13.01-9.38-14.82-17.86c-1.19-5.56-1.11-11.2-0.18-16.82c0.23-1.4,0.65-2.74,1.27-4.01c1.07-2.19,2.8-3.65,5.12-4.35
			c1.72-0.53,3.49-0.74,5.31-0.78c3.48-0.08,6.92,0.38,10.34,0.85c6.47,0.88,12.92,1.92,19.36,2.99c2.65,0.44,5.24,1.17,7.75,2.19
			c4.43,1.81,7.45,4.93,8.79,9.54c1.81,6.22,2.47,12.58,1.48,19c-1.2,7.79-6.17,12.51-14.01,13.62c-3.89,0.55-3.96,0.56-3.07,4.35
			c1.62,6.85,3.4,13.67,5,20.53c1.22,5.24,2.27,10.51,3.35,15.78c0.18,0.87,0.13,1.78,0.19,2.67c-1.92-0.01-3.79,0.35-5.68,0.6
			c-4.77,0.62-9.16,2.25-13.4,4.35c-2.76,1.36-5.63,2.42-8.46,3.61c-1.89,0.79-3.78,1.57-5.8,1.9
			C331.67,428.29,328.86,428.65,326.17,427.37z"/>
		<path class="st1" d="M299.84,224.14c1.19,4.87,1.65,9.86,2.29,14.81c0.94,7.25,1.35,14.56,1.54,21.87
			c0.17,6.42-0.11,12.82-1.29,19.16c-0.47,2.53-1.17,4.99-2.33,7.3c-2.47,4.91-6.14,7.05-11.56,6.39
			c-7.98-0.97-14.65-4.44-19.61-10.9c-2.61-3.39-4.39-7.21-5.77-11.24c-1.96-5.73-3.01-11.66-3.73-17.65
			c-1.21-10.09-1.33-20.22-0.71-30.35c0.56-9.22,1.72-18.38,3.27-27.49c0.88-5.18,1.82-10.35,2.77-15.52
			c0.25-1.38,0.65-2.74,0.98-4.1c2.57-0.27,4.9,0.59,6.74,2.2c3.15,2.77,6.35,5.59,8.35,9.39c1.72,3.27,3.42,6.54,4.61,10.08
			c1.5,4.46,3.12,8.89,4.88,13.26c1.19,2.95,2.56,5.87,4.53,8.4C296.15,221.51,297.42,223.51,299.84,224.14z"/>
		<path class="st1" d="M617.76,116.37c0.25,2.29,0.59,4.57,0.75,6.86c0.88,13.04,1.35,26.09,0.9,39.16
			c-0.24,7.05-1.02,14.05-2.98,20.86c-0.42,1.47-0.92,2.93-1.46,4.37c-3.19,8.49-8.98,14.49-17.32,18
			c-3.9,1.64-7.87,3.05-12.13,3.47c-5.67,0.56-9.66-1.58-12.27-6.62c-1.55-3-2.33-6.24-2.82-9.53c-1.16-7.76-1.21-15.57-0.55-23.37
			c1.36-16.02,5.06-31.57,9.39-46.99c0.51-1.83,0.77-3.76,1.72-5.45c0.6,0.85,1.51,0.81,2.4,0.83c1.52,0.03,3.09-0.11,4.57,0.16
			c4.47,0.84,9.01,1.43,13.14,3.58c0.56,0.29,1.19,0.46,1.81,0.58c0.61,0.12,1.32,0.33,1.86,0.14c2.51-0.85,5.15-1.35,7.42-2.87
			C613.94,118.34,615.89,117.41,617.76,116.37z"/>
		<path class="st2" d="M617.76,116.37c-1.87,1.04-3.81,1.97-5.59,3.16c-2.28,1.53-4.91,2.02-7.42,2.87
			c-0.54,0.18-1.25-0.02-1.86-0.14c-0.62-0.13-1.25-0.29-1.81-0.58c-4.12-2.15-8.67-2.74-13.14-3.58c-1.48-0.28-3.04-0.13-4.57-0.16
			c-0.9-0.02-1.8,0.02-2.4-0.83c0.4-1.74,0.82-3.48,1.21-5.22c0.16-0.75,0.31-1.5,0.38-2.26c0.05-0.59-0.3-0.99-0.91-0.94
			c-0.63,0.05-1.25,0.23-1.87,0.36c-1.5,0.32-2.99,0.7-4.51,0.94c-1.91,0.29-3.83,0.34-5.74-0.05c-4.29-0.87-6.99-3.35-7.53-7.64
			c-0.72-5.8-0.18-11.53,2.37-16.9c1.52-3.2,3.98-5.62,6.85-7.65c3.05-2.16,6.37-3.8,9.8-5.26c5.43-2.32,11.06-4.04,16.72-5.66
			c10.22-2.91,20.43-5.86,30.9-7.78c4.54-0.84,9.12-1.36,13.73-1.63c3.98-0.23,7.94,0.08,11.8,1.16c7.37,2.05,9.9,7.52,9.16,14.36
			c-0.27,2.52-1.68,4.53-3.43,6.29c-2.11,2.11-4.62,3.64-7.25,4.99c-4.35,2.23-8.92,3.88-13.6,5.24c-4.79,1.39-9.64,2.57-14.46,3.89
			c-1.97,0.54-3.94,1.13-5.86,1.83c-1.61,0.59-2.41,1.8-2.25,3.59c0.38,4.34,0.72,8.68,1.09,13.02
			C617.7,113.31,618.04,114.83,617.76,116.37z"/>
		<path class="st1" d="M785.92,291.89c-0.03,4.48-0.04,8.96-0.09,13.44c-0.04,3.73,0.28,7.43,0.68,11.13
			c0.06,0.51,0.11,1.02,0.19,1.53c1.04,7.09,4.84,11.72,11.97,13.34c3.12,0.71,6.23,1.61,9.39,1.99c5.53,0.67,8.74,3.88,10.62,8.8
			c1.58,4.12,1.99,8.47,2.3,12.83c0.1,1.4,0.11,2.82,0.05,4.23c-0.26,6.69-3.28,11.75-9.11,15.06c-3.4,1.93-7.1,2.88-10.99,3.18
			c-5.29,0.4-10.51-0.3-15.7-1.11c-3.29-0.51-6.54-1.25-9.79-2c-1.49-0.34-2.94-0.89-4.37-1.46c-5.64-2.22-9.68-6.14-12.19-11.66
			c-2.03-4.48-3.14-9.22-3.86-14.05c-1.83-12.21-1.95-24.53-2.1-36.84c-0.01-0.5,0.18-1,0.27-1.5c2.15-0.59,3.78-2.07,5.53-3.33
			c5.5-3.94,11.11-7.67,17.53-10C779.49,294.3,782.7,293.08,785.92,291.89z"/>
		<path class="st2" d="M299.84,224.14c-2.42-0.63-3.69-2.63-5.06-4.41c-1.96-2.53-3.34-5.45-4.53-8.4
			c-1.76-4.36-3.38-8.79-4.88-13.26c-1.19-3.53-2.89-6.81-4.61-10.08c-1.99-3.8-5.19-6.62-8.35-9.39c-1.83-1.61-4.16-2.47-6.74-2.2
			c0.29-2.15,0.61-4.3,0.86-6.46c0.22-1.98-0.12-2.56-2.02-3.06c-3.73-0.98-7.4-2.09-10.98-3.5c-4.67-1.84-9.14-4.05-13.27-6.92
			c-2.43-1.69-4.66-3.61-6.57-5.89c-4.97-5.96-5.31-12.57-2.58-19.51c1.33-3.36,3.94-5.62,7.19-7.17c3.89-1.86,8.06-2.58,12.3-2.77
			c3.84-0.16,7.7-0.2,11.54,0.04c8.58,0.54,17.12,1.45,25.58,3c2.91,0.53,5.75,1.32,8.47,2.48c4.78,2.03,7.99,5.47,9.35,10.53
			c0.43,1.61,0.86,3.23,1.06,4.88c0.61,4.84,0.83,9.71,0.4,14.59c-0.17,1.93-0.68,3.78-1.42,5.57c-2.28,5.52-6.47,8.42-12.37,8.92
			c-0.26,0.02-0.51,0.04-0.77,0.02c-3.07-0.22-3.43,0.62-2.73,3.68c1.8,7.87,3.57,15.75,5.22,23.66c1.7,8.16,3.26,16.34,4.86,24.52
			C299.87,223.36,299.83,223.76,299.84,224.14z"/>
		<path class="st1" d="M429.55,420.94c0.52-0.01,1.03-0.06,1.32-0.59c0.43-0.79,0.92-1.55,1.24-2.38c0.96-2.5,1.92-5,2.74-7.55
			c1.61-4.97,3.29-9.91,5.23-14.76c1.33-3.33,2.92-6.52,4.78-9.59c0.6-0.98,1.1-2.02,1.66-3.02c0.37-0.66,0.01-1.23-0.2-1.82
			c4.82,0.39,9.26,1.88,13.21,4.67c5.03,3.55,7.61,8.68,8.25,14.61c2.15,19.95-4.41,36.28-20.86,48.18
			c-8.65,6.26-18.45,9.88-28.89,11.87c-6.36,1.21-12.72,1.39-19.06-0.07c-5.62-1.3-10.56-3.9-14.48-8.2
			c-4.03-4.43-6.34-9.52-6-15.69c0.2-3.47,0.52-6.9,1.67-10.19c0.66-1.9,1.2-3.93,2.99-5.21c3.24-0.4,5.94,1.24,8.7,2.47
			c5.24,2.33,10.36,4.9,15.54,7.36c2.76,1.31,5.63,2.34,8.6,3.06c3.39,0.82,6.5-0.06,8.71-2.6c2.06-2.38,3.81-5.1,5.07-8.05
			c0.38-0.89,0.41-1.72-0.22-2.51L429.55,420.94z"/>
		<path class="st1" d="M469.58,197.96c1.96,0.35,2.98,1.93,4.05,3.3c2.59,3.32,4.85,6.88,6.9,10.56c2.06,3.68,4.38,7.19,6.88,10.58
			c2.32,3.14,5.65,4.17,9.43,2.36c4.89-2.33,8.69-5.89,12.06-9.91c2.53-3.02,4.51-6.49,6.82-9.7c0.68-0.95,0.26-1.66-0.13-2.46
			c5.4-3.44,10.75-6.95,16.2-10.3c2.5-1.53,5.18-2.8,7.84-4.07c1.97-0.94,4.08-1.54,6.26-1.77c4.27-0.46,7.18,1.21,8.96,5.09
			c0.75,1.64,1.2,3.37,1.52,5.15c0.64,3.55,0.75,7.13,0.82,10.72c0.07,3.35-1.01,6.29-2.91,8.98c-1.34,1.89-2.94,3.54-4.69,5.07
			c-3.2,2.79-6.65,5.24-10.27,7.44c-7.01,4.26-14.04,8.48-21.11,12.65c-5.74,3.38-11.5,6.73-17.33,9.95
			c-2.57,1.42-5.31,2.56-8.01,3.72c-2.01,0.87-4.15,1.32-6.35,1.43c-3.47,0.17-6.24-1.12-8.3-3.93c-1.62-2.2-2.63-4.68-3.47-7.25
			c-1.43-4.41-2.23-8.96-2.85-13.53c-1.42-10.55-2.08-21.17-2.51-31.8C469.38,199.49,469.52,198.73,469.58,197.96z"/>
		<path class="st2" d="M785.92,291.89c-3.22,1.2-6.43,2.41-9.66,3.58c-6.42,2.33-12.03,6.06-17.53,10
			c-1.75,1.25-3.37,2.74-5.53,3.33c-0.46-1.63-0.31-3.31-0.27-4.96c0.32-14.47,0.43-28.96,1.42-43.41
			c0.69-10.1,1.44-20.19,3.66-30.11c0.56-2.5,1.21-4.98,2.25-7.33c0.62-1.4,1.29-2.8,2.12-4.08c2.04-3.12,4.99-4.77,8.74-4.7
			c5.84,0.1,11.43,1.39,16.6,4.17c3.78,2.03,6.36,5.14,7.58,9.28c0.5,1.71,0.97,3.47,1.13,5.24c0.62,7.19,0.44,14.33-1.79,21.3
			c-1.29,4.02-2.53,8.06-3.75,12.11c-2.27,7.5-3.85,15.14-4.48,22.96C786.32,290.14,786.08,291.01,785.92,291.89z"/>
		<path class="st2" d="M669.27,96.32c-0.07-0.25-0.21-0.49-0.21-0.74c-0.09-7.82,0-15.63,1.23-23.39c0.38-2.41,1-4.77,1.84-7.06
			c2.89-7.93,8.37-13.08,16.61-15.06c7.06-1.69,14.2-1.93,21.36-0.64c1.13,0.2,2.25,0.53,3.32,0.93c3.83,1.45,6.51,4.08,7.66,8.04
			c1.59,5.51,1.88,11.12,0.49,16.71c-1.21,4.91-4.31,8.34-8.84,10.53c-3.15,1.52-6.51,2.29-9.91,2.95c-1.76,0.34-3.54,0.57-5.3,0.9
			c-1.38,0.26-2.78,0.51-4.12,0.92c-3.9,1.17-5.11,3.97-3.44,7.74c0.69,1.57,1.96,2.49,3.55,2.58c4.29,0.25,8.52,0.09,11.61-3.61
			c2.64-3.16,6.16-3.45,9.83-2.84c2.43,0.41,4.18,2.06,5.09,4.3c2.27,5.55,2.59,11.21,0.26,16.83c-1.17,2.82-3.29,4.88-5.93,6.35
			c-3.16,1.76-6.54,2.92-10.19,3.11c-3.3,0.48-5.63-0.77-6.92-3.88c-0.1-0.23-0.24-0.45-0.38-0.66
			c-3.78-5.73-7.76-11.28-12.79-16.03c-2.71-2.57-5.78-4.55-9.01-6.31C673.28,97.05,671.36,96.33,669.27,96.32z M696.76,74.96
			c3.24,0.11,5.75-2.57,5.83-6.23c0.06-2.8-2.73-5.43-5.82-5.49c-3.55-0.07-6,2.47-6.2,6.42C690.42,72.78,692.81,74.82,696.76,74.96
			z"/>
		<path class="st2" d="M649.19,262.62c-3.5,1.56-7.01,3.1-10.51,4.68c-5.37,2.41-10.7,4.91-16.11,7.22
			c-2.58,1.1-5.31,1.84-8.15,2.01c-0.38,0.02-0.82-0.03-1.14,0.14c-1.64,0.82-3.21,0.51-4.83-0.05c-0.58-0.2-1.27-0.09-1.91-0.12
			c-1.95-10.71-3.95-21.4-5.82-32.12c-1.28-7.35,1.32-13.33,6.9-18.12c2.75-2.36,5.86-4.12,9.17-5.56
			c5.19-2.27,10.6-3.81,16.16-4.79c2.4-0.43,4.85-0.51,7.28-0.21c3.76,0.46,6.4,2.44,7.78,6c0.94,2.41,1.39,4.95,1.4,7.52
			c0.02,10.89-0.03,21.78-0.07,32.67C649.35,262.12,649.25,262.37,649.19,262.62z"/>
		<path class="st1" d="M326.17,427.37c2.69,1.28,5.5,0.92,8.27,0.46c2.02-0.33,3.91-1.11,5.8-1.9c2.83-1.18,5.7-2.24,8.46-3.61
			c4.25-2.1,8.63-3.73,13.4-4.35c1.89-0.25,3.76-0.61,5.68-0.6c1,2.15,0.92,4.51,1.17,6.77c0.89,8.04,1.09,16.08-0.33,24.1
			c-0.43,2.41-1.12,4.72-2.12,6.95c-2.42,5.38-6.64,8.36-12.42,9.02c-4.36,0.5-8.68,0.1-12.92-1.13
			c-5.95-1.72-9.99-5.49-12.34-11.17c-1.28-3.1-2-6.35-2.39-9.66c-0.53-4.45-0.73-8.93-0.57-13.41
			C325.86,428.36,326.06,427.87,326.17,427.37z"/>
		<path class="st1" d="M314.91,224.9c2.61,0.34,5.08-0.39,7.5-1.18c4.25-1.39,8.59-2.6,12.98-3.15c5.82-0.73,11.75-0.79,17.37,1.52
			c2.73,1.13,5.24,2.64,7.35,4.77c2.43,2.45,4.88,4.89,7.32,7.34c0.73,0.73,1.42,1.5,2.57,1.48c-1.86,4.77-4.97,8.61-9.05,11.63
			c-4.05,3-8.74,4.28-13.72,4.2c-12.06-0.21-21.43-5.3-27.7-15.73C317.5,232.39,315.82,228.8,314.91,224.9z"/>
		<path class="st2" d="M192.99,311.91c-0.9,0.01-1.74,0-2.34-0.93c-0.9-1.39-2.02-2.64-2.91-4.03c-2.81-4.4-6.83-7.62-10.91-10.63
			c-3.71-2.73-8.12-4.28-12.7-5.11c-2.88-0.53-5.77-1.1-8.73-0.85c-0.25-5.92,0.41-11.75,2.11-17.42c2.19-7.31,6.01-9.55,13.58-8.23
			c3.66,0.63,7.22,1.64,10.69,2.96c8.47,3.22,13.01,9.42,14.31,18.31c0.99,6.82,0.77,13.5-1.31,20.09
			C194.16,308,193.58,309.96,192.99,311.91z"/>
		<path class="st2" d="M559.21,254.93c-7.24-0.12-12.54,3.32-16.93,8.81c-2.41,3.02-4.52,6.17-6.24,9.59
			c-3,5.97-4.75,12.38-6.49,18.78c-1.2,4.42-2.07,8.93-3.28,13.34c-1.26,4.56-2.93,8.99-5.22,13.14c-0.71,1.28-1.19,2.89-2.93,3.31
			c-0.18-3.2-0.37-6.39-0.53-9.59c-0.44-8.83-0.89-17.67-1.29-26.5c-0.09-2.05-0.08-4.1,0.02-6.15c0.28-6.13,2.46-11.52,6.76-15.91
			c5.46-5.58,11.89-9.72,19.27-12.31c3.19-1.12,6.49-1.58,9.85-1.1C555.2,250.76,557.84,251.91,559.21,254.93z"/>
		<path class="st1" d="M669.27,96.32c2.09,0.01,4.01,0.73,5.8,1.7c3.23,1.76,6.3,3.74,9.01,6.31c5.02,4.76,9,10.3,12.79,16.03
			c0.14,0.21,0.29,0.43,0.38,0.66c1.29,3.11,3.62,4.36,6.92,3.88c-0.35,0.15-0.69,0.4-1.06,0.43c-6.76,0.63-13.52,1.37-20.3,0.32
			c-0.63-0.1-1.26-0.21-1.88-0.36c-5.06-1.17-8.39-4.24-9.86-9.22c-0.58-1.96-1.12-3.97-1.31-5.99c-0.39-3.95-0.53-7.92-0.74-11.88
			C668.98,97.58,669.18,96.94,669.27,96.32z"/>
		<path class="st2" d="M367.7,316.5c-0.06-2.3,0.17-4.32,1.11-6.2c1.36-2.72,3.52-4.31,6.59-4.63c6.37-0.67,12.51,3.73,13.86,10.18
			c1.34,6.39-0.21,12.18-4.2,17.31c-0.69,0.89-1.61,1.67-2.57,2.27c-2.21,1.38-4.29,0.8-5.46-1.49c-0.51-1.01-0.8-2.15-1.06-3.26
			c-0.23-0.99-0.37-2.02-0.41-3.03c-0.07-1.45-0.79-2.38-2.05-2.97c-0.35-0.16-0.69-0.34-1.05-0.48
			C368.84,322.76,367.5,319.98,367.7,316.5z"/>
		<path class="st1" d="M844.39,191.86c0.51,0.7,0.38,1.46,0.18,2.21c-1.33,4.82-2.78,9.6-4.95,14.11c-0.61,1.26-1.38,2.46-2.22,3.58
			c-0.52,0.7-1.24,1.3-1.98,1.78c-1.35,0.88-2.71,0.67-3.83-0.47c-1.11-1.13-1.67-2.56-2.09-4.05c-1.52-5.39-1.66-10.86-0.95-16.37
			c0.36-2.81,0.93-5.56,2.18-8.13c0.27-0.56,0.73-1.04,1.1-1.56c0,0,0.04,0.06,0.04,0.06c0.03-0.29,0.19-0.46,0.47-0.51
			c0.03-0.17,0.14-0.27,0.31-0.3c0.05-0.28,0.22-0.39,0.5-0.34c1.39-0.3,2.12,0.48,2.72,1.59c1.54,2.86,3.88,5.06,6.16,7.3
			C842.7,191.41,843.43,191.88,844.39,191.86z"/>
		<path class="st2" d="M417.02,248.83c-0.38,2.78-2.33,4.77-3.7,7.01c-2.28,3.7-5.59,6.57-8.68,9.58c-0.54,0.52-1.23,0.88-1.86,1.32
			c-4.47,3.1-7.52,2.67-11.56-1.1c-2.31-2.16-4.68-4.29-6.43-7.02c-0.63-0.99-1.43-2.18-2.96-2.12c2.12-1.09,4.5-0.92,6.75-1.3
			c8.97-1.52,17.84-3.47,26.57-6.05C415.74,248.97,416.39,248.93,417.02,248.83z"/>
		<path class="st2" d="M429.56,420.92c0.62,0.79,0.6,1.62,0.22,2.51c-1.27,2.95-3.01,5.67-5.07,8.05c-2.21,2.54-5.32,3.43-8.71,2.6
			c-2.97-0.72-5.84-1.75-8.6-3.06c-5.18-2.46-10.31-5.03-15.54-7.36c-2.75-1.22-5.45-2.87-8.7-2.47c1.33-2.74,3.84-4.02,6.49-4.98
			c3.67-1.34,7.51-1.49,11.34-0.99c3.52,0.45,6.2,2.29,7.68,5.6c0.57,1.28,1.01,2.61,1.49,3.93c0.48,1.32,0.84,2.69,1.42,3.96
			c1.31,2.89,2.92,3.8,6.11,3.39c4.39-0.56,7.45-3.11,9.63-6.82C428.14,423.88,428.81,422.38,429.56,420.92z"/>
		<path class="st1" d="M527.1,180.79c-0.08-2.93,1.43-5.39,2.62-7.86c3.53-7.31,6.95-14.7,11.68-21.37
			c1.02-1.44,1.67-3.13,2.95-4.42c0.58-0.59,0.42-1.43,0.48-2.18c0.69,0.21,0.95,0.82,1.2,1.39c0.57,1.3,0.84,2.68,0.92,4.09
			c0.27,4.76-0.16,9.45-1.48,14.04c-1.39,4.85-4.17,8.73-8.44,11.48C533.92,177.97,530.66,179.71,527.1,180.79z"/>
		<path class="st2" d="M661.01,94.85c-0.92,0.46-1.85,0.8-2.92,0.76c-3.51-0.13-6.73,1.06-9.96,2.23
			c-6.52,2.36-12.23,6.18-18.1,9.75c-1.16,0.71-2.11,1.93-3.68,1.85c0.12-6.27,2.88-11.03,8.4-13.99c5.72-3.07,11.92-4.5,18.4-4.35
			C656.23,91.17,659.25,91.79,661.01,94.85z"/>
		<path class="st2" d="M718.21,142.51c-0.06,0.14-0.53,0-0.99,0.01c-0.71,0.01-1.42,0.04-2.13,0.06c-0.81,0.02-1.69,0.1-2.47-0.15
			c-1.92-0.62-3.47-3.04-4.81-4.39c-1.66-1.69-3.14-3.65-3.61-6.12c0.01,0.08,3.53,0.64,3.89,0.75c1.26,0.36,2.48,0.84,3.62,1.49
			c1.14,0.65,2.19,1.47,3.09,2.43c0.72,0.76,1.54,1.58,2.01,2.54c0.35,0.73,0.54,1.53,0.85,2.27
			C717.85,141.85,718.29,142.34,718.21,142.51z"/>
		<path class="st2" d="M844.39,191.86c-0.97,0.02-1.69-0.45-2.36-1.1c-2.28-2.24-4.62-4.44-6.16-7.3c-0.6-1.11-1.33-1.89-2.72-1.59
			c1.65-1.45,3.36-0.95,4.86,0.12C841.41,184.42,843.91,187.5,844.39,191.86z"/>
		<path class="st1" d="M326.32,423.56c0.73,0.54,0.65,1.04-0.08,1.5C325.91,424.55,325.97,424.05,326.32,423.56z"/>
		<path class="st1" d="M718.88,143.18"/>
		<path class="st2" d="M831.88,183.02c0,0-0.04-0.06-0.04-0.06C831.84,182.96,831.88,183.02,831.88,183.02z"/>
		<path class="st2" d="M832.66,182.21c-0.17,0.03-0.27,0.14-0.31,0.3c0,0,0.06-0.25,0.06-0.25L832.66,182.21z"/>
		<path class="st1" d="M716.49,138.79"/>
	</g>
	<g>
		<path class="st3" d="M238.12,99.6c0.58,0.77,1.2,1.45,1.87,2.08c0.59,0.56,1.21,1.07,1.85,1.53c0.62,0.45,1.25,0.87,1.9,1.25
			c0.59,0.35,1.2,0.66,1.8,0.98c0.47,0.24,0.94,0.47,1.41,0.69c0.34,0.15,0.68,0.28,1.02,0.41c0.39,0.15,0.79,0.29,1.19,0.42
			c0.09,0.03,0.19,0.06,0.29,0.09c0.4,0.1,0.8,0.2,1.19,0.31c0.07,0.02,0.14,0.05,0.2,0.09c0.1,0.07,0.11,0.2,0.02,0.29
			c-0.05,0.05-0.11,0.09-0.17,0.11c-0.13,0.03-0.26,0.03-0.39,0.06c-0.53,0.13-1.05,0.26-1.58,0.41c-0.64,0.18-1.27,0.43-1.9,0.7
			c-0.49,0.21-0.98,0.44-1.47,0.68c-0.55,0.28-1.1,0.57-1.64,0.88c-0.81,0.46-1.61,0.97-2.37,1.54c-0.82,0.61-1.59,1.29-2.32,2.06
			c-0.65,0.68-1.25,1.44-1.79,2.25c-0.54,0.8-1.01,1.67-1.41,2.58c-0.19,0.43-0.37,0.88-0.54,1.33c-0.19,0.51-0.37,1.02-0.54,1.53
			c-0.12,0.35-0.21,0.72-0.31,1.08c-0.12,0.44-0.23,0.89-0.34,1.34c-0.01,0.02-0.01,0.04-0.02,0.06c-0.1,0.52-0.21,1.03-0.3,1.55
			c-0.1,0.57-0.19,1.15-0.27,1.73c-0.1,0.66-0.16,1.33-0.22,2c-0.05,0.48-0.11,0.96-0.15,1.44c-0.04,0.38-0.05,0.77-0.08,1.15
			c-0.01,0.12-0.03,0.25-0.06,0.37c-0.02,0.09-0.06,0.18-0.11,0.26c-0.11,0.16-0.25,0.13-0.31-0.06c-0.04-0.11-0.05-0.23-0.06-0.35
			c-0.06-0.55-0.11-1.1-0.16-1.65c-0.02-0.17-0.02-0.35-0.04-0.52c-0.06-0.55-0.12-1.1-0.2-1.64c-0.1-0.71-0.22-1.42-0.34-2.12
			c-0.09-0.51-0.18-1.01-0.28-1.51c-0.08-0.42-0.17-0.84-0.27-1.26c-0.19-0.77-0.37-1.54-0.58-2.3c-0.31-1.12-0.68-2.2-1.14-3.24
			c-0.68-1.56-1.57-2.91-2.61-4.09c-0.87-0.98-1.8-1.85-2.79-2.63c-0.98-0.77-2.01-1.43-3.07-2.01c-0.93-0.51-1.89-0.95-2.86-1.31
			c-0.87-0.32-1.75-0.58-2.65-0.72c-0.3-0.05-0.61-0.13-0.91-0.19c-0.09-0.02-0.19-0.01-0.28-0.03c-0.07-0.02-0.14-0.04-0.19-0.1
			c-0.09-0.08-0.08-0.2,0.02-0.27c0.03-0.02,0.07-0.04,0.11-0.05c0.08-0.01,0.15-0.03,0.23-0.03c0.61-0.03,1.21-0.1,1.81-0.24
			c0.5-0.11,1-0.25,1.5-0.39c0.37-0.1,0.74-0.25,1.11-0.38c0.3-0.11,0.6-0.23,0.89-0.36c0.52-0.23,1.04-0.47,1.56-0.73
			c0.42-0.21,0.84-0.43,1.26-0.68c0.46-0.27,0.91-0.55,1.35-0.86c0.57-0.41,1.13-0.83,1.68-1.28c0.9-0.74,1.74-1.59,2.48-2.58
			c0.66-0.87,1.22-1.83,1.69-2.89c0.41-0.94,0.76-1.91,1.06-2.92c0.24-0.81,0.46-1.64,0.65-2.47c0.19-0.85,0.39-1.7,0.56-2.55
			c0.12-0.59,0.2-1.19,0.3-1.79c0.07-0.44,0.14-0.88,0.2-1.32c0.07-0.57,0.14-1.14,0.2-1.71c0.04-0.35,0.06-0.71,0.09-1.07
			c0.01-0.09,0.02-0.18,0.04-0.27c0.03-0.08,0.07-0.16,0.12-0.22c0.1-0.12,0.24-0.08,0.31,0.07c0.03,0.08,0.05,0.17,0.06,0.26
			c0.03,0.45,0.06,0.89,0.09,1.34c0.05,0.71,0.1,1.43,0.16,2.14c0.04,0.41,0.11,0.82,0.15,1.23c0.03,0.38,0.07,0.77,0.16,1.14
			c0.02,0.09,0.03,0.19,0.04,0.29c0.03,0.34,0.08,0.68,0.17,1.01c0.03,0.09,0.03,0.19,0.05,0.29c0.04,0.23,0.09,0.46,0.14,0.69
			c0.01,0.03,0.02,0.07,0.02,0.1c0.09,0.43,0.18,0.87,0.28,1.29c0.09,0.37,0.2,0.74,0.31,1.11c0.08,0.27,0.17,0.53,0.25,0.8
			c0.18,0.58,0.38,1.15,0.61,1.7c0.22,0.52,0.45,1.03,0.69,1.53c0.28,0.59,0.61,1.14,0.97,1.67C237.7,99.01,237.91,99.3,238.12,99.6
			z"/>
	</g>
	<g>
		<path class="st3" d="M219.88,140.93c0.43,0.48,0.9,0.89,1.39,1.28c0.44,0.34,0.9,0.66,1.38,0.94c0.46,0.28,0.93,0.53,1.42,0.77
			c0.44,0.21,0.89,0.41,1.34,0.6c0.35,0.15,0.7,0.29,1.05,0.42c0.25,0.09,0.51,0.17,0.76,0.25c0.29,0.09,0.59,0.18,0.88,0.26
			c0.07,0.02,0.14,0.04,0.21,0.05c0.3,0.06,0.59,0.12,0.89,0.19c0.05,0.01,0.1,0.03,0.15,0.06c0.08,0.05,0.08,0.12,0.02,0.18
			c-0.04,0.03-0.08,0.06-0.13,0.07c-0.1,0.02-0.2,0.02-0.29,0.04c-0.39,0.08-0.79,0.16-1.18,0.25c-0.48,0.11-0.95,0.27-1.41,0.43
			c-0.37,0.13-0.73,0.27-1.09,0.42c-0.41,0.17-0.82,0.35-1.22,0.54c-0.61,0.28-1.2,0.6-1.77,0.95c-0.61,0.38-1.19,0.8-1.73,1.27
			c-0.48,0.42-0.93,0.88-1.34,1.39c-0.4,0.49-0.75,1.03-1.05,1.59c-0.14,0.27-0.27,0.54-0.4,0.82c-0.14,0.31-0.28,0.63-0.4,0.94
			c-0.09,0.22-0.16,0.44-0.23,0.67c-0.09,0.27-0.17,0.55-0.26,0.82c0,0.01-0.01,0.02-0.01,0.04c-0.08,0.32-0.15,0.64-0.22,0.95
			c-0.08,0.35-0.14,0.71-0.2,1.07c-0.07,0.41-0.12,0.82-0.17,1.23c-0.03,0.3-0.08,0.59-0.11,0.89c-0.03,0.24-0.04,0.47-0.06,0.71
			c-0.01,0.08-0.02,0.15-0.04,0.23c-0.02,0.06-0.04,0.11-0.08,0.16c-0.08,0.1-0.18,0.08-0.23-0.04c-0.03-0.07-0.04-0.14-0.05-0.21
			c-0.04-0.34-0.08-0.68-0.12-1.02c-0.01-0.11-0.01-0.22-0.03-0.32c-0.05-0.34-0.09-0.68-0.15-1.01c-0.08-0.44-0.16-0.87-0.25-1.31
			c-0.06-0.31-0.14-0.62-0.21-0.93c-0.06-0.26-0.12-0.52-0.2-0.77c-0.14-0.47-0.28-0.95-0.43-1.42c-0.23-0.69-0.51-1.36-0.85-2
			c-0.5-0.96-1.17-1.79-1.94-2.52c-0.65-0.61-1.34-1.14-2.08-1.62c-0.73-0.47-1.5-0.88-2.29-1.24c-0.7-0.32-1.41-0.59-2.13-0.8
			c-0.65-0.19-1.3-0.36-1.97-0.44c-0.23-0.03-0.45-0.08-0.68-0.12c-0.07-0.01-0.14-0.01-0.21-0.02c-0.05-0.01-0.1-0.03-0.14-0.06
			c-0.06-0.05-0.06-0.12,0.01-0.17c0.02-0.02,0.05-0.02,0.08-0.03c0.06-0.01,0.11-0.02,0.17-0.02c0.45-0.02,0.9-0.06,1.35-0.14
			c0.37-0.07,0.75-0.15,1.12-0.24c0.28-0.06,0.55-0.15,0.83-0.24c0.22-0.07,0.45-0.14,0.67-0.22c0.39-0.14,0.78-0.29,1.16-0.45
			c0.32-0.13,0.63-0.27,0.94-0.42c0.34-0.17,0.68-0.34,1.01-0.53c0.42-0.25,0.84-0.51,1.25-0.79c0.67-0.46,1.3-0.98,1.85-1.59
			c0.49-0.54,0.91-1.13,1.26-1.78c0.31-0.58,0.57-1.18,0.79-1.8c0.18-0.5,0.34-1.01,0.48-1.52c0.14-0.52,0.29-1.04,0.42-1.57
			c0.09-0.36,0.15-0.73,0.22-1.1c0.05-0.27,0.11-0.54,0.15-0.81c0.05-0.35,0.1-0.7,0.15-1.05c0.03-0.22,0.04-0.44,0.06-0.66
			c0.01-0.06,0.01-0.11,0.03-0.16c0.02-0.05,0.05-0.1,0.09-0.14c0.08-0.07,0.18-0.05,0.23,0.05c0.02,0.05,0.04,0.11,0.04,0.16
			c0.03,0.27,0.05,0.55,0.07,0.83c0.04,0.44,0.08,0.88,0.12,1.31c0.03,0.25,0.08,0.5,0.11,0.76c0.02,0.24,0.06,0.47,0.12,0.7
			c0.02,0.06,0.02,0.12,0.03,0.18c0.02,0.21,0.06,0.42,0.13,0.62c0.02,0.06,0.02,0.12,0.04,0.18c0.03,0.14,0.07,0.28,0.1,0.43
			c0.01,0.02,0.01,0.04,0.02,0.06c0.07,0.27,0.13,0.53,0.21,0.8c0.07,0.23,0.15,0.46,0.23,0.68c0.06,0.17,0.13,0.33,0.19,0.49
			c0.13,0.36,0.28,0.71,0.46,1.04c0.17,0.32,0.33,0.63,0.51,0.94c0.21,0.36,0.46,0.7,0.72,1.03
			C219.57,140.56,219.72,140.74,219.88,140.93z"/>
	</g>
	<g>
		<path class="st3" d="M267.13,120.35c0.3,0.29,0.63,0.55,0.98,0.79c0.31,0.21,0.63,0.4,0.97,0.58c0.33,0.17,0.66,0.33,1,0.47
			c0.31,0.13,0.63,0.25,0.94,0.37c0.24,0.09,0.49,0.18,0.74,0.26c0.18,0.06,0.36,0.11,0.53,0.15c0.21,0.06,0.41,0.11,0.62,0.16
			c0.05,0.01,0.1,0.02,0.15,0.03c0.21,0.04,0.42,0.08,0.62,0.12c0.04,0.01,0.07,0.02,0.1,0.03c0.05,0.03,0.06,0.07,0.01,0.11
			c-0.02,0.02-0.06,0.03-0.09,0.04c-0.07,0.01-0.14,0.01-0.2,0.02c-0.28,0.05-0.55,0.1-0.83,0.15c-0.34,0.07-0.67,0.16-0.99,0.26
			c-0.26,0.08-0.52,0.17-0.77,0.26c-0.29,0.1-0.57,0.22-0.86,0.33c-0.43,0.17-0.84,0.37-1.24,0.58c-0.43,0.23-0.83,0.49-1.22,0.78
			c-0.34,0.26-0.65,0.54-0.94,0.85c-0.28,0.3-0.53,0.63-0.74,0.97c-0.1,0.16-0.19,0.33-0.28,0.5c-0.1,0.19-0.19,0.38-0.28,0.58
			c-0.06,0.13-0.11,0.27-0.16,0.41c-0.06,0.17-0.12,0.34-0.18,0.51c0,0.01-0.01,0.01-0.01,0.02c-0.05,0.2-0.11,0.39-0.16,0.59
			c-0.05,0.22-0.1,0.43-0.14,0.65c-0.05,0.25-0.08,0.5-0.12,0.75c-0.02,0.18-0.06,0.36-0.08,0.54c-0.02,0.14-0.03,0.29-0.04,0.44
			c-0.01,0.05-0.01,0.09-0.03,0.14c-0.01,0.03-0.03,0.07-0.06,0.1c-0.06,0.06-0.13,0.05-0.16-0.02c-0.02-0.04-0.03-0.09-0.03-0.13
			c-0.03-0.21-0.06-0.42-0.08-0.62c-0.01-0.07-0.01-0.13-0.02-0.2c-0.03-0.21-0.06-0.41-0.1-0.62c-0.05-0.27-0.11-0.54-0.18-0.8
			c-0.04-0.19-0.1-0.38-0.15-0.57c-0.04-0.16-0.09-0.32-0.14-0.48c-0.1-0.29-0.19-0.58-0.3-0.87c-0.16-0.42-0.36-0.83-0.59-1.22
			c-0.36-0.59-0.82-1.1-1.37-1.54c-0.45-0.37-0.95-0.7-1.46-0.99c-0.52-0.29-1.05-0.54-1.61-0.76c-0.49-0.19-0.99-0.36-1.5-0.49
			c-0.46-0.12-0.92-0.22-1.39-0.27c-0.16-0.02-0.32-0.05-0.48-0.07c-0.05-0.01-0.1,0-0.15-0.01c-0.04-0.01-0.07-0.02-0.1-0.04
			c-0.05-0.03-0.04-0.08,0.01-0.1c0.02-0.01,0.04-0.02,0.06-0.02c0.04-0.01,0.08-0.01,0.12-0.01c0.32-0.01,0.63-0.04,0.95-0.09
			c0.26-0.04,0.52-0.09,0.78-0.15c0.2-0.04,0.39-0.09,0.58-0.14c0.16-0.04,0.31-0.09,0.47-0.14c0.27-0.09,0.55-0.18,0.82-0.27
			c0.22-0.08,0.44-0.16,0.66-0.26c0.24-0.1,0.48-0.21,0.71-0.33c0.3-0.15,0.59-0.31,0.88-0.48c0.47-0.28,0.91-0.6,1.3-0.97
			c0.34-0.33,0.64-0.69,0.88-1.09c0.22-0.35,0.4-0.72,0.56-1.1c0.13-0.31,0.24-0.62,0.34-0.93c0.1-0.32,0.2-0.64,0.29-0.96
			c0.06-0.22,0.11-0.45,0.16-0.68c0.04-0.17,0.07-0.33,0.1-0.5c0.04-0.21,0.07-0.43,0.1-0.64c0.02-0.13,0.03-0.27,0.05-0.4
			c0-0.03,0.01-0.07,0.02-0.1c0.01-0.03,0.04-0.06,0.06-0.08c0.05-0.04,0.13-0.03,0.16,0.03c0.02,0.03,0.03,0.06,0.03,0.1
			c0.02,0.17,0.03,0.34,0.05,0.51c0.03,0.27,0.05,0.54,0.09,0.81c0.02,0.16,0.06,0.31,0.08,0.46c0.02,0.15,0.04,0.29,0.08,0.43
			c0.01,0.04,0.02,0.07,0.02,0.11c0.02,0.13,0.04,0.26,0.09,0.38c0.01,0.03,0.02,0.07,0.03,0.11c0.02,0.09,0.05,0.17,0.07,0.26
			c0,0.01,0.01,0.03,0.01,0.04c0.05,0.16,0.09,0.33,0.15,0.49c0.05,0.14,0.11,0.28,0.16,0.42c0.04,0.1,0.09,0.2,0.13,0.3
			c0.09,0.22,0.2,0.43,0.32,0.64c0.12,0.19,0.23,0.39,0.36,0.58c0.15,0.22,0.32,0.43,0.51,0.63
			C266.9,120.13,267.01,120.24,267.13,120.35z"/>
	</g>
	<g>
		<path class="st3" d="M931.34,252.83c0.58,0.77,1.2,1.45,1.87,2.08c0.59,0.56,1.21,1.07,1.85,1.53c0.62,0.45,1.25,0.87,1.9,1.25
			c0.59,0.35,1.2,0.66,1.8,0.98c0.47,0.24,0.94,0.47,1.41,0.69c0.34,0.15,0.68,0.28,1.02,0.41c0.39,0.15,0.79,0.29,1.19,0.42
			c0.09,0.03,0.19,0.06,0.29,0.09c0.4,0.1,0.8,0.2,1.19,0.31c0.07,0.02,0.14,0.05,0.2,0.09c0.1,0.07,0.11,0.2,0.02,0.29
			c-0.05,0.05-0.11,0.09-0.17,0.11c-0.13,0.03-0.26,0.03-0.39,0.06c-0.53,0.13-1.05,0.26-1.58,0.41c-0.64,0.18-1.27,0.43-1.9,0.7
			c-0.49,0.21-0.98,0.44-1.47,0.68c-0.55,0.28-1.1,0.57-1.64,0.88c-0.81,0.46-1.61,0.97-2.37,1.54c-0.82,0.61-1.59,1.29-2.32,2.06
			c-0.65,0.68-1.25,1.44-1.79,2.25c-0.54,0.8-1.01,1.67-1.41,2.58c-0.19,0.43-0.37,0.88-0.54,1.33c-0.19,0.51-0.37,1.02-0.54,1.53
			c-0.12,0.35-0.21,0.72-0.31,1.08c-0.12,0.44-0.23,0.89-0.34,1.34c-0.01,0.02-0.01,0.04-0.02,0.06c-0.1,0.52-0.21,1.03-0.3,1.55
			c-0.1,0.57-0.19,1.15-0.27,1.73c-0.1,0.66-0.16,1.33-0.22,2c-0.05,0.48-0.11,0.96-0.15,1.44c-0.04,0.38-0.05,0.77-0.08,1.15
			c-0.01,0.12-0.03,0.25-0.06,0.37c-0.02,0.09-0.06,0.18-0.11,0.26c-0.11,0.16-0.25,0.13-0.31-0.06c-0.04-0.11-0.05-0.23-0.06-0.35
			c-0.06-0.55-0.11-1.1-0.16-1.65c-0.02-0.17-0.02-0.35-0.04-0.52c-0.06-0.55-0.12-1.1-0.2-1.64c-0.1-0.71-0.22-1.42-0.34-2.12
			c-0.09-0.51-0.18-1.01-0.28-1.51c-0.08-0.42-0.17-0.84-0.27-1.26c-0.19-0.77-0.37-1.54-0.58-2.3c-0.31-1.12-0.68-2.2-1.14-3.24
			c-0.68-1.56-1.57-2.91-2.61-4.09c-0.87-0.98-1.8-1.85-2.79-2.63c-0.98-0.77-2.01-1.43-3.07-2.01c-0.93-0.51-1.89-0.95-2.86-1.31
			c-0.87-0.32-1.75-0.58-2.65-0.72c-0.3-0.05-0.61-0.13-0.91-0.19c-0.09-0.02-0.19-0.01-0.28-0.03c-0.07-0.02-0.14-0.04-0.19-0.1
			c-0.09-0.08-0.08-0.2,0.02-0.27c0.03-0.02,0.07-0.04,0.11-0.05c0.08-0.01,0.15-0.03,0.23-0.03c0.61-0.03,1.21-0.1,1.81-0.24
			c0.5-0.11,1-0.25,1.5-0.39c0.37-0.1,0.74-0.25,1.11-0.38c0.3-0.11,0.6-0.23,0.89-0.36c0.52-0.23,1.04-0.47,1.56-0.73
			c0.42-0.21,0.84-0.43,1.26-0.68c0.46-0.27,0.91-0.55,1.35-0.86c0.57-0.41,1.13-0.83,1.68-1.28c0.9-0.74,1.74-1.59,2.48-2.58
			c0.66-0.87,1.22-1.83,1.69-2.89c0.41-0.94,0.76-1.91,1.06-2.92c0.24-0.81,0.46-1.64,0.65-2.47c0.19-0.85,0.39-1.7,0.56-2.55
			c0.12-0.59,0.2-1.19,0.3-1.79c0.07-0.44,0.14-0.88,0.2-1.32c0.07-0.57,0.14-1.14,0.2-1.71c0.04-0.35,0.06-0.71,0.09-1.07
			c0.01-0.09,0.02-0.18,0.04-0.27c0.03-0.08,0.07-0.16,0.12-0.22c0.1-0.12,0.24-0.08,0.31,0.07c0.03,0.08,0.05,0.17,0.06,0.26
			c0.03,0.45,0.06,0.89,0.09,1.34c0.05,0.71,0.1,1.43,0.16,2.14c0.04,0.41,0.11,0.82,0.15,1.23c0.03,0.38,0.07,0.77,0.16,1.14
			c0.02,0.09,0.03,0.19,0.04,0.29c0.03,0.34,0.08,0.68,0.17,1.01c0.03,0.09,0.03,0.19,0.05,0.29c0.04,0.23,0.09,0.46,0.14,0.69
			c0.01,0.03,0.02,0.07,0.02,0.1c0.09,0.43,0.18,0.87,0.28,1.29c0.09,0.37,0.2,0.74,0.31,1.11c0.08,0.27,0.17,0.53,0.25,0.8
			c0.18,0.58,0.38,1.15,0.61,1.7c0.22,0.52,0.45,1.03,0.69,1.53c0.28,0.59,0.61,1.14,0.97,1.67
			C930.92,252.24,931.13,252.53,931.34,252.83z"/>
	</g>
	<g>
		<path class="st3" d="M903.52,281.46c0.43,0.48,0.9,0.89,1.39,1.28c0.44,0.34,0.9,0.66,1.38,0.94c0.46,0.28,0.93,0.53,1.42,0.77
			c0.44,0.21,0.89,0.41,1.34,0.6c0.35,0.15,0.7,0.29,1.05,0.42c0.25,0.09,0.51,0.17,0.76,0.25c0.29,0.09,0.59,0.18,0.88,0.26
			c0.07,0.02,0.14,0.04,0.21,0.05c0.3,0.06,0.59,0.12,0.89,0.19c0.05,0.01,0.1,0.03,0.15,0.06c0.08,0.05,0.08,0.12,0.02,0.18
			c-0.04,0.03-0.08,0.06-0.13,0.07c-0.1,0.02-0.2,0.02-0.29,0.04c-0.39,0.08-0.79,0.16-1.18,0.25c-0.48,0.11-0.95,0.27-1.41,0.43
			c-0.37,0.13-0.73,0.27-1.09,0.42c-0.41,0.17-0.82,0.35-1.22,0.54c-0.61,0.28-1.2,0.6-1.77,0.95c-0.61,0.38-1.19,0.8-1.73,1.27
			c-0.48,0.42-0.93,0.88-1.34,1.39c-0.4,0.49-0.75,1.03-1.05,1.59c-0.14,0.27-0.27,0.54-0.4,0.82c-0.14,0.31-0.28,0.63-0.4,0.94
			c-0.09,0.22-0.16,0.44-0.23,0.67c-0.09,0.27-0.17,0.55-0.26,0.82c0,0.01-0.01,0.02-0.01,0.04c-0.08,0.32-0.15,0.64-0.22,0.95
			c-0.08,0.35-0.14,0.71-0.2,1.07c-0.07,0.41-0.12,0.82-0.17,1.23c-0.03,0.3-0.08,0.59-0.11,0.89c-0.03,0.24-0.04,0.47-0.06,0.71
			c-0.01,0.08-0.02,0.15-0.04,0.23c-0.02,0.06-0.04,0.11-0.08,0.16c-0.08,0.1-0.18,0.08-0.23-0.04c-0.03-0.07-0.04-0.14-0.05-0.21
			c-0.04-0.34-0.08-0.68-0.12-1.02c-0.01-0.11-0.01-0.22-0.03-0.32c-0.05-0.34-0.09-0.68-0.15-1.01c-0.08-0.44-0.16-0.87-0.25-1.31
			c-0.06-0.31-0.14-0.62-0.21-0.93c-0.06-0.26-0.12-0.52-0.2-0.77c-0.14-0.47-0.28-0.95-0.43-1.42c-0.23-0.69-0.51-1.36-0.85-2
			c-0.5-0.96-1.17-1.79-1.94-2.52c-0.65-0.61-1.34-1.14-2.08-1.62c-0.73-0.47-1.5-0.88-2.29-1.24c-0.7-0.32-1.41-0.59-2.13-0.8
			c-0.65-0.19-1.3-0.36-1.97-0.44c-0.23-0.03-0.45-0.08-0.68-0.12c-0.07-0.01-0.14-0.01-0.21-0.02c-0.05-0.01-0.1-0.03-0.14-0.06
			c-0.06-0.05-0.06-0.12,0.01-0.17c0.02-0.02,0.05-0.02,0.08-0.03c0.06-0.01,0.11-0.02,0.17-0.02c0.45-0.02,0.9-0.06,1.35-0.14
			c0.37-0.07,0.75-0.15,1.12-0.24c0.28-0.06,0.55-0.15,0.83-0.24c0.22-0.07,0.45-0.14,0.67-0.22c0.39-0.14,0.78-0.29,1.16-0.45
			c0.32-0.13,0.63-0.27,0.94-0.42c0.34-0.17,0.68-0.34,1.01-0.53c0.42-0.25,0.84-0.51,1.25-0.79c0.67-0.46,1.3-0.98,1.85-1.59
			c0.49-0.54,0.91-1.13,1.26-1.78c0.31-0.58,0.57-1.18,0.79-1.8c0.18-0.5,0.34-1.01,0.48-1.52c0.14-0.52,0.29-1.04,0.42-1.57
			c0.09-0.36,0.15-0.73,0.22-1.1c0.05-0.27,0.11-0.54,0.15-0.81c0.05-0.35,0.1-0.7,0.15-1.05c0.03-0.22,0.04-0.44,0.06-0.66
			c0.01-0.06,0.01-0.11,0.03-0.16c0.02-0.05,0.05-0.1,0.09-0.14c0.08-0.07,0.18-0.05,0.23,0.05c0.02,0.05,0.04,0.11,0.04,0.16
			c0.03,0.27,0.05,0.55,0.07,0.83c0.04,0.44,0.08,0.88,0.12,1.31c0.03,0.25,0.08,0.5,0.11,0.76c0.02,0.24,0.06,0.47,0.12,0.7
			c0.02,0.06,0.02,0.12,0.03,0.18c0.02,0.21,0.06,0.42,0.13,0.62c0.02,0.06,0.02,0.12,0.04,0.18c0.03,0.14,0.07,0.28,0.1,0.43
			c0.01,0.02,0.01,0.04,0.02,0.06c0.07,0.27,0.13,0.53,0.21,0.8c0.07,0.23,0.15,0.46,0.23,0.68c0.06,0.17,0.13,0.33,0.19,0.49
			c0.13,0.36,0.28,0.71,0.46,1.04c0.17,0.32,0.33,0.63,0.51,0.94c0.21,0.36,0.46,0.7,0.72,1.03
			C903.2,281.09,903.36,281.27,903.52,281.46z"/>
	</g>
	<g>
		<path class="st3" d="M932.27,296.6c0.3,0.29,0.63,0.55,0.98,0.79c0.31,0.21,0.63,0.4,0.97,0.58c0.33,0.17,0.66,0.33,1,0.47
			c0.31,0.13,0.63,0.25,0.94,0.37c0.24,0.09,0.49,0.18,0.74,0.26c0.18,0.06,0.36,0.11,0.53,0.15c0.21,0.06,0.41,0.11,0.62,0.16
			c0.05,0.01,0.1,0.02,0.15,0.03c0.21,0.04,0.42,0.08,0.62,0.12c0.04,0.01,0.07,0.02,0.1,0.03c0.05,0.03,0.06,0.07,0.01,0.11
			c-0.02,0.02-0.06,0.03-0.09,0.04c-0.07,0.01-0.14,0.01-0.2,0.02c-0.28,0.05-0.55,0.1-0.83,0.15c-0.34,0.07-0.67,0.16-0.99,0.26
			c-0.26,0.08-0.52,0.17-0.77,0.26c-0.29,0.1-0.57,0.22-0.86,0.33c-0.43,0.17-0.84,0.37-1.24,0.58c-0.43,0.23-0.83,0.49-1.22,0.78
			c-0.34,0.26-0.65,0.54-0.94,0.85c-0.28,0.3-0.53,0.63-0.74,0.97c-0.1,0.16-0.19,0.33-0.28,0.5c-0.1,0.19-0.19,0.38-0.28,0.58
			c-0.06,0.13-0.11,0.27-0.16,0.41c-0.06,0.17-0.12,0.34-0.18,0.51c0,0.01-0.01,0.01-0.01,0.02c-0.05,0.2-0.11,0.39-0.16,0.59
			c-0.05,0.22-0.1,0.43-0.14,0.65c-0.05,0.25-0.08,0.5-0.12,0.75c-0.02,0.18-0.06,0.36-0.08,0.54c-0.02,0.14-0.03,0.29-0.04,0.44
			c-0.01,0.05-0.01,0.09-0.03,0.14c-0.01,0.03-0.03,0.07-0.06,0.1c-0.06,0.06-0.13,0.05-0.16-0.02c-0.02-0.04-0.03-0.09-0.03-0.13
			c-0.03-0.21-0.06-0.42-0.08-0.62c-0.01-0.07-0.01-0.13-0.02-0.2c-0.03-0.21-0.06-0.41-0.1-0.62c-0.05-0.27-0.11-0.54-0.18-0.8
			c-0.04-0.19-0.1-0.38-0.15-0.57c-0.04-0.16-0.09-0.32-0.14-0.48c-0.1-0.29-0.19-0.58-0.3-0.87c-0.16-0.42-0.36-0.83-0.59-1.22
			c-0.36-0.59-0.82-1.1-1.37-1.54c-0.45-0.37-0.95-0.7-1.46-0.99c-0.52-0.29-1.05-0.54-1.61-0.76c-0.49-0.19-0.99-0.36-1.5-0.49
			c-0.46-0.12-0.92-0.22-1.39-0.27c-0.16-0.02-0.32-0.05-0.48-0.07c-0.05-0.01-0.1,0-0.15-0.01c-0.04-0.01-0.07-0.02-0.1-0.04
			c-0.05-0.03-0.04-0.08,0.01-0.1c0.02-0.01,0.04-0.02,0.06-0.02c0.04-0.01,0.08-0.01,0.12-0.01c0.32-0.01,0.63-0.04,0.95-0.09
			c0.26-0.04,0.52-0.09,0.78-0.15c0.2-0.04,0.39-0.09,0.58-0.14c0.16-0.04,0.31-0.09,0.47-0.14c0.27-0.09,0.55-0.18,0.82-0.27
			c0.22-0.08,0.44-0.16,0.66-0.26c0.24-0.1,0.48-0.21,0.71-0.32c0.3-0.15,0.59-0.31,0.88-0.48c0.47-0.28,0.91-0.6,1.3-0.97
			c0.34-0.33,0.64-0.69,0.88-1.09c0.22-0.35,0.4-0.72,0.56-1.1c0.13-0.31,0.24-0.62,0.34-0.93c0.1-0.32,0.2-0.64,0.29-0.96
			c0.06-0.22,0.11-0.45,0.16-0.68c0.04-0.17,0.07-0.33,0.1-0.5c0.04-0.21,0.07-0.43,0.1-0.64c0.02-0.13,0.03-0.27,0.05-0.4
			c0-0.03,0.01-0.07,0.02-0.1c0.01-0.03,0.03-0.06,0.06-0.08c0.05-0.04,0.13-0.03,0.16,0.03c0.02,0.03,0.03,0.06,0.03,0.1
			c0.02,0.17,0.03,0.34,0.05,0.51c0.03,0.27,0.05,0.54,0.09,0.81c0.02,0.16,0.06,0.31,0.08,0.46c0.02,0.15,0.04,0.29,0.08,0.43
			c0.01,0.04,0.02,0.07,0.02,0.11c0.02,0.13,0.04,0.26,0.09,0.38c0.01,0.03,0.02,0.07,0.03,0.11c0.02,0.09,0.05,0.17,0.07,0.26
			c0,0.01,0.01,0.03,0.01,0.04c0.05,0.16,0.09,0.33,0.15,0.49c0.05,0.14,0.11,0.28,0.16,0.42c0.04,0.1,0.09,0.2,0.13,0.3
			c0.09,0.22,0.2,0.43,0.32,0.64c0.12,0.19,0.23,0.39,0.36,0.58c0.15,0.22,0.32,0.43,0.51,0.63
			C932.05,296.38,932.16,296.49,932.27,296.6z"/>
	</g>
</g>
</svg>
