<?xml version="1.0" encoding="utf-8"?>
<!-- Generator: Adobe Illustrator 26.4.1, SVG Export Plug-In . SVG Version: 6.00 Build 0)  -->
<svg version="1.1" id="National_Suicide_Prevention_Week"
	 xmlns="http://www.w3.org/2000/svg" xmlns:xlink="http://www.w3.org/1999/xlink" x="0px" y="0px" viewBox="0 0 1080 485"
	 style="enable-background:new 0 0 1080 485;" xml:space="preserve">
<style type="text/css">
	.st0{clip-path:url(#SVGID_00000176041485688775793990000010949190744439299250_);fill:#EFF6F9;}
	.st1{fill:#514483;}
	.st2{fill:#3C2E72;}
	.st3{fill:#3A2D72;}
	.st4{fill:#524583;}
	.st5{fill:#3B2D72;}
	.st6{fill:#3B2E72;}
	.st7{fill:#514583;}
	.st8{fill:#3C2E73;}
	.st9{fill:#534684;}
	.st10{fill:#3C2F73;}
	.st11{fill:#544784;}
	.st12{fill:#3E3174;}
	.st13{fill:#FCFF2C;}
</style>
<g>
	<g>
		<defs>
			<rect id="SVGID_1_" x="75" y="20" width="930" height="442.95"/>
		</defs>
		<clipPath id="SVGID_00000008135366109378816940000009870061188660722582_">
			<use xlink:href="#SVGID_1_"  style="overflow:visible;"/>
		</clipPath>
		<path style="clip-path:url(#SVGID_00000008135366109378816940000009870061188660722582_);fill:#EFF6F9;" d="M124.99,452.07
			c-8.06-3.07-15.67-7.38-22-13.26c-6.03-5.44-11.22-11.88-14.07-19.56c-2.17-5.59-3.12-14.01-1.57-19.86
			c1.41-5.31,4.95-9.72,8.65-13.67c2.31-2.37,4.69-4.69,7.27-6.76c4.1-3.22,8.46-6.1,12.48-9.43c3.86-3.15,6.71-7.88,6.84-12.91
			c-0.19-4.53-2.6-8.74-5.31-12.25c-3.05-3.47-6.9-6.12-10.61-8.82c-6.38-4.54-13.42-8.13-19.53-13.03
			c-6.63-5.49-12-12.88-10.6-21.92c0.4-3.63,1.9-7.03,3.63-10.21c2.93-5.72,7.37-10.52,12.45-14.41
			c8.28-6.24,17.49-11.1,26.62-15.95c8.89-4.64,18.53-8.36,26.13-15.07c3.01-2.66,5.19-6.08,6.94-9.65c1.8-3.57,3.3-7.32,4.21-11.22
			c1.24-4.98,0.51-10.22-0.05-15.24c-1.12-8.84-3.41-17.47-5.24-26.18c-1.79-8.64-0.77-17.87,2.94-25.88
			c4.62-9.33,13.5-15.51,21.73-21.44c6.99-4.84,14.36-9.29,22.43-12.09c8.5-2.95,17.41-4.56,26.25-6.15
			c6.8-1.09,13.63-2.16,20.53-2.4c15.06-0.32,30.16,0.86,45.05,3.14c21.18,3.21,41.66,9.98,62.18,15.87
			c21.45,6.13,36.16,9.89,58.03,1.6c9.75-3.86,17.85-10.48,26.18-16.74c6.37-5.5,12.95-10.76,19.98-15.4
			c5.14-3.37,10.53-6.43,16.33-8.51c17.48-6.24,36.21-7.21,54.45-9.8c11.29-1.3,22.39-3.72,33.36-6.65
			c58.23-20.98,114.07-51.2,176.6-56.4c22-1.71,44.86,0.07,65.12,9.38c19.89,8.97,36.05,24.01,53.92,36.22
			c21.8,15.76,48.39,21.88,72.49,33.06c6.48,2.97,12.9,6.19,18.6,10.52c7.88,6.16,15.03,13.28,21.28,21.1
			c22.85,28.57,23.5,63.18,13.62,97.06c-1.95,7.19-4.48,14.27-5.32,21.67c-0.77,8.55,1.45,17.19,5.21,24.83
			c6.09,12.22,14.62,23.2,18.72,36.35c2.06,6.36,3.03,13.01,3.55,19.66c0.42,5.52,0.46,11.1-0.28,16.6
			c-1.5,12.04-8.41,22.79-17.54,30.55c-16.92,15.62-39.63,13.92-60.87,11.31c-12.26-1.41-24.59-1.87-36.87-1.41
			c-14.19,0.62-28.39,1.51-42.46,3.45c-16.01,2.17-31.69,6.06-47.44,9.58c-6.55,1.38-13.19,2.57-19.9,2.64
			c-10.95-0.14-21.81-2.14-32.4-4.81c-19.68-5.07-38.92-11.71-57.98-18.72c-8.45-3.04-16.93-6.09-25.71-8.02
			c-24.89-5.36-50.74-0.47-74.93,5.94c-13.6,3.66-26.88,8.58-39.33,15.17c-19.05,10.01-35.99,23.36-53.93,35.12
			c-11.59,7.52-23.86,14.17-36.95,18.67c-16.45,5.32-33.92,7.38-51.17,6.46c-27.74-1.5-54.73-10.82-82.66-9.27
			c-27.31,1.29-54.22,6.39-81.11,10.94c-20.42,3.43-40.97,6.9-61.72,6.98C161.99,462.71,142.87,458.94,124.99,452.07z"/>
	</g>
	<g>
		<path class="st1" d="M803.61,294.51c0.01,0.99,0.26,2.42,0.27,3.39c0.06,8.89,0.16,17.77,0.09,26.66
			c-0.03,4.33-0.58,8.64-2.15,12.71c-0.79,2.05-1.83,4.06-3.07,5.87c-4.43,6.44-15.03,6.8-19.8,0.21c-1.83-2.52-3.29-5.22-4.4-8.11
			c-1.33-3.45-2.49-6.97-3.82-10.42c-0.69-1.81-1.14-3.78-2.65-5.06c-0.95-0.1-1.26,0.49-1.44,1.05c-0.61,1.87-1.07,3.8-1.73,5.66
			c-0.9,2.55-1.81,5.11-2.92,7.58c-0.6,1.32-1.52,2.55-2.48,3.66c-2.24,2.61-5.14,3.78-8.58,3.41c-5.57-0.61-10.04-3.21-13.46-7.62
			c-2.93-3.78-4.66-8.12-5.6-12.77c-0.49-2.41-0.91-4.87-1-7.32c-0.48-12.33-0.94-24.66-1.21-37c-0.14-6.41,0.15-13.56,0.61-20.31
			c1.07-0.52,1.77,0.04,2.47-0.17c3.25-0.97,6.48-1.93,9.82-2.59c3.22-0.64,7.01-2.16,10.16-3.12c-0.47,2.53-1.69,6.84-2.22,9.36
			c-0.53,2.53-1.08,5.06-1.42,7.61c-0.18,1.32-0.12,2.74,0.17,4.03c0.26,1.16,0.81,2.35,1.54,3.28c1.68,2.16,3.31,1.88,4.3-0.68
			c0.62-1.6,1.05-3.28,1.56-4.93c0.62-2,1.15-4.03,1.89-5.99c0.42-1.13,1.09-2.2,1.79-3.2c0.62-0.88,1.57-1.14,2.64-0.77
			c1.77,0.62,3.34,1.55,4.69,2.87c1.78,1.76,3.17,3.79,4.1,6.09c1.15,2.85,2.13,5.77,3.25,8.64c0.44,1.13,1,2.23,1.63,3.27
			c0.38,0.64,1.59,0.46,1.81-0.26c0.28-0.92,0.57-1.9,0.56-2.85c-0.05-2.83-0.03-5.66-0.2-8.48c-0.1-1.72-0.07-4.12-0.31-6.08
			c1.16,0.39,2.22,1.55,2.82,2.41c2.68,3.81,5.36,7.63,7.8,11.59c3.03,4.91,6.05,9.82,9.57,14.39
			C800.02,292.23,801.56,293.49,803.61,294.51z"/>
		<path class="st2" d="M620.35,194.14c-3.04-1.05-5.23-3.22-7.15-5.65c-3.29-4.17-5.22-8.91-5.62-14.26
			c-0.3-3.95-0.39-7.89,0.14-11.83c0.36-2.72,1.07-5.33,2.39-7.74c2.05-3.73,5.28-5.8,9.43-6.43c3.85-0.59,6.16,0.62,7.78,4.14
			c0.77,1.67,1.25,3.48,1.87,5.22c0.46,1.28,0.83,2.6,1.43,3.8c1.31,2.6,3.29,3.25,5.81,1.79c1.14-0.66,2.22-1.62,2.98-2.69
			c0.91-1.29,1.6-2.79,2.1-4.3c1.26-3.81,1.34-7.77,1.13-11.73c-0.1-1.96-1.12-3.29-2.98-3.79c-1.42-0.38-2.9-0.6-4.37-0.65
			c-2.71-0.1-5.44,0.06-8.15-0.05c-2.46-0.1-4.95-0.24-7.37-0.67c-6.73-1.19-11.53-4.97-13.93-11.4
			c-3.48-9.37-3.42-18.65,1.62-27.53c5.94-10.47,14.87-17.33,26.22-21.07c6.07-2,12.27-2.77,18.62-1.44
			c4.7,0.98,8.91,2.92,12.32,6.36c7.22,7.27,5.27,15.85,0.22,21.21c-2.9,3.07-6.52,4.85-10.61,5.66c-3.62,0.72-6.57-0.42-8.71-3.5
			c-0.77-1.12-1.52-2.26-2.34-3.33c-1.09-1.42-2.5-1.86-4.26-1.33c-3.12,0.94-5.12,2.86-5.72,6.13c-0.02,0.12-0.05,0.24-0.07,0.36
			c-0.46,4.28-0.49,6.01,4.72,7.03c2.79,0.55,5.62,0.86,8.4,1.44c2.77,0.58,5.57,1.17,8.24,2.09c7.68,2.65,12.71,7.84,14.33,16.17
			c-1.18,1.1-2.28,1.76-2.97,2.72c-5.69,7.97-11.33,15.99-16.93,24.03c-2.87,4.13-5.61,8.35-8.46,12.49
			c-1.59,2.32-3.12,4.71-5.33,6.52c-2.55,2.09-5.21,4.08-7.63,6.31c-1.82,1.68-3.6,3.33-5.92,4.28
			C620.88,192.8,620.36,193.28,620.35,194.14z"/>
		<path class="st3" d="M167.22,210.24c-0.06-0.98-0.07-2.26-0.16-3.43c-0.7-8.73-0.2-17.52-0.15-26.28
			c0.02-3.71,0.26-7.42,1.34-10.98c0.61-1.99,1.39-3.98,2.42-5.78c2.24-3.92,5.62-6.58,10.04-7.59c2.26-0.52,4.63-0.66,6.95-0.77
			c2.21-0.11,4.04,0.89,5.59,2.45c1.67,1.69,3.02,3.62,3.93,5.79c1.57,3.75,3.1,7.52,4.4,11.37c1.61,4.79,2.92,9.68,4.45,14.5
			c0.7,2.23,1.53,4.43,2.44,6.58c0.47,1.12,1.13,2.21,1.91,3.15c1.47,1.8,3.46,1.49,4.29-0.73c0.55-1.48,0.94-3.1,0.98-4.67
			c0.06-3.08-0.06-6.17-0.32-9.23c-0.45-5.41-1.08-10.8-1.56-16.21c-0.14-1.59-0.17-3.21-0.05-4.81c0.24-3.29,1.61-4.9,4.78-5.77
			c3.65-1,7.36-0.75,11.03-0.3c6.76,0.84,9.27,3.45,10.08,10.16c0.16,1.34,0.26,2.71,0.23,4.06c-0.64,23.57-0.42,47.14-0.58,71.03
			c-2.96-0.34-4.7-2.37-6.72-3.91c-2.24-1.71-4.24-3.72-6.41-5.52c-3.68-3.04-7.51-5.91-11.11-9.04
			c-4.95-4.3-10.51-7.67-16.29-10.65c-3.03-1.57-6.33-2.77-9.64-3.61c-3.54-0.89-7.23-1.19-10.86-1.68
			c-0.71-0.1-1.46,0.08-2.19,0.18C173.02,208.94,170.24,209.83,167.22,210.24z"/>
		<path class="st1" d="M869.69,139.88c1.86,4.34,2.97,9.94,3.98,14.51c1.12,5.07,1.69,10.23,2.09,15.4
			c0.39,5.08-0.21,10.12-0.62,15.16c-0.48,5.78-1.3,11.54-2.85,17.15c-0.59,2.14-1.35,4.23-2.15,6.3c-0.49,1.26-1.15,2.46-1.83,3.63
			c-3.42,5.8-8.61,8.32-15.22,7.88c-2.58-0.17-5.15-0.62-7.68-1.18c-4.7-1.03-9.37-2.21-14.03-3.39c-1.43-0.36-2.83-0.89-4.2-1.45
			c-4.03-1.64-6.66-4.59-7.98-8.71c-0.99-3.08-1.51-6.26-1.56-9.47c-0.07-4.44-0.18-8.91,0.14-13.33c0.69-9.36,1.64-18.69,2.5-28.04
			c0.24-2.58,0.78-6.17,1.45-9.04c2.46-0.66,4.22-0.03,6.26-0.4c5.9-1.07,11.76-2.35,17.78-2.56c0.37-0.01,0.77,0.03,1.1-0.09
			c2.38-0.91,4.86-0.56,7.31-0.65c1.23-0.04,2.45-0.12,3.67-0.23c1.46-0.14,2.91-0.43,4.37-0.48
			C864.8,140.81,867.1,139.89,869.69,139.88z M839.77,172.09c0.43,1.77,1.29,3.19,3.09,3.87c1.82,0.69,3.62,0.57,5.4-0.18
			c1.88-0.79,3.39-2.04,4.44-3.77c1.91-3.15,2.79-6.58,2.22-10.26c-0.85-5.5-3.27-10.29-6.82-14.54c-0.39-0.47-0.83-0.92-1.28-1.33
			c-2.54-2.32-4.91-3.11-5.73,1.69c-0.41,2.42-0.81,4.87-0.97,7.32C839.74,160.42,838.84,165.93,839.77,172.09z"/>
		<path class="st1" d="M729.96,108.53c0,1.84,0.11,3.7,0,5.53c-0.96,16.29-3.04,32.42-7.29,48.2c-1.22,4.51-2.84,8.92-4.44,13.32
			c-1.01,2.79-2.54,5.33-4.33,7.72c-3.07,4.11-7.15,6.35-12.24,6.7c-3.58,0.24-7.14,0.07-10.68-0.68c-5.57-1.17-9.6-4.27-12.1-9.38
			c-1.81-3.69-2.8-7.63-3.56-11.64c-1.19-6.32-1.74-12.71-2.11-19.11c-0.39-6.65-0.5-13.65-0.45-20.65c1.6-0.27,2.03-1.33,2.84-2.11
			c1.04-0.99,1.8-2.12,2.79-3.51c1.92-2.69,4.96-4.81,7.41-6.68c3.31-2.54,6.73-4.65,10.77-5.88c0.09,1.22,0.21,2.78,0.26,4
			c0.24,5.77,0.37,11.59,0.68,17.35c0.09,1.7,0.38,3.43,0.85,5.06c0.68,2.32,2.95,2.75,4.52,0.89c0.61-0.72,1.1-1.66,1.33-2.58
			c0.59-2.38,1.21-4.78,1.45-7.2c0.48-4.76,0.73-9.55,1.05-14.32c0.13-1.96,0.17-3.93,0.69-6.19c3.48-0.3,6.53-0.31,9.58-0.3
			c1.94,0.01,3.84,0.06,5.79,0.54C725.1,108.2,727.55,108.25,729.96,108.53z"/>
		<path class="st1" d="M923.77,158.82c0.09,2.04-0.72,4.52-1.62,6.29c-1.43,2.8-3.26,3.81-6.36,3.17c-1.79-0.37-3.53-1.1-5.19-1.89
			c-1.55-0.73-2.98-1.75-4.46-2.64c-0.84-0.51-1.66-1.08-2.53-1.55c-2.55-1.39-4.27-0.44-4.59,2.5c-0.23,2.1,0.42,3.88,1.86,5.41
			c1.73,1.84,3.88,3.02,6.11,4.1c1.67,0.81,3.37,1.54,5.02,2.37c3.77,1.9,5.7,4.92,5.66,9.21c-0.03,3.34-0.07,6.68-0.91,9.93
			c-0.34,1.3-0.8,2.61-1.45,3.77c-0.9,1.59-2.33,2.17-4.11,1.68c-1.42-0.39-2.79-0.98-4.12-1.61c-2-0.96-3.93-2.07-5.93-3.04
			c-1.24-0.6-2.13-0.21-2.7,1.04c-0.89,1.97-1.14,4.03-0.79,6.15c0.48,2.94,1.85,5.08,5.05,5.58c0.97,0.15,1.94,0.37,2.89,0.61
			c1.79,0.45,3.62,0.81,5.36,1.43c3.73,1.31,6.33,3.88,7.38,7.71c0.64,2.36,1.13,4.83,1.21,7.27c0.1,3.32-0.11,6.66-0.44,9.97
			c-0.43,4.26-2.58,6.15-6.89,6.01c-2.2-0.07-4.42-0.49-6.55-1.05c-5.62-1.48-11-3.65-16.28-6.08c-6.33-2.92-9.96-7.83-11.17-14.67
			c-0.82-4.64-1.2-9.32-1.13-14.01c0.15-9.5,0.47-19.01,0.83-28.51c0.23-6.17,0.61-12.33,1.03-18.49
			c0.38-5.54,1.14-12.13,2.05-17.94c2.9-0.23,5.06,0.96,7.5,1.44c6.78,1.32,13.23,3.54,19.42,6.48c4.87,2.31,9.37,5.28,13.44,8.88
			C921.99,158.87,923.02,158.46,923.77,158.82z"/>
		<path class="st4" d="M167.14,209.62c2.68-0.48,5.88-0.68,8.9-1.08c0.73-0.1,1.48-0.27,2.19-0.18c3.63,0.49,7.32,0.79,10.86,1.68
			c3.31,0.84,6.61,2.04,9.64,3.61c5.77,2.99,11.33,6.35,16.29,10.65c3.6,3.13,7.43,6,11.11,9.04c2.17,1.8,4.18,3.81,6.41,5.52
			c2.02,1.55,3.81,3.18,6.7,3.87c0.41,2.34,0.54,5.05,0.62,7.38c0.16,4.32,0.29,8.66-0.55,12.92c-0.5,2.53-1.08,5.09-2.07,7.46
			c-3.79,9.04-11.93,9.75-18.41,7.88c-1.94-0.56-3.53-1.85-4.66-3.5c-1.39-2.03-2.74-4.11-3.8-6.32c-2.8-5.81-4.38-12.04-5.84-18.29
			c-1.79-7.69-3.41-15.41-5.24-23.09c-0.71-2.99-1.73-5.92-2.78-8.81c-0.5-1.37-1.27-2.68-2.14-3.86c-0.55-0.74-1.46-1.3-2.32-1.71
			c-0.72-0.35-1.48,0-1.87,0.74c-0.28,0.54-0.53,1.14-0.58,1.73c-0.2,2.45-0.62,4.94-0.4,7.36c0.63,7.12,1.41,14.24,2.35,21.33
			c0.82,6.23,1.91,12.44,2.94,18.64c0.27,1.63,0.19,3.19-0.29,4.75c-0.63,2.02-1.92,3.41-3.94,4.1c-0.23,0.08-0.46,0.2-0.7,0.23
			c-6.31,0.98-12.32,0.18-17.74-3.35c-2.63-1.72-3.75-4.55-4.24-7.54c-0.37-2.31-0.6-4.66-0.62-7
			C166.87,239.32,167.1,224.4,167.14,209.62z"/>
		<path class="st5" d="M346.19,252.03c-1-2.73-0.88-5.6-1.01-8.42c-0.5-11.03,0.16-21.97,3.11-32.68c1.32-4.79,3.18-9.35,5.95-13.49
			c5.84-8.71,14.14-12.79,24.5-12.8c6.32,0,11.45,2.63,15.36,7.61c2.08,2.65,3.54,5.63,4.69,8.78c2.01,5.5,2.99,11.21,3.47,17
			c0.57,6.9,0.68,13.81-0.24,21.08c-0.91,0.8-1.55,1.19-2.07,1.7c-2.1,2.08-4.03,4.3-5.96,6.54c-2.89,3.36-6.11,6.45-9.38,9.44
			c-2.16,1.98-4.55,3.8-7.35,4.85c-2.87,1.08-5.66,1.8-8.93,1.01c-5.5-1.33-10.3-3.92-15.07-6.76
			C350.96,254.51,348.93,252.6,346.19,252.03z M374.13,216.35c-6.27,1.57-9.9,5.52-10.59,11.73c-0.36,3.23,0.06,6.42,1.29,9.44
			c0.45,1.12,1.14,2.21,1.94,3.12c2.39,2.71,5.85,3.32,9.08,1.73c2.57-1.27,4.21-3.37,5.23-5.99c1.74-4.48,2.13-9.13,1.33-13.83
			C381.63,218.09,379.44,216.4,374.13,216.35z"/>
		<path class="st1" d="M643.71,267.1c0.03,0.24,0.21,1.04,0.22,1.28c0.36,9.75,0.5,19.49-1.33,29.14c-1.06,5.61-2.74,11-5.53,16.01
			c-6.06,10.89-15.59,16.18-27.78,16.83c-7.02,0.37-12.69-2.58-16.94-8.19c-2.49-3.29-4.12-7.01-5.32-10.92
			c-2-6.55-2.71-13.3-2.64-20.1c0.1-8.52,0.99-17.05,2.86-25.39c0.11-0.48,0.58-1.29,0.93-2.06c5.28-1.5,9.8-2.74,14.89-2.86
			c3.61-1.19,7.32-0.46,10.99-0.62c0.77-0.03,1.99-0.12,2.21,0.8c-3.25,1.06-6.32,3.05-8.19,5.62c-3.99,5.46-4.23,11.39-1.97,17.57
			c0.17,0.46,0.42,0.89,0.68,1.31c2.27,3.63,6.36,4.92,10.3,3.25c2.51-1.06,4.39-2.88,5.37-5.36c2.72-6.86,3.43-13.97-0.16-21.11
			c0.72-0.42,1.64-0.63,2.14-0.5c4.14,1.09,8.34,1.98,12.33,3.61C639.02,266.31,641.15,267.1,643.71,267.1z"/>
		<path class="st6" d="M807.12,298.74c-0.15-4.93-0.45-9.86-0.41-14.79c0.06-6.54,0.05-13.11,1.19-19.58
			c0.51-2.9,1.21-5.81,2.23-8.58c2.1-5.73,6.38-8.86,12.42-9.74c5.82-0.84,11.61-0.41,17.36,0.38c10.04,1.37,19.95,3.51,29.67,6.37
			c3.18,0.94,6.27,2.26,9.29,3.64c1.77,0.81,3.43,1.97,4.97,3.19c3.16,2.53,4.84,5.9,4.87,9.97c0.02,2.22,0.03,4.47-0.34,6.65
			c-0.96,5.64-4.32,8.77-10.03,9.14c-3.18,0.21-6.46,0.15-9.59-0.39c-5.71-0.99-11.34-2.42-17-3.7c-4.21-0.95-8.39-2.05-12.63-2.89
			c-1.79-0.36-3.7-0.42-5.52-0.25c-3.5,0.33-5.27,2.29-5.61,5.78c-0.01,0.12-0.01,0.25-0.02,0.37c-0.3,4.67,1.21,6.95,5.68,8.21
			c1.89,0.54,3.87,0.78,5.91,1.51c-0.74,0.82-1.55,1.39-2.44,1.74c-2.51,0.99-5.04,1.94-7.58,2.82c-4.3,1.5-8.63,2.7-13.29,2.45
			c-2.49-0.13-4.88-0.21-7.07-1.58C808.58,299.07,807.81,298.97,807.12,298.74z"/>
		<path class="st7" d="M515.42,309.13c0.08,0.73,0.23,3.63,0.22,4.36c-0.14,7.52-0.21,15.05-0.48,22.57
			c-0.29,7.99-3.23,14.87-9.15,20.37c-3.02,2.81-6.52,4.85-10.35,6.34c-3.24,1.26-6.13,0.65-8.34-2.03
			c-1.24-1.51-2.38-3.18-3.17-4.96c-1.36-3.03-2.47-6.18-3.57-9.32c-1.14-3.26-2.09-6.58-3.22-9.84c-0.6-1.74-1.34-3.45-2.16-5.1
			c-0.49-0.98-1.15-1.92-1.92-2.69c-1.86-1.87-4.1-1.38-4.88,1.09c-0.4,1.27-0.68,2.67-0.6,3.99c0.2,3.56,0.39,7.16,1.01,10.66
			c1.05,5.95,2.26,11.88,3.73,17.73c1.14,4.55-0.16,8.01-3.68,10.79c-3.72,2.94-7.95,5-12.48,6.29c-4.27,1.21-6.27-0.21-7.01-4.59
			c-0.14-0.85-0.18-1.72-0.21-2.58c-0.5-13.07-0.99-26.14-1.48-39.2c-0.13-3.33-0.27-7.86-0.06-11.5c0.92-0.51,1.51,0.53,2.07,0.3
			c3.88-1.57,7.7-3.26,11.84-4.09c2.76-0.55,5.48-1.28,8.35-1.25c1.57,0.02,3.14-0.57,4.72-0.65c4.78-0.23,9.57,0.15,14.36-0.66
			c3.35-0.57,6.83-0.27,10.27-0.74c4.63-0.63,9.2-1.39,13.68-2.7C513.7,311.48,514.57,309.27,515.42,309.13z"/>
		<path class="st1" d="M475.62,202.71c0.08,0.98,0.15,2.34,0.17,3.32c0.13,7.4,0.3,14.8,0.32,22.2c0.01,2.7-0.07,5.46-0.58,8.1
			c-1.42,7.23-5.31,12.93-11.47,17.01c-2.68,1.78-5.57,3.13-8.65,4.13c-3.29,1.07-6.12,0.39-8.43-2.09
			c-1.17-1.25-2.26-2.65-3.01-4.17c-1.37-2.75-2.59-5.59-3.63-8.49c-1.37-3.83-2.43-7.76-3.76-11.6c-0.84-2.44-1.88-4.82-2.94-7.17
			c-0.61-1.36-1.55-2.52-2.9-3.27c-1.46-0.81-3.14-0.41-3.72,1.14c-0.51,1.36-0.8,2.85-0.88,4.3c-0.24,4.33,0.35,8.62,1.14,12.87
			c1.04,5.57,2.08,11.15,3.41,16.66c0.97,4-0.18,7.09-3.24,9.5c-4.47,3.52-9.72,5.32-15.29,6.04c-3.42,0.44-5.32-1.08-6.11-4.51
			c-0.38-1.66-0.54-3.41-0.56-5.12c-0.1-9.13-0.02-18.69,0.26-28.18c3.24-2.39,5.81-4.31,8.32-6.78c3.87-3.81,8.22-7,12.69-9.98
			c5.51-3.68,11.31-6.91,17.57-9.21c4.13-1.52,8.25-3.09,12.69-3.58c3.15-0.35,6.27-0.97,9.42-1.32c1.45-0.16,3.01-0.23,4.38,0.14
			C472.42,203.08,474.03,202.68,475.62,202.71z"/>
		<path class="st5" d="M671.44,282.3c-0.75-1.04-1.68-2.61-2.51-3.58c-0.66-0.77-1.97-0.71-3.4,0.15c-1.58-0.25-2.24,0.55-3.38,0.18
			c-5.29-1.68-10.24-6.75-15.36-9.29c-0.08-0.98-0.22-1.96-0.23-2.93c-0.04-6.66-0.06-13.33-0.07-19.99c0-3.71,0.35-7.39,1.23-11.01
			c0.65-2.66,1.62-5.19,3.12-7.48c2.73-4.19,6.55-6.58,11.58-7.05c2.01-0.19,3.62,0.43,4.96,1.92c1.51,1.68,2.58,3.65,3.29,5.75
			c1.35,3.97,2.63,7.96,3.73,12c1.59,5.83,2.94,11.72,4.5,17.56c0.57,2.14,1.38,4.22,2.21,6.27c0.36,0.89,0.97,1.72,1.61,2.45
			c0.68,0.78,2.13,0.53,2.46-0.46c0.46-1.39,0.9-2.84,0.99-4.29c0.13-2.21,0.07-4.45-0.1-6.65c-0.47-5.9-1.08-11.8-1.56-17.7
			c-0.18-2.21-0.17-4.44-0.21-6.66c-0.01-0.74,0.03-1.49,0.14-2.21c0.56-3.52,2.34-5.2,5.93-5.44c2.72-0.19,5.42-0.01,8.08,0.72
			c3.11,0.85,5.21,2.79,6.18,5.82c0.49,1.51,0.8,3.11,0.96,4.7c0.2,1.96,0.22,3.94,0.21,5.92c-0.05,10.12-0.13,20.24-0.53,30.73
			c-5.2,3.38-10.07,6.4-15.41,8.55c-3.42,1.38-6.92,2.37-10.67,2.17c-1.82-0.1-3.65,0.09-5.44-0.57
			C672.99,281.6,672.29,282.31,671.44,282.3z"/>
		<path class="st5" d="M242.91,246.05c-0.1-1.1-0.29-2.19-0.28-3.29c0.14-8.75,0.23-17.5,0.54-26.24c0.2-5.91,0.79-11.8,2.08-17.6
			c0.64-2.9,1.5-5.71,2.93-8.33c2.16-3.95,5.44-6.26,9.92-6.87c5.22-0.71,10.33-0.12,15.33,1.4c4.49,1.36,7.69,4.25,9.77,8.45
			c1.99,4.03,2.95,8.35,3.59,12.75c1.66,11.49,2.07,23.06,2,35.01c-2.27,1.41-4.19,2.47-6.14,3.49c-5.34,2.81-10.95,4.9-16.96,5.6
			c-2.78,0.32-5.68,0.35-8.44-0.05C252.28,249.65,247.48,248.19,242.91,246.05z M273.73,215c-0.18-1.09-0.25-2.22-0.57-3.27
			c-0.99-3.21-3.1-5.25-6.46-5.92c-2.92-0.59-4.85,0.48-5.59,3.37c-0.33,1.3-0.43,2.69-0.42,4.03c0.01,5.72,3.84,9.55,9.51,9.6
			c1.75,0.02,2.9-0.73,3.21-2.43C273.68,218.82,273.66,217.2,273.73,215z"/>
		<path class="st5" d="M475.63,202.76c-1.65,0.31-3.21,0.33-4.8-0.11c-1.38-0.37-2.94-0.3-4.38-0.14c-3.15,0.35-6.27,0.97-9.42,1.32
			c-4.44,0.49-8.56,2.06-12.69,3.58c-6.25,2.31-12.06,5.54-17.57,9.21c-4.47,2.98-8.82,6.18-12.69,9.98
			c-2.51,2.47-5.18,4.82-8.35,6.87c-0.3-1.95-0.38-3.92-0.38-5.89c0.01-8.77-0.02-17.54,0.09-26.31c0.03-2.58,0.26-5.2,0.82-7.71
			c1.65-7.33,5.91-12.67,12.86-15.69c1.69-0.74,3.48-1.26,5.24-1.81c2.6-0.82,4.96-0.15,6.84,1.68c1.4,1.36,2.7,2.91,3.7,4.59
			c1.45,2.43,2.64,5.02,3.86,7.58c1.38,2.9,2.6,5.87,4.04,8.74c0.71,1.42,1.63,2.79,2.7,3.95c1.53,1.65,3.48,1.44,4.64-0.5
			c0.68-1.13,1.08-2.48,1.33-3.79c0.57-2.96,0.01-5.9-0.47-8.83c-0.52-3.17-1.07-6.33-1.52-9.51c-0.21-1.46-0.22-2.95-0.3-4.43
			c-0.12-2.29,0.87-4.07,2.65-5.42c0.88-0.67,1.83-1.28,2.83-1.74c3.93-1.81,8.01-3.22,12.26-4.11c0.48-0.1,0.97-0.21,1.46-0.25
			c3.49-0.32,5.4,0.99,6.21,4.36c0.26,1.07,0.39,2.19,0.42,3.3C475.27,181.92,475.48,192.17,475.63,202.76z"/>
		<path class="st1" d="M231.04,334c0,0.12-0.13,0.73-0.16,0.85c-1.97,7.98-7.14,11.04-15.1,10.19c-1.96-0.21-3.89-0.64-5.84-0.94
			c-0.83-0.13-1.67-0.18-2.75-0.29c-0.16,0.96-0.46,1.77-0.41,2.56c0.32,5.29,0.59,10.59,1.1,15.87c0.63,6.5,1.48,12.99,2.25,19.48
			c0.25,2.11,0.21,4.18-0.36,6.24c-0.84,3.02-2.84,4.84-5.83,5.58c-0.83,0.21-1.71,0.33-2.56,0.34c-4.9,0.04-9.55-1.02-13.83-3.46
			c-3.19-1.82-5.08-4.66-5.86-8.18c-0.45-2.04-0.76-4.14-0.82-6.22c-0.34-11.59-0.57-23.19-0.85-34.78
			c-0.19-7.77-0.35-16.12-0.18-24.23c1.58-0.46,2.74,0.02,3.95-0.11c0.84-0.1,1.68-0.37,2.52-0.34c3.28,0.09,6.52-0.04,9.83,0.55
			c3.99,0.7,7.84,1.69,11.55,3.24c1.18,0.49,2.42,0,3.68,0.26c-1.14,3.43-1.11,7.23,0.08,10.3c0.94,2.43,2.69,4.07,5.22,4.76
			c2.62,0.72,4.28-0.28,4.93-2.91c0.23-0.94,0.29-2.29,0.76-3.26c1.81-0.16,2.78,1.28,3.68,2.22
			C227.37,333.15,229.04,333.74,231.04,334z"/>
		<path class="st5" d="M479.74,203.83c-0.04-1.48-0.16-2.96-0.11-4.43c0.24-7.77,0.65-15.52,1.99-23.22
			c1.95-11.19,7.88-19.22,18.21-24c4.71-2.18,9.43-4.32,14.45-5.67c1.66-0.45,3.37-0.82,5.08-0.96c4.02-0.32,7.32,1.15,9.45,4.62
			c1.09,1.77,1.95,3.72,2.65,5.68c2.02,5.74,2.77,11.76,3.57,17.75c0.33,2.44,0.51,4.91,0.45,7.71c-1.78,1.42-3.4,2.36-4.72,3.61
			c-4.45,4.24-9.08,8.28-13.77,12.24c-3.69,3.11-7.65,5.78-12.09,7.69c-3.55,1.53-7.23,2.53-11.13,1.84
			c-2.53-0.45-5.01-1.17-7.53-1.7C484.08,204.56,481.9,204.22,479.74,203.83z M501.95,180.15c1.19,1.54,2.87,1.83,4.65,1.69
			c3.01-0.25,5.7-1.47,8.22-3.05c1.08-0.68,1.72-1.73,2.05-2.97c0.53-1.96,0.5-3.9-0.15-5.81c-0.74-2.15-2.14-3.3-4.43-3.14
			c-1.68,0.12-3.41,0.53-4.98,1.16C502.22,170.08,500.31,174.16,501.95,180.15z"/>
		<path class="st6" d="M236.22,341.67c-0.13-0.72-0.35-1.44-0.39-2.17c-0.27-5.43-0.61-10.85-0.71-16.29
			c-0.05-2.7,0.25-5.42,0.56-8.11c0.25-2.22,1.05-4.32,2.23-6.23c1.88-3.03,4.61-4.83,8.18-5.01c1.96-0.1,3.98-0.05,5.89,0.36
			c7.43,1.62,14.4,4.46,20.58,8.93c2.49,1.79,4.82,3.87,6.92,6.11c4.38,4.66,6.73,10.31,7.12,16.7c0.31,5.06,0.45,10.14-0.57,15.14
			c-0.47,2.28-1.15,4.55-2.04,6.7c-1.18,2.87-3.37,4.8-6.35,5.83c-1.02,0.35-2.25,0.33-3,1.61c-0.13,1.83,1.14,3.29,1.71,5.17
			c-1.17,0.08-2.22,0.11-3.06-0.3c-2.65-1.27-5.34-2.52-7.8-4.11c-7.72-5.02-14.78-10.87-21.19-17.48
			C241.83,345.97,239.08,343.76,236.22,341.67z M263.46,341.61c2.22,0.03,3.97-0.78,4.35-3.12c0.63-3.91-0.08-7.61-2.51-10.83
			c-1.08-1.43-2.64-2.18-4.37-2.59c-2.89-0.68-4.71,0.37-4.9,3.32c-0.15,2.3,0.1,4.68,0.53,6.96
			C257.21,338.78,259.1,341.2,263.46,341.61z"/>
		<path class="st5" d="M515.51,310.97c-0.94,0.47-1.81,0.51-2.63,0.75c-4.48,1.31-9.05,2.07-13.68,2.7
			c-3.44,0.47-6.92,0.17-10.27,0.74c-4.8,0.81-9.58,0.43-14.36,0.66c-1.58,0.08-3.15,0.67-4.72,0.65c-2.87-0.03-5.59,0.7-8.35,1.25
			c-4.13,0.83-7.96,2.52-11.84,4.09c-0.56,0.23-1.15,0.4-1.98,0.6c-0.83-6.87-1.52-13.77-0.13-20.62
			c1.96-9.65,7.86-15.93,16.89-19.52c2.84-1.13,5.39-0.69,7.52,1.37c1.4,1.36,2.71,2.91,3.7,4.58c1.62,2.76,2.98,5.67,4.4,8.54
			c1.32,2.65,2.5,5.37,3.9,7.98c0.63,1.17,1.54,2.24,2.51,3.16c0.97,0.92,2.47,0.83,3.32-0.21c0.76-0.93,1.39-2.04,1.78-3.17
			c0.95-2.75,0.71-5.61,0.28-8.43c-0.44-2.93-1.06-5.83-1.5-8.75c-0.37-2.44-0.63-4.89-0.9-7.34c-0.34-3.11,0.81-5.6,3.37-7.33
			c1.63-1.1,3.34-2.13,5.13-2.92c2.7-1.19,5.48-2.24,8.29-3.15c1.38-0.45,2.9-0.62,4.36-0.64c2.3-0.02,3.77,1.06,4.34,3.28
			c0.43,1.66,0.68,3.4,0.69,5.11C515.67,286.45,515.62,298.54,515.51,310.97z"/>
		<path class="st2" d="M401.28,378.74c-0.31-2.44-0.74-4.88-0.9-7.34c-0.75-11.7-1.49-23.4-2.11-35.11
			c-0.29-5.43-0.24-10.87,0.46-16.27c0.3-2.31,0.77-4.62,1.38-6.88c1.2-4.42,4.01-7.6,8.06-9.64c5.21-2.62,10.7-4.43,16.43-5.52
			c3.65-0.7,7.33-1.11,11.04-0.82c1.58,0.12,3.19,0.45,4.67,0.99c2.15,0.78,3.37,2.47,3.49,4.79c0.23,4.21,0.09,8.39-0.96,12.5
			c-1.17,4.58-3.85,7.9-8.1,10.02c-2.68,1.34-5.52,2.12-8.4,2.82c-1.32,0.32-2.67,0.53-3.95,0.98c-2.78,0.97-4.43,4.49-3.52,7.29
			c0.29,0.9,0.96,1.54,1.88,1.55c1.34,0.01,2.73-0.03,4.02-0.36c1.78-0.46,3.5-1.2,5.51-1.57c0.37,2-1.17,2.71-2.03,3.86
			c-5.02,6.7-9.5,13.76-13.6,21.04c-2.48,4.4-5.11,8.7-8.02,12.81C405.26,375.85,403.73,377.86,401.28,378.74z"/>
		<path class="st8" d="M888.81,303.83c0.23-3.41,0.62-9.53,0.92-13.95c0.38-5.54,0.76-11.07,1.21-16.6c0.15-1.84,0.38-3.68,0.71-5.5
			c0.19-1.08,0.54-2.16,0.98-3.17c1-2.27,2.8-3.42,5.29-3.28c2.49,0.14,4.87,0.76,7.11,1.87c1.88,0.93,3.14,2.45,3.58,4.47
			c0.42,1.92,0.7,3.89,0.79,5.84c0.28,6.81-0.55,13.54-1.77,20.24c-0.38,2.06-0.72,4.13-0.97,6.21c-0.19,1.59-1.03,4.57,1.02,4.77
			c0.67,0.07,1.29-0.72,1.56-1.27c0.69-1.43,1.28-2.94,1.7-4.48c1.04-3.81,1.85-7.67,2.95-11.46c1.1-3.78,2.27-7.56,3.73-11.21
			c0.81-2.02,2.07-3.95,3.48-5.62c2.41-2.84,5.72-3.41,9.03-1.68c1.39,0.73,2.74,1.73,3.76,2.91c3.18,3.69,4.82,7.93,4.3,12.93
			c-0.98,9.44-4.47,17.63-11.55,24.13c-1.27,1.17-2.51,2.37-3.72,3.6c-0.77,0.79-1.53,1.61-2.18,2.51
			c-1.91,2.67-2.17,5.48-0.32,8.28c1.09,1.64,2.46,3.53,3.66,5.09c1.05,1.37,3.31,2.47,3.13,4.51c-0.06,0.65-0.98,0.4-1.23,0.28
			c-3.52-1.72-7.14-3.29-10.5-5.3c-3.02-1.81-5.86-3.98-8.59-6.22c-3.89-3.2-6.93-7.26-10.17-11.06c-1.91-2.24-3.92-4.36-5.97-6.45
			C890.27,303.73,888.77,304.43,888.81,303.83z"/>
		<path class="st7" d="M775.47,130.04c-0.06,2.59-0.4,7.11-0.4,9.69c0,1.73,0.03,3.46,0.23,5.17c0.37,3.19,2.04,5.53,5.02,6.8
			c1.47,0.63,2.98,1.22,4.52,1.63c2.14,0.58,3.51,1.94,3.93,4c0.49,2.4,0.89,4.87,0.87,7.31c-0.04,5.69-0.76,11.33-1.97,16.89
			c-1.03,4.74-2.82,9.2-5.74,13.14c-1.26,1.7-2.69,3.22-4.52,4.32c-2.42,1.45-5.02,2.18-7.79,1.33c-2.82-0.87-5.66-1.76-8.35-2.96
			c-3.42-1.53-5.65-4.29-6.86-7.87c-0.96-2.84-1.36-5.75-1.47-8.73c-0.24-6.93,0.28-13.82,1.02-20.7c1.36-12.64,2.54-27.2,4.29-40.1
			c1.02,0.05,1.99,2.2,2.59,2.62c3.62,2.52,7.24,5.05,10.8,7.65C772.75,131.05,774.06,129.9,775.47,130.04z"/>
		<path class="st5" d="M211.23,320.98c-1.23,0.04-2.38-0.14-3.56-0.63c-3.71-1.56-7.56-2.54-11.55-3.24
			c-3.31-0.58-6.55-0.45-9.83-0.55c-0.84-0.02-1.68,0.25-2.52,0.34c-1.2,0.14-2.41,0.23-3.93,0.35c-0.38-1.23-0.48-2.46-0.52-3.69
			c-0.14-4.81-0.24-9.62-0.38-14.43c-0.1-3.59,0.08-7.15,1.03-10.64c0.29-1.07,0.61-2.14,1.06-3.15c2.03-4.61,5.46-7.54,10.5-8.4
			c1.33-0.23,2.71-0.42,4.04-0.32c9.87,0.75,18.79,3.95,26.15,10.77c5.65,5.23,8.85,11.85,10.02,19.35
			c1.28,8.21,1.14,16.47-0.04,24.7c-0.12,0.85-0.37,1.69-0.68,2.77c-2.12-0.01-3.65-1.09-5-2.51c-0.9-0.95-1.77-2-3.68-2.11
			c-0.85-2.39-1.16-4.58-1.85-6.65c-0.62-1.86-1.73-3.57-3.83-4.13C214.38,318.24,212.67,319.32,211.23,320.98z"/>
		<path class="st4" d="M855.91,358.98c-4.42-3.1-5.83-7.5-6.5-12.26c-0.77-5.4-0.73-10.83-0.44-16.26
			c0.32-6.04,0.63-12.08,1.16-18.1c0.29-3.31,0.92-6.59,1.59-9.85c0.52-2.54,1.5-4.96,2.89-7.18c2.42-3.86,5.89-5.97,10.5-5.71
			c5.13,0.29,9.94,1.76,14.3,4.53c3.44,2.19,5.39,5.47,6.01,9.38c0.8,5.02,0.72,10.09-0.44,15.08c-0.22,0.95-0.56,1.9-0.98,2.79
			c-1.47,3.13-3.92,5.05-7.36,5.52c-1.95,0.27-3.93,0.34-5.89,0.51c-1.47,0.13-2.97,0.14-4.41,0.43c-1.96,0.4-3.26,1.64-3.82,3.62
			c-0.55,1.94-0.63,3.88-0.13,5.84c0.52,2.06,1.96,3.05,3.92,3.45c1.92,0.39,3.71,0.2,5.08-1.39c0.48-0.56,0.89-1.18,1.29-1.8
			c1.07-1.63,2.56-2.17,4.46-1.95c2.58,0.29,4.39,1.62,5.38,3.95c0.47,1.12,0.77,2.36,0.88,3.57c0.3,3.34,0.1,6.66-0.78,9.91
			c-1.53,5.67-5.21,8.84-11.1,9.22C866.14,362.62,860.92,361.85,855.91,358.98z M872.37,309.48c-0.03-1.94-0.7-3.61-2.16-4.9
			c-1.71-1.51-3.97-1.09-4.87,0.98c-0.43,0.99-0.7,2.11-0.8,3.19c-0.24,2.68,1.5,5.02,4.13,5.81c0.95,0.29,1.83,0.04,2.25-0.76
			C871.53,312.63,871.89,311.32,872.37,309.48z"/>
		<path class="st4" d="M479.75,203.59c2.25,0.05,4.33,0.97,6.48,1.42c2.52,0.52,5,1.25,7.53,1.7c3.9,0.69,7.58-0.31,11.13-1.84
			c4.44-1.92,8.4-4.58,12.09-7.69c4.69-3.96,9.32-8,13.77-12.24c1.32-1.25,2.99-2.58,4.72-3.69c0.48,1.43,0.78,3.27,0.86,4.74
			c0.59,10.11,1.16,20.22,1.64,30.33c0.09,1.95-0.11,3.95-0.43,5.88c-0.51,3.09-2.29,5.43-4.9,7.11c-3.37,2.16-7.11,3.41-11.02,4.15
			c-0.24,0.05-0.49,0.06-0.74,0.07c-3.72,0.25-5.56-1.09-6.25-4.77c-0.29-1.57-0.24-3.2-0.33-4.8c-0.22-3.57-0.38-7.15-0.69-10.72
			c-0.12-1.33-0.49-2.68-0.97-3.93c-0.58-1.51-1.79-1.97-3.31-1.52c-2.49,0.73-4.02,2.42-4.51,4.92c-0.4,2.05-0.68,4.15-0.77,6.24
			c-0.14,3.45-0.01,6.92-0.11,10.37c-0.05,1.72-0.24,3.45-0.56,5.13c-0.56,2.92-2.18,5.24-4.61,6.92c-3.71,2.57-7.87,4.08-12.3,4.85
			c-0.36,0.06-0.74,0.1-1.11,0.11c-2.93,0.11-4.43-0.92-5.12-3.72c-0.35-1.43-0.54-2.92-0.55-4.39
			C479.61,226.99,479.69,215.18,479.75,203.59z"/>
		<path class="st7" d="M807.13,298.69c0.78-0.11,1.45,0.38,2.05,0.76c2.19,1.37,4.58,1.45,7.07,1.58c4.66,0.25,8.99-0.96,13.29-2.45
			c2.55-0.89,5.08-1.83,7.58-2.82c0.89-0.35,1.41-1.02,2.41-1.74c6.85,0.44,8.37,4.47,8.23,9.02c-0.09,2.83-0.43,5.65-0.76,8.46
			c-0.11,0.97-0.44,1.93-0.79,2.85c-1.2,3.16-2.91,4.2-6.27,3.81c-0.98-0.11-1.94-0.33-2.9-0.55c-1.56-0.35-3.11-0.78-4.67-1.11
			c-2.93-0.62-3.9-0.09-4.44,2.75c-0.27,1.42-0.29,2.95-0.1,4.39c0.3,2.27,1.49,3.73,4,4.13c2.29,0.37,4.56,1.08,6.76,1.86
			c4.35,1.54,6.8,4.65,7.37,9.29c0.52,4.22,0.2,8.39-0.58,12.51c-0.67,3.54-2.45,5.08-6.01,5.53c-1.45,0.18-2.98,0.24-4.42,0
			c-4.74-0.79-9.46-1.69-14.16-2.65c-1.31-0.27-2.58-0.81-3.83-1.33c-3.37-1.39-5.67-3.85-7-7.23c-1.28-3.25-1.78-6.65-2.13-10.09
			c-0.77-7.37-0.71-14.78-0.79-22.17C806.99,308.79,807.08,303.71,807.13,298.69z"/>
		<path class="st4" d="M236.11,341.01c2.97,1.79,5.72,4.96,8.2,7.52c6.42,6.61,13.47,12.46,21.19,17.48c2.46,1.6,5.15,2.84,7.8,4.11
			c0.84,0.4,1.7-0.06,2.98,0.14c3.54,4.98,6.99,10.35,10.15,15.35c3.34,5.27,3.77,11.14,3.27,17.14c-0.29,3.47-1.86,5.16-5.37,5.49
			c-2.56,0.24-5.18,0.11-7.75-0.08c-1.92-0.14-3.54-1.21-4.62-2.78c-1.11-1.61-2.15-3.32-2.97-5.09c-2.07-4.51-3.17-9.33-4.42-14.1
			c-1-3.82-1.98-7.64-3.14-11.41c-0.46-1.5-1.33-2.89-2.13-4.27c-0.19-0.33-0.87-0.6-1.25-0.53c-0.36,0.07-0.85,0.6-0.9,0.98
			c-0.22,1.83-0.52,3.69-0.4,5.51c0.41,6.28,0.98,12.55,1.48,18.82c0.12,1.48,0.3,2.96,0.25,4.43c-0.09,2.86-1.63,4.64-4.45,5.04
			c-3.76,0.54-7.39-0.02-10.79-1.76c-2.47-1.26-3.92-3.39-4.52-6.02c-0.43-1.91-0.71-3.89-0.79-5.85
			c-0.59-14.43-1.11-28.86-1.66-43.29C236.2,345.97,236.09,343.16,236.11,341.01z"/>
		<path class="st4" d="M888.8,303.46c0.72,0.04,1.47,0.27,1.95,0.76c2.05,2.09,4.06,4.22,5.97,6.45c3.25,3.8,6.28,7.86,10.17,11.06
			c2.73,2.24,5.57,4.41,8.59,6.22c3.36,2.01,6.97,3.58,10.5,5.3c0.25,0.12,0.67-0.11,1.15-0.38c3.61,3.67,5.42,8.36,6.66,13.29
			c1,3.99,1.08,8.07,0.84,12.15c-0.18,3.08-1.21,5.84-3.85,7.66c-2.9,2-6.17,2.38-9.57,1.81c-1.55-0.26-2.72-1.28-3.48-2.57
			c-0.92-1.59-1.87-3.25-2.32-5c-0.93-3.57-1.59-7.22-2.28-10.86c-0.57-3.03-0.97-6.09-1.56-9.12c-0.28-1.44-0.75-2.87-1.28-4.24
			c-0.3-0.78-0.82-1.54-1.43-2.11c-0.37-0.35-1.12-0.51-1.65-0.43c-0.31,0.04-0.7,0.69-0.77,1.11c-0.18,1.22-0.31,2.46-0.27,3.68
			c0.15,4.81,0.37,9.62,0.58,14.43c0.08,1.85,0.2,3.7,0.33,5.54c0.18,2.61-1.04,4.52-3.02,6.01c-2.35,1.77-5.06,2.56-7.98,2.46
			c-1.35-0.05-2.7-0.29-4.02-0.59c-3.65-0.85-5.79-3.19-6.29-6.89c-0.23-1.7-0.29-3.45-0.21-5.17c0.35-7.52,0.75-15.04,1.19-22.56
			c0.35-5.91,0.78-11.82,1.2-17.73C888.18,310.42,888.45,307.1,888.8,303.46z"/>
		<path class="st4" d="M755.07,117.88c0.02,1.23,0.11,3.18,0.05,4.41c-0.53,11.46-1.64,22.87-3.19,34.24
			c-0.83,6.11-1.65,12.22-2.67,18.3c-0.57,3.39-1.36,6.77-2.35,10.06c-0.56,1.85-1.62,3.58-2.64,5.25c-1,1.64-2.61,2.67-4.47,3.06
			c-3.49,0.73-6.89,0.36-10.01-1.48c-2.24-1.32-3.5-3.42-4.16-5.89c-0.99-3.77-0.9-7.58-0.35-11.39c1.1-7.56,2.2-15.13,3.39-22.68
			c2.12-13.53,4.27-27.56,5.55-41.48c6.56,1.71,12.34,4.52,18.07,7.56C753.12,118.3,754.14,117.64,755.07,117.88z"/>
		<path class="st7" d="M321.2,354.82c1.08,0.15,2.69,0.31,3.73,0.61c2.05,0.59,3.41,2.04,3.94,4.07c1.06,4.11,1.32,8.28,0.3,12.44
			c-0.81,3.28-2.42,4.55-5.82,4.47c-2.21-0.05-4.41-0.42-6.62-0.64c-0.86-0.09-1.72-0.2-2.58-0.23c-0.79-0.02-1.42,0.34-1.83,1.04
			c-1.27,2.17-1.01,5.71,0.56,7.71c0.65,0.82,1.5,1.31,2.56,1.24c1.72-0.11,3.43-0.29,5.15-0.42c1.96-0.14,3.93-0.42,5.89-0.35
			c3.8,0.12,6.55,1.96,8.01,5.54c1.66,4.07,2.08,8.36,1.94,12.7c-0.06,1.98-1.07,3.58-2.8,4.51c-1.29,0.69-2.7,1.28-4.12,1.56
			c-2.29,0.45-4.63,0.77-6.96,0.83c-4.31,0.12-8.63,0.07-12.95-0.04c-1.84-0.05-3.68-0.35-5.5-0.67c-4.49-0.81-7.52-3.41-9.26-7.62
			c-1.47-3.57-2.27-7.32-2.67-11.11c-0.73-6.86-1.23-14.67-1.47-21.92c4.56-2.31,8.89-3.23,13.05-5.31
			c5.49-2.74,11.17-4.98,17.01-6.82C321.46,356.2,321.1,355.44,321.2,354.82z"/>
		<path class="st6" d="M321.41,354.85c0.18,0.73,0.05,1.34-0.65,1.56c-5.85,1.83-11.52,4.07-17.01,6.82
			c-4.16,2.08-8.44,3.91-12.94,5.88c-0.45-1.31-0.73-2.65-0.79-4c-0.49-10.86-1.33-21.71-1.06-32.58c0.09-3.45,0.43-6.9,0.82-10.32
			c0.16-1.45,0.65-2.89,1.18-4.26c1.23-3.18,3.61-5.03,7.02-5.17c2.83-0.12,5.7-0.1,8.5,0.22c5.42,0.62,10.7,1.95,15.66,4.27
			c2.11,0.99,4.15,2.21,6,3.61c2.59,1.96,3.99,4.65,3.95,7.99c-0.03,2.59,0.1,5.19-0.08,7.78c-0.12,1.7-0.47,3.44-1.04,5.05
			c-0.99,2.82-3.08,4.39-6.13,4.57c-2.23,0.13-4.43,0.04-6.62-0.53c-1.79-0.46-3.6-0.89-5.43-1.16c-1.91-0.28-3.07,0.59-3.57,2.41
			c-0.72,2.65,0.27,5,2.87,6.09c1.57,0.65,3.31,0.95,4.99,1.26C318.42,354.58,319.79,354.61,321.41,354.85z"/>
		<path class="st5" d="M869.98,140.57c-2.59,0.28-5.18,0.24-7.77,0.32c-1.46,0.05-2.91,0.34-4.37,0.48
			c-1.22,0.11-2.45,0.19-3.67,0.23c-2.45,0.09-4.93-0.26-7.31,0.65c-0.33,0.13-0.73,0.08-1.1,0.09c-6.02,0.21-11.89,1.5-17.78,2.56
			c-2.04,0.37-4.09,0.75-6.43,1.13c0.03-5.28,0.31-10.57,0.69-15.85c0.35-4.92,0.72-9.84,1.23-14.74c0.32-3.06,0.82-6.11,1.43-9.12
			c0.31-1.55,0.91-3.08,1.61-4.5c1.13-2.3,3.06-3.53,5.67-3.37c1.34,0.08,2.7,0.27,4,0.62c8.51,2.29,15.46,6.84,20.67,14.05
			c4.67,6.45,8.17,13.48,10.97,20.88C868.61,136.07,869.27,138.19,869.98,140.57z"/>
		<path class="st1" d="M362.24,359.52c0.53,2.62,1.06,5.97,1.67,8.58c0.38,1.65,0.91,3.27,1.44,4.88c0.09,0.28,0.54,0.64,0.79,0.61
			c0.42-0.05,0.98-0.27,1.18-0.6c0.43-0.72,0.75-1.53,0.97-2.34c0.34-1.29,1-3.35,1.4-4.85c1.39,0.61,2.19,2.13,3.22,2.99
			c2.73,2.27,5.54,4.44,8.15,6.84c2.01,1.85,4.46,2.8,6.92,3.97c-0.49,1.51-1.22,3.74-1.81,5.21c-2.3,5.74-5.09,11.22-8.96,16.09
			c-1.62,2.04-3.42,3.88-5.58,5.35c-3.36,2.28-6.9,2.6-10.48,0.7c-1.72-0.91-3.33-2.11-4.79-3.41c-2.78-2.49-4.84-5.57-6.7-8.79
			c-4.35-7.53-7.28-15.63-9.42-24.01c-1.34-5.24-2.35-11.5-3.12-17.08c4.57-0.53,8.75,0.95,12.75,2.19
			c3.04,0.94,5.98,2.19,8.94,3.37C359.95,359.67,360.93,359.69,362.24,359.52z"/>
		<path class="st9" d="M242.9,245.86c4.67,1.8,9.38,3.8,14.34,4.52c2.76,0.4,5.66,0.37,8.44,0.05c6.01-0.69,11.62-2.78,16.96-5.6
			c1.94-1.02,3.92-2.52,6.12-3.58c0.42,1.56,0.62,3.58,0.68,5.17c0.4,10.24,0.77,20.48,1.13,30.73c0.06,1.73,0.09,3.47-0.05,5.18
			c-0.11,1.34-0.39,2.69-0.83,3.96c-0.71,2.05-2.31,3.2-4.42,3.48c-2.73,0.36-5.43,0.08-7.99-1c-2.7-1.14-4.37-3.25-5.05-6.02
			c-0.5-2.03-0.78-4.12-0.94-6.21c-0.34-4.56-0.46-9.13-0.8-13.68c-0.16-2.08-0.52-4.17-0.98-6.21c-0.29-1.31-0.87-2.57-2.19-3.29
			c-1.51-0.82-3.05-0.38-3.61,1.24c-0.4,1.15-0.7,2.39-0.72,3.6c-0.1,5.18-0.04,10.37-0.12,15.55c-0.04,2.34-0.04,4.71-0.43,7
			c-0.68,3.93-2.88,5.52-6.81,5.04c-1.82-0.22-3.65-0.67-5.4-1.24c-3.31-1.07-5.37-3.46-6.22-6.79c-0.43-1.67-0.75-3.4-0.8-5.11
			C242.97,264.01,242.95,254.83,242.9,245.86z"/>
		<path class="st8" d="M803.6,294.69c-2.13-0.71-3.58-2.45-4.91-4.17c-3.53-4.56-6.54-9.48-9.57-14.39
			c-2.45-3.96-5.12-7.78-7.8-11.59c-0.6-0.86-1.66-1.4-2.76-2.11c-0.44-0.99-0.72-1.95-0.81-2.92c-0.71-7.99-1.31-15.98-1.1-24.01
			c0.08-2.98,0.45-5.9,1.26-8.76c0.33-1.18,0.76-2.35,1.29-3.46c2-4.21,5.29-6.46,10.03-6.09c2.07,0.16,4.16,0.53,6.16,1.1
			c3.58,1.03,5.9,3.52,6.99,7.04c0.51,1.64,0.86,3.36,1,5.06c0.22,2.7,0.38,5.43,0.24,8.13c-0.91,18.13-0.35,36.25,0.06,54.38
			C803.69,293.4,803.68,293.89,803.6,294.69z"/>
		<path class="st4" d="M557.77,170.09c0.36,3.05,0.65,6.12,1.11,9.16c0.31,2.06,0.69,4.15,1.37,6.11c0.97,2.81,2.45,3.71,5.39,3.35
			c1.82-0.22,3.59-0.83,5.37-1.32c1.07-0.3,2.09-0.76,3.16-1.04c2.26-0.59,3.82-0.01,5.09,1.94c0.53,0.82,0.96,1.73,1.25,2.66
			c0.45,1.41,0.79,2.85,1.08,4.3c1.43,7.06-0.84,12.88-6.07,17.64c-2.2,2.01-4.71,3.6-7.46,4.74c-4.34,1.79-8.81,3.19-13.44,4.02
			c-0.96,0.17-1.96,0.24-2.94,0.23c-3.39-0.02-6.03-1.49-7.45-4.56c-1.03-2.22-1.92-4.59-2.32-6.98c-0.9-5.34-1.58-10.73-2.12-16.12
			c-0.54-5.4-0.8-10.82-0.81-16.49c1-0.6,1.64-0.95,2.26-1.31c1.8-1.04,3.52-2.24,5.4-3.08
			C550.18,171.75,553.73,170.05,557.77,170.09z"/>
		<path class="st1" d="M576.3,268.65c2.51-0.3,4.13,1.81,4.79,3.94c0.39,1.27,0.75,2.6,0.76,3.93c0.07,14.42,0.08,28.84,0.09,43.26
			c0,1.85-0.03,3.7-0.2,5.54c-0.53,5.68-3.33,9.68-8.81,11.64c-3.15,1.12-6.36,1.97-9.72,2.02c-5.04,0.08-7.38-1.99-7.47-6.99
			c-0.06-3.32,0.19-6.65,0.44-9.96c0.61-7.86,1.32-15.71,1.95-23.57c0.45-5.65,1-11.59,1.79-17.55c1.72-0.66,2.63-1.08,3.61-2.05
			c0.6-0.6,1.28-1.12,1.98-1.61c3.19-2.23,6.41-4.42,9.58-6.68C575.74,270.09,575.74,269.26,576.3,268.65z"/>
		<path class="st4" d="M401.23,378.17c2.5-1.18,4.03-2.32,5.42-4.29c2.91-4.11,5.54-8.41,8.02-12.81c4.1-7.29,8.58-14.34,13.6-21.04
			c0.86-1.15,1.82-1.76,1.73-3.78c1.94-0.68,4.17-1.96,6.2-1.97c1.55-0.01,2.74,0.74,3.1,2.16c1.38,5.4,1.38,10.77-1.23,15.86
			c-0.99,1.94-2.78,3.14-4.75,3.96c-1.93,0.81-3.92,1.48-5.89,2.2c-0.81,0.3-1.63,0.59-2.46,0.82c-1.49,0.41-2.75,1.07-3.29,2.67
			c-0.65,1.91-1.09,3.81-0.23,5.77c0.72,1.64,1.9,2.19,3.6,1.42c1.79-0.81,3.48-1.87,5.22-2.78c2.07-1.09,4.1-2.32,6.27-3.17
			c5.26-2.06,8.3-0.39,9.44,5.17c0.44,2.17,0.59,4.4,0.79,6.61c0.27,3.04-0.85,5.61-3.02,7.65c-1.43,1.35-2.99,2.6-4.66,3.63
			c-7.07,4.38-14.71,7.52-22.61,10.06c-1.17,0.38-2.4,0.61-3.62,0.78c-3.96,0.54-6.68-0.9-8.48-4.48c-1.46-2.9-2.02-6.07-2.6-9.23
			C401.53,382.03,401.38,379.81,401.23,378.17z"/>
		<path class="st5" d="M643.76,267.33c-2.6,0.35-4.74-1.02-6.98-1.94c-4-1.63-8.19-2.52-12.33-3.61c-0.49-0.13-1.13,0.28-2.1,0.57
			c-2.16-1.39-4.27-1.39-6.42-1.22c-0.41-0.75-1.1-0.95-1.87-0.92c-3.67,0.16-7.25-0.03-10.99,0.62c-5.01,0.87-9.85,1.79-14.98,3.04
			c1.64-9.34,5.36-17.85,11.62-25.13c4.54-5.29,10.17-8.95,16.98-10.67c7.87-1.99,14.08,0.35,18.72,7.01
			c1.85,2.66,3.16,5.58,4.22,8.62c1.96,5.63,3.02,11.45,3.67,17.35C643.51,263.04,643.64,265.01,643.76,267.33z"/>
		<path class="st1" d="M671.26,282.1c0.79-0.27,1.73-0.5,2.48-0.22c1.79,0.66,3.62,0.47,5.44,0.57c3.75,0.21,7.25-0.79,10.67-2.17
			c5.34-2.15,10.21-6.14,15.34-9.18c0.39,3.54,0.51,8.07,0.67,11.64c0.4,9.37,0.83,18.73,1.21,28.1c0.08,2.09,0.17,4.21-0.05,6.28
			c-0.21,1.94-0.63,3.9-1.28,5.74c-1.65,4.67-5.17,7.06-9.99,7.62c-0.97,0.11-1.97,0.07-2.96,0.05c-3.49-0.05-6.25-1.53-8-4.51
			c-1.36-2.33-2.67-4.76-3.52-7.3c-1.48-4.44-2.64-8.98-3.82-13.52c-1.06-4.06-1.87-8.17-2.95-12.22
			C673.56,289.42,672.4,285.91,671.26,282.1z"/>
		<path class="st4" d="M818.17,145.81c-0.31,4.91-0.6,10.8-1.06,15.7c-0.77,8.1-1.64,16.18-2.63,24.25
			c-0.54,4.4-1.27,8.78-2.18,13.11c-0.42,2.02-1.25,4.01-2.23,5.84c-2.15,3.99-5.47,5.47-9.89,4.71
			c-6.03-1.03-9.63-4.54-10.79-10.61c-0.58-3.04-0.84-6.12-0.39-9.2c0.84-5.73,1.7-11.45,2.68-17.16c1.4-8.13,3.11-17.02,4.99-25.42
			c2.14,0.39,3.74,1.31,5.58,1.26c2.06-0.05,4.13,0,6.2-0.02c0.85-0.01,1.7-0.04,2.53-0.18
			C813.34,147.69,815.8,146.25,818.17,145.81z"/>
		<path class="st2" d="M387.81,380.08c-2.64-0.98-4.75-2.61-6.76-4.45c-2.61-2.4-5.42-4.57-8.15-6.84
			c-1.03-0.86-2.07-1.71-3.35-2.59c0.34-6.67,0.92-13.3,1.5-19.94c0.5-5.79,1.27-11.53,2.52-17.21c0.82-3.74,1.89-7.41,3.56-10.88
			c1.08-2.24,2.37-4.33,4.16-6.08c1.63-1.59,3.51-2.7,5.73-3.23c4.82-1.14,8.43,1.42,8.67,6.34c0.42,8.39,0.48,16.79-0.09,25.18
			c-0.71,10.49-2.22,20.86-5.01,31.02C389.81,374.25,388.86,377.06,387.81,380.08z"/>
		<path class="st8" d="M525.62,308.06c0.65-3.51,1.74-8.96,2.45-12.45c0.66-3.26,1.44-6.5,2.15-9.75c0.12-0.57,0.16-1.16,0.28-2.05
			c-1.2,0.09-2.14,0.13-3.07,0.24c-5.97,0.66-8.82-1.76-9.05-7.79c-0.06-1.6,0.1-3.2,0.21-4.8c0.34-4.94,2.81-8.57,6.91-11.2
			c3.66-2.35,7.64-4.03,11.7-5.48c3.25-1.16,6.55-2.2,9.88-3.06c1.64-0.42,3.42-0.45,5.13-0.41c2.05,0.04,3.42,1.24,4.22,3.09
			c0.1,0.23,0.18,0.46,0.23,0.7c2.14,8.97,0.23,16.57-8.01,21.42c-0.95,0.56-1.95,1.05-3.15,1.7c0.08,0.91,0.07,1.88,0.27,2.81
			c0.77,3.49,1.85,8.66,2.4,12.46c-2.7,2.13-5.42,2.19-7.79,4.08c-3.34,2.66-6.89,5-10.58,7.11
			C528.67,305.32,526.86,307.58,525.62,308.06z"/>
		<path class="st8" d="M775.33,131.68c-1.5,0.15-2.57-0.63-3.68-1.44c-3.56-2.6-7.18-5.13-10.8-7.65c-0.6-0.41-1.32-0.64-2.24-0.98
			c-0.29-0.4-0.38-0.77-0.36-1.13c0.5-8.74,0.93-17.48,1.57-26.21c0.19-2.56,0.77-5.13,1.49-7.6c1.22-4.22,4.09-6.7,8.58-6.89
			c5.85-0.25,11.6,0.4,16.93,2.98c1.85,0.9,3.59,2.18,5.12,3.57c2.65,2.41,4.09,5.51,4.29,9.14c0.14,2.48,0.02,4.94-0.81,7.3
			c-0.33,0.92-0.72,1.85-1.29,2.64c-1.09,1.52-2.61,2.23-4.51,1.81c-1.44-0.32-2.86-0.76-4.31-1.03c-4.87-0.91-6.96,0.42-7.76,5.36
			c-0.7,4.37-1.03,8.81-1.49,13.22C775.8,126.97,775.62,129.18,775.33,131.68z"/>
		<path class="st7" d="M525.94,306.35c1.41-0.7,2.73-1.03,3.87-1.68c3.69-2.12,7.25-4.45,10.58-7.11c2.37-1.89,4.86-3.64,7.53-5.48
			c1.63,3.96,2.02,8.15,2.59,12.3c1,7.36,1.16,14.76,0.17,22.15c-0.44,3.32-1.13,6.56-2.29,9.7c-2.55,6.89-7.71,10.69-14.71,12.14
			c-5.13,1.06-8.06-0.75-9.45-5.8c-0.58-2.12-0.89-4.36-1.03-6.56c-0.54-8.55,0.3-17.01,1.8-25.42
			C525.25,309.24,525.51,307.91,525.94,306.35z"/>
		<path class="st4" d="M313.35,234.49c0.71,4.13,1.55,8.73,2.1,12.88c1.05,7.96,1.87,15.96,1.54,24c-0.15,3.68-0.76,7.35-1.24,11.01
			c-0.13,0.96-0.52,1.9-0.87,2.82c-3.1,8.17-13.39,7-16.63,2.2c-1.09-1.62-1.96-3.43-2.64-5.26c-1.29-3.49-1.73-7.18-2.13-10.87
			c-1.2-11-0.15-22.43,1.63-33.61c2.79-0.96,4.87-1.32,7.26-1.87C305.97,234.97,309.66,234.39,313.35,234.49z"/>
		<path class="st10" d="M313.38,234.67c-3.72,0.2-7.41,0.3-11.02,1.12c-2.39,0.54-4.71,1.39-7.35,2.1c0.42-5,1.13-10,1.86-15
			c0.34-2.3,0.72-4.59,1.1-7c-0.76-0.33-1.28-0.63-1.84-0.79c-4.24-1.19-6.64-4.18-7.66-8.26c-1.16-4.63-0.85-9.31,0.28-13.93
			c0.75-3.04,2.72-4.89,5.78-5.59c0.36-0.08,0.71-0.22,1.08-0.26c6.18-0.59,12.33-0.47,18.36,1.2c3.4,0.95,5.47,3.27,6.15,6.72
			c0.77,3.9,0.98,7.83,0.22,11.77c-0.96,4.96-3.6,8.3-8.83,9.15c-0.22,0.04-0.42,0.22-0.77,0.4c-0.58,1.1-0.16,2.31,0.05,3.49
			C311.64,224.67,312.53,229.52,313.38,234.67z"/>
		<path class="st2" d="M752.4,251.8c-3.3,1.19-6.61,0.88-9.83,1.52c-3.35,0.66-6.58,1.62-9.82,2.59c-0.69,0.21-1.4,0.37-2.38,0.56
			c-0.21-6.15-0.18-12.31-0.04-18.47c0.1-4.68,0.21-9.37,0.55-14.04c0.28-3.92,0.78-7.84,1.41-11.73c0.27-1.67,0.94-3.33,1.71-4.85
			c1.62-3.21,4.35-4.55,7.92-4.22c2.42,0.22,4.51,1.17,6.29,2.81c1.75,1.61,3.04,3.54,4.05,5.68c1.54,3.26,2.39,6.73,2.91,10.28
			c0.85,5.9,0.69,11.82-0.18,17.69C754.38,243.64,753.37,247.59,752.4,251.8z"/>
		<path class="st1" d="M620.27,194.11c-0.15-1.07,0.61-1.31,1.34-1.61c2.32-0.95,4.1-2.6,5.92-4.28c2.42-2.24,5.08-4.22,7.63-6.31
			c2.22-1.82,3.74-4.2,5.33-6.52c2.85-4.14,5.59-8.37,8.46-12.49c5.6-8.04,11.24-16.05,16.93-24.03c0.68-0.96,1.79-1.96,2.95-2.78
			c0.55,1.15,1,2.66,1.12,3.86c1,10.56-0.04,20.9-3.59,30.92c-0.9,2.54-2.04,5.02-3.34,7.39c-3.87,7.05-9.56,12.13-17,15.2
			c-3.88,1.6-7.89,2.73-12.08,3.25C629.3,197.29,624.63,196.43,620.27,194.11z"/>
		<path class="st11" d="M646.83,269.62c5.23,2.2,10.24,5.29,15.38,7.8c1.07,0.52,2.24,0.87,3.62,1.3
			c-0.54,3.54-0.41,7.13-0.03,10.67c0.69,6.37,1.56,12.72,2.39,19.07c0.43,3.3,0.95,6.59,1.36,9.89c0.59,4.79-1.33,7.56-5.99,8.61
			c-3.77,0.85-7.57,0.83-11.38,0.13c-3.59-0.66-5.65-2.8-6.28-6.36c-0.17-0.97-0.24-1.96-0.27-2.94c-0.03-1.23-0.03-2.47,0.05-3.7
			c0.84-14.03,0.82-28.09,0.88-42.14C646.56,271.47,646.69,270.45,646.83,269.62z"/>
		<path class="st1" d="M346.19,252c2.79,0.27,4.77,2.52,7.07,3.89c4.77,2.85,9.57,5.43,15.07,6.76c3.27,0.79,6.06,0.07,8.93-1.01
			c2.8-1.05,5.19-2.87,7.35-4.85c3.27-3,6.49-6.09,9.38-9.44c1.93-2.24,3.86-4.46,5.96-6.54c0.52-0.51,1.25-1.24,2.07-1.71
			c0.45,3.69-0.46,7.65-1.2,11.25c-1.44,7.06-3.88,13.74-8.21,19.6c-4.79,6.48-11.03,10.81-18.9,12.7c-7.12,1.71-13.13-0.1-18-5.61
			c-2.39-2.71-4.15-5.8-5.53-9.12C348.15,263.01,346.79,257.59,346.19,252z"/>
		<path class="st4" d="M343.04,247.69c0.15,1.71,0.29,4.05,0.39,5.77c0.43,7.63,0.9,15.26,1.2,22.89c0.08,2.06-0.18,4.19-0.6,6.22
			c-0.68,3.3-2.86,5.37-6.02,6.42c-2.62,0.87-5.32,1.09-8.04,0.76c-3.64-0.44-6.13-2.45-7.35-5.91c-0.74-2.1-1.04-4.3-1.03-6.54
			c0.01-6.53-0.07-13.07,0-19.6c0.06-6.41,0.41-13.25,0.95-19.9c1.2,0.09,1.85,0.84,2.63,1.19c5.38,2.44,10.44,5.45,15.39,8.67
			C341.35,248.16,342.16,247.72,343.04,247.69z"/>
		<path class="st10" d="M557.75,170.14c-4.11,0.29-7.66,2-11.21,3.58c-1.88,0.84-3.6,2.05-5.4,3.08c-0.63,0.36-1.26,0.71-2.16,1.07
			c-0.39-0.71-0.6-1.44-0.62-2.17c-0.3-7.89-0.73-15.78-0.79-23.67c-0.03-3.42,0.56-6.88,1.15-10.27c0.79-4.58,3.49-7.84,7.72-9.73
			c2.13-0.95,4.3-1.89,6.54-2.52c3.96-1.1,6.14,0.22,7.05,4.26c0.65,2.89,1.02,5.84,0.57,8.82c-0.63,4.15-1.23,8.29-1.93,12.43
			C557.84,159.94,557.77,164.87,557.75,170.14z"/>
		<path class="st8" d="M362.32,359.94c-1.34,0.47-2.37-0.27-3.51-0.72c-2.96-1.17-5.9-2.43-8.94-3.37c-4-1.24-8.13-1.8-12.65-1.56
			c-0.85-3.4-1.52-6.78-1.89-10.2c-0.6-5.51-1.29-11.04-0.97-16.59c0.15-2.69,0.45-5.42,1.14-8.02c1.31-4.96,4.25-6.21,8.96-4.12
			c1.83,0.82,3.34,2.07,4.66,3.57c2.14,2.44,3.68,5.24,4.97,8.18c2.43,5.55,4.07,11.36,5.33,17.27
			C360.48,349.46,361.37,354.55,362.32,359.94z"/>
		<path class="st2" d="M696.48,110.85c-4.11,1.57-7.48,3.92-10.79,6.46c-2.44,1.87-4.66,3.95-6.78,6.15
			c-1.18,1.23-2.23,2.58-3.32,3.89c-0.72,0.87-1.39,1.7-2.92,1.62c-0.95-10.6-1.19-21.22-1.31-31.84c-0.05-4.92,2.17-8.21,6.73-9.99
			c3.36-1.32,6.86-2.04,10.43-2.39c0.85-0.08,1.73,0.01,2.58,0.14c2.63,0.38,4.2,1.96,4.74,4.52c0.2,0.96,0.29,1.96,0.32,2.94
			C696.3,98.41,696.42,104.46,696.48,110.85z"/>
		<path class="st2" d="M923.78,159.2c-0.91-0.11-1.79-0.32-2.39-0.86c-4.07-3.59-8.57-6.56-13.44-8.88
			c-6.19-2.94-12.65-5.16-19.42-6.48c-2.44-0.48-4.84-0.61-7.62-0.65c-0.38-4.23,0.65-8.27,1.98-12.24c0.19-0.58,0.5-1.12,0.8-1.66
			c1.39-2.53,3.52-3.74,6.4-3.35c1.33,0.18,2.67,0.46,3.94,0.9c8.57,2.98,16.33,7.41,23.17,13.38c1.93,1.68,3.62,3.68,5.18,5.72
			c1.77,2.32,2.5,5.03,2.15,7.99C924.28,155.03,924.12,156.99,923.78,159.2z"/>
		<path class="st8" d="M818.15,146.46c-2.45,0.75-4.82,1.22-7.19,1.63c-0.83,0.14-1.69,0.17-2.53,0.18
			c-2.07,0.02-4.13-0.03-6.2,0.02c-1.84,0.04-3.63-0.1-5.65-0.77c0.42-5.39,1.18-10.76,1.83-16.15c0.46-3.8,0.76-7.61,1.21-11.41
			c0.17-1.46,0.4-2.95,0.89-4.33c0.96-2.68,2.98-3.79,5.82-3.47c6.9,0.78,12.01,5.95,12.69,12.92c0.14,1.47,0.15,2.96,0.09,4.44
			C818.85,135.06,818.53,140.61,818.15,146.46z"/>
		<path class="st3" d="M729.93,108.63c-2.48,0.06-4.94,0-7.27-0.58c-1.94-0.48-3.84-0.53-5.79-0.54c-3.05-0.02-6.1,0-9.49,0
			c-0.41-6.14-0.53-12.28-0.53-18.42c0-4.21,2.21-6.92,6.15-8.2c3.29-1.07,6.69-1.65,10.16-1.45c4.17,0.24,6.22,2.2,6.76,6.37
			c0.1,0.73,0.14,1.47,0.14,2.21C730.06,94.77,730.03,101.53,729.93,108.63z"/>
		<path class="st2" d="M343.04,247.99c-0.69,0.47-1.69,0.18-2.47-0.33c-4.94-3.21-10.01-6.23-15.39-8.67
			c-0.78-0.35-1.58-0.67-2.65-1.03c-0.23-4.45-0.25-8.87-0.11-13.28c0.04-1.2,0.45-2.41,0.83-3.57c2.12-6.56,13.63-7.07,16.78-2.45
			c0.92,1.34,1.59,2.77,1.87,4.36c0.19,1.09,0.38,2.18,0.43,3.28C342.6,233.42,342.83,240.54,343.04,247.99z"/>
		<path class="st10" d="M567.93,244.04c2.01-0.66,3.73-1.44,5.53-1.73c4.4-0.71,7.45,1.49,8.39,5.8c1.25,5.71-1.2,11.97-6.02,15.26
			c-3.02,2.05-6.44,3.1-10.03,3.44c-3.67,0.35-5.58-1.18-6.2-4.78c-0.5-2.94-0.46-5.9,0.12-8.82c0.6-3.02,2.17-5.48,4.76-7.21
			C565.5,245.32,566.6,244.77,567.93,244.04z"/>
		<path class="st12" d="M324.44,209.15c-0.66-1.34-1.34-2.42-1.59-3.6c-0.83-4.02-0.81-8.07,0.22-12.07
			c0.78-3.03,2.72-4.88,5.8-5.52c0.6-0.12,1.21-0.25,1.82-0.32c6.35-0.68,10.47,2.36,11.56,8.65c0.53,3.08,0.32,6.15-0.78,9.1
			c-1.49,3.98-4.38,6.19-8.62,6.41C329.86,211.96,326.91,211.72,324.44,209.15z"/>
		<path class="st12" d="M744.12,77.72c1.44,0.06,2.58-0.02,3.65,0.2c8.17,1.67,9.66,10.67,5.92,15.64
			c-1.07,1.42-2.52,2.36-4.22,2.84c-3.65,1.03-7.32,0.94-10.95-0.09c-2.15-0.61-3.62-2.03-4.28-4.22c-0.88-2.9-0.89-5.85-0.24-8.77
			c0.52-2.33,2.07-3.97,4.35-4.63C740.11,78.18,741.97,78.03,744.12,77.72z"/>
		<path class="st12" d="M805.34,107.11c-3.51-2.48-4.87-5.79-4.97-9.68c-0.04-1.84-0.07-3.71,0.19-5.52
			c0.49-3.3,2.38-4.76,5.68-4.31c7.45,1.02,12.55,4.91,13.88,13.06c0.3,1.86,0.1,3.69-0.43,5.48c-1.04,3.48-3.48,5-7.06,4.19
			c-1.66-0.37-3.24-1.14-4.82-1.81C807.02,108.19,806.3,107.7,805.34,107.11z"/>
		<path class="st10" d="M755.14,118.27c-1,0.1-2.02,0.03-2.85-0.41c-5.73-3.04-11.75-5.37-18.2-7.36c-0.07-5.89,2.45-8.84,8.11-9.88
			c1.95-0.36,3.89-0.48,5.85-0.06c4.05,0.87,6.47,3.33,7.12,7.43c0.19,1.21,0.2,2.45,0.2,3.67
			C755.36,113.75,755.27,115.84,755.14,118.27z"/>
		<path class="st12" d="M576.52,268.63c-0.3,0.73-0.78,1.46-1.44,1.94c-3.17,2.26-6.39,4.45-9.58,6.68
			c-0.69,0.49-1.38,1.01-1.98,1.61c-0.98,0.97-2.08,1.68-3.67,2.06c-0.14-3.27,1.47-5.85,3.93-7.82
			C567.39,270.2,571.52,268.45,576.52,268.63z"/>
	</g>
	<g>
		<path class="st13" d="M167.15,145.79c0.54,0.72,1.13,1.36,1.75,1.95c0.55,0.52,1.13,1,1.73,1.43c0.58,0.42,1.17,0.81,1.78,1.17
			c0.55,0.33,1.12,0.62,1.68,0.92c0.44,0.23,0.88,0.44,1.32,0.64c0.31,0.14,0.63,0.26,0.95,0.38c0.37,0.14,0.74,0.27,1.11,0.4
			c0.09,0.03,0.18,0.06,0.27,0.08c0.37,0.1,0.74,0.19,1.12,0.29c0.06,0.02,0.13,0.04,0.19,0.08c0.09,0.07,0.1,0.18,0.02,0.27
			c-0.04,0.05-0.1,0.09-0.16,0.1c-0.12,0.03-0.25,0.03-0.37,0.06c-0.49,0.12-0.99,0.24-1.48,0.38c-0.6,0.17-1.19,0.4-1.77,0.65
			c-0.46,0.2-0.92,0.41-1.37,0.64c-0.51,0.26-1.03,0.53-1.53,0.82c-0.76,0.43-1.5,0.91-2.22,1.44c-0.76,0.57-1.49,1.21-2.17,1.93
			c-0.61,0.64-1.16,1.34-1.68,2.11c-0.5,0.75-0.94,1.56-1.32,2.41c-0.18,0.4-0.34,0.82-0.5,1.24c-0.18,0.47-0.35,0.95-0.5,1.43
			c-0.11,0.33-0.2,0.67-0.29,1.01c-0.11,0.42-0.21,0.83-0.32,1.25c0,0.02-0.01,0.04-0.02,0.06c-0.09,0.48-0.19,0.97-0.28,1.45
			c-0.1,0.54-0.18,1.08-0.26,1.62c-0.09,0.62-0.15,1.24-0.21,1.87c-0.04,0.45-0.1,0.9-0.14,1.35c-0.03,0.36-0.05,0.72-0.08,1.08
			c-0.01,0.12-0.03,0.23-0.05,0.35c-0.02,0.09-0.06,0.17-0.1,0.24c-0.1,0.15-0.23,0.12-0.29-0.06c-0.03-0.1-0.05-0.21-0.06-0.32
			c-0.05-0.51-0.1-1.03-0.15-1.54c-0.02-0.16-0.02-0.33-0.04-0.49c-0.06-0.51-0.11-1.03-0.19-1.54c-0.1-0.66-0.2-1.33-0.31-1.99
			c-0.08-0.47-0.17-0.95-0.26-1.42c-0.08-0.39-0.16-0.79-0.25-1.18c-0.17-0.72-0.35-1.44-0.54-2.15c-0.29-1.05-0.64-2.06-1.06-3.03
			c-0.63-1.46-1.47-2.72-2.44-3.82c-0.81-0.92-1.69-1.73-2.61-2.46c-0.92-0.72-1.88-1.34-2.87-1.88c-0.87-0.48-1.76-0.89-2.68-1.22
			c-0.81-0.29-1.64-0.54-2.48-0.67c-0.28-0.04-0.57-0.12-0.85-0.18c-0.09-0.02-0.17-0.01-0.26-0.03c-0.06-0.02-0.13-0.04-0.18-0.09
			c-0.08-0.08-0.07-0.19,0.02-0.26c0.03-0.02,0.07-0.04,0.1-0.04c0.07-0.01,0.14-0.02,0.21-0.03c0.57-0.03,1.13-0.09,1.7-0.22
			c0.47-0.11,0.94-0.23,1.4-0.36c0.35-0.1,0.69-0.23,1.04-0.36c0.28-0.1,0.56-0.21,0.84-0.34c0.49-0.22,0.98-0.44,1.46-0.68
			c0.4-0.2,0.79-0.4,1.18-0.63c0.43-0.25,0.86-0.51,1.27-0.8c0.53-0.38,1.06-0.78,1.57-1.2c0.84-0.69,1.63-1.49,2.32-2.41
			c0.62-0.82,1.14-1.72,1.58-2.71c0.38-0.88,0.71-1.79,0.99-2.73c0.23-0.76,0.43-1.53,0.61-2.31c0.18-0.79,0.36-1.59,0.53-2.39
			c0.11-0.55,0.19-1.11,0.28-1.67c0.07-0.41,0.13-0.82,0.19-1.24c0.07-0.53,0.13-1.06,0.18-1.6c0.03-0.33,0.05-0.67,0.08-1
			c0.01-0.08,0.02-0.17,0.04-0.25c0.02-0.08,0.06-0.15,0.11-0.21c0.1-0.11,0.22-0.08,0.29,0.07c0.03,0.07,0.05,0.16,0.06,0.24
			c0.03,0.42,0.06,0.84,0.09,1.25c0.05,0.67,0.1,1.33,0.15,2c0.03,0.38,0.1,0.76,0.14,1.15c0.03,0.36,0.07,0.72,0.15,1.06
			c0.02,0.09,0.03,0.18,0.04,0.27c0.03,0.32,0.07,0.64,0.16,0.94c0.02,0.09,0.03,0.18,0.05,0.27c0.04,0.22,0.09,0.43,0.13,0.65
			c0.01,0.03,0.02,0.06,0.02,0.09c0.09,0.4,0.17,0.81,0.27,1.21c0.09,0.35,0.19,0.69,0.29,1.04c0.07,0.25,0.16,0.5,0.24,0.75
			c0.17,0.54,0.35,1.08,0.58,1.59c0.21,0.48,0.42,0.96,0.64,1.43c0.27,0.55,0.57,1.07,0.91,1.56
			C166.75,145.24,166.95,145.51,167.15,145.79z"/>
	</g>
	<g>
		<path class="st13" d="M162.92,187.38c0.4,0.45,0.84,0.84,1.3,1.2c0.41,0.32,0.84,0.61,1.29,0.88c0.43,0.26,0.87,0.5,1.32,0.72
			c0.41,0.2,0.83,0.38,1.25,0.56c0.33,0.14,0.65,0.27,0.98,0.39c0.23,0.09,0.47,0.16,0.71,0.23c0.27,0.08,0.55,0.16,0.83,0.24
			c0.07,0.02,0.13,0.04,0.2,0.05c0.28,0.06,0.55,0.12,0.83,0.18c0.05,0.01,0.1,0.03,0.14,0.05c0.07,0.04,0.08,0.11,0.02,0.17
			c-0.03,0.03-0.08,0.05-0.12,0.06c-0.09,0.02-0.18,0.02-0.27,0.04c-0.37,0.08-0.73,0.15-1.1,0.23c-0.45,0.1-0.89,0.25-1.32,0.4
			c-0.34,0.12-0.69,0.25-1.02,0.39c-0.38,0.16-0.76,0.33-1.14,0.5c-0.57,0.26-1.12,0.56-1.65,0.89c-0.57,0.35-1.11,0.74-1.62,1.19
			c-0.45,0.39-0.87,0.83-1.25,1.3c-0.37,0.46-0.7,0.96-0.99,1.49c-0.13,0.25-0.26,0.51-0.37,0.76c-0.13,0.29-0.26,0.59-0.38,0.88
			c-0.08,0.2-0.15,0.41-0.22,0.62c-0.08,0.26-0.16,0.51-0.24,0.77c0,0.01-0.01,0.02-0.01,0.03c-0.07,0.3-0.14,0.59-0.21,0.89
			c-0.07,0.33-0.13,0.66-0.19,1c-0.07,0.38-0.11,0.77-0.16,1.15c-0.03,0.28-0.08,0.55-0.11,0.83c-0.02,0.22-0.04,0.44-0.06,0.66
			c-0.01,0.07-0.02,0.14-0.04,0.21c-0.02,0.05-0.04,0.11-0.08,0.15c-0.07,0.09-0.17,0.08-0.22-0.04c-0.02-0.06-0.03-0.13-0.04-0.2
			c-0.04-0.32-0.08-0.63-0.11-0.95c-0.01-0.1-0.01-0.2-0.03-0.3c-0.04-0.32-0.08-0.63-0.14-0.95c-0.07-0.41-0.15-0.82-0.23-1.22
			c-0.06-0.29-0.13-0.58-0.2-0.87c-0.06-0.24-0.12-0.49-0.19-0.72c-0.13-0.44-0.26-0.89-0.4-1.33c-0.21-0.64-0.48-1.27-0.79-1.87
			c-0.47-0.9-1.09-1.67-1.82-2.35c-0.6-0.57-1.26-1.07-1.95-1.51c-0.69-0.44-1.4-0.82-2.14-1.16c-0.65-0.3-1.31-0.55-1.99-0.75
			c-0.61-0.18-1.22-0.34-1.85-0.42c-0.21-0.03-0.42-0.07-0.63-0.11c-0.06-0.01-0.13-0.01-0.19-0.02c-0.05-0.01-0.1-0.03-0.13-0.06
			c-0.06-0.05-0.05-0.12,0.01-0.16c0.02-0.01,0.05-0.02,0.07-0.03c0.05-0.01,0.11-0.02,0.16-0.02c0.42-0.02,0.84-0.06,1.26-0.14
			c0.35-0.07,0.7-0.14,1.04-0.22c0.26-0.06,0.52-0.14,0.77-0.22c0.21-0.06,0.42-0.13,0.62-0.21c0.36-0.13,0.73-0.27,1.09-0.42
			c0.3-0.12,0.59-0.25,0.88-0.39c0.32-0.16,0.64-0.31,0.94-0.5c0.4-0.23,0.79-0.48,1.17-0.74c0.63-0.43,1.21-0.92,1.73-1.49
			c0.46-0.5,0.85-1.06,1.18-1.67c0.29-0.54,0.53-1.1,0.74-1.68c0.17-0.47,0.32-0.94,0.45-1.42c0.13-0.49,0.27-0.98,0.39-1.47
			c0.08-0.34,0.14-0.69,0.21-1.03c0.05-0.25,0.1-0.51,0.14-0.76c0.05-0.33,0.1-0.65,0.14-0.98c0.03-0.2,0.04-0.41,0.06-0.61
			c0.01-0.05,0.01-0.11,0.03-0.15c0.02-0.05,0.05-0.09,0.08-0.13c0.07-0.07,0.17-0.05,0.21,0.04c0.02,0.04,0.04,0.1,0.04,0.15
			c0.02,0.26,0.04,0.51,0.07,0.77c0.04,0.41,0.07,0.82,0.11,1.23c0.03,0.24,0.08,0.47,0.1,0.71c0.02,0.22,0.05,0.44,0.11,0.66
			c0.01,0.05,0.02,0.11,0.03,0.17c0.02,0.2,0.06,0.39,0.12,0.58c0.02,0.05,0.02,0.11,0.03,0.17c0.03,0.13,0.06,0.27,0.1,0.4
			c0,0.02,0.01,0.04,0.02,0.06c0.07,0.25,0.13,0.5,0.2,0.75c0.06,0.22,0.14,0.43,0.22,0.64c0.06,0.15,0.12,0.31,0.18,0.46
			c0.12,0.34,0.26,0.66,0.43,0.98c0.15,0.3,0.31,0.59,0.48,0.88c0.2,0.34,0.43,0.66,0.67,0.96
			C162.63,187.04,162.78,187.21,162.92,187.38z"/>
	</g>
	<g>
		<path class="st13" d="M195.63,160c0.28,0.27,0.59,0.51,0.91,0.73c0.29,0.2,0.59,0.38,0.91,0.54c0.3,0.16,0.61,0.31,0.93,0.44
			c0.29,0.12,0.59,0.23,0.88,0.35c0.23,0.09,0.46,0.17,0.69,0.24c0.16,0.05,0.33,0.1,0.5,0.14c0.19,0.05,0.39,0.1,0.58,0.15
			c0.05,0.01,0.09,0.02,0.14,0.03c0.19,0.04,0.39,0.07,0.58,0.11c0.03,0.01,0.07,0.02,0.1,0.03c0.05,0.03,0.05,0.07,0.01,0.1
			c-0.02,0.02-0.05,0.03-0.08,0.04c-0.06,0.01-0.13,0.01-0.19,0.02c-0.26,0.05-0.52,0.09-0.77,0.14c-0.32,0.06-0.62,0.15-0.93,0.25
			c-0.24,0.07-0.48,0.15-0.72,0.24c-0.27,0.1-0.54,0.2-0.8,0.31c-0.4,0.16-0.79,0.34-1.16,0.55c-0.4,0.22-0.78,0.46-1.14,0.73
			c-0.32,0.24-0.61,0.51-0.88,0.8c-0.26,0.28-0.49,0.59-0.69,0.91c-0.09,0.15-0.18,0.31-0.26,0.47c-0.09,0.18-0.18,0.36-0.26,0.54
			c-0.06,0.13-0.11,0.25-0.15,0.38c-0.06,0.16-0.11,0.32-0.17,0.47c0,0.01-0.01,0.01-0.01,0.02c-0.05,0.18-0.1,0.36-0.15,0.55
			c-0.05,0.2-0.09,0.41-0.13,0.61c-0.05,0.23-0.08,0.47-0.11,0.71c-0.02,0.17-0.05,0.34-0.08,0.51c-0.02,0.14-0.02,0.27-0.04,0.41
			c0,0.04-0.01,0.09-0.03,0.13c-0.01,0.03-0.03,0.06-0.05,0.09c-0.05,0.06-0.12,0.05-0.15-0.02c-0.02-0.04-0.02-0.08-0.03-0.12
			c-0.03-0.19-0.05-0.39-0.08-0.58c-0.01-0.06-0.01-0.12-0.02-0.19c-0.03-0.19-0.06-0.39-0.1-0.58c-0.05-0.25-0.11-0.5-0.16-0.75
			c-0.04-0.18-0.09-0.36-0.14-0.53c-0.04-0.15-0.08-0.3-0.13-0.44c-0.09-0.27-0.18-0.54-0.28-0.81c-0.15-0.4-0.34-0.78-0.56-1.15
			c-0.33-0.55-0.77-1.03-1.28-1.44c-0.43-0.35-0.88-0.65-1.37-0.93c-0.48-0.27-0.99-0.5-1.51-0.71c-0.46-0.18-0.92-0.34-1.4-0.46
			c-0.43-0.11-0.86-0.21-1.3-0.25c-0.15-0.02-0.3-0.04-0.45-0.07c-0.04-0.01-0.09,0-0.14-0.01c-0.03-0.01-0.07-0.02-0.09-0.03
			c-0.04-0.03-0.04-0.07,0.01-0.1c0.02-0.01,0.03-0.01,0.05-0.02c0.04-0.01,0.07-0.01,0.11-0.01c0.3-0.01,0.59-0.03,0.89-0.08
			c0.25-0.04,0.49-0.09,0.73-0.14c0.18-0.04,0.36-0.09,0.54-0.14c0.15-0.04,0.29-0.08,0.44-0.13c0.26-0.08,0.51-0.17,0.76-0.26
			c0.21-0.07,0.41-0.15,0.62-0.24c0.22-0.1,0.45-0.19,0.66-0.3c0.28-0.14,0.55-0.29,0.82-0.45c0.44-0.26,0.85-0.56,1.22-0.91
			c0.32-0.31,0.6-0.65,0.83-1.02c0.2-0.33,0.37-0.68,0.52-1.03c0.12-0.29,0.23-0.58,0.32-0.87c0.09-0.3,0.19-0.6,0.28-0.9
			c0.06-0.21,0.1-0.42,0.15-0.63c0.03-0.16,0.07-0.31,0.1-0.47c0.04-0.2,0.07-0.4,0.1-0.6c0.02-0.13,0.03-0.25,0.04-0.38
			c0-0.03,0.01-0.07,0.02-0.09c0.01-0.03,0.03-0.06,0.06-0.08c0.05-0.04,0.12-0.03,0.15,0.03c0.02,0.03,0.03,0.06,0.03,0.09
			c0.02,0.16,0.03,0.32,0.05,0.47c0.03,0.25,0.05,0.5,0.08,0.75c0.02,0.15,0.05,0.29,0.07,0.43c0.02,0.14,0.04,0.27,0.08,0.4
			c0.01,0.03,0.02,0.07,0.02,0.1c0.01,0.12,0.04,0.24,0.08,0.36c0.01,0.03,0.02,0.07,0.02,0.1c0.02,0.08,0.04,0.16,0.07,0.24
			c0,0.01,0.01,0.02,0.01,0.04c0.05,0.15,0.09,0.31,0.14,0.46c0.05,0.13,0.1,0.26,0.15,0.39c0.04,0.09,0.08,0.19,0.12,0.28
			c0.09,0.21,0.19,0.41,0.3,0.6c0.11,0.18,0.22,0.36,0.34,0.54c0.14,0.21,0.3,0.4,0.47,0.59C195.42,159.79,195.52,159.89,195.63,160
			z"/>
	</g>
	<g>
		<path class="st13" d="M964.23,272.43c0.53,0.73,1.12,1.37,1.73,1.96c0.55,0.53,1.12,1.01,1.72,1.44c0.58,0.43,1.17,0.82,1.77,1.18
			c0.55,0.33,1.11,0.63,1.68,0.93c0.43,0.23,0.87,0.45,1.32,0.65c0.31,0.14,0.63,0.27,0.95,0.39c0.37,0.14,0.74,0.27,1.11,0.41
			c0.09,0.03,0.18,0.06,0.27,0.08c0.37,0.1,0.74,0.2,1.11,0.3c0.06,0.02,0.13,0.04,0.19,0.09c0.09,0.07,0.1,0.18,0.02,0.27
			c-0.04,0.05-0.11,0.09-0.16,0.1c-0.12,0.03-0.25,0.03-0.37,0.06c-0.49,0.12-0.99,0.24-1.48,0.37c-0.6,0.16-1.19,0.4-1.78,0.64
			c-0.46,0.19-0.92,0.4-1.38,0.63c-0.52,0.26-1.03,0.53-1.54,0.81c-0.76,0.42-1.51,0.9-2.23,1.43c-0.77,0.56-1.5,1.2-2.19,1.91
			c-0.61,0.63-1.18,1.33-1.69,2.09c-0.51,0.75-0.95,1.55-1.34,2.4c-0.18,0.4-0.35,0.82-0.51,1.24c-0.18,0.47-0.35,0.95-0.52,1.43
			c-0.11,0.33-0.21,0.67-0.3,1.01c-0.11,0.41-0.22,0.83-0.33,1.25c0,0.02-0.01,0.04-0.02,0.06c-0.1,0.48-0.2,0.96-0.29,1.45
			c-0.1,0.54-0.19,1.08-0.27,1.62c-0.09,0.62-0.16,1.24-0.22,1.87c-0.05,0.45-0.11,0.9-0.15,1.34c-0.04,0.36-0.05,0.72-0.08,1.08
			c-0.01,0.12-0.03,0.23-0.06,0.35c-0.02,0.09-0.06,0.17-0.1,0.24c-0.1,0.15-0.23,0.12-0.29-0.06c-0.03-0.1-0.04-0.21-0.05-0.32
			c-0.05-0.51-0.09-1.03-0.14-1.54c-0.01-0.16-0.01-0.33-0.03-0.49c-0.05-0.51-0.1-1.03-0.17-1.54c-0.09-0.66-0.19-1.33-0.3-1.99
			c-0.08-0.47-0.16-0.95-0.25-1.42c-0.07-0.39-0.15-0.79-0.24-1.18c-0.17-0.72-0.33-1.45-0.52-2.16c-0.28-1.05-0.62-2.07-1.04-3.04
			c-0.62-1.47-1.44-2.73-2.41-3.84c-0.8-0.93-1.67-1.74-2.59-2.48c-0.91-0.73-1.87-1.35-2.86-1.9c-0.87-0.49-1.76-0.91-2.67-1.24
			c-0.81-0.3-1.63-0.56-2.47-0.69c-0.28-0.05-0.57-0.12-0.85-0.18c-0.09-0.02-0.17-0.01-0.26-0.03c-0.06-0.02-0.13-0.04-0.18-0.09
			c-0.08-0.08-0.07-0.19,0.02-0.26c0.03-0.02,0.07-0.04,0.1-0.04c0.07-0.01,0.14-0.02,0.21-0.03c0.57-0.02,1.13-0.08,1.7-0.21
			c0.47-0.1,0.94-0.22,1.4-0.35c0.35-0.09,0.7-0.23,1.04-0.35c0.28-0.1,0.56-0.21,0.84-0.33c0.49-0.21,0.98-0.43,1.46-0.67
			c0.4-0.19,0.79-0.4,1.18-0.62c0.43-0.25,0.86-0.5,1.27-0.79c0.54-0.38,1.06-0.77,1.58-1.19c0.85-0.69,1.64-1.48,2.34-2.39
			c0.62-0.81,1.16-1.71,1.6-2.69c0.39-0.87,0.73-1.78,1.01-2.72c0.23-0.76,0.44-1.53,0.63-2.31c0.18-0.79,0.38-1.58,0.54-2.38
			c0.12-0.55,0.2-1.11,0.29-1.67c0.07-0.41,0.14-0.82,0.2-1.23c0.07-0.53,0.14-1.06,0.2-1.6c0.04-0.33,0.06-0.67,0.09-1
			c0.01-0.08,0.02-0.17,0.04-0.25c0.03-0.08,0.06-0.15,0.11-0.21c0.1-0.11,0.22-0.08,0.29,0.07c0.03,0.07,0.05,0.16,0.05,0.24
			c0.03,0.42,0.05,0.84,0.08,1.26c0.04,0.67,0.08,1.33,0.14,2c0.03,0.38,0.1,0.76,0.13,1.15c0.03,0.36,0.06,0.72,0.14,1.07
			c0.02,0.09,0.03,0.18,0.04,0.27c0.03,0.32,0.07,0.64,0.15,0.94c0.02,0.09,0.03,0.18,0.04,0.27c0.04,0.22,0.08,0.43,0.12,0.65
			c0.01,0.03,0.02,0.06,0.02,0.09c0.08,0.4,0.16,0.81,0.26,1.21c0.08,0.35,0.18,0.69,0.28,1.04c0.07,0.25,0.16,0.5,0.23,0.75
			c0.16,0.55,0.35,1.08,0.56,1.59c0.2,0.48,0.41,0.97,0.63,1.44c0.26,0.56,0.57,1.08,0.89,1.57
			C963.83,271.88,964.03,272.15,964.23,272.43z"/>
	</g>
	<g>
		<path class="st13" d="M938.25,298.93c0.4,0.45,0.84,0.84,1.3,1.2c0.41,0.32,0.84,0.61,1.29,0.88c0.43,0.26,0.87,0.5,1.32,0.72
			c0.41,0.2,0.83,0.38,1.25,0.56c0.33,0.14,0.65,0.27,0.98,0.39c0.23,0.09,0.47,0.16,0.71,0.23c0.27,0.08,0.55,0.16,0.83,0.24
			c0.07,0.02,0.13,0.04,0.2,0.05c0.28,0.06,0.55,0.12,0.83,0.18c0.05,0.01,0.1,0.03,0.14,0.05c0.07,0.04,0.08,0.11,0.02,0.17
			c-0.03,0.03-0.08,0.05-0.12,0.06c-0.09,0.02-0.18,0.02-0.27,0.04c-0.37,0.08-0.73,0.15-1.1,0.23c-0.45,0.1-0.89,0.25-1.32,0.4
			c-0.34,0.12-0.69,0.25-1.02,0.39c-0.38,0.16-0.76,0.33-1.14,0.5c-0.57,0.26-1.12,0.56-1.65,0.89c-0.57,0.35-1.11,0.74-1.62,1.19
			c-0.45,0.39-0.87,0.83-1.25,1.3c-0.37,0.46-0.7,0.96-0.99,1.49c-0.13,0.25-0.26,0.51-0.37,0.76c-0.13,0.29-0.26,0.59-0.38,0.88
			c-0.08,0.2-0.15,0.41-0.22,0.62c-0.08,0.26-0.16,0.51-0.24,0.77c0,0.01-0.01,0.02-0.01,0.03c-0.07,0.3-0.14,0.59-0.21,0.89
			c-0.07,0.33-0.13,0.66-0.19,1c-0.07,0.38-0.11,0.77-0.16,1.15c-0.03,0.28-0.08,0.55-0.11,0.83c-0.02,0.22-0.04,0.44-0.06,0.66
			c-0.01,0.07-0.02,0.14-0.04,0.21c-0.02,0.05-0.04,0.11-0.08,0.15c-0.07,0.09-0.17,0.08-0.22-0.04c-0.02-0.06-0.03-0.13-0.04-0.2
			c-0.04-0.32-0.08-0.63-0.11-0.95c-0.01-0.1-0.01-0.2-0.03-0.3c-0.04-0.32-0.08-0.63-0.14-0.95c-0.07-0.41-0.15-0.82-0.23-1.22
			c-0.06-0.29-0.13-0.58-0.2-0.87c-0.06-0.24-0.12-0.49-0.19-0.72c-0.13-0.44-0.26-0.89-0.4-1.33c-0.21-0.64-0.48-1.27-0.79-1.87
			c-0.47-0.9-1.09-1.67-1.82-2.35c-0.6-0.57-1.26-1.07-1.95-1.51c-0.69-0.44-1.4-0.82-2.14-1.16c-0.65-0.3-1.31-0.55-1.99-0.75
			c-0.61-0.18-1.22-0.34-1.85-0.42c-0.21-0.03-0.42-0.07-0.63-0.11c-0.06-0.01-0.13-0.01-0.19-0.02c-0.05-0.01-0.1-0.03-0.13-0.06
			c-0.06-0.05-0.05-0.12,0.01-0.16c0.02-0.01,0.05-0.02,0.07-0.03c0.05-0.01,0.11-0.02,0.16-0.02c0.42-0.02,0.84-0.06,1.26-0.14
			c0.35-0.07,0.7-0.14,1.04-0.22c0.26-0.06,0.52-0.14,0.77-0.22c0.21-0.06,0.42-0.13,0.62-0.21c0.36-0.13,0.73-0.27,1.09-0.42
			c0.3-0.12,0.59-0.25,0.88-0.39c0.32-0.16,0.64-0.31,0.94-0.5c0.4-0.23,0.79-0.48,1.17-0.74c0.63-0.43,1.21-0.92,1.73-1.49
			c0.46-0.5,0.85-1.06,1.18-1.67c0.29-0.54,0.53-1.1,0.74-1.68c0.17-0.47,0.32-0.94,0.45-1.42c0.13-0.49,0.27-0.98,0.39-1.47
			c0.08-0.34,0.14-0.69,0.21-1.03c0.05-0.25,0.1-0.51,0.14-0.76c0.05-0.33,0.1-0.65,0.14-0.98c0.03-0.2,0.04-0.41,0.06-0.61
			c0.01-0.05,0.01-0.11,0.03-0.15c0.02-0.05,0.05-0.09,0.08-0.13c0.07-0.07,0.17-0.05,0.21,0.04c0.02,0.04,0.04,0.1,0.04,0.15
			c0.02,0.26,0.04,0.51,0.07,0.77c0.04,0.41,0.07,0.82,0.11,1.23c0.03,0.24,0.08,0.47,0.1,0.71c0.02,0.22,0.05,0.44,0.11,0.66
			c0.01,0.05,0.02,0.11,0.03,0.17c0.02,0.2,0.06,0.39,0.12,0.58c0.02,0.05,0.02,0.11,0.03,0.17c0.03,0.13,0.06,0.27,0.1,0.4
			c0,0.02,0.01,0.04,0.02,0.06c0.07,0.25,0.13,0.5,0.2,0.75c0.06,0.22,0.14,0.43,0.22,0.64c0.06,0.15,0.12,0.31,0.18,0.46
			c0.12,0.34,0.26,0.66,0.43,0.98c0.15,0.3,0.31,0.59,0.48,0.88c0.2,0.34,0.43,0.66,0.67,0.96
			C937.95,298.6,938.1,298.76,938.25,298.93z"/>
	</g>
	<g>
		<path class="st13" d="M928.05,264.8c0.28,0.27,0.59,0.51,0.91,0.73c0.29,0.2,0.59,0.38,0.91,0.54c0.3,0.16,0.61,0.31,0.93,0.44
			c0.29,0.12,0.59,0.23,0.88,0.35c0.23,0.09,0.46,0.17,0.69,0.24c0.16,0.05,0.33,0.1,0.5,0.14c0.19,0.05,0.39,0.1,0.58,0.15
			c0.05,0.01,0.09,0.02,0.14,0.03c0.19,0.04,0.39,0.07,0.58,0.11c0.03,0.01,0.07,0.02,0.1,0.03c0.05,0.03,0.05,0.07,0.01,0.1
			c-0.02,0.02-0.05,0.03-0.08,0.04c-0.06,0.01-0.13,0.01-0.19,0.02c-0.26,0.05-0.52,0.09-0.77,0.14c-0.32,0.06-0.62,0.15-0.93,0.25
			c-0.24,0.07-0.48,0.15-0.72,0.24c-0.27,0.1-0.54,0.2-0.8,0.31c-0.4,0.16-0.79,0.34-1.16,0.55c-0.4,0.22-0.78,0.46-1.14,0.73
			c-0.32,0.24-0.61,0.51-0.88,0.8c-0.26,0.28-0.49,0.59-0.69,0.91c-0.09,0.15-0.18,0.31-0.26,0.47c-0.09,0.18-0.18,0.36-0.26,0.54
			c-0.06,0.13-0.11,0.25-0.15,0.38c-0.06,0.16-0.11,0.32-0.17,0.47c0,0.01-0.01,0.01-0.01,0.02c-0.05,0.18-0.1,0.36-0.15,0.55
			c-0.05,0.2-0.09,0.41-0.13,0.61c-0.05,0.23-0.08,0.47-0.11,0.71c-0.02,0.17-0.05,0.34-0.08,0.51c-0.02,0.14-0.02,0.27-0.04,0.41
			c0,0.04-0.01,0.09-0.03,0.13c-0.01,0.03-0.03,0.06-0.05,0.09c-0.05,0.06-0.12,0.05-0.15-0.02c-0.02-0.04-0.02-0.08-0.03-0.12
			c-0.03-0.19-0.05-0.39-0.08-0.58c-0.01-0.06-0.01-0.12-0.02-0.19c-0.03-0.19-0.06-0.39-0.1-0.58c-0.05-0.25-0.11-0.5-0.16-0.75
			c-0.04-0.18-0.09-0.36-0.14-0.53c-0.04-0.15-0.08-0.3-0.13-0.44c-0.09-0.27-0.18-0.54-0.28-0.81c-0.15-0.4-0.34-0.78-0.56-1.15
			c-0.33-0.55-0.77-1.03-1.28-1.44c-0.43-0.35-0.88-0.65-1.37-0.93c-0.48-0.27-0.99-0.5-1.51-0.71c-0.46-0.18-0.92-0.34-1.4-0.46
			c-0.43-0.11-0.86-0.21-1.3-0.25c-0.15-0.02-0.3-0.04-0.45-0.07c-0.04-0.01-0.09,0-0.14-0.01c-0.03-0.01-0.07-0.02-0.09-0.03
			c-0.04-0.03-0.04-0.07,0.01-0.1c0.02-0.01,0.03-0.01,0.05-0.02c0.04-0.01,0.07-0.01,0.11-0.01c0.3-0.01,0.59-0.03,0.89-0.08
			c0.25-0.04,0.49-0.09,0.73-0.14c0.18-0.04,0.36-0.09,0.54-0.14c0.15-0.04,0.29-0.08,0.44-0.13c0.26-0.08,0.51-0.17,0.76-0.26
			c0.21-0.07,0.41-0.15,0.62-0.24c0.22-0.1,0.45-0.19,0.66-0.3c0.28-0.14,0.55-0.29,0.82-0.45c0.44-0.26,0.85-0.56,1.22-0.91
			c0.32-0.31,0.6-0.65,0.83-1.02c0.2-0.33,0.37-0.68,0.52-1.03c0.12-0.29,0.23-0.58,0.32-0.87c0.09-0.3,0.19-0.6,0.28-0.9
			c0.06-0.21,0.1-0.42,0.15-0.63c0.03-0.16,0.07-0.31,0.1-0.47c0.04-0.2,0.07-0.4,0.1-0.6c0.02-0.13,0.03-0.25,0.04-0.38
			c0-0.03,0.01-0.07,0.02-0.09c0.01-0.03,0.03-0.06,0.06-0.08c0.05-0.04,0.12-0.03,0.15,0.03c0.02,0.03,0.03,0.06,0.03,0.09
			c0.02,0.16,0.03,0.32,0.05,0.47c0.03,0.25,0.05,0.5,0.08,0.75c0.02,0.15,0.05,0.29,0.07,0.43c0.02,0.14,0.04,0.27,0.08,0.4
			c0.01,0.03,0.02,0.07,0.02,0.1c0.01,0.12,0.04,0.24,0.08,0.36c0.01,0.03,0.02,0.07,0.02,0.1c0.02,0.08,0.04,0.16,0.07,0.24
			c0,0.01,0.01,0.02,0.01,0.04c0.05,0.15,0.09,0.31,0.14,0.46c0.05,0.13,0.1,0.26,0.15,0.39c0.04,0.09,0.08,0.19,0.12,0.28
			c0.09,0.21,0.19,0.41,0.3,0.6c0.11,0.18,0.22,0.36,0.34,0.54c0.14,0.21,0.3,0.4,0.47,0.59C927.84,264.6,927.95,264.7,928.05,264.8
			z"/>
	</g>
</g>
</svg>
