<?xml version="1.0" encoding="utf-8"?>
<!-- Generator: Adobe Illustrator 26.3.1, SVG Export Plug-In . SVG Version: 6.00 Build 0)  -->
<svg class="social-icon" aria-labelledby='#instagram' viewBox="0 0 30 30">
    <title id='#instagram'>Instagram</title>
    <g transform="translate(0 0)">
        <path
            d="M19.079,6.782c4.005,0,4.48.015,6.061.087a8.3,8.3,0,0,1,2.785.516,4.968,4.968,0,0,1,2.847,2.847,8.3,8.3,0,0,1,.516,2.785c.072,1.582.087,2.056.087,6.061s-.015,4.48-.087,6.061a8.3,8.3,0,0,1-.516,2.785,4.968,4.968,0,0,1-2.847,2.847,8.3,8.3,0,0,1-2.785.516c-1.581.072-2.056.087-6.061.087s-4.48-.015-6.061-.087a8.3,8.3,0,0,1-2.785-.516,4.968,4.968,0,0,1-2.847-2.847,8.3,8.3,0,0,1-.516-2.785c-.072-1.582-.087-2.056-.087-6.061s.015-4.48.087-6.061a8.3,8.3,0,0,1,.516-2.785,4.968,4.968,0,0,1,2.847-2.847,8.3,8.3,0,0,1,2.785-.516c1.582-.072,2.056-.087,6.061-.087m0-2.7c-4.074,0-4.585.017-6.184.09a11.01,11.01,0,0,0-3.641.7A7.67,7.67,0,0,0,4.867,9.253a11.01,11.01,0,0,0-.7,3.641c-.073,1.6-.09,2.111-.09,6.184s.017,4.585.09,6.184a11.01,11.01,0,0,0,.7,3.641,7.67,7.67,0,0,0,4.387,4.387,11.01,11.01,0,0,0,3.641.7c1.6.073,2.111.09,6.184.09s4.585-.017,6.184-.09a11.01,11.01,0,0,0,3.641-.7A7.67,7.67,0,0,0,33.291,28.9a11.01,11.01,0,0,0,.7-3.641c.073-1.6.09-2.111.09-6.184s-.017-4.585-.09-6.184a11.01,11.01,0,0,0-.7-3.641A7.67,7.67,0,0,0,28.9,4.867a11.01,11.01,0,0,0-3.641-.7c-1.6-.073-2.111-.09-6.184-.09Z"
            transform="translate(-4.079 -4.079)" />
        <path
            d="M134.338,126.635a7.7,7.7,0,1,0,7.7,7.7A7.7,7.7,0,0,0,134.338,126.635Zm0,12.7a5,5,0,1,1,5-5A5,5,0,0,1,134.338,139.338Z"
            transform="translate(-119.338 -119.338)" />
        <circle cx="1.8" cy="1.8" r="1.8" transform="translate(21.207 5.193)" />
    </g>
</svg>
