<?xml version="1.0" encoding="utf-8"?>
<!-- Generator: Adobe Illustrator 26.3.1, SVG Export Plug-In . SVG Version: 6.00 Build 0)  -->
<svg class="social-icon" aria-labelledby='#linkedIn' viewBox="0 0 30 30">
    <title id='#linkedIn'>LinkedIn</title>
    <path
        d="M30.413,2.2V28.281c-.018.028-.05.055-.052.084a2.015,2.015,0,0,1-.544,1.161,2.627,2.627,0,0,1-1.195.713H2.148c-.019-.017-.035-.046-.057-.051a2.2,2.2,0,0,1-1.73-2.134Q.35,15.24.363,2.425A2.129,2.129,0,0,1,.966.937,2.758,2.758,0,0,1,2.148.24H28.622c.01.014.018.039.03.042a2.006,2.006,0,0,1,1.427,1.052A7.152,7.152,0,0,1,30.413,2.2ZM16.476,25.751v-.337c0-2.3-.01-4.608.008-6.911a7.91,7.91,0,0,1,.17-1.5,2.237,2.237,0,0,1,1.312-1.773,3.19,3.19,0,0,1,1.6-.2,1.813,1.813,0,0,1,1.636,1.24,5.218,5.218,0,0,1,.3,1.58c.03,2.527.014,5.055.014,7.583v.32H25.87c0-.067.008-.121.009-.175.019-1.787.057-3.574.05-5.361-.005-1.317-.065-2.634-.107-3.951a7.249,7.249,0,0,0-.448-2.222A3.84,3.84,0,0,0,22.8,11.5a15.46,15.46,0,0,0-1.557-.292,4.223,4.223,0,0,0-1.891.087,4.523,4.523,0,0,0-2.8,1.986,1.216,1.216,0,0,1-.184.189l-.07-.032V11.561H12.128V25.751Zm-7.236,0V11.565H4.911V25.749ZM7.068,4.438a2.484,2.484,0,0,0-2.545,2.51A2.466,2.466,0,0,0,7.055,9.507,2.519,2.519,0,0,0,9.6,7.106,2.549,2.549,0,0,0,7.068,4.438Z"
        transform="translate(-0.356 -0.24)" />
</svg>
