<?xml version="1.0" encoding="utf-8"?>
<!-- Generator: Adobe Illustrator 26.3.1, SVG Export Plug-In . SVG Version: 6.00 Build 0)  -->
<svg class="social-icon" aria-labelledby='#tikTok' version="1.1" id="Layer_1" xmlns="http://www.w3.org/2000/svg"
	xmlns:xlink="http://www.w3.org/1999/xlink" x="0px" y="0px" viewBox="0 0 30 30"
	style="enable-background:new 0 0 30 30;" xml:space="preserve">
	<title id='#tikTok'>TikTok</title>
	<g>
		<path d="M24.17,6.01c-1.62-1.05-2.78-2.74-3.15-4.7C20.95,0.88,20.91,0.45,20.91,0h-5.16l-0.01,20.67
		c-0.09,2.31-1.99,4.17-4.33,4.17c-0.72,0-1.41-0.18-2.01-0.5c-1.38-0.73-2.33-2.17-2.33-3.84c0-2.39,1.94-4.34,4.34-4.34
		c0.45,0,0.87,0.07,1.28,0.2v-4.04V11.1c-0.42-0.06-0.84-0.09-1.28-0.09c-5.23,0-9.49,4.26-9.49,9.49c0,3.21,1.61,6.05,4.05,7.77
		C7.51,29.36,9.39,30,11.41,30c5.23,0,9.49-4.26,9.49-9.49V10.03c2.02,1.45,4.5,2.31,7.18,2.31V8.33V7.18
		C26.64,7.17,25.3,6.75,24.17,6.01z" />
	</g>
</svg>
