<svg version="1.1" id="Layer_1" xmlns="http://www.w3.org/2000/svg" xmlns:xlink="http://www.w3.org/1999/xlink" x="0px"
    y="0px" viewBox="0 0 405 165" style="enable-background:new 0 0 405 165;" xml:space="preserve">
    <style type="text/css">
        .st0 {
            fill: #FFFFFF;
        }
    </style>
    <g>
        <g>
            <g>
                <path class="st0" d="M219.22,31.28h-4.23c-0.73,0-1.22-0.33-1.42-1.06l-1.38-4.68H202l-1.38,4.68c-0.2,0.73-0.73,1.06-1.42,1.06
				H195c-0.9,0-1.34-0.53-1.02-1.46l8.87-25.97c0.24-0.69,0.69-1.06,1.42-1.06h5.58c0.73,0,1.22,0.37,1.46,1.06l8.95,25.97
				C220.56,30.75,220.11,31.28,219.22,31.28z M210.63,20.37l-3.58-12.13l-3.54,12.13H210.63z" />
                <path class="st0" d="M254.26,18.46v11.56c0,0.81-0.49,1.26-1.26,1.26h-3.66c-0.81,0-1.3-0.45-1.3-1.26V18.91
				c0-2.16-1.22-3.5-3.05-3.5c-2,0-3.26,1.55-3.26,3.99v10.62c0,0.81-0.49,1.26-1.26,1.26h-3.66c-0.81,0-1.3-0.45-1.3-1.26V18.91
				c0-2.16-1.22-3.5-3.05-3.5c-1.95,0-3.22,1.51-3.26,3.87l0.04,10.74c0,0.81-0.45,1.26-1.26,1.26h-3.66
				c-0.81,0-1.26-0.45-1.26-1.26V12.19c0-0.81,0.45-1.26,1.26-1.26h2.93c0.77,0,1.26,0.45,1.26,1.26v1.91
				c1.1-2.4,3.26-3.74,6.06-3.74c2.89,0,5.09,1.38,6.23,3.74c1.14-2.4,3.38-3.74,6.27-3.74C251.49,10.36,254.26,13.53,254.26,18.46z
				" />
                <path class="st0" d="M257.51,20.94c0-6.39,3.7-10.58,10.3-10.58c6.06,0,9.73,3.54,10.09,10.83c0.04,0.85-0.41,1.3-1.22,1.3
				h-12.58c0.36,3.01,1.91,4.84,4.56,4.84c1.42,0,2.56-0.57,3.22-1.67c0.45-0.61,0.85-0.9,1.59-0.77l2.85,0.49
				c0.85,0.12,1.26,0.69,0.9,1.51c-1.38,3.13-4.64,4.92-8.99,4.92C261.66,31.81,257.51,27.74,257.51,20.94z M271.35,19.03
				c-0.33-2.73-1.47-4.23-3.54-4.23c-2.12,0-3.38,1.46-3.7,4.23H271.35z" />
                <path class="st0"
                    d="M294.22,11.42v3.66c0,0.65-0.37,1.02-0.94,1.02h-0.25c-3.46,0-5.53,2.12-5.66,5.66l0.04,8.26
				c0,0.81-0.45,1.26-1.26,1.26h-3.66c-0.81,0-1.26-0.45-1.26-1.26V12.19c0-0.81,0.45-1.26,1.26-1.26h2.69
				c0.77,0,1.26,0.45,1.26,1.26l-0.04,3.38c1.06-3.13,3.38-5.17,6.43-5.17h0.33C293.85,10.4,294.22,10.77,294.22,11.42z" />
                <path class="st0" d="M296.54,4.78c0-1.95,1.55-3.5,3.5-3.5c1.91,0,3.46,1.55,3.46,3.5c0,1.91-1.55,3.5-3.46,3.5
				C298.09,8.28,296.54,6.7,296.54,4.78z M301.87,31.28h-3.66c-0.81,0-1.26-0.45-1.26-1.26V12.19c0-0.81,0.45-1.26,1.26-1.26h3.66
				c0.81,0,1.26,0.45,1.26,1.26v17.83C303.13,30.83,302.69,31.28,301.87,31.28z" />
                <path class="st0" d="M316.81,10.36c4.72,0,8.1,2.36,9.32,6.23c0.29,0.81-0.16,1.34-0.98,1.51l-3.3,0.53
				c-0.77,0.12-1.22-0.2-1.55-0.94c-0.57-1.34-1.59-2.32-3.22-2.32c-2.32,0-3.78,2.16-3.78,5.7c0,3.5,1.42,5.7,3.87,5.7
				c1.59,0,2.73-0.85,3.3-2.65c0.24-0.77,0.73-1.1,1.46-1.02l3.34,0.49c0.81,0.16,1.22,0.69,1.02,1.55c-1.18,4.27-4.6,6.63-9.4,6.63
				c-6.23,0-10.09-4.11-10.09-10.7S310.66,10.36,316.81,10.36z" />
                <path class="st0"
                    d="M347.41,17.81v12.21c0,0.81-0.45,1.26-1.26,1.26h-2.89c-0.81,0-1.26-0.45-1.26-1.26v-1.42
				c-1.26,2.08-3.58,3.22-6.55,3.22c-4.27,0-6.96-2.32-6.96-6.02c0-3.99,3.13-6.47,8.3-6.47c1.63,0,3.3,0.24,4.52,0.69v-2.12
				c0-1.95-1.06-3.13-2.81-3.13c-1.26,0-2.2,0.61-2.73,1.55c-0.45,0.65-0.81,0.94-1.55,0.85l-3.54-0.57
				c-0.85-0.16-1.26-0.73-0.89-1.55c1.3-2.89,4.44-4.68,8.75-4.68C343.99,10.36,347.41,13.21,347.41,17.81z M341.3,24.08V23.3
				c-1.02-0.45-2.2-0.69-3.3-0.69c-2.08,0-3.34,0.94-3.34,2.52c0,1.51,1.1,2.44,2.97,2.44C339.92,27.58,341.3,26.23,341.3,24.08z" />
                <path class="st0" d="M370.65,18.46v11.56c0,0.81-0.45,1.26-1.26,1.26h-3.66c-0.81,0-1.26-0.45-1.26-1.26V18.95
				c0-2.16-1.3-3.54-3.26-3.54c-2.04,0-3.38,1.55-3.42,3.91l0.04,10.7c0,0.81-0.45,1.26-1.26,1.26h-3.66
				c-0.81,0-1.26-0.45-1.26-1.26V12.19c0-0.81,0.45-1.26,1.26-1.26h2.93c0.77,0,1.26,0.45,1.26,1.26v1.87
				c1.14-2.36,3.34-3.7,6.27-3.7C367.8,10.36,370.65,13.53,370.65,18.46z" />
                <path class="st0" d="M215.19,49.05v3.22c0,0.77-0.49,1.26-1.3,1.26H203.1v7.53h8.91c0.81,0,1.26,0.45,1.26,1.26v3.17
				c0,0.81-0.45,1.3-1.26,1.3h-8.95v8.22c0,0.81-0.49,1.26-1.26,1.26h-3.95c-0.81,0-1.26-0.45-1.26-1.26V49.05
				c0-0.81,0.45-1.26,1.26-1.26h16.03C214.7,47.79,215.19,48.24,215.19,49.05z" />
                <path class="st0" d="M216.41,66.06c0-6.55,4.07-10.7,10.62-10.7c6.51,0,10.62,4.15,10.62,10.7c0,6.59-4.11,10.74-10.62,10.74
				C220.48,76.81,216.41,72.66,216.41,66.06z M231.14,66.06c0-3.5-1.59-5.74-4.11-5.74c-2.52,0-4.11,2.24-4.11,5.74
				c0,3.54,1.59,5.74,4.11,5.74C229.56,71.8,231.14,69.6,231.14,66.06z" />
                <path class="st0" d="M259.59,57.19v17.83c0,0.81-0.49,1.26-1.3,1.26h-2.81c-0.77,0-1.26-0.45-1.26-1.26v-1.71
				c-1.18,2.24-3.46,3.5-6.47,3.5c-4.27,0-6.96-2.6-6.96-7.98V57.19c0-0.81,0.45-1.26,1.26-1.26h3.66c0.81,0,1.26,0.45,1.26,1.26
				v11.19c0,2.08,1.22,3.34,3.17,3.34s3.21-1.42,3.26-3.7l-0.04-10.83c0-0.81,0.49-1.26,1.26-1.26h3.66
				C259.1,55.93,259.59,56.38,259.59,57.19z" />
                <path class="st0" d="M283.36,63.46v11.56c0,0.81-0.45,1.26-1.26,1.26h-3.66c-0.81,0-1.26-0.45-1.26-1.26V63.95
				c0-2.16-1.3-3.54-3.26-3.54c-2.04,0-3.38,1.55-3.42,3.91l0.04,10.7c0,0.81-0.45,1.26-1.26,1.26h-3.66
				c-0.81,0-1.26-0.45-1.26-1.26V57.19c0-0.81,0.45-1.26,1.26-1.26h2.93c0.77,0,1.26,0.45,1.26,1.26v1.87
				c1.14-2.36,3.34-3.7,6.27-3.7C280.51,55.36,283.36,58.53,283.36,63.46z" />
                <path class="st0" d="M306.92,47.83v27.19c0,0.81-0.45,1.26-1.26,1.26h-2.93c-0.81,0-1.26-0.45-1.26-1.26v-2.16
				c-1.42,2.48-3.7,3.91-6.63,3.91c-5.05,0-8.22-4.11-8.22-10.66c0-6.59,3.18-10.74,8.26-10.74c2.44,0,4.44,0.98,5.86,2.77v-10.3
				c0-0.81,0.45-1.26,1.26-1.26h3.66C306.47,46.57,306.92,47.02,306.92,47.83z M300.73,66.06c0-3.5-1.47-5.74-3.78-5.74
				c-2.36,0-3.83,2.24-3.83,5.74c0,3.5,1.47,5.74,3.83,5.74C299.27,71.8,300.73,69.56,300.73,66.06z" />
                <path class="st0"
                    d="M329.58,62.81v12.21c0,0.81-0.45,1.26-1.26,1.26h-2.89c-0.81,0-1.26-0.45-1.26-1.26v-1.42
				c-1.26,2.08-3.58,3.22-6.55,3.22c-4.27,0-6.96-2.32-6.96-6.02c0-3.99,3.13-6.47,8.3-6.47c1.63,0,3.3,0.24,4.52,0.69v-2.12
				c0-1.95-1.06-3.13-2.81-3.13c-1.26,0-2.2,0.61-2.73,1.55c-0.45,0.65-0.81,0.94-1.55,0.85l-3.54-0.57
				c-0.85-0.16-1.26-0.73-0.89-1.55c1.3-2.89,4.44-4.68,8.75-4.68C326.17,55.36,329.58,58.21,329.58,62.81z M323.48,69.07V68.3
				c-1.02-0.45-2.2-0.69-3.3-0.69c-2.07,0-3.34,0.94-3.34,2.52c0,1.51,1.1,2.44,2.97,2.44C322.1,72.57,323.48,71.23,323.48,69.07z" />
                <path class="st0" d="M345.58,72.62v2.52c0,0.81-0.49,1.3-1.3,1.3h-2.85c-4.27,0-6.92-2.4-6.92-6.23l-0.04-9.28h-1.18
				c-0.81,0-1.26-0.45-1.26-1.26l-0.04-2.48c0-0.81,0.49-1.26,1.26-1.26h1.42l1.67-4.07c0.28-0.65,0.77-0.94,1.51-0.94h1.51
				c0.81,0,1.3,0.45,1.3,1.26v3.74h3.22c0.81,0,1.26,0.45,1.26,1.26v2.48c0,0.81-0.45,1.26-1.26,1.26h-3.18v7.69
				c0,1.67,1.02,2.69,2.61,2.69h0.98C345.09,71.31,345.58,71.8,345.58,72.62z" />
                <path class="st0" d="M348.18,49.78c0-1.95,1.55-3.5,3.5-3.5c1.91,0,3.46,1.55,3.46,3.5c0,1.91-1.55,3.5-3.46,3.5
				C349.73,53.28,348.18,51.7,348.18,49.78z M353.51,76.28h-3.66c-0.81,0-1.26-0.45-1.26-1.26V57.19c0-0.81,0.45-1.26,1.26-1.26
				h3.66c0.81,0,1.26,0.45,1.26,1.26v17.83C354.77,75.83,354.33,76.28,353.51,76.28z" />
                <path class="st0" d="M358.44,66.06c0-6.55,4.07-10.7,10.62-10.7c6.51,0,10.62,4.15,10.62,10.7c0,6.59-4.11,10.74-10.62,10.74
				C362.51,76.81,358.44,72.66,358.44,66.06z M373.17,66.06c0-3.5-1.59-5.74-4.11-5.74c-2.52,0-4.11,2.24-4.11,5.74
				c0,3.54,1.59,5.74,4.11,5.74C371.58,71.8,373.17,69.6,373.17,66.06z" />
                <path class="st0" d="M402.31,63.46v11.56c0,0.81-0.45,1.26-1.26,1.26h-3.66c-0.81,0-1.26-0.45-1.26-1.26V63.95
				c0-2.16-1.3-3.54-3.26-3.54c-2.04,0-3.38,1.55-3.42,3.91l0.04,10.7c0,0.81-0.45,1.26-1.26,1.26h-3.66
				c-0.81,0-1.26-0.45-1.26-1.26V57.19c0-0.81,0.45-1.26,1.26-1.26h2.93c0.77,0,1.26,0.45,1.26,1.26v1.87
				c1.14-2.36,3.34-3.7,6.27-3.7C399.46,55.36,402.31,58.53,402.31,63.46z" />
                <path class="st0" d="M246.6,113.06l4.03-0.69c0.77-0.12,1.22,0.2,1.59,0.9c0.94,2.16,2.81,3.3,5.49,3.3
				c2.52,0,4.03-1.02,4.03-2.85c0-5.66-15.38-3.09-15.38-13.06c0-5.7,4.68-8.47,10.5-8.47c5.74,0,9.28,2.81,10.58,6.72
				c0.24,0.81-0.16,1.34-1.02,1.51l-3.99,0.65c-0.73,0.12-1.22-0.2-1.55-0.89c-0.77-1.71-2.24-2.77-4.23-2.77
				c-2.36,0-3.74,1.3-3.74,2.85c0,5.09,15.42,2.81,15.42,12.82c0,5.37-4.11,8.75-10.54,8.75c-6.51,0-10.66-3.05-12.13-7.24
				C245.38,113.75,245.79,113.22,246.6,113.06z" />
                <path class="st0" d="M290.39,102.19v17.83c0,0.81-0.49,1.26-1.3,1.26h-2.81c-0.77,0-1.26-0.45-1.26-1.26v-1.71
				c-1.18,2.24-3.46,3.5-6.47,3.5c-4.27,0-6.96-2.6-6.96-7.98v-11.64c0-0.81,0.45-1.26,1.26-1.26h3.66c0.81,0,1.26,0.45,1.26,1.26
				v11.19c0,2.07,1.22,3.34,3.17,3.34s3.22-1.42,3.26-3.7l-0.04-10.82c0-0.81,0.49-1.26,1.26-1.26h3.66
				C289.91,100.93,290.39,101.37,290.39,102.19z" />
                <path class="st0" d="M294.75,94.78c0-1.95,1.55-3.5,3.5-3.5c1.91,0,3.46,1.55,3.46,3.5c0,1.91-1.55,3.5-3.46,3.5
				C296.29,98.28,294.75,96.69,294.75,94.78z M300.08,121.28h-3.66c-0.81,0-1.26-0.45-1.26-1.26v-17.83c0-0.81,0.45-1.26,1.26-1.26
				h3.66c0.81,0,1.26,0.45,1.26,1.26v17.83C301.34,120.83,300.89,121.28,300.08,121.28z" />
                <path class="st0" d="M315.01,100.36c4.72,0,8.1,2.36,9.32,6.23c0.29,0.81-0.16,1.34-0.98,1.51l-3.3,0.53
				c-0.77,0.12-1.22-0.2-1.55-0.94c-0.57-1.34-1.59-2.32-3.22-2.32c-2.32,0-3.78,2.16-3.78,5.7c0,3.5,1.42,5.7,3.87,5.7
				c1.59,0,2.73-0.85,3.3-2.65c0.24-0.77,0.73-1.1,1.46-1.02l3.34,0.49c0.81,0.16,1.22,0.69,1.02,1.55c-1.18,4.27-4.6,6.63-9.4,6.63
				c-6.23,0-10.09-4.11-10.09-10.7C305,104.47,308.87,100.36,315.01,100.36z" />
                <path class="st0" d="M327.34,94.78c0-1.95,1.55-3.5,3.5-3.5c1.91,0,3.46,1.55,3.46,3.5c0,1.91-1.55,3.5-3.46,3.5
				C328.89,98.28,327.34,96.69,327.34,94.78z M332.67,121.28h-3.66c-0.81,0-1.26-0.45-1.26-1.26v-17.83c0-0.81,0.45-1.26,1.26-1.26
				h3.66c0.81,0,1.26,0.45,1.26,1.26v17.83C333.93,120.83,333.49,121.28,332.67,121.28z" />
                <path class="st0" d="M357.91,92.83v27.19c0,0.81-0.45,1.26-1.26,1.26h-2.93c-0.81,0-1.26-0.45-1.26-1.26v-2.16
				c-1.42,2.48-3.7,3.91-6.63,3.91c-5.05,0-8.22-4.11-8.22-10.66c0-6.59,3.17-10.75,8.26-10.75c2.44,0,4.44,0.98,5.86,2.77v-10.3
				c0-0.81,0.45-1.26,1.26-1.26h3.66C357.46,91.57,357.91,92.01,357.91,92.83z M351.72,111.06c0-3.5-1.46-5.74-3.78-5.74
				c-2.36,0-3.83,2.24-3.83,5.74c0,3.5,1.47,5.74,3.83,5.74C350.25,116.8,351.72,114.56,351.72,111.06z" />
                <path class="st0" d="M361.57,110.94c0-6.39,3.7-10.58,10.3-10.58c6.06,0,9.73,3.54,10.09,10.83c0.04,0.85-0.41,1.3-1.22,1.3
				h-12.58c0.37,3.01,1.91,4.84,4.56,4.84c1.42,0,2.56-0.57,3.21-1.67c0.45-0.61,0.85-0.89,1.59-0.77l2.85,0.49
				c0.85,0.12,1.26,0.69,0.89,1.51c-1.38,3.13-4.64,4.93-8.99,4.93C365.72,121.81,361.57,117.74,361.57,110.94z M375.4,109.03
				c-0.33-2.73-1.46-4.23-3.54-4.23c-2.12,0-3.38,1.46-3.7,4.23H375.4z" />
                <path class="st0" d="M218.28,145.15c0,5.74-4.07,9.4-10.54,9.4h-4.64v8.51c0,0.81-0.49,1.26-1.26,1.26h-3.99
				c-0.81,0-1.26-0.45-1.26-1.26v-25.97c0-0.81,0.45-1.26,1.26-1.26h9.89C214.21,135.83,218.28,139.41,218.28,145.15z
				 M211.49,145.15c0-2.48-1.75-4.03-4.44-4.03h-3.95v8.14h3.95C209.74,149.26,211.49,147.67,211.49,145.15z" />
                <path class="st0"
                    d="M234.44,144.46v3.66c0,0.65-0.37,1.02-0.94,1.02h-0.24c-3.46,0-5.53,2.11-5.66,5.66l0.04,8.26
				c0,0.81-0.45,1.26-1.26,1.26h-3.66c-0.81,0-1.26-0.45-1.26-1.26v-17.83c0-0.81,0.45-1.26,1.26-1.26h2.69
				c0.77,0,1.26,0.45,1.26,1.26l-0.04,3.38c1.06-3.13,3.38-5.17,6.43-5.17h0.33C234.07,143.44,234.44,143.81,234.44,144.46z" />
                <path class="st0" d="M235.29,153.98c0-6.39,3.7-10.58,10.3-10.58c6.06,0,9.73,3.54,10.09,10.83c0.04,0.85-0.41,1.3-1.22,1.3
				h-12.58c0.37,3.01,1.91,4.84,4.56,4.84c1.42,0,2.56-0.57,3.22-1.67c0.45-0.61,0.85-0.89,1.59-0.77l2.85,0.49
				c0.85,0.12,1.26,0.69,0.9,1.51c-1.38,3.13-4.64,4.93-8.99,4.93C239.44,164.85,235.29,160.78,235.29,153.98z M249.13,152.07
				c-0.33-2.73-1.46-4.23-3.54-4.23c-2.12,0-3.38,1.46-3.7,4.23H249.13z" />
                <path class="st0" d="M277.54,145.43l-5.74,17.83c-0.24,0.69-0.73,1.06-1.47,1.06h-6.23c-0.73,0-1.22-0.36-1.42-1.06l-5.74-17.87
				c-0.24-0.9,0.12-1.42,1.06-1.42h4.07c0.77,0,1.22,0.33,1.42,1.06l3.83,13.84l3.82-13.84c0.2-0.73,0.65-1.06,1.42-1.06h3.91
				C277.37,143.97,277.78,144.5,277.54,145.43z" />
                <path class="st0" d="M279.12,153.98c0-6.39,3.7-10.58,10.3-10.58c6.06,0,9.73,3.54,10.09,10.83c0.04,0.85-0.41,1.3-1.22,1.3
				h-12.58c0.37,3.01,1.91,4.84,4.56,4.84c1.42,0,2.56-0.57,3.22-1.67c0.45-0.61,0.85-0.89,1.59-0.77l2.85,0.49
				c0.85,0.12,1.26,0.69,0.9,1.51c-1.38,3.13-4.64,4.93-8.99,4.93C283.27,164.85,279.12,160.78,279.12,153.98z M292.96,152.07
				c-0.33-2.73-1.46-4.23-3.54-4.23c-2.12,0-3.38,1.46-3.7,4.23H292.96z" />
                <path class="st0" d="M321.85,151.5v11.56c0,0.81-0.45,1.26-1.26,1.26h-3.66c-0.81,0-1.26-0.45-1.26-1.26v-11.07
				c0-2.16-1.3-3.54-3.26-3.54c-2.04,0-3.38,1.55-3.42,3.91l0.04,10.7c0,0.81-0.45,1.26-1.26,1.26h-3.66
				c-0.81,0-1.26-0.45-1.26-1.26v-17.83c0-0.81,0.45-1.26,1.26-1.26h2.93c0.77,0,1.26,0.45,1.26,1.26v1.87
				c1.14-2.36,3.34-3.7,6.27-3.7C319.01,143.4,321.85,146.57,321.85,151.5z" />
                <path class="st0" d="M337.93,160.66v2.52c0,0.81-0.49,1.3-1.3,1.3h-2.85c-4.27,0-6.92-2.4-6.92-6.23l-0.04-9.28h-1.18
				c-0.81,0-1.26-0.45-1.26-1.26l-0.04-2.48c0-0.81,0.49-1.26,1.26-1.26h1.42l1.67-4.07c0.29-0.65,0.77-0.94,1.51-0.94h1.51
				c0.81,0,1.3,0.45,1.3,1.26v3.74h3.22c0.81,0,1.26,0.45,1.26,1.26v2.48c0,0.81-0.45,1.26-1.26,1.26h-3.18v7.69
				c0,1.67,1.02,2.69,2.6,2.69h0.98C337.44,159.35,337.93,159.84,337.93,160.66z" />
                <path class="st0" d="M340.53,137.82c0-1.95,1.55-3.5,3.5-3.5c1.91,0,3.46,1.55,3.46,3.5c0,1.91-1.55,3.5-3.46,3.5
				C342.08,141.32,340.53,139.74,340.53,137.82z M345.86,164.32h-3.66c-0.81,0-1.26-0.45-1.26-1.26v-17.83
				c0-0.81,0.45-1.26,1.26-1.26h3.66c0.81,0,1.26,0.45,1.26,1.26v17.83C347.13,163.87,346.68,164.32,345.86,164.32z" />
                <path class="st0" d="M350.79,154.1c0-6.55,4.07-10.7,10.62-10.7c6.51,0,10.62,4.15,10.62,10.7c0,6.59-4.11,10.75-10.62,10.75
				C354.86,164.85,350.79,160.7,350.79,154.1z M365.52,154.1c0-3.5-1.59-5.74-4.11-5.74c-2.52,0-4.11,2.24-4.11,5.74
				c0,3.54,1.59,5.74,4.11,5.74C363.93,159.84,365.52,157.64,365.52,154.1z" />
                <path class="st0" d="M394.66,151.5v11.56c0,0.81-0.45,1.26-1.26,1.26h-3.66c-0.81,0-1.26-0.45-1.26-1.26v-11.07
				c0-2.16-1.3-3.54-3.26-3.54c-2.04,0-3.38,1.55-3.42,3.91l0.04,10.7c0,0.81-0.45,1.26-1.26,1.26h-3.66
				c-0.81,0-1.26-0.45-1.26-1.26v-17.83c0-0.81,0.45-1.26,1.26-1.26h2.93c0.77,0,1.26,0.45,1.26,1.26v1.87
				c1.14-2.36,3.34-3.7,6.27-3.7C391.81,143.4,394.66,146.57,394.66,151.5z" />
            </g>
        </g>
        <g>
            <path class="st0" d="M208.47,95.34h-0.4c-3.92,0-6.83,2.2-7.57,6.52l-0.09,0.49h-1.56c-0.53,0-0.99,0.38-1.08,0.91l-0.2,1.14
			c-0.12,0.68,0.4,1.3,1.08,1.3h1.17l-1.2,7.48c-0.29,1.51-1.11,1.74-2.16,1.74h-0.79c-0.53,0-0.83,0.23-0.93,0.75l-0.56,2.26
			c-0.12,0.68,0.91,1.37,2.34,1.37c2.93,0,5.68-1.38,6.52-5.45l1.33-8.16h1.88c0.53,0,0.99-0.38,1.08-0.91l0.2-1.14
			c0.12-0.68-0.4-1.3-1.09-1.3h-1.48l0.09-0.49c0.29-1.51,1.2-2.2,2.26-2.2h0.79c0.53,0,0.99-0.38,1.08-0.91l0.38-2.11
			C209.67,95.96,209.16,95.34,208.47,95.34z" />
            <path class="st0" d="M217.11,102c-3.74,0-7.52,2.74-8.29,6.97c-0.74,4.2,2.11,6.95,5.86,6.95c3.8,0,7.6-2.74,8.35-6.95
			C223.8,104.74,220.91,102,217.11,102z M218.65,108.97c-0.29,1.51-1.74,2.77-3.26,2.77c-1.51,0-2.57-1.26-2.29-2.77
			s1.77-2.77,3.29-2.77C217.91,106.2,218.94,107.46,218.65,108.97z" />
            <path class="st0" d="M235.46,102c-1.3,0-3.72,0.08-4.86,2.62l0.36-0.98c0.12-0.68-0.4-1.3-1.08-1.3h-2.07
			c-0.54,0-0.99,0.38-1.09,0.91l-1.96,11.11c-0.12,0.67,0.4,1.29,1.09,1.29h2.3c0.54,0,1-0.39,1.09-0.92l0.59-3.45
			c0.71-4,1.94-4.97,3.66-4.97c0.27,0,0.67,0,1.18,0.1c0.51,0.1,1.01-0.19,1.22-0.66l0.95-2.2C237.13,102.85,236.76,102,235.46,102z
			" />
        </g>
        <path class="st0"
            d="M155.71,53.11C138.64,11.9,91.23-7.74,50.02,9.33C8.81,26.4-10.82,73.81,6.25,115.02
		c8.27,19.96,23.82,35.51,43.78,43.78c9.98,4.13,20.47,6.2,30.96,6.2c10.49,0,20.97-2.07,30.95-6.2
		c19.96-8.27,35.51-23.81,43.78-43.78C163.98,95.06,163.98,73.07,155.71,53.11z M44.53,99.16c-4.03-9.73-4.03-20.46,0-30.19
		c4.03-9.73,11.61-17.32,21.35-21.35c9.74-4.03,20.46-4.03,30.19,0c9.73,4.03,17.32,11.61,21.35,21.35
		c8.32,20.1-1.25,43.22-21.35,51.54C75.98,128.83,52.86,119.26,44.53,99.16z M109.28,15.73L109.28,15.73L98.73,41.22l0,0
		c-11.44-4.74-24.05-4.74-35.49,0h0L52.67,15.73C70.93,8.17,91.03,8.17,109.28,15.73z M12.68,55.77l25.45,10.54l0,0
		c-4.74,11.44-4.74,24.05,0,35.49l0,0l-25.49,10.56l0,0C4.84,93.53,5.43,73.27,12.68,55.77z M52.67,152.4L52.67,152.4l10.58-25.53
		c5.6,2.32,11.64,3.58,17.79,3.58c5.9,0,11.9-1.13,17.69-3.53l10.56,25.49C91.03,159.96,70.93,159.96,52.67,152.4z M149.31,112.37
		L149.31,112.37l-25.49-10.56c4.74-11.44,4.74-24.05,0-35.49l0,0l25.49-10.56C156.87,74.01,156.87,94.12,149.31,112.37z" />
    </g>
</svg>
