<?xml version="1.0" encoding="utf-8"?>
<!-- Generator: Adobe Illustrator 26.4.1, SVG Export Plug-In . SVG Version: 6.00 Build 0)  -->
<svg version="1.1" id="Layer_1" xmlns="http://www.w3.org/2000/svg" xmlns:xlink="http://www.w3.org/1999/xlink" x="0px" y="0px"
	 viewBox="0 0 1080 1080" style="enable-background:new 0 0 1080 1080;" xml:space="preserve">
<style type="text/css">
	.phone_st0{fill:#B1E4FF;}
	.phone_st1{fill:#00449E;}
</style>
<g>
	<g>
		<g>
			<path class="phone_st0" d="M401.89,1013.8c-13.69,0-27.47-3.06-39.87-8.85c-22.8-10.65-40.09-29.54-48.68-53.19L82.24,315.46
				c-8.59-23.65-7.46-49.23,3.19-72.03c10.65-22.8,29.54-40.09,53.19-48.68L438.04,86c10.34-3.76,21.16-5.66,32.16-5.66
				c13.69,0,27.47,3.06,39.87,8.85c22.8,10.65,40.09,29.54,48.68,53.19l231.11,636.29c8.59,23.65,7.46,49.23-3.19,72.03
				c-10.65,22.8-29.54,40.08-53.19,48.67l-299.42,108.75C423.71,1011.9,412.89,1013.8,401.89,1013.8z M470.21,94.71
				c-9.32,0-18.5,1.61-27.26,4.8L143.53,208.26c-20.05,7.28-36.06,21.94-45.09,41.27c-9.03,19.33-9.99,41.02-2.71,61.07
				l231.11,636.29c7.28,20.05,21.94,36.07,41.27,45.09c10.51,4.91,22.2,7.51,33.8,7.51c9.32,0,18.5-1.61,27.26-4.8l299.42-108.75
				c20.05-7.28,36.06-21.94,45.09-41.27c8.65-18.52,9.9-39.21,3.58-58.55l0.04-0.01l-0.91-2.51L545.28,147.31
				c-7.28-20.05-21.94-36.06-41.27-45.09C493.5,97.3,481.81,94.71,470.21,94.71z"/>
			<path class="phone_st1" d="M470.2,82.84c13.32,0,26.75,2.98,38.82,8.62c22.19,10.37,39.02,28.76,47.38,51.78l231.11,636.29
				c8.36,23.02,7.26,47.93-3.11,70.12c-10.37,22.19-28.76,39.02-51.78,47.38L433.2,1005.79c-10.06,3.66-20.6,5.51-31.31,5.51
				c-13.32,0-26.74-2.98-38.82-8.62c-22.19-10.37-39.02-28.76-47.38-51.78L84.59,314.61c-8.36-23.02-7.26-47.93,3.11-70.12
				c10.37-22.19,28.76-39.02,51.78-47.38L438.9,88.35C448.96,84.7,459.49,82.84,470.2,82.84 M401.9,1001.98
				c9.62,0,19.08-1.66,28.12-4.95l299.42-108.75c20.68-7.51,37.19-22.62,46.51-42.56c8.59-18.4,10.1-38.87,4.38-58.17l0.15-0.05
				l-1.73-4.75L547.63,146.45c-7.51-20.68-22.62-37.19-42.56-46.51c-10.84-5.06-22.9-7.74-34.86-7.74c-9.62,0-19.08,1.66-28.12,4.95
				L142.67,205.91c-20.68,7.51-37.19,22.62-46.51,42.56c-9.31,19.93-10.3,42.3-2.79,62.98l231.11,636.29
				c7.51,20.68,22.62,37.19,42.56,46.51C377.88,999.3,389.94,1001.98,401.9,1001.98 M470.2,77.84c-11.15,0-22.33,1.93-33.01,5.81
				L137.77,192.41c-24.11,8.76-43.75,26.73-54.61,49.97c-10.85,23.24-12.03,49.84-3.28,73.94l231.11,636.29
				c8.76,24.11,26.73,43.75,49.97,54.61c12.94,6.04,26.92,9.09,40.93,9.09c11.15,0,22.33-1.93,33.01-5.81l299.42-108.75
				c24.11-8.76,43.75-26.73,54.61-49.97c10.85-23.24,12.03-49.84,3.28-73.94L561.1,141.54c-8.76-24.11-26.73-43.75-49.97-54.61
				C498.19,80.89,484.21,77.84,470.2,77.84L470.2,77.84z M401.9,996.98c-11.21,0-22.39-2.44-32.75-7.27
				c-18.59-8.68-32.97-24.4-39.97-43.68L98.08,309.73c-7-19.29-6.06-40.56,2.62-59.15c8.68-18.59,24.4-32.97,43.68-39.97
				L443.8,101.85c8.55-3.1,17.49-4.65,26.41-4.65c11.21,0,22.39,2.44,32.75,7.27c18.59,8.68,32.97,24.4,39.97,43.68l231.11,636.29
				l0,0c7,19.29,6.06,40.56-2.62,59.15c-8.68,18.59-24.4,32.97-43.68,39.97L428.31,992.33C419.76,995.43,410.82,996.98,401.9,996.98
				L401.9,996.98z"/>
		</g>
		<g>
			<path class="phone_st0" d="M345.45,876.47c-1.04,0-2.09-0.23-3.03-0.67c-1.73-0.81-3.05-2.25-3.7-4.05L133.63,307.09
				c-1.35-3.72,0.57-7.84,4.29-9.19l366.86-133.25c0.79-0.29,1.61-0.43,2.45-0.43c1.04,0,2.09,0.23,3.04,0.67
				c1.73,0.81,3.05,2.25,3.7,4.05l205.09,564.66c0.65,1.8,0.57,3.75-0.24,5.49c-0.8,1.71-2.27,3.06-4.05,3.7L347.9,876.04
				C347.12,876.33,346.29,876.47,345.45,876.47z M149.55,308.94l200.19,551.18l353.39-128.36L502.94,180.58L149.55,308.94z"/>
			<path class="phone_st1" d="M507.23,166.72c0.68,0,1.36,0.15,1.98,0.44c1.13,0.53,1.99,1.46,2.41,2.64l205.09,564.66
				c0.43,1.17,0.37,2.44-0.16,3.57c-0.52,1.11-1.48,1.99-2.64,2.41L347.05,873.69c-0.51,0.19-1.05,0.28-1.6,0.28
				c-0.68,0-1.36-0.15-1.97-0.44c-1.13-0.53-1.99-1.47-2.42-2.64L135.98,306.23c-0.43-1.17-0.37-2.44,0.16-3.57
				c0.53-1.13,1.46-1.99,2.64-2.41L505.63,167C506.15,166.81,506.68,166.72,507.23,166.72L507.23,166.72 M348.25,863.32l4.7-1.71
				l348.69-126.65l4.7-1.71l-1.71-4.7L506.14,182.08l-1.71-4.7l-4.7,1.71L151.05,305.73l-4.7,1.71l1.71,4.7l198.49,546.48
				L348.25,863.32 M507.23,161.72c-1.12,0-2.23,0.19-3.3,0.58v0L137.06,295.55c-5.02,1.82-7.61,7.37-5.79,12.39L336.37,872.6
				c0.88,2.41,2.67,4.37,5,5.46c1.29,0.6,2.69,0.91,4.09,0.91c1.12,0,2.24-0.19,3.31-0.58l366.86-133.25c2.41-0.88,4.38-2.67,5.46-5
				c1.08-2.33,1.2-4.98,0.33-7.39L516.32,168.09c-0.88-2.41-2.67-4.38-5-5.46C510.03,162.02,508.63,161.72,507.23,161.72
				L507.23,161.72z M351.24,856.91L152.76,310.43l348.69-126.65l198.48,546.48L351.24,856.91L351.24,856.91z"/>
		</g>
		<g>
			<path class="phone_st0" d="M554.99,927.27c-7.64,0-15.35-1.71-22.27-4.93c-12.75-5.94-22.43-16.49-27.25-29.7
				c-4.82-13.21-4.22-27.51,1.7-40.27c5.92-12.76,16.45-22.46,29.65-27.3c5.84-2.14,11.95-3.23,18.17-3.23
				c7.69,0,15.13,1.63,22.1,4.86c12.77,5.9,22.48,16.41,27.35,29.6c4.82,13.07,4.23,27.81-1.63,40.45
				c-5.86,12.64-16.73,22.61-29.83,27.37C567.2,926.21,561.15,927.27,554.99,927.27z M539.62,839.5
				c-8.49,3.73-15.47,10.54-19.39,18.97c-4.27,9.18-4.72,19.9-1.22,29.41c3.5,9.51,10.77,17.39,19.97,21.62
				c5.07,2.34,10.47,3.52,16.06,3.52c4.58,0,9.07-0.81,13.36-2.4c9.64-3.58,17.29-10.7,21.55-20.05c4.2-9.22,4.57-19.94,1.01-29.42
				c-3.56-9.55-10.61-17.16-19.86-21.44c-5.08-2.35-10.5-3.54-16.1-3.54c-4.48,0-8.89,0.78-13.1,2.31l-2.33,0.85L539.62,839.5z"/>
			<path class="phone_st1" d="M554.99,824.33c7.32,0,14.41,1.56,21.06,4.63c12.16,5.62,21.42,15.63,26.06,28.2
				c4.6,12.45,4.03,26.49-1.56,38.53c-5.59,12.04-15.94,21.54-28.41,26.07c-5.51,2-11.28,3.02-17.14,3.02
				c-7.28,0-14.62-1.63-21.22-4.7c-12.14-5.66-21.36-15.71-25.96-28.29c-4.6-12.59-4.02-26.21,1.62-38.36
				c5.64-12.15,15.67-21.39,28.24-26.01C543.24,825.37,549.06,824.33,554.99,824.33 M545.83,834.72l-0.07-0.19l-2.04,0.74
				c-0.9,0.26-1.79,0.55-2.68,0.87l-4.66,1.69l0.14,0.38c-8.08,4.13-14.7,10.93-18.55,19.21c-4.55,9.78-5.02,21.2-1.3,31.33
				c3.72,10.13,11.48,18.52,21.27,23.03c5.4,2.49,11.16,3.75,17.1,3.75c4.87,0,9.66-0.86,14.23-2.56
				c10.11-3.76,18.48-11.54,22.96-21.35c4.48-9.82,4.87-21.24,1.08-31.32c-3.79-10.18-11.3-18.29-21.16-22.84
				c-5.34-2.47-11.27-3.77-17.15-3.77C551.89,833.68,548.82,834.03,545.83,834.72 M554.99,819.33c-6.43,0-12.88,1.12-19.03,3.38
				c-13.73,5.04-24.9,15.33-31.06,28.6c-6.16,13.27-6.8,28.44-1.78,42.18c5.02,13.74,15.29,24.93,28.54,31.11
				c7.38,3.44,15.34,5.17,23.33,5.17c6.37,0,12.75-1.1,18.85-3.32l0,0c13.81-5.02,25.06-15.33,31.24-28.66
				c6.18-13.33,6.8-28.58,1.71-42.36c-5.07-13.72-15.37-24.87-28.65-31.01C570.81,821.04,562.91,819.33,554.99,819.33L554.99,819.33
				z M542.78,840.93l-0.03-0.09c3.96-1.44,8.11-2.16,12.25-2.16c5.15,0,10.29,1.11,15.05,3.31c8.59,3.97,15.27,11.18,18.57,20.05
				c3.35,8.93,3.01,18.82-0.95,27.5c-3.96,8.68-11.21,15.42-20.15,18.74c-4.04,1.5-8.27,2.24-12.49,2.24
				c-5.13,0-10.26-1.1-15.01-3.29c-8.66-3.99-15.38-11.26-18.67-20.21c-3.29-8.96-2.88-18.85,1.15-27.5
				C526.51,850.87,533.81,844.18,542.78,840.93L542.78,840.93L542.78,840.93z"/>
		</g>
		<g>
			<path class="phone_st0" d="M242.2,434c-2.01,0-3.93-0.85-5.29-2.33c-1.98-2.16-2.45-5.26-1.2-7.91l61.38-131.08
				c1.28-2.2,3.65-3.57,6.21-3.57c1.05,0,2.07,0.23,3.03,0.67c3.35,1.56,4.96,5.47,3.71,8.94l-61.25,131.13
				c-0.8,1.7-2.29,3.05-4.07,3.68l-0.29,0.1C243.7,433.88,242.95,434,242.2,434C242.2,434,242.2,434,242.2,434z"/>
			<path class="phone_st1" d="M303.3,291.62c0.68,0,1.35,0.15,1.97,0.44c2.15,1,3.2,3.5,2.45,5.73l-61.19,131
				c-0.53,1.13-1.48,1.99-2.65,2.4l-0.26,0.09c-0.46,0.15-0.94,0.22-1.42,0.22c-1.31,0-2.56-0.55-3.44-1.51
				c-1.29-1.41-1.59-3.43-0.77-5.17l61.32-130.96C300.15,292.47,301.67,291.62,303.3,291.62 M303.3,286.62
				c-3.39,0-6.66,1.79-8.43,4.91L233.45,422.7c-1.68,3.55-1.04,7.77,1.62,10.67c1.87,2.04,4.47,3.14,7.13,3.14
				c1.12,0,2.26-0.2,3.35-0.6l0,0c2.42-0.86,4.4-2.66,5.5-4.98l61.3-131.22c1.78-4.73-0.38-10.03-4.96-12.17
				C306.06,286.91,304.67,286.62,303.3,286.62L303.3,286.62z"/>
		</g>
		<g>
			<path class="phone_st0" d="M277.15,530.26c-2,0-3.93-0.85-5.29-2.33c-1.98-2.16-2.45-5.26-1.2-7.9l122.69-262.31
				c1.28-2.2,3.65-3.57,6.21-3.57c1.05,0,2.07,0.23,3.03,0.67c3.35,1.56,4.96,5.48,3.71,8.94L283.74,526.12
				c-0.81,1.73-2.26,3.04-4.07,3.68l-0.3,0.11C278.65,530.14,277.91,530.26,277.15,530.26
				C277.15,530.26,277.15,530.26,277.15,530.26z"/>
			<path class="phone_st1" d="M399.56,256.65c0.68,0,1.34,0.15,1.97,0.44c2.15,1,3.2,3.5,2.45,5.73L281.48,525.04
				c-0.53,1.13-1.48,1.98-2.65,2.4l-0.26,0.09c-0.46,0.15-0.94,0.22-1.42,0.22c-1.31,0-2.56-0.55-3.44-1.52
				c-1.29-1.4-1.59-3.43-0.77-5.17l122.63-262.19C396.41,257.5,397.93,256.65,399.56,256.65 M399.56,251.65
				c-3.39,0-6.66,1.79-8.43,4.91L268.41,518.96c-1.68,3.55-1.04,7.77,1.62,10.66c1.87,2.04,4.47,3.14,7.13,3.14
				c1.12,0,2.26-0.2,3.35-0.6l0,0c2.42-0.86,4.4-2.65,5.5-4.98l122.6-262.45c1.78-4.73-0.38-10.03-4.96-12.17
				C402.32,251.94,400.93,251.65,399.56,251.65L399.56,251.65z"/>
		</g>
		<g>
			<path class="phone_st0" d="M280.02,209.65c-3,0-5.71-1.9-6.74-4.72c-1.35-3.72,0.58-7.84,4.29-9.19l70.44-25.59
				c0.79-0.29,1.62-0.43,2.45-0.43c3.01,0,5.72,1.9,6.74,4.72c0.65,1.8,0.57,3.75-0.24,5.48c-0.81,1.74-2.25,3.05-4.05,3.71
				l-70.44,25.59C281.67,209.5,280.85,209.65,280.02,209.65C280.02,209.65,280.02,209.65,280.02,209.65z"/>
			<path class="phone_st1" d="M350.46,172.22c1.96,0,3.72,1.24,4.39,3.08c0.43,1.17,0.37,2.44-0.16,3.57c-0.53,1.13-1.47,1.99-2.64,2.41
				l-70.44,25.59c-0.52,0.19-1.05,0.28-1.59,0.28c-1.96,0-3.72-1.24-4.39-3.08c-0.88-2.42,0.37-5.1,2.8-5.98l70.44-25.59
				C349.39,172.31,349.92,172.22,350.46,172.22 M350.46,167.22c-1.1,0-2.21,0.19-3.3,0.58l-70.44,25.59
				c-5.02,1.82-7.61,7.37-5.79,12.39c1.43,3.93,5.14,6.37,9.09,6.37c1.1,0,2.21-0.19,3.3-0.58l70.44-25.59
				c5.02-1.82,7.61-7.37,5.79-12.39C358.13,169.66,354.42,167.22,350.46,167.22L350.46,167.22z"/>
		</g>
	</g>
	<g>
		<path class="phone_st0" d="M971.11,627.56c-1.61,0-3.22-0.38-4.66-1.09c-2.34-1.15-4.16-3.12-5.13-5.54c-0.97-2.42-1.01-5.1-0.12-7.54
			c17.47-48.08,24.28-100.43,19.71-151.37c-4.58-50.95-20.61-101.24-46.36-145.43l-0.39-0.67c-1.15-2.28-1.45-4.94-0.82-7.41
			c0.7-2.71,2.48-5.08,4.9-6.49c1.61-0.94,3.45-1.44,5.32-1.44c0.92,0,1.84,0.12,2.74,0.36c2.71,0.73,5.05,2.54,6.43,4.97
			c27.33,46.88,44.34,100.2,49.2,154.21c4.85,54.02-2.37,109.51-20.9,160.49c-1.02,2.81-3.21,5.07-5.98,6.18
			C973.79,627.31,972.47,627.56,971.11,627.56z"/>
		<path class="phone_st1" d="M943.56,303.08c0.7,0,1.41,0.09,2.09,0.28c2.06,0.55,3.85,1.93,4.91,3.79l0.01,0.02l0.01,0.02
			c13.6,23.32,24.65,48.18,32.85,73.89c8.2,25.71,13.59,52.38,16,79.26c2.42,26.88,1.87,54.08-1.61,80.85
			c-3.48,26.76-9.93,53.2-19.14,78.56c-0.78,2.15-2.45,3.87-4.57,4.72c-0.96,0.39-1.97,0.58-3,0.58c-1.23,0-2.46-0.29-3.56-0.83
			c-1.78-0.88-3.17-2.38-3.91-4.22c-0.74-1.85-0.77-3.89-0.09-5.77c8.81-24.26,14.97-49.54,18.3-75.13
			c3.33-25.6,3.85-51.61,1.54-77.32c-2.31-25.71-7.45-51.21-15.29-75.8c-7.84-24.59-18.4-48.37-31.4-70.67l-0.31-0.53
			c-0.89-1.74-1.12-3.78-0.63-5.67c0.53-2.07,1.89-3.87,3.74-4.95C940.73,303.46,942.14,303.08,943.56,303.08 M943.56,298.08
			c-2.29,0-4.57,0.6-6.58,1.78c-3.01,1.76-5.19,4.65-6.06,8.03c-0.87,3.38-0.35,6.96,1.44,9.95l0.02,0
			c25.75,44.18,41.46,93.47,46.03,144.39c4.58,50.93-2.1,102.24-19.56,150.29c-1.1,3.02-1.05,6.35,0.15,9.33
			c1.2,2.98,3.46,5.43,6.34,6.85c1.81,0.89,3.79,1.35,5.77,1.35c1.65,0,3.3-0.31,4.87-0.94c3.44-1.38,6.13-4.17,7.4-7.65
			c18.77-51.66,25.96-106.82,21.04-161.57c-4.92-54.75-21.83-107.74-49.51-155.23c-1.72-3.03-4.59-5.24-7.96-6.15
			C945.83,298.23,944.69,298.08,943.56,298.08L943.56,298.08z"/>
	</g>
	<g>
		<path class="phone_st0" d="M919.46,285.6c-3.29,0-6.44-1.57-8.43-4.2c-25.41-33.67-56.39-62.16-92.08-84.67l-0.11-0.07l-0.05-0.02
			c-2.37-1.46-4.08-3.85-4.72-6.56c-0.64-2.74-0.15-5.68,1.36-8.06c1.51-2.38,3.95-4.08,6.7-4.67c0.73-0.16,1.47-0.24,2.22-0.24
			c2.07,0,4.09,0.6,5.82,1.75c37.89,23.89,70.76,54.1,97.72,89.82c2.26,3,2.76,7.02,1.29,10.48c-1.47,3.46-4.7,5.9-8.43,6.36
			C920.32,285.58,919.89,285.6,919.46,285.6C919.46,285.6,919.46,285.6,919.46,285.6z"/>
		<path class="phone_st1" d="M824.35,179.62c1.58,0,3.12,0.46,4.44,1.33l0.04,0.03l0.04,0.03c37.59,23.7,70.23,53.7,97.01,89.18
			c1.73,2.29,2.11,5.36,0.99,8c-1.12,2.64-3.59,4.5-6.44,4.85c-0.33,0.04-0.66,0.06-0.99,0.06c-2.51,0-4.92-1.2-6.43-3.21
			c-25.6-33.92-56.8-62.61-92.74-85.27l-0.23-0.14l-0.02-0.01c-1.76-1.12-3.04-2.92-3.52-4.95c-0.49-2.09-0.11-4.34,1.04-6.15
			c1.15-1.81,3.01-3.11,5.11-3.56C823.21,179.68,823.78,179.62,824.35,179.62 M824.35,174.62c-0.91,0-1.83,0.1-2.74,0.29
			c-3.43,0.74-6.42,2.82-8.29,5.78c-1.88,2.96-2.48,6.56-1.68,9.97c0.8,3.41,2.94,6.36,5.94,8.18l0.03,0.02
			c35.3,22.26,66.28,50.74,91.42,84.06c2.49,3.3,6.36,5.2,10.42,5.2c0.53,0,1.06-0.03,1.6-0.1c4.63-0.57,8.61-3.57,10.43-7.86
			c1.82-4.29,1.21-9.24-1.6-12.96c-27.05-35.83-60.36-66.46-98.34-90.4C829.39,175.36,826.89,174.62,824.35,174.62L824.35,174.62z"
			/>
	</g>
	<g>
		<path class="phone_st0" d="M873.16,592.05c-1.24,0-2.45-0.21-3.61-0.64c-0.36-0.13-0.71-0.28-1.06-0.45c-2.33-1.15-4.15-3.12-5.12-5.54
			c-0.97-2.42-1.01-5.1-0.12-7.54c19.23-52.8,19.83-111.15,1.68-164.32c-18.04-52.85-53.86-98.43-100.92-128.46l-0.01-0.04
			l-0.92-0.59c-2.42-1.45-4.19-3.86-4.85-6.61c-0.66-2.75-0.17-5.7,1.34-8.09c1.51-2.39,3.96-4.1,6.73-4.69
			c0.72-0.15,1.46-0.23,2.19-0.23c2.09,0,4.12,0.61,5.86,1.77c51.57,32.68,90.83,82.44,110.59,140.15
			c19.92,57.72,19.26,121.05-1.86,178.33c-0.95,2.62-2.94,4.78-5.46,5.96C876.23,591.71,874.69,592.05,873.16,592.05
			C873.16,592.05,873.16,592.05,873.16,592.05z"/>
		<path class="phone_st1" d="M768.49,267.36c1.6,0,3.14,0.47,4.47,1.35l0.05,0.03l0.05,0.03c25.5,16.16,47.91,36.37,66.6,60.07
			c18.69,23.7,33.13,50.19,42.91,78.76c19.74,57.17,19.08,119.9-1.85,176.66c-0.73,1.99-2.24,3.64-4.17,4.54
			c-1.06,0.49-2.23,0.75-3.4,0.75c-0.94,0-1.87-0.16-2.79-0.5c-0.25-0.09-0.51-0.2-0.77-0.32c-1.78-0.88-3.17-2.38-3.91-4.23
			c-0.74-1.84-0.77-3.89-0.09-5.76c19.42-53.33,20.03-112.27,1.7-165.98c-18.11-53.07-53.97-98.89-101.1-129.22l-0.03-0.13
			l-1.79-1.07c-1.85-1.11-3.2-2.95-3.7-5.05c-0.5-2.1-0.13-4.35,1.02-6.17c1.15-1.82,3.03-3.13,5.13-3.58
			C767.37,267.42,767.93,267.36,768.49,267.36 M768.49,262.36c-0.91,0-1.82,0.09-2.72,0.29c-3.44,0.74-6.44,2.82-8.32,5.8
			c-1.88,2.97-2.48,6.58-1.66,10c0.82,3.42,2.98,6.37,5.99,8.17l0.01,0.05c47.17,29.82,82.73,74.88,100.75,127.7
			c18.03,52.82,17.44,110.22-1.66,162.66c-1.1,3.02-1.05,6.35,0.15,9.33c1.2,2.99,3.46,5.43,6.34,6.85c0.42,0.21,0.86,0.39,1.3,0.55
			c1.45,0.53,2.96,0.79,4.47,0.79c1.89,0,3.77-0.41,5.51-1.22c3.14-1.46,5.57-4.11,6.75-7.36c21.38-57.99,22.05-121.58,1.88-180
			c-20.02-58.46-59.37-108.34-111.57-141.42C773.58,263.11,771.05,262.36,768.49,262.36L768.49,262.36z"/>
	</g>
	<g>
		<path class="phone_st0" d="M771.69,556c-0.28-0.09-0.59-0.24-0.95-0.42c-2.33-1.15-4.16-3.12-5.12-5.54c-0.97-2.42-1.01-5.1-0.12-7.55
			c11.1-30.61,11.42-64.42,0.9-95.22c-10.52-30.8-31.45-57.36-58.94-74.78l-0.14-0.09c-3.11-2.02-4.95-5.56-4.8-9.27
			c0.15-3.76,2.31-7.18,5.63-8.93c1.51-0.8,3.21-1.22,4.92-1.22c2,0,3.94,0.56,5.63,1.63c31.56,19.98,55.6,50.46,67.67,85.82
			c12.07,35.36,11.7,74.18-1.05,109.3c-0.96,2.65-2.91,4.76-5.46,5.96c-1.4,0.65-2.9,0.98-4.45,0.98c-1.24,0-2.46-0.22-3.62-0.64
			l-1.98,4.58L771.69,556z"/>
		<path class="phone_st1" d="M713.07,355.49c1.52,0,3.01,0.43,4.29,1.24c31.09,19.68,54.76,49.7,66.65,84.52
			c11.89,34.82,11.52,73.05-1.03,107.63c-0.74,2.02-2.22,3.64-4.17,4.55c-1.07,0.5-2.22,0.75-3.4,0.75c-0.95,0-1.88-0.16-2.76-0.49
			l-0.81,1.84l0.61-1.91c-0.1-0.03-0.39-0.17-0.59-0.27c-1.78-0.88-3.17-2.38-3.91-4.23c-0.74-1.85-0.77-3.89-0.09-5.77
			c11.29-31.14,11.62-65.54,0.92-96.88c-10.7-31.34-32-58.36-59.97-76.08l-0.16-0.1c-2.35-1.55-3.74-4.23-3.63-7.05
			c0.11-2.87,1.76-5.48,4.3-6.82C710.47,355.81,711.76,355.49,713.07,355.49 M713.07,350.49c-2.08,0-4.17,0.5-6.08,1.5
			c-4.13,2.17-6.78,6.38-6.97,11.04c-0.18,4.66,2.14,9.07,6.08,11.56l0.02,0.01c27.11,17.18,47.55,43.1,57.92,73.48
			c10.37,30.38,10.06,63.38-0.89,93.56c-1.1,3.02-1.05,6.35,0.14,9.34c1.2,2.99,3.45,5.43,6.34,6.85c0.42,0.21,0.84,0.41,1.29,0.55
			l0,0c1.45,0.53,2.97,0.79,4.48,0.79c1.89,0,3.77-0.41,5.51-1.22c3.14-1.46,5.57-4.11,6.76-7.37
			c12.99-35.78,13.36-74.93,1.06-110.96c-12.3-36.03-36.54-66.77-68.7-87.13C717.91,351.16,715.49,350.49,713.07,350.49
			L713.07,350.49z"/>
	</g>
</g>
</svg>
