<?xml version="1.0" encoding="utf-8"?>
<!-- Generator: Adobe Illustrator 26.4.1, SVG Export Plug-In . SVG Version: 6.00 Build 0)  -->
<svg version="1.1" id="Layer_1" xmlns="http://www.w3.org/2000/svg" xmlns:xlink="http://www.w3.org/1999/xlink" x="0px" y="0px"
	 viewBox="0 0 1080 1080" style="enable-background:new 0 0 1080 1080;" xml:space="preserve">
<style type="text/css">
	.headphones_st0{fill-rule:evenodd;clip-rule:evenodd;fill:#00449E;}
</style>
<path class="headphones_st0" d="M780,586.78l30.71-18.9c0.95-0.47,1.42-0.95,2.36-1.89c0-0.94,0.47-1.41,0.47-1.89l23.62-128.98v-0.95
	c0-0.95-0.47-1.89-0.95-2.84c0-0.47,0-0.47-0.47-0.95l-44.88-56.69c-0.47-0.47-0.95-0.95-1.42-1.42c-0.47,0-0.47,0-0.95-0.47
	c0.95-10.87,1.42-22.2,1.42-33.54c0-38.74-5.2-77.48-18.43-115.75c-5.2-15.59-12.28-30.24-20.78-43.46
	c-8.5-13.7-18.43-26.46-29.29-37.8c-22.2-23.15-49.13-42.05-78.9-57.64c-29.76-15.12-62.36-26.46-96.38-34.02
	c-33.54-7.56-68.5-11.34-102.99-11.34c-31.18,0-62.36,3.31-91.18,9.45c-29.29,6.14-56.22,16.06-79.84,28.35
	c-25.51,13.7-48.66,32.6-69.92,55.27c-20.79,22.68-39.69,49.13-55.28,77.95c-15.12,28.82-27.4,60-35.91,91.65
	c-8.5,31.66-13.23,64.25-13.23,95.91c0,23.15,2.36,45.35,7.56,67.09c5.67,21.26,13.7,41.58,24.57,60.47
	c17.01,27.4,36.38,51.97,59.05,73.7c14.65,14.17,30.24,27.4,47.25,40.16c-0.47,0.47-0.47,1.42-0.47,1.89v1.42l16.54,70.39
	c0,0.47,0,0.95,0.47,1.42c0.47,0.95,1.42,1.42,2.36,2.36l116.22,61.42c0.95,0.47,1.89,0.47,2.84,0.47c0.47,0,1.42,0,1.89-0.47
	l68.5-25.04c0.47-0.47,0.47-0.47,0.95-0.47c0.95-0.47,1.42-1.42,1.89-2.36c0.47-0.47,0.47-0.95,0.95-1.42c0,0,0.47,0,0.47-0.47
	c0.95-0.47,1.42-0.95,2.36-1.89c0.47-0.95,0.47-1.89,0.47-2.84c0.47-7.56,0.47-15.59,0.47-23.15c0-1.42-0.47-2.36-0.95-3.31
	s-0.95-1.42-1.89-1.89c-0.47,0-0.47-0.47-0.95-0.47h-0.47c1.42-0.47,2.84-1.42,4.25-1.89c2.36-1.41,4.25-2.83,6.14-4.25
	c1.42-1.89,3.3-3.78,4.25-6.14l8.03-15.12c0.95-1.89,1.42-3.78,1.89-5.67c0.47-1.42,0.47-3.31,0.47-5.2c0-2.36-0.47-5.2-0.95-7.56
	c-0.47-2.36-1.42-4.73-2.83-6.62c-0.95-2.36-2.36-4.25-4.25-6.14s-3.78-3.31-6.14-4.25l-150.71-77.95c-1.41-0.95-3.3-1.89-5.2-2.36
	s-3.78-0.47-5.67-0.47c-2.84,0-5.2,0.47-7.56,0.95c-2.36,0.47-4.25,1.42-6.62,2.84c-1.89,0.94-3.78,2.36-5.67,4.25
	c-1.89,1.42-3.31,3.78-4.25,5.67l-8.03,15.12c-0.94,1.89-1.41,3.78-1.89,5.67c-0.47,1.89-0.95,3.78-0.95,5.2
	c-36.38-27.87-68.98-59.53-96.38-96.38c-13.23-17.95-23.15-36.85-29.29-56.7c-6.14-19.84-8.98-40.16-8.98-60.47
	c0-26.46,4.73-53.39,13.7-79.84c8.98-25.98,21.73-51.5,37.32-75.12c16.06-24.09,34.96-45.82,55.75-64.72
	c20.79-18.9,43.94-34.96,68.03-47.25c28.82-14.65,59.05-25.51,90.24-32.6c30.71-7.56,62.36-11.34,93.07-11.34
	c27.87,0,55.75,3.3,81.73,9.45c25.98,6.62,51.02,16.07,73.23,28.82c22.2,12.76,42.05,28.82,59.05,48.19
	c16.53,19.37,30.23,42.05,40.16,68.5c12.76,32.13,17.48,65.67,17.48,99.21c0,14.64-0.95,29.29-2.36,43.94
	c-0.47-0.95-1.42-1.89-1.89-2.36c-1.89-2.84-4.72-5.2-7.56-7.09c-2.83-1.89-6.14-2.84-9.45-3.78l-18.9-3.3
	c-1.42-0.47-2.84-0.47-4.25-0.47c-3.3,0-6.61,0.95-9.92,1.89c-3.3,1.41-6.14,2.83-8.98,5.2c-2.36,1.89-4.72,4.25-6.61,7.09
	c-1.89,3.31-3.3,6.14-3.78,9.92l-28.35,160.63c0,1.42-0.47,2.84-0.47,4.25c0,3.3,0.95,6.61,1.89,9.92c1.42,3.3,2.83,6.14,5.2,8.97
	c1.89,2.84,4.73,5.2,7.56,7.09c2.84,1.89,6.14,3.3,9.45,3.78l18.43,3.31c1.42,0.47,3.31,0.47,4.72,0.47c3.31,0,6.62-0.47,9.92-1.89
	c2.84-0.95,5.67-2.36,8.03-4.25v0.47c0,0.95,0,1.42,0.47,2.36c4.25,8.5,11.34,12.28,15.59,20.32l0.47,0.47
	c0.47,0.47,0.95,1.42,1.89,1.89c0.95,0.47,1.89,0.94,2.84,0.94c1.42,0,2.36-0.47,3.3-0.94c0.95-0.47,1.42-0.95,1.89-1.89
	c0.95-0.47,1.42-0.47,2.36-0.95l21.26-12.76v0.47c1.42,1.89,3.31,4.25,5.67,7.09c3.78,4.73,8.98,9.92,15.12,16.07
	c12.28,11.34,27.4,24.57,42.52,37.79c15.59,13.23,31.18,26.46,44.41,38.27c6.61,5.67,12.28,11.34,17.48,16.06
	c2.36,2.36,4.25,4.25,6.14,6.61c1.42,1.89,2.84,3.31,4.25,4.73c5.2,9.45,14.17,22.2,21.73,37.79l0.47,0.47
	c-3.31-1.89-6.61-3.31-9.45-4.72c-15.59-6.62-31.65-10.4-45.82-13.23c-7.09-1.42-13.23-2.36-18.9-2.84
	c-2.84-0.47-5.67-0.47-8.03-0.94c-1.89,0-4.25-0.47-6.14-0.47c-2.36,0-4.72-0.47-8.03-0.47c-8.03,0-18.9,0.95-29.76,3.3
	c-11.34,2.36-23.15,6.14-34.02,11.81c-5.67,2.84-10.87,6.14-15.59,9.92c-5.2,3.78-9.45,8.5-13.23,13.7
	c-3.78,5.2-6.61,11.34-8.98,17.95c-1.89,6.61-3.3,13.7-3.3,21.73c0,1.89,0.47,3.78,0.47,5.67c0.47,6.14,1.89,12.28,3.78,17.95
	c1.89,5.2,4.73,10.4,8.5,15.59c6.61,9.45,16.06,17.95,26.93,24.57c10.87,7.09,23.15,12.28,36.38,15.59
	c13.23,3.78,26.93,5.67,41.1,5.67c15.12,0,30.23-2.36,44.41-7.09c7.09-2.83,13.7-5.67,20.31-9.45c6.14-4.25,12.28-8.5,17.48-14.18
	c9.92-9.92,17.01-19.84,21.26-30.23c4.25-10.4,6.14-20.79,6.14-30.71c0-5.67-0.95-11.34-1.89-16.53c5.2,5.67,9.45,12.28,12.76,19.84
	c2.84,7.56,5.2,15.59,5.67,25.04c0,3.78,0.47,7.09,0.47,10.4c0,19.37-3.3,39.68-8.98,60.47c-6.14,20.31-14.17,41.1-24.57,61.42
	c-20.32,39.68-56.07,85.51-84.89,111.97h9.37h7.02c29.77-27.4,58.11-65.67,79.37-106.77c10.4-20.79,18.9-42.05,25.04-63.78
	c5.67-21.26,9.45-42.52,9.45-63.3c0-3.78-0.47-7.09-0.47-10.87c-0.95-10.87-3.31-20.79-6.61-29.29c-3.78-8.5-8.5-16.06-14.65-22.68
	c-4.25-5.2-9.45-9.92-15.12-14.17c-1.89-5.67-4.72-11.34-7.56-16.53c-7.56-16.06-17.01-29.29-22.2-38.27v-0.47l-0.47-0.47
	c-0.95-1.89-2.84-3.78-4.73-6.14l-7.09-7.09c-4.72-5.2-10.87-10.4-17.48-16.53c-13.23-11.81-29.29-25.04-44.41-38.27
	c-15.59-13.23-30.23-25.98-42.05-37.32c-6.14-5.67-10.87-10.87-14.65-15.12C782.83,590.55,781.42,588.66,780,586.78L780,586.78z
	 M843.78,887.25c-12.76,0-25.98-1.89-37.8-5.2c-12.28-3.31-23.62-8.03-33.54-14.18c-9.45-5.67-17.48-13.23-23.62-21.73
	c-2.84-3.78-5.2-8.03-7.09-12.76c-1.42-4.72-2.36-9.45-2.84-14.17c0-1.89-0.47-3.78-0.47-5.2c0-6.62,0.95-12.76,2.84-18.43
	c1.89-5.2,4.25-9.92,7.09-14.18c3.31-4.72,7.09-8.5,10.87-11.81c4.25-3.31,8.98-6.14,13.7-8.5c9.92-5.2,20.79-8.5,31.18-10.4
	c10.39-2.36,19.84-3.31,27.4-3.31c2.84,0,5.2,0.47,7.09,0.47c1.89,0,3.78,0.47,6.14,0.47c2.36,0.47,4.72,0.47,7.56,0.95
	c5.2,0.47,11.34,1.42,18.43,2.84c13.23,2.36,28.34,6.14,42.99,12.28c7.09,3.31,14.17,7.09,20.78,11.34
	c0.47,0.47,0.95,0.47,1.42,0.95c0.47,1.89,0.95,3.31,1.42,5.2c2.36,8.03,4.25,16.53,4.25,25.51c0,8.5-1.89,17.48-5.2,25.98
	c-3.78,8.98-9.92,17.95-18.43,26.93c-4.72,4.73-9.92,8.5-15.59,11.81c-5.67,3.3-11.81,6.14-17.95,8.5
	C871.65,885.36,857.48,887.25,843.78,887.25L843.78,887.25z M276.38,665.2c31.18,19.84,65.67,37.32,101.1,53.86l50.55,26.46
	l-53.38,19.84l-111.5-59.05l-12.76-54.8L276.38,665.2z M275.91,634.96l1.42,0.95c1.42,0.95,2.84,1.89,4.25,2.84
	c47.25,32.12,100.63,59.05,158.74,84.57v10.4c-19.84-8.5-38.74-16.53-57.16-25.51l-101.11-52.91c-4.25-2.84-8.5-5.67-12.75-8.5
	c-25.98-17.01-50.55-35.91-72.29-57.16c-21.73-21.26-40.63-44.88-56.69-71.34c-10.87-17.48-18.43-36.85-23.15-57.16
	c-5.2-20.79-7.56-42.52-7.56-64.25c0-30.71,4.25-61.89,12.75-92.6c8.03-31.18,20.32-61.42,34.96-89.29
	c15.12-27.87,33.07-53.86,53.39-75.59c20.31-21.73,42.52-40.16,66.61-52.91c23.15-11.81,49.13-21.26,77.01-27.4
	c28.35-6.14,58.11-8.98,88.82-8.98c33.54,0,67.56,3.78,100.63,10.86c32.6,7.56,64.25,18.43,93.07,33.54
	c28.82,14.65,54.8,32.6,76.06,54.81c10.4,10.87,19.84,23.15,27.88,35.91c8.03,12.75,14.65,26.46,19.37,41.1
	c12.75,37.32,17.95,74.17,17.95,111.97c0,80.79-22.68,163.94-40.16,251.34c-1.89-2.36-4.25-4.73-6.14-7.56
	c11.81-81.26,37.32-163.46,37.32-242.36c0-34.96-5.2-69.92-18.43-103.46c-9.92-27.4-24.57-51.5-42.05-71.81
	c-17.95-20.79-38.74-37.32-62.36-51.02c-23.15-13.23-48.66-23.15-76.06-29.76c-26.93-6.61-55.75-9.92-84.57-9.92
	c-31.66,0-64.25,3.78-95.91,11.34c-31.65,7.56-62.84,18.9-92.6,34.02c-25.04,12.28-49.14,29.29-70.87,48.66
	c-21.73,19.84-41.1,42.52-57.64,67.09c-16.06,24.57-29.29,51.02-38.74,77.95c-8.98,27.4-14.17,55.75-14.17,83.62
	c0,21.73,3.3,43.47,9.45,64.25c6.61,20.78,17.01,41.1,31.18,60c31.65,42.99,69.92,78.9,113.86,110.08c1.89,1.42,3.78,3.31,5.67,4.25
	L275.91,634.96z M754.02,588.66l35.91-197.48l34.96,44.41l-22.68,123.78L754.02,588.66z"/>
</svg>
